<?xml version="1.0" encoding="utf-8"?>
<!-- Generator: Adobe Illustrator 27.0.0, SVG Export Plug-In . SVG Version: 6.00 Build 0)  -->
<svg version="1.1" id="Layer_1" xmlns="http://www.w3.org/2000/svg" xmlns:xlink="http://www.w3.org/1999/xlink" x="0px" y="0px"
	 viewBox="0 0 132.05679 91.07365" style="enable-background:new 0 0 132.05679 91.07365;" xml:space="preserve">
<style type="text/css">
	.st0{fill:#BDE2D3;}
	.st1{fill:#D7DBEF;}
	.st2{fill:none;stroke:#000000;stroke-width:3.9851;stroke-miterlimit:10;}
	.st3{font-family:'HelveticaNeue';}
	.st4{font-size:10px;}
	.st5{letter-spacing:15;}
	.st6{fill:none;stroke:#000000;stroke-miterlimit:10;}
	.st7{font-size:12px;}
</style>
<rect x="74.08324" y="35.98125" class="st0" width="32.42819" height="50.43369"/>
<rect x="34.02957" y="35.98125" class="st1" width="31.20216" height="50.43369"/>
<rect x="24.09683" y="4.05567" class="st1" width="49.70489" height="19.23873"/>
<line class="st2" x1="39.69791" y1="45.96626" x2="39.69791" y2="41.98125"/>
<path d="M61.27931,45.7574c-0.1004,0-0.16064-0.03009-0.27109-0.09033c-0.26105-0.15063-1.07431-0.81329-1.31528-1.03418
	c0.07028,0.32129,0.22089,1.35547,0.22089,1.65668s-0.13052,0.44177-0.34137,0.44177s-0.34137-0.14056-0.34137-0.44177
	s0.1506-1.33539,0.22089-1.65668c-0.24097,0.22089-1.05423,0.88354-1.31528,1.03418
	c-0.11044,0.06024-0.17068,0.09033-0.27109,0.09033c-0.18073,0-0.33133-0.17065-0.33133-0.34137
	c0-0.12048,0.08032-0.24097,0.26105-0.34137c0.26105-0.15057,1.22491-0.54218,1.55624-0.64258
	c-0.33133-0.1004-1.2952-0.49194-1.55624-0.64258c-0.18073-0.1004-0.26105-0.22089-0.26105-0.34137
	c0-0.17065,0.1506-0.34137,0.33133-0.34137c0.1004,0,0.16064,0.03015,0.27109,0.09039
	c0.26105,0.15057,1.07431,0.81323,1.31528,1.01404c-0.07028-0.31122-0.22089-1.3454-0.22089-1.64661
	s0.13052-0.44177,0.34137-0.44177s0.34137,0.14056,0.34137,0.44177s-0.1506,1.33539-0.22089,1.64661
	c0.24097-0.20081,1.05423-0.86346,1.31528-1.01404c0.11044-0.06024,0.17068-0.09039,0.27109-0.09039
	c0.18073,0,0.33133,0.17072,0.33133,0.34137c0,0.12048-0.08032,0.24097-0.26105,0.34137
	c-0.26105,0.15063-1.22491,0.54218-1.55624,0.64258c0.33133,0.1004,1.2952,0.492,1.55624,0.64258
	c0.18073,0.1004,0.26105,0.22089,0.26105,0.34137C61.61064,45.58675,61.46004,45.7574,61.27931,45.7574z"/>
<path d="M82.04231,45.7574c-0.1004,0-0.16064-0.03009-0.27109-0.09033c-0.26105-0.15063-1.07431-0.81329-1.31528-1.03418
	c0.07028,0.32129,0.22089,1.35547,0.22089,1.65668s-0.13052,0.44177-0.34137,0.44177s-0.34137-0.14056-0.34137-0.44177
	s0.1506-1.33539,0.22089-1.65668c-0.24097,0.22089-1.05423,0.88354-1.31528,1.03418
	c-0.11044,0.06024-0.17068,0.09033-0.27109,0.09033c-0.18073,0-0.33133-0.17065-0.33133-0.34137
	c0-0.12048,0.08032-0.24097,0.26105-0.34137c0.26105-0.15057,1.22491-0.54218,1.55624-0.64258
	c-0.33133-0.1004-1.2952-0.49194-1.55624-0.64258c-0.18073-0.1004-0.26105-0.22089-0.26105-0.34137
	c0-0.17065,0.1506-0.34137,0.33133-0.34137c0.1004,0,0.16064,0.03015,0.27109,0.09039
	c0.26105,0.15057,1.07431,0.81323,1.31528,1.01404c-0.07028-0.31122-0.22089-1.3454-0.22089-1.64661
	s0.13052-0.44177,0.34137-0.44177s0.34137,0.14056,0.34137,0.44177s-0.1506,1.33539-0.22089,1.64661
	c0.24097-0.20081,1.05423-0.86346,1.31528-1.01404c0.11044-0.06024,0.17068-0.09039,0.27109-0.09039
	c0.18073,0,0.33133,0.17072,0.33133,0.34137c0,0.12048-0.08032,0.24097-0.26105,0.34137
	c-0.26105,0.15063-1.22491,0.54218-1.55624,0.64258c0.33133,0.1004,1.2952,0.492,1.55624,0.64258
	c0.18073,0.1004,0.26105,0.22089,0.26105,0.34137C82.37364,45.58675,82.22304,45.7574,82.04231,45.7574z"/>
<path d="M102.80531,45.7574c-0.1004,0-0.16064-0.03009-0.27109-0.09033c-0.26105-0.15063-1.07431-0.81329-1.31528-1.03418
	c0.07028,0.32129,0.22089,1.35547,0.22089,1.65668s-0.13052,0.44177-0.34137,0.44177s-0.34137-0.14056-0.34137-0.44177
	s0.1506-1.33539,0.22089-1.65668c-0.24097,0.22089-1.05423,0.88354-1.31528,1.03418
	c-0.11044,0.06024-0.17068,0.09033-0.27109,0.09033c-0.18073,0-0.33133-0.17065-0.33133-0.34137
	c0-0.12048,0.08032-0.24097,0.26105-0.34137c0.26105-0.15057,1.22491-0.54218,1.55624-0.64258
	c-0.33133-0.1004-1.2952-0.49194-1.55624-0.64258c-0.18073-0.1004-0.26105-0.22089-0.26105-0.34137
	c0-0.17065,0.1506-0.34137,0.33133-0.34137c0.1004,0,0.16064,0.03015,0.27109,0.09039
	c0.26105,0.15057,1.07431,0.81323,1.31528,1.01404c-0.07028-0.31122-0.22089-1.3454-0.22089-1.64661
	s0.13052-0.44177,0.34137-0.44177s0.34137,0.14056,0.34137,0.44177s-0.1506,1.33539-0.22089,1.64661
	c0.24097-0.20081,1.05423-0.86346,1.31528-1.01404c0.11044-0.06024,0.17068-0.09039,0.27109-0.09039
	c0.18073,0,0.33133,0.17072,0.33133,0.34137c0,0.12048-0.08032,0.24097-0.26105,0.34137
	c-0.26105,0.15063-1.22491,0.54218-1.55624,0.64258c0.33133,0.1004,1.2952,0.492,1.55624,0.64258
	c0.18073,0.1004,0.26105,0.22089,0.26105,0.34137C103.13664,45.58675,102.98604,45.7574,102.80531,45.7574z"/>
<text transform="matrix(1 0 0 1 36.67109 58.96247)" class="st3 st4">0</text>
<line class="st2" x1="60.46091" y1="57.96626" x2="60.46091" y2="53.98125"/>
<path d="M82.04231,57.7574c-0.1004,0-0.16064-0.03009-0.27109-0.09033c-0.26105-0.15063-1.07431-0.81329-1.31528-1.03418
	c0.07028,0.32129,0.22089,1.35547,0.22089,1.65668s-0.13052,0.44177-0.34137,0.44177s-0.34137-0.14056-0.34137-0.44177
	s0.1506-1.33539,0.22089-1.65668c-0.24097,0.22089-1.05423,0.88354-1.31528,1.03418
	c-0.11044,0.06024-0.17068,0.09033-0.27109,0.09033c-0.18073,0-0.33133-0.17065-0.33133-0.34137
	c0-0.12048,0.08032-0.24097,0.26105-0.34137c0.26105-0.15057,1.22491-0.54218,1.55624-0.64258
	c-0.33133-0.1004-1.2952-0.49194-1.55624-0.64258c-0.18073-0.1004-0.26105-0.22089-0.26105-0.34137
	c0-0.17065,0.1506-0.34137,0.33133-0.34137c0.1004,0,0.16064,0.03015,0.27109,0.09039
	c0.26105,0.15057,1.07431,0.81323,1.31528,1.01404c-0.07028-0.31122-0.22089-1.3454-0.22089-1.64661
	s0.13052-0.44177,0.34137-0.44177s0.34137,0.14056,0.34137,0.44177s-0.1506,1.33539-0.22089,1.64661
	c0.24097-0.20081,1.05423-0.86346,1.31528-1.01404c0.11044-0.06024,0.17068-0.09039,0.27109-0.09039
	c0.18073,0,0.33133,0.17072,0.33133,0.34137c0,0.12048-0.08032,0.24097-0.26105,0.34137
	c-0.26105,0.15063-1.22491,0.54218-1.55624,0.64258c0.33133,0.1004,1.2952,0.492,1.55624,0.64258
	c0.18073,0.1004,0.26105,0.22089,0.26105,0.34137C82.37364,57.58675,82.22304,57.7574,82.04231,57.7574z"/>
<path d="M102.80531,57.7574c-0.1004,0-0.16064-0.03009-0.27109-0.09033c-0.26105-0.15063-1.07431-0.81329-1.31528-1.03418
	c0.07028,0.32129,0.22089,1.35547,0.22089,1.65668s-0.13052,0.44177-0.34137,0.44177s-0.34137-0.14056-0.34137-0.44177
	s0.1506-1.33539,0.22089-1.65668c-0.24097,0.22089-1.05423,0.88354-1.31528,1.03418
	c-0.11044,0.06024-0.17068,0.09033-0.27109,0.09033c-0.18073,0-0.33133-0.17065-0.33133-0.34137
	c0-0.12048,0.08032-0.24097,0.26105-0.34137c0.26105-0.15057,1.22491-0.54218,1.55624-0.64258
	c-0.33133-0.1004-1.2952-0.49194-1.55624-0.64258c-0.18073-0.1004-0.26105-0.22089-0.26105-0.34137
	c0-0.17065,0.1506-0.34137,0.33133-0.34137c0.1004,0,0.16064,0.03015,0.27109,0.09039
	c0.26105,0.15057,1.07431,0.81323,1.31528,1.01404c-0.07028-0.31122-0.22089-1.3454-0.22089-1.64661
	s0.13052-0.44177,0.34137-0.44177s0.34137,0.14056,0.34137,0.44177s-0.1506,1.33539-0.22089,1.64661
	c0.24097-0.20081,1.05423-0.86346,1.31528-1.01404c0.11044-0.06024,0.17068-0.09039,0.27109-0.09039
	c0.18073,0,0.33133,0.17072,0.33133,0.34137c0,0.12048-0.08032,0.24097-0.26105,0.34137
	c-0.26105,0.15063-1.22491,0.54218-1.55624,0.64258c0.33133,0.1004,1.2952,0.492,1.55624,0.64258
	c0.18073,0.1004,0.26105,0.22089,0.26105,0.34137C103.13664,57.58675,102.98604,57.7574,102.80531,57.7574z"/>
<text transform="matrix(1 0 0 1 36.67109 70.96247)"><tspan x="0" y="0" class="st3 st4 st5">0</tspan><tspan x="21.22998" y="0" class="st3 st4 st5">0</tspan><tspan x="42.47021" y="0" class="st3 st4 st5">0</tspan><tspan x="63.7002" y="0" class="st3 st4">0</tspan></text>
<text transform="matrix(1 0 0 1 36.67109 82.96247)"><tspan x="0" y="0" class="st3 st4 st5">0</tspan><tspan x="21.22998" y="0" class="st3 st4 st5">0</tspan><tspan x="42.47021" y="0" class="st3 st4 st5">0</tspan><tspan x="63.7002" y="0" class="st3 st4">0</tspan></text>
<polyline class="st6" points="30.37885,35.46691 25.291,35.46691 25.291,85.49258 30.37885,85.49258 "/>
<polyline class="st6" points="107.2299,35.46691 112.31776,35.46691 112.31776,85.49258 107.2299,85.49258 "/>
<text transform="matrix(1 0 0 1 3.53015 58.49428)" class="st3 st7">m</text>
<text transform="matrix(1 0 0 1 69.4826 32.61106)" class="st3 st7">n</text>
<g>
	<g>
		<path d="M25.75088,11.90485V9.19001h0.375l0.04492,0.49463h0.01025c0.09326-0.17285,0.20752-0.31055,0.34229-0.41211
			c0.13525-0.10205,0.27734-0.15283,0.42773-0.15283c0.06299,0,0.11719,0.00439,0.16211,0.0127
			c0.04541,0.0083,0.08789,0.02441,0.12793,0.04736l-0.08496,0.39502c-0.04688-0.01318-0.08838-0.02393-0.125-0.03223
			c-0.03711-0.0083-0.0835-0.0127-0.14014-0.0127c-0.10986,0-0.22852,0.04736-0.35498,0.14258
			c-0.12695,0.09473-0.23535,0.25732-0.3252,0.4873v1.74512H25.75088z"/>
		<path d="M29.76064,7.69977l0.33545,0.15527c-0.18359,0.30322-0.40088,0.59082-0.65283,0.8623
			c-0.25146,0.27148-0.52832,0.51758-0.83008,0.7373c-0.30176,0.22021-0.61084,0.40869-0.92725,0.56543
			c-0.03027-0.05664-0.0708-0.1167-0.12256-0.18018s-0.104-0.11816-0.15771-0.16504
			c0.31689-0.13672,0.62256-0.30566,0.91748-0.50732c0.29541-0.20166,0.56689-0.42773,0.81543-0.67773
			C29.38662,8.23981,29.59414,7.97663,29.76064,7.69977z M29.53066,9.17975h0.39014v3.12012h-0.39014V9.17975z M29.871,7.97468
			c0.22314,0.27344,0.45312,0.51416,0.68994,0.72266c0.23633,0.2085,0.48145,0.3916,0.73486,0.5498
			c0.25342,0.15869,0.51318,0.3042,0.78028,0.4375c-0.05029,0.04004-0.10108,0.0918-0.15283,0.15527s-0.09229,0.125-0.12256,0.18506
			c-0.27002-0.14355-0.53076-0.30176-0.78223-0.4751c-0.25195-0.17334-0.49951-0.375-0.74268-0.60498
			s-0.48682-0.49854-0.72998-0.80518L29.871,7.97468z"/>
		<path d="M32.59072,9.78962c-0.00635-0.02637-0.01758-0.06152-0.03223-0.10498c-0.01514-0.04297-0.03027-0.08789-0.04492-0.13477
			c-0.01514-0.04688-0.03125-0.08496-0.04785-0.11523c0.04688-0.00977,0.09277-0.04297,0.1377-0.09961
			s0.09424-0.12695,0.14746-0.20996c0.02686-0.04004,0.06738-0.10791,0.12256-0.20264
			c0.05469-0.09521,0.11572-0.20752,0.18262-0.3374c0.06641-0.13037,0.13232-0.26953,0.19727-0.41748
			c0.06494-0.14844,0.12256-0.29785,0.17236-0.44775l0.3501,0.16504c-0.0835,0.20361-0.17725,0.40771-0.28223,0.6123
			c-0.10498,0.20508-0.21533,0.40088-0.33008,0.58789c-0.11523,0.18652-0.23096,0.35303-0.34766,0.5v0.00977
			c-0.04346,0.02686-0.08105,0.05029-0.1123,0.06982c-0.03174,0.02002-0.05859,0.04102-0.08008,0.0625
			C32.60147,9.74909,32.59072,9.77009,32.59072,9.78962z M32.621,10.99469c-0.00342-0.02637-0.0127-0.06055-0.02783-0.10254
			c-0.01465-0.0415-0.02979-0.08496-0.04492-0.12988c-0.01465-0.04492-0.03076-0.08252-0.04736-0.1123
			c0.05664-0.01025,0.11475-0.04443,0.1748-0.10254c0.06006-0.05859,0.12842-0.13428,0.20508-0.22754
			c0.04004-0.04688,0.10107-0.12158,0.18262-0.2251c0.08154-0.10303,0.17139-0.22656,0.27002-0.37012
			c0.09814-0.14307,0.19922-0.29834,0.30225-0.46484c0.10352-0.1665,0.19873-0.33496,0.28516-0.50488l0.31494,0.18994
			c-0.19678,0.33984-0.4126,0.67236-0.64746,0.99756c-0.23486,0.32471-0.4707,0.60889-0.70752,0.85254v0.00977
			c-0.05322,0.02344-0.09668,0.04492-0.12988,0.06494s-0.06348,0.04102-0.08984,0.0625
			C32.63418,10.95417,32.621,10.97468,32.621,10.99469z M32.50088,11.63483c0.14014-0.03662,0.2998-0.07812,0.47998-0.125
			c0.18018-0.04639,0.37061-0.09814,0.57227-0.15479s0.40625-0.11328,0.61279-0.17041l0.05518,0.32031
			c-0.29004,0.08643-0.57861,0.17139-0.86523,0.25488s-0.54492,0.16162-0.7749,0.23486L32.50088,11.63483z M32.59072,9.78962
			l-0.00977-0.27979l0.17969-0.11475l0.93506-0.09521c-0.00977,0.0498-0.01758,0.10498-0.02246,0.16504
			s-0.00732,0.1084-0.00732,0.14502c-0.21338,0.02686-0.38574,0.04932-0.51758,0.06738
			c-0.13184,0.01855-0.23438,0.03418-0.30762,0.04736c-0.07324,0.01367-0.12842,0.02539-0.16504,0.03516
			C32.63906,9.77009,32.61074,9.77985,32.59072,9.78962z M32.621,10.99469l-0.01514-0.30469l0.18018-0.13037l1.36475-0.24463
			c-0.00684,0.0498-0.00928,0.10547-0.00732,0.16748c0.00146,0.06152,0.00391,0.11084,0.00732,0.14746
			c-0.31348,0.06348-0.56592,0.11572-0.75732,0.15723c-0.19189,0.04199-0.33838,0.0752-0.43994,0.1001
			c-0.10205,0.0249-0.17578,0.04492-0.22266,0.06006S32.64737,10.97809,32.621,10.99469z M36.66592,10.15973l0.31494,0.1499
			c-0.18359,0.28711-0.40918,0.55127-0.67773,0.79248c-0.26807,0.24219-0.56641,0.45605-0.89453,0.64258
			c-0.32861,0.18701-0.67432,0.34326-1.0376,0.47021c-0.02344-0.04688-0.05762-0.09912-0.10254-0.15771
			c-0.04492-0.05811-0.08936-0.10889-0.13281-0.15234c0.35693-0.10986,0.6958-0.25,1.01758-0.41992s0.61279-0.36768,0.87256-0.59277
			C36.28604,10.66755,36.49893,10.42341,36.66592,10.15973z M34.2958,9.98005l2.58984-0.47998l0.06006,0.32959l-2.58984,0.49023
			L34.2958,9.98005z M34.3959,8.90485l2.3501-0.3501l0.06006,0.33008l-2.3501,0.35986L34.3959,8.90485z M35.15078,7.69489h0.37012
			c0,0.39355,0.00928,0.77002,0.02734,1.12988c0.01855,0.35986,0.04834,0.69775,0.09033,1.0127
			c0.0415,0.31494,0.09131,0.6001,0.1499,0.85498c0.05811,0.25488,0.12549,0.4751,0.20215,0.65967
			c0.07666,0.18506,0.1626,0.32715,0.25781,0.42529c0.09473,0.09814,0.19727,0.14746,0.30762,0.14746
			c0.04297,0,0.0791-0.01611,0.10742-0.04736c0.02832-0.03174,0.05078-0.08838,0.06738-0.16992
			c0.0166-0.08203,0.02832-0.1958,0.03516-0.34277c0.03662,0.04346,0.08154,0.08252,0.13477,0.11768
			c0.05322,0.03467,0.10156,0.0625,0.14502,0.08252c-0.02002,0.18652-0.0498,0.33252-0.08984,0.4375
			s-0.09521,0.1792-0.16504,0.22217c-0.06982,0.04346-0.16162,0.06494-0.2749,0.06494c-0.16699,0-0.31592-0.05566-0.44775-0.16748
			c-0.13184-0.11133-0.24756-0.27148-0.34717-0.47998c-0.1001-0.20801-0.18604-0.45312-0.25781-0.73486
			s-0.12988-0.59424-0.1748-0.9375s-0.07861-0.70654-0.1001-1.08984C35.16641,8.49665,35.1542,8.10163,35.15078,7.69489z
			 M35.75088,8.00495l0.22021-0.20996c0.08301,0.03662,0.17041,0.08008,0.26221,0.12988s0.17822,0.10107,0.26025,0.15234
			c0.08154,0.05176,0.14893,0.10107,0.20215,0.14746l-0.21973,0.23535c-0.08008-0.07324-0.18945-0.15283-0.32764-0.23779
			S35.87735,8.06501,35.75088,8.00495z"/>
		<path d="M37.63076,8.65485l0.28516,0.04004c-0.01025,0.13672-0.02588,0.28662-0.04736,0.4502
			c-0.02197,0.16309-0.05029,0.32324-0.08496,0.47998c-0.03516,0.15674-0.07422,0.29639-0.11768,0.41992L37.371,9.94489
			c0.04639-0.11328,0.08643-0.24414,0.11963-0.39258c0.03369-0.14844,0.0625-0.30176,0.08789-0.45996
			C37.60342,8.93415,37.621,8.78815,37.63076,8.65485z M38.09072,7.70466h0.375v4.59521h-0.375V7.70466z M38.50088,8.62507
			l0.26514-0.11523c0.07666,0.1333,0.14893,0.2793,0.21729,0.4375s0.11572,0.29102,0.14258,0.39746L38.8461,9.48981
			c-0.01709-0.07666-0.04346-0.16406-0.08008-0.2627c-0.03711-0.09814-0.07764-0.20068-0.12256-0.30713
			C38.59854,8.81305,38.55069,8.71491,38.50088,8.62507z M38.90078,11.77009h3.0752v0.35498h-3.0752V11.77009z M39.52578,7.93464
			l0.36523,0.06006c-0.04346,0.24365-0.09766,0.48193-0.1626,0.71533s-0.13672,0.45166-0.21484,0.65479
			c-0.07861,0.20361-0.16455,0.3833-0.25781,0.54004c-0.02344-0.0166-0.05566-0.03662-0.09717-0.06006
			c-0.04199-0.02344-0.08447-0.04492-0.12793-0.06494c-0.04297-0.02002-0.07959-0.03662-0.10986-0.0498
			c0.09668-0.14697,0.18311-0.31592,0.26025-0.50781c0.07666-0.19141,0.14404-0.39795,0.20215-0.62012
			C39.4418,8.38093,39.48916,8.15827,39.52578,7.93464z M39.27578,10.16462H41.746v0.3501h-2.47021V10.16462z M39.52578,8.76471
			h2.33008v0.36035h-2.44482L39.52578,8.76471z M40.33584,7.72468h0.37988v4.24512h-0.37988V7.72468z"/>
		<path d="M44.4667,8.17975h0.37891c-0.00586,0.24658-0.01758,0.49951-0.03516,0.75781
			c-0.01562,0.2583-0.04688,0.51807-0.0918,0.77979s-0.11523,0.51855-0.20703,0.77002
			c-0.09375,0.25146-0.21875,0.48926-0.37305,0.7124c-0.15527,0.22363-0.35156,0.43018-0.58984,0.62012
			c-0.23877,0.18994-0.52637,0.35156-0.86279,0.48486c-0.03027-0.04639-0.06836-0.1001-0.11523-0.15967
			c-0.04639-0.06006-0.09473-0.1084-0.14502-0.14502c0.3335-0.12354,0.61328-0.27295,0.84033-0.44775
			c0.22607-0.1748,0.41357-0.3667,0.56006-0.5752c0.14648-0.20801,0.26172-0.42871,0.34766-0.66211
			c0.08398-0.2334,0.14648-0.47168,0.18555-0.71533c0.03711-0.24316,0.0625-0.48486,0.07617-0.72461
			C44.44912,8.63483,44.45889,8.40339,44.4667,8.17975z M42.49063,9.52009h4.49561v0.36475h-4.49561V9.52009z M42.80069,8.03962
			h3.90039v0.37012h-3.90039V8.03962z M44.78506,9.80964h0.39062v1.79541c0,0.08984,0.01953,0.14795,0.05859,0.1748
			c0.03711,0.02686,0.11914,0.04004,0.24609,0.04004c0.03125,0,0.08398,0,0.16211,0c0.08008,0,0.16602,0,0.26172,0
			c0.09375,0,0.18359,0,0.26758,0c0.08203,0,0.14453,0,0.18359,0c0.08398,0,0.14648-0.01904,0.1875-0.05762
			c0.04297-0.03809,0.07031-0.11475,0.08789-0.22998c0.01758-0.11475,0.0293-0.28564,0.03516-0.51221
			c0.0293,0.02295,0.06641,0.04541,0.10938,0.06738c0.04297,0.02148,0.08789,0.04004,0.13281,0.05469
			c0.04492,0.01514,0.08594,0.02783,0.12305,0.0376c-0.01758,0.26367-0.04492,0.46924-0.08594,0.61768
			c-0.03906,0.14844-0.10352,0.25049-0.19141,0.30762c-0.08789,0.05664-0.21289,0.08496-0.37305,0.08496
			c-0.02344,0-0.06641,0-0.13086,0c-0.0625,0-0.13477,0-0.2168,0s-0.16406,0-0.24414,0c-0.08203,0-0.1543,0-0.21875,0
			c-0.0625,0-0.10352,0-0.125,0c-0.17188,0-0.30859-0.01758-0.4043-0.05273c-0.09766-0.03516-0.16406-0.09473-0.19922-0.17969
			c-0.03711-0.08545-0.05664-0.20264-0.05664-0.35254V9.80964z"/>
		<path d="M49.53506,8.90485h0.42578v0.85498c0,0.16357-0.01367,0.33447-0.04004,0.5127
			c-0.02734,0.17822-0.08203,0.35645-0.16504,0.53467c-0.08398,0.17871-0.20605,0.35596-0.36816,0.53271
			c-0.16113,0.17676-0.37598,0.3457-0.64453,0.50732s-0.60254,0.3125-1.00293,0.45264
			c-0.0127-0.02979-0.03516-0.06494-0.06445-0.10498c-0.03027-0.04004-0.0625-0.08105-0.09766-0.12256
			s-0.07129-0.07568-0.10742-0.10254c0.38281-0.12988,0.7002-0.2666,0.9502-0.41016c0.25-0.14307,0.44922-0.29248,0.59961-0.44727
			s0.26172-0.31006,0.33496-0.46484c0.07324-0.15527,0.12207-0.30859,0.14453-0.45996
			c0.02344-0.15186,0.03516-0.2959,0.03516-0.43262V8.90485z M47.57022,10.03473h4.33496v0.37012h-4.33496V10.03473z
			 M47.8749,8.77009h3.76074v0.375H47.8749V8.77009z M48.35049,7.90973l0.31445-0.15967
			c0.10742,0.12646,0.20996,0.26904,0.30762,0.42725c0.09863,0.1582,0.1709,0.2959,0.21777,0.4126l-0.33984,0.18506
			c-0.02637-0.08008-0.06641-0.16992-0.12012-0.27002s-0.1123-0.20264-0.17773-0.30762
			C48.48819,8.09235,48.4208,7.99665,48.35049,7.90973z M49.94033,10.15485c0.11621,0.29004,0.27344,0.55176,0.46973,0.78516
			c0.19727,0.2334,0.43164,0.43213,0.70508,0.59717s0.57812,0.28955,0.91504,0.37256
			c-0.02637,0.03027-0.05762,0.06592-0.09277,0.10742c-0.03418,0.04199-0.06738,0.08496-0.09668,0.13037
			c-0.03027,0.04492-0.05566,0.0874-0.0752,0.12744c-0.35059-0.10693-0.66309-0.25439-0.94043-0.44238
			c-0.27637-0.18848-0.5166-0.41602-0.71973-0.68262s-0.37207-0.56689-0.50488-0.8999L49.94033,10.15485z M50.78506,7.72468
			l0.40527,0.13525c-0.07031,0.12988-0.14453,0.26318-0.22461,0.3999s-0.16113,0.26758-0.24316,0.39258
			c-0.08105,0.125-0.15918,0.23584-0.23242,0.33252l-0.31445-0.12988c0.06934-0.1001,0.14258-0.21582,0.21973-0.34766
			c0.07617-0.13184,0.14941-0.2666,0.21777-0.40527C50.68155,7.96393,50.73819,7.83844,50.78506,7.72468z"/>
		<path d="M52.66494,8.50983h0.3457v3.66504h-0.3457V8.50983z M52.86026,9.89997h1.37988v0.33008h-1.37988V9.89997z
			 M52.88565,8.50983h1.51953v3.27002h-1.51953v-0.33984h1.1748V8.84479h-1.1748V8.50983z M53.43057,7.69489l0.40527,0.06982
			c-0.05078,0.15674-0.10449,0.31494-0.16309,0.4751s-0.1123,0.29688-0.16211,0.41016l-0.30566-0.0752
			c0.03027-0.08301,0.05957-0.17676,0.08789-0.27979c0.02832-0.10352,0.05469-0.2085,0.08008-0.31494
			C53.39834,7.87311,53.4169,7.77839,53.43057,7.69489z M55.22061,7.68464l0.35938,0.08008
			c-0.05957,0.25-0.13184,0.49414-0.2168,0.73242c-0.08496,0.23877-0.17871,0.46289-0.28027,0.67285
			s-0.20898,0.39502-0.32227,0.55469c-0.02344-0.02002-0.05469-0.04395-0.09277-0.07227s-0.07715-0.05518-0.11719-0.08008
			s-0.0752-0.0459-0.10547-0.0625c0.11719-0.1499,0.22363-0.32227,0.32031-0.51758c0.09668-0.19482,0.18359-0.40381,0.25977-0.62744
			C55.10244,8.14167,55.1669,7.91462,55.22061,7.68464z M54.99014,9.78962l0.29492-0.16455
			c0.09375,0.1167,0.19141,0.24463,0.29297,0.38477s0.19678,0.2749,0.28564,0.40479
			c0.08789,0.13037,0.15918,0.24512,0.21191,0.34521l-0.31934,0.2002c-0.05078-0.10352-0.11865-0.22266-0.20361-0.35791
			c-0.08496-0.13477-0.17676-0.27295-0.27441-0.41455C55.17959,10.04548,55.08389,9.91315,54.99014,9.78962z M55.12002,8.49469
			h1.53564v0.34521h-1.53564V8.49469z M56.5209,8.49469h0.35449c0,0.04688,0,0.08594,0,0.11768s-0.00098,0.05566-0.00488,0.07227
			c-0.01953,0.57373-0.03906,1.05859-0.05762,1.45508c-0.01758,0.39697-0.04004,0.72119-0.06738,0.97266
			c-0.02637,0.25146-0.05762,0.44727-0.0918,0.5874c-0.03516,0.14014-0.07812,0.24023-0.12793,0.30029
			c-0.05664,0.07324-0.11621,0.12402-0.17773,0.15234s-0.13672,0.04736-0.22754,0.05762
			c-0.08301,0.00635-0.19238,0.00879-0.32715,0.00732c-0.13525-0.00195-0.2749-0.00732-0.41846-0.01758
			c-0.00293-0.05322-0.01562-0.11475-0.03711-0.18506c-0.02148-0.06982-0.05078-0.12793-0.08789-0.1748
			c0.16699,0.01318,0.31836,0.02148,0.45312,0.0249c0.13525,0.00342,0.23291,0.00488,0.29248,0.00488
			c0.05078,0,0.09082-0.00586,0.12305-0.01758c0.03125-0.01123,0.0625-0.03369,0.09277-0.06738
			c0.03906-0.04297,0.0752-0.13232,0.10742-0.26758c0.03125-0.13477,0.05859-0.32715,0.08203-0.57715
			s0.04492-0.56934,0.06543-0.95752c0.01953-0.38818,0.03809-0.85742,0.05469-1.40771V8.49469z"/>
		<path d="M57.72598,8.56989h3.80469v0.36475H58.0961v3.37012h-0.37012V8.56989z M58.75039,9.59968h0.3457v2.01514h-0.3457V9.59968z
			 M58.91055,9.59968h1.80078v1.65527h-1.80078v-0.34033h1.4502V9.93464h-1.4502V9.59968z M59.42129,7.69489l0.46484,0.0752
			c-0.07324,0.17969-0.15527,0.36328-0.24512,0.5498s-0.17383,0.34668-0.25,0.47998l-0.35547-0.08984
			c0.04688-0.09326,0.09473-0.2002,0.14258-0.32031c0.04883-0.11963,0.0957-0.24072,0.14062-0.3623
			S59.39785,7.79499,59.42129,7.69489z M61.39102,8.56989h0.375v3.23486c0,0.12354-0.0166,0.21826-0.0498,0.28516
			c-0.03418,0.06641-0.0957,0.1167-0.18555,0.1499c-0.08984,0.03027-0.21289,0.04834-0.37012,0.05518
			c-0.15625,0.00635-0.34961,0.00977-0.58008,0.00977c-0.00293-0.03662-0.01172-0.07764-0.02734-0.12256
			c-0.01465-0.04492-0.03027-0.0918-0.04688-0.13965c-0.01758-0.04834-0.03516-0.09082-0.05566-0.12793
			c0.12012,0.00684,0.23633,0.01123,0.34766,0.0127s0.20801,0.00146,0.29004,0s0.13965-0.00244,0.17285-0.00244
			c0.05273,0,0.08789-0.00928,0.10449-0.02734c0.0166-0.01855,0.02539-0.04932,0.02539-0.09277V8.56989z"/>
		<path d="M62.46621,11.88971h4.54004v0.29004h-4.54004V11.88971z M62.49063,9.29499h4.48535v0.28467h-4.48535V9.29499z
			 M62.88614,11.33503h3.70996v0.26465h-3.70996V11.33503z M63.02578,9.80475h3.45996v1.25488h-3.45996V9.80475z M63.11563,7.86481
			h3.22558v1.21484h-3.22558V7.86481z M63.38125,10.03962v0.28027h2.73437v-0.28027H63.38125z M63.38125,10.53962v0.29004h2.73437
			v-0.29004H63.38125z M63.48086,8.08991v0.27002h2.48535V8.08991H63.48086z M63.48086,8.57966v0.27539h2.48535V8.57966H63.48086z
			 M64.54043,9.88971h0.36523v2.1499h-0.36523V9.88971z"/>
		<path d="M67.56094,9.78962c-0.00684-0.02295-0.01758-0.05664-0.03223-0.09961c-0.01562-0.04346-0.03027-0.08789-0.04492-0.13281
			c-0.01562-0.04492-0.0293-0.08398-0.04297-0.11719c0.04688-0.01025,0.09375-0.04248,0.14258-0.09766
			c0.04785-0.05518,0.10059-0.12598,0.15723-0.2124c0.03027-0.04004,0.0752-0.1084,0.13477-0.20508
			c0.06055-0.09668,0.12598-0.21094,0.19824-0.34229c0.07129-0.13184,0.14258-0.27344,0.21484-0.42529
			c0.07129-0.15137,0.13574-0.30225,0.19238-0.45264l0.33984,0.15527c-0.09277,0.20996-0.19629,0.41846-0.30957,0.625
			s-0.23145,0.4043-0.35254,0.59229c-0.12207,0.18848-0.24609,0.35742-0.37305,0.50781v0.01465
			c-0.04297,0.02344-0.08008,0.0459-0.1123,0.06787c-0.03125,0.02148-0.05859,0.04248-0.08008,0.0625
			S67.56094,9.77009,67.56094,9.78962z M67.47109,11.61481c0.14648-0.02979,0.31348-0.06592,0.5-0.10742
			s0.38477-0.0874,0.59473-0.1377c0.20996-0.0498,0.42188-0.09961,0.63477-0.1499l0.03516,0.31982
			c-0.29688,0.07715-0.59375,0.15381-0.89258,0.23047c-0.29785,0.07666-0.56445,0.14453-0.79688,0.20459L67.47109,11.61481z
			 M67.59609,10.99469c-0.00684-0.02637-0.0166-0.06006-0.03027-0.09961c-0.01367-0.04004-0.02734-0.08203-0.04199-0.125
			c-0.01562-0.04346-0.03125-0.08008-0.04785-0.11035c0.05664-0.00977,0.11719-0.04395,0.18262-0.10254
			c0.06445-0.05811,0.13867-0.13379,0.22266-0.22754c0.04297-0.04297,0.10742-0.11719,0.19434-0.22217
			s0.18359-0.22949,0.29004-0.37256c0.10645-0.14355,0.21582-0.29736,0.32812-0.4624
			c0.11133-0.16504,0.21582-0.33447,0.3125-0.50781l0.2998,0.18506c-0.21387,0.34668-0.44727,0.68164-0.7002,1.00488
			c-0.25293,0.32373-0.50684,0.60498-0.75977,0.84521v0.00977c-0.0498,0.02344-0.0918,0.04443-0.125,0.0625
			c-0.0332,0.01855-0.0625,0.03857-0.08789,0.06006C67.60879,10.95417,67.59609,10.97468,67.59609,10.99469z M67.56094,9.78962
			l-0.00977-0.26953l0.17969-0.11523l1-0.10498c-0.00684,0.04346-0.01367,0.09521-0.01953,0.15479
			c-0.00684,0.06006-0.00879,0.1084-0.00586,0.14502c-0.22949,0.03027-0.41504,0.05518-0.55664,0.0752
			c-0.14258,0.02002-0.25195,0.03662-0.33008,0.0498c-0.0791,0.01367-0.13672,0.02539-0.17285,0.03516
			C67.60879,9.77009,67.58047,9.77985,67.56094,9.78962z M67.59609,10.99469l-0.02051-0.29492l0.18555-0.12988l1.47949-0.27002
			c-0.00684,0.0498-0.00977,0.10498-0.00977,0.16504s0.00195,0.1084,0.00488,0.14502
			c-0.33984,0.06641-0.6123,0.12256-0.81738,0.16748s-0.3623,0.08057-0.47266,0.10742
			c-0.10938,0.02686-0.18945,0.04736-0.2373,0.0625C67.65957,10.96247,67.62246,10.97809,67.59609,10.99469z M69.13125,11.84968
			h2.89453v0.34521h-2.89453V11.84968z M69.63613,7.95466h1.95508v4.0752h-0.37012V8.29987h-1.22559v3.72998h-0.35938V7.95466z
			 M69.83047,9.23005h1.63574v0.34473h-1.63574V9.23005z M69.83633,10.53473h1.63477v0.33496h-1.63477V10.53473z"/>
		<path d="M25.87588,15.02009h0.3501c-0.01025,0.16309-0.02344,0.33887-0.04004,0.52734s-0.0332,0.36816-0.0498,0.54004
			c-0.01709,0.17139-0.03516,0.32227-0.05518,0.45215h-0.3501c0.02002-0.13281,0.04004-0.28711,0.06006-0.4624
			c0.02002-0.17481,0.0376-0.35498,0.05273-0.54004C25.8583,15.35212,25.86904,15.17975,25.87588,15.02009z M26.00576,15.02009
			h0.7251v-0.77539h-0.9751v-0.34961h1.33496v1.47998h-1.08496V15.02009z M26.746,16.19977h0.375
			c-0.00342,0.08008-0.00684,0.13184-0.01025,0.15527c-0.02002,0.38965-0.0415,0.70459-0.06494,0.94482
			c-0.02344,0.23975-0.0498,0.42236-0.08008,0.54736c-0.02979,0.125-0.06982,0.21436-0.11963,0.26758
			c-0.04346,0.0498-0.0918,0.08496-0.14502,0.10498c-0.05371,0.02002-0.11865,0.0332-0.19531,0.04004
			c-0.06299,0.00684-0.15234,0.00928-0.26758,0.00732c-0.11475-0.00146-0.2373-0.00586-0.36719-0.01221
			c-0.00342-0.05029-0.01514-0.10693-0.03516-0.16992c-0.02002-0.06348-0.04492-0.11865-0.07471-0.16504
			c0.12646,0.00977,0.24463,0.0166,0.35498,0.02002c0.10986,0.00293,0.18799,0.00488,0.23486,0.00488
			c0.04346,0,0.0791-0.00342,0.10742-0.01025c0.02832-0.00635,0.05273-0.02148,0.07275-0.04492
			c0.0332-0.0332,0.0625-0.10742,0.0874-0.22217c0.0249-0.11523,0.04834-0.28613,0.06982-0.5127s0.04102-0.5249,0.05762-0.89502
			V16.19977z M25.97109,16.19977h0.86963v0.33984h-0.91504L25.97109,16.19977z M27.1708,15.64509h2.91016v0.35986H27.1708V15.64509z
			 M27.66104,18.32966c-0.00684-0.02979-0.01953-0.06494-0.0376-0.10498c-0.01855-0.04004-0.03857-0.07959-0.06006-0.11963
			s-0.04248-0.07178-0.0625-0.09521c0.04688-0.02344,0.09668-0.06104,0.1499-0.1123
			c0.05322-0.05176,0.08008-0.12744,0.08008-0.22754v-3.86524h0.37012v4.17529c-0.06006,0.02979-0.11182,0.05811-0.15527,0.08496
			c-0.04297,0.02637-0.08643,0.05469-0.12988,0.08496c-0.04346,0.02979-0.08008,0.06055-0.10986,0.09229
			C27.67568,18.27399,27.66104,18.30329,27.66104,18.32966z M27.66104,18.32966l-0.03516-0.33496l0.14014-0.1499l1.08984-0.41504
			c0.00342,0.03662,0.00488,0.07666,0.00488,0.12012s0.00195,0.08496,0.00537,0.125c0.00293,0.04004,0.00635,0.0752,0.00977,0.10498
			c-0.24658,0.10693-0.44678,0.19141-0.6001,0.25488s-0.27051,0.11328-0.35254,0.1499
			c-0.08154,0.03662-0.14062,0.06592-0.17725,0.08789C27.70938,18.29401,27.68106,18.31306,27.66104,18.32966z M29.5209,13.92975
			l0.36523,0.10498c-0.10352,0.18701-0.22607,0.37012-0.36768,0.55029c-0.1416,0.17969-0.29346,0.34668-0.45508,0.5
			s-0.32568,0.28809-0.49268,0.40479c-0.0166-0.02344-0.04297-0.0498-0.07959-0.08008
			c-0.03711-0.02979-0.07373-0.06152-0.11035-0.09473s-0.06982-0.05859-0.09961-0.0752c0.25-0.15674,0.48389-0.3501,0.70215-0.58008
			S29.38076,14.18659,29.5209,13.92975z M28.90615,15.85505c0.06641,0.29981,0.15723,0.58399,0.27246,0.85254
			c0.11475,0.26807,0.25391,0.5083,0.41748,0.71973c0.16309,0.21191,0.34814,0.37939,0.55469,0.50244
			c-0.04346,0.03662-0.08984,0.08447-0.13965,0.14258c-0.05029,0.05811-0.09033,0.1123-0.12012,0.1626
			c-0.22021-0.1499-0.41504-0.34082-0.58496-0.57275c-0.16992-0.23145-0.31592-0.49463-0.4375-0.79004
			c-0.12207-0.29492-0.22119-0.60889-0.29785-0.94238L28.90615,15.85505z"/>
		<path d="M30.93106,14.55475h0.38965v1.41016c0,0.17676-0.00635,0.36817-0.02002,0.57471
			c-0.01318,0.20703-0.03809,0.41699-0.07471,0.63037s-0.08984,0.4209-0.16016,0.62256
			c-0.06982,0.20166-0.16309,0.38379-0.27979,0.54736c-0.02002-0.02686-0.04932-0.05664-0.0874-0.08984
			c-0.03857-0.03369-0.07861-0.06543-0.12012-0.09521c-0.04199-0.02979-0.07764-0.05176-0.10742-0.06494
			c0.13965-0.20654,0.24219-0.43311,0.30713-0.68018c0.06543-0.24658,0.10693-0.49561,0.125-0.74756
			c0.01855-0.25146,0.02783-0.48584,0.02783-0.70215V14.55475z M31.1459,15.57966h1.24024v0.3501H31.1459V15.57966z
			 M31.17568,14.55475h3.87012v0.36523h-3.87012V14.55475z M32.24112,15.57966h0.36475c0,0.03711-0.00098,0.06836-0.00244,0.09521
			c-0.00195,0.02686-0.00244,0.04834-0.00244,0.06494c-0.00684,0.37354-0.01611,0.67578-0.02734,0.90772
			c-0.01172,0.23145-0.02686,0.40723-0.04541,0.52734c-0.01807,0.12012-0.0459,0.20312-0.08252,0.25
			c-0.03955,0.04688-0.08252,0.08008-0.12744,0.1001s-0.10254,0.03467-0.17236,0.04492
			c-0.06689,0.00684-0.15332,0.00928-0.25977,0.00732c-0.10693-0.00146-0.22217-0.00586-0.34521-0.01221
			c-0.00342-0.05322-0.01416-0.11279-0.03271-0.17773c-0.01807-0.06494-0.04248-0.12256-0.07227-0.17236
			c0.11328,0.01318,0.22021,0.021,0.31982,0.02246c0.1001,0.00146,0.16992,0.00244,0.20996,0.00244
			c0.03662,0,0.06787-0.00342,0.09278-0.00977c0.0249-0.00684,0.04736-0.02197,0.06738-0.04541
			c0.02344-0.02979,0.04248-0.09717,0.05762-0.20215s0.02637-0.26514,0.03516-0.47998
			c0.00781-0.21533,0.01562-0.50244,0.02246-0.86279V15.57966z M34.36612,15.30964l0.375,0.09521
			c-0.21338,0.65332-0.50537,1.22022-0.875,1.7002c-0.37012,0.47998-0.81006,0.87158-1.32031,1.1748
			c-0.02002-0.02686-0.04639-0.05908-0.08008-0.09766c-0.0332-0.03809-0.06738-0.07666-0.10254-0.11475
			c-0.03467-0.03857-0.06543-0.0708-0.09229-0.09766c0.50684-0.2666,0.93506-0.62549,1.28516-1.07764
			C33.90615,16.4405,34.17569,15.91315,34.36612,15.30964z M33.01114,13.71003h0.38965
			c-0.00342,0.46338,0.01318,0.90332,0.05029,1.31982c0.03662,0.4165,0.08789,0.79932,0.15479,1.14746
			c0.06689,0.34863,0.14746,0.6499,0.24268,0.90527c0.09473,0.25488,0.19971,0.45215,0.31494,0.59229
			c0.11475,0.14014,0.23584,0.20996,0.3623,0.20996c0.07324,0,0.12744-0.0708,0.1626-0.2124s0.05908-0.37939,0.07275-0.7124
			c0.04297,0.04004,0.0957,0.07959,0.15723,0.11963s0.11768,0.06836,0.16748,0.08496
			c-0.02344,0.28711-0.05566,0.51025-0.09766,0.67041c-0.0415,0.15967-0.10156,0.27246-0.17969,0.3374
			c-0.07861,0.06494-0.18262,0.09766-0.3125,0.09766c-0.16699,0-0.32031-0.05713-0.45996-0.17041
			c-0.14014-0.11328-0.26416-0.27295-0.37256-0.47998c-0.1084-0.20654-0.20264-0.45068-0.28271-0.73242
			s-0.14746-0.59229-0.20215-0.93262c-0.05518-0.33984-0.09619-0.69873-0.12256-1.07715
			C33.0292,14.49909,33.01406,14.10993,33.01114,13.71003z M33.6459,13.95466l0.2251-0.22998
			c0.10645,0.05029,0.21729,0.10938,0.33252,0.17773c0.11475,0.06836,0.22217,0.13672,0.32227,0.20508s0.18359,0.13086,0.25,0.1875
			l-0.23486,0.25977c-0.06348-0.06006-0.14502-0.12549-0.24512-0.19727s-0.20654-0.14258-0.31982-0.2124
			C33.8627,14.07477,33.75235,14.01178,33.6459,13.95466z"/>
		<path d="M35.60098,15.78962c-0.00684-0.02295-0.01758-0.05664-0.03271-0.09961c-0.01465-0.04346-0.0293-0.08789-0.04248-0.13281
			s-0.02637-0.08252-0.04004-0.1123c0.04346-0.01025,0.08691-0.04346,0.13037-0.1001
			c0.04297-0.05664,0.09131-0.12646,0.14502-0.20996c0.02979-0.04346,0.0708-0.1123,0.12207-0.20752
			c0.05176-0.09473,0.11182-0.20898,0.18018-0.34229s0.13428-0.27588,0.19775-0.42773
			c0.06299-0.15137,0.12158-0.30225,0.1748-0.45264l0.3252,0.16016c-0.08691,0.20654-0.18213,0.41357-0.28516,0.62012
			c-0.10352,0.20654-0.21191,0.40479-0.3252,0.59473c-0.11328,0.19043-0.22803,0.36035-0.34473,0.51025v0.00977
			c-0.04004,0.02686-0.07422,0.05029-0.10254,0.07031s-0.05273,0.04004-0.07275,0.06006S35.60098,15.77009,35.60098,15.78962z
			 M35.51602,17.63972c0.14648-0.0332,0.31396-0.07227,0.50244-0.11719c0.18848-0.04541,0.39014-0.09326,0.60498-0.14502
			s0.4292-0.10449,0.64258-0.15771l0.03467,0.31982c-0.30322,0.08008-0.60645,0.16016-0.90967,0.24023
			s-0.57178,0.15332-0.80518,0.22021L35.51602,17.63972z M35.63614,16.9947c-0.00684-0.02295-0.01611-0.05469-0.02783-0.09473
			s-0.0249-0.08154-0.04004-0.125c-0.01465-0.04346-0.0293-0.08008-0.04248-0.11035c0.05029-0.00977,0.10449-0.04395,0.1626-0.10205
			c0.05811-0.05859,0.12598-0.13428,0.20264-0.22754c0.04004-0.04346,0.09814-0.1167,0.1748-0.22021
			c0.07666-0.10303,0.16357-0.22754,0.26025-0.37256s0.19385-0.2998,0.29248-0.46484
			c0.09814-0.16504,0.18896-0.33398,0.27246-0.50732l0.28467,0.18457c-0.19336,0.34375-0.40332,0.67676-0.62988,1
			c-0.22656,0.32373-0.45312,0.60693-0.67969,0.8501v0.01025c-0.04688,0.02344-0.08496,0.04395-0.11523,0.0625
			c-0.02979,0.01807-0.05664,0.03711-0.08008,0.05713S35.63614,16.97468,35.63614,16.9947z M35.60098,15.78962l-0.01025-0.26953
			l0.16504-0.11523l0.88037-0.1001c-0.00342,0.04688-0.00879,0.09912-0.01514,0.15771
			c-0.00684,0.05811-0.01025,0.10596-0.01025,0.14258c-0.19971,0.02637-0.3623,0.0498-0.4873,0.06982
			s-0.22168,0.03662-0.29004,0.0498c-0.06836,0.01367-0.11914,0.02539-0.15234,0.03516
			C35.64737,15.77009,35.621,15.77985,35.60098,15.78962z M35.63614,16.9947l-0.02002-0.29492l0.16992-0.12988l1.33496-0.26025
			c-0.00684,0.04688-0.00928,0.1001-0.00781,0.16016c0.00195,0.06006,0.00439,0.10986,0.00781,0.1499
			c-0.30664,0.06689-0.55322,0.12109-0.74023,0.1626c-0.18652,0.04199-0.3291,0.07568-0.42725,0.10254
			c-0.09863,0.02686-0.16992,0.04736-0.21533,0.0625C35.69326,16.96247,35.65908,16.97809,35.63614,16.9947z M37.25088,16.19977
			h2.54004v0.3501h-2.54004V16.19977z M37.33584,14.38483h2.56006v0.3501h-2.56006V14.38483z M37.44571,15.27985h2.26514v0.3501
			h-2.26514V15.27985z M38.371,13.69977h0.38477v4.59522H38.371V13.69977z M39.70108,16.19977h0.33008
			c0,0.07031-0.00195,0.11865-0.00537,0.14502c-0.02002,0.29346-0.04053,0.5332-0.0625,0.72021
			c-0.02148,0.18652-0.04492,0.3291-0.06982,0.42725c-0.0249,0.09863-0.05566,0.16943-0.09277,0.2124
			c-0.0332,0.04004-0.06982,0.06836-0.10986,0.08496c-0.04004,0.01709-0.08984,0.02881-0.1499,0.03516
			c-0.04346,0.00342-0.10254,0.00488-0.17773,0.00488c-0.07471,0-0.15576,0-0.24219,0
			c-0.00342-0.0498-0.0127-0.10547-0.02734-0.16748c-0.01514-0.06152-0.03467-0.1123-0.05762-0.15234
			c0.08008,0.00684,0.15234,0.01074,0.21729,0.0127c0.06494,0.00146,0.11279,0.00244,0.14258,0.00244
			s0.05518-0.00244,0.0752-0.00781c0.02002-0.00488,0.03809-0.01709,0.05469-0.03711
			c0.02686-0.03027,0.05029-0.08789,0.07031-0.17285s0.03906-0.2124,0.05713-0.38232
			c0.01855-0.16992,0.03418-0.39502,0.04785-0.6748V16.19977z"/>
		<path d="M40.9208,14.19977h0.375v1.35986c0,0.2002-0.00586,0.41748-0.01758,0.65283
			c-0.01172,0.23486-0.03418,0.47559-0.06738,0.72217c-0.0332,0.24707-0.08154,0.48682-0.14502,0.72021
			s-0.14844,0.4502-0.25488,0.6499c-0.02344-0.02002-0.05566-0.04053-0.09766-0.0625
			c-0.0415-0.02148-0.08398-0.04346-0.12744-0.06494s-0.08008-0.03564-0.10986-0.04248
			c0.10303-0.18994,0.18408-0.39502,0.24268-0.61475c0.05811-0.22021,0.10205-0.44531,0.13232-0.67529
			c0.02979-0.22998,0.04932-0.4541,0.05762-0.67236c0.0083-0.21826,0.01221-0.4209,0.01221-0.60742V14.19977z M41.0961,14.19977
			h3.93506v0.35498H41.0961V14.19977z M44.25088,16.57966h0.0752l0.06445-0.01465l0.23535,0.125
			c-0.13672,0.25635-0.31738,0.47656-0.54199,0.65967c-0.22559,0.18359-0.48145,0.33594-0.76807,0.45752
			s-0.5918,0.22021-0.91504,0.29492c-0.32324,0.0752-0.65674,0.13281-1,0.17285c-0.00977-0.04346-0.02979-0.09668-0.06006-0.16016
			c-0.02979-0.06348-0.05957-0.1167-0.08984-0.16016c0.31689-0.02637,0.62939-0.07129,0.9375-0.13477
			s0.59668-0.14746,0.86523-0.25244c0.26807-0.10498,0.50488-0.23438,0.71191-0.3877s0.36914-0.33496,0.48535-0.54492V16.57966z
			 M41.41592,15.11969h3.55957v0.31006h-3.55957V15.11969z M41.48574,16.57966h2.86475v0.31006h-2.86475V16.57966z
			 M42.28604,16.82966c0.1665,0.22021,0.39062,0.40918,0.67236,0.56787c0.28174,0.1582,0.60498,0.28564,0.97021,0.38232
			s0.75586,0.16309,1.17188,0.2002c-0.02637,0.02637-0.05371,0.05908-0.08203,0.09717
			c-0.02832,0.03857-0.05469,0.07764-0.07715,0.11768c-0.02344,0.04004-0.04395,0.07666-0.06055,0.10986
			c-0.42285-0.0498-0.82031-0.13086-1.19238-0.24219c-0.37158-0.11182-0.7041-0.25928-0.99756-0.44287
			c-0.29346-0.18311-0.53467-0.40332-0.7251-0.65967L42.28604,16.82966z M42.2211,14.68464h0.35986v1.27539h1.21484v-1.27539
			h0.37012v1.5752H42.2211V14.68464z M42.65615,13.77009l0.375-0.09033c0.05957,0.1001,0.11719,0.21094,0.17236,0.33252
			c0.05469,0.12158,0.09424,0.22412,0.11719,0.30762l-0.38965,0.10498c-0.02344-0.08643-0.06006-0.19238-0.11035-0.31738
			C42.7709,13.98249,42.71572,13.86969,42.65615,13.77009z"/>
		<path d="M47.34561,13.71491h0.37988v0.59473c0,0.22363-0.00879,0.46533-0.02734,0.7251
			c-0.01855,0.26025-0.05957,0.5293-0.125,0.80762c-0.06445,0.27832-0.16602,0.55664-0.30176,0.83496
			c-0.13672,0.27832-0.31836,0.5498-0.5459,0.81494c-0.22656,0.26514-0.51465,0.5127-0.86426,0.74268
			c-0.02051-0.03027-0.04785-0.06201-0.08301-0.09521s-0.07129-0.06641-0.10938-0.1001
			c-0.03906-0.0332-0.07324-0.05957-0.10254-0.07959c0.33301-0.2168,0.6084-0.44824,0.82715-0.69531
			c0.21777-0.24658,0.39258-0.5,0.52246-0.75977c0.12988-0.26025,0.22461-0.51904,0.28516-0.77783
			c0.05957-0.25781,0.09863-0.50732,0.11719-0.74707c0.01855-0.24023,0.02734-0.46533,0.02734-0.67529V13.71491z M45.70108,14.90973
			h3.85449v0.375h-3.85449V14.90973z M46.10049,13.98493l0.32031-0.14014c0.10352,0.10986,0.20703,0.23486,0.31055,0.375
			c0.10254,0.14014,0.18164,0.26025,0.23438,0.35986l-0.33984,0.16504c-0.0332-0.06982-0.07812-0.14795-0.13477-0.23486
			c-0.05664-0.08643-0.11914-0.17676-0.1875-0.27002S46.16787,14.06159,46.10049,13.98493z M47.78604,16.04987l0.30957-0.1499
			c0.08691,0.09668,0.17578,0.20313,0.26562,0.31983s0.17383,0.23096,0.25195,0.34277
			c0.07812,0.11133,0.13965,0.21045,0.18262,0.29736l-0.33008,0.17969c-0.04297-0.08984-0.10156-0.19238-0.1748-0.30713
			c-0.07324-0.11523-0.1543-0.23193-0.24219-0.3501C47.95987,16.26423,47.87295,16.15339,47.78604,16.04987z M49.40615,14.90973
			h0.38965c-0.00293,0.05029-0.00488,0.09033-0.00488,0.12012s0,0.05518,0,0.0752c-0.01953,0.5-0.04004,0.92481-0.05957,1.2749
			c-0.02051,0.3501-0.04297,0.63721-0.06836,0.8623c-0.02441,0.2251-0.05469,0.40088-0.08984,0.52783
			c-0.03516,0.12646-0.07715,0.21826-0.12695,0.2749c-0.05664,0.06982-0.11719,0.11914-0.18066,0.14746
			c-0.0625,0.02832-0.1416,0.04736-0.23438,0.05762c-0.08691,0.00635-0.20312,0.00879-0.34766,0.00732
			c-0.14551-0.00195-0.2959-0.00732-0.45215-0.01758c-0.00391-0.05664-0.01758-0.12158-0.04004-0.19482
			c-0.02344-0.07373-0.05371-0.13867-0.09082-0.19531c0.1709,0.01709,0.32715,0.02588,0.4707,0.02783
			c0.14258,0.00146,0.24512,0.00244,0.30469,0.00244c0.05371,0.00342,0.09668,0,0.12988-0.01025
			c0.0332-0.00977,0.06348-0.02979,0.08984-0.06006c0.04004-0.04297,0.0752-0.12402,0.10547-0.24219
			s0.05762-0.28857,0.08203-0.51025c0.02539-0.22168,0.04785-0.50244,0.06738-0.84229c0.02051-0.33984,0.03906-0.75,0.05566-1.22998
			V14.90973z"/>
		<path d="M50.75088,17.90485v-2.71484h0.375l0.04492,0.49463h0.00977c0.09375-0.17285,0.20801-0.31055,0.34277-0.41211
			c0.13477-0.10205,0.27734-0.15283,0.42773-0.15283c0.06348,0,0.11719,0.00439,0.16211,0.0127s0.08789,0.02441,0.12793,0.04736
			l-0.08496,0.39502c-0.04688-0.01318-0.08887-0.02393-0.125-0.03223c-0.03711-0.0083-0.08398-0.0127-0.14062-0.0127
			c-0.10938,0-0.22754,0.04736-0.35449,0.14258c-0.12695,0.09473-0.23535,0.25732-0.3252,0.48731v1.74512H50.75088z"/>
		<path d="M52.66494,14.50983h0.3457v3.66504h-0.3457V14.50983z M52.86026,15.89997h1.37988v0.33008h-1.37988V15.89997z
			 M52.88565,14.50983h1.51953v3.27002h-1.51953v-0.33984h1.1748v-2.59522h-1.1748V14.50983z M53.43057,13.69489l0.40527,0.06982
			c-0.05078,0.15674-0.10449,0.31494-0.16309,0.4751s-0.1123,0.29688-0.16211,0.41016l-0.30566-0.0752
			c0.03027-0.08301,0.05957-0.17676,0.08789-0.27979c0.02832-0.10352,0.05469-0.2085,0.08008-0.31494
			C53.39834,13.87311,53.4169,13.77839,53.43057,13.69489z M55.22061,13.68464l0.35938,0.08008
			c-0.05957,0.25-0.13184,0.49414-0.2168,0.73242c-0.08496,0.23877-0.17871,0.46289-0.28027,0.67285
			s-0.20898,0.39502-0.32227,0.55469c-0.02344-0.02002-0.05469-0.04395-0.09277-0.07227s-0.07715-0.05518-0.11719-0.08008
			s-0.0752-0.0459-0.10547-0.0625c0.11719-0.1499,0.22363-0.32227,0.32031-0.51758c0.09668-0.19482,0.18359-0.40381,0.25977-0.62744
			C55.10244,14.14167,55.1669,13.91462,55.22061,13.68464z M54.99014,15.78962l0.29492-0.16455
			c0.09375,0.1167,0.19141,0.24463,0.29297,0.38477c0.10156,0.14014,0.19678,0.2749,0.28564,0.40479
			c0.08789,0.13037,0.15918,0.24512,0.21191,0.34521l-0.31934,0.2002c-0.05078-0.10352-0.11865-0.22266-0.20361-0.35791
			c-0.08496-0.13477-0.17676-0.27295-0.27441-0.41455C55.17959,16.04548,55.08389,15.91315,54.99014,15.78962z M55.12002,14.49469
			h1.53564v0.34521h-1.53564V14.49469z M56.5209,14.49469h0.35449c0,0.04688,0,0.08594,0,0.11768s-0.00098,0.05566-0.00488,0.07227
			c-0.01953,0.57373-0.03906,1.05859-0.05762,1.45508c-0.01758,0.39697-0.04004,0.72119-0.06738,0.97266
			c-0.02637,0.25146-0.05762,0.44727-0.0918,0.5874c-0.03516,0.14014-0.07812,0.24023-0.12793,0.30029
			c-0.05664,0.07324-0.11621,0.12402-0.17773,0.15234s-0.13672,0.04736-0.22754,0.05762
			c-0.08301,0.00635-0.19238,0.00879-0.32715,0.00732c-0.13525-0.00195-0.2749-0.00732-0.41846-0.01758
			c-0.00293-0.05322-0.01562-0.11475-0.03711-0.18506c-0.02148-0.06982-0.05078-0.12793-0.08789-0.1748
			c0.16699,0.01318,0.31836,0.02148,0.45312,0.0249c0.13525,0.00342,0.23291,0.00488,0.29248,0.00488
			c0.05078,0,0.09082-0.00586,0.12305-0.01758c0.03125-0.01123,0.0625-0.03369,0.09277-0.06738
			c0.03906-0.04297,0.0752-0.13232,0.10742-0.26758c0.03125-0.13477,0.05859-0.32715,0.08203-0.57715
			s0.04492-0.56934,0.06543-0.95752c0.01953-0.38818,0.03809-0.85742,0.05469-1.40771V14.49469z"/>
		<path d="M58.3959,14.11969l0.36523,0.06494c-0.06738,0.30713-0.14746,0.60352-0.24316,0.89014
			c-0.09473,0.28662-0.20312,0.55273-0.32422,0.79736c-0.12207,0.24512-0.25781,0.46289-0.4082,0.65283
			c-0.01953-0.02686-0.04688-0.05518-0.08203-0.08496c-0.03516-0.03027-0.07227-0.06104-0.11035-0.09277
			s-0.07031-0.05566-0.09766-0.07227c0.14746-0.16992,0.27734-0.36817,0.39062-0.59522
			c0.11328-0.22656,0.21191-0.47314,0.29688-0.73975S58.33926,14.39997,58.3959,14.11969z M57.53555,13.97468h2.55078v0.36035
			h-2.55078V13.97468z M59.57071,15.08991h0.07031l0.06445-0.01514l0.23047,0.07031
			c-0.08301,0.57666-0.22168,1.07422-0.41504,1.49219c-0.19336,0.41846-0.43066,0.76611-0.71289,1.04248
			c-0.28125,0.27686-0.60059,0.49316-0.95703,0.6499c-0.0166-0.02979-0.03809-0.06494-0.0625-0.10498
			c-0.02539-0.04004-0.05176-0.07812-0.08008-0.11475s-0.05566-0.06836-0.08301-0.09521
			c0.32715-0.12646,0.62402-0.31836,0.89062-0.57471c0.2666-0.25684,0.49121-0.57422,0.6748-0.95264s0.30957-0.8208,0.37988-1.32764
			V15.08991z M58.13614,16.39509l0.21484-0.27539c0.09668,0.06006,0.19824,0.12842,0.30469,0.20508s0.20801,0.15234,0.30566,0.22754
			c0.0957,0.0752,0.17285,0.14404,0.22949,0.20752l-0.21973,0.31494c-0.06055-0.06299-0.13672-0.13477-0.23047-0.21484
			c-0.09277-0.08008-0.19336-0.16064-0.2998-0.24268C58.33438,16.53571,58.23281,16.46149,58.13614,16.39509z M58.38125,15.08991
			h1.26465v0.34473h-1.37012L58.38125,15.08991z M60.44082,14.28473h0.37012v2.80029h-0.37012V14.28473z M61.4711,13.73005h0.37988
			v4.08496c0,0.1167-0.0166,0.20508-0.0498,0.26465c-0.0332,0.06006-0.08691,0.10693-0.16016,0.14014
			c-0.07324,0.02686-0.17188,0.04443-0.29492,0.05273c-0.12402,0.0083-0.28223,0.01221-0.47559,0.01221
			c-0.00684-0.04639-0.02246-0.10596-0.04688-0.17725c-0.02539-0.07178-0.05078-0.13428-0.07812-0.1875
			c0.13672,0.00293,0.26367,0.00586,0.37988,0.00732c0.11719,0.00146,0.19531,0.00098,0.23535-0.00244
			c0.04004,0,0.06836-0.00732,0.08496-0.02246s0.02539-0.04248,0.02539-0.08252V13.73005z"/>
		<path d="M62.61074,14.31501h4.25v1.00488h-0.38477v-0.66016h-3.49511v0.78516h-0.37012V14.31501z M62.61563,17.79499h4.25v0.33984
			h-4.25V17.79499z M64.15078,14.95466l0.25977,0.22998c-0.12988,0.1167-0.27734,0.23535-0.44238,0.35498
			c-0.16504,0.12012-0.33887,0.2334-0.52246,0.34033c-0.18359,0.10645-0.37305,0.20166-0.57031,0.28467l-0.21973-0.32471
			c0.29688-0.10352,0.57227-0.23486,0.8252-0.39502S63.95742,15.12165,64.15078,14.95466z M63.14102,16.19001h3.21484v0.33984
			h-3.21484V16.19001z M64.35098,13.78473l0.38965-0.10986c0.06055,0.10986,0.12305,0.2334,0.19043,0.37012
			c0.06641,0.13672,0.11816,0.25146,0.15527,0.34473l-0.41016,0.14014c-0.0332-0.09668-0.08105-0.21582-0.14258-0.35742
			S64.41055,13.90143,64.35098,13.78473z M64.52578,16.40485h0.39551v1.56006h-0.39551V16.40485z M65.05117,15.21979l0.23438-0.25
			c0.12402,0.06348,0.25586,0.13184,0.39746,0.20508s0.2832,0.14941,0.42578,0.22754c0.1416,0.07812,0.27344,0.1543,0.39746,0.22754
			c0.12305,0.07324,0.22949,0.14014,0.31934,0.19971l-0.25,0.29004c-0.08301-0.06006-0.18555-0.12744-0.30762-0.20215
			c-0.12109-0.0752-0.25098-0.1543-0.38965-0.23779c-0.13867-0.08301-0.2793-0.16406-0.42285-0.24219
			C65.31289,15.35895,65.17715,15.28669,65.05117,15.21979z"/>
		<path d="M67.68594,14.82966h0.38477v3.4751h-0.38477V14.82966z M67.76113,13.94977l0.29004-0.17969
			c0.08008,0.06982,0.16016,0.14746,0.23926,0.23242c0.08008,0.08496,0.15527,0.16895,0.22559,0.25244
			s0.12305,0.15967,0.16016,0.22998l-0.31055,0.19971c-0.04004-0.06641-0.0918-0.14307-0.15723-0.22998
			c-0.06543-0.08643-0.13672-0.17383-0.21484-0.26221S67.8373,14.02302,67.76113,13.94977z M68.78555,15.13483h1.89551v2.27979
			h-1.89551V15.13483z M68.99062,13.98493h2.62988v0.35498h-2.62988V13.98493z M69.12539,15.44977v0.66504h1.2002v-0.66504H69.12539
			z M69.12539,16.42975v0.67529h1.2002v-0.67529H69.12539z M71.41055,13.98493h0.38574v3.86475
			c0,0.10352-0.0127,0.18262-0.03809,0.23779c-0.02441,0.05469-0.07031,0.09912-0.1377,0.13232
			c-0.06641,0.03027-0.1543,0.04736-0.26172,0.05273c-0.1084,0.00488-0.23926,0.00732-0.39258,0.00732
			c-0.01074-0.04688-0.02637-0.104-0.04785-0.17236s-0.0459-0.12598-0.07227-0.17285
			c0.10645,0.00342,0.20508,0.00537,0.29492,0.00537s0.15137,0,0.18457,0c0.0332-0.00342,0.05566-0.01172,0.06738-0.02539
			c0.01172-0.01318,0.01758-0.03467,0.01758-0.06494V13.98493z"/>
	</g>
</g>
<rect x="79.47386" y="4.05567" class="st0" width="49.70489" height="23.24389"/>
<g>
	<g>
		<path d="M81.12832,11.90485V9.19001h0.375l0.04492,0.39502h0.00977c0.12988-0.13037,0.26758-0.24023,0.41309-0.33008
			c0.14453-0.09033,0.31055-0.13525,0.49707-0.13525c0.28613,0,0.49707,0.09082,0.62988,0.27246
			c0.13379,0.18213,0.2002,0.44629,0.2002,0.79248v1.72021h-0.45508v-1.66016c0-0.25635-0.04102-0.44141-0.12207-0.55469
			c-0.08203-0.11328-0.21289-0.16992-0.39258-0.16992c-0.14062,0-0.26562,0.03467-0.375,0.10498
			c-0.11035,0.06982-0.23242,0.17334-0.36523,0.30957v1.97021H81.12832z"/>
		<path d="M83.94765,10.67975v-0.3501h1.28516v0.3501H83.94765z"/>
		<path d="M85.9125,11.90485V9.19001h0.375l0.04492,0.49463h0.01074c0.09277-0.17285,0.20703-0.31055,0.3418-0.41211
			c0.13574-0.10205,0.27734-0.15283,0.42773-0.15283c0.06348,0,0.11719,0.00439,0.16211,0.0127
			c0.0459,0.0083,0.08789,0.02441,0.12793,0.04736l-0.08496,0.39502c-0.04688-0.01318-0.08789-0.02393-0.125-0.03223
			s-0.08301-0.0127-0.13965-0.0127c-0.11035,0-0.22852,0.04736-0.35547,0.14258c-0.12695,0.09473-0.23535,0.25732-0.3252,0.4873
			v1.74512H85.9125z"/>
		<path d="M89.92226,7.69977l0.33594,0.15527c-0.18359,0.30322-0.40137,0.59082-0.65332,0.8623
			c-0.25098,0.27148-0.52832,0.51758-0.83008,0.7373c-0.30176,0.22021-0.61035,0.40869-0.92676,0.56543
			c-0.03027-0.05664-0.07129-0.1167-0.12305-0.18018s-0.10352-0.11816-0.15723-0.16504
			c0.31641-0.13672,0.62207-0.30566,0.91699-0.50732c0.2959-0.20166,0.56738-0.42773,0.81543-0.67773
			S89.75625,7.97663,89.92226,7.69977z M89.69277,9.17975h0.38965v3.12012h-0.38965V9.17975z M90.03262,7.97468
			c0.22363,0.27344,0.45312,0.51416,0.69043,0.72266c0.23633,0.2085,0.48145,0.3916,0.73438,0.5498
			c0.25391,0.15869,0.51367,0.3042,0.78027,0.4375c-0.0498,0.04004-0.10059,0.0918-0.15234,0.15527s-0.09277,0.125-0.12305,0.18506
			c-0.26953-0.14355-0.53027-0.30176-0.78223-0.4751s-0.49902-0.375-0.74219-0.60498s-0.4873-0.49854-0.73047-0.80518
			L90.03262,7.97468z"/>
		<path d="M93.20742,8.38971h3.4502v3.89502h-0.39453V8.75007H93.5873v3.55957h-0.37988V8.38971z M93.4623,9.49469h2.90527v0.35498
			H93.4623V9.49469z M93.4623,10.58503h2.90527v0.34961H93.4623V10.58503z M93.4623,11.67487h2.90527v0.35498H93.4623V11.67487z
			 M94.66738,7.69489l0.43555,0.06006c-0.05371,0.1499-0.11133,0.2998-0.17285,0.44971
			c-0.06152,0.15039-0.12109,0.28027-0.17773,0.39014l-0.33496-0.06494c0.0332-0.08008,0.06641-0.16895,0.09766-0.26758
			c0.03223-0.09814,0.06152-0.19678,0.08984-0.29492S94.65469,7.77839,94.66738,7.69489z"/>
		<path d="M97.9623,8.67487h3.87109v3.60986h-0.39062V9.04987H98.3373v3.25488h-0.375V8.67487z M98.14297,10.13971h3.48535v0.37012
			h-3.48535V10.13971z M98.14297,11.61969h3.47461v0.375h-3.47461V11.61969z M99.68789,7.70466h0.37988v4.11523h-0.37988V7.70466z"
			/>
		<path d="M103.96816,9.77985h0.39941c-0.02344,0.27979-0.05762,0.54492-0.10449,0.79492s-0.12305,0.48242-0.22754,0.69775
			c-0.10547,0.21484-0.25195,0.40918-0.44043,0.58252c-0.18848,0.17285-0.43066,0.31787-0.72754,0.43457
			c-0.01953-0.04297-0.05273-0.09375-0.09961-0.15234c-0.04688-0.05811-0.0918-0.104-0.13477-0.13721
			c0.27344-0.10352,0.49414-0.23193,0.66211-0.38525s0.29883-0.32568,0.39062-0.51758
			c0.09082-0.19141,0.15723-0.39795,0.19727-0.62012C103.92324,10.25593,103.95156,10.02302,103.96816,9.77985z M102.68789,9.49469
			h4.41504v0.37012h-4.41504V9.49469z M103.12832,8.09479h3.5498v0.35986h-3.5498V8.09479z M105.30801,9.71979h0.37988v1.93018
			c0,0.08984,0.01465,0.14746,0.04492,0.17236s0.09375,0.0376,0.19043,0.0376c0.02344,0,0.06348,0,0.12207,0s0.12305,0,0.19238,0
			c0.07031,0,0.13574,0,0.19824,0c0.06152,0,0.10742,0,0.13672,0c0.07031,0,0.12207-0.02246,0.15527-0.06738
			c0.0332-0.04541,0.05762-0.13184,0.07227-0.26025c0.01562-0.12842,0.02441-0.3208,0.02734-0.57764
			c0.03418,0.02344,0.07031,0.0459,0.11035,0.06787c0.04004,0.02148,0.08301,0.04053,0.12793,0.05713
			c0.04492,0.01709,0.08398,0.03027,0.11719,0.04004c-0.01367,0.28711-0.03711,0.50928-0.07227,0.66748
			c-0.03516,0.15869-0.0918,0.26953-0.16992,0.33252c-0.0791,0.06348-0.19141,0.09521-0.33789,0.09521
			c-0.02344,0-0.07031,0-0.13965,0c-0.07031,0-0.14551,0-0.22559,0s-0.1543,0-0.22266,0s-0.11426,0-0.13672,0
			c-0.14746,0-0.2627-0.0166-0.34766-0.05029c-0.08496-0.0332-0.14355-0.09082-0.1748-0.17236
			c-0.03223-0.08154-0.04785-0.19385-0.04785-0.3374V9.71979z"/>
		<path d="M107.88808,8.56989h3.80469v0.36475h-3.43457v3.37012h-0.37012V8.56989z M108.9125,9.59968h0.3457v2.01514h-0.3457
			V9.59968z M109.07265,9.59968h1.80078v1.65527h-1.80078v-0.34033h1.4502V9.93464h-1.4502V9.59968z M109.5834,7.69489
			l0.46484,0.0752c-0.07324,0.17969-0.15527,0.36328-0.24512,0.5498s-0.17383,0.34668-0.25,0.47998l-0.35547-0.08984
			c0.04688-0.09326,0.09473-0.2002,0.14258-0.32031c0.04883-0.11963,0.0957-0.24072,0.14062-0.3623
			S109.55996,7.79499,109.5834,7.69489z M111.55312,8.56989h0.375v3.23486c0,0.12354-0.0166,0.21826-0.0498,0.28516
			c-0.03418,0.06641-0.0957,0.1167-0.18555,0.1499c-0.08984,0.03027-0.21289,0.04834-0.37012,0.05518
			c-0.15625,0.00635-0.34961,0.00977-0.58008,0.00977c-0.00293-0.03662-0.01172-0.07764-0.02734-0.12256
			c-0.01465-0.04492-0.03027-0.0918-0.04688-0.13965c-0.01758-0.04834-0.03516-0.09082-0.05566-0.12793
			c0.12012,0.00684,0.23633,0.01123,0.34766,0.0127s0.20801,0.00146,0.29004,0s0.13965-0.00244,0.17285-0.00244
			c0.05273,0,0.08789-0.00928,0.10449-0.02734c0.0166-0.01855,0.02539-0.04932,0.02539-0.09277V8.56989z"/>
		<path d="M112.62832,11.88971h4.54004v0.29004h-4.54004V11.88971z M112.65273,9.29499h4.48535v0.28467h-4.48535V9.29499z
			 M113.04824,11.33503h3.70996v0.26465h-3.70996V11.33503z M113.18789,9.80475h3.45996v1.25488h-3.45996V9.80475z
			 M113.27773,7.86481h3.22559v1.21484h-3.22559V7.86481z M113.54336,10.03962v0.28027h2.73438v-0.28027H113.54336z
			 M113.54336,10.53962v0.29004h2.73438v-0.29004H113.54336z M113.64297,8.08991v0.27002h2.48535V8.08991H113.64297z
			 M113.64297,8.57966v0.27539h2.48535V8.57966H113.64297z M114.70254,9.88971h0.36523v2.1499h-0.36523V9.88971z"/>
		<path d="M117.72305,9.78962c-0.00684-0.02295-0.01758-0.05664-0.03223-0.09961c-0.01562-0.04346-0.03027-0.08789-0.04492-0.13281
			c-0.01562-0.04492-0.0293-0.08398-0.04297-0.11719c0.04688-0.01025,0.09375-0.04248,0.14258-0.09766
			c0.04785-0.05518,0.10059-0.12598,0.15723-0.2124c0.03027-0.04004,0.0752-0.1084,0.13477-0.20508
			c0.06055-0.09668,0.12598-0.21094,0.19824-0.34229c0.07129-0.13184,0.14258-0.27344,0.21484-0.42529
			c0.07129-0.15137,0.13574-0.30225,0.19238-0.45264l0.33984,0.15527c-0.09277,0.20996-0.19629,0.41846-0.30957,0.625
			s-0.23145,0.4043-0.35254,0.59229c-0.12207,0.18848-0.24609,0.35742-0.37305,0.50781v0.01465
			c-0.04297,0.02344-0.08008,0.0459-0.1123,0.06787c-0.03125,0.02148-0.05859,0.04248-0.08008,0.0625
			S117.72305,9.77009,117.72305,9.78962z M117.6332,11.61481c0.14648-0.02979,0.31348-0.06592,0.5-0.10742
			s0.38477-0.0874,0.59473-0.1377c0.20996-0.0498,0.42188-0.09961,0.63477-0.1499l0.03516,0.31982
			c-0.29688,0.07715-0.59375,0.15381-0.89258,0.23047c-0.29785,0.07666-0.56445,0.14453-0.79688,0.20459L117.6332,11.61481z
			 M117.7582,10.99469c-0.00684-0.02637-0.0166-0.06006-0.03027-0.09961c-0.01367-0.04004-0.02734-0.08203-0.04199-0.125
			c-0.01562-0.04346-0.03125-0.08008-0.04785-0.11035c0.05664-0.00977,0.11719-0.04395,0.18262-0.10254
			c0.06445-0.05811,0.13867-0.13379,0.22266-0.22754c0.04297-0.04297,0.10742-0.11719,0.19434-0.22217
			s0.18359-0.22949,0.29004-0.37256c0.10645-0.14355,0.21582-0.29736,0.32812-0.4624
			c0.11133-0.16504,0.21582-0.33447,0.3125-0.50781l0.2998,0.18506c-0.21387,0.34668-0.44727,0.68164-0.7002,1.00488
			c-0.25293,0.32373-0.50684,0.60498-0.75977,0.84521v0.00977c-0.0498,0.02344-0.0918,0.04443-0.125,0.0625
			c-0.0332,0.01855-0.0625,0.03857-0.08789,0.06006C117.7709,10.95417,117.7582,10.97468,117.7582,10.99469z M117.72305,9.78962
			l-0.00977-0.26953l0.17969-0.11523l1-0.10498c-0.00684,0.04346-0.01367,0.09521-0.01953,0.15479
			c-0.00684,0.06006-0.00879,0.1084-0.00586,0.14502c-0.22949,0.03027-0.41504,0.05518-0.55664,0.0752
			c-0.14258,0.02002-0.25195,0.03662-0.33008,0.0498c-0.0791,0.01367-0.13672,0.02539-0.17285,0.03516
			C117.7709,9.77009,117.74258,9.77985,117.72305,9.78962z M117.7582,10.99469l-0.02051-0.29492l0.18555-0.12988l1.47949-0.27002
			c-0.00684,0.0498-0.00977,0.10498-0.00977,0.16504s0.00195,0.1084,0.00488,0.14502
			c-0.33984,0.06641-0.6123,0.12256-0.81738,0.16748s-0.3623,0.08057-0.47266,0.10742
			c-0.10938,0.02686-0.18945,0.04736-0.2373,0.0625C117.82168,10.96247,117.78457,10.97809,117.7582,10.99469z M119.29336,11.84968
			h2.89453v0.34521h-2.89453V11.84968z M119.79824,7.95466h1.95508v4.0752h-0.37012V8.29987h-1.22559v3.72998h-0.35938V7.95466z
			 M119.99258,9.23005h1.63574v0.34473h-1.63574V9.23005z M119.99844,10.53473h1.63477v0.33496h-1.63477V10.53473z"/>
		<path d="M122.67324,11.77009h4.45996v0.36475h-4.45996V11.77009z M122.90762,8.70466h3.9707v0.36523h-3.9707V8.70466z
			 M123.13808,10.16999h3.53516v0.36475h-3.53516V10.16999z M124.26308,7.92975l0.30469-0.20508
			c0.10645,0.07373,0.21973,0.15869,0.33789,0.25537s0.22852,0.19238,0.33203,0.28711
			c0.10352,0.09521,0.18848,0.18262,0.25488,0.2627l-0.32422,0.23486c-0.06055-0.07666-0.1416-0.16406-0.24316-0.26221
			c-0.10156-0.09863-0.20996-0.19824-0.3252-0.30029C124.48574,8.10065,124.37344,8.00983,124.26308,7.92975z M124.68789,9.00007
			h0.40527v2.95996h-0.40527V9.00007z"/>
		<path d="M82.24355,15.77985h0.39941c-0.02344,0.27979-0.05859,0.54492-0.10449,0.79492
			c-0.04688,0.25-0.12305,0.48242-0.22754,0.69775c-0.10547,0.21484-0.25195,0.40918-0.44043,0.58252
			c-0.18848,0.17285-0.43066,0.31787-0.72754,0.43457c-0.01953-0.04297-0.05273-0.09375-0.09961-0.15234
			c-0.04688-0.05811-0.0918-0.104-0.13477-0.13721c0.27246-0.10352,0.49414-0.23193,0.66211-0.38525
			s0.29785-0.32568,0.38965-0.51758c0.0918-0.19141,0.1582-0.39795,0.19824-0.62012
			C82.19765,16.25593,82.22598,16.02302,82.24355,15.77985z M80.96328,15.49469h4.41504v0.37012h-4.41504V15.49469z
			 M81.40273,14.09479h3.55078v0.35986h-3.55078V14.09479z M83.5834,15.71979h0.37988v1.93018
			c0,0.08984,0.01465,0.14746,0.04492,0.17236s0.09277,0.0376,0.18945,0.0376c0.02344,0,0.06445,0,0.12305,0s0.12207,0,0.19238,0
			s0.13574,0,0.19727,0s0.10742,0,0.1377,0c0.07031,0,0.12207-0.02246,0.15527-0.06738
			c0.0332-0.04541,0.05762-0.13184,0.07227-0.26025s0.02441-0.3208,0.02734-0.57764c0.0332,0.02344,0.07031,0.0459,0.11035,0.06787
			c0.04004,0.02148,0.08203,0.04053,0.12695,0.05713c0.04492,0.01709,0.08496,0.03027,0.11816,0.04004
			c-0.01367,0.28711-0.03809,0.50928-0.07324,0.66748c-0.03418,0.15869-0.09082,0.26953-0.16992,0.33252
			c-0.07812,0.06348-0.19043,0.09521-0.33691,0.09521c-0.02344,0-0.07031,0-0.14062,0c-0.06934,0-0.14453,0-0.22461,0
			s-0.1543,0-0.22266,0s-0.11426,0-0.1377,0c-0.14648,0-0.26172-0.0166-0.34668-0.05029
			c-0.08496-0.0332-0.14355-0.09082-0.17578-0.17236c-0.03125-0.08154-0.04688-0.19385-0.04688-0.3374V15.71979z"/>
		<path d="M85.95351,17.87507h4.43945v0.27979h-4.43945V17.87507z M86.0082,15.17975h4.26953v0.29492H86.0082V15.17975z
			 M86.25332,13.89509h3.88965v0.99463h-3.88965V13.89509z M86.61269,14.16462v0.4502h0.7959v-0.4502H86.61269z M86.61855,15.77009
			h3.08984v2.25977h-0.37012v-2.00488h-2.36035v2.00488h-0.35938V15.77009z M86.79824,16.30475h2.72461v0.2251h-2.72461V16.30475z
			 M86.81777,16.81989h2.69531v0.2251h-2.69531V16.81989z M86.83828,17.33991h2.69531v0.2251h-2.69531V17.33991z M87.75332,14.16462
			v0.4502h0.8252v-0.4502H87.75332z M87.94765,14.79499l0.38574,0.0249c-0.02734,0.17334-0.06152,0.35742-0.10254,0.55225
			c-0.04199,0.19531-0.0791,0.36426-0.1123,0.50781h-0.35547c0.02344-0.09668,0.04688-0.20752,0.07031-0.33252
			s0.04492-0.25342,0.06445-0.38525C87.91836,15.03083,87.93496,14.90827,87.94765,14.79499z M88.92324,14.16462v0.4502h0.84473
			v-0.4502H88.92324z"/>
		<path d="M92.05801,17.96979c-0.23633,0-0.43945-0.07178-0.61035-0.21484c-0.16992-0.14355-0.30078-0.35352-0.3916-0.62988
			c-0.0918-0.27686-0.1377-0.61523-0.1377-1.01514c0-0.39649,0.0459-0.73193,0.1377-1.00488
			c0.09082-0.27344,0.22168-0.47998,0.3916-0.62012c0.1709-0.14014,0.37402-0.20996,0.61035-0.20996
			s0.44043,0.06982,0.61035,0.20996s0.30078,0.34668,0.39258,0.62012c0.0918,0.27295,0.13672,0.6084,0.13672,1.00488
			c0,0.3999-0.04492,0.73828-0.13672,1.01514c-0.0918,0.27637-0.22266,0.48633-0.39258,0.62988
			C92.49844,17.89802,92.29433,17.96979,92.05801,17.96979z M92.05801,17.59968c0.13965,0,0.2627-0.05127,0.36719-0.15479
			c0.10547-0.10352,0.1875-0.26514,0.24512-0.48486c0.05859-0.22021,0.08789-0.50342,0.08789-0.8501
			c0-0.34668-0.0293-0.62842-0.08789-0.84522c-0.05762-0.21631-0.13965-0.375-0.24512-0.4751
			c-0.10449-0.09961-0.22754-0.1499-0.36719-0.1499c-0.13672,0-0.25781,0.05029-0.36523,0.1499
			c-0.10645,0.1001-0.18848,0.25879-0.24707,0.4751c-0.05859,0.2168-0.08789,0.49854-0.08789,0.84522
			c0,0.34668,0.0293,0.62988,0.08789,0.8501c0.05859,0.21973,0.14062,0.38135,0.24707,0.48486
			C91.80019,17.54841,91.92129,17.59968,92.05801,17.59968z"/>
		<path d="M94.22793,18.44001l-0.11035-0.26514c0.2041-0.0835,0.35938-0.18994,0.46777-0.31982
			c0.1084-0.13037,0.16309-0.29004,0.16309-0.47998l-0.09082-0.42041l0.27051,0.38037
			c-0.03711,0.04297-0.07812,0.07227-0.125,0.0874s-0.09375,0.02246-0.13965,0.02246c-0.10352,0-0.19238-0.03027-0.26562-0.08984
			c-0.07324-0.06006-0.10938-0.14844-0.10938-0.26514c0-0.12012,0.03711-0.20996,0.1123-0.27002s0.16406-0.08984,0.26758-0.08984
			c0.13965,0,0.24512,0.05225,0.31738,0.15723c0.07129,0.10498,0.10742,0.24414,0.10742,0.41748
			c0,0.27002-0.07812,0.50342-0.23535,0.7002C94.70156,18.20173,94.4916,18.34626,94.22793,18.44001z"/>
		<path d="M98.90273,17.90485v-2.71484h0.375l0.04492,0.39502h0.01074c0.12988-0.13037,0.2666-0.24023,0.41309-0.33008
			c0.14453-0.09033,0.31055-0.13525,0.49609-0.13525c0.28711,0,0.49805,0.09082,0.63086,0.27246
			c0.13281,0.18213,0.19922,0.44629,0.19922,0.79248v1.72021h-0.45508V16.2447c0-0.25635-0.04102-0.44141-0.12109-0.55469
			c-0.08203-0.11328-0.21289-0.16992-0.39258-0.16992c-0.14062,0-0.26562,0.03467-0.375,0.10498
			c-0.11133,0.06982-0.23242,0.17334-0.36523,0.30957v1.97022H98.90273z"/>
		<path d="M101.72402,16.67975v-0.3501h1.28418v0.3501H101.72402z"/>
		<path d="M103.68789,17.90485v-2.71484h0.375l0.04492,0.49463h0.00977c0.09375-0.17285,0.20801-0.31055,0.34277-0.41211
			c0.13477-0.10205,0.27734-0.15283,0.42773-0.15283c0.06348,0,0.11719,0.00439,0.16211,0.0127s0.08789,0.02441,0.12793,0.04736
			l-0.08496,0.39502c-0.04688-0.01318-0.08887-0.02393-0.125-0.03223c-0.03711-0.0083-0.08398-0.0127-0.14062-0.0127
			c-0.10938,0-0.22754,0.04736-0.35449,0.14258c-0.12695,0.09473-0.23535,0.25732-0.3252,0.48731v1.74512H103.68789z"/>
		<path d="M106.40859,15.58503l0.2793,0.16504c-0.0791,0.16309-0.17969,0.33057-0.2998,0.50244
			c-0.12012,0.17139-0.24902,0.33301-0.3877,0.48486c-0.1377,0.15186-0.27344,0.2793-0.40723,0.38232
			c-0.03027-0.04297-0.06836-0.09326-0.11523-0.1499c-0.0459-0.05664-0.09277-0.10156-0.13965-0.13477
			c0.13379-0.08691,0.26855-0.19775,0.40527-0.33252c0.13672-0.13525,0.2627-0.2832,0.37988-0.44531
			C106.23965,15.89557,106.33535,15.73835,106.40859,15.58503z M106.65371,13.78962l0.33008,0.16504
			c-0.16406,0.28369-0.36621,0.56006-0.6084,0.83008c-0.24121,0.27002-0.49414,0.50684-0.75684,0.70996
			c-0.0166-0.02637-0.04102-0.05469-0.07227-0.08496c-0.03223-0.02979-0.06348-0.05908-0.0957-0.0874
			c-0.03125-0.02832-0.0625-0.05078-0.0918-0.06738c0.17285-0.12695,0.34082-0.27197,0.50488-0.43506
			c0.16309-0.16309,0.3125-0.3335,0.44922-0.51025C106.44961,14.13337,106.56289,13.96003,106.65371,13.78962z M105.43789,13.98493
			l0.26562-0.2002c0.2334,0.19678,0.41895,0.40088,0.55762,0.61279c0.1377,0.21143,0.24219,0.42725,0.3125,0.64746
			c0.06934,0.21973,0.11621,0.44482,0.13965,0.6748s0.03516,0.46338,0.03516,0.7002c0,0.24316-0.00781,0.47559-0.02246,0.69727
			s-0.04102,0.41748-0.07715,0.5874c-0.03711,0.17041-0.09082,0.30176-0.16016,0.39502
			c-0.0332,0.04346-0.07324,0.0791-0.12012,0.10791c-0.04688,0.02783-0.10156,0.04736-0.16504,0.05713
			c-0.08691,0.0166-0.17969,0.02588-0.27734,0.02783c-0.09863,0.00146-0.20117,0.00049-0.30762-0.00293
			c-0.00391-0.05957-0.01465-0.12207-0.03223-0.1875c-0.01855-0.06494-0.04492-0.12207-0.07812-0.17236
			c0.12012,0.00684,0.22656,0.01025,0.32031,0.01025c0.09277,0,0.16797-0.00342,0.22461-0.01025
			c0.07324-0.00977,0.12891-0.03809,0.16504-0.08496c0.04395-0.05664,0.07812-0.15674,0.10254-0.2998
			c0.02539-0.14355,0.04297-0.31348,0.05469-0.51025c0.01172-0.19629,0.01758-0.40479,0.01758-0.625
			c0-0.22314-0.01172-0.44141-0.03418-0.65479c-0.02344-0.21338-0.06836-0.4209-0.13281-0.62256
			c-0.06543-0.20166-0.16016-0.39844-0.28516-0.58984C105.81582,14.35065,105.64883,14.16462,105.43789,13.98493z
			 M106.85293,17.76472c0.22754-0.02295,0.49121-0.04883,0.79297-0.07715s0.62207-0.06104,0.96289-0.09766
			c0.33984-0.03662,0.67969-0.07324,1.01953-0.10986l0.00488,0.35986c-0.32031,0.04004-0.64355,0.0791-0.96973,0.11768
			c-0.32715,0.03809-0.63965,0.07324-0.9375,0.10498c-0.29883,0.03125-0.56641,0.0625-0.80273,0.09229L106.85293,17.76472z
			 M107.11367,14.69489h2.58008v1.8501h-2.58008V14.69489z M107.48379,15.02497v1.18506h1.82422v-1.18506H107.48379z
			 M108.21328,13.71491h0.375v4.125h-0.375V13.71491z M109.02383,16.83991l0.34473-0.10498
			c0.07617,0.1499,0.15527,0.3125,0.23438,0.4873c0.08008,0.17529,0.1543,0.34326,0.22266,0.50488
			c0.06836,0.16211,0.12305,0.30273,0.16309,0.42285l-0.375,0.13477c-0.03711-0.12305-0.08691-0.26758-0.15039-0.43262
			c-0.06348-0.16455-0.13379-0.33643-0.21289-0.51465C109.17226,17.15925,109.09707,16.99323,109.02383,16.83991z"/>
		<path d="M110.43789,17.71491h4.46582v0.375h-4.46582V17.71491z M110.65371,14.64997h4.04492v0.375h-4.04492V14.64997z
			 M111.34805,15.37995l0.37012-0.08496c0.06641,0.22314,0.13379,0.46143,0.2002,0.71484
			c0.06641,0.25342,0.12695,0.5,0.17969,0.74023c0.05371,0.23975,0.09375,0.45654,0.12012,0.6499l-0.39453,0.1001
			c-0.02734-0.19336-0.06543-0.41162-0.11523-0.65527c-0.0498-0.24316-0.10645-0.49268-0.16992-0.74756
			C111.475,15.84235,111.41152,15.60309,111.34805,15.37995z M112.30801,13.77497l0.36523-0.1001
			c0.0498,0.12646,0.10059,0.26514,0.15039,0.41504s0.08789,0.27832,0.11426,0.38477l-0.38477,0.11523
			c-0.02344-0.10986-0.05762-0.2417-0.10254-0.39502S112.35879,13.90143,112.30801,13.77497z M113.62344,15.29499l0.4248,0.07471
			c-0.05664,0.20703-0.11914,0.42334-0.1875,0.65039c-0.06836,0.22656-0.13867,0.45215-0.21191,0.67725
			c-0.07422,0.2251-0.14844,0.43848-0.22266,0.64014c-0.0752,0.20166-0.14746,0.38232-0.21777,0.54248l-0.37012-0.08496
			c0.07324-0.16016,0.14648-0.34326,0.21973-0.55029c0.07324-0.20654,0.14551-0.42383,0.21582-0.65234
			c0.06934-0.22852,0.13477-0.45312,0.19434-0.67481C113.52871,15.69587,113.58047,15.48835,113.62344,15.29499z"/>
		<path d="M118.89883,16.21003h0.0791l0.06543-0.01514l0.24023,0.16504c-0.16699,0.29004-0.37988,0.54395-0.6377,0.76221
			c-0.25879,0.21875-0.54883,0.40527-0.87207,0.56006c-0.32422,0.15527-0.66992,0.28418-1.03809,0.3877
			c-0.36816,0.10303-0.74219,0.18506-1.12207,0.24512c-0.01074-0.03027-0.02637-0.06592-0.04785-0.10742
			c-0.02148-0.04199-0.04492-0.08252-0.07031-0.12256c-0.02441-0.04004-0.04688-0.07373-0.06738-0.1001
			c0.37305-0.05029,0.7373-0.12012,1.09277-0.20996c0.35449-0.09033,0.68555-0.2041,0.99219-0.34277
			c0.30664-0.13818,0.5791-0.30322,0.81738-0.49463c0.23828-0.19189,0.42773-0.41455,0.56836-0.66748V16.21003z M115.51797,14.21491
			h4.30078v0.33496h-4.30078V14.21491z M116.28359,14.75983l0.33496,0.08984c-0.08398,0.2002-0.19043,0.39502-0.32031,0.58496
			c-0.12988,0.19043-0.26172,0.35205-0.39453,0.48535c-0.02344-0.02002-0.05273-0.04346-0.08789-0.07031
			c-0.03516-0.02637-0.07129-0.05225-0.11035-0.07715c-0.03809-0.02539-0.07031-0.04443-0.09668-0.05762
			c0.13965-0.12012,0.26855-0.26514,0.38672-0.43506S116.21035,14.93659,116.28359,14.75983z M115.8334,16.21003h3.14453v0.33496
			h-3.14453V16.21003z M116.51308,16.35505c0.19727,0.30664,0.46484,0.57129,0.80273,0.79492
			c0.33789,0.22314,0.73047,0.4043,1.17773,0.54248c0.44629,0.13818,0.93164,0.23584,1.45508,0.29248
			c-0.02734,0.02637-0.05371,0.06006-0.08008,0.1001c-0.02734,0.04004-0.05273,0.07959-0.07812,0.11963
			c-0.02441,0.04004-0.04395,0.07666-0.05664,0.11035c-0.53027-0.07031-1.02051-0.18164-1.4707-0.33496
			s-0.84961-0.35352-1.2002-0.6001c-0.34961-0.24658-0.6377-0.5415-0.86426-0.88525L116.51308,16.35505z M116.90371,14.40485h0.375
			v1.66504h-0.375V14.40485z M117.32851,13.75007l0.35938-0.09033c0.06055,0.08691,0.12109,0.18359,0.18262,0.29004
			c0.06152,0.10693,0.10742,0.2002,0.1377,0.28027l-0.375,0.10498c-0.03027-0.08008-0.07422-0.17529-0.13281-0.28516
			C117.44277,13.94001,117.38515,13.83991,117.32851,13.75007z M118.04824,14.36969h0.375v1.69531h-0.375V14.36969z
			 M118.62344,14.94977l0.28027-0.16016c0.10938,0.09375,0.21973,0.19678,0.33008,0.31006
			c0.10938,0.11377,0.21191,0.2251,0.30664,0.33496c0.0957,0.11035,0.1709,0.2085,0.22754,0.29541l-0.29492,0.19482
			c-0.05957-0.08984-0.13672-0.19336-0.22949-0.31006c-0.09375-0.1167-0.19434-0.23242-0.30273-0.34766
			C118.83242,15.15241,118.72695,15.04645,118.62344,14.94977z"/>
		<path d="M121.73379,13.70466l0.36914,0.11523c-0.11621,0.2832-0.25391,0.56152-0.41211,0.83496s-0.32715,0.52979-0.50781,0.77002
			c-0.17969,0.23975-0.36426,0.45166-0.55469,0.63477c-0.01367-0.02637-0.03516-0.06299-0.06543-0.10986
			c-0.0293-0.04639-0.06152-0.09424-0.09473-0.14258s-0.06348-0.08545-0.08984-0.1123
			c0.17969-0.16016,0.35449-0.3457,0.52246-0.55762c0.16797-0.21143,0.32324-0.43994,0.46484-0.68506
			C121.50723,14.20759,121.63027,13.95807,121.73379,13.70466z M121.20351,14.94489l0.38965-0.38525l0.00488,0.00537v3.73975
			h-0.39453V14.94489z M124.50332,14.42975l0.36035,0.24023c-0.2373,0.33301-0.51074,0.64746-0.82031,0.94238
			s-0.63477,0.56348-0.97461,0.80518c-0.34082,0.2417-0.67871,0.44922-1.01562,0.62207
			c-0.01953-0.02979-0.04492-0.06152-0.0752-0.09473c-0.0293-0.0332-0.0625-0.06738-0.09668-0.10254
			c-0.03516-0.03516-0.06934-0.06396-0.10254-0.0874c0.33008-0.16357,0.66211-0.36328,0.99707-0.6001
			c0.33496-0.23682,0.65234-0.50147,0.95215-0.79492C124.02871,15.06647,124.28652,14.75641,124.50332,14.42975z
			 M122.74844,13.79499h0.40039v3.71484c0,0.13672,0.01758,0.22607,0.05469,0.26758c0.03613,0.0415,0.11523,0.0625,0.23438,0.0625
			c0.03027,0,0.08301,0,0.1582,0s0.15723,0,0.24707,0s0.1748,0,0.25293,0s0.13574,0,0.17188,0
			c0.08691,0,0.15234-0.03027,0.19531-0.08984c0.04297-0.06006,0.0752-0.16748,0.09473-0.32275
			c0.02051-0.15479,0.03516-0.37598,0.04492-0.6626c0.03711,0.02686,0.07715,0.05273,0.12012,0.07764
			c0.04395,0.0249,0.08789,0.04688,0.13281,0.06494c0.04492,0.01855,0.08594,0.03271,0.12207,0.04248
			c-0.0166,0.31348-0.04492,0.56201-0.08496,0.74512s-0.10645,0.31592-0.19922,0.39746
			c-0.09375,0.08154-0.22852,0.12256-0.40527,0.12256c-0.02344,0-0.06445,0-0.12305,0c-0.05762,0-0.12598,0-0.2041,0
			c-0.0791,0-0.15723,0-0.23535,0s-0.14648,0-0.20508,0s-0.09961,0-0.12207,0c-0.16699,0-0.29688-0.021-0.39062-0.0625
			c-0.09277-0.04199-0.16016-0.11523-0.2002-0.22021s-0.05957-0.24902-0.05957-0.43213V13.79499z"/>
		<path d="M126.55801,13.69489l0.35059,0.10986c-0.11328,0.28027-0.24609,0.55664-0.39746,0.83008
			c-0.15234,0.27344-0.31543,0.52979-0.49023,0.77002s-0.35449,0.45312-0.53711,0.64014
			c-0.01367-0.03027-0.0332-0.06836-0.05762-0.11524c-0.02539-0.04639-0.05078-0.09326-0.07812-0.14014
			c-0.02637-0.04639-0.05176-0.08496-0.07422-0.11475c0.16602-0.16016,0.3291-0.3457,0.48926-0.55762
			c0.16016-0.21143,0.30859-0.43799,0.44531-0.67969S126.46133,13.94831,126.55801,13.69489z M126.03359,15.00007l0.34961-0.35498
			l0.00977,0.00488v3.67481h-0.35938V15.00007z M128.16348,13.72468h0.36523v2.20996c0,0.19336-0.01074,0.38525-0.03027,0.5752
			c-0.02051,0.18994-0.06152,0.37354-0.125,0.5498c-0.06348,0.17676-0.1582,0.34375-0.28516,0.5
			c-0.12696,0.15674-0.292,0.30029-0.49708,0.43018s-0.46289,0.24023-0.77246,0.33008
			c-0.01758-0.02686-0.03906-0.05908-0.06543-0.09766c-0.02637-0.03809-0.05371-0.07715-0.08008-0.11719
			s-0.05469-0.07178-0.08496-0.09521c0.2998-0.07666,0.54688-0.16992,0.74023-0.27979
			c0.19336-0.11035,0.3457-0.23438,0.45703-0.37256c0.1123-0.13818,0.19434-0.28516,0.24805-0.43994
			c0.05273-0.15527,0.08789-0.31592,0.10449-0.48291c0.0166-0.1665,0.02539-0.33301,0.02539-0.5V13.72468z M126.77383,14.25983
			h3.20411v0.34521h-3.20411V14.25983z M126.91836,15.09479h2.89454v1.38525h-2.89454V15.09479z M127.23379,16.57966
			c0.15625,0.26367,0.37012,0.49023,0.6416,0.68018c0.27247,0.18994,0.59083,0.34521,0.95509,0.46484
			c0.36523,0.12012,0.76465,0.20361,1.19824,0.25c-0.02734,0.02686-0.05566,0.06006-0.08496,0.1001
			c-0.03027,0.04004-0.05664,0.08105-0.08008,0.12256s-0.04395,0.08057-0.06055,0.11768
			c-0.44336-0.06689-0.84961-0.16943-1.21973-0.30762s-0.69532-0.31689-0.97462-0.53516
			c-0.28027-0.21826-0.51074-0.48047-0.69043-0.7876L127.23379,16.57966z M127.26797,15.40973v0.75h2.18555v-0.75H127.26797z"/>
		<path d="M83.24355,21.62995l0.28418,0.1748c-0.19922,0.1499-0.4375,0.29102-0.71484,0.42236
			c-0.27637,0.13184-0.56641,0.25-0.87012,0.35547c-0.30273,0.10498-0.59961,0.19238-0.88965,0.26221
			c-0.02344-0.04004-0.05469-0.08643-0.09277-0.14014c-0.03809-0.05322-0.07715-0.09961-0.11719-0.13965
			c0.21289-0.04688,0.43262-0.10254,0.65723-0.16748c0.22559-0.06494,0.44531-0.1377,0.66016-0.21777
			s0.41602-0.1665,0.60254-0.25977S83.10976,21.73005,83.24355,21.62995z M81.04824,20.47468h4.24512v0.875h-0.35059v-0.61475
			h-3.55469v0.61475h-0.33984V20.47468z M81.33828,19.90485h3.65527v0.28516h-3.65527V19.90485z M81.52285,21.50007h1.2002v0.24463
			h-1.2002V21.50007z M81.52285,22.82477h3.08008v0.28516h-3.08008V22.82477z M81.6332,21.00007h1.08496v0.23486H81.6332V21.00007z
			 M82.09805,23.60993l0.16016-0.24023c0.16016,0.04004,0.33203,0.08838,0.51758,0.14502
			c0.18457,0.05664,0.36816,0.1167,0.5498,0.18018s0.35156,0.12646,0.50977,0.18994s0.2959,0.12354,0.41309,0.18018
			l-0.16504,0.27979c-0.11035-0.05664-0.24316-0.11816-0.40039-0.18506c-0.15625-0.06641-0.32617-0.1333-0.50781-0.19971
			c-0.18164-0.06689-0.36426-0.13037-0.5498-0.18994C82.44082,23.71003,82.26504,23.65681,82.09805,23.60993z M82.81777,22.41462
			l0.23535-0.15967c0.08301,0.05664,0.16797,0.125,0.25293,0.20508c0.08496,0.07959,0.15234,0.15137,0.20215,0.21484
			l-0.24512,0.18506c-0.04297-0.06689-0.10742-0.1416-0.19238-0.2251S82.90176,22.47809,82.81777,22.41462z M82.96816,20.02009
			h0.37012v1.48975h-0.37012V20.02009z M83.31289,21.86481c0.12695,0.06689,0.2793,0.13232,0.45801,0.19775
			c0.17773,0.06494,0.36816,0.12646,0.56934,0.18457c0.20215,0.05859,0.40527,0.11035,0.61035,0.15527
			s0.39551,0.08398,0.57227,0.11768c-0.02344,0.02295-0.0498,0.05322-0.08008,0.08984
			c-0.0293,0.03662-0.05762,0.07324-0.08496,0.10986c-0.02637,0.03662-0.04785,0.06982-0.06445,0.1001
			c-0.17676-0.03662-0.36621-0.08252-0.56738-0.1377c-0.20215-0.05469-0.40527-0.11719-0.61035-0.1875
			c-0.20508-0.06982-0.40039-0.14307-0.58496-0.21973s-0.34766-0.15527-0.4873-0.23535L83.31289,21.86481z M84.51308,22.82477
			h0.05957l0.05566-0.02002l0.24023,0.16992c-0.12402,0.13037-0.27734,0.2583-0.45996,0.38525
			c-0.18359,0.12646-0.37109,0.24219-0.5625,0.34766c-0.19238,0.10498-0.36621,0.19238-0.52344,0.26221
			c-0.02637-0.03662-0.0625-0.08008-0.10742-0.12988c-0.04492-0.05029-0.08398-0.08838-0.11719-0.11523
			c0.11328-0.04297,0.23633-0.09668,0.37012-0.15967c0.13281-0.06348,0.2666-0.1333,0.40039-0.20996
			c0.13281-0.07666,0.25586-0.15527,0.36914-0.23535s0.20508-0.15479,0.27539-0.22461V22.82477z M83.58828,21.00007h1.10938v0.23486
			h-1.10938V21.00007z M83.58828,21.50007h1.23438v0.24463h-1.23438V21.50007z"/>
		<path d="M86.04824,20.31501h4.25v1.00488h-0.38477v-0.66016h-3.49512v0.78516h-0.37012V20.31501z M86.05312,23.79499h4.25v0.33984
			h-4.25V23.79499z M87.58828,20.95466l0.25977,0.22998c-0.12988,0.1167-0.27734,0.23535-0.44238,0.35498
			c-0.16504,0.12012-0.33887,0.2334-0.52246,0.34033c-0.18359,0.10645-0.37305,0.20166-0.57031,0.28467l-0.21973-0.32471
			c0.29688-0.10352,0.57129-0.23486,0.8252-0.39502C87.17129,21.28473,87.39492,21.12165,87.58828,20.95466z M86.57851,22.19001
			h3.21484v0.33984h-3.21484V22.19001z M87.78848,19.78473l0.38965-0.10986c0.05957,0.10986,0.12305,0.2334,0.19043,0.37012
			c0.06641,0.13672,0.11816,0.25146,0.1543,0.34473l-0.41016,0.14014c-0.0332-0.09668-0.08008-0.21582-0.1416-0.35742
			C87.90859,20.03083,87.84805,19.90143,87.78848,19.78473z M87.96328,22.40485h0.39453v1.56006h-0.39453V22.40485z
			 M88.48769,21.21979l0.23535-0.25c0.12305,0.06348,0.25586,0.13184,0.39746,0.20508s0.2832,0.14941,0.4248,0.22754
			s0.27441,0.1543,0.39746,0.22754c0.12402,0.07324,0.23047,0.14014,0.32031,0.19971l-0.25,0.29004
			c-0.08301-0.06006-0.18555-0.12744-0.30762-0.20215c-0.12109-0.0752-0.25195-0.1543-0.38965-0.23779
			c-0.13867-0.08301-0.2793-0.16406-0.42285-0.24219C88.74941,21.35895,88.61465,21.28669,88.48769,21.21979z"/>
		<path d="M91.12344,20.82966h0.38477v3.4751h-0.38477V20.82966z M91.19765,19.94977l0.29004-0.17969
			c0.08008,0.06982,0.16016,0.14746,0.24023,0.23242s0.15527,0.16895,0.22559,0.25244
			c0.06934,0.0835,0.12305,0.15967,0.15918,0.22998l-0.30957,0.19971c-0.04004-0.06641-0.09277-0.14307-0.15723-0.22998
			c-0.06543-0.08643-0.13672-0.17383-0.21484-0.26221C91.35195,20.10407,91.2748,20.02302,91.19765,19.94977z M92.22305,21.13483
			h1.89551v2.27979h-1.89551V21.13483z M92.42812,19.98493h2.62988v0.35498h-2.62988V19.98493z M92.56289,21.44977v0.66504h1.2002
			v-0.66504H92.56289z M92.56289,22.42975v0.67529h1.2002v-0.67529H92.56289z M94.84805,19.98493h0.38477v3.86475
			c0,0.10352-0.01172,0.18262-0.03711,0.23779c-0.02539,0.05469-0.07129,0.09912-0.1377,0.13232
			c-0.06641,0.03027-0.1543,0.04736-0.2627,0.05273c-0.1084,0.00488-0.23926,0.00732-0.39258,0.00732
			c-0.00977-0.04688-0.02539-0.104-0.04688-0.17236s-0.0459-0.12598-0.07227-0.17285
			c0.10645,0.00342,0.2041,0.00537,0.29492,0.00537c0.08984,0,0.15137,0,0.18457,0c0.0332-0.00342,0.05566-0.01172,0.06738-0.02539
			c0.01172-0.01318,0.01758-0.03467,0.01758-0.06494V19.98493z"/>
		<path d="M95.97305,21.78962c-0.00293-0.02295-0.01172-0.05566-0.02539-0.09717c-0.0127-0.0415-0.02734-0.08496-0.04199-0.12988
			c-0.01465-0.04541-0.03125-0.08447-0.04785-0.11768c0.04688-0.01025,0.09082-0.04248,0.13281-0.09766
			c0.04199-0.05469,0.08887-0.12402,0.14258-0.20752c0.03027-0.04297,0.07129-0.11328,0.125-0.20996
			c0.05273-0.09668,0.11133-0.21045,0.1748-0.34229s0.12695-0.27344,0.19043-0.42529
			c0.0625-0.15137,0.11621-0.30078,0.16016-0.44727l0.34473,0.1499c-0.08008,0.20654-0.1709,0.41357-0.27246,0.62012
			s-0.20898,0.40479-0.32031,0.59473c-0.11133,0.19043-0.22559,0.36035-0.34277,0.51025v0.00977
			c-0.04297,0.02686-0.0791,0.05029-0.10742,0.07031s-0.05371,0.04004-0.07715,0.06006S95.97305,21.77009,95.97305,21.78962z
			 M95.89297,23.63972c0.14062-0.02979,0.30176-0.06494,0.48535-0.10498c0.18262-0.04004,0.37793-0.08398,0.58496-0.13232
			c0.20605-0.04834,0.41504-0.09766,0.625-0.14746l0.03516,0.31982c-0.29395,0.07324-0.58594,0.14697-0.87793,0.22021
			s-0.55273,0.13965-0.78223,0.19971L95.89297,23.63972z M96.01308,22.9947c-0.00293-0.02637-0.01172-0.06006-0.02539-0.09961
			c-0.0127-0.04004-0.02734-0.08105-0.04199-0.12256c-0.01465-0.04199-0.03125-0.07764-0.04785-0.10791
			c0.05664-0.00977,0.11523-0.04492,0.1748-0.10498c0.06055-0.05957,0.12695-0.13623,0.2002-0.22998
			c0.04395-0.04639,0.10547-0.12207,0.18555-0.22754c0.08008-0.10498,0.16992-0.22998,0.26953-0.375
			c0.10059-0.14453,0.20117-0.30225,0.30273-0.47217s0.19531-0.34033,0.28223-0.51025l0.2998,0.18018
			c-0.19629,0.34326-0.41211,0.68018-0.64746,1.00977c-0.23438,0.33008-0.4707,0.61865-0.70703,0.86523v0.00977
			c-0.0498,0.02344-0.09082,0.04443-0.12305,0.0625c-0.03125,0.01855-0.05957,0.03857-0.08496,0.06006
			C96.02578,22.95417,96.01308,22.97468,96.01308,22.9947z M95.97305,21.78962l-0.00488-0.26465l0.1748-0.11035l0.91016-0.09473
			c-0.00977,0.04346-0.01758,0.09424-0.02246,0.15234c-0.00488,0.05859-0.00586,0.10596-0.00293,0.14258
			c-0.20996,0.02686-0.37891,0.04932-0.50684,0.06738c-0.12891,0.01855-0.22852,0.03369-0.2998,0.04492
			c-0.07227,0.01172-0.125,0.02295-0.16016,0.03271C96.02578,21.77009,95.99648,21.77985,95.97305,21.78962z M96.01308,22.9947
			l-0.01953-0.2998l0.18457-0.125l1.3252-0.23486c-0.00684,0.04639-0.00977,0.09961-0.00977,0.15967
			s0.00098,0.11035,0.00488,0.15039c-0.30371,0.05957-0.54785,0.10986-0.73242,0.1499
			c-0.18555,0.04004-0.32812,0.07178-0.42773,0.09473c-0.10059,0.02344-0.17383,0.04346-0.21973,0.06006
			C96.07168,22.96638,96.03652,22.98151,96.01308,22.9947z M98.39785,19.73005l0.36523,0.10498
			c-0.08008,0.22314-0.17578,0.45557-0.28711,0.69727c-0.1123,0.2417-0.2373,0.47363-0.375,0.69482
			c-0.13867,0.22217-0.28418,0.4209-0.4375,0.59766c-0.01367-0.02979-0.03125-0.06494-0.05273-0.10498
			s-0.04492-0.08008-0.07031-0.12012c-0.02441-0.04004-0.04688-0.07324-0.06738-0.09961
			c0.13379-0.15674,0.25977-0.33594,0.37988-0.5376s0.22656-0.40918,0.32031-0.62256
			C98.26601,20.12653,98.34121,19.92341,98.39785,19.73005z M98.34805,20.60993h2.03027v0.33984h-2.03027v3.35986h-0.35449v-3.46484
			l0.21973-0.23486H98.34805z M98.14785,23.59479h2.30566v0.3501h-2.30566V23.59479z M98.17324,21.58503h2.08008v0.33984h-2.08008
			V21.58503z M98.18301,22.56989h2.08008v0.33984h-2.08008V22.56989z M98.96816,19.85993l0.31543-0.12988
			c0.07617,0.10986,0.14746,0.22998,0.21289,0.35986c0.06445,0.12988,0.11328,0.2417,0.14648,0.33496l-0.33984,0.15479
			c-0.02344-0.09961-0.06836-0.21631-0.13477-0.34961S99.03555,19.97321,98.96816,19.85993z M99.15273,20.73005h0.35059v3.05469
			h-0.35059V20.73005z"/>
		<path d="M101.29824,20.19977h0.375v1.35986c0,0.2002-0.00586,0.41748-0.01758,0.65283
			c-0.01172,0.23486-0.03418,0.47559-0.06738,0.72217c-0.0332,0.24707-0.08203,0.48682-0.14453,0.72021
			c-0.06348,0.2334-0.14844,0.4502-0.25586,0.6499c-0.02246-0.02002-0.05566-0.04053-0.09668-0.0625
			c-0.04199-0.02148-0.08496-0.04346-0.12793-0.06494s-0.08008-0.03564-0.11035-0.04248
			c0.10352-0.18994,0.18457-0.39502,0.24316-0.61475c0.05762-0.22021,0.10254-0.44531,0.13184-0.67529
			c0.03027-0.22998,0.0498-0.4541,0.05762-0.67236c0.00879-0.21826,0.0127-0.4209,0.0127-0.60742V20.19977z M101.47305,20.19977
			h3.93555v0.35498h-3.93555V20.19977z M104.62832,22.57966h0.0752l0.06445-0.01465l0.23535,0.125
			c-0.13672,0.25635-0.31738,0.47656-0.54199,0.65967c-0.22559,0.18359-0.48145,0.33594-0.76758,0.45752
			c-0.28711,0.12158-0.5918,0.22021-0.91504,0.29492c-0.32324,0.0752-0.65723,0.13281-1,0.17285
			c-0.01074-0.04346-0.03027-0.09668-0.06055-0.16016s-0.05957-0.1167-0.08984-0.16016
			c0.31641-0.02637,0.62891-0.07129,0.9375-0.13477s0.59668-0.14746,0.86523-0.25244s0.50586-0.23438,0.71191-0.3877
			c0.20703-0.15332,0.36914-0.33496,0.48535-0.54492V22.57966z M101.79336,21.1197h3.55957v0.31006h-3.55957V21.1197z
			 M101.86367,22.57966h2.86426v0.31006h-2.86426V22.57966z M102.66348,22.82966c0.16699,0.22021,0.39062,0.40918,0.67285,0.56787
			c0.28125,0.1582,0.60449,0.28564,0.96973,0.38232s0.75586,0.16309,1.17188,0.2002
			c-0.02637,0.02637-0.05371,0.05908-0.08203,0.09717c-0.02832,0.03857-0.05469,0.07764-0.07715,0.11768
			c-0.02344,0.04004-0.04395,0.07666-0.06055,0.10986c-0.42285-0.0498-0.82031-0.13086-1.19238-0.24219
			c-0.37207-0.11182-0.7041-0.25928-0.99707-0.44287c-0.29395-0.18311-0.53516-0.40332-0.72559-0.65967L102.66348,22.82966z
			 M102.59805,20.68464h0.36035v1.27539h1.21484v-1.27539h0.37012v1.5752h-1.94531V20.68464z M103.03359,19.77009l0.375-0.09033
			c0.05957,0.1001,0.11719,0.21094,0.17188,0.33252c0.05566,0.12158,0.09473,0.22412,0.11816,0.30762l-0.39062,0.10498
			c-0.02344-0.08643-0.05957-0.19238-0.10938-0.31738S103.09316,19.8697,103.03359,19.77009z"/>
		<path d="M106.12832,23.90485v-2.71484h0.375l0.04492,0.39502h0.00977c0.12988-0.13037,0.26758-0.24023,0.41309-0.33008
			c0.14453-0.09033,0.31055-0.13525,0.49707-0.13525c0.28711,0,0.49707,0.09082,0.62988,0.27246
			c0.13379,0.18213,0.2002,0.44629,0.2002,0.79248v1.72021h-0.45508V22.2447c0-0.25635-0.04102-0.44141-0.12207-0.55469
			c-0.08203-0.11328-0.21289-0.16992-0.39258-0.16992c-0.14062,0-0.26562,0.03467-0.375,0.10498
			c-0.11035,0.06982-0.23145,0.17334-0.36523,0.30957v1.97021H106.12832z"/>
		<path d="M108.94863,22.67975v-0.3501h1.28418v0.3501H108.94863z"/>
		<path d="M110.91348,23.90485v-2.71484h0.375l0.04492,0.49463h0.00977c0.09375-0.17285,0.20801-0.31055,0.34277-0.41211
			c0.13477-0.10205,0.27734-0.15283,0.42773-0.15283c0.06348,0,0.11719,0.00439,0.16211,0.0127s0.08789,0.02441,0.12793,0.04736
			l-0.08496,0.39502c-0.04688-0.01318-0.08887-0.02393-0.125-0.03223c-0.03711-0.0083-0.08398-0.0127-0.14062-0.0127
			c-0.10938,0-0.22754,0.04736-0.35449,0.14258c-0.12695,0.09473-0.23535,0.25732-0.3252,0.4873v1.74512H110.91348z"/>
	</g>
</g>
</svg>
