<?xml version="1.0" encoding="UTF-8" standalone="no"?>
<!-- Created with Inkscape (http://www.inkscape.org/) -->

<svg
   xmlns:dc="http://purl.org/dc/elements/1.1/"
   xmlns:cc="http://creativecommons.org/ns#"
   xmlns:rdf="http://www.w3.org/1999/02/22-rdf-syntax-ns#"
   xmlns:svg="http://www.w3.org/2000/svg"
   xmlns="http://www.w3.org/2000/svg"
   xmlns:sodipodi="http://sodipodi.sourceforge.net/DTD/sodipodi-0.dtd"
   xmlns:inkscape="http://www.inkscape.org/namespaces/inkscape"
   width="100"
   height="100"
   viewBox="0 0 26.458331 26.458333"
   version="1.1"
   id="svg8"
   inkscape:version="0.92.4 (5da689c313, 2019-01-14)"
   sodipodi:docname="BBC_News_2019.svg">
  <defs
     id="defs2">
    <inkscape:perspective
       inkscape:persp3d-origin="372.04721 : 350.78737 : 1"
       id="perspective10"
       inkscape:vp_z="744.09444 : 526.18106 : 1"
       inkscape:vp_y="0 : 999.99996 : 0"
       inkscape:vp_x="0 : 526.18106 : 1"
       sodipodi:type="inkscape:persp3d" />
    <inkscape:perspective
       inkscape:persp3d-origin="93.542992 : 18.537332 : 1"
       id="perspective2485"
       inkscape:vp_z="187.08599 : 27.805999 : 1"
       inkscape:vp_y="0 : 999.99996 : 0"
       inkscape:vp_x="0 : 27.805999 : 1"
       sodipodi:type="inkscape:persp3d" />
    <inkscape:perspective
       inkscape:persp3d-origin="372.04721 : 350.78737 : 1"
       id="perspective2546"
       inkscape:vp_z="744.09444 : 526.18106 : 1"
       inkscape:vp_y="0 : 999.99996 : 0"
       inkscape:vp_x="0 : 526.18106 : 1"
       sodipodi:type="inkscape:persp3d" />
    <inkscape:perspective
       inkscape:persp3d-origin="372.04721 : 350.78737 : 1"
       id="perspective2615"
       inkscape:vp_z="744.09444 : 526.18106 : 1"
       inkscape:vp_y="0 : 999.99996 : 0"
       inkscape:vp_x="0 : 526.18106 : 1"
       sodipodi:type="inkscape:persp3d" />
    <inkscape:perspective
       inkscape:persp3d-origin="372.04721 : 350.78737 : 1"
       id="perspective2461"
       inkscape:vp_z="744.09444 : 526.18106 : 1"
       inkscape:vp_y="0 : 999.99996 : 0"
       inkscape:vp_x="0 : 526.18106 : 1"
       sodipodi:type="inkscape:persp3d" />
    <inkscape:perspective
       inkscape:persp3d-origin="372.04721 : 350.78737 : 1"
       id="perspective2526"
       inkscape:vp_z="744.09444 : 526.18106 : 1"
       inkscape:vp_y="0 : 999.99996 : 0"
       inkscape:vp_x="0 : 526.18106 : 1"
       sodipodi:type="inkscape:persp3d" />
    <inkscape:perspective
       inkscape:persp3d-origin="372.04721 : 350.78737 : 1"
       id="perspective2576"
       inkscape:vp_z="744.09444 : 526.18106 : 1"
       inkscape:vp_y="0 : 999.99996 : 0"
       inkscape:vp_x="0 : 526.18106 : 1"
       sodipodi:type="inkscape:persp3d" />
    <inkscape:perspective
       inkscape:persp3d-origin="372.04721 : 350.78737 : 1"
       id="perspective2740"
       inkscape:vp_z="744.09444 : 526.18106 : 1"
       inkscape:vp_y="0 : 999.99996 : 0"
       inkscape:vp_x="0 : 526.18106 : 1"
       sodipodi:type="inkscape:persp3d" />
    <inkscape:perspective
       inkscape:persp3d-origin="372.04721 : 350.78737 : 1"
       id="perspective2950"
       inkscape:vp_z="744.09444 : 526.18106 : 1"
       inkscape:vp_y="0 : 999.99996 : 0"
       inkscape:vp_x="0 : 526.18106 : 1"
       sodipodi:type="inkscape:persp3d" />
    <inkscape:perspective
       inkscape:persp3d-origin="93.542992 : 18.537332 : 1"
       id="perspective2863"
       inkscape:vp_z="187.08599 : 27.805999 : 1"
       inkscape:vp_y="0 : 999.99996 : 0"
       inkscape:vp_x="0 : 27.805999 : 1"
       sodipodi:type="inkscape:persp3d" />
  </defs>
  <sodipodi:namedview
     id="base"
     pagecolor="#ffffff"
     bordercolor="#666666"
     borderopacity="1.0"
     inkscape:pageopacity="0.0"
     inkscape:pageshadow="2"
     inkscape:zoom="0.9899495"
     inkscape:cx="103.60527"
     inkscape:cy="-130.32398"
     inkscape:document-units="px"
     inkscape:current-layer="layer1"
     showgrid="false"
     units="px"
     fit-margin-top="0"
     fit-margin-left="0"
     fit-margin-right="0"
     fit-margin-bottom="0"
     inkscape:window-width="1920"
     inkscape:window-height="1017"
     inkscape:window-x="1912"
     inkscape:window-y="-6"
     inkscape:window-maximized="1">
    <inkscape:grid
       type="xygrid"
       id="grid21"
       originx="114.29999"
       originy="-70.908322" />
  </sodipodi:namedview>
  <metadata
     id="metadata5">
    <rdf:RDF>
      <cc:Work
         rdf:about="">
        <dc:format>image/svg+xml</dc:format>
        <dc:type
           rdf:resource="http://purl.org/dc/dcmitype/StillImage" />
        <dc:title></dc:title>
      </cc:Work>
    </rdf:RDF>
  </metadata>
  <g
     inkscape:label="Layer 1"
     inkscape:groupmode="layer"
     id="layer1"
     transform="translate(114.3,-199.63335)">
    <rect
       style="opacity:1;fill:#b90005;fill-opacity:1;stroke:none;stroke-width:0.01378038;stroke-linecap:round;stroke-miterlimit:4;stroke-dasharray:none;stroke-opacity:1"
       id="rect133"
       width="26.458332"
       height="26.458332"
       x="-114.3"
       y="199.63335" />
    <path
       id="path53"
       d="m -100.38905,210.21737 c 0,0.47553 -0.59197,0.44732 -0.59197,0.44732 h -0.59196 v -0.85929 h 0.59196 c 0.60903,-0.005 0.59197,0.41197 0.59197,0.41197 m -1.18393,-1.72245 h 0.45152 c 0.46858,0.0247 0.45021,0.37336 0.45021,0.37336 0,0.43324 -0.51715,0.4403 -0.51715,0.4403 h -0.38458 z m 1.07499,0.98264 c 0,0 0.40427,-0.17259 0.40164,-0.63041 0,0 0.0656,-0.75028 -0.93323,-0.8418 h -1.10255 v 3.14537 h 1.264 c 0,0 1.056609,0.003 1.056609,-0.88748 0,0 0.02626,-0.60609 -0.686469,-0.78568 m -2.85483,-2.08852 h 4.643853 v 4.37624 h -4.643853 z m -2.39149,2.82833 c 0,0.47553 -0.59197,0.44732 -0.59197,0.44732 h -0.59197 v -0.85929 h 0.59197 c 0.60903,-0.005 0.59197,0.41197 0.59197,0.41197 m -1.18394,-1.72245 h 0.45153 c 0.46858,0.0247 0.45021,0.37336 0.45021,0.37336 0,0.43324 -0.51715,0.4403 -0.51715,0.4403 h -0.38459 z m 1.075,0.98264 c 0,0 0.40426,-0.17259 0.40164,-0.63041 0,0 0.0656,-0.75028 -0.93323,-0.8418 h -1.10256 v 3.14537 h 1.264 c 0,0 1.05662,0.003 1.05662,-0.88748 0,0 0.0263,-0.60609 -0.68647,-0.78568 m -2.85483,-2.08852 h 4.64385 v 4.37624 h -4.64385 z m 14.406705,0.84181 v 0.58111 c 0,0 -0.567028,-0.34858 -1.193122,-0.3556 0,0 -1.169494,-0.0229 -1.221997,1.12096 0,0 -0.03938,1.05198 1.207559,1.11193 0,0 0.525026,0.0632 1.236436,-0.39063 v 0.60182 c 0,0 -0.955547,0.56718 -2.060726,0.13034 0,0 -0.929295,-0.33948 -0.964735,-1.45345 0,0 -0.03937,-1.14574 1.200997,-1.52607 0,0 0.330766,-0.12675 0.925357,-0.0704 0,-2e-5 0.355705,0.0352 0.870231,0.25003 m -3.696182,3.53442 h 4.643853 v -4.37624 h -4.643853 z"
       inkscape:connector-curvature="0"
       style="fill:#ffffff;stroke-width:0.01535452" />
    <g
       aria-label="NEWS"
       transform="matrix(0.16997418,0,0,0.16997418,-135.15529,79.093968)"
       style="font-style:normal;font-weight:normal;font-size:40px;line-height:1.25;font-family:sans-serif;letter-spacing:0px;word-spacing:0px;fill:#ffffff;fill-opacity:1;stroke:none"
       id="flowRoot73">
      <path
         d="m 162.28,819.01274 q -2.28,-3.56 -4.68,-7.2 -2.36,-3.64 -4.72,-7.2 -2.36,-3.56 -4.68,-6.92 v 21.32 h -4.88 v -28.6 h 5.12 q 3.6,5.2 7.08,10.48 3.52,5.28 7,10.72 v -21.2 h 4.88 v 28.6 z"
         style="font-style:normal;font-variant:normal;font-weight:500;font-stretch:normal;font-family:'BBC Reith Sans';-inkscape-font-specification:'BBC Reith Sans Medium';fill:#ffffff"
         id="path81"
         inkscape:connector-curvature="0" />
      <path
         d="m 174.02312,790.41274 h 19.12 v 4.28 h -14.04 v 7.4 h 12.52001 v 4.28 h -12.52001 v 8.36 h 14.8 v 4.28 h -19.88 z"
         style="font-style:normal;font-variant:normal;font-weight:500;font-stretch:normal;font-family:'BBC Reith Sans';-inkscape-font-specification:'BBC Reith Sans Medium';fill:#ffffff"
         id="path83"
         inkscape:connector-curvature="0" />
      <path
         d="m 221.55858,819.01274 q -1.48,-5.12 -2.92,-10.28 -1.44,-5.16 -2.8,-10.32 -1.36,5.12 -2.8,10.32 -1.4,5.16 -2.88,10.28 h -5.36 q -2.12,-7 -4.04,-14.16 -1.92,-7.16 -3.64,-14.44 h 5.48 q 1.16,5.84 2.44,11.72 1.32,5.84 2.76,11.44 1.52,-5.52 2.92,-11 1.44,-5.48 2.76,-10.96 h 5 q 1.32,5.44 2.72,10.84 1.4,5.4 2.88,10.8 1.44,-5.56 2.72,-11.32 1.28,-5.76 2.44,-11.52 h 5.36 q -1.76,7.28 -3.68,14.44 -1.92,7.16 -4,14.16 z"
         style="font-style:normal;font-variant:normal;font-weight:500;font-stretch:normal;font-family:'BBC Reith Sans';-inkscape-font-specification:'BBC Reith Sans Medium';fill:#ffffff"
         id="path85"
         inkscape:connector-curvature="0" />
      <path
         d="m 246.36907,819.61274 q -2.32,0 -4.6,-0.52 -2.28,-0.52 -4.28,-1.6 v -4.64 q 4.12,2.56 8.96,2.56 3,0 4.6,-1.12 1.64,-1.12 1.64,-3.08 0,-1.12 -0.48,-1.84 -0.47999,-0.76 -1.32,-1.24 -0.8,-0.52 -1.88,-0.84 -1.04,-0.32 -2.2,-0.6 -2.12,-0.52 -3.88,-1.16 -1.72,-0.68 -3,-1.6 -1.24,-0.92 -1.92,-2.28 -0.68,-1.36 -0.68,-3.32 0,-2.64 1.32,-4.52 1.32,-1.92 3.76,-2.96 2.44,-1.04 5.8,-1.04 2.2,0 4.36,0.52 2.16001,0.52 3.84,1.4 v 4.52 q -1.6,-1 -3.76,-1.6 -2.12,-0.64 -4.52,-0.64 -2.72,0 -4.24,1.04 -1.52,1 -1.52,2.88 0,1.36 0.72,2.16 0.72,0.76 2.04,1.24 1.32,0.44 3.08,0.88 1.92,0.48 3.64,1.08 1.76,0.6 3.08,1.56 1.36001,0.92 2.12,2.36 0.76,1.44 0.76,3.6 0,2.76 -1.36,4.72 -1.36,1.96 -3.96,3.04 -2.56,1.04 -6.12,1.04 z"
         style="font-style:normal;font-variant:normal;font-weight:500;font-stretch:normal;font-family:'BBC Reith Sans';-inkscape-font-specification:'BBC Reith Sans Medium';fill:#ffffff"
         id="path87"
         inkscape:connector-curvature="0" />
    </g>
  </g>
</svg>
