<?xml version="1.0" encoding="utf-8"?>
<!-- Generator: Adobe Illustrator 24.2.1, SVG Export Plug-In . SVG Version: 6.00 Build 0)  -->
<svg version="1.1" id="Õ_1" xmlns="http://www.w3.org/2000/svg" xmlns:xlink="http://www.w3.org/1999/xlink" x="0px" y="0px"
	 viewBox="0 0 268 160" style="enable-background:new 0 0 268 160;" xml:space="preserve">
<style type="text/css">
	.st0{fill:#005BAA;}
</style>
<g>
	<path class="st0" d="M93,39.2c-22.4,22.3-22.4,58.6,0,80.9s58.6,22.4,80.9,0c22.4-22.3,22.4-58.6,0-80.9
		c-10.7-10.7-25.3-16.8-40.5-16.8C118.3,22.4,103.7,28.5,93,39.2z M78.9,79.7c0-30.1,24.4-54.5,54.5-54.5S188,49.6,188,79.7
		c0,30.1-24.4,54.5-54.5,54.5c0,0,0,0,0,0c-29.9,0.2-54.3-23.9-54.5-53.8C78.9,80.2,78.9,79.9,78.9,79.7z"/>
	<path class="st0" d="M54.5,80c0,43.8,35.6,79.5,79.5,79.5s79.5-35.6,79.5-79.5S177.8,0.5,134,0.5S54.5,36.2,54.5,80z M58.6,80
		c0-41.6,33.8-75.4,75.4-75.4s75.4,33.9,75.4,75.4s-33.8,75.4-75.4,75.4S58.6,121.6,58.6,80z"/>
	<path class="st0" d="M76.1,123.8l-3.2-4.9c-0.5-0.7-0.7-1.5-0.6-2.3c0.1-0.7,0.5-1.3,1.1-1.6c0.5-0.3,1-0.5,1.6-0.4
		c0.4,0.1,0.8,0.3,1.2,0.5c-0.2-0.6-0.3-1.2-0.1-1.8c0.2-0.6,0.6-1,1.1-1.3c0.4-0.3,0.9-0.4,1.4-0.5c0.5,0,1,0.1,1.4,0.3
		c0.4,0.2,0.7,0.5,0.9,0.8c0.5,0.5,0.8,0.9,0.9,1.1l3,4.5L76.1,123.8z M77.7,118.9l-0.7-1.1c-0.2-0.3-0.4-0.6-0.8-0.7
		c-0.3-0.1-0.6,0-0.8,0.2c-0.2,0.1-0.4,0.4-0.4,0.6c0,0.4,0.1,0.7,0.4,1l0.8,1.2L77.7,118.9z M81.1,116.7l-0.9-1.3
		c-0.2-0.4-0.5-0.6-0.9-0.8c-0.3-0.1-0.6,0-0.8,0.1c-0.2,0.1-0.4,0.4-0.4,0.7c0,0.4,0.1,0.8,0.4,1.1l0.9,1.3L81.1,116.7z"/>
	<path class="st0" d="M68.7,111.4l-3.2-7.8l2-0.8l2,4.9L71,107l-1.8-4.5l1.9-0.8l1.8,4.5l1.9-0.7l-2.1-5l2.2-0.9l3.2,7.9L68.7,111.4
		z"/>
	<path class="st0" d="M64.2,98.9l-0.7-3.1l9.9-2.4l0.7,3.1L64.2,98.9z"/>
	<path class="st0" d="M62.1,86.5l-0.3-3.1l5.5-0.5c0.9-0.1,1.8-0.1,2.7,0.1c0.7,0.2,1.2,0.6,1.7,1.1c0.5,0.7,0.8,1.5,0.9,2.3
		c0.1,0.8,0,1.6-0.2,2.4c-0.2,0.6-0.6,1.1-1.1,1.4c-0.6,0.4-1.2,0.6-1.9,0.7l-0.7-3c0.3,0,0.7-0.1,1-0.2c0.2-0.1,0.4-0.2,0.5-0.4
		c0.1-0.2,0.1-0.3,0.1-0.5c0-0.3-0.2-0.6-0.5-0.7c-0.4-0.2-0.9-0.2-1.3-0.1L62.1,86.5z"/>
	<path class="st0" d="M61.8,78.3l0.2-3.1l10.2,0.5L72,78.8L61.8,78.3z"/>
	<path class="st0" d="M62.5,69.7l0.6-2.9l6.3-2.5l-5.5-1.2l0.6-2.9l9.9,2.2l-0.6,2.9l-6.3,2.5L73,69l-0.6,2.9L62.5,69.7z"/>
	<path class="st0" d="M74.4,52.9L72.5,52l2-4.4l3.9,1.8c0.2,0.9,0.2,1.8,0.1,2.8c-0.1,0.8-0.4,1.7-0.8,2.4c-0.4,0.9-1,1.8-1.8,2.4
		c-0.7,0.5-1.5,0.8-2.4,0.8c-1,0-1.9-0.2-2.8-0.6c-0.9-0.4-1.7-1-2.3-1.8c-0.5-0.8-0.8-1.7-0.9-2.6c0-1,0.3-1.9,0.7-2.7
		c0.3-0.8,0.8-1.5,1.3-2.2c0.4-0.4,0.9-0.7,1.4-0.9c0.6-0.2,1.2-0.2,1.8-0.1l-0.8,3c-0.4-0.1-0.7,0-1.1,0.2
		c-0.3,0.2-0.6,0.5-0.8,0.9c-0.3,0.6-0.3,1.2,0,1.8c0.4,0.7,1,1.2,1.8,1.5c1,0.5,1.8,0.6,2.4,0.4c0.6-0.2,1.1-0.7,1.4-1.3
		c0.1-0.3,0.2-0.6,0.3-1c0-0.4,0-0.8,0-1.2L75.3,51L74.4,52.9z"/>
	<path class="st0" d="M77.6,35.2l2-2.2l6.7,1l-4.1-3.8l2-2.2l7.5,6.9l-2,2.2l-6.7-1l4.1,3.8l-2,2.2L77.6,35.2z"/>
	<path class="st0" d="M91.1,28.7c-0.9-1.1-1.3-2.6-1.1-4c0.2-1.3,1-2.4,2.4-3.3c1.3-0.9,2.7-1.3,4-1.1c1.3,0.2,2.4,1,3.3,2.3
		c0.6,0.8,1,1.7,1.2,2.7c0.1,0.8,0,1.7-0.4,2.4c-0.5,0.9-1.1,1.6-2,2.1c-0.8,0.6-1.7,1-2.6,1.2c-0.8,0.1-1.7,0-2.5-0.4
		C92.5,30.3,91.7,29.6,91.1,28.7z M93.7,26.9c0.4,0.7,1,1.2,1.7,1.5c0.6,0.1,1.2,0,1.7-0.3c0.5-0.3,0.8-0.8,0.9-1.4
		c0.1-0.6-0.2-1.3-0.9-2.3c-0.4-0.6-1-1.1-1.7-1.4c-0.6-0.1-1.2,0-1.7,0.4c-0.5,0.3-0.8,0.8-0.9,1.4C92.8,25.4,93.1,26.1,93.7,26.9
		L93.7,26.9z"/>
	<path class="st0" d="M105.5,25.4l-4-9.4l4.8-2.1c0.7-0.3,1.4-0.5,2.1-0.6c0.5,0,1.1,0.1,1.5,0.4c0.9,0.6,1.4,1.7,1.3,2.8
		c-0.1,0.5-0.2,0.9-0.5,1.3c-0.2,0.3-0.5,0.6-0.8,0.8c0.3,0,0.6,0,0.9,0c0.2,0.1,0.5,0.2,0.7,0.3c0.2,0.1,0.5,0.2,0.7,0.4l2.5,2.1
		l-3.3,1.4l-2.8-2.2c-0.2-0.2-0.5-0.4-0.8-0.5c-0.3-0.1-0.5,0-0.8,0.1l-0.3,0.1l1.6,3.8L105.5,25.4z M106,18.6l1.2-0.5
		c0.3-0.1,0.5-0.3,0.7-0.4c0.2-0.1,0.3-0.3,0.4-0.5c0.1-0.2,0-0.4-0.1-0.6c-0.1-0.3-0.3-0.5-0.6-0.6c-0.4-0.1-0.8,0-1.2,0.2
		l-1.3,0.5L106,18.6z"/>
	<path class="st0" d="M115.2,10.8l4.1-0.8l2.7,5.8l0.4-6.4l4-0.7l1.9,10l-2.5,0.5l-1.4-7.6l-0.5,8l-2.3,0.4l-3.4-7.3l1.4,7.6
		l-2.5,0.5L115.2,10.8z"/>
	<path class="st0" d="M138,17.2l-3.6-0.1l-0.6,1.7l-3.2-0.1l4.2-10l3.4,0.1l3.4,10.3l-3.3-0.1L138,17.2z M137.5,14.9l-1-3.7
		l-1.3,3.6L137.5,14.9z"/>
	<path class="st0" d="M146.5,9.6l3.1,0.7l-1.7,7.5l4.8,1.1l-0.6,2.4l-7.8-1.8L146.5,9.6z"/>
	<path class="st0" d="M171.3,19.1l2.7,1.6l-3,5.2c-0.3,0.5-0.7,1-1.1,1.3c-0.4,0.4-0.9,0.6-1.5,0.8c-0.5,0.1-1,0.2-1.5,0.1
		c-0.7-0.1-1.4-0.4-2.1-0.8c-0.4-0.3-0.9-0.5-1.4-0.9c-0.4-0.3-0.8-0.7-1.1-1.1c-0.3-0.4-0.4-0.8-0.5-1.3c-0.1-0.4-0.1-0.9,0-1.3
		c0.1-0.6,0.3-1.1,0.6-1.6l3-5.3l2.7,1.5l-3.1,5.4c-0.3,0.4-0.3,0.9-0.2,1.4c0.1,0.4,0.5,0.8,0.9,1c0.4,0.3,0.9,0.3,1.3,0.2
		c0.5-0.2,0.8-0.5,1.1-0.9L171.3,19.1z"/>
	<path class="st0" d="M178.6,24l2.2,2l-1,6.7l3.8-4.2l2.2,2l-6.8,7.5l-2.2-2l0.9-6.7l-3.8,4.1l-2.2-2L178.6,24z"/>
	<path class="st0" d="M189.2,34.6l1.9,2.5l-8,6.3l-2-2.5L189.2,34.6z"/>
	<path class="st0" d="M193.8,40.5l1.6,2.9l-5.3,5.6l7.5-1.6l1.5,2.8l-10.7,1.7l-1.7-3L193.8,40.5z"/>
	<path class="st0" d="M200.8,54.2l2.6,8l-2.1,0.7l-1.7-5l-1.5,0.5l1.5,4.6l-2,0.6l-1.5-4.6l-1.9,0.6l1.7,5.2l-2.2,0.7l-2.7-8.1
		L200.8,54.2z"/>
	<path class="st0" d="M194.5,68.7l10.1-1.2l0.6,5.2c0.1,0.7,0.1,1.5,0,2.2c-0.1,0.5-0.4,1-0.8,1.3c-0.4,0.4-1,0.6-1.6,0.7
		c-0.5,0.1-1,0-1.5-0.2c-0.4-0.2-0.8-0.5-1.1-0.9c-0.2-0.3-0.4-0.7-0.5-1c-0.1,0.3-0.1,0.6-0.3,0.9c-0.1,0.2-0.3,0.4-0.5,0.6
		c-0.2,0.2-0.4,0.4-0.6,0.5l-2.7,1.9l-0.4-3.5l2.9-2c0.3-0.2,0.5-0.4,0.7-0.7c0.1-0.2,0.2-0.5,0.1-0.8l0-0.3l-4.1,0.5L194.5,68.7z
		 M200.9,71.1l0.2,1.3c0.1,0.3,0.1,0.5,0.2,0.8c0.1,0.2,0.2,0.4,0.4,0.5c0.2,0.1,0.4,0.2,0.6,0.1c0.3,0,0.5-0.2,0.7-0.4
		c0.2-0.4,0.2-0.8,0.1-1.2l-0.2-1.4L200.9,71.1z"/>
	<path class="st0" d="M199,80.8l0,3c-0.4,0-0.8,0.1-1.1,0.3c-0.4,0.3-0.7,0.8-0.7,1.3c-0.1,0.4,0,0.7,0.2,1.1
		c0.3,0.4,0.8,0.6,1.2,0.3c0.1,0,0.1-0.1,0.2-0.2c0.4-0.5,0.6-1,0.7-1.5c0.2-1.1,0.7-2,1.5-2.8c0.5-0.5,1.3-0.8,2-0.7
		c0.5,0,1,0.2,1.4,0.6c0.5,0.4,0.8,0.9,1,1.4c0.2,0.8,0.3,1.7,0.2,2.5c0,1-0.3,2.1-0.9,2.9c-0.6,0.7-1.5,1.1-2.4,1l0.1-3
		c0.4,0,0.7-0.2,1-0.4c0.2-0.3,0.4-0.7,0.4-1c0-0.3,0-0.6-0.2-0.8c-0.1-0.2-0.3-0.3-0.5-0.3c-0.2,0-0.3,0.1-0.5,0.2
		c-0.2,0.3-0.4,0.7-0.5,1c-0.3,1-0.6,2-1.1,2.9c-0.3,0.5-0.7,0.9-1.2,1.2c-0.5,0.2-1,0.3-1.5,0.3c-0.6,0-1.3-0.3-1.8-0.7
		c-0.5-0.4-0.9-1-1.1-1.6c-0.3-0.8-0.3-1.6-0.2-2.5c0.1-1.7,0.5-2.9,1.3-3.5C197.1,81.1,198.1,80.7,199,80.8z"/>
	<path class="st0" d="M204.2,95.1l-0.7,3.1l-9.9-2.3l0.7-3.1L204.2,95.1z"/>
	<path class="st0" d="M202.4,102.5l-3.5,8.9l-2.3-0.9l1.2-3l-7.1-2.8l1.2-2.9l7.1,2.8l1.2-3L202.4,102.5z"/>
	<path class="st0" d="M197.2,114.8l-1.9,2.9l-4-0.1l1.8,3.6l-1.9,2.9l-2.8-6.5l-3.6-2.3l1.7-2.6l3.6,2.3L197.2,114.8z"/>
	<path class="st0" d="M119.5,139.5c-0.5,3.5-1,7-1.5,10.5c-1.1-0.2-2.2-0.3-3.2-0.5c0.4-2.3,0.8-4.6,1.2-6.8c-0.5,0.3-1,0.5-1.6,0.6
		c-0.6,0.1-1.2,0.2-1.8,0.3c0.2-0.8,0.3-1.5,0.5-2.3c0.9-0.1,1.7-0.3,2.5-0.7c0.6-0.3,1.2-0.8,1.5-1.4
		C117.9,139.3,118.7,139.4,119.5,139.5z"/>
	<path class="st0" d="M123.4,148.3c1,0,2.1-0.1,3.1-0.1c0,0.3,0.2,0.6,0.4,0.9c0.2,0.2,0.4,0.3,0.7,0.3c0.5,0,1-0.2,1.2-0.6
		c0.3-0.7,0.5-1.4,0.6-2.2c-0.3,0.3-0.7,0.6-1.2,0.7c-1.4,0.4-2.9,0-3.8-1c-0.6-0.7-0.9-1.7-0.8-2.6c0.1-0.7,0.3-1.3,0.7-1.8
		c0.4-0.5,0.9-0.9,1.5-1.2c0.7-0.3,1.5-0.4,2.2-0.3c0.9,0,1.7,0.2,2.5,0.7c0.7,0.4,1.2,1,1.5,1.8c0.4,1,0.6,2,0.5,3.1
		c0,1.9-0.5,3.3-1.4,4.1c-1,0.9-2.4,1.3-3.7,1.1c-0.7,0-1.5-0.2-2.1-0.4c-0.5-0.2-0.9-0.5-1.2-1
		C123.7,149.4,123.5,148.9,123.4,148.3z M129.4,144.1c0-0.5-0.1-1-0.4-1.3c-0.2-0.3-0.6-0.5-1-0.5c-0.4,0-0.7,0.1-1,0.4
		c-0.3,0.4-0.5,0.8-0.5,1.3c-0.1,0.5,0,1,0.3,1.4c0.3,0.3,0.6,0.5,1,0.5c0.4,0,0.8-0.1,1.1-0.4C129.2,145,129.4,144.6,129.4,144.1
		L129.4,144.1z"/>
	<path class="st0" d="M135.4,145.9c0-2,0.3-3.4,1-4.2c0.7-0.8,1.8-1.2,3.3-1.3c0.6-0.1,1.2,0,1.8,0.1c0.4,0.1,0.8,0.3,1.2,0.6
		c0.3,0.2,0.5,0.5,0.8,0.8c0.2,0.3,0.4,0.7,0.5,1c0.3,0.8,0.4,1.6,0.5,2.4c0.2,1.9,0,3.3-0.7,4.2s-1.8,1.5-3.6,1.5
		c-0.8,0.1-1.6,0-2.4-0.3c-0.6-0.3-1.1-0.7-1.5-1.2c-0.3-0.5-0.5-1-0.7-1.5C135.4,147.4,135.4,146.7,135.4,145.9z M138.4,145.9
		c0.1,1.3,0.2,2.2,0.5,2.7c0.2,0.4,0.7,0.7,1.1,0.7c0.3,0,0.6-0.1,0.8-0.4c0.3-0.3,0.4-0.6,0.5-1c0.1-0.7,0.1-1.4,0-2.1
		c-0.1-1.4-0.3-2.3-0.5-2.8c-0.2-0.4-0.7-0.7-1.1-0.7c-0.5,0-0.9,0.3-1,0.8C138.4,144.1,138.3,145,138.4,145.9L138.4,145.9z"/>
	<path class="st0" d="M157.1,148.9c-3.2,0.7-6.3,1.2-9.5,1.5c0-0.9,0.3-1.8,0.7-2.5c0.7-1.1,1.6-2.2,2.6-3.1
		c0.6-0.5,1.1-1.1,1.5-1.7c0.2-0.3,0.2-0.6,0.2-1c-0.1-0.3-0.2-0.6-0.5-0.7c-0.6-0.4-1.4-0.2-1.8,0.3c-0.2,0.4-0.3,0.8-0.3,1.3
		c-1,0.1-2,0.1-3,0.2c0-0.7,0.1-1.4,0.4-2c0.3-0.5,0.7-0.9,1.1-1.2c0.7-0.4,1.5-0.6,2.2-0.7c0.8-0.2,1.6-0.2,2.4-0.1
		c0.6,0.1,1.1,0.4,1.5,0.8c0.4,0.4,0.7,0.9,0.8,1.5c0.1,0.6,0.1,1.3-0.2,1.9c-0.4,0.9-1,1.6-1.8,2.3c-0.5,0.5-0.9,0.9-1.1,1
		s-0.4,0.4-0.6,0.7c1.6-0.3,3.2-0.6,4.9-0.9C156.8,147.3,156.9,148.1,157.1,148.9z"/>
	<path class="st0" d="M144.5,66.6l-2.2,0.4c-0.6,0.1-0.7,0.4-0.7,0.6v1.1c0,0.3,0.1,0.6,0.2,0.7c0.1,0.1,0.2,0.1,0.4,0l1.8-0.4
		c0.4-0.2,0.5-0.4,0.5-0.6v-0.6c0-0.1-0.1-0.3-0.2-0.4c-0.1-0.1-0.3-0.1-0.5,0l-1.3,0.3c-0.1,0-0.2,0.1-0.1,0.2v0.6
		c0,0.1,0,0.1,0.1,0.2c0,0,0.1,0.1,0.2,0l0.9-0.2c0.1,0,0.1-0.2,0.1-0.3c0-0.1-0.1-0.1-0.2-0.1l-0.6,0.2v-0.2l1.2-0.2
		c0,0,0.1,0,0.1,0l0,0v0.1v0.6c0,0,0,0.1-0.2,0.2l-1.8,0.4c0,0-0.1,0-0.1-0.3v-1.2c0-0.1,0.1-0.2,0.4-0.2l2.2-0.4c0.1,0,0.1,0,0.2,0
		c0.1,0.1,0.1,0.2,0.1,0.3v1.5l0,0c0,0.1,0,0.2-0.4,0.3l-2.3,0.5c-0.1,0-0.3,0-0.4,0.1c-0.1,0.1-0.2,0.3-0.2,0.5v1.9
		c0,0.2,0.1,0.3,0.2,0.4c0.2,0.1,0.4,0.2,0.6,0.1l2.3-0.5c0.3,0,0.6-0.3,0.6-0.6v-1.2c0-0.1-0.1-0.3-0.2-0.4
		c-0.2-0.1-0.4-0.2-0.6-0.1l-1.6,0.4c-0.3,0-0.5,0.3-0.5,0.5c0,0,0,0,0,0v0.6c0,0.1,0.1,0.3,0.2,0.4c0.1,0.1,0.3,0.1,0.5,0.1
		l1.2-0.3c0.1,0,0.1-0.1,0.1-0.2l-0.1-0.6c0-0.1,0-0.1-0.1-0.1c-0.1,0-0.1,0-0.2,0l-0.5,0.2c-0.1,0-0.2,0.1-0.1,0.2c0,0,0,0,0,0
		c0,0.1,0.1,0.2,0.2,0.1c0,0,0.2-0.1,0.3-0.1c0,0.1,0,0.1,0,0.2l-1,0.3c-0.2,0-0.2,0-0.2-0.1v-0.6c0-0.1,0.1-0.2,0.2-0.2l1.6-0.4
		c0.1,0,0.2,0,0.3,0c0,0,0,0,0,0.1v1.2c0,0.1-0.1,0.2-0.2,0.3c0,0,0,0,0,0l-2.3,0.5c-0.1,0-0.2,0-0.2,0c0,0,0-0.1,0-0.1v-1.9
		c0-0.1,0-0.1,0-0.2c0,0,0.1,0,0.1,0c0,0,0,0,0.1,0l2.3-0.5c0.7-0.3,0.6-0.7,0.6-0.8v-1.6c0-0.2-0.1-0.5-0.3-0.7
		C144.8,66.6,144.7,66.6,144.5,66.6z M142.2,69.8L142.2,69.8z"/>
	<path class="st0" d="M148.7,65.7l-2.2,0.4c-0.6,0.1-0.7,0.4-0.7,0.6v1.1c0,0.3,0.1,0.6,0.2,0.7c0.1,0.1,0.2,0.1,0.4,0l1.8-0.4
		c0.4-0.2,0.5-0.4,0.5-0.6l0-0.6c0-0.1-0.1-0.3-0.2-0.4c-0.1-0.1-0.3-0.1-0.4,0l-1.3,0.2c-0.1,0-0.1,0.1-0.1,0.2v0.6
		c0,0.1,0,0.1,0.1,0.1c0,0,0.1,0.1,0.2,0l0.9-0.2c0.1,0,0.2-0.1,0.1-0.2c0,0,0,0,0,0c0-0.1-0.1-0.2-0.2-0.1l-0.6,0.2v-0.2l1.2-0.2
		c0,0,0.1,0,0.1,0l0,0c0,0,0,0,0,0.1v0.6c0,0,0,0.1-0.2,0.2l-1.8,0.4c0,0-0.1-0.1-0.1-0.3v-1.2c0-0.1,0.1-0.2,0.4-0.2l2.2-0.4
		c0,0,0.1,0,0.2,0c0.1,0,0.1,0.2,0.1,0.4V68c0,0.1,0,0.2-0.4,0.3l-2.3,0.5c-0.1,0-0.3,0-0.4,0.1c-0.1,0.1-0.2,0.3-0.2,0.5v1.9
		c0,0.2,0.1,0.3,0.2,0.4c0.2,0.1,0.4,0.2,0.6,0.1l2.3-0.5c0.3,0,0.6-0.3,0.6-0.6v-1.2c0-0.1-0.1-0.3-0.2-0.4
		c-0.2-0.1-0.4-0.2-0.6-0.1l-1.6,0.4c-0.3,0-0.5,0.3-0.5,0.5c0,0,0,0,0,0v0.6c0,0.1,0.1,0.3,0.2,0.3c0.1,0.1,0.3,0.1,0.5,0.1
		l1.2-0.3c0.1,0,0.2-0.1,0.1-0.2l-0.1-0.6c0-0.1,0-0.1-0.1-0.1c-0.1,0-0.1,0-0.2,0l-0.5,0.1c-0.1,0-0.2,0.1-0.1,0.2
		c0,0.1,0.1,0.2,0.2,0.1c0,0,0.2-0.1,0.3-0.1c0,0.1,0,0.1,0,0.2c-0.2,0.1-1,0.3-1,0.3c-0.2,0-0.2,0-0.2-0.1v-0.5
		c0-0.1,0.1-0.2,0.1-0.2c0,0,0,0,0,0l1.6-0.4c0.1,0,0.2,0,0.3,0c0,0,0,0,0,0.1v1.1c0,0.1-0.1,0.2-0.2,0.3c0,0,0,0,0,0l-2.3,0.5
		c-0.1,0-0.2,0-0.2,0c0,0,0-0.1,0-0.1v-1.9c0-0.1,0-0.1,0-0.2c0,0,0.1,0,0.1,0h0.1l2.3-0.5c0.7-0.2,0.6-0.7,0.6-0.8v-1.5
		c0-0.3-0.1-0.5-0.3-0.7C149.1,65.7,148.9,65.6,148.7,65.7z M146.5,68.8L146.5,68.8z"/>
	<path class="st0" d="M152.9,64.3l-2.2,0.7c-0.7,0.2-0.6,0.7-0.6,0.7v1.1c0,0.3,0.1,0.6,0.2,0.7c0.1,0.1,0.3,0.1,0.4,0l1.8-0.7
		c0.5-0.2,0.5-0.6,0.5-0.6v-0.6c0-0.1-0.1-0.3-0.2-0.4c-0.1-0.1-0.3-0.1-0.5,0l-1.3,0.4c-0.1,0-0.1,0.1-0.1,0.2v0.6
		c0,0.1,0,0.1,0.1,0.2c0.1,0,0.1,0,0.2,0l0.9-0.3c0.1,0,0.2-0.2,0.1-0.3c0-0.1-0.1-0.1-0.2-0.1c0,0,0,0,0,0l-0.6,0.2V66l1.2-0.4h0.1
		v0v0.6c0,0,0,0.1-0.3,0.3l-1.8,0.7h0c0-0.1,0-0.2,0-0.3v-1.2c0,0,0-0.2,0.4-0.3l2.2-0.7c0.1,0,0.1,0,0.2,0c0,0,0.1,0.1,0.1,0.3v1.6
		c0,0.1,0,0.2-0.4,0.4c0,0-2.3,0.8-2.3,0.8c-0.1,0-0.3,0.1-0.3,0.2c-0.1,0.1-0.2,0.3-0.2,0.4v1.9c0,0.1,0.1,0.3,0.2,0.4
		c0.2,0.1,0.4,0.1,0.6,0l2.3-0.9c0.3-0.1,0.5-0.3,0.6-0.7V68c0-0.1-0.1-0.3-0.2-0.3c-0.2-0.1-0.5-0.1-0.7,0l-1.6,0.6
		c-0.3,0.1-0.5,0.3-0.4,0.6v0.6c0,0.1,0.1,0.3,0.2,0.3c0.2,0.1,0.4,0.1,0.5,0l1.2-0.5c0.1,0,0.1-0.1,0.1-0.2l-0.1-0.6
		c0-0.1,0-0.1-0.1-0.1c-0.1,0-0.1,0-0.2,0l-0.5,0.2c-0.1,0-0.1,0.2-0.1,0.2c0,0.1,0.2,0.1,0.3,0.1l0.3-0.1c0,0.1,0,0.1,0,0.2
		l-1.1,0.4c-0.1,0-0.1,0-0.2,0l0-0.1v-0.5c0-0.1,0.1-0.2,0.2-0.2l1.6-0.7c0.2-0.1,0.3,0,0.3,0c0,0,0,0,0,0v1.2
		c0,0.2-0.1,0.3-0.3,0.3l-2.3,0.9c-0.1,0-0.2,0-0.2,0c0,0,0-0.1,0-0.1v-1.9c0-0.2,0.1-0.3,0.2-0.3c0,0,0,0,0.1,0l2.3-0.9
		c0.7-0.3,0.6-0.8,0.6-0.8V65c0-0.2-0.1-0.5-0.3-0.6C153.2,64.3,153.1,64.3,152.9,64.3z"/>
	<path class="st0" d="M145.3,80.2l-2.2,0.4c-0.6,0.1-0.7,0.4-0.7,0.6v1.1c0,0.2,0,0.5,0.2,0.7c0.1,0.1,0.3,0.1,0.4,0l1.8-0.4
		c0.4-0.2,0.5-0.4,0.5-0.6v-0.6c0-0.1-0.1-0.3-0.2-0.4c-0.1-0.1-0.3-0.1-0.4-0.1l-1.3,0.3c-0.1,0-0.2,0.1-0.1,0.2v0.6
		c0,0.1,0,0.1,0.1,0.2c0,0,0.1,0,0.2,0l0.9-0.2c0.1,0,0.2-0.1,0.1-0.2c0,0,0,0,0,0c0-0.1-0.1-0.2-0.2-0.2c0,0,0,0,0,0l-0.6,0.2v-0.2
		l1.2-0.2c0,0,0.1,0,0.1,0l0,0c0,0,0,0,0,0.1v0.6c0,0,0,0.1-0.2,0.2l-1.8,0.4c0,0-0.1,0-0.1-0.3v-1.2c0-0.1,0.1-0.2,0.4-0.2l2.2-0.4
		c0.1,0,0.1,0,0.2,0c0.1,0.1,0.1,0.2,0.1,0.3v1.6c0,0.1,0,0.2-0.4,0.3l-2.3,0.5c-0.1,0-0.3,0-0.4,0.1c-0.1,0.1-0.2,0.3-0.2,0.5v1.9
		c0,0.2,0.1,0.3,0.2,0.4c0.2,0.1,0.4,0.2,0.6,0.1l2.3-0.5c0.3,0,0.6-0.3,0.6-0.6V84c0-0.1-0.1-0.3-0.2-0.4c-0.2-0.1-0.4-0.2-0.6-0.1
		l-1.6,0.4c-0.3,0-0.5,0.3-0.5,0.6v0.6c0,0.1,0.1,0.3,0.2,0.4c0.2,0.1,0.3,0.1,0.5,0.1l1.2-0.3c0.1,0,0.1-0.1,0.1-0.2l0-0.6
		c0-0.1,0-0.1-0.1-0.1c-0.1,0-0.1,0-0.2,0l-0.5,0.1c-0.1,0-0.2,0.1-0.1,0.2c0,0.1,0.1,0.2,0.2,0.1l0.3-0.1c0,0.1,0,0.1,0,0.2l-1,0.3
		c-0.2,0-0.2,0-0.2-0.1v-0.6c0-0.1,0.1-0.2,0.2-0.2c0,0,0,0,0,0l1.6-0.4c0.2,0,0.3,0,0.3,0c0,0,0,0,0,0.1v1.2c0,0.1-0.1,0.2-0.2,0.3
		c0,0,0,0,0,0l-2.3,0.5c-0.1,0-0.2,0-0.2,0c0,0,0-0.1,0-0.1V84c0-0.1,0-0.1,0-0.2c0,0,0.1,0,0.1,0h0.1l2.3-0.5
		c0.7-0.2,0.6-0.7,0.6-0.8V81c0-0.3-0.1-0.5-0.3-0.7C145.7,80.2,145.5,80.1,145.3,80.2z M143.1,83.3L143.1,83.3z"/>
	<path class="st0" d="M149.5,79.3l-2.2,0.4c-0.6,0.1-0.7,0.4-0.7,0.6v1.1c0,0.3,0.1,0.6,0.2,0.7c0.1,0.1,0.3,0.1,0.4,0l1.8-0.4
		c0.4-0.2,0.5-0.4,0.5-0.6v-0.6c0-0.1-0.1-0.3-0.2-0.4c-0.1-0.1-0.3-0.1-0.4,0l-1.3,0.3c-0.1,0-0.2,0.1-0.2,0.2v0.6
		c0,0.1,0,0.1,0.1,0.2c0,0,0.1,0,0.2,0l0.9-0.2c0.1,0,0.2-0.1,0.1-0.2c0,0,0,0,0,0c0-0.1-0.1-0.2-0.2-0.1l-0.6,0.2v-0.2l1.2-0.2
		c0,0,0.1,0,0.1,0l0,0v0.1v0.6c0,0,0,0.1-0.2,0.2l-1.8,0.4c0,0-0.1-0.1-0.1-0.3v-1.2c0-0.1,0.1-0.2,0.4-0.2l2.2-0.4c0,0,0.1,0,0.2,0
		s0.1,0.2,0.1,0.4v1.5c0,0.1,0,0.2-0.4,0.3c0,0-2.2,0.5-2.3,0.5c-0.1,0-0.3,0-0.4,0.1c-0.1,0.1-0.2,0.3-0.2,0.5v1.9
		c0,0.2,0,0.3,0.2,0.4c0.2,0.1,0.4,0.2,0.6,0.1l2.3-0.5c0.3,0,0.6-0.3,0.6-0.6V83c0-0.1-0.1-0.3-0.2-0.4c-0.2-0.1-0.4-0.2-0.6-0.1
		l-1.6,0.4c-0.3,0-0.5,0.3-0.5,0.6v0.6c0,0.1,0.1,0.3,0.2,0.3c0.2,0.1,0.3,0.1,0.5,0.1l1.2-0.3c0.1,0,0.2-0.1,0.1-0.2c0,0,0,0,0,0
		l0-0.6c0-0.1,0-0.1-0.1-0.1c0,0-0.1,0-0.2,0l-0.6,0.2c-0.1,0-0.2,0.1-0.1,0.2c0,0.1,0.1,0.2,0.2,0.1c0,0,0,0,0,0c0,0,0.2,0,0.3-0.1
		c0,0.1,0,0.1,0,0.2c-0.2,0.1-1,0.3-1,0.3c-0.2,0-0.2,0-0.2-0.1v-0.5c0-0.1,0.1-0.2,0.2-0.2l1.6-0.4c0.1,0,0.2,0,0.3,0
		c0,0,0,0,0,0.1v1.2c0,0.1-0.1,0.2-0.2,0.3c0,0,0,0,0,0l-2.3,0.5c-0.1,0-0.2,0-0.2,0c0,0,0-0.1,0-0.1V83c0-0.1,0-0.1,0.1-0.2
		c0,0,0.1,0,0.1,0h0.1l2.3-0.5c0.7-0.2,0.6-0.7,0.6-0.8V80c0-0.3-0.1-0.5-0.3-0.7C149.9,79.2,149.7,79.2,149.5,79.3z M147.3,82.4
		L147.3,82.4z"/>
	<path class="st0" d="M153.7,77.9l-2.2,0.7c-0.7,0.2-0.6,0.7-0.6,0.7v1.1c0,0.3,0.1,0.6,0.2,0.6c0.1,0.1,0.3,0.1,0.4,0l1.8-0.7
		c0.5-0.2,0.5-0.6,0.5-0.6v-0.6c0-0.1-0.1-0.3-0.2-0.4c-0.1-0.1-0.3-0.1-0.5,0l-1.3,0.4c-0.1,0-0.1,0.1-0.1,0.2v0.6
		c0,0.1,0,0.1,0.1,0.2c0.1,0,0.1,0,0.2,0l0.9-0.3c0.1,0,0.1-0.2,0.1-0.2c0-0.1-0.2-0.1-0.3-0.1l-0.6,0.2v-0.2l1.2-0.4
		c0,0,0.1,0,0.1,0v0v0.6c0,0,0,0.1-0.3,0.2l-1.8,0.7h0c0-0.1-0.1-0.2,0-0.3v-1.2c0,0,0-0.2,0.4-0.3l2.2-0.7c0.1,0,0.1,0,0.2,0
		c0,0,0.1,0.1,0.1,0.3v1.6c0,0.1,0,0.2-0.4,0.4l-2.3,0.9c-0.1,0-0.3,0.1-0.4,0.2c-0.1,0.1-0.2,0.3-0.2,0.4v2c0,0.1,0.1,0.3,0.2,0.4
		c0.2,0.1,0.4,0.1,0.6,0.1l2.3-0.9c0.3-0.1,0.5-0.3,0.6-0.7v-1.2c0-0.1-0.1-0.3-0.2-0.3c-0.2-0.1-0.4-0.1-0.7,0l-1.6,0.7
		c-0.3,0.1-0.5,0.3-0.5,0.6v0.6c0,0.1,0.1,0.3,0.2,0.3c0.2,0.1,0.4,0.1,0.5,0l1.2-0.5c0.1,0,0.1-0.1,0.1-0.2l-0.1-0.6
		c0-0.1,0-0.1-0.1-0.1c-0.1,0-0.1,0-0.2,0l-0.5,0.2c-0.1,0-0.1,0.1-0.1,0.2c0,0,0,0,0,0c0,0.1,0.2,0.1,0.2,0.1c0,0,0,0,0,0
		c0,0,0.1-0.1,0.3-0.1c0,0.1,0,0.1,0,0.2c-0.2,0.1-1.1,0.4-1.1,0.4c-0.1,0-0.1,0-0.2,0v0v-0.5c0-0.1,0.1-0.2,0.2-0.2l1.6-0.7
		c0.2-0.1,0.3,0,0.3,0c0,0,0,0,0,0v1.2c0,0.2-0.1,0.3-0.3,0.3l-2.3,0.9c-0.1,0-0.1,0-0.2,0c0,0,0-0.1,0-0.1v-1.9
		c0-0.2,0.1-0.3,0.2-0.3c0,0,0,0,0.1,0l2.3-0.9c0.7-0.3,0.6-0.8,0.6-0.8v-1.5c0-0.2-0.1-0.5-0.3-0.6
		C154.1,77.9,153.9,77.9,153.7,77.9z"/>
	<path class="st0" d="M122.4,66.7c-0.2,0.2-0.3,0.4-0.3,0.7v1.5c0,0-0.1,0.5,0.6,0.7l2.4,0.5c0,0,0,0,0.1,0c0,0,0.1,0,0.1,0
		c0.1,0,0.1,0.1,0.1,0.2v1.9c0,0,0,0.1,0,0.1c-0.1,0-0.2,0.1-0.2,0l-2.3-0.5c-0.1,0-0.3-0.1-0.3-0.2c0,0,0,0,0,0v-1.2c0,0,0,0,0-0.1
		c0.1,0,0.2-0.1,0.3,0l1.6,0.4c0.1,0,0.2,0.1,0.2,0.2v0.6c0,0-0.1,0.1-0.3,0.1l-1-0.3c0-0.1,0-0.1,0-0.2l0.3,0.1
		c0.1,0,0.2,0,0.2-0.1c0,0,0,0,0,0c0-0.1,0-0.2-0.1-0.2c0,0,0,0,0,0l-0.5-0.1c-0.1,0-0.1,0-0.2,0c0,0-0.1,0.1-0.1,0.1l0,0.6
		c0,0.1,0,0.2,0.1,0.2c0,0,0,0,0,0l1.2,0.3c0.2,0.1,0.4,0,0.5-0.1c0.1-0.1,0.2-0.2,0.2-0.3V71c0-0.3-0.2-0.5-0.5-0.6L123,70
		c-0.2-0.1-0.5,0-0.7,0.1c-0.1,0.1-0.2,0.2-0.2,0.4v1.2c0,0.3,0.3,0.6,0.6,0.6c0,0,0,0,0,0l2.2,0.5c0.2,0.1,0.4,0,0.6-0.1
		c0.1-0.1,0.2-0.3,0.2-0.4v-1.9c0-0.2,0-0.3-0.2-0.5c-0.1-0.1-0.2-0.1-0.4-0.1l-2.3-0.5c-0.3-0.1-0.3-0.3-0.3-0.3v-1.6
		c0-0.1,0-0.2,0.1-0.3c0,0,0.1,0,0.1,0l2.2,0.4c0.3,0,0.4,0.2,0.4,0.2v1.2c0,0.3-0.1,0.4-0.1,0.4l-1.9-0.4c-0.2-0.1-0.2-0.2-0.2-0.2
		v-0.6v-0.1c0,0,0.1,0,0.1,0l1.2,0.2v0.2l-0.6-0.1c-0.1,0-0.2,0-0.2,0.1c0,0,0,0,0,0c0,0.1,0,0.2,0.1,0.2c0,0,0,0,0,0l0.9,0.2
		c0.1,0,0.1,0,0.2,0c0,0,0.1-0.1,0.1-0.2v-0.6c0-0.1-0.1-0.2-0.2-0.2l-1.4-0.3c-0.1,0-0.3,0-0.4,0c-0.1,0.1-0.2,0.2-0.2,0.4v0.6
		c0,0.1,0.1,0.4,0.5,0.6l1.9,0.4c0.1,0,0.2,0,0.3,0c0.2-0.2,0.3-0.4,0.2-0.7v-1.2c0-0.1-0.1-0.5-0.7-0.6l-2.2-0.4
		C122.7,66.6,122.6,66.6,122.4,66.7z M125.2,69.8L125.2,69.8z"/>
	<path class="st0" d="M118.2,65.7c-0.2,0.2-0.3,0.4-0.3,0.7v1.5c0,0-0.1,0.5,0.6,0.7l2.4,0.7h0.1c0,0,0.1,0,0.1,0
		c0,0.1,0.1,0.1,0,0.2v1.9c0,0,0,0.1,0,0.1c0,0-0.1,0-0.2,0l-2.3-0.7c-0.2,0-0.3-0.1-0.3-0.3v-1.2c0,0,0,0,0-0.1c0.1,0,0.2,0,0.3,0
		l1.6,0.5c0.1,0,0.2,0.1,0.2,0.2v0.6c0,0,0,0-0.1,0c-0.1,0-0.1,0-0.2,0l-1-0.3c0-0.1,0-0.1,0-0.2l0.3,0.1c0.1,0,0.2,0,0.2-0.1
		c0-0.1,0-0.2-0.1-0.2l-0.6-0.2c-0.1,0-0.1,0-0.2,0c-0.1,0-0.1,0.1-0.1,0.1l0,0.6c0,0.1,0.1,0.2,0.1,0.2l1.2,0.4
		c0.2,0.1,0.4,0,0.5,0c0.1-0.1,0.2-0.2,0.2-0.3v-0.6c0-0.3-0.2-0.6-0.5-0.6l-1.5-0.5c-0.2-0.1-0.5,0-0.7,0.1
		c-0.1,0.1-0.2,0.2-0.2,0.3v1.2c0,0.3,0.3,0.6,0.6,0.7l2.2,0.6c0.2,0.1,0.4,0,0.6-0.1c0.1-0.1,0.2-0.2,0.2-0.4v-1.9
		c0-0.2-0.1-0.3-0.2-0.4c-0.1-0.1-0.2-0.2-0.4-0.1l-2.3-0.6c-0.3-0.1-0.4-0.3-0.4-0.3v-1.6c0-0.2,0.1-0.3,0.1-0.3c0,0,0.1,0,0.1,0
		l2.2,0.5c0.3,0.1,0.4,0.2,0.4,0.2V68c0,0.3-0.1,0.4-0.1,0.4l-1.9-0.5c-0.2-0.1-0.2-0.2-0.2-0.2v-0.6v-0.1c0,0,0.1,0,0.1,0
		c0,0,1,0.2,1.2,0.3v0.2l-0.6-0.2c-0.1,0-0.2,0-0.2,0.1s0,0.2,0.1,0.2l0,0l0.9,0.3c0.1,0,0.1,0,0.2,0c0,0,0.1-0.1,0.1-0.2V67
		c0-0.1-0.1-0.2-0.2-0.2l-1.3-0.3c-0.1-0.1-0.3,0-0.4,0c-0.1,0.1-0.2,0.2-0.2,0.4v0.6c0,0,0,0.4,0.5,0.6l1.9,0.5c0.1,0,0.2,0,0.3,0
		c0.2-0.1,0.2-0.3,0.2-0.7v-1.1c0,0,0-0.5-0.7-0.6l-2.2-0.5C118.5,65.6,118.3,65.6,118.2,65.7z M121,69L121,69z"/>
	<path class="st0" d="M114,64.3c-0.2,0.2-0.3,0.4-0.3,0.6v1.5c0,0-0.1,0.4,0.6,0.8l2.4,0.9h0.1c0.1,0,0.2,0,0.2,0.3v1.9
		c0,0,0,0.1,0,0.1c0,0-0.1,0-0.2,0l-2.3-0.9c-0.2,0-0.3-0.2-0.3-0.3V68c0,0,0.1-0.1,0.4,0l1.5,0.6c0.1,0,0.2,0.1,0.2,0.3v0.6
		c-0.1,0-0.2,0-0.2,0l-1.1-0.4c0-0.1,0-0.1,0-0.2l0.3,0.1c0.1,0,0.2,0,0.3-0.1c0-0.1,0-0.2-0.1-0.2c0,0,0,0,0,0l-0.6-0.2
		c-0.1,0-0.1,0-0.2,0c-0.1,0-0.1,0.1-0.1,0.1l0,0.6c0,0.1,0,0.2,0.1,0.2l1.2,0.5c0.2,0.1,0.4,0.1,0.5,0c0.1-0.1,0.2-0.2,0.2-0.3
		v-0.6c0-0.3-0.2-0.5-0.5-0.6l-1.5-0.6c-0.2-0.1-0.5-0.1-0.7,0c-0.1,0.1-0.2,0.2-0.2,0.3v1.2c0,0.3,0.3,0.6,0.6,0.7l2.2,0.8
		c0.2,0.1,0.4,0.1,0.6,0c0.1-0.1,0.2-0.2,0.2-0.4v-1.9c0-0.2-0.1-0.3-0.2-0.4c-0.1-0.1-0.2-0.2-0.3-0.2l-2.3-0.9
		c-0.4-0.2-0.4-0.3-0.4-0.4V65c0-0.2,0-0.3,0.1-0.3c0,0,0.1,0,0.1,0l2.2,0.7c0.4,0.1,0.4,0.3,0.4,0.3v1.1c0,0.3,0,0.3,0,0.3
		l-1.9-0.7c-0.2-0.1-0.2-0.2-0.2-0.3v-0.6c0,0,0,0,0,0c0,0,0.1,0,0.1,0l1.2,0.4v0.2l-0.6-0.2c-0.1,0-0.2,0-0.2,0.1c0,0,0,0,0,0
		c0,0.1,0,0.2,0.1,0.2c0,0,0,0,0,0l0.9,0.4c0.1,0,0.1,0,0.2,0c0.1,0,0.1-0.1,0.1-0.2v-0.6c0-0.1-0.1-0.2-0.1-0.2l-1.4-0.4
		c-0.1-0.1-0.3-0.1-0.4,0c-0.1,0.1-0.2,0.2-0.2,0.4v0.6c0,0,0,0.4,0.5,0.6l1.9,0.7c0.1,0.1,0.2,0.1,0.3,0c0.2-0.1,0.2-0.3,0.2-0.7
		v-1.1c0,0,0-0.5-0.6-0.7l-2.2-0.7C114.3,64.2,114.1,64.3,114,64.3z"/>
	<path class="st0" d="M121.4,80.2c-0.2,0.2-0.3,0.4-0.2,0.6v1.5c0,0-0.1,0.5,0.6,0.7l2.4,0.5c0,0,0,0,0.1,0c0,0,0.1,0,0.1,0
		c0,0.1,0,0.1,0,0.2v1.8c0,0,0,0.1,0,0.1c-0.1,0-0.2,0-0.2,0l-2.3-0.5c-0.1,0-0.3-0.1-0.3-0.2c0,0,0,0,0,0v-1.2c0,0,0,0,0,0
		c0.1,0,0.2,0,0.3,0l1.6,0.4c0.1,0,0.2,0.1,0.2,0.2c0,0,0,0,0,0v0.6c0,0-0.1,0.1-0.2,0l-1-0.3c0-0.1,0-0.1,0-0.2l0.3,0.1
		c0.1,0,0.2,0,0.2-0.2c0-0.1,0-0.2-0.1-0.2l-0.5-0.1c-0.1,0-0.1,0-0.2,0c0,0-0.1,0.1-0.1,0.1l-0.1,0.6c0,0.1,0.1,0.2,0.1,0.2
		l1.2,0.3c0.2,0.1,0.4,0,0.5-0.1c0.1-0.1,0.2-0.2,0.2-0.3v-0.6c0-0.3-0.2-0.5-0.5-0.6c0,0,0,0,0,0l-1.5-0.4c-0.2-0.1-0.5,0-0.6,0.1
		c-0.1,0.1-0.2,0.2-0.2,0.3V85c0,0.3,0.3,0.6,0.6,0.6c0,0,0,0,0,0l2.2,0.5c0.2,0.1,0.4,0,0.6-0.1c0.1-0.1,0.2-0.3,0.2-0.4v-1.8
		c0-0.2,0-0.3-0.2-0.5c-0.1-0.1-0.2-0.1-0.4-0.1c0,0-2.3-0.5-2.3-0.5c-0.3-0.1-0.4-0.3-0.4-0.3v-1.5c0-0.1,0-0.2,0.1-0.3
		c0,0,0.1,0,0.1,0l2.2,0.4c0.3,0,0.4,0.1,0.4,0.2v1.1c0,0.3-0.1,0.3-0.1,0.3l-1.9-0.4c-0.2-0.1-0.2-0.2-0.2-0.2v-0.6v-0.1
		c0,0,0.1,0,0.1,0c0,0,1,0.2,1.2,0.2v0.2l-0.6-0.2c-0.1,0-0.2,0-0.2,0.1c0,0.1,0,0.2,0.1,0.2c0,0,0,0,0,0l0.9,0.2c0.1,0,0.1,0,0.2,0
		c0,0,0.1-0.1,0.1-0.1v-0.6c0-0.1-0.1-0.2-0.2-0.2l-1.4-0.2c-0.1,0-0.3,0-0.4,0.1c-0.1,0.1-0.2,0.2-0.2,0.4v0.6
		c0,0.1,0.1,0.4,0.5,0.5l1.9,0.4c0.1,0,0.2,0,0.3-0.1c0.2-0.1,0.2-0.3,0.2-0.7v-1.1c0,0,0-0.5-0.7-0.6l-2.2-0.4
		C121.7,80.1,121.5,80.1,121.4,80.2z M124.1,83.2L124.1,83.2z"/>
	<path class="st0" d="M117.3,79.3c-0.2,0.2-0.3,0.4-0.3,0.6v1.5c0,0-0.1,0.5,0.6,0.7l2.4,0.7c0,0,0,0,0.1,0c0,0,0.1,0,0.1,0
		c0,0.1,0.1,0.1,0.1,0.2V85c0,0,0,0.1,0,0.1c0,0-0.1,0-0.2,0l-2.3-0.6c-0.2,0-0.3-0.1-0.3-0.3V83c0,0,0,0,0-0.1c0,0,0.1-0.1,0.3,0
		l1.6,0.5c0.1,0,0.2,0.1,0.2,0.2v0.6c0,0,0,0,0,0c-0.1,0-0.1,0-0.2,0l-1-0.3c0-0.1,0-0.1,0-0.2l0.3,0.1c0.1,0,0.2,0,0.2-0.1
		c0-0.1,0-0.2-0.1-0.2l0,0l-0.5-0.2c-0.1,0-0.1,0-0.2,0c0,0-0.1,0.1-0.1,0.1l-0.1,0.6c0,0.1,0,0.2,0.1,0.2l1.2,0.4
		c0.2,0.1,0.4,0,0.5-0.1c0.1-0.1,0.2-0.2,0.2-0.3v-0.6c0-0.3-0.2-0.6-0.5-0.6l-1.5-0.5c-0.2-0.1-0.5-0.1-0.7,0.1
		c-0.1,0.1-0.2,0.2-0.2,0.3v1.2c0,0.3,0.3,0.6,0.6,0.7l2.2,0.6c0.2,0.1,0.4,0,0.6-0.1c0.1-0.1,0.2-0.2,0.2-0.4v-1.9
		c0-0.2-0.1-0.3-0.2-0.4c-0.1-0.1-0.2-0.1-0.4-0.1l-2.3-0.7c-0.3-0.1-0.4-0.3-0.4-0.3v-1.6c0-0.2,0.1-0.3,0.1-0.3c0,0,0.1,0,0.1,0
		l2.2,0.5c0.3,0.1,0.4,0.2,0.4,0.2v1.2c0,0.3,0,0.3,0,0.3l-1.9-0.5c-0.2-0.1-0.2-0.2-0.2-0.2v-0.6c0,0,0,0,0-0.1c0,0,0.1,0,0.1,0
		l1.2,0.3v0.2c-0.3-0.1-0.6-0.2-0.6-0.2c-0.1,0-0.2,0-0.2,0.1c0,0,0,0,0,0c0,0.1,0,0.2,0.1,0.2c0,0,0,0,0,0l0.9,0.3
		c0.1,0,0.1,0,0.2,0c0,0,0.1-0.1,0.1-0.1v-0.6c0-0.1-0.1-0.2-0.1-0.2l-1.4-0.3c-0.1-0.1-0.3,0-0.4,0c-0.1,0.1-0.2,0.2-0.2,0.4v0.6
		c0,0,0,0.4,0.5,0.6l1.9,0.5c0.1,0,0.2,0,0.3,0c0.2-0.1,0.2-0.3,0.2-0.7v-1.2c0,0,0-0.5-0.7-0.6l-2.2-0.5
		C117.6,79.2,117.4,79.2,117.3,79.3z M120,82.5L120,82.5z"/>
	<path class="st0" d="M113.2,77.9c-0.2,0.1-0.3,0.4-0.3,0.6v1.5c0,0-0.1,0.4,0.6,0.8l2.4,0.9c0,0,0,0,0.1,0c0,0,0.2,0,0.2,0.3v1.9
		c0,0,0,0.1,0,0.1c0,0-0.1,0-0.2,0l-2.3-0.9c-0.2,0-0.3-0.2-0.3-0.3v-1.2c0,0,0.1-0.1,0.4,0l1.5,0.6c0.1,0,0.2,0.1,0.2,0.3V83
		c-0.1,0-0.2,0-0.2,0l-1.1-0.4c0-0.1,0-0.1,0-0.2l0.3,0.1c0.1,0,0.2,0,0.3-0.1c0,0,0,0,0,0c0-0.1,0-0.2-0.1-0.3l-0.5-0.2
		c-0.1,0-0.1,0-0.2,0c-0.1,0-0.1,0.1-0.1,0.1l-0.1,0.6c0,0.1,0,0.2,0.1,0.2l1.2,0.5c0.2,0.1,0.4,0.1,0.5,0c0.1-0.1,0.2-0.2,0.2-0.3
		v-0.6c0-0.3-0.2-0.6-0.5-0.6l-1.5-0.6c-0.2-0.1-0.5-0.1-0.7,0c-0.1,0.1-0.2,0.2-0.2,0.3v1.2c0,0.3,0.3,0.6,0.6,0.7l2.2,0.8
		c0.2,0.1,0.4,0.1,0.6,0c0.1-0.1,0.2-0.2,0.2-0.4v-1.9c0-0.2-0.1-0.3-0.2-0.4c-0.1-0.1-0.2-0.2-0.3-0.2l-2.3-0.8
		c-0.4-0.2-0.4-0.4-0.4-0.4v-1.6c0-0.2,0-0.3,0.1-0.3c0.1,0,0.1,0,0.1,0l2.2,0.7c0.4,0.1,0.4,0.3,0.4,0.3v1.2c0,0.3,0,0.3-0.1,0.3
		l-1.9-0.7c-0.2-0.1-0.2-0.2-0.2-0.2v-0.6c0,0,0,0,0,0c0,0,0.1,0,0.1,0l1.2,0.4v0.2l-0.6-0.2c-0.1,0-0.2,0-0.2,0.1c0,0,0,0,0,0
		c0,0.1,0,0.2,0.1,0.2c0,0,0,0,0,0l0.9,0.3c0.1,0,0.1,0,0.2,0c0.1,0,0.1-0.1,0.1-0.2v-0.6c0-0.1-0.1-0.2-0.1-0.2l-1.4-0.4
		c-0.1-0.1-0.3-0.1-0.4,0c-0.1,0.1-0.2,0.2-0.2,0.4v0.6c0,0,0,0.4,0.5,0.6l1.9,0.7c0.1,0.1,0.2,0.1,0.4,0c0.2-0.1,0.2-0.3,0.2-0.7
		v-1.1c0,0,0-0.4-0.7-0.7l-2.2-0.7C113.5,77.8,113.4,77.8,113.2,77.9z"/>
	<path class="st0" d="M116.5,58.6c-0.7,0-1.2,0.6-1.2,1.2c0,0.7,0.6,1.2,1.2,1.2c0.6,0,1.1-0.4,1.2-1
		C117.8,59.3,117.2,58.6,116.5,58.6z M116.4,60.2c-0.2,0-0.4-0.2-0.4-0.4c0-0.2,0.2-0.4,0.4-0.4c0,0,0.1,0,0.1,0
		c0.2,0,0.4,0.2,0.4,0.4c0,0.2-0.2,0.4-0.4,0.4C116.5,60.2,116.5,60.2,116.4,60.2z"/>
	<path class="st0" d="M120.2,60.1c-0.7,0.1-1.2,0.7-1.1,1.3c0.1,0.7,0.7,1.2,1.3,1.1c0.6-0.1,1-0.5,1.1-1.1
		C121.5,60.6,120.9,60,120.2,60.1z M120.3,61.6c-0.2,0-0.4-0.1-0.4-0.4c0-0.2,0.1-0.4,0.4-0.4c0,0,0.1,0,0.1,0
		c0.2,0,0.4,0.1,0.4,0.4c0,0.2-0.1,0.4-0.4,0.4C120.3,61.7,120.3,61.6,120.3,61.6z"/>
	<path class="st0" d="M124.1,61.2c-0.7,0-1.2,0.6-1.2,1.2c0,0.7,0.6,1.2,1.2,1.2c0.6,0,1.1-0.4,1.2-1
		C125.4,61.9,124.8,61.2,124.1,61.2z M124,62.8c-0.2,0-0.4-0.2-0.4-0.5c0,0,0,0,0,0c0.1-0.2,0.3-0.4,0.5-0.3c0.2,0,0.4,0.2,0.4,0.5
		C124.5,62.7,124.3,62.8,124,62.8L124,62.8z"/>
	<path class="st0" d="M150.9,58.6c-0.6,0.2-1,0.9-0.7,1.6c0.2,0.6,0.9,1,1.6,0.7c0.6-0.2,0.9-0.8,0.8-1.4
		C152.3,58.8,151.6,58.4,150.9,58.6z M151,60.2c-0.2,0-0.5-0.1-0.5-0.3c0-0.2,0.1-0.5,0.4-0.5c0,0,0,0,0,0c0.2-0.1,0.4,0,0.5,0.3
		c0.1,0.2,0,0.4-0.3,0.5C151.1,60.2,151,60.2,151,60.2L151,60.2z"/>
	<path class="st0" d="M147.4,60.3c-0.7,0.2-1,0.8-0.9,1.5s0.8,1,1.5,0.9c0.6-0.1,0.9-0.7,0.9-1.2C148.8,60.7,148.2,60.2,147.4,60.3
		C147.4,60.3,147.4,60.3,147.4,60.3z M147.3,61.9c-0.2,0-0.4-0.1-0.5-0.3c0-0.2,0.1-0.4,0.3-0.5c0,0,0.1,0,0.1,0
		c0.2,0,0.5,0.1,0.5,0.4c0,0,0,0,0,0C147.8,61.7,147.6,61.9,147.3,61.9C147.3,61.9,147.3,61.9,147.3,61.9z"/>
	<path class="st0" d="M143.5,61.3c-0.7,0.1-1.3,0.7-1.2,1.4c0.2,0.7,0.9,1.1,1.6,0.9c0.7,0,1.2-0.5,1.2-1.2c0-0.7-0.5-1.2-1.2-1.2
		C143.8,61.2,143.6,61.3,143.5,61.3z M143.5,62.9c-0.2,0.1-0.5-0.1-0.5-0.3c0-0.2,0.2-0.5,0.4-0.5c0.2-0.1,0.5,0,0.5,0.2
		c0.1,0.2,0,0.5-0.2,0.5C143.7,62.9,143.6,62.9,143.5,62.9L143.5,62.9z"/>
	<path class="st0" d="M151.9,72.5c-0.6,0.2-1,0.9-0.7,1.6c0.2,0.6,0.9,1,1.6,0.7c0.6-0.2,0.9-0.8,0.8-1.3
		C153.3,72.7,152.6,72.3,151.9,72.5z M151.9,74c-0.2,0.1-0.5-0.1-0.5-0.3c0-0.2,0.2-0.5,0.4-0.5c0,0,0,0,0,0c0.2-0.1,0.4,0,0.5,0.3
		c0.1,0.2,0,0.4-0.3,0.5C152,74,152,74,151.9,74L151.9,74z"/>
	<path class="st0" d="M148.1,73.7c-0.7-0.1-1.3,0.4-1.4,1.1c-0.1,0.7,0.4,1.3,1.1,1.4c0.2,0,0.3,0,0.5,0c0.7,0.1,1.3-0.4,1.3-1.1
		c0.1-0.7-0.4-1.3-1.1-1.3C148.4,73.7,148.2,73.7,148.1,73.7z M148,75.3c-0.2,0-0.4-0.2-0.4-0.4s0.2-0.4,0.4-0.4
		c0.2,0,0.4,0.2,0.4,0.4C148.5,75.1,148.3,75.3,148,75.3C148,75.3,148,75.3,148,75.3L148,75.3z"/>
	<path class="st0" d="M144,74.7c-0.6,0.2-1,0.9-0.7,1.6c0.2,0.6,0.9,1,1.6,0.7c0.6-0.2,0.9-0.8,0.8-1.4
		C145.4,75,144.7,74.5,144,74.7z M144,76.3c-0.2,0-0.4-0.2-0.4-0.4c0-0.2,0.2-0.4,0.4-0.4c0.2,0,0.4,0.1,0.4,0.3
		C144.5,76.1,144.3,76.3,144,76.3L144,76.3z"/>
	<path class="st0" d="M152.6,85.8c-0.6,0.2-1,0.9-0.7,1.6c0.2,0.6,0.9,1,1.6,0.7c0.6-0.2,0.9-0.8,0.8-1.3
		C154,86.1,153.3,85.7,152.6,85.8C152.6,85.8,152.6,85.8,152.6,85.8z M152.6,87.4c-0.2,0-0.4-0.2-0.4-0.4c0-0.2,0.2-0.4,0.4-0.4
		c0.2,0,0.4,0.1,0.4,0.3C153.1,87.2,152.9,87.4,152.6,87.4C152.6,87.4,152.6,87.4,152.6,87.4z"/>
	<path class="st0" d="M148.9,87.4c-0.7,0.2-1,0.8-0.9,1.5c0.2,0.7,0.8,1,1.5,0.9c0.6-0.1,1-0.7,0.9-1.3
		C150.3,87.8,149.7,87.3,148.9,87.4z M148.9,89c-0.2,0.1-0.5-0.1-0.5-0.3c0,0,0,0,0,0c0-0.2,0.2-0.4,0.4-0.4c0.2,0,0.5,0.1,0.5,0.4
		C149.3,88.8,149.1,89,148.9,89z"/>
	<path class="st0" d="M144.9,88.4c-0.6,0.2-1,0.9-0.7,1.6s0.9,1,1.6,0.7c0.6-0.2,0.9-0.8,0.8-1.3C146.3,88.6,145.6,88.2,144.9,88.4z
		 M144.9,90c-0.2,0.1-0.5-0.1-0.5-0.3c0-0.2,0.2-0.5,0.4-0.5c0.2,0,0.5,0.1,0.5,0.3C145.3,89.8,145.2,90,144.9,90L144.9,90z"/>
	<path class="st0" d="M115.3,72.4c-0.6-0.2-1.3,0.1-1.6,0.7c-0.2,0.6,0.1,1.3,0.7,1.6c0.1,0,0.3,0.1,0.4,0.1
		c0.6,0.2,1.3-0.1,1.6-0.7s-0.1-1.3-0.7-1.6C115.6,72.4,115.5,72.4,115.3,72.4z M115.3,74c-0.2,0-0.4-0.2-0.4-0.5
		c0.1-0.2,0.3-0.4,0.5-0.3c0.2,0,0.4,0.2,0.4,0.4c0,0.2-0.2,0.4-0.4,0.4C115.4,74,115.3,74,115.3,74L115.3,74z"/>
	<path class="st0" d="M119.2,73.7c-0.7,0-1.2,0.6-1.1,1.3c0,0.7,0.6,1.2,1.3,1.1c0.6,0,1.1-0.5,1.1-1.1
		C120.5,74.3,119.9,73.7,119.2,73.7z M119.2,75.3c-0.2,0-0.4-0.2-0.4-0.4c0-0.2,0.2-0.4,0.4-0.4c0,0,0.1,0,0.1,0
		c0.2,0,0.4,0.2,0.4,0.5C119.7,75.2,119.5,75.3,119.2,75.3z"/>
	<path class="st0" d="M123.4,74.7c-0.7,0-1.2,0.6-1.2,1.2c0,0.7,0.6,1.2,1.2,1.2c0.6,0,1.1-0.4,1.2-1
		C124.6,75.4,124.1,74.7,123.4,74.7z M123.3,76.2c-0.2,0-0.4-0.2-0.4-0.4c0-0.2,0.2-0.4,0.4-0.4c0,0,0.1,0,0.1,0
		c0.2,0,0.4,0.2,0.4,0.5C123.8,76.2,123.6,76.3,123.3,76.2z"/>
	<path class="st0" d="M114.4,85.6c-0.7,0-1.2,0.6-1.2,1.2c0,0.7,0.6,1.2,1.2,1.2c0.6,0,1.1-0.4,1.2-1
		C115.6,86.3,115.1,85.7,114.4,85.6z M114.3,87.2c-0.2,0-0.4-0.2-0.4-0.4c0-0.2,0.2-0.4,0.4-0.4c0,0,0.1,0,0.1,0
		c0.2,0,0.4,0.2,0.4,0.5c0,0,0,0,0,0C114.8,87.1,114.5,87.2,114.3,87.2z"/>
	<path class="st0" d="M118.3,86.9c-0.7,0.1-1.2,0.7-1.1,1.3c0.1,0.7,0.7,1.2,1.3,1.1c0.6-0.1,1-0.5,1.1-1.1
		C119.7,87.5,119.1,86.9,118.3,86.9z M118.4,88.5c-0.2,0-0.4-0.2-0.4-0.4c0-0.2,0.3-0.4,0.5-0.4c0.2,0,0.4,0.2,0.4,0.4
		C118.9,88.3,118.7,88.5,118.4,88.5C118.4,88.5,118.4,88.5,118.4,88.5L118.4,88.5z"/>
	<path class="st0" d="M122.4,87.9c-0.6-0.2-1.3,0.1-1.6,0.7c-0.2,0.6,0.1,1.3,0.7,1.6c0.1,0.1,0.3,0.1,0.4,0.1
		c0.7,0.2,1.4-0.2,1.6-0.9C123.7,88.6,123.2,88,122.4,87.9z M122.4,89.5c-0.2,0-0.4-0.2-0.4-0.5c0,0,0,0,0,0
		c0.1-0.3,0.4-0.4,0.6-0.3c0.2,0.1,0.3,0.3,0.3,0.5C122.9,89.4,122.6,89.6,122.4,89.5C122.4,89.5,122.4,89.5,122.4,89.5L122.4,89.5z
		"/>
	<path class="st0" d="M115,56c0,0.2-0.2,0.3-0.4,0.3c-0.2,0-0.3-0.2-0.3-0.4c0-0.2,0.2-0.3,0.3-0.3C114.9,55.7,115,55.8,115,56
		C115,56,115,56,115,56z"/>
	<path class="st0" d="M113.9,57.1c0,0.2-0.2,0.3-0.3,0.3c-0.2,0-0.3-0.2-0.3-0.3c0-0.2,0.2-0.3,0.3-0.3
		C113.7,56.8,113.9,57,113.9,57.1C113.9,57.1,113.9,57.1,113.9,57.1z"/>
	<path class="st0" d="M113.7,59.4c0,0.2-0.2,0.4-0.3,0.4c-0.2,0-0.4-0.2-0.4-0.3c0-0.2,0.2-0.4,0.3-0.4c0,0,0,0,0,0
		C113.5,59,113.7,59.2,113.7,59.4C113.7,59.4,113.7,59.4,113.7,59.4z"/>
	<path class="st0" d="M113.6,61.5c0,0.2-0.2,0.3-0.3,0.3l0,0c-0.2,0-0.4-0.1-0.4-0.3c0-0.2,0.2-0.4,0.4-0.4l0,0
		C113.4,61.2,113.6,61.3,113.6,61.5C113.6,61.5,113.6,61.5,113.6,61.5z"/>
	<path class="st0" d="M127,60.9c0,0.2-0.1,0.4-0.3,0.4c-0.2,0-0.4-0.1-0.4-0.3c0,0,0-0.1,0-0.1c0-0.2,0.1-0.4,0.3-0.4
		C126.8,60.5,127,60.6,127,60.9C127,60.9,127,60.9,127,60.9z"/>
	<path class="st0" d="M126.8,63c0,0.2-0.1,0.3-0.3,0.3c0,0,0,0,0,0c-0.2,0-0.3-0.2-0.3-0.3s0.2-0.3,0.3-0.3c0,0,0,0,0,0
		C126.7,62.7,126.8,62.8,126.8,63C126.8,63,126.8,63,126.8,63z"/>
	<path class="st0" d="M126.6,65.2c0,0.2-0.2,0.3-0.3,0.3c-0.2,0-0.3-0.2-0.3-0.3c0-0.2,0.2-0.3,0.3-0.3
		C126.5,64.8,126.6,65,126.6,65.2C126.6,65.2,126.6,65.2,126.6,65.2z"/>
	<path class="st0" d="M140.5,60.9c0,0.2,0.2,0.4,0.4,0.4c0.2,0,0.4-0.2,0.4-0.4c0-0.2-0.2-0.4-0.4-0.4l0,0
		C140.7,60.6,140.5,60.7,140.5,60.9C140.5,60.9,140.5,60.9,140.5,60.9z"/>
	<path class="st0" d="M140.7,63c0,0.2,0.1,0.3,0.3,0.3c0,0,0,0,0,0c0.2,0,0.3-0.2,0.3-0.3s-0.2-0.3-0.3-0.3c0,0,0,0,0,0
		C140.9,62.7,140.7,62.8,140.7,63C140.7,63,140.7,63,140.7,63z"/>
	<path class="st0" d="M141,65.2c0,0.2,0.2,0.3,0.4,0.3c0.2,0,0.3-0.1,0.3-0.3c0-0.2-0.1-0.4-0.3-0.4C141.2,64.7,141.1,64.9,141,65.2
		C141,65.1,141,65.1,141,65.2z"/>
	<path class="st0" d="M153.4,57.1c0,0.2,0.2,0.3,0.3,0.3c0,0,0,0,0,0c0.2,0,0.3-0.1,0.3-0.3c0,0,0,0,0,0c0-0.2-0.2-0.4-0.3-0.4
		c0,0,0,0,0,0C153.5,56.8,153.4,57,153.4,57.1z"/>
	<path class="st0" d="M153.6,59.3c0,0.2,0.2,0.3,0.4,0.3c0.2,0,0.3-0.2,0.3-0.4c0-0.2-0.2-0.3-0.3-0.3
		C153.7,59,153.6,59.1,153.6,59.3C153.6,59.3,153.6,59.3,153.6,59.3z"/>
	<path class="st0" d="M153.7,61.5c0,0.2,0.2,0.3,0.3,0.3c0.2,0,0.3-0.2,0.3-0.3c0-0.2-0.1-0.4-0.3-0.4
		C153.8,61.2,153.7,61.3,153.7,61.5z"/>
	<path class="st0" d="M117.2,56.9c0,0.2-0.2,0.3-0.3,0.3l0,0c-0.2,0-0.3-0.2-0.4-0.3c0-0.2,0.2-0.3,0.4-0.4
		C117.1,56.6,117.2,56.7,117.2,56.9z"/>
	<path class="st0" d="M119.7,57.5c0,0.2-0.1,0.3-0.3,0.4c-0.2,0-0.3-0.1-0.4-0.3c0-0.2,0.1-0.3,0.3-0.4c0,0,0,0,0,0
		C119.5,57.2,119.7,57.3,119.7,57.5z"/>
	<path class="st0" d="M122.1,58.1c0,0.2-0.2,0.3-0.4,0.3c-0.2,0-0.3-0.2-0.3-0.4c0-0.2,0.1-0.3,0.3-0.3
		C121.9,57.8,122.1,57.9,122.1,58.1z"/>
	<path class="st0" d="M124.5,58.7c0,0.2-0.2,0.3-0.3,0.3c-0.2,0-0.3-0.2-0.3-0.3c0-0.2,0.2-0.3,0.3-0.3c0,0,0,0,0,0
		C124.3,58.4,124.5,58.5,124.5,58.7C124.5,58.7,124.5,58.7,124.5,58.7z"/>
	<path class="st0" d="M127.2,59.2c0,0.2-0.2,0.3-0.4,0.3c0,0,0,0,0,0c-0.2,0-0.3-0.2-0.3-0.3s0.2-0.3,0.3-0.3l0,0
		C127,58.9,127.2,59,127.2,59.2z"/>
	<path class="st0" d="M112.9,71.3c0,0.2-0.1,0.3-0.3,0.3c0,0,0,0,0,0c-0.2,0-0.3-0.1-0.3-0.3c0,0,0,0,0,0c0-0.2,0.1-0.3,0.3-0.3
		C112.8,71,112.9,71.1,112.9,71.3C112.9,71.3,112.9,71.3,112.9,71.3z"/>
	<path class="st0" d="M112.8,73.3c0,0.2-0.1,0.3-0.3,0.3c-0.2,0-0.3-0.1-0.3-0.3c0-0.2,0.1-0.3,0.3-0.3
		C112.6,72.9,112.8,73.1,112.8,73.3z"/>
	<path class="st0" d="M112.7,75.1c0,0.2-0.1,0.3-0.3,0.3c0,0,0,0,0,0c-0.2,0-0.3-0.1-0.3-0.3c0-0.2,0.1-0.3,0.3-0.3
		C112.6,74.8,112.7,74.9,112.7,75.1C112.7,75.1,112.7,75.1,112.7,75.1z"/>
	<path class="st0" d="M154.4,71.4c0,0.2,0.1,0.3,0.3,0.3c0.2,0,0.3-0.2,0.3-0.4c0-0.1-0.1-0.3-0.3-0.3
		C154.5,71.1,154.4,71.2,154.4,71.4z"/>
	<path class="st0" d="M154.5,73.4c0,0.2,0.1,0.3,0.3,0.3c0,0,0,0,0,0c0.2,0,0.3-0.1,0.3-0.3c0-0.2-0.1-0.3-0.3-0.3
		C154.6,73.1,154.5,73.2,154.5,73.4z"/>
	<path class="st0" d="M154.5,75.2c0,0.2,0.1,0.3,0.3,0.3c0,0,0,0,0,0c0.2,0,0.3-0.1,0.3-0.3c0-0.2-0.1-0.3-0.3-0.3c0,0,0,0,0,0
		C154.7,74.9,154.5,75,154.5,75.2C154.5,75.2,154.5,75.2,154.5,75.2z"/>
	<path class="st0" d="M141.1,74.7c0,0.2,0.1,0.3,0.3,0.3c0,0,0,0,0,0c0.2,0,0.3-0.1,0.3-0.3c0-0.2-0.1-0.3-0.3-0.3c0,0,0,0,0,0
		C141.3,74.4,141.1,74.5,141.1,74.7C141.1,74.7,141.1,74.7,141.1,74.7z"/>
	<path class="st0" d="M141.2,76.7c0,0.2,0.1,0.3,0.3,0.3c0,0,0,0,0,0c0.2,0,0.3-0.1,0.3-0.3c0,0,0,0,0,0c0-0.2-0.1-0.3-0.3-0.3
		c0,0,0,0,0,0C141.4,76.4,141.2,76.5,141.2,76.7z"/>
	<path class="st0" d="M141.3,78.5c0,0.2,0.1,0.3,0.3,0.3c0,0,0,0,0,0c0.2,0,0.3-0.1,0.3-0.3c0-0.2-0.1-0.3-0.3-0.3c0,0,0,0,0,0
		C141.4,78.2,141.3,78.4,141.3,78.5z"/>
	<path class="st0" d="M126.5,74.8c0,0.2-0.2,0.3-0.4,0.3c-0.1,0-0.3-0.1-0.3-0.3c0-0.2,0.1-0.3,0.3-0.4
		C126.3,74.4,126.4,74.5,126.5,74.8C126.5,74.7,126.5,74.8,126.5,74.8z"/>
	<path class="st0" d="M126.4,76.7c0,0.2-0.1,0.3-0.3,0.3c-0.2,0-0.3-0.1-0.3-0.3c0-0.2,0.1-0.3,0.3-0.3c0,0,0,0,0,0
		C126.2,76.4,126.4,76.5,126.4,76.7z"/>
	<path class="st0" d="M126.3,78.6c0,0.2-0.1,0.3-0.3,0.3c-0.2,0-0.3-0.1-0.3-0.3c0-0.2,0.1-0.3,0.3-0.3
		C126.2,78.3,126.3,78.4,126.3,78.6z"/>
	<path class="st0" d="M111.7,86.7c0,0.2-0.1,0.3-0.3,0.3c0,0,0,0,0,0c-0.2,0-0.3-0.1-0.3-0.3c0-0.2,0.1-0.3,0.3-0.3
		C111.5,86.4,111.7,86.6,111.7,86.7C111.7,86.7,111.7,86.7,111.7,86.7z"/>
	<path class="st0" d="M111.9,85.3c0,0.2-0.1,0.3-0.3,0.3c-0.2,0-0.3-0.1-0.3-0.3c0,0,0,0,0,0c0-0.2,0.1-0.3,0.3-0.3c0,0,0,0,0,0
		C111.7,85,111.9,85.1,111.9,85.3C111.9,85.3,111.9,85.3,111.9,85.3z"/>
	<path class="st0" d="M125.2,91c0,0.2-0.1,0.3-0.3,0.3l0,0c-0.2,0-0.3-0.1-0.3-0.3c0,0,0,0,0,0c0-0.2,0.1-0.3,0.3-0.3
		C125.1,90.7,125.2,90.8,125.2,91C125.2,91,125.2,91,125.2,91z"/>
	<path class="st0" d="M125.4,89.5c0,0.2-0.2,0.3-0.3,0.3c0,0,0,0,0,0c-0.2,0-0.3-0.1-0.3-0.3c0,0,0,0,0,0c0-0.2,0.1-0.3,0.3-0.3
		c0,0,0,0,0,0C125.3,89.2,125.4,89.3,125.4,89.5z"/>
	<path class="st0" d="M142.7,91.2c0,0.2-0.1,0.3-0.3,0.3c-0.2,0-0.3-0.1-0.4-0.3c0-0.2,0.1-0.3,0.3-0.4c0,0,0.1,0,0.1,0
		C142.5,90.9,142.7,91,142.7,91.2z"/>
	<path class="st0" d="M142.5,89.6c0,0.2-0.1,0.3-0.3,0.3c-0.2,0-0.3-0.1-0.3-0.3c0-0.2,0.1-0.3,0.3-0.3
		C142.3,89.3,142.5,89.4,142.5,89.6C142.5,89.6,142.5,89.6,142.5,89.6z"/>
	<path class="st0" d="M155.5,86.7c0,0.2,0.1,0.3,0.3,0.3c0,0,0,0,0,0c0.2,0,0.3-0.1,0.4-0.3c0-0.2-0.1-0.3-0.3-0.4c0,0-0.1,0-0.1,0
		C155.6,86.4,155.5,86.5,155.5,86.7C155.5,86.7,155.5,86.7,155.5,86.7z"/>
	<path class="st0" d="M155.4,85.2c0,0.2,0.1,0.3,0.3,0.3c0,0,0,0,0,0c0.2,0,0.3-0.2,0.3-0.4c0-0.1-0.1-0.3-0.3-0.3
		C155.5,84.8,155.4,85,155.4,85.2C155.4,85.2,155.4,85.2,155.4,85.2z"/>
	<path class="st0" d="M111.5,88.3c0,0.2-0.2,0.3-0.4,0.3c-0.1,0-0.3-0.1-0.3-0.3c0-0.2,0.1-0.3,0.3-0.4
		C111.3,88,111.5,88.1,111.5,88.3C111.5,88.3,111.5,88.3,111.5,88.3z"/>
	<path class="st0" d="M156.3,88.3c0,0.2-0.2,0.3-0.4,0.3c-0.1,0-0.3-0.1-0.3-0.3c0-0.2,0.1-0.3,0.3-0.4
		C156.1,88,156.3,88.1,156.3,88.3C156.3,88.3,156.3,88.3,156.3,88.3z"/>
	<path class="st0" d="M113.7,89.2c0,0.2-0.1,0.3-0.3,0.4c-0.2,0-0.3-0.1-0.4-0.3c0,0,0-0.1,0-0.1c0-0.2,0.2-0.3,0.4-0.3
		C113.5,88.9,113.7,89,113.7,89.2z"/>
	<path class="st0" d="M115.9,90c0,0.2-0.1,0.3-0.3,0.3c-0.2,0-0.3-0.1-0.4-0.3c0-0.2,0.1-0.3,0.3-0.4c0,0,0.1,0,0.1,0
		C115.8,89.7,115.9,89.8,115.9,90C115.9,90,115.9,90,115.9,90z"/>
	<path class="st0" d="M118.2,90.8c0,0.2-0.1,0.3-0.3,0.3c-0.2,0-0.3-0.1-0.3-0.3c0-0.2,0.1-0.3,0.3-0.3c0,0,0,0,0,0
		C118,90.5,118.2,90.7,118.2,90.8C118.2,90.8,118.2,90.8,118.2,90.8z"/>
	<path class="st0" d="M120.5,91.6c0,0.2-0.2,0.3-0.3,0.3c-0.2,0-0.3-0.1-0.3-0.3c0,0,0,0,0,0c0-0.2,0.1-0.3,0.3-0.3c0,0,0,0,0,0
		C120.3,91.2,120.5,91.4,120.5,91.6z"/>
	<path class="st0" d="M122.7,92.2c0,0.2-0.1,0.3-0.3,0.3l0,0c-0.2,0-0.3-0.1-0.3-0.3c0-0.2,0.1-0.3,0.3-0.3
		C122.6,91.9,122.7,92,122.7,92.2z"/>
	<path class="st0" d="M124.9,92.7c0,0.2-0.1,0.3-0.3,0.3s-0.3-0.1-0.3-0.3c0-0.2,0.1-0.3,0.3-0.3C124.8,92.4,124.9,92.5,124.9,92.7z
		"/>
	<path class="st0" d="M127.2,93.1c0,0.2-0.1,0.3-0.3,0.3c-0.2,0-0.3-0.2-0.3-0.3c0-0.2,0.1-0.3,0.3-0.3c0,0,0,0,0,0
		C127,92.8,127.2,92.9,127.2,93.1z"/>
	<path class="st0" d="M129.4,93.5c0,0.2-0.1,0.3-0.3,0.3c-0.2,0-0.3-0.1-0.3-0.3c0-0.2,0.1-0.3,0.3-0.3l0,0
		C129.3,93.1,129.4,93.3,129.4,93.5C129.4,93.4,129.4,93.5,129.4,93.5z"/>
	<path class="st0" d="M131.8,93.8c0,0.2-0.1,0.3-0.3,0.4s-0.3-0.1-0.4-0.3c0,0,0-0.1,0-0.1c0-0.2,0.1-0.3,0.3-0.4
		C131.6,93.4,131.8,93.5,131.8,93.8C131.8,93.7,131.8,93.7,131.8,93.8z"/>
	<path class="st0" d="M134,93.8c0,0.2-0.1,0.3-0.3,0.4c-0.2,0-0.3-0.1-0.4-0.3c0,0,0-0.1,0-0.1c0-0.2,0.2-0.3,0.4-0.3
		C133.9,93.5,134,93.6,134,93.8z"/>
	<path class="st0" d="M136.3,93.7c0,0.2-0.1,0.3-0.3,0.3c0,0,0,0,0,0c-0.2,0-0.3-0.1-0.3-0.3c0,0,0,0,0,0c0-0.2,0.1-0.3,0.3-0.3
		C136.1,93.4,136.2,93.5,136.3,93.7z"/>
	<path class="st0" d="M138.4,93.5c0,0.2-0.1,0.3-0.3,0.3c0,0,0,0,0,0c-0.2,0-0.3-0.1-0.3-0.3c0,0,0,0,0,0c0-0.2,0.1-0.3,0.3-0.3
		c0,0,0,0,0,0C138.3,93.2,138.4,93.3,138.4,93.5C138.4,93.5,138.4,93.5,138.4,93.5z"/>
	<path class="st0" d="M140.6,93.2c0,0.2-0.1,0.3-0.3,0.3c0,0,0,0,0,0c-0.2,0-0.3-0.1-0.3-0.3c0,0,0,0,0,0c0-0.2,0.1-0.3,0.3-0.3
		c0,0,0,0,0,0C140.5,92.9,140.6,93,140.6,93.2L140.6,93.2z"/>
	<path class="st0" d="M142.9,92.9c0,0.2-0.1,0.3-0.3,0.3c0,0,0,0,0,0c-0.2,0-0.3-0.1-0.3-0.3c0,0,0,0,0,0c0-0.2,0.1-0.3,0.3-0.3
		c0,0,0,0,0,0C142.7,92.5,142.9,92.7,142.9,92.9C142.9,92.9,142.9,92.9,142.9,92.9z"/>
	<path class="st0" d="M145.1,92.5c0,0.2-0.1,0.3-0.3,0.3c-0.2,0-0.3-0.1-0.3-0.3c0-0.2,0.1-0.3,0.3-0.3
		C144.9,92.2,145.1,92.3,145.1,92.5z"/>
	<path class="st0" d="M147.3,91.9c0,0.2-0.1,0.3-0.3,0.3c-0.2,0-0.3-0.1-0.3-0.3c0-0.2,0.1-0.3,0.3-0.3
		C147.2,91.5,147.3,91.7,147.3,91.9C147.3,91.9,147.3,91.9,147.3,91.9z"/>
	<path class="st0" d="M149.7,91.3c0,0.2-0.1,0.3-0.3,0.3c0,0,0,0,0,0c-0.2,0-0.3-0.1-0.3-0.3c0-0.2,0.1-0.3,0.3-0.3c0,0,0,0,0,0
		C149.5,91,149.7,91.1,149.7,91.3z"/>
	<path class="st0" d="M151.9,90.5c0,0.2-0.1,0.3-0.3,0.3c0,0,0,0,0,0c-0.2,0-0.3-0.1-0.3-0.3c0,0,0,0,0,0c0-0.2,0.1-0.3,0.3-0.3
		c0,0,0,0,0,0C151.7,90.2,151.9,90.3,151.9,90.5z"/>
	<path class="st0" d="M154.2,89.5c0,0.2-0.1,0.3-0.3,0.3c-0.2,0-0.3-0.1-0.3-0.3c0-0.2,0.1-0.3,0.3-0.3
		C154,89.2,154.2,89.4,154.2,89.5z"/>
	<path class="st0" d="M129.4,59.6c0,0.2-0.1,0.4-0.3,0.4c-0.2,0-0.4-0.1-0.4-0.3c0,0,0-0.1,0-0.1c0-0.2,0.1-0.4,0.3-0.4
		C129.2,59.2,129.4,59.3,129.4,59.6C129.4,59.5,129.4,59.5,129.4,59.6z"/>
	<path class="st0" d="M131.8,59.8c0,0.2-0.2,0.3-0.3,0.3l0,0c-0.2,0-0.3-0.1-0.4-0.3c0-0.2,0.1-0.3,0.3-0.4
		C131.6,59.4,131.8,59.6,131.8,59.8C131.8,59.8,131.8,59.8,131.8,59.8z"/>
	<path class="st0" d="M134.2,59.8c0,0.2-0.2,0.3-0.3,0.3c-0.2,0-0.3-0.2-0.3-0.3c0,0,0,0,0,0c0-0.2,0.2-0.3,0.3-0.3
		C134,59.5,134.2,59.6,134.2,59.8C134.2,59.8,134.2,59.8,134.2,59.8z"/>
	<path class="st0" d="M136.5,59.8c0,0.2-0.1,0.4-0.3,0.4c-0.2,0-0.4-0.1-0.4-0.3c0-0.2,0.1-0.4,0.3-0.4c0,0,0,0,0,0
		C136.4,59.4,136.5,59.6,136.5,59.8C136.5,59.8,136.5,59.8,136.5,59.8z"/>
	<path class="st0" d="M138.9,59.6c0,0.2-0.1,0.3-0.3,0.4c0,0,0,0,0,0c-0.2,0-0.4-0.2-0.4-0.4c0-0.2,0.2-0.3,0.4-0.4
		C138.8,59.2,138.9,59.4,138.9,59.6z"/>
	<path class="st0" d="M141.1,59.3c0,0.2-0.2,0.3-0.3,0.4c-0.2,0-0.3-0.2-0.4-0.4c0-0.2,0.2-0.3,0.4-0.3
		C140.9,59,141.1,59.1,141.1,59.3L141.1,59.3z"/>
	<path class="st0" d="M143.9,58.9c0,0.2-0.1,0.3-0.3,0.4c0,0,0,0,0,0c-0.2,0-0.3-0.2-0.3-0.3c0,0,0,0,0,0c0-0.2,0.1-0.3,0.3-0.3
		c0,0,0,0,0,0C143.7,58.5,143.9,58.7,143.9,58.9L143.9,58.9z"/>
	<path class="st0" d="M146.5,58.3c0,0.2-0.2,0.3-0.4,0.3c-0.2,0-0.3-0.2-0.3-0.3c0-0.2,0.1-0.3,0.3-0.4c0,0,0,0,0,0
		C146.3,57.9,146.4,58.1,146.5,58.3C146.5,58.3,146.5,58.3,146.5,58.3z"/>
	<path class="st0" d="M148.8,57.7c0,0.2-0.2,0.3-0.3,0.3c-0.2,0-0.3-0.2-0.3-0.3c0-0.2,0.2-0.3,0.3-0.3
		C148.7,57.3,148.8,57.5,148.8,57.7z"/>
	<path class="st0" d="M151,57c0,0.2-0.1,0.4-0.3,0.4c-0.2,0-0.4-0.1-0.4-0.3c0,0,0-0.1,0-0.1c0-0.2,0.1-0.4,0.3-0.4
		C150.8,56.6,151,56.7,151,57C151,56.9,151,57,151,57z"/>
	<path class="st0" d="M153.1,56.1c0,0.2-0.1,0.4-0.3,0.4c-0.2,0-0.4-0.1-0.4-0.3c0,0,0-0.1,0-0.1c0-0.2,0.2-0.3,0.4-0.3
		C153,55.8,153.1,55.9,153.1,56.1z"/>
	<path class="st0" d="M154.1,62.7c-4.6,2.4-12.8,3.3-12.9,3.3c-0.2,0-0.3,0.2-0.3,0.3c0,0.2,0.2,0.3,0.3,0.3c0.4,0,7.9-0.9,12.7-3.2
		c0,0.7,0.4,6.1,0.4,6.5c-1.1,0.5-7.1,2.8-13.1,3.4c-0.1,0-0.3,0.1-0.3,0.3l0,0c0,0.2,0.1,0.3,0.3,0.3c0,0,0,0,0,0
		c4.6-0.6,9.1-1.8,13.4-3.5l0.2-0.1l-0.5-7.7L154.1,62.7z"/>
	<path class="st0" d="M113.4,62.7c4.6,2.4,12.9,3.4,13,3.4c0.2,0,0.3,0.2,0.3,0.3c0,0.2-0.2,0.3-0.3,0.3c-0.4,0-8-0.9-12.8-3.3
		c-0.1,0.7-0.4,6.1-0.4,6.5c1.1,0.5,7.1,2.8,13.1,3.4c0.1,0,0.3,0.1,0.3,0.3l0,0c0,0.2-0.1,0.3-0.3,0.3c0,0,0,0,0,0
		c-4.6-0.6-9.1-1.8-13.4-3.5l-0.2-0.1l0.5-7.7L113.4,62.7z"/>
	<path class="st0" d="M155,76.3c-4.6,2.4-13.7,3.3-13.8,3.3c-0.2,0-0.3,0.2-0.3,0.3c0,0.2,0.1,0.3,0.3,0.3c0,0,0,0,0,0
		c0.4,0,8.8-0.8,13.6-3.2c0,0.7,0.4,6.1,0.4,6.5c-1.1,0.5-7.4,3-13.3,3.4c-0.2,0-0.3,0.1-0.3,0.3v0c0,0.2,0.1,0.3,0.3,0.3
		c6.5-0.4,13.6-3.5,13.7-3.5l0.2-0.1l-0.5-7.7L155,76.3z"/>
	<path class="st0" d="M112.5,76.3c4.6,2.4,13.7,3.3,13.8,3.3c0.2,0,0.3,0.2,0.3,0.3c0,0.2-0.2,0.3-0.3,0.3c-0.4,0-8.8-0.8-13.6-3.2
		c0,0.7-0.4,6.1-0.4,6.5c1.1,0.5,7.5,3,13.3,3.4c0.2,0,0.3,0.1,0.3,0.3v0c0,0.2-0.1,0.3-0.3,0.3c0,0,0,0,0,0
		c-6.5-0.4-13.6-3.5-13.7-3.5l-0.2-0.1l0.5-7.7L112.5,76.3z"/>
	<path class="st0" d="M129.1,68.3l2.4-0.1c1.1-0.2,0.9-1.6,0.9-1.6c0-1.1-0.6-0.9-1.1-1.1s-2,0.1-2,0.1c-0.9-0.1-0.6-0.7-0.6-0.7
		c0-1.1-0.9-1.1-0.9-1.1c-0.9-0.1-0.9,1.6-0.9,1.6l0,6c0,0,0.1,0.7,0.1,1.1s0.7,0.6,1,0.6c0.2,0,0.4,0,0.6-0.2l1.4,0
		c1.4-0.1,1.7-0.6,1.9-1.1v-0.1c0.1-0.5,0.1-1,0-1.5c-0.3-1.3-2.9-0.9-2.9-0.9c-0.8,0.1-0.7-0.5-0.7-0.5
		C128.4,68.3,129.1,68.3,129.1,68.3z M129.1,70.6h0.9c0.3,0,0.6,0.2,0.7,0.5c0,0.3-0.2,0.6-0.5,0.7c0,0-0.1,0-0.1,0h-1
		c-0.3,0-0.6-0.2-0.7-0.5c0-0.3,0.2-0.6,0.5-0.7C129,70.6,129,70.6,129.1,70.6L129.1,70.6z M128.5,67c0-0.4,0.3-0.6,0.7-0.6h1
		c0.3,0,0.7,0.2,0.7,0.6c0,0.3-0.2,0.7-0.6,0.7c0,0-0.1,0-0.1,0h-1C128.9,67.7,128.5,67.4,128.5,67C128.5,67.1,128.5,67.1,128.5,67
		L128.5,67z"/>
	<path class="st0" d="M134.6,65l5.3,0.1c0,0,0.9,0.1,0.9,0.8c0,0-0.1,1-0.9,1l-1.4,0.1c0,0-0.5-0.1-0.5,0.6c0,0-0.1,0.6,0.7,0.7
		c0,0,2.2,0.1,2.4,1c0.5,0.8,0.6,1.7,0.2,2.6c0,0-0.7,1.7-1.3,0l-0.2-1.1l-0.1-0.4c-0.2-0.4-0.6-0.6-1-0.6c0,0-0.8-0.1-0.8,1
		l-0.1,1.8c0,0-0.3,1.1-0.9,1.1c0,0-1,0.1-1-1.4l-0.1-1.8c0,0,0.2-0.7-0.9-0.7c0,0-1-0.1-1,1.3l-0.1,0.8c0,0-0.2,0.8-0.7,0.8
		c0,0-0.8,0.2-0.7-1.2l0-1.7c0,0,0.3-1.2,1.4-1.3l0.8,0c0,0,1.1,0.1,1.2-0.9c-0.1-0.5-0.5-0.8-1-0.7l-1.3,0c0,0-0.7,0.1-0.6-0.9
		c0,0-0.1-0.8,1.2-0.8L134.6,65z"/>
	<path class="st0" d="M128.9,78.1l2.7,0.1c0,0,0.9-1.8,1.9-1.8c0,0,1-0.1,1.8,1.8l3.9-0.1c0,0,1.7,0,1.9,1.3l0.6,2.2
		c0,0,0.6,3.6,1.6,5.5c0,0,0.9,0.8,0.2,1.4c0,0-0.9,0.9-2-1.1c0,0-1-1.2-2.2-6.7c0,0,0.1-1.2-0.9-1.1l-2.4,0.1c0.5,1.5,1,3,1.3,4.6
		c0.2,0.8,0.5,1.6,0.8,2.3c0,0,0.5,1.2-0.4,1.6c-0.8,0.1-1.5-0.5-1.6-1.3l-1.3-4.7l-0.6-1.9c0,0-0.5-1.2-0.9-0.2l-0.5,2
		c0,0-0.9,4.4-1.7,5.4c0,0-1,1.3-1.6,0.8c0,0-1-0.5-0.1-1.9c0.5-1.1,0.9-2.3,1.1-3.6l0.6-3.1l-2-0.1c0,0-0.5-0.4-0.8,0.9l-1.1,3.6
		l-1,2.7l-0.1,1c-0.1,0.2-0.3,0.3-0.5,0.4c-0.3,0.2-0.7,0.3-1,0.2c-0.2-0.1-0.6-0.3-0.6-0.5c0-0.4,0.1-0.7,0.2-1.1
		c0-0.1,0.5-1.2,0.5-1.2l1.6-4.9l0.5-1.8c0.3-0.4,0.8-0.8,1.3-0.9l0.8-0.1L128.9,78.1z"/>
	<path class="st0" d="M134.4,97.1c-0.1,0.1-0.1,0.2,0,0.3c2.4,2,5.3,3.3,8.3,3.7c0.1,0,0.2-0.1,0.2-0.2c0-0.1-0.1-0.2-0.2-0.2
		c-3-0.4-5.9-1.6-8.2-3.6C134.6,97,134.5,97,134.4,97.1z"/>
	<path class="st0" d="M131.9,94c-0.1,0.1-0.1,0.2-0.1,0.3c0.3,0.6,0.7,1.2,1.2,1.7c0.1,0.1,0.2,0.1,0.3,0c0.1-0.1,0.1-0.2,0-0.3
		c0,0,0,0,0,0c-0.4-0.5-0.8-1.1-1.2-1.6C132.1,94,132,94,131.9,94z"/>
	<path class="st0" d="M133.8,97.7c-0.1,0.1-0.1,0.2,0,0.3c1.9,1.7,5.1,3.8,9.1,4.2c0.1,0,0.2-0.1,0.2-0.2c0,0,0,0,0,0
		c0-0.1-0.1-0.2-0.2-0.2c0,0,0,0,0,0c-3.9-0.4-7-2.4-8.9-4.1C133.9,97.6,133.8,97.6,133.8,97.7z"/>
	<path class="st0" d="M130.6,94.1c-0.1,0-0.1,0.2-0.1,0.3c0,0,0,0,0,0c0.5,0.8,1.2,1.5,1.8,2.2c0.1,0.1,0.2,0.1,0.3,0c0,0,0,0,0,0
		c0.1-0.1,0.1-0.2,0-0.3c-0.7-0.7-1.3-1.4-1.8-2.2C130.8,94.1,130.7,94.1,130.6,94.1z"/>
	<path class="st0" d="M133,98.3c-0.1,0.1-0.1,0.2,0,0.3c0,0,0,0,0,0c2.8,2.5,6.3,4,10,4.4c0.1,0,0.2-0.1,0.2-0.2
		c0-0.1-0.1-0.2-0.2-0.2c0,0,0,0,0,0c-3.6-0.4-7.1-1.9-9.8-4.3C133.2,98.2,133.1,98.2,133,98.3z"/>
	<path class="st0" d="M129.3,94c-0.1,0.1-0.1,0.2-0.1,0.3c0.7,1.1,1.5,2.1,2.4,3c0.1,0.1,0.2,0.1,0.3,0c0,0,0,0,0,0
		c0.1-0.1,0.1-0.2,0-0.3c0,0,0,0,0,0c-0.9-0.9-1.7-1.9-2.3-2.9C129.5,94,129.4,93.9,129.3,94z"/>
	<path class="st0" d="M136.5,100.9c-0.1,0.5-0.1,1.1,0.1,1.7c1.1,2.5,3.9,2.7,4,2.7c0.5,0.2,1.1-0.2,1.3-0.7c0,0,0,0,0,0
		c0-0.3-0.1-0.7-0.3-0.9c-0.3-0.2-0.6-0.4-0.9-0.4c0,0-2.2-0.1-2.2-1.5c0-0.1-0.1-0.2-0.2-0.2c-0.1,0-0.2,0.1-0.2,0.2c0,0,0,0,0,0
		c0,1.7,2.5,1.9,2.6,1.9c0.2,0,0.5,0.1,0.7,0.2c0.1,0.2,0.2,0.4,0.2,0.6c-0.1,0.3-0.5,0.5-0.8,0.4c0,0,0,0,0,0c0,0-2.7-0.2-3.7-2.5
		c-0.2-0.5-0.2-1-0.1-1.4c0-0.1-0.1-0.2-0.2-0.2C136.7,100.7,136.6,100.7,136.5,100.9C136.5,100.9,136.5,100.9,136.5,100.9z"/>
	<path class="st0" d="M137.1,101.2c0,0,0,3,3.9,3.2c0.1,0,0.2-0.1,0.2-0.2c0-0.1-0.1-0.2-0.2-0.2c-3.6-0.1-3.6-2.7-3.6-2.8
		c0-0.1-0.1-0.2-0.2-0.2C137.2,101,137.1,101.1,137.1,101.2z"/>
	<path class="st0" d="M140.2,97.2c-1.2,0.2-2.2,0.9-2.9,1.8c-0.1,0.1,0,0.2,0.1,0.3c0,0,0,0,0,0c0.1,0.1,0.2,0,0.3-0.1
		c0.7-0.9,1.6-1.5,2.7-1.7c1.4-0.3,3,0.2,4.6,1.3c0,0,1.3,1.1,2.3,1c0.3,0,0.6-0.2,0.7-0.4c0.1-0.2,0.2-0.4,0.2-0.6
		c0-0.4-0.4-0.8-1-1.1c0,0-1-0.7-2.6,0.4c0,0,0,0,0,0.1C143,97.3,141.5,97,140.2,97.2z M146.9,98.1c0.6,0.4,0.8,0.7,0.8,0.9
		c0,0.1,0,0.2-0.1,0.3c-0.1,0.2-0.3,0.3-0.5,0.3c-0.8,0.1-2-0.9-2-0.9c-0.1-0.1-0.2-0.1-0.3-0.2C146.1,97.5,146.8,98.1,146.9,98.1
		L146.9,98.1z"/>
	<path class="st0" d="M143.8,97.8c-0.1,0.1-0.1,0.2,0,0.3c0,0,0,0,0,0c0.1,0.1,0.2,0.1,0.3,0c0.6-0.5,2.2-1.6,3.9-0.2
		c0.6,0.6,0.6,1.6,0.1,2.2c0,0-0.6,0.9-2.3-0.2c-0.2-0.1-5.3-3.7-7.7-0.5c-0.1,0.1,0,0.2,0,0.3c0.1,0.1,0.2,0,0.3,0
		c2.2-2.9,7.1,0.5,7.2,0.6c2,1.3,2.8,0.1,2.8,0.1c1-1.4-0.2-2.7-0.2-2.7C146.2,95.9,144.3,97.3,143.8,97.8z"/>
	<path class="st0" d="M142.8,97.5c-0.1,0.1-0.1,0.2,0,0.3c0,0,0,0,0,0c0.1,0.1,0.2,0.1,0.3,0c3.2-2.9,5.6-0.3,5.7-0.2
		c1.5,1.7-0.2,3.2-0.3,3.3c-1.5,1.2-3.3-0.4-3.4-0.4c-3.8-2.9-6.1-0.7-6.1-0.7c-0.1,0.1-0.1,0.2,0,0.3c0.1,0.1,0.2,0.1,0.3,0
		c0,0,0,0,0,0c0.1-0.1,2.1-1.9,5.6,0.7c0,0,2.1,1.8,3.9,0.4c0,0,2.1-1.8,0.4-3.8C149,97.3,146.4,94.3,142.8,97.5z"/>
	<path class="st0" d="M144.3,93.8c-0.2,0-0.4,0.2-0.6,0.4c-0.1,0.3-0.1,0.7,0,1c0.2,0.5,0.2,1.1-0.1,1.6c-0.1,0.1,0,0.2,0,0.3
		c0,0,0,0,0,0c0.1,0.1,0.2,0,0.3,0c0,0,0,0,0,0c0,0,0.4-0.7,0.1-1.9c-0.1-0.2-0.1-0.5,0-0.7c0.1-0.1,0.2-0.2,0.3-0.2
		c0.2,0,0.5,0,0.7,0.2c0.4,0.3,0.6,0.9,0.7,1.8c0,0.1,0.1,0.2,0.2,0.2c0,0,0,0,0,0c0.1,0,0.2-0.1,0.2-0.2c0,0,0,0,0,0
		c-0.1-1-0.4-1.7-0.8-2.1C145,93.8,144.7,93.7,144.3,93.8z"/>
	<path class="st0" d="M144.2,94c-0.1,0.1-0.1,0.2,0,0.3c0,0,0,0,0,0c0.4,0.4,0.6,1.7,0.7,2.2c0,0.1,0.1,0.2,0.2,0.2
		c0.1,0,0.2-0.1,0.2-0.2c0,0,0,0,0,0c0-0.2-0.3-1.8-0.8-2.4C144.4,93.9,144.3,93.9,144.2,94C144.2,94,144.2,94,144.2,94z"/>
	<path class="st0" d="M151,94.1c-2.1,1-1.6,4.3-1.6,4.4c0,0.1,0.1,0.2,0.2,0.2c0.1,0,0.2-0.1,0.2-0.2c0,0-0.4-3.2,1.4-4
		c0.2-0.1,0.9-0.2,1.2,0.1c0.1,0.1,0.1,0.2,0.1,0.3c0,0.2-0.1,0.4-0.1,0.6c-0.1,0.2-1,1.3-1.1,3.4c0,0,0,1.7-1,2.3
		c-0.5,0.3-1.2,0.3-2.1,0c-0.1,0-0.2,0-0.3,0.1c0,0.1,0,0.2,0.1,0.3c1,0.4,1.8,0.4,2.5,0c1.1-0.7,1.1-2.5,1.1-2.6
		c0-1.1,0.3-2.3,1-3.2h0v0c0.2-0.6,0.2-1,0-1.3C152.1,93.9,151.1,94.1,151,94.1z"/>
	<path class="st0" d="M152.3,94.4c-0.6,0.1-1.1,0.4-1.5,0.9c-0.4,0.6-0.6,1.4-0.6,2.2c0,0.3,0,0.6,0.1,1c0,0.6-0.2,1.1-0.6,1.5
		c-0.2,0.2-0.4,0.3-0.7,0.3c-0.1,0-0.2,0.1-0.2,0.2c0,0,0,0,0,0c0,0.1,0.1,0.2,0.1,0.2c0,0,0,0,0,0c0.4,0,0.7-0.1,1-0.4
		c0.5-0.5,0.7-1.1,0.7-1.8l0,0l0,0c0,0-0.3-1.8,0.4-2.9c0.3-0.4,0.7-0.7,1.2-0.7c0.1,0,0.2-0.1,0.2-0.2c0,0,0,0,0,0
		C152.6,94.5,152.5,94.4,152.3,94.4C152.4,94.4,152.4,94.4,152.3,94.4z"/>
	<path class="st0" d="M142.7,99.2c-0.1,0-0.2,0.1-0.2,0.2c0,1.3,0.2,2.6,0.6,3.9c0,0.1,1.4,2.7,0.2,3.8c-0.1,0.1-0.1,0.2,0,0.3
		c0.1,0.1,0.2,0.1,0.3,0c1.4-1.4,0-4.1-0.1-4.3c-0.4-1.2-0.6-2.5-0.6-3.8C142.9,99.3,142.9,99.2,142.7,99.2
		C142.8,99.2,142.7,99.2,142.7,99.2z"/>
	<path class="st0" d="M143.6,99.8c-0.1,0.3-0.1,0.6-0.1,0.8c0.1,1.2,0.4,2.5,1,3.6c0.1,0.5,0.2,1,0.2,1.5c0,1.7-0.9,2.2-0.9,2.3
		c-0.1,0.1-0.1,0.2-0.1,0.3c0.1,0.1,0.2,0.1,0.3,0.1c0.1,0,1.6-1,0.9-4.2v0l0,0c0,0-1.3-2.6-0.9-4.1c0-0.1,0-0.2-0.1-0.2
		C143.8,99.6,143.6,99.7,143.6,99.8C143.6,99.8,143.6,99.8,143.6,99.8z"/>
	<path class="st0" d="M144.4,100.4c0,1.2,0.2,2.3,0.6,3.4c0,0,1.4,3.2-0.7,4.8c-0.1,0.1-0.1,0.2,0,0.3c0,0,0,0,0,0
		c0.1,0.1,0.2,0.1,0.3,0c2.4-1.8,0.9-5.2,0.9-5.2c-0.4-1-0.6-2.1-0.6-3.2c0-0.1-0.1-0.2-0.2-0.2
		C144.5,100.2,144.4,100.3,144.4,100.4C144.4,100.4,144.4,100.4,144.4,100.4z"/>
	<path class="st0" d="M145.3,103.7c-0.1,0-0.2,0.1-0.2,0.2c0,0.1,0.1,0.2,0.2,0.2c0,0,0,0,0,0c0.3-0.1,0.6,0,0.9,0.1
		c0.1,0.1,0.2,0,0.3-0.1c0.1-0.1,0-0.2,0-0.3c0,0,0,0,0,0C146.1,103.7,145.7,103.6,145.3,103.7z"/>
	<path class="st0" d="M145.4,104.8c0,0.1,0.1,0.2,0.2,0.2l0.5,0.1c0.1,0,0.2-0.1,0.2-0.2c0,0,0,0,0,0c0-0.1-0.1-0.2-0.2-0.2
		l-0.5-0.1C145.5,104.6,145.5,104.7,145.4,104.8z"/>
	<path class="st0" d="M145.5,105.8c0,0.1,0.1,0.2,0.2,0.2c0,0,0,0,0,0l0.5,0c0.1,0,0.2-0.1,0.2-0.2c0,0,0,0,0,0
		c0-0.1-0.1-0.2-0.2-0.2l-0.5,0C145.6,105.6,145.5,105.7,145.5,105.8C145.5,105.8,145.5,105.8,145.5,105.8z"/>
	<path class="st0" d="M155,97.8c-1.4,0.3-2.3,2-2.4,2.1l0,0l0,0c-0.5,1.7-3.1,2.1-3.2,2.1c-2.8,0.2-3.4,2.2-3.4,2.3
		c-0.3,1.9,0.8,3.7,2.5,4.3c2.5,1.2,3.1,2.8,3.1,2.8c1.4,3.1,3.4,4.2,3.5,4.2l0,0l0.4,0.2c0.4,0.3,1,0.5,1.5,0.4
		c0.3-0.1,0.7-0.3,0.9-0.5c0.2-0.3,0.3-0.7,0.1-1c-0.2-0.4-0.6-0.7-1-0.8c-2.2-0.7-3.8-4.1-3.8-4.1c-0.7-1.3-1.8-2.3-3.2-2.9l0,0
		l0,0c-0.8-0.2-1.4-0.8-1.5-1.6c-0.1-0.3-0.1-0.5,0-0.8c0.4-0.6,1.5-0.7,1.5-0.7c3-0.1,4.3-2,4.3-2.1c0.5-1.2,1.1-1.4,1.1-1.4
		c0.5-0.1,0.9-0.5,1.1-0.9c0.1-0.4,0.1-0.8-0.1-1.1v0l0,0C156.2,97.8,155.6,97.7,155,97.8z M155.1,98.2c0.4-0.1,0.8,0,1.2,0.3
		c0.1,0.1,0.1,0.3,0.1,0.4c0,0.1,0,0.2,0,0.3c-0.2,0.4-0.5,0.6-0.9,0.7c0,0-0.6,0.3-1.2,1.6c0,0-1.2,1.8-4,1.9
		c-0.1,0-1.3,0.2-1.8,0.9c-0.2,0.3-0.2,0.7-0.1,1.1c0.2,1,0.9,1.7,1.9,1.9h0c1.2,0.6,2.3,1.5,3,2.7c0.1,0.1,1.7,3.6,4,4.3
		c0,0,0.6,0.2,0.7,0.6c0.1,0.2,0,0.5-0.1,0.7c0,0-0.6,0.9-1.9,0l-0.4-0.2c0,0-2-1.1-3.3-4c0-0.1-0.6-1.7-3.3-3
		c-1.6-0.6-2.6-2.2-2.3-3.9c0,0,0.6-1.8,3.1-2c0.1,0,3-0.4,3.5-2.4v0C153,100.1,153.9,98.4,155.1,98.2L155.1,98.2z"/>
	<path class="st0" d="M156.2,98c-1.2,0.7-2.2,1.7-2.9,2.9c0,0-1,1.5-3.6,1.7c0,0-2.7,0.1-2.7,2.6c0.2,1.3,1.1,2.4,2.4,2.8
		c0,0,2.7,1.1,3.4,3.3l0,0l0,0c0.1,0.2,2.6,4.1,4.7,4.8c0.1,0,0.2,0,0.2-0.1c0,0,0,0,0-0.1c0-0.1-0.1-0.2-0.1-0.2
		c-2-0.6-4.5-4.5-4.5-4.6c-0.8-2.3-3.5-3.4-3.6-3.5c-1.1-0.3-2-1.3-2.1-2.4v-0.1c0-2.1,2.3-2.1,2.3-2.1c2.9-0.3,3.9-1.9,3.9-1.9
		c0.6-1.1,1.6-2.1,2.7-2.7c0.1,0,0.1-0.1,0.1-0.2c0,0,0-0.1,0-0.1C156.4,98,156.3,98,156.2,98z"/>
	<path class="st0" d="M152.8,102.7c-0.5,1.6-0.6,2.8-0.1,3.5c0.3,0.4,0.7,0.6,1.2,0.7c0.9,0.1,1.3-0.9,1.4-1.4
		c0-0.3-0.1-0.7-0.4-0.7c-0.3-0.1-0.5,0.3-0.6,0.3c-0.1,0.1-0.2,0.2-0.3,0.2c-0.2,0-0.3,0-0.5-0.1c-0.2-0.2-0.1-0.7-0.1-0.9
		c0.1-0.3,0.3-0.6,0.6-0.7c0.5-0.1,1-0.1,1.4,0.1c1,0.7,1.3,2.1,0.6,3.1c-1.1,1.9-3.5,0.9-3.6,0.9c-1.9-0.9-1.4-4-1.4-4
		c0-0.1-0.1-0.2-0.2-0.2c-0.1,0-0.2,0-0.2,0.1c0,0,0,0,0,0c0,0.1-0.6,3.4,1.6,4.5c0,0,2.8,1.2,4.1-1c0,0,1.4-2.1-0.7-3.6
		c-0.5-0.3-1.2-0.3-1.7-0.1c-0.4,0.2-0.7,0.6-0.8,1c-0.1,0.4-0.1,0.9,0.1,1.3c0.2,0.2,0.5,0.3,0.8,0.2c0.2-0.1,0.4-0.2,0.6-0.4
		c0-0.1,0.1-0.1,0.2-0.2c0,0.1,0.1,0.2,0.1,0.3c0,0-0.2,1.1-1,1c-0.4,0-0.7-0.2-0.9-0.5c-0.4-0.6-0.4-1.7,0.1-3.1
		c0-0.1,0-0.2-0.1-0.2C152.9,102.5,152.8,102.6,152.8,102.7L152.8,102.7z"/>
	<path class="st0" d="M151.7,103.2c0,0-0.9,3.3,1.4,4.2c0,0,1.9,0.6,2.8-1.1c0-0.1,0.4-1.2-0.1-1.8c-0.3-0.4-0.8-0.5-1.2-0.5
		c-0.7,0-1.2,0.5-1.3,1.1c0,0.1,0.1,0.2,0.2,0.2c0,0,0,0,0,0c0.1,0,0.2-0.1,0.2-0.2c0,0,0,0,0,0c0-0.7,0.9-0.7,0.9-0.7
		c0.3-0.1,0.7,0.1,0.9,0.3c0.4,0.5,0.1,1.4,0.1,1.4c-0.5,0.8-1.4,1.2-2.3,0.9c-1.9-0.8-1.1-3.7-1.1-3.8c0-0.1,0-0.2-0.1-0.2
		c0,0,0,0,0,0C151.9,103.1,151.8,103.1,151.7,103.2C151.7,103.2,151.7,103.2,151.7,103.2z"/>
	<path class="st0" d="M147.6,111.3c0,0.1-0.3,1.8,0.4,2.7c0.2,0.3,0.6,0.5,0.9,0.5c0.4,0.1,0.7-0.1,1-0.3c0.3-0.4,0.3-0.9,0.1-1.3
		c-0.2-0.5-0.1-1,0.4-1.3c0,0,0.6-0.4,1.5,0.4c0.1,0.1,0.2,0.1,0.3,0s0.1-0.2,0-0.3l0,0c-1.2-1.1-2-0.5-2-0.5
		c-0.6,0.4-0.8,1.1-0.5,1.8c0.1,0.4,0.1,0.7,0,0.9c-0.2,0.1-0.4,0.2-0.6,0.2c-0.3,0-0.5-0.1-0.7-0.3c-0.6-0.7-0.3-2.3-0.3-2.4
		c0.5-1.9,2.4-1.5,2.5-1.5c0.1,0,0.2,0,0.2-0.1c0,0,0,0,0,0c0-0.1,0-0.2-0.1-0.2C150.5,109.5,148.2,109,147.6,111.3z"/>
	<path class="st0" d="M148.9,111c-0.6,1-0.4,2.3,0.5,3.1c0.1,0.1,0.2,0.1,0.3,0c0,0,0,0,0,0c0.1-0.1,0.1-0.2,0-0.3
		c-0.8-0.6-1-1.8-0.4-2.6c0.5-0.9,2.1-0.6,2.1-0.6c0.1,0,0.2-0.1,0.2-0.2c0-0.1,0-0.2-0.1-0.2c0,0,0,0,0,0
		C151.3,110.2,149.5,109.9,148.9,111z"/>
	<path class="st0" d="M143.6,103.9c-0.1,0-1.7,0.5-2.2,2c-0.3,1,0,2.1,1,3.4l0,0l0,0c0.5,0.4,1.6,1.4,1.5,2.1
		c-0.1,0.3-0.4,0.6-1,0.7c-0.1,0-0.7,0.4-0.8,0.9c0,0.3,0.1,0.6,0.4,0.8c0.1,0.1,1.8,0.9,3.1-0.3c0.5-0.6,0.8-1.4,0.8-2.2
		c-0.1-1.1-0.7-2-1.5-2.6c0,0-1-0.7-1.1-1.6c0-0.4,0.1-0.9,0.5-1.2c0.1-0.1,0.1-0.2,0-0.3c-0.1-0.1-0.2-0.1-0.3,0c0,0,0,0,0,0
		c-0.4,0.4-0.6,0.9-0.5,1.5c0.1,1.1,1.2,1.8,1.3,1.9c0.8,0.6,1.3,1.4,1.4,2.3c0,0.7-0.2,1.4-0.6,1.9c-1,1-2.5,0.2-2.6,0.2
		c-0.1-0.1-0.2-0.2-0.2-0.4c0,0,0,0,0,0c0-0.3,0.4-0.5,0.5-0.5c0.7-0.2,1.2-0.5,1.3-1c0-0.1,0-0.1,0-0.2c0-1-1.4-2.1-1.6-2.3
		c-0.6-0.7-0.9-1.5-1-2.4c0-0.2,0-0.4,0.1-0.7c0.4-1.2,1.9-1.7,1.9-1.7c0.1,0,0.1-0.1,0.1-0.2c0,0,0,0,0-0.1
		C143.8,104,143.7,103.9,143.6,103.9z"/>
	<path class="st0" d="M143.8,104.8c-0.7,0.2-1.2,0.7-1.5,1.4c-0.2,0.7-0.1,1.4,0.3,1.9c0.4,0.5,0.8,1,1.2,1.4c0,0,1.4,1.3,1.1,2.6
		c-0.1,0.7-0.7,1.2-1.8,1.6c-0.1,0-0.1,0.1-0.1,0.2c0,0,0,0,0,0c0,0.1,0.1,0.1,0.2,0.1c1.2-0.4,1.9-1.1,2-1.9
		c0.3-1.4-1.2-2.9-1.2-2.9c-0.4-0.4-0.8-0.8-1.2-1.3c-0.3-0.5-0.5-1-0.3-1.6c0.3-0.5,0.7-0.9,1.3-1.1c0.1,0,0.2-0.1,0.2-0.2
		C144.1,104.8,144,104.7,143.8,104.8C143.9,104.8,143.9,104.8,143.8,104.8L143.8,104.8z"/>
	<path class="st0" d="M138.4,105.6c-0.1,0.1,0,0.2,0,0.3c1.9,1.3,3.1,1.2,3.2,1.2c0.1,0,0.2-0.1,0.1-0.2c0-0.1-0.1-0.1-0.2-0.2
		c0,0-1.2,0.1-2.9-1.1C138.6,105.5,138.4,105.5,138.4,105.6z"/>
	<path class="st0" d="M138.1,106.3c0,0.1,0,0.2,0.1,0.3c1.1,0.6,2.3,1.1,3.5,1.4c0.1,0,0.2-0.1,0.2-0.2c0-0.1-0.1-0.2-0.2-0.2l0,0
		c-1.2-0.3-2.3-0.7-3.4-1.3C138.3,106.2,138.2,106.2,138.1,106.3z"/>
	<path class="st0" d="M137.7,107.1c-0.1,0.1,0,0.2,0.1,0.3c0,0,0,0,0,0c1.4,0.8,2.9,1.4,4.5,1.6c0.1,0,0.2,0,0.2-0.1
		c0-0.1,0-0.2-0.1-0.2c0,0,0,0-0.1,0c-2-0.2-4.3-1.5-4.3-1.6C137.9,107,137.8,107,137.7,107.1C137.7,107.1,137.7,107.1,137.7,107.1z
		"/>
	<path class="st0" d="M134.5,93.8c0,0.1-2.9,5.5-10.6,6.6c-0.1,0-0.2,0.1-0.2,0.2c0,0.1,0.1,0.2,0.2,0.2c7.9-1.1,10.9-6.7,10.9-6.8
		c0-0.1,0-0.2-0.1-0.3C134.7,93.6,134.6,93.7,134.5,93.8z"/>
	<path class="st0" d="M135.8,93.8c0,0.1-4.5,6.9-12.1,7.6c-0.1,0-0.2,0.1-0.2,0.2c0,0,0,0,0,0c0,0.1,0.1,0.2,0.2,0.2c0,0,0,0,0,0
		c7.7-0.7,12.3-7.7,12.3-7.7c0.1-0.1,0-0.2-0.1-0.3c0,0,0,0,0,0C136,93.7,135.9,93.7,135.8,93.8C135.8,93.8,135.8,93.8,135.8,93.8z"
		/>
	<path class="st0" d="M137.1,93.7c0,0.1-4.4,7.5-13.5,8.5c-0.1,0-0.2,0.1-0.2,0.2c0,0.1,0.1,0.2,0.2,0.2c9.3-1,13.7-8.6,13.8-8.7
		c0.1-0.1,0.1-0.2,0-0.3C137.3,93.6,137.2,93.6,137.1,93.7C137.1,93.7,137.1,93.7,137.1,93.7L137.1,93.7z"/>
	<path class="st0" d="M129.9,100.4c-0.1,0-0.2,0.1-0.1,0.2c0,0,0,0,0,0c0.1,0.5,0.1,1-0.1,1.4c-1,2.3-3.7,2.5-3.7,2.5
		c-0.4,0.1-0.7-0.1-0.9-0.4c0,0,0,0,0,0c0-0.2,0.1-0.4,0.2-0.6c0.2-0.2,0.4-0.2,0.6-0.2c0.1,0,2.6-0.2,2.6-1.9
		c0-0.1-0.1-0.2-0.2-0.2c-0.1,0-0.2,0.1-0.2,0.2c0,0,0,0,0,0c0,1.3-2.2,1.5-2.2,1.5c-0.3,0-0.7,0.1-0.9,0.3
		c-0.2,0.2-0.3,0.6-0.3,0.9c0.1,0.6,0.6,0.9,1.2,0.8c0,0,0.1,0,0.1,0c0.1,0,2.9-0.2,4-2.7c0.2-0.5,0.2-1.1,0.1-1.6
		C130.1,100.4,130,100.4,129.9,100.4z"/>
	<path class="st0" d="M129.4,100.7c-0.1,0-0.2,0.1-0.2,0.2c0,0.1,0,2.7-3.6,2.9c-0.1,0-0.2,0.1-0.2,0.2c0,0,0,0,0,0
		c0,0.1,0.1,0.2,0.2,0.2c4-0.2,4-3.2,4-3.3C129.6,100.8,129.5,100.7,129.4,100.7z"/>
	<path class="st0" d="M122.2,97.9C122.2,97.9,122.2,97.8,122.2,97.9c-1.6-1.2-2.6-0.5-2.7-0.5c-0.6,0.3-0.9,0.7-1,1.1
		c0,0.2,0,0.5,0.2,0.6c0.2,0.2,0.4,0.4,0.7,0.4c1,0.1,2.2-1,2.3-1c1.7-1.1,3.2-1.5,4.6-1.3c1.1,0.2,2,0.8,2.7,1.7
		c0,0.1,0.2,0.1,0.2,0.1c0,0,0,0,0,0c0.1,0,0.1-0.2,0.1-0.2c0,0,0,0,0,0c-0.7-0.9-1.7-1.6-2.9-1.8C125.2,96.7,123.8,97,122.2,97.9z
		 M119.6,99.2c-0.2,0-0.4-0.1-0.5-0.3c-0.1-0.1-0.1-0.2-0.1-0.3c0-0.2,0.2-0.5,0.8-0.8c0.1,0,0.8-0.6,2.1,0.3
		c-0.1,0.1-0.2,0.1-0.3,0.2C121.6,98.3,120.4,99.3,119.6,99.2z"/>
	<path class="st0" d="M118.5,97.3c0,0-1.3,1.3-0.2,2.7c0,0,0.8,1.2,2.8-0.1c0.1,0,5-3.5,7.2-0.6c0.1,0.1,0.2,0.1,0.3,0c0,0,0,0,0,0
		c0.1-0.1,0.1-0.2,0-0.3c-2.4-3.2-7.5,0.4-7.7,0.5c-1.7,1-2.2,0.2-2.3,0.2c-0.5-0.7-0.5-1.7,0.1-2.3c1.7-1.5,3.3-0.4,3.9,0.2
		c0.1,0.1,0.2,0.1,0.3,0c0,0,0,0,0,0c0.1-0.1,0.1-0.2,0-0.3C122.4,97,120.5,95.6,118.5,97.3z"/>
	<path class="st0" d="M117.6,97c-1.7,2,0.3,3.8,0.3,3.8c1.8,1.4,3.9-0.4,3.9-0.4c3.5-2.6,5.5-0.8,5.6-0.7c0.1,0.1,0.2,0.1,0.3,0
		c0.1-0.1,0.1-0.2,0-0.3c0,0-2.3-2.2-6.1,0.6c-0.1,0.1-1.8,1.6-3.4,0.4c-0.1-0.1-1.7-1.6-0.3-3.3c0.1-0.1,2.4-2.7,5.7,0.2
		c0.1,0.1,0.2,0.1,0.3,0c0.1-0.1,0.1-0.2,0-0.3l0,0C120.3,94,117.7,97,117.6,97z"/>
	<path class="st0" d="M121.4,93.7c-0.5,0.3-0.8,1-0.8,2c0,0.1,0.1,0.2,0.2,0.2c0.1,0,0.2-0.1,0.2-0.2c0.1-0.9,0.3-1.5,0.7-1.8
		c0.2-0.1,0.4-0.2,0.7-0.2c0.1,0,0.2,0.1,0.3,0.2c0.1,0.2,0.1,0.4,0,0.7c-0.3,1.3,0.1,1.9,0.1,2c0.1,0.1,0.2,0.1,0.3,0
		c0.1-0.1,0.1-0.2,0.1-0.3c-0.2-0.5-0.2-1.1,0-1.6c0.1-0.3,0.1-0.6,0-0.9c-0.1-0.2-0.3-0.4-0.6-0.4C122,93.4,121.7,93.5,121.4,93.7z
		"/>
	<path class="st0" d="M122.2,93.7c-0.5,0.6-0.7,2.2-0.8,2.4c0,0.1,0,0.2,0.1,0.2c0.1,0,0.2,0,0.2-0.1c0,0,0,0,0,0
		c0.1-0.5,0.3-1.7,0.7-2.2c0.1-0.1,0.1-0.2,0-0.3C122.4,93.6,122.3,93.6,122.2,93.7C122.2,93.7,122.2,93.7,122.2,93.7z"/>
	<path class="st0" d="M114.1,94c-0.3,0.3-0.3,0.7,0,1.3v0v0c0,0,1,1,1,3.1c0,0.1,0,1.9,1.1,2.6c0.6,0.4,1.5,0.4,2.5,0
		c0.1,0,0.1-0.2,0.1-0.2c0-0.1-0.1-0.1-0.2-0.1c-0.9,0.4-1.6,0.4-2.1,0c-1-0.6-1-2.3-1-2.3c0-1.2-0.3-2.4-1-3.4
		c-0.1-0.2-0.1-0.4-0.1-0.6c0-0.1,0-0.2,0.1-0.3c0.3-0.3,1-0.2,1.2-0.1c1.7,0.8,1.3,4,1.3,4c0,0.1,0.1,0.2,0.2,0.2
		c0.1,0,0.2-0.1,0.2-0.2c0,0,0,0,0,0c0-0.1,0.5-3.4-1.5-4.4C115.6,93.8,114.6,93.5,114.1,94z"/>
	<path class="st0" d="M114.1,94.2c0,0.1,0.1,0.2,0.2,0.2c0.5,0.1,0.9,0.3,1.2,0.7c0.8,1.1,0.4,2.9,0.4,2.9v0c0,0.7,0.2,1.3,0.7,1.8
		c0.3,0.2,0.6,0.4,1,0.4c0.1,0,0.2-0.1,0.2-0.2c0-0.1-0.1-0.2-0.2-0.2c-0.3,0-0.5-0.1-0.7-0.3c-0.4-0.4-0.6-1-0.6-1.5
		c0-0.3,0.1-0.6,0.1-1c0-0.8-0.2-1.5-0.6-2.1c-0.3-0.5-0.9-0.8-1.5-0.9C114.2,94.1,114.2,94.1,114.1,94.2z"/>
	<path class="st0" d="M123.8,99.1c0,1.3-0.2,2.6-0.6,3.8c-0.1,0.1-1.5,2.9-0.1,4.2c0.1,0.1,0.2,0.1,0.3,0c0.1-0.1,0.1-0.2,0-0.3
		c0,0,0,0,0,0c-1.2-1.2,0.2-3.8,0.2-3.8c0.4-1.3,0.6-2.6,0.6-4c0-0.1-0.1-0.2-0.2-0.2C123.9,98.9,123.8,99,123.8,99.1
		C123.8,99.1,123.8,99.1,123.8,99.1z"/>
	<path class="st0" d="M122.9,99.3c-0.1,0-0.2,0.1-0.1,0.2c0,0,0,0,0,0c0.4,1.6-0.9,4.1-0.9,4.1v0l0,0c-0.8,3.2,0.8,4.2,0.9,4.2
		c0.1,0.1,0.2,0,0.3,0c0,0,0-0.1,0-0.1c0-0.1,0-0.1-0.1-0.2c0,0-0.9-0.6-0.9-2.3c0-0.5,0.1-1,0.2-1.5c0.6-1.1,0.9-2.3,1-3.6
		c0-0.3,0-0.6-0.1-0.8C123.1,99.3,123,99.3,122.9,99.3z"/>
	<path class="st0" d="M122.1,99.9c-0.1,0-0.2,0.1-0.2,0.2c0,0,0,0,0,0c0,1.1-0.2,2.2-0.6,3.2c0,0-1.5,3.5,0.8,5.2
		c0.1,0.1,0.2,0,0.3,0c0,0,0,0,0,0c0.1-0.1,0-0.2,0-0.3c0,0,0,0,0,0c-2.1-1.5-0.7-4.7-0.7-4.8c0.5-1.1,0.7-2.2,0.6-3.4
		C122.3,99.9,122.2,99.9,122.1,99.9z"/>
	<path class="st0" d="M120.2,103.5c-0.1,0.1-0.1,0.2,0,0.3c0,0,0,0,0,0c0.1,0.1,0.2,0.1,0.3,0.1c0,0,0,0,0,0
		c0.3-0.1,0.6-0.2,0.9-0.1c0.1,0,0.2,0,0.2-0.1c0,0,0,0,0,0c0-0.1,0-0.2-0.1-0.2c0,0,0,0,0,0C121,103.3,120.6,103.3,120.2,103.5z"/>
	<path class="st0" d="M121,104.3l-0.5,0.1c-0.1,0-0.2,0.1-0.2,0.2c0,0,0,0,0,0c0,0.1,0.1,0.2,0.2,0.2l0.5-0.1c0.1,0,0.2-0.1,0.2-0.2
		C121.2,104.3,121.1,104.3,121,104.3z"/>
	<path class="st0" d="M121,105.3l-0.5,0c-0.1,0-0.2,0.1-0.2,0.2c0,0.1,0.1,0.2,0.2,0.2l0.5,0c0.1,0,0.2-0.1,0.2-0.2
		S121.1,105.3,121,105.3L121,105.3z"/>
	<path class="st0" d="M110.1,97.8L110.1,97.8L110.1,97.8c-0.2,0.4-0.3,0.8-0.1,1.2c0.2,0.5,0.6,0.8,1.1,0.9c0.5,0.4,0.8,0.8,1,1.4
		c0.1,0.1,1.3,2,4.4,2.1c0,0,1.1,0.1,1.4,0.7c0.1,0.2,0.2,0.5,0.1,0.7c-0.1,0.8-0.7,1.5-1.5,1.7l0,0l0,0c-1.3,0.6-2.4,1.6-3.2,2.9
		c0,0-1.6,3.4-3.8,4.2c-0.4,0.1-0.8,0.4-1,0.8c-0.1,0.3-0.1,0.7,0.1,1c0.2,0.3,0.5,0.5,0.9,0.6c0.6,0.1,1.1-0.1,1.5-0.4l0.4-0.2l0,0
		c0.1,0,2.1-1.1,3.5-4.2c0,0,0.6-1.6,3.2-2.8c0,0,3-1,2.5-4.3c0-0.1-0.6-2.1-3.5-2.3c0,0-2.7-0.4-3.1-2.1v0l0,0c0-0.1-1-1.8-2.4-2.1
		C111.2,97.3,110.6,97.4,110.1,97.8z M111.6,97.8c1.2,0.3,2.1,1.9,2.1,1.9l0,0c0.5,2,3.4,2.4,3.5,2.4c2.5,0.2,3.1,2,3.1,2.1
		c0.3,1.7-0.7,3.3-2.3,3.8c-2.7,1.3-3.4,2.9-3.4,3c-1.4,2.9-3.3,4-3.3,4l-0.4,0.2c-1.3,0.9-1.9,0-1.9,0c-0.1-0.2-0.2-0.4-0.1-0.7
		c0.2-0.4,0.7-0.6,0.7-0.6c2.3-0.8,4-4.2,4-4.3c0.7-1.2,1.7-2.1,3-2.7h0c1.6-0.3,1.9-1.9,1.9-1.9c0.1-0.1,0.1-0.3,0.1-0.4
		c0-0.2-0.1-0.4-0.2-0.6c-0.5-0.7-1.7-0.9-1.7-0.9c-2.9-0.1-4.1-1.9-4.1-1.9c-0.6-1.3-1.2-1.5-1.2-1.6c-0.4-0.1-0.7-0.4-0.9-0.7
		c0-0.1-0.1-0.2-0.1-0.3c0-0.2,0-0.3,0.1-0.4C110.7,97.8,111.2,97.7,111.6,97.8L111.6,97.8z"/>
	<path class="st0" d="M110.2,97.8C110.2,97.8,110.2,97.8,110.2,97.8c0,0.2,0,0.2,0.1,0.3c0,0,1.9,1.1,2.7,2.7c0.1,0.1,1.1,1.7,3.9,2
		c0.1,0,2.3,0.1,2.3,2.2v0c-0.2,1.2-1,2.1-2.1,2.4c-0.1,0-2.8,1.2-3.6,3.5c0,0.1-2.5,4-4.5,4.6c-0.1,0-0.1,0.1-0.1,0.2
		c0,0,0,0,0,0.1c0,0.1,0.1,0.2,0.2,0.1c0,0,0,0,0,0c2.1-0.6,4.6-4.6,4.7-4.8v0c0.7-2.1,3.4-3.3,3.4-3.3c1.3-0.4,2.2-1.5,2.4-2.8
		c0-2.5-2.7-2.6-2.7-2.6c-2.6-0.2-3.6-1.7-3.6-1.8c-0.7-1.2-1.7-2.2-2.9-2.9C110.4,97.7,110.3,97.7,110.2,97.8z"/>
	<path class="st0" d="M113.7,102.2c-0.1,0-0.2,0.1-0.1,0.2c0,0,0,0,0,0c0.5,1.4,0.5,2.5,0.1,3.1c-0.2,0.3-0.5,0.5-0.9,0.5
		c-0.8,0.1-1-1-1-1c0-0.1,0-0.2,0.1-0.3c0.1,0,0.1,0.1,0.2,0.2c0.1,0.2,0.3,0.3,0.5,0.4c0.3,0.1,0.6,0,0.9-0.2
		c0.2-0.4,0.3-0.8,0.2-1.3c-0.1-0.4-0.4-0.8-0.9-1c-0.6-0.2-1.2-0.1-1.7,0.1c-2.1,1.5-0.7,3.6-0.7,3.7c1.3,2.2,4,1,4.1,1
		c2.2-1,1.7-4.3,1.6-4.4c0-0.1-0.1-0.2-0.2-0.2c-0.1,0-0.2,0.1-0.2,0.2c0,0,0,0,0,0c0,0,0.5,3.2-1.4,4c-0.1,0-2.5,1.1-3.6-0.8
		c-0.3-0.4-0.4-0.9-0.4-1.4c0-0.7,0.4-1.4,1-1.8c0.4-0.2,0.9-0.2,1.4-0.1c0.6,0.3,0.8,1,0.6,1.7c-0.1,0.1-0.3,0.2-0.5,0.1
		c-0.1,0-0.2-0.1-0.3-0.2c-0.1-0.1-0.3-0.4-0.6-0.4c-0.3,0.1-0.3,0.4-0.3,0.7c0.1,0.5,0.5,1.5,1.4,1.4c0.5,0,0.9-0.3,1.2-0.7
		c0.5-0.7,0.5-1.9-0.1-3.5C113.9,102.3,113.8,102.2,113.7,102.2C113.7,102.2,113.7,102.2,113.7,102.2z"/>
	<path class="st0" d="M114.7,102.7c-0.1,0-0.2,0.1-0.1,0.2c0,0,0,0,0,0c0,0,0.8,2.9-1.1,3.8c-0.9,0.3-1.9-0.1-2.3-0.9l0,0
		c-0.1-0.2-0.1-0.5-0.1-0.7c0-0.2,0.1-0.5,0.2-0.7c0.2-0.2,0.6-0.4,0.9-0.3c0,0,0.9,0,0.9,0.7c0,0.1,0.1,0.2,0.2,0.2
		c0.1,0,0.2-0.1,0.2-0.2c0,0,0,0,0,0c-0.1-0.7-0.6-1.1-1.3-1.1c-0.5-0.1-0.9,0.1-1.2,0.5c-0.5,0.6-0.1,1.7-0.1,1.8
		c0.6,1,1.7,1.5,2.8,1.1c2.2-1,1.4-4.2,1.4-4.2C114.9,102.8,114.8,102.7,114.7,102.7z"/>
	<path class="st0" d="M116.2,109.2c-0.1,0-0.2,0.1-0.1,0.2c0,0.1,0.1,0.2,0.2,0.1c0.1,0,2-0.4,2.5,1.5c0,0,0.3,1.6-0.3,2.3
		c-0.3,0.4-0.9,0.4-1.3,0.1c-0.1-0.2-0.1-0.5,0-0.9c0.3-0.6,0.1-1.4-0.5-1.8c0,0-0.8-0.6-2,0.5c-0.1,0.1-0.1,0.2,0,0.3
		c0.1,0.1,0.2,0.1,0.3,0c0.9-0.9,1.5-0.5,1.5-0.4c0.4,0.3,0.6,0.8,0.4,1.3c-0.2,0.4-0.2,0.9,0.1,1.3c0.3,0.2,0.6,0.4,1,0.3
		c0.3,0,0.7-0.2,0.9-0.5c0.7-0.8,0.4-2.6,0.4-2.7C118.5,108.6,116.2,109.2,116.2,109.2z"/>
	<path class="st0" d="M115.3,109.9c-0.1,0-0.2,0.1-0.1,0.2c0,0.1,0.1,0.2,0.2,0.2c0,0,0,0,0,0c0,0,1.6-0.3,2.1,0.6
		c0.5,0.9,0.3,2-0.4,2.6c-0.1,0.1-0.1,0.2,0,0.3c0,0,0,0,0,0c0.1,0.1,0.2,0.1,0.3,0c0,0,0,0,0,0c0.9-0.8,1.1-2.1,0.5-3.1
		C117.2,109.5,115.4,109.9,115.3,109.9z"/>
	<path class="st0" d="M122.8,103.7C122.8,103.7,122.8,103.8,122.8,103.7c0,0.1,0.1,0.2,0.1,0.2c0,0,1.5,0.5,1.9,1.7
		c0.1,0.2,0.1,0.4,0.1,0.6c-0.1,0.9-0.4,1.7-1,2.4c-0.2,0.2-1.6,1.3-1.6,2.3c0,0.1,0,0.1,0,0.2c0.1,0.5,0.5,0.8,1.3,1
		c0.1,0.1,0.4,0.3,0.5,0.5v0c0,0.2-0.1,0.3-0.2,0.4c0,0-1.5,0.8-2.6-0.2c-0.4-0.5-0.7-1.2-0.6-1.9c0.1-0.9,0.6-1.8,1.4-2.4
		c0,0,1.1-0.8,1.2-1.9c0-0.6-0.2-1.1-0.6-1.5c-0.1-0.1-0.2-0.1-0.3-0.1c-0.1,0.1-0.1,0.2-0.1,0.3c0,0,0,0,0,0
		c0.3,0.3,0.5,0.8,0.5,1.2c-0.1,0.6-0.5,1.2-1.1,1.6c-0.9,0.6-1.4,1.6-1.5,2.7c0,0.8,0.2,1.6,0.7,2.2c1.3,1.2,3,0.3,3,0.3
		c0.3-0.2,0.4-0.5,0.4-0.8c-0.1-0.5-0.7-0.8-0.7-0.8c-0.6-0.2-1-0.4-1-0.7c-0.1-0.7,1-1.8,1.5-2.1l0,0v0c1-1.3,1.3-2.4,1-3.4
		c-0.5-1.4-2.1-1.9-2.2-2C123,103.6,122.9,103.6,122.8,103.7z"/>
	<path class="st0" d="M122.6,104.6c0,0.1,0,0.2,0.1,0.2c0,0,0,0,0,0c0.6,0.2,1,0.6,1.3,1.1c0.1,0.5,0,1.1-0.3,1.5
		c-0.3,0.5-0.7,0.9-1.2,1.3c-0.1,0.1-1.5,1.5-1.2,2.9c0.2,0.8,0.9,1.4,2,1.9c0.1,0,0.2,0,0.3-0.1c0-0.1,0-0.2-0.1-0.2
		c-1-0.4-1.7-0.9-1.8-1.6c-0.3-1.2,1.1-2.5,1.1-2.6c0.5-0.4,0.9-0.9,1.2-1.4c0.4-0.5,0.5-1.3,0.3-1.9c-0.3-0.7-0.9-1.1-1.5-1.4
		C122.8,104.4,122.7,104.5,122.6,104.6C122.6,104.6,122.6,104.6,122.6,104.6z"/>
	<path class="st0" d="M130.7,104.9c-1.8,1.2-5.5,1.6-5.5,1.6c-0.1,0-0.2,0.1-0.2,0.2c0,0.1,0.1,0.2,0.2,0.2c0.2,0,3.8-0.4,5.7-1.7
		c0.1-0.1,0.1-0.2,0-0.3C130.9,104.8,130.8,104.8,130.7,104.9z"/>
	<path class="st0" d="M132.4,104.6c0,0-3.2,2.9-7.4,2.7c-0.1,0-0.2,0.1-0.2,0.2c0,0.1,0.1,0.1,0.2,0.2c4.4,0.2,7.7-2.7,7.7-2.7
		c0.1-0.1,0.1-0.2,0-0.3C132.6,104.5,132.5,104.5,132.4,104.6C132.4,104.6,132.4,104.6,132.4,104.6z"/>
	<path class="st0" d="M133.7,105c0,0-3,3.1-9.2,3.3c-0.1,0-0.2,0.1-0.2,0.2c0,0.1,0.1,0.1,0.2,0.2c6.4-0.2,9.4-3.3,9.5-3.4
		c0.1-0.1,0.1-0.2,0-0.3C133.9,104.9,133.8,104.9,133.7,105C133.7,105,133.7,105,133.7,105z"/>
	<path class="st0" d="M130,102.8c-0.1,0.1-1.9,1.4-1.3,3.1c0,0.1,0.1,0.1,0.2,0.1c0,0,0,0,0,0c0.1,0,0.2-0.1,0.1-0.2c0,0,0,0,0,0
		c-0.5-1.4,1.1-2.6,1.1-2.6c2.6-1.3,6.7,1.8,6.7,1.8c0.1,0.1,0.2,0,0.3,0c0.1-0.1,0-0.2,0-0.3C137,104.4,132.9,101.4,130,102.8z"/>
	<path class="st0" d="M131.4,103.3c-1.6,0.2-1.8,1.9-1.8,2c0,0.1,0.1,0.2,0.2,0.2c0,0,0,0,0,0c0.1,0,0.2-0.1,0.2-0.2c0,0,0,0,0,0
		c0-0.1,0.1-1.5,1.4-1.6c0,0,2.5-0.1,5.2,2.1c0.1,0.1,0.2,0,0.3,0c0.1-0.1,0.1-0.2,0-0.3C134.1,103.2,131.5,103.3,131.4,103.3z"/>
	<path class="st0" d="M130.5,104.9c-0.1,0.1-0.1,0.2,0,0.3c0.1,0.1,0.2,0.1,0.3,0c1.9-1.4,5.3,1.2,5.3,1.3c0.1,0.1,0.2,0.1,0.3,0
		c0,0,0,0,0,0c0.1-0.1,0.1-0.2,0-0.2c0,0,0,0,0,0C136.1,106.1,132.7,103.3,130.5,104.9z"/>
	<path class="st0" d="M135.4,103.7c0,0.1,0.1,0.2,0.1,0.2c0,0,0,0,0,0c1,0.1,1.1,0.6,1.1,0.6v0v0c0.1,0.2,0.1,0.5,0,0.8
		c-0.4,1-2.2,1.6-2.2,1.6c-0.7,0.2-1.4,0.5-2,0.9c-0.1,0.1-0.1,0.2-0.1,0.3c0.1,0.1,0.2,0.1,0.3,0.1c0,0,0,0,0,0
		c0.6-0.3,1.3-0.6,1.9-0.9c0.1,0,1.9-0.7,2.4-1.9c0.2-0.3,0.2-0.7,0-1.1v0.1c0,0-0.1-0.9-1.5-1C135.5,103.6,135.4,103.6,135.4,103.7
		z"/>
	<path class="st0" d="M135,103.2c-0.1,0-0.2,0.1-0.1,0.2c0,0,0,0,0,0c0,0.1,0.1,0.2,0.2,0.1c0.6-0.2,1.2-0.1,1.7,0.2
		c0.7,0.4,0.9,1.3,0.6,2l0,0l0,0c-0.3,1.1-2.8,2.1-3.8,2.4c-0.1,0-0.2,0.1-0.1,0.2s0.1,0.2,0.2,0.1c0.1,0,3.6-1.1,4-2.7v0
		c0.4-0.9,0.1-2-0.7-2.5C136.4,103,135.7,103,135,103.2z"/>
	<path class="st0" d="M138.3,104c-0.1,0-0.2,0.1-0.1,0.2c0,0,0,0,0,0c0.2,0.7,0.2,1.5-0.2,2.2c-0.9,1.5-3.1,2-3.1,2
		c-0.1,0-0.2,0.1-0.2,0.2c0,0,0,0,0,0c0,0.1,0.1,0.2,0.2,0.2c0,0,0,0,0,0c0.1,0,2.4-0.6,3.4-2.2c0.4-0.8,0.5-1.7,0.2-2.5
		C138.5,104.1,138.4,104,138.3,104C138.3,104,138.3,104,138.3,104z"/>
	<path class="st0" d="M134.1,102.8c-0.1,0.1-0.1,0.2-0.1,0.3c0,0.1,0.2,0.1,0.3,0.1c0,0,0,0,0,0c0.9-0.4,1.9-0.4,2.7,0
		c0.1,0.1,0.2,0,0.3-0.1c0.1-0.1,0-0.2-0.1-0.3c0,0,0,0,0,0C136.2,102.3,135.1,102.3,134.1,102.8z"/>
	<path class="st0" d="M130.9,107c-0.1,0.1-0.1,0.2-0.1,0.3c0,0.1,0.7,1.2,3.5,1.5c0,0,3.3,1.1,3.6,3.3c0.1,0.4-0.2,0.8-0.6,0.9
		c-0.1,0-0.7,0.3-1.1-0.6c-0.5-1.3-1.6-2.2-2.9-2.4c0,0-3.6-0.5-4-2.2c0-0.1-0.1-0.2-0.2-0.1c0,0,0,0,0,0c-0.1,0-0.2,0.1-0.1,0.2
		c0.5,2,4.2,2.4,4.3,2.5c1.2,0.2,2.2,1,2.6,2.2c0.5,1.3,1.5,0.9,1.5,0.9c0.6-0.1,0.9-0.7,0.8-1.3c-0.3-2.5-3.8-3.6-3.9-3.6
		c-2.6-0.3-3.2-1.3-3.2-1.3C131.1,107,131,107,130.9,107z"/>
	<path class="st0" d="M130,107.4c-0.1,0-0.1,0.2-0.1,0.2c0,0,0,0,0,0c0,0.1,0.8,1.6,3.4,1.8c0,0,3.7,0.8,3.9,3.8
		c0,0.1,0.1,0.2,0.2,0.2c0.1,0,0.2-0.1,0.2-0.2c-0.2-3.3-4.2-4.1-4.2-4.1c-2.4-0.1-3.1-1.5-3.1-1.5
		C130.3,107.4,130.2,107.3,130,107.4C130,107.4,130,107.4,130,107.4z"/>
	<path class="st0" d="M130.6,109.3c-0.1,0-1.8,1-2,2.3c-0.1,0.5,0.1,1,0.4,1.4l0,0l0,0c0.3,0.2,0.7,0.3,1.1,0.2
		c0.4-0.2,0.8-0.6,0.9-1c0,0,0.9-1.5,1.8-1.9c0.1-0.1,0.1-0.2,0.1-0.3c0-0.1-0.2-0.1-0.2-0.1c0,0,0,0,0,0c-1,0.4-1.9,2.1-1.9,2.1
		c-0.2,0.5-0.4,0.7-0.7,0.8c-0.3,0.1-0.5,0-0.8-0.1c-0.2-0.2-0.3-0.5-0.4-0.8c0-0.1,0-0.1,0-0.2c0.2-1.1,1.8-2,1.8-2
		c0.1,0,0.1-0.1,0.1-0.2c0,0,0-0.1,0-0.1C130.7,109.2,130.7,109.2,130.6,109.3z"/>
	<path class="st0" d="M131.4,109.6c-1.1,0.8-1.9,1.9-2.3,3.2c0,0.1,0,0.2,0.1,0.2c0,0,0,0,0,0c0.1,0,0.2,0,0.2-0.1c0,0,0,0,0,0
		c0.4-1.2,1.2-2.2,2.2-3c0.1,0,0.1-0.2,0.1-0.3C131.7,109.6,131.6,109.5,131.4,109.6C131.4,109.6,131.4,109.6,131.4,109.6z"/>
	<path class="st0" d="M110.9,51.6c-0.2,0.3,0,0.7,0.3,0.9c0.2,0.1,21.8,11.2,44.6,0.1c0.3-0.2,0.5-0.6,0.3-0.9c0,0,0,0,0,0
		c-0.2-0.3-0.6-0.5-0.9-0.3c-22.2,10.8-43.1,0-43.4-0.1C111.5,51.2,111.1,51.3,110.9,51.6z"/>
	<path class="st0" d="M110.8,51.4l-0.3,0.2l-5.1,70.4l1.1-0.5c14.3-7.4,28.2-7.1,37.4-5.6c9.9,1.7,16.6,5.2,16.6,5.2l1.1,0.6
		l-4.9-69.6l-0.3-0.2C135.2,39.7,111,51.2,110.8,51.4z M155.3,52.8c0.1,0.7,4.5,64.3,4.7,66.5c-5.1-2.3-10.4-3.9-15.9-4.8
		c-9.1-1.5-22.9-1.8-37.2,5.2c0.2-2.2,4.8-66.5,4.9-67.3C114.6,51.1,136.3,42,155.3,52.8z"/>
	<path class="st0" d="M133.7,29.6c-8.6-0.1-9.2,14.7-9.2,15.3c0,2.6-1.4,6.4-1.4,6.4c-0.1,0.3,0,0.7,0.4,0.9c0,0,0,0,0,0
		c0.3,0.1,0.7,0,0.9-0.4c0.1-0.2,1.5-4.1,1.5-6.9c0-0.1,0.5-14.2,7.9-14h0.1h0.1c1.1-0.1,2.2,0.3,3.1,1c1.7,1.4,3.8,4.7,4.2,12.7
		c0,0.5,0.1,5.6,1.8,7.4c0.2,0.3,0.7,0.3,0.9,0c0,0,0,0,0,0c0.3-0.2,0.3-0.7,0-0.9c0,0,0,0,0,0c-1.1-1.2-1.4-5.1-1.4-6.5
		c-0.3-7-1.9-11.6-4.8-13.8C136.6,29.9,135.1,29.4,133.7,29.6z"/>
	<path class="st0" d="M131.8,34.4c-3,3.1-2.7,16.2-2.6,17.7c0,0.4,0.3,0.7,0.6,0.7c0.4,0,0.7-0.3,0.7-0.6c0,0,0-0.1,0-0.1
		c-0.1-3.9,0-14.4,2.2-16.7c0.2-0.2,0.4-0.3,0.7-0.3c0.5,0.1,0.8,0.4,1.1,0.7c1.1,1.3,2.7,5,1.4,16c0,0.4,0.2,0.7,0.6,0.7
		c0,0,0,0,0,0c0.4,0.1,0.7-0.2,0.7-0.6c0,0,0,0,0,0c1.3-11.1-0.3-15.4-1.8-17.1c-0.5-0.6-1.2-1-2-1.1
		C132.9,33.7,132.2,33.9,131.8,34.4z"/>
	<path class="st0" d="M92.1,71.4l-1.5-0.3c0,0-0.3-1.1,0.4-1.3c0,0,3.3,0.3,4.4,1.7c0.2,0.4,0.3,0.8,0.3,1.3l0.1,11.2
		c0,0,0,5.1-1,5.2c0,0-0.9,0.2-0.7-3.2l0.5-13.4c0,0,0.2-0.8-1.1-1l-0.7,14.7c0,0-0.3,2.3-1.2,2.3c0,0-0.7,0-0.5-2.4L92.1,71.4z"/>
	<path class="st0" d="M98.8,71.6c-0.6-0.1-1.1,0.3-1.2,0.9c0,0.1,0,0.2,0,0.2L98.1,87c0,0,0,1.9-0.8,2c0,0-0.9,0.2-0.8-2.1l0-14.4
		c-0.1-0.8,0.4-1.6,1.2-1.9c0,0,3.2-1.7,3.8-0.4c0,0,0.1,0.9-1.4,1.1l1.1,15.5c0,0,0.2,1.5-0.7,1.7c0,0-0.7,0.3-1-2.1L98.8,71.6z"/>
	<path class="st0" d="M169.3,71c0,0,1.2-0.2,1.4-1.1c0,0,0.9-1.4,1.7,0c0,0-0.3,0.9,1.5,1.2c0,0,3.5,0.6,3.5,1.5c0,0,0.2,1-2.1,0.5
		c0,0-2.9-0.7-3.8-1.4l-0.3,0c-1.1,0.6-2.3,1.1-3.6,1.3c0,0-1.9,0.5-2.2-0.4c0,0-0.1-0.7,1.4-1l1.8-0.4L169.3,71z"/>
	<path class="st0" d="M173.7,74.1H169c-1.2,0-2.2,1-2.2,2.2c0,0,0,0,0,0v0.1c0,1.2,1,2.2,2.2,2.2c0,0,0,0,0,0h4.7
		c1.2,0,2.2-1,2.2-2.2c0,0,0,0,0,0v-0.1C175.9,75.1,175,74.1,173.7,74.1C173.7,74.1,173.7,74.1,173.7,74.1z M173.3,77.4h-3.9
		c-0.5,0-1-0.4-1-1c0-0.5,0.4-1,1-1h3.9c0.5,0,1,0.4,1,1C174.3,77,173.8,77.4,173.3,77.4z"/>
	<path class="st0" d="M170.5,78.2l0.1,9.9c0,0-0.1,1.1,0.8,1.1c0,0,0.5,0.3,0.7-1.3l0.2-9.8L170.5,78.2z"/>
	<path class="st0" d="M168.1,88.5c0,0,0,1.2-0.7,1c0,0-0.7,0.1-0.5-1.7c0,0,0.5-9.3,4.7-8.7c0,0,3.9-0.6,4.5,9c0,0,0.1,0.9-0.5,1
		c0,0-0.8,0.2-1-1.2c0,0-0.6-7.8-3.1-7.9c0,0-2.1-1-3.2,8L168.1,88.5z"/>
</g>
</svg>
