<svg id="Õ_1" data-name="Õº≤„ 1" xmlns="http://www.w3.org/2000/svg" viewBox="0 0 604.63 449.33"><defs><style>.cls-1,.cls-2{fill:#005baa;}.cls-2{fill-rule:evenodd;}</style></defs><path class="cls-1" d="M254,69.77a89.38,89.38,0,1,0,63.2-26.17A88.81,88.81,0,0,0,254,69.77Zm-22,63.18a85.17,85.17,0,1,1,85.17,85.17A84.64,84.64,0,0,1,232.07,133Z" transform="translate(-15.67 -9.32)"/><path class="cls-1" d="M194,133.46A124.13,124.13,0,1,0,318.13,9.32,124.26,124.26,0,0,0,194,133.46Zm6.29,0A117.84,117.84,0,1,1,318.13,251.29,118,118,0,0,1,200.28,133.46Z" transform="translate(-15.67 -9.32)"/><path class="cls-1" d="M227.74,201.79l-5.05-7.67a5,5,0,0,1-1-3.59,3.69,3.69,0,0,1,1.68-2.56,3.47,3.47,0,0,1,2.51-.6,3.69,3.69,0,0,1,1.82.85,4.5,4.5,0,0,1-.2-2.9,3.87,3.87,0,0,1,1.67-2.06,4.31,4.31,0,0,1,2.16-.72,4.38,4.38,0,0,1,2.17.43,5.62,5.62,0,0,1,1.46,1.29c.72.84,1.19,1.41,1.39,1.7l4.65,7.1Zm2.48-7.58-1.15-1.77a2.6,2.6,0,0,0-1.22-1.12,1.43,1.43,0,0,0-1.2.25,1.34,1.34,0,0,0-.66,1,2.35,2.35,0,0,0,.54,1.51l1.18,1.82Zm5.21-3.43-1.36-2.07a2.73,2.73,0,0,0-1.36-1.26,1.49,1.49,0,0,0-1.29.23,1.37,1.37,0,0,0-.67,1.06,2.82,2.82,0,0,0,.63,1.74l1.37,2.07Z" transform="translate(-15.67 -9.32)"/><path class="cls-1" d="M216.12,182.48l-5-12.21,3.14-1.27,3.1,7.64,2.33-1-2.87-7.08,3-1.21,2.88,7.07,2.88-1.17-3.18-7.86,3.34-1.34,5,12.4Z" transform="translate(-15.67 -9.32)"/><path class="cls-1" d="M209.11,162.89,208,158.1l15.43-3.73,1.16,4.78Z" transform="translate(-15.67 -9.32)"/><path class="cls-1" d="M205.78,143.59l-.46-4.9,8.61-.79a13.6,13.6,0,0,1,4.17.1,4.76,4.76,0,0,1,2.57,1.71,6.64,6.64,0,0,1,1.34,3.63,8.46,8.46,0,0,1-.32,3.75,4.55,4.55,0,0,1-1.7,2.22,7.42,7.42,0,0,1-3,1.14l-1.09-4.62a4.89,4.89,0,0,0,1.54-.33,1.55,1.55,0,0,0,.77-.65,1.38,1.38,0,0,0,.14-.83,1.34,1.34,0,0,0-.74-1.14,4.33,4.33,0,0,0-2.09-.2Z" transform="translate(-15.67 -9.32)"/><path class="cls-1" d="M205.41,130.74l.27-4.91,15.85.84-.25,4.9Z" transform="translate(-15.67 -9.32)"/><path class="cls-1" d="M206.39,117.4l1-4.48,9.87-3.94-8.57-1.91,1-4.5L225.17,106l-1,4.51-9.81,3.94,8.51,1.87-1,4.51Z" transform="translate(-15.67 -9.32)"/><path class="cls-1" d="M225.05,91.11l-3-1.39,3.15-6.87,6.17,2.83A14.84,14.84,0,0,1,231.6,90a13.65,13.65,0,0,1-1.17,3.83,9.41,9.41,0,0,1-2.82,3.78A6.6,6.6,0,0,1,223.86,99a9.72,9.72,0,0,1-4.39-1,9.37,9.37,0,0,1-3.66-2.86,7.11,7.11,0,0,1-1.34-4.08,10.3,10.3,0,0,1,1.12-4.26,12.19,12.19,0,0,1,2.1-3.4,5,5,0,0,1,2.23-1.33,6.38,6.38,0,0,1,2.85-.13l-1.2,4.67a2.63,2.63,0,0,0-1.68.3,3.26,3.26,0,0,0-1.17,1.43,3.23,3.23,0,0,0-.06,2.81,5.41,5.41,0,0,0,2.83,2.36,5.5,5.5,0,0,0,3.73.66,3.39,3.39,0,0,0,2.15-2,6.06,6.06,0,0,0,.45-1.51,10.27,10.27,0,0,0,0-1.9l-1.37-.64Z" transform="translate(-15.67 -9.32)"/><path class="cls-1" d="M230.05,63.54l3.11-3.37,10.51,1.57-6.46-6,3.14-3.39L252,63.13l-3.12,3.42L238.45,65l6.41,5.9-3.13,3.4Z" transform="translate(-15.67 -9.32)"/><path class="cls-1" d="M251.11,53.36a8.17,8.17,0,0,1-1.69-6.19,8.06,8.06,0,0,1,3.7-5.23,8.3,8.3,0,0,1,6.23-1.76,8,8,0,0,1,5.18,3.65,9.68,9.68,0,0,1,1.84,4.29,6.66,6.66,0,0,1-.61,3.8,8.66,8.66,0,0,1-3.06,3.35,10.46,10.46,0,0,1-4.14,1.86,6.68,6.68,0,0,1-3.89-.59A9.07,9.07,0,0,1,251.11,53.36Zm4-2.78a5.47,5.47,0,0,0,2.71,2.32,3.4,3.4,0,0,0,4-2.78,6,6,0,0,0-1.42-3.53,5,5,0,0,0-2.61-2.17,3.11,3.11,0,0,0-2.6.57,3,3,0,0,0-1.37,2.23A5.43,5.43,0,0,0,255.15,50.58Z" transform="translate(-15.67 -9.32)"/><path class="cls-1" d="M273.6,48.13,267.4,33.5l7.53-3.19a11.75,11.75,0,0,1,3.36-1,3.7,3.7,0,0,1,2.36.57,4.9,4.9,0,0,1,2,4.41,4.21,4.21,0,0,1-.83,2,5.53,5.53,0,0,1-1.32,1.25,5,5,0,0,1,1.4,0,4.49,4.49,0,0,1,1.05.46,7.6,7.6,0,0,1,1,.64L288,42l-5.11,2.17-4.3-3.45a4.13,4.13,0,0,0-1.31-.79,2.14,2.14,0,0,0-1.25.14l-.4.17,2.52,5.94Zm.84-10.63,1.92-.81a6.26,6.26,0,0,0,1.11-.71,1.23,1.23,0,0,0,.53-.76,1.42,1.42,0,0,0-.07-1,1.46,1.46,0,0,0-.9-.9,2.92,2.92,0,0,0-1.85.34l-2,.84Z" transform="translate(-15.67 -9.32)"/><path class="cls-1" d="M288.73,25.29l6.36-1.17,4.19,9.07.69-10,6.33-1.17,2.87,15.61-3.94.74L303,26.49,302.18,39l-3.57.68-5.25-11.36,2.19,11.91-3.95.73Z" transform="translate(-15.67 -9.32)"/><path class="cls-1" d="M324.43,35.28l-5.58-.23-.9,2.6-5-.21,6.57-15.63,5.36.21,5.34,16.11-5.13-.21Zm-.88-3.47L322,26l-2,5.64Z" transform="translate(-15.67 -9.32)"/><path class="cls-1" d="M337.64,23.46l4.76,1.11-2.72,11.66L347.13,38l-.88,3.8L334,38.92Z" transform="translate(-15.67 -9.32)"/><path class="cls-1" d="M376.34,38.31l4.24,2.46L375.84,49a8.06,8.06,0,0,1-1.71,2.1,5.55,5.55,0,0,1-2.29,1.2,5.42,5.42,0,0,1-2.37.16,10.08,10.08,0,0,1-3.23-1.26c-.66-.4-1.36-.85-2.11-1.41A6.48,6.48,0,0,1,362.47,48a5.87,5.87,0,0,1-.77-2,4.64,4.64,0,0,1,0-2.1,9.68,9.68,0,0,1,.95-2.56l4.76-8.2,4.23,2.45L366.78,44a2.77,2.77,0,0,0-.38,2.13,2.65,2.65,0,0,0,1.36,1.64,2.8,2.8,0,0,0,2.07.37,2.76,2.76,0,0,0,1.65-1.43Z" transform="translate(-15.67 -9.32)"/><path class="cls-1" d="M387.74,46l3.39,3.08-1.48,10.52,5.91-6.49,3.41,3.1L388.31,68l-3.43-3.1,1.47-10.45-5.86,6.44-3.42-3.1Z" transform="translate(-15.67 -9.32)"/><path class="cls-1" d="M404.37,62.6l3,3.87L395,76.3l-3.06-3.86Z" transform="translate(-15.67 -9.32)"/><path class="cls-1" d="M411.52,71.73,414,76.22l-8.23,8.7,11.7-2.5L420,86.75,403.2,89.38l-2.6-4.65Z" transform="translate(-15.67 -9.32)"/><path class="cls-1" d="M422.5,93.22l4.11,12.48-3.23,1.07L420.8,99l-2.38.77L420.8,107l-3.08,1-2.39-7.24-3,1,2.65,8-3.41,1.13-4.19-12.71Z" transform="translate(-15.67 -9.32)"/><path class="cls-1" d="M412.65,115.75l15.77-1.94,1,8.16a11.9,11.9,0,0,1,0,3.48,3.55,3.55,0,0,1-1.19,2.08,4.43,4.43,0,0,1-2.47,1.06,4.27,4.27,0,0,1-2.32-.3,4.22,4.22,0,0,1-1.74-1.34,6.14,6.14,0,0,1-.83-1.63,5.23,5.23,0,0,1-.43,1.35,5.33,5.33,0,0,1-.74.86,6.05,6.05,0,0,1-.88.81l-4.29,2.9-.68-5.49,4.5-3.19a4.3,4.3,0,0,0,1.12-1,2.1,2.1,0,0,0,.21-1.26l-.05-.43-6.39.79Zm10,3.75.26,2.06a7.34,7.34,0,0,0,.36,1.24,1.31,1.31,0,0,0,.59.75,1.64,1.64,0,0,0,2.07-.43,3,3,0,0,0,.19-1.87l-.26-2.14Z" transform="translate(-15.67 -9.32)"/><path class="cls-1" d="M419.69,134.62l-.05,4.68a3.27,3.27,0,0,0-1.77.49,2.53,2.53,0,0,0-1.12,2.08,2.3,2.3,0,0,0,.35,1.65,1.48,1.48,0,0,0,1.1.66,1.43,1.43,0,0,0,1.15-.46,6.17,6.17,0,0,0,1.1-2.44,10.71,10.71,0,0,1,2.29-4.45,3.88,3.88,0,0,1,3.16-1.14,4.16,4.16,0,0,1,2.25.88,4.67,4.67,0,0,1,1.54,2.26,9.57,9.57,0,0,1,.32,3.94,8,8,0,0,1-1.47,4.54,4.9,4.9,0,0,1-3.74,1.63l.09-4.64a2.15,2.15,0,0,0,2.21-2.25,1.82,1.82,0,0,0-.27-1.29,1,1,0,0,0-.85-.49.89.89,0,0,0-.7.28,4.19,4.19,0,0,0-.7,1.6,21.35,21.35,0,0,1-1.76,4.49,4.76,4.76,0,0,1-1.91,1.9,4.59,4.59,0,0,1-2.39.44,4.94,4.94,0,0,1-2.75-1,5.24,5.24,0,0,1-1.76-2.5,9.29,9.29,0,0,1-.38-3.88c.21-2.7.86-4.51,2-5.47A6.14,6.14,0,0,1,419.69,134.62Z" transform="translate(-15.67 -9.32)"/><path class="cls-1" d="M427.76,157l-1.12,4.79-15.47-3.6,1.11-4.79Z" transform="translate(-15.67 -9.32)"/><path class="cls-1" d="M424.91,168.61l-5.53,13.87L415.74,181l1.86-4.65L406.47,172l1.83-4.57,11.11,4.42,1.84-4.66Z" transform="translate(-15.67 -9.32)"/><path class="cls-1" d="M416.77,187.81l-2.95,4.58-6.24-.2,2.76,5.59-2.93,4.56L403,192.15l-5.58-3.6,2.67-4.13,5.58,3.58Z" transform="translate(-15.67 -9.32)"/><path class="cls-1" d="M295.43,226.45,293,242.83c-1.68-.24-3.36-.52-5-.81q.93-5.36,1.88-10.69a14.87,14.87,0,0,1-2.48.95,18.35,18.35,0,0,1-2.88.44l.75-3.63a10.47,10.47,0,0,0,4-1.06,7,7,0,0,0,2.44-2.17C292.93,226.07,294.18,226.26,295.43,226.45Z" transform="translate(-15.67 -9.32)"/><path class="cls-1" d="M301.57,240.2c1.64,0,3.27-.08,4.91-.16a2.46,2.46,0,0,0,.56,1.38,1.66,1.66,0,0,0,1.09.47,2,2,0,0,0,1.91-1,9.26,9.26,0,0,0,.89-3.4,5.84,5.84,0,0,1-1.84,1.12,5.47,5.47,0,0,1-2.16.26,5.27,5.27,0,0,1-3.81-1.87,5.12,5.12,0,0,1-1.2-4.07,5.81,5.81,0,0,1,1.07-2.84,5.1,5.1,0,0,1,2.32-1.83,8,8,0,0,1,3.45-.43,8.09,8.09,0,0,1,3.89,1A5.9,5.9,0,0,1,315,231.6a10.81,10.81,0,0,1,.84,4.84c0,2.94-.76,5.07-2.14,6.41a7.31,7.31,0,0,1-5.77,1.79,9.63,9.63,0,0,1-3.36-.68,5,5,0,0,1-1.95-1.48A5.38,5.38,0,0,1,301.57,240.2Zm9.36-6.6a3,3,0,0,0-.59-2.11,2.12,2.12,0,0,0-1.62-.84,2,2,0,0,0-1.57.57,2.92,2.92,0,0,0-.77,2,3,3,0,0,0,.49,2.12,2.08,2.08,0,0,0,1.59.84,2.24,2.24,0,0,0,1.71-.6A2.83,2.83,0,0,0,310.93,233.6Z" transform="translate(-15.67 -9.32)"/><path class="cls-1" d="M320.24,236.46c0-3.1.54-5.25,1.64-6.52s2.79-1.92,5.07-2a7.4,7.4,0,0,1,2.74.25,5,5,0,0,1,1.81.9,5.34,5.34,0,0,1,1.17,1.27,8,8,0,0,1,.79,1.61,15.39,15.39,0,0,1,.82,3.74c.28,3,0,5.15-1,6.61s-2.83,2.3-5.55,2.44a8.48,8.48,0,0,1-3.71-.49,5.66,5.66,0,0,1-2.34-1.88,7,7,0,0,1-1-2.43A15.91,15.91,0,0,1,320.24,236.46Zm4.74-.1a10.1,10.1,0,0,0,.78,4.22,1.81,1.81,0,0,0,1.77,1.07,2,2,0,0,0,1.27-.55,3,3,0,0,0,.71-1.61,14.89,14.89,0,0,0,0-3.23,11,11,0,0,0-.84-4.32,1.83,1.83,0,0,0-1.76-1,1.72,1.72,0,0,0-1.61,1.2A11.79,11.79,0,0,0,325,236.36Z" transform="translate(-15.67 -9.32)"/><path class="cls-1" d="M354.19,241c-4.93,1-9.92,1.83-14.91,2.42a8.39,8.39,0,0,1,1.09-3.94,23,23,0,0,1,4.14-4.81,13.25,13.25,0,0,0,2.27-2.64,2.49,2.49,0,0,0,.3-1.54,1.64,1.64,0,0,0-.77-1.16,2.06,2.06,0,0,0-1.5-.29,2.13,2.13,0,0,0-1.33.76,3.23,3.23,0,0,0-.46,2c-1.58.12-3.16.21-4.73.26a7.07,7.07,0,0,1,.64-3.09,4.68,4.68,0,0,1,1.79-1.89,9.82,9.82,0,0,1,3.49-1.1,11.31,11.31,0,0,1,3.79-.12,4.87,4.87,0,0,1,2.42,1.23,4.49,4.49,0,0,1,1.26,2.32,5,5,0,0,1-.34,3,11.28,11.28,0,0,1-2.75,3.55c-.85.79-1.44,1.34-1.73,1.63s-.62.71-1,1.18c2.54-.41,5.06-.87,7.59-1.39C353.69,238.62,354,239.82,354.19,241Z" transform="translate(-15.67 -9.32)"/><path class="cls-1" d="M334.55,112.58l-3.38.61c-.9.13-1.07.67-1,1l0,1.76c0,.54.11.88.37,1a.55.55,0,0,0,.56,0l2.84-.6c.67-.25.83-.69.8-.92l0-1a.71.71,0,0,0-.25-.59.92.92,0,0,0-.71-.06l-2.07.4a.27.27,0,0,0-.23.29v1a.31.31,0,0,0,.11.25.38.38,0,0,0,.25,0l1.37-.35a.32.32,0,0,0,.22-.37.31.31,0,0,0-.37-.21l-1,.25v-.33c.37-.08,1.86-.35,1.86-.35s.18,0,.19,0h0l0,.1,0,1s0,.17-.37.3l-2.88.64c-.05,0-.14-.08-.14-.54v-1.79c0-.11.12-.28.55-.34l3.42-.63a.37.37,0,0,1,.27,0c.1.06.15.27.15.54v2.46c0,.09-.05.35-.56.51l-3.6.82a.83.83,0,0,0-.59.22,1,1,0,0,0-.26.75v2.94a.77.77,0,0,0,.26.64.9.9,0,0,0,.88.17l3.58-.81a1,1,0,0,0,.91-1v-1.92a.84.84,0,0,0-.31-.57,1.16,1.16,0,0,0-1-.17l-2.51.69a.83.83,0,0,0-.75.86v.91a.78.78,0,0,0,.32.55,1,1,0,0,0,.78.11l1.88-.48a.29.29,0,0,0,.23-.3l-.08-.91a.37.37,0,0,0-.12-.24.48.48,0,0,0-.26,0l-.86.26a.28.28,0,0,0-.19.36.3.3,0,0,0,.36.21l.49-.14a.8.8,0,0,1,0,.3l-1.63.4c-.28.07-.36,0-.36-.13v-.86a.3.3,0,0,1,.26-.3l2.53-.66c.3,0,.42,0,.49,0a.14.14,0,0,1,.06.1v1.92a.36.36,0,0,1-.38.39l-3.61.84a.54.54,0,0,1-.36,0,.26.26,0,0,1-.07-.2v-3c0-.1,0-.23.07-.29a.27.27,0,0,1,.19,0h.1l3.67-.83c1.13-.39,1-1.14,1-1.18v-2.38a1.23,1.23,0,0,0-.41-1A1,1,0,0,0,334.55,112.58ZM331,117.51h0Z" transform="translate(-15.67 -9.32)"/><path class="cls-1" d="M341.12,111.07l-3.38.6c-.89.13-1.08.68-1,1l0,1.76c0,.54.12.9.38,1.06a.6.6,0,0,0,.56,0l2.85-.62c.68-.24.81-.67.8-.91l0-1a.64.64,0,0,0-.26-.58.72.72,0,0,0-.67-.07l-2.08.38a.29.29,0,0,0-.24.28v1a.26.26,0,0,0,.1.22.34.34,0,0,0,.26.07l1.37-.36a.29.29,0,0,0,.22-.35.3.3,0,0,0-.36-.21l-1,.24v-.32l1.89-.36a.55.55,0,0,1,.17,0h0s0,.11,0,.11l0,1s0,.18-.37.29l-2.88.63s-.16-.07-.14-.53v-1.78c0-.12.11-.29.54-.35l3.43-.63s.19,0,.28,0a.77.77,0,0,1,.15.55v2.45c0,.11-.06.33-.57.53l-3.61.8a.86.86,0,0,0-.59.21,1,1,0,0,0-.26.75v3a.94.94,0,0,0,.26.64,1,1,0,0,0,.9.18l3.56-.84a1,1,0,0,0,.91-1V117a.87.87,0,0,0-.3-.54,1.15,1.15,0,0,0-1-.18l-2.5.68a.82.82,0,0,0-.75.88v.89a.77.77,0,0,0,.32.56,1,1,0,0,0,.77.11l1.89-.48a.3.3,0,0,0,.23-.31l-.09-.91a.3.3,0,0,0-.12-.22.33.33,0,0,0-.26,0l-.86.25a.28.28,0,0,0-.2.36.33.33,0,0,0,.37.22,5.12,5.12,0,0,1,.51-.15c0,.15,0,.17,0,.29-.37.11-1.62.42-1.62.42-.29.06-.37-.06-.38-.13v-.85a.27.27,0,0,1,.26-.3l2.53-.69a.62.62,0,0,1,.49.07.16.16,0,0,1,.07.09v1.91a.37.37,0,0,1-.39.39l-3.63.84a.41.41,0,0,1-.34,0,.25.25,0,0,1-.08-.18v-3a.44.44,0,0,1,.08-.3.24.24,0,0,1,.18-.06h.11l3.65-.81c1.16-.39,1-1.16,1-1.18V112.2a1.26,1.26,0,0,0-.4-1A.89.89,0,0,0,341.12,111.07ZM337.6,116h0Z" transform="translate(-15.67 -9.32)"/><path class="cls-1" d="M347.64,109l-3.38,1.09c-1.08.3-1,1-1,1.06v1.76c0,.53.1.87.37,1a.54.54,0,0,0,.59,0l2.86-1c.78-.38.77-.9.75-1v-1a.65.65,0,0,0-.28-.57.88.88,0,0,0-.71,0l-2.08.72a.25.25,0,0,0-.19.28v.94a.28.28,0,0,0,.12.25.24.24,0,0,0,.28,0l1.35-.54a.3.3,0,0,0,.18-.39.3.3,0,0,0-.38-.17s-.58.23-1,.36v-.29l1.91-.63.19,0,0,.06,0,1s0,.19-.4.38L344,113.37h0a1,1,0,0,1-.06-.42v-1.87s0-.31.58-.47l3.43-1.1c.09,0,.2-.07.26,0s.12.19.12.49v2.47c0,.09,0,.37-.6.64L344,114.4a1,1,0,0,0-.53.27,1,1,0,0,0-.26.71v3a.76.76,0,0,0,.27.6,1,1,0,0,0,.92.08l3.56-1.36a1.09,1.09,0,0,0,.88-1v-1.94a.77.77,0,0,0-.31-.53,1.08,1.08,0,0,0-1,0l-2.52,1a1,1,0,0,0-.7.93v.92a.66.66,0,0,0,.32.51.87.87,0,0,0,.81,0l1.89-.74a.33.33,0,0,0,.19-.31l-.09-.9a.27.27,0,0,0-.14-.23.33.33,0,0,0-.27,0l-.86.37a.31.31,0,0,0-.16.38.3.3,0,0,0,.39.18l.48-.2c0,.13,0,.16,0,.27l-1.67.65a.63.63,0,0,1-.31,0l0-.09v-.84a.43.43,0,0,1,.3-.38l2.52-1a.69.69,0,0,1,.49,0,.25.25,0,0,1,0,.08v1.89a.56.56,0,0,1-.43.51l-3.59,1.33c-.2.07-.31.07-.35,0s-.05-.11-.05-.14v-3c0-.37.17-.43.3-.45h.1l3.64-1.35c1.11-.52,1-1.24,1-1.28l0-2.37a1.13,1.13,0,0,0-.41-1A.9.9,0,0,0,347.64,109Z" transform="translate(-15.67 -9.32)"/><path class="cls-1" d="M335.78,133.71l-3.37.61c-.89.15-1.06.7-1,1v1.78a1.11,1.11,0,0,0,.35,1,.57.57,0,0,0,.57.05l2.86-.62c.66-.24.81-.68.8-.9l0-1a.6.6,0,0,0-.27-.56.77.77,0,0,0-.69-.1l-2.07.39a.32.32,0,0,0-.24.3v.94a.27.27,0,0,0,.12.25.26.26,0,0,0,.25.05l1.36-.33a.28.28,0,0,0,.2-.36.27.27,0,0,0-.35-.22l-1,.25V136l1.86-.36a.31.31,0,0,1,.19,0h0a.56.56,0,0,0,0,.1v1s0,.18-.35.31l-2.87.62c-.05,0-.16-.07-.16-.51v-1.81c0-.1.13-.27.57-.35l3.43-.62a.34.34,0,0,1,.27,0,.73.73,0,0,1,.15.55v2.46c0,.08,0,.32-.59.5l-3.59.83a.78.78,0,0,0-.84.93v3a.82.82,0,0,0,.25.64,1,1,0,0,0,.9.2l3.57-.84a1,1,0,0,0,.88-1v-1.93a.69.69,0,0,0-.27-.55,1.21,1.21,0,0,0-1-.19l-2.51.67a.9.9,0,0,0-.77.89v.9a.88.88,0,0,0,.32.56,1.14,1.14,0,0,0,.79.11l1.89-.49a.27.27,0,0,0,.22-.31l-.07-.9a.51.51,0,0,0-.14-.23.31.31,0,0,0-.25,0l-.85.24a.28.28,0,0,0-.2.35.27.27,0,0,0,.36.21l.51-.12a1.62,1.62,0,0,0,0,.3l-1.63.41c-.28.07-.35-.07-.38-.14l0-.86a.3.3,0,0,1,.27-.29l2.52-.68a.73.73,0,0,1,.51.06c.05,0,.06.09.06.11v1.88a.37.37,0,0,1-.4.4l-3.6.84q-.27.06-.36,0c-.08,0-.08-.18-.08-.2v-3a.46.46,0,0,1,.08-.28.27.27,0,0,1,.18-.05h.08l3.68-.85c1.14-.38,1-1.13,1-1.17v-2.36a1.17,1.17,0,0,0-.4-1.05A1,1,0,0,0,335.78,133.71Zm-3.51,4.95h0Z" transform="translate(-15.67 -9.32)"/><path class="cls-1" d="M342.36,132.29l-3.38.6c-.89.13-1.06.69-1.05,1v1.78a1.19,1.19,0,0,0,.36,1,.62.62,0,0,0,.58.06l2.84-.63c.68-.24.82-.67.8-.91l0-1a.64.64,0,0,0-.25-.57.73.73,0,0,0-.69-.07l-2.08.39a.3.3,0,0,0-.25.3v1a.34.34,0,0,0,.11.24.43.43,0,0,0,.27,0l1.36-.33a.31.31,0,0,0,.22-.37.31.31,0,0,0-.38-.22s-.59.14-1,.25v-.32l1.86-.36a.35.35,0,0,1,.19,0h0a.46.46,0,0,0,0,.09v1s0,.16-.36.29l-2.87.63c-.06,0-.17-.08-.16-.52v-1.8c0-.11.13-.28.57-.34l3.42-.63s.19,0,.26,0,.16.27.16.54v2.45c0,.1-.05.35-.57.52l-3.59.82a.86.86,0,0,0-.6.2.87.87,0,0,0-.25.74v3a.81.81,0,0,0,.25.65,1,1,0,0,0,.9.16l3.57-.83a1,1,0,0,0,.89-1V138.2a.85.85,0,0,0-.3-.57,1.29,1.29,0,0,0-1-.16l-2.51.68a.86.86,0,0,0-.75.88v.9a.79.79,0,0,0,.32.55.93.93,0,0,0,.78.12l1.88-.49a.25.25,0,0,0,.22-.31l-.07-.9a.29.29,0,0,0-.14-.23.28.28,0,0,0-.24,0l-.85.24a.29.29,0,0,0-.2.37.27.27,0,0,0,.37.19l.5-.14c0,.14,0,.19,0,.29L340,140c-.3.07-.36,0-.38-.12V139a.28.28,0,0,1,.28-.29l2.52-.67a.7.7,0,0,1,.49,0,.21.21,0,0,1,.07.12v1.9a.38.38,0,0,1-.38.39l-3.62.86a.65.65,0,0,1-.37,0,.32.32,0,0,1-.06-.19v-3c0-.08,0-.23.09-.29a.22.22,0,0,1,.17-.06h.1l3.65-.83c1.15-.38,1-1.15,1-1.17l0-2.38a1.19,1.19,0,0,0-.4-1A.84.84,0,0,0,342.36,132.29Zm-3.53,4.92h0Z" transform="translate(-15.67 -9.32)"/><path class="cls-1" d="M348.89,130.26l-3.38,1.08c-1.09.33-1,1-1,1.07v1.76a1.16,1.16,0,0,0,.35,1,.67.67,0,0,0,.61,0l2.84-1c.8-.38.78-.9.78-1l0-1a.58.58,0,0,0-.25-.54.75.75,0,0,0-.73,0l-2.08.68a.29.29,0,0,0-.2.28v1a.47.47,0,0,0,.11.25.32.32,0,0,0,.3,0l1.35-.52a.3.3,0,0,0,.17-.39.31.31,0,0,0-.39-.17l-1,.38v-.31l1.92-.64.18,0v1.06s0,.19-.39.39l-2.88,1h-.05a1.15,1.15,0,0,1,0-.4v-1.89s0-.29.58-.46l3.42-1.1c.09,0,.21-.07.27,0a.73.73,0,0,1,.12.5v2.45c0,.11,0,.38-.6.64l-3.63,1.33a.83.83,0,0,0-.54.27,1,1,0,0,0-.25.69v3.05a.75.75,0,0,0,.27.59,1,1,0,0,0,.94.08l3.55-1.33a1.12,1.12,0,0,0,.86-1.05v-1.95a.68.68,0,0,0-.3-.51,1.15,1.15,0,0,0-1-.08l-2.51,1a1,1,0,0,0-.72.95v.91a.74.74,0,0,0,.33.52,1,1,0,0,0,.82,0l1.88-.75a.31.31,0,0,0,.19-.31l-.09-.88a.31.31,0,0,0-.12-.24.26.26,0,0,0-.28,0l-.86.36a.3.3,0,0,0,.23.55s.23-.11.49-.21c0,.14,0,.17,0,.26l-1.66.66c-.21.07-.28,0-.3,0l-.05-.07v-.85a.39.39,0,0,1,.31-.38l2.54-1c.32-.11.43,0,.48,0a.06.06,0,0,1,0,.06V138a.49.49,0,0,1-.44.49l-3.59,1.36a.49.49,0,0,1-.35,0,.28.28,0,0,1,0-.15v-3c0-.37.17-.42.28-.43a.16.16,0,0,0,.1,0l3.67-1.35c1.09-.51,1-1.24,1-1.27v-2.37a1.07,1.07,0,0,0-.4-1A.86.86,0,0,0,348.89,130.26Z" transform="translate(-15.67 -9.32)"/><path class="cls-1" d="M300,112.68a1.19,1.19,0,0,0-.39,1v2.44s-.16.74,1,1.11l3.7.84h.09a.3.3,0,0,1,.18,0c.07.06.07.21.07.28v3s0,.15-.06.2a.48.48,0,0,1-.38,0l-3.54-.83a.39.39,0,0,1-.44-.41v-1.9a.2.2,0,0,1,.07-.1.71.71,0,0,1,.52,0l2.46.66c.14,0,.32.09.32.3v.91s-.09.15-.4.08c0,0-1.25-.3-1.6-.4a1.56,1.56,0,0,1,0-.3l.5.14a.31.31,0,0,0,.37-.22.27.27,0,0,0-.22-.35l-.85-.26a.32.32,0,0,0-.38.28l-.07.91a.27.27,0,0,0,.23.3l1.86.48a.93.93,0,0,0,.8-.11,1,1,0,0,0,.34-.5v-1a.89.89,0,0,0-.82-.88l-2.44-.67a1.36,1.36,0,0,0-1,.17.79.79,0,0,0-.26.55v1.92a1,1,0,0,0,.94,1l3.51.83a.94.94,0,0,0,.88-.19.79.79,0,0,0,.27-.66v-3a.8.8,0,0,0-.27-.72.82.82,0,0,0-.59-.22l-3.62-.82c-.52-.17-.54-.43-.54-.48v-2.49c0-.27,0-.46.16-.54a.32.32,0,0,1,.22,0l3.46.64c.43.06.56.23.56.33v1.8c0,.46-.09.55-.09.56l-3-.66c-.32-.13-.33-.3-.33-.3l0-1s0-.12,0-.12a.16.16,0,0,1,.15,0s1.52.28,1.91.37v.32c-.4-.11-1-.24-1-.24a.28.28,0,0,0-.36.2.3.3,0,0,0,.21.37l1.37.35a.37.37,0,0,0,.25,0,.35.35,0,0,0,.12-.25v-1a.32.32,0,0,0-.24-.31l-2.11-.39a.91.91,0,0,0-.66.07.75.75,0,0,0-.27.59l0,1c0,.22.12.66.76.88l3,.65a.5.5,0,0,0,.51-.07c.25-.16.36-.51.35-1v-1.79c0-.25-.16-.8-1.06-.93l-3.41-.62A.9.9,0,0,0,300,112.68Zm4.34,4.82h0Z" transform="translate(-15.67 -9.32)"/><path class="cls-1" d="M293.42,111.15a1.15,1.15,0,0,0-.41,1v2.42s-.13.74,1,1.17l3.68,1h.11a.31.31,0,0,1,.19.08.42.42,0,0,1,.08.28v3a.27.27,0,0,1-.07.2c-.06.06-.19.06-.37,0l-3.54-1a.47.47,0,0,1-.46-.46V117s0,0,.06-.07.18-.09.51,0l2.46.8a.33.33,0,0,1,.34.34v.88s0,0-.07,0a.33.33,0,0,1-.31,0s-1.27-.4-1.63-.5c0-.11,0-.14,0-.29l.5.17a.27.27,0,0,0,.36-.2.3.3,0,0,0-.17-.38l-.87-.28a.26.26,0,0,0-.24,0,.33.33,0,0,0-.16.23l-.08.9a.31.31,0,0,0,.23.31l1.87.57a.9.9,0,0,0,.8-.07.73.73,0,0,0,.32-.5V118a.91.91,0,0,0-.78-.93l-2.45-.79a1.17,1.17,0,0,0-1,.12.74.74,0,0,0-.28.53l0,1.92a1.1,1.1,0,0,0,.94,1l3.51,1a1,1,0,0,0,.91-.14.82.82,0,0,0,.27-.62v-3a.93.93,0,0,0-.26-.69.81.81,0,0,0-.58-.24l-3.63-1c-.53-.2-.56-.47-.56-.53v-2.48c0-.38.11-.5.14-.52a.35.35,0,0,1,.24,0l3.46.83c.43.08.56.27.56.37v1.8c0,.44-.08.55-.08.55l-3-.84c-.32-.13-.34-.31-.34-.33l0-1s0-.09,0-.09l.14,0,1.91.47v.33l-1-.32a.31.31,0,0,0-.18.59l1.37.42a.28.28,0,0,0,.26,0,.29.29,0,0,0,.13-.24v-1a.29.29,0,0,0-.25-.28L295,112.4a.74.74,0,0,0-.67.06.59.59,0,0,0-.27.55l0,1s0,.58.72.9l3,.81a.58.58,0,0,0,.53,0c.26-.16.39-.49.36-1.06v-1.77s.06-.73-1.05-1l-3.4-.79A.82.82,0,0,0,293.42,111.15Zm4.33,5h0Z" transform="translate(-15.67 -9.32)"/><path class="cls-1" d="M286.9,109a1.1,1.1,0,0,0-.4,1v2.44s-.15.69.93,1.2l3.7,1.36.1,0c.1,0,.3.07.29.4v3a.24.24,0,0,1,0,.14c-.05,0-.17,0-.37,0l-3.53-1.32a.56.56,0,0,1-.48-.52v-1.91c.07-.07.2-.13.55,0l2.46,1c.08,0,.34.12.34.39v.92a.58.58,0,0,1-.34,0l-1.66-.65c0-.11,0-.15,0-.27l.48.2a.3.3,0,0,0,.39-.16.3.3,0,0,0-.16-.39l-.86-.38a.39.39,0,0,0-.28,0,.44.44,0,0,0-.13.23l-.08.9a.31.31,0,0,0,.19.31l1.85.74a1,1,0,0,0,.85,0,.73.73,0,0,0,.32-.47v-1a1,1,0,0,0-.76-1l-2.44-1a1.2,1.2,0,0,0-1,0,.66.66,0,0,0-.29.52v1.93a1.09,1.09,0,0,0,.91,1.09l3.49,1.33a.94.94,0,0,0,.93-.08.76.76,0,0,0,.29-.6v-3a1.07,1.07,0,0,0-.25-.71.85.85,0,0,0-.56-.25s-3.63-1.36-3.63-1.36c-.57-.24-.59-.53-.59-.59V110c0-.3.07-.45.13-.49a.3.3,0,0,1,.21,0l3.45,1.11c.61.18.61.45.61.47v1.79c0,.43-.08.53-.08.53l-2.94-1.1c-.36-.19-.37-.38-.37-.38l0-1a.64.64,0,0,0,0-.07s.13.06.13.06l1.94.63v.29c-.41-.13-.95-.35-.95-.35a.31.31,0,0,0-.4.16.29.29,0,0,0,.16.38l1.38.56a.25.25,0,0,0,.27,0,.26.26,0,0,0,.13-.25v-.94a.26.26,0,0,0-.2-.28l-2.12-.72a.85.85,0,0,0-.69,0,.71.71,0,0,0-.26.58l0,1s0,.56.73.93l2.94,1.07a.52.52,0,0,0,.54,0c.26-.14.37-.48.36-1v-1.79s.07-.73-1-1l-3.4-1.09A.8.8,0,0,0,286.9,109Z" transform="translate(-15.67 -9.32)"/><path class="cls-1" d="M298.38,133.78a1.2,1.2,0,0,0-.39,1v2.36s-.16.73,1,1.09l3.68.81a.2.2,0,0,0,.11,0s.13,0,.18,0a.36.36,0,0,1,.06.26v2.89a.28.28,0,0,1-.06.19c-.05.06-.2.07-.38,0l-3.55-.81a.41.41,0,0,1-.43-.4v-1.85a.13.13,0,0,1,.06-.07.65.65,0,0,1,.52,0l2.47.65c.12,0,.3,0,.3.27v.88s-.08.13-.38.07l-1.61-.4c0-.12,0-.14,0-.29.25.09.52.16.52.16a.28.28,0,0,0,.35-.21.28.28,0,0,0-.19-.37l-.86-.23a.28.28,0,0,0-.25.05.3.3,0,0,0-.14.21l-.07.89a.28.28,0,0,0,.23.3l1.86.47a.92.92,0,0,0,.79-.12.73.73,0,0,0,.33-.48v-.93a.85.85,0,0,0-.79-.87l-2.45-.63a1.28,1.28,0,0,0-1,.16.7.7,0,0,0-.27.52v1.88a1,1,0,0,0,.95,1l3.5.79a1,1,0,0,0,.91-.17.84.84,0,0,0,.26-.65v-2.86a.91.91,0,0,0-.26-.71.81.81,0,0,0-.61-.21l-3.62-.8c-.52-.16-.55-.42-.55-.45v-2.42a.79.79,0,0,1,.14-.52c.09-.07.25,0,.25,0l3.47.6c.41.06.54.22.54.31v1.74c0,.44-.08.54-.08.54l-3-.64c-.29-.1-.31-.27-.31-.27l0-.95s0-.13,0-.13a.34.34,0,0,1,.14,0s1.54.27,1.92.36v.31l-1-.25a.32.32,0,0,0-.37.21.29.29,0,0,0,.23.35l1.36.35a.32.32,0,0,0,.25,0,.27.27,0,0,0,.11-.23v-.94a.29.29,0,0,0-.24-.3l-2.11-.39a.85.85,0,0,0-.66.09.67.67,0,0,0-.24.56l0,.95c0,.21.14.64.76.86l2.95.65a.55.55,0,0,0,.51-.07,1.16,1.16,0,0,0,.36-1v-1.73s.06-.74-1.06-.91l-3.41-.59A.86.86,0,0,0,298.38,133.78Zm4.34,4.68h0Z" transform="translate(-15.67 -9.32)"/><path class="cls-1" d="M292,132.34a1.12,1.12,0,0,0-.4,1v2.42s-.14.73.95,1.15l3.7,1.05.1,0a.34.34,0,0,1,.19.06.38.38,0,0,1,.09.29v3a.22.22,0,0,1-.07.18.52.52,0,0,1-.37,0l-3.54-1a.45.45,0,0,1-.45-.47v-1.89a.12.12,0,0,1,.06-.09s.16-.08.5,0l2.45.79a.33.33,0,0,1,.33.34v.89a.07.07,0,0,1-.06.05.31.31,0,0,1-.3,0s-1.27-.38-1.62-.5v-.29l.51.18a.29.29,0,0,0,.37-.2.31.31,0,0,0-.18-.39l-.84-.25a.26.26,0,0,0-.26,0,.37.37,0,0,0-.15.23l-.09.9a.32.32,0,0,0,.22.31l1.88.59a1,1,0,0,0,.8-.09.7.7,0,0,0,.32-.48v-1a.94.94,0,0,0-.79-.92l-2.44-.78a1.12,1.12,0,0,0-1,.11.73.73,0,0,0-.3.52v2a1,1,0,0,0,.94,1l3.5,1a1,1,0,0,0,.91-.14.86.86,0,0,0,.27-.62v-3a.91.91,0,0,0-.26-.69.85.85,0,0,0-.58-.24l-3.62-1c-.54-.21-.56-.47-.56-.53v-2.48c0-.39.09-.49.14-.52a.27.27,0,0,1,.23,0l3.46.82c.44.08.56.27.56.38v1.79c0,.44-.07.54-.07.54l-3-.81c-.34-.16-.35-.32-.35-.34l0-1a.62.62,0,0,1,0-.1h.13l1.92.48v.32l-1-.29a.31.31,0,0,0-.38.19.32.32,0,0,0,.21.39l1.35.41a.29.29,0,0,0,.39-.28v-1a.26.26,0,0,0-.23-.28l-2.12-.53a.75.75,0,0,0-.66.06.64.64,0,0,0-.26.56l0,1s0,.57.74.9l2.95.8a.57.57,0,0,0,.52,0c.27-.16.38-.51.36-1V134s.08-.74-1-1l-3.4-.8A.86.86,0,0,0,292,132.34Zm4.32,5h0Z" transform="translate(-15.67 -9.32)"/><path class="cls-1" d="M285.66,130.14a1.06,1.06,0,0,0-.42,1v2.43s-.12.7.95,1.22l3.68,1.34h.1c.11,0,.32.07.3.42v3c0,.05,0,.14,0,.16s-.17.05-.36,0l-3.54-1.34a.52.52,0,0,1-.48-.51v-1.91c.06-.06.2-.11.55,0l2.46,1a.4.4,0,0,1,.33.39v.91a.4.4,0,0,1-.33,0l-1.66-.67a1.66,1.66,0,0,1,0-.26l.45.2a.31.31,0,0,0,.4-.17.3.3,0,0,0-.16-.39l-.84-.36a.52.52,0,0,0-.28,0,.3.3,0,0,0-.14.24l-.08.9a.32.32,0,0,0,.18.3l1.87.74a1,1,0,0,0,.83,0,.74.74,0,0,0,.33-.49v-.95a1,1,0,0,0-.78-1l-2.42-1a1.21,1.21,0,0,0-1.06,0,.78.78,0,0,0-.3.53v1.93a1.12,1.12,0,0,0,.91,1.07l3.51,1.34a1,1,0,0,0,.94-.07.85.85,0,0,0,.27-.61v-3.05a1,1,0,0,0-.26-.69.84.84,0,0,0-.54-.26l-3.65-1.35c-.55-.27-.59-.53-.59-.59l0-2.49c0-.31.06-.45.13-.49s.17,0,.21,0l3.46,1.12c.58.16.59.43.59.45V134c0,.43-.07.52-.07.52l-2.93-1.09c-.36-.18-.37-.37-.37-.39l0-1s0-.06,0-.08.13.05.13.05l1.93.64V133l-.95-.38a.27.27,0,0,0-.38.17.28.28,0,0,0,.15.38l1.37.54a.29.29,0,0,0,.41-.26v-1a.31.31,0,0,0-.2-.29l-2.11-.69a.83.83,0,0,0-.69,0,.6.6,0,0,0-.27.57l0,1s0,.56.74.94l2.94,1.06a.54.54,0,0,0,.54,0c.26-.14.39-.49.36-1v-1.79s.07-.72-1-1l-3.4-1.09A.81.81,0,0,0,285.66,130.14Z" transform="translate(-15.67 -9.32)"/><path class="cls-1" d="M290.76,100a1.9,1.9,0,1,0,1.9,2.22A2.09,2.09,0,0,0,290.76,100Zm-.07,2.5a.73.73,0,0,1-.64-.77.75.75,0,1,1,.64.77Z" transform="translate(-15.67 -9.32)"/><path class="cls-1" d="M296.51,102.29a2.06,2.06,0,0,0-2.36,1.71,2.27,2.27,0,1,0,2.36-1.71Zm.17,2.48a.65.65,0,1,1,.08-1.27.73.73,0,0,1,.7.68A.7.7,0,0,1,296.68,104.77Z" transform="translate(-15.67 -9.32)"/><path class="cls-1" d="M302.63,104a2,2,0,0,0-2.51,1.47,2.27,2.27,0,1,0,2.51-1.47Zm-.08,2.48a.68.68,0,0,1-.62-.75.74.74,0,0,1,.85-.51.7.7,0,0,1,.6.78A.69.69,0,0,1,302.55,106.51Z" transform="translate(-15.67 -9.32)"/><path class="cls-1" d="M344.57,100a2.08,2.08,0,0,0-1.91,2.22,2.28,2.28,0,0,0,4.42-.75A2.08,2.08,0,0,0,344.57,100Zm.07,2.5a.7.7,0,0,1-.82-.51.68.68,0,0,1,.6-.76.71.71,0,0,1,.84.5A.7.7,0,0,1,344.64,102.49Z" transform="translate(-15.67 -9.32)"/><path class="cls-1" d="M339.09,102.72a1.9,1.9,0,1,0,.27,3.72,2.06,2.06,0,0,0,2.09-2A2,2,0,0,0,339.09,102.72Zm-.16,2.48a.65.65,0,1,1-.1-1.28.65.65,0,1,1,.1,1.28Z" transform="translate(-15.67 -9.32)"/><path class="cls-1" d="M332.89,104.24a2.09,2.09,0,0,0-1.88,2.22,2.06,2.06,0,0,0,2.51,1.48,1.91,1.91,0,1,0-.63-3.7Zm.08,2.49a.68.68,0,0,1-.83-.49.73.73,0,0,1,.63-.77.71.71,0,0,1,.84.51A.69.69,0,0,1,333,106.73Z" transform="translate(-15.67 -9.32)"/><path class="cls-1" d="M346,121.66a1.9,1.9,0,1,0,2.53,1.48A2.11,2.11,0,0,0,346,121.66Zm.08,2.49a.71.71,0,0,1-.84-.51.69.69,0,0,1,.63-.75.67.67,0,0,1,.82.52A.68.68,0,0,1,346.1,124.15Z" transform="translate(-15.67 -9.32)"/><path class="cls-1" d="M340.15,123.64a1.91,1.91,0,1,0,2.38,1.72A2.13,2.13,0,0,0,340.15,123.64Zm-.15,2.5a.69.69,0,0,1-.79-.59.72.72,0,0,1,.69-.69.7.7,0,0,1,.79.59A.7.7,0,0,1,340,126.14Z" transform="translate(-15.67 -9.32)"/><path class="cls-1" d="M333.76,125.19a2.12,2.12,0,0,0-1.9,2.23,2.28,2.28,0,1,0,1.9-2.23Zm.08,2.5a.69.69,0,0,1-.83-.5.7.7,0,0,1,.62-.75.68.68,0,0,1,.84.5A.71.71,0,0,1,333.84,127.69Z" transform="translate(-15.67 -9.32)"/><path class="cls-1" d="M347.15,142.56a2.07,2.07,0,0,0-1.9,2.22,2.28,2.28,0,0,0,4.42-.74A2.1,2.1,0,0,0,347.15,142.56Zm.07,2.49a.69.69,0,0,1-.83-.5.69.69,0,0,1,.63-.75.67.67,0,0,1,.83.5A.7.7,0,0,1,347.22,145.05Z" transform="translate(-15.67 -9.32)"/><path class="cls-1" d="M341.47,145a1.9,1.9,0,1,0,.27,3.74,2.07,2.07,0,0,0,2.1-2A2.09,2.09,0,0,0,341.47,145Zm-.15,2.48a.66.66,0,0,1-.79-.55.72.72,0,0,1,.68-.72.74.74,0,0,1,.8.59A.68.68,0,0,1,341.32,147.51Z" transform="translate(-15.67 -9.32)"/><path class="cls-1" d="M335.08,146.59a2,2,0,0,0-1.88,2.2,2.27,2.27,0,0,0,4.41-.75A2.06,2.06,0,0,0,335.08,146.59Zm.09,2.46a.66.66,0,0,1-.83-.49.67.67,0,0,1,.62-.75.71.71,0,0,1,.84.5A.69.69,0,0,1,335.17,149.05Z" transform="translate(-15.67 -9.32)"/><path class="cls-1" d="M289,121.56a1.9,1.9,0,1,0,1.91,2.22A2.09,2.09,0,0,0,289,121.56Zm-.08,2.49a.65.65,0,1,1,.23-1.26.71.71,0,0,1,.62.76A.7.7,0,0,1,288.88,124.05Z" transform="translate(-15.67 -9.32)"/><path class="cls-1" d="M295,123.57a1.89,1.89,0,1,0,2,2.1A2.09,2.09,0,0,0,295,123.57Zm.05,2.49a.71.71,0,0,1-.68-.73.73.73,0,0,1,.8-.56.72.72,0,0,1,.67.74A.69.69,0,0,1,295.06,126.06Z" transform="translate(-15.67 -9.32)"/><path class="cls-1" d="M301.54,125.11a2.08,2.08,0,0,0-2.53,1.45,2.1,2.1,0,0,0,1.91,2.23,2.07,2.07,0,0,0,2.51-1.47A2,2,0,0,0,301.54,125.11Zm-.09,2.47a.69.69,0,0,1-.62-.75.73.73,0,0,1,.85-.5.7.7,0,0,1,.61.76A.67.67,0,0,1,301.45,127.58Z" transform="translate(-15.67 -9.32)"/><path class="cls-1" d="M287.42,142.17a1.9,1.9,0,1,0,1.9,2.21A2.07,2.07,0,0,0,287.42,142.17Zm-.08,2.47a.67.67,0,0,1-.62-.75.68.68,0,0,1,.84-.49.64.64,0,1,1-.22,1.24Z" transform="translate(-15.67 -9.32)"/><path class="cls-1" d="M293.64,144.2a1.9,1.9,0,1,0,2.11,2A2.08,2.08,0,0,0,293.64,144.2Zm.15,2.46a.68.68,0,0,1-.69-.66.73.73,0,0,1,.79-.6.71.71,0,0,1,.69.69A.68.68,0,0,1,293.79,146.66Z" transform="translate(-15.67 -9.32)"/><path class="cls-1" d="M300.08,145.83a1.91,1.91,0,1,0-.65,3.69,1.9,1.9,0,1,0,.65-3.69Zm-.1,2.48a.67.67,0,0,1-.62-.75.75.75,0,0,1,1.46.26A.68.68,0,0,1,300,148.31Z" transform="translate(-15.67 -9.32)"/><path class="cls-1" d="M288.49,96a.53.53,0,0,1-.54.54.54.54,0,0,1,0-1.08A.53.53,0,0,1,288.49,96Z" transform="translate(-15.67 -9.32)"/><path class="cls-1" d="M286.71,97.75a.53.53,0,0,1-.54.53.52.52,0,0,1-.53-.53.53.53,0,0,1,.53-.56A.54.54,0,0,1,286.71,97.75Z" transform="translate(-15.67 -9.32)"/><path class="cls-1" d="M286.42,101.21a.54.54,0,0,1-.55.53.54.54,0,1,1,0-1.08A.55.55,0,0,1,286.42,101.21Z" transform="translate(-15.67 -9.32)"/><path class="cls-1" d="M286.22,104.55a.54.54,0,0,1-.54.54.55.55,0,0,1-.55-.54.55.55,0,0,1,.55-.54A.54.54,0,0,1,286.22,104.55Z" transform="translate(-15.67 -9.32)"/><path class="cls-1" d="M307.2,103.64a.52.52,0,0,1-.53.54.54.54,0,0,1,0-1.08A.52.52,0,0,1,307.2,103.64Z" transform="translate(-15.67 -9.32)"/><path class="cls-1" d="M306.91,106.92a.54.54,0,0,1-.53.54.55.55,0,1,1,.53-.54Z" transform="translate(-15.67 -9.32)"/><path class="cls-1" d="M306.61,110.27a.52.52,0,0,1-.55.51.51.51,0,0,1-.52-.51.52.52,0,0,1,.52-.55A.53.53,0,0,1,306.61,110.27Z" transform="translate(-15.67 -9.32)"/><path class="cls-1" d="M328.33,103.64a.55.55,0,1,0,.55-.54A.53.53,0,0,0,328.33,103.64Z" transform="translate(-15.67 -9.32)"/><path class="cls-1" d="M328.66,106.92a.53.53,0,0,0,.52.54.55.55,0,0,0,0-1.09A.53.53,0,0,0,328.66,106.92Z" transform="translate(-15.67 -9.32)"/><path class="cls-1" d="M329.13,110.27a.53.53,0,0,0,.54.51.53.53,0,0,0,.55-.51.55.55,0,0,0-.55-.55A.54.54,0,0,0,329.13,110.27Z" transform="translate(-15.67 -9.32)"/><path class="cls-1" d="M348.38,97.75a.53.53,0,0,0,.54.53.52.52,0,0,0,.54-.53.54.54,0,0,0-.54-.56A.54.54,0,0,0,348.38,97.75Z" transform="translate(-15.67 -9.32)"/><path class="cls-1" d="M348.67,101.12a.55.55,0,0,0,.56.53.53.53,0,0,0,.52-.53.54.54,0,0,0-.52-.56A.56.56,0,0,0,348.67,101.12Z" transform="translate(-15.67 -9.32)"/><path class="cls-1" d="M348.88,104.55a.54.54,0,0,0,.53.54.53.53,0,0,0,.54-.54.54.54,0,0,0-.54-.54A.55.55,0,0,0,348.88,104.55Z" transform="translate(-15.67 -9.32)"/><path class="cls-1" d="M292,97.38a.55.55,0,0,1-.55.54.54.54,0,1,1,0-1.08A.55.55,0,0,1,292,97.38Z" transform="translate(-15.67 -9.32)"/><path class="cls-1" d="M295.75,98.36a.55.55,0,0,1-.56.54.54.54,0,0,1,0-1.08A.55.55,0,0,1,295.75,98.36Z" transform="translate(-15.67 -9.32)"/><path class="cls-1" d="M299.51,99.29a.55.55,0,0,1-1.09,0,.55.55,0,1,1,1.09,0Z" transform="translate(-15.67 -9.32)"/><path class="cls-1" d="M303.24,100.22a.54.54,0,0,1-.55.53.54.54,0,1,1,.55-.53Z" transform="translate(-15.67 -9.32)"/><path class="cls-1" d="M307.46,100.94a.55.55,0,0,1-.55.54.52.52,0,0,1-.53-.54.52.52,0,0,1,.53-.53A.54.54,0,0,1,307.46,100.94Z" transform="translate(-15.67 -9.32)"/><path class="cls-1" d="M285.16,119.81a.5.5,0,0,1-1,0,.5.5,0,0,1,1,0Z" transform="translate(-15.67 -9.32)"/><path class="cls-1" d="M285,122.92a.48.48,0,0,1-.48.49.49.49,0,0,1-.5-.49.5.5,0,0,1,.5-.51A.49.49,0,0,1,285,122.92Z" transform="translate(-15.67 -9.32)"/><path class="cls-1" d="M284.9,125.76a.5.5,0,1,1-1,0,.5.5,0,1,1,1,0Z" transform="translate(-15.67 -9.32)"/><path class="cls-1" d="M349.93,120a.52.52,0,0,0,.5.51.51.51,0,0,0,.49-.51.5.5,0,0,0-.49-.5A.51.51,0,0,0,349.93,120Z" transform="translate(-15.67 -9.32)"/><path class="cls-1" d="M350.11,123.14a.48.48,0,0,0,.48.49.5.5,0,0,0,.51-.49.5.5,0,0,0-.51-.5A.49.49,0,0,0,350.11,123.14Z" transform="translate(-15.67 -9.32)"/><path class="cls-1" d="M350.21,126a.48.48,0,0,0,.48.49.5.5,0,1,0,0-1A.48.48,0,0,0,350.21,126Z" transform="translate(-15.67 -9.32)"/><path class="cls-1" d="M329.24,125.21a.48.48,0,0,0,.49.49.5.5,0,1,0,0-1A.48.48,0,0,0,329.24,125.21Z" transform="translate(-15.67 -9.32)"/><path class="cls-1" d="M329.41,128.29a.49.49,0,1,0,.48-.49A.49.49,0,0,0,329.41,128.29Z" transform="translate(-15.67 -9.32)"/><path class="cls-1" d="M329.5,131.15a.5.5,0,1,0,1,0,.5.5,0,1,0-1,0Z" transform="translate(-15.67 -9.32)"/><path class="cls-1" d="M306.3,125.32a.5.5,0,0,1-.5.49.5.5,0,1,1,.5-.49Z" transform="translate(-15.67 -9.32)"/><path class="cls-1" d="M306.23,128.31a.49.49,0,0,1-.5.49.5.5,0,0,1-.5-.49.51.51,0,0,1,.5-.49A.49.49,0,0,1,306.23,128.31Z" transform="translate(-15.67 -9.32)"/><path class="cls-1" d="M306.13,131.27a.49.49,0,0,1-.49.49.5.5,0,0,1-.51-.49.51.51,0,0,1,.51-.51A.5.5,0,0,1,306.13,131.27Z" transform="translate(-15.67 -9.32)"/><path class="cls-1" d="M283.22,144a.48.48,0,0,1-.49.51.5.5,0,0,1,0-1A.48.48,0,0,1,283.22,144Z" transform="translate(-15.67 -9.32)"/><path class="cls-1" d="M283.57,141.66a.52.52,0,0,1-.51.51.51.51,0,0,1-.49-.51.48.48,0,0,1,.49-.48A.49.49,0,0,1,283.57,141.66Z" transform="translate(-15.67 -9.32)"/><path class="cls-1" d="M304.41,150.63a.5.5,0,1,1-1,0,.5.5,0,0,1,1,0Z" transform="translate(-15.67 -9.32)"/><path class="cls-1" d="M304.75,148.24a.5.5,0,0,1-.52.49.48.48,0,0,1-.49-.49.47.47,0,0,1,.49-.48A.49.49,0,0,1,304.75,148.24Z" transform="translate(-15.67 -9.32)"/><path class="cls-1" d="M331.64,150.89a.5.5,0,0,1-.49.5.51.51,0,0,1-.51-.5.5.5,0,0,1,.51-.5A.49.49,0,0,1,331.64,150.89Z" transform="translate(-15.67 -9.32)"/><path class="cls-1" d="M331.39,148.4a.49.49,0,0,1-.5.48.5.5,0,0,1-.51-.48.53.53,0,0,1,.51-.51A.52.52,0,0,1,331.39,148.4Z" transform="translate(-15.67 -9.32)"/><path class="cls-1" d="M351.73,143.89a.47.47,0,0,0,.47.5.5.5,0,1,0,0-1A.47.47,0,0,0,351.73,143.89Z" transform="translate(-15.67 -9.32)"/><path class="cls-1" d="M351.48,141.5a.5.5,0,1,0,.5-.5A.48.48,0,0,0,351.48,141.5Z" transform="translate(-15.67 -9.32)"/><path class="cls-1" d="M283,146.48a.49.49,0,0,1-.5.49.49.49,0,0,1-.5-.49.5.5,0,0,1,.5-.51A.5.5,0,0,1,283,146.48Z" transform="translate(-15.67 -9.32)"/><path class="cls-1" d="M352.92,146.48a.49.49,0,0,1-.49.49.51.51,0,0,1-.51-.49.52.52,0,0,1,.51-.51A.5.5,0,0,1,352.92,146.48Z" transform="translate(-15.67 -9.32)"/><path class="cls-1" d="M286.39,147.77a.51.51,0,0,1-.51.49.49.49,0,0,1-.49-.49.51.51,0,0,1,.49-.51A.53.53,0,0,1,286.39,147.77Z" transform="translate(-15.67 -9.32)"/><path class="cls-1" d="M289.87,149a.49.49,0,0,1-.49.49.5.5,0,1,1,0-1A.49.49,0,0,1,289.87,149Z" transform="translate(-15.67 -9.32)"/><path class="cls-1" d="M293.38,150.34a.5.5,0,1,1-1,0,.5.5,0,0,1,1,0Z" transform="translate(-15.67 -9.32)"/><path class="cls-1" d="M297,151.49a.51.51,0,0,1-1,0,.51.51,0,1,1,1,0Z" transform="translate(-15.67 -9.32)"/><path class="cls-1" d="M300.48,152.49a.5.5,0,0,1-.51.5.49.49,0,0,1-.49-.5A.5.5,0,0,1,300,152,.52.52,0,0,1,300.48,152.49Z" transform="translate(-15.67 -9.32)"/><path class="cls-1" d="M304,153.31a.49.49,0,1,1-1,0,.49.49,0,1,1,1,0Z" transform="translate(-15.67 -9.32)"/><path class="cls-1" d="M307.46,153.9a.49.49,0,1,1-1,0,.49.49,0,1,1,1,0Z" transform="translate(-15.67 -9.32)"/><path class="cls-1" d="M311,154.46a.48.48,0,0,1-.49.48.49.49,0,1,1,0-1A.48.48,0,0,1,311,154.46Z" transform="translate(-15.67 -9.32)"/><path class="cls-1" d="M314.65,154.94a.5.5,0,1,1-1,0,.5.5,0,0,1,1,0Z" transform="translate(-15.67 -9.32)"/><path class="cls-1" d="M318.15,155a.49.49,0,1,1-1,0,.49.49,0,0,1,1,0Z" transform="translate(-15.67 -9.32)"/><path class="cls-1" d="M321.65,154.88a.48.48,0,0,1-.49.48.49.49,0,0,1-.51-.48.52.52,0,0,1,.51-.5A.5.5,0,0,1,321.65,154.88Z" transform="translate(-15.67 -9.32)"/><path class="cls-1" d="M325.05,154.57a.49.49,0,0,1-.51.48.48.48,0,0,1-.49-.48.5.5,0,1,1,1,0Z" transform="translate(-15.67 -9.32)"/><path class="cls-1" d="M328.45,154.05a.5.5,0,1,1-1,0,.5.5,0,0,1,1,0Z" transform="translate(-15.67 -9.32)"/><path class="cls-1" d="M332,153.53a.5.5,0,1,1-.51-.49A.5.5,0,0,1,332,153.53Z" transform="translate(-15.67 -9.32)"/><path class="cls-1" d="M335.44,153a.48.48,0,0,1-.5.49.47.47,0,0,1-.48-.49.48.48,0,0,1,.48-.5A.5.5,0,0,1,335.44,153Z" transform="translate(-15.67 -9.32)"/><path class="cls-1" d="M338.93,151.93a.48.48,0,0,1-.49.48.49.49,0,0,1-.5-.48.51.51,0,0,1,.5-.5A.49.49,0,0,1,338.93,151.93Z" transform="translate(-15.67 -9.32)"/><path class="cls-1" d="M342.54,151.06a.51.51,0,0,1-.51.49.49.49,0,0,1-.48-.49.51.51,0,0,1,.48-.52A.53.53,0,0,1,342.54,151.06Z" transform="translate(-15.67 -9.32)"/><path class="cls-1" d="M346,149.86a.48.48,0,0,1-.5.48.47.47,0,0,1-.47-.48.49.49,0,0,1,.47-.5A.5.5,0,0,1,346,149.86Z" transform="translate(-15.67 -9.32)"/><path class="cls-1" d="M349.63,148.32a.51.51,0,1,1-.5-.5A.52.52,0,0,1,349.63,148.32Z" transform="translate(-15.67 -9.32)"/><path class="cls-1" d="M311,101.55a.56.56,0,0,1-.56.54.56.56,0,0,1-.53-.54.54.54,0,0,1,.53-.56A.55.55,0,0,1,311,101.55Z" transform="translate(-15.67 -9.32)"/><path class="cls-1" d="M314.62,101.88a.53.53,0,0,1-.53.53.55.55,0,0,1-.54-.53.54.54,0,0,1,.54-.56A.53.53,0,0,1,314.62,101.88Z" transform="translate(-15.67 -9.32)"/><path class="cls-1" d="M318.37,101.94a.55.55,0,0,1-.55.55.54.54,0,0,1-.53-.55.54.54,0,0,1,.53-.55A.55.55,0,0,1,318.37,101.94Z" transform="translate(-15.67 -9.32)"/><path class="cls-1" d="M322.07,101.85a.55.55,0,0,1-.53.56.56.56,0,0,1-.55-.56.54.54,0,0,1,.55-.53A.53.53,0,0,1,322.07,101.85Z" transform="translate(-15.67 -9.32)"/><path class="cls-1" d="M325.84,101.55a.54.54,0,1,1-1.08,0,.54.54,0,1,1,1.08,0Z" transform="translate(-15.67 -9.32)"/><path class="cls-1" d="M329.21,101.15a.54.54,0,0,1-.54.54.56.56,0,0,1-.54-.54.55.55,0,0,1,.54-.55A.53.53,0,0,1,329.21,101.15Z" transform="translate(-15.67 -9.32)"/><path class="cls-1" d="M333.54,100.4a.53.53,0,0,1-.53.54.54.54,0,0,1,0-1.07A.53.53,0,0,1,333.54,100.4Z" transform="translate(-15.67 -9.32)"/><path class="cls-1" d="M337.57,99.49a.55.55,0,0,1-.55.54.54.54,0,0,1-.53-.54A.52.52,0,0,1,337,99,.53.53,0,0,1,337.57,99.49Z" transform="translate(-15.67 -9.32)"/><path class="cls-1" d="M341.26,98.55a.54.54,0,0,1-.54.54.54.54,0,1,1,0-1.07A.54.54,0,0,1,341.26,98.55Z" transform="translate(-15.67 -9.32)"/><path class="cls-1" d="M344.73,97.48a.54.54,0,1,1-1.07,0,.54.54,0,1,1,1.07,0Z" transform="translate(-15.67 -9.32)"/><path class="cls-1" d="M348,96.09a.55.55,0,1,1-.55-.53A.55.55,0,0,1,348,96.09Z" transform="translate(-15.67 -9.32)"/><path class="cls-1" d="M349.47,106.47c-7.23,3.8-20,5.2-20.17,5.21a.48.48,0,0,0-.42.51.47.47,0,0,0,.5.4c.56-.06,12.38-1.39,19.91-5,.07,1.14.6,9.55.65,10.12a77.21,77.21,0,0,1-20.38,5.24.47.47,0,0,0-.42.44v0a.42.42,0,0,0,.47.4,89.48,89.48,0,0,0,21-5.43l.31-.13-.8-12.1Z" transform="translate(-15.67 -9.32)"/><path class="cls-1" d="M286,106.47c7.23,3.8,20.14,5.3,20.27,5.32a.47.47,0,0,1,.42.48.46.46,0,0,1-.49.41c-.57-.06-12.49-1.48-20-5.12-.08,1.14-.62,9.55-.67,10.12,1.75.73,11.14,4.42,20.4,5.24a.48.48,0,0,1,.42.44v0a.42.42,0,0,1-.47.4,89.81,89.81,0,0,1-21-5.43l-.3-.13.78-12.1Z" transform="translate(-15.67 -9.32)"/><path class="cls-1" d="M351,127.61c-7.24,3.8-21.44,5.12-21.58,5.12a.46.46,0,0,0-.39.49.43.43,0,0,0,.47.41c.58,0,13.77-1.28,21.31-4.93.07,1.15.62,9.55.65,10.12-1.71.73-11.63,4.74-20.78,5.24a.47.47,0,0,0-.42.46v0a.45.45,0,0,0,.47.42c10.17-.58,21.28-5.39,21.39-5.44l.29-.14-.79-12.09Z" transform="translate(-15.67 -9.32)"/><path class="cls-1" d="M284.53,127.61c7.24,3.8,21.43,5.12,21.56,5.12a.45.45,0,0,1-.07.9c-.57,0-13.78-1.28-21.3-4.93-.08,1.15-.61,9.55-.66,10.12,1.71.73,11.64,4.74,20.78,5.24a.47.47,0,0,1,.43.46v0a.44.44,0,0,1-.47.42c-10.19-.58-21.28-5.39-21.38-5.44l-.3-.14.79-12.09Z" transform="translate(-15.67 -9.32)"/><path class="cls-1" d="M310.48,116.94c-1.2.08-1.06-.8-1.06-.8-.05-.9,1.06-.94,1.06-.94l3.74-.13c1.72-.36,1.36-2.48,1.36-2.48,0-1.65-.89-1.47-1.68-1.78a8.84,8.84,0,0,0-3.11.18c-1.32-.07-1-1.16-1-1.16-.05-1.68-1.33-1.73-1.33-1.73-1.37-.09-1.42,2.53-1.42,2.53l.05,9.4s.11,1,.2,1.78,1.07.94,1.6,1a1.62,1.62,0,0,0,1-.26l2.17,0c2.22-.22,2.61-1,2.89-1.69a.18.18,0,0,0,0-.11,8.36,8.36,0,0,0,0-2.41C314.57,116.23,310.48,116.94,310.48,116.94Zm.16-4.71h1.65a1,1,0,1,1,0,2h-1.65a1,1,0,1,1,0-2Zm1.23,8.38h-1.48a1,1,0,1,1,0-1.9h1.48a1,1,0,1,1,0,1.9Z" transform="translate(-15.67 -9.32)"/><path class="cls-1" d="M319.08,110l8.32.08s1.47.1,1.47,1.21c0,0-.21,1.52-1.47,1.55l-2.2.14s-.8-.14-.8.87c0,0-.23,1,1.12,1.12,0,0,3.45.09,3.75,1.56a4.59,4.59,0,0,1,.36,4s-1,2.6-2,0l-.29-1.69-.25-.66a1.7,1.7,0,0,0-1.5-.89s-1.23-.22-1.2,1.52l-.21,2.82s-.54,1.7-1.41,1.7c0,0-1.52.17-1.52-2.18l-.13-2.74s.26-1.08-1.34-1.12c0,0-1.59-.22-1.51,2l-.13,1.29s-.31,1.26-1.15,1.18c0,0-1.19.27-1.16-1.81l0-2.75a2.43,2.43,0,0,1,2.16-2l1.3,0s1.77.17,1.82-1.48a1.46,1.46,0,0,0-1.56-1.09l-2.09,0s-1,.1-1-1.42c0,0-.13-1.29,1.86-1.29Z" transform="translate(-15.67 -9.32)"/><path class="cls-1" d="M310.12,130.48l4.3.09s1.42-2.75,3-2.79c0,0,1.55-.25,2.79,2.79l6.16-.18s2.71,0,2.94,2l.89,3.41s.88,5.59,2.48,8.64c0,0,1.34,1.3.27,2.26,0,0-1.37,1.34-3.12-1.72,0,0-1.61-1.95-3.48-10.46,0,0,.12-1.84-1.38-1.74l-3.81.1a49.07,49.07,0,0,1,2,7.17,26.08,26.08,0,0,0,1.23,3.64s.75,1.81-.67,2.57a2.36,2.36,0,0,1-2.56-2l-2-7.38-.88-3s-.82-1.91-1.47-.37l-.75,3.08s-1.33,6.82-2.67,8.38c0,0-1.55,2-2.58,1.28,0,0-1.54-.71-.21-3.06a21.83,21.83,0,0,0,1.78-5.55l.88-4.77-3.1-.1s-.75-.62-1.24,1.48l-1.78,5.66-1.51,4.26-.22,1.56a5.07,5.07,0,0,1-.71.66,1.9,1.9,0,0,1-1.65.38c-.34-.17-.93-.48-1-.73a10,10,0,0,1,.27-1.75c0-.16.7-1.85.7-1.85l2.58-7.71.71-2.81a3.19,3.19,0,0,1,2-1.36l1.2-.18Z" transform="translate(-15.67 -9.32)"/><path class="cls-1" d="M318.74,160.16a.29.29,0,0,0,0,.42,24.81,24.81,0,0,0,13,5.81.32.32,0,0,0,.34-.25.32.32,0,0,0-.26-.35,23.84,23.84,0,0,1-12.72-5.68A.28.28,0,0,0,318.74,160.16Z" transform="translate(-15.67 -9.32)"/><path class="cls-1" d="M314.86,155.35a.28.28,0,0,0-.12.39,16,16,0,0,0,1.87,2.65.31.31,0,0,0,.43.05.3.3,0,0,0,0-.44,16.08,16.08,0,0,1-1.81-2.53A.28.28,0,0,0,314.86,155.35Z" transform="translate(-15.67 -9.32)"/><path class="cls-1" d="M317.75,161.06a.31.31,0,0,0,0,.43A25.7,25.7,0,0,0,332,168a.29.29,0,0,0,.32-.27.3.3,0,0,0-.26-.32A25,25,0,0,1,318.17,161,.29.29,0,0,0,317.75,161.06Z" transform="translate(-15.67 -9.32)"/><path class="cls-1" d="M312.84,155.47a.28.28,0,0,0-.09.41,27.67,27.67,0,0,0,2.85,3.52.31.31,0,0,0,.43,0,.29.29,0,0,0,0-.43,25.61,25.61,0,0,1-2.81-3.43A.3.3,0,0,0,312.84,155.47Z" transform="translate(-15.67 -9.32)"/><path class="cls-1" d="M316.56,162a.3.3,0,0,0,0,.43,28.75,28.75,0,0,0,15.66,6.91.34.34,0,0,0,.35-.26.28.28,0,0,0-.27-.32A28.38,28.38,0,0,1,317,162,.27.27,0,0,0,316.56,162Z" transform="translate(-15.67 -9.32)"/><path class="cls-1" d="M310.84,155.29a.29.29,0,0,0-.11.4,24.51,24.51,0,0,0,3.74,4.73.28.28,0,0,0,.42,0,.31.31,0,0,0,0-.43,26.61,26.61,0,0,1-3.65-4.59A.3.3,0,0,0,310.84,155.29Z" transform="translate(-15.67 -9.32)"/><path class="cls-1" d="M322.07,166a4.36,4.36,0,0,0,.13,2.58c1.73,3.84,6.08,4.17,6.27,4.17a1.6,1.6,0,0,0,2-1.17,1.86,1.86,0,0,0-.47-1.44,2.07,2.07,0,0,0-1.44-.54s-3.39-.23-3.44-2.33a.31.31,0,0,0-.31-.29.29.29,0,0,0-.28.31c.06,2.63,3.84,2.89,4,2.89a1.71,1.71,0,0,1,1,.38,1.16,1.16,0,0,1,.29.95,1,1,0,0,1-1.3.66c-.08,0-4.23-.31-5.79-3.84a3.8,3.8,0,0,1-.09-2.22.32.32,0,0,0-.26-.35A.27.27,0,0,0,322.07,166Z" transform="translate(-15.67 -9.32)"/><path class="cls-1" d="M323,166.56c0,.07,0,4.76,6.13,5a.32.32,0,0,0,.32-.3.33.33,0,0,0-.3-.32c-5.56-.2-5.56-4.2-5.56-4.38a.3.3,0,0,0-.59,0Z" transform="translate(-15.67 -9.32)"/><path class="cls-1" d="M327.76,160.38a7.41,7.41,0,0,0-4.53,2.87.31.31,0,0,0,.08.41.3.3,0,0,0,.42-.09,6.88,6.88,0,0,1,4.15-2.6c2.21-.42,4.64.25,7.23,2,.06,0,2.05,1.72,3.56,1.54a1.58,1.58,0,0,0,1.15-.68,1.1,1.1,0,0,0,.28-.93c-.07-.63-.6-1.22-1.54-1.77-.05,0-1.56-1.16-4.06.62a.54.54,0,0,0-.05.11A9.69,9.69,0,0,0,327.76,160.38Zm10.47,1.26c1,.58,1.23,1,1.28,1.34a.61.61,0,0,1-.15.49,1,1,0,0,1-.76.47c-1.27.15-3.09-1.42-3.12-1.42-.18-.13-.34-.22-.52-.33C337,160.8,338.18,161.61,338.23,161.64Z" transform="translate(-15.67 -9.32)"/><path class="cls-1" d="M333.4,161.2a.33.33,0,0,0,0,.43.3.3,0,0,0,.42,0,4.4,4.4,0,0,1,6.16-.23,2.64,2.64,0,0,1,.22,3.43c-.05.08-1,1.35-3.56-.31-.3-.23-8.22-5.73-12-.75a.29.29,0,0,0,.05.41.32.32,0,0,0,.42,0c3.45-4.51,11.15.84,11.23.9,3.13,2,4.34.21,4.4.15a3.33,3.33,0,0,0-.33-4.23A5,5,0,0,0,333.4,161.2Z" transform="translate(-15.67 -9.32)"/><path class="cls-1" d="M331.92,160.74a.28.28,0,0,0,0,.42.29.29,0,0,0,.41,0c5.07-4.47,8.75-.48,8.9-.28,2.29,2.67-.37,5-.48,5.14-2.43,1.82-5.17-.57-5.3-.67-5.94-4.45-9.55-1.09-9.58-1.06a.29.29,0,0,0,0,.43.28.28,0,0,0,.42,0c.13-.12,3.31-3,8.81,1.08,0,0,3.21,2.81,6.05.68,0,0,3.22-2.87.54-6C341.59,160.43,337.42,155.86,331.92,160.74Z" transform="translate(-15.67 -9.32)"/><path class="cls-1" d="M334.27,155a1.26,1.26,0,0,0-.87.6,2.07,2.07,0,0,0,0,1.53,3.34,3.34,0,0,1-.08,2.51.29.29,0,0,0,.08.41.31.31,0,0,0,.42-.09,3.88,3.88,0,0,0,.16-3,1.36,1.36,0,0,1,0-1,.58.58,0,0,1,.47-.31,1.28,1.28,0,0,1,1,.28,3.59,3.59,0,0,1,1.06,2.73.31.31,0,0,0,.33.28.28.28,0,0,0,.26-.31,4.17,4.17,0,0,0-1.3-3.2A1.79,1.79,0,0,0,334.27,155Z" transform="translate(-15.67 -9.32)"/><path class="cls-1" d="M334.09,155.33a.3.3,0,0,0,0,.41,9.17,9.17,0,0,1,1,3.37.32.32,0,0,0,.34.25.28.28,0,0,0,.25-.33c0-.3-.42-2.8-1.19-3.67A.27.27,0,0,0,334.09,155.33Z" transform="translate(-15.67 -9.32)"/><path class="cls-1" d="M344.62,155.54c-3.21,1.55-2.52,6.68-2.49,6.91a.29.29,0,0,0,.34.25.33.33,0,0,0,.26-.33c0-.05-.67-4.93,2.1-6.27.32-.08,1.44-.25,1.85.18a.85.85,0,0,1,.14.51,3.07,3.07,0,0,1-.21.91A8.25,8.25,0,0,0,345,163s0,2.58-1.54,3.58a3.6,3.6,0,0,1-3.3,0,.27.27,0,0,0-.36.16.28.28,0,0,0,.15.38,4,4,0,0,0,3.86-.05c1.74-1.17,1.79-3.95,1.79-4.05A7.7,7.7,0,0,1,347.1,158l0,0,0-.05c.37-.91.36-1.59-.05-2C346.41,155.1,344.81,155.49,344.62,155.54Z" transform="translate(-15.67 -9.32)"/><path class="cls-1" d="M346.78,155.94a3.28,3.28,0,0,0-2.32,1.35,5.92,5.92,0,0,0-.9,3.39,9.49,9.49,0,0,0,.12,1.51,3.36,3.36,0,0,1-.87,2.39,1.58,1.58,0,0,1-1.08.42.29.29,0,0,0-.32.28.28.28,0,0,0,.27.31,2,2,0,0,0,1.5-.55,3.89,3.89,0,0,0,1.09-2.85v-.06s-.5-2.86.67-4.5a2.78,2.78,0,0,1,1.92-1.11.29.29,0,0,0,.25-.34A.26.26,0,0,0,346.78,155.94Z" transform="translate(-15.67 -9.32)"/><path class="cls-1" d="M331.77,163.45a.3.3,0,0,0-.29.31,23.73,23.73,0,0,0,1,6.09c.05.09,2.23,4.17.31,6a.28.28,0,0,0,0,.42.3.3,0,0,0,.42,0c2.27-2.13-.05-6.47-.15-6.66a23.35,23.35,0,0,1-.91-5.85A.3.3,0,0,0,331.77,163.45Z" transform="translate(-15.67 -9.32)"/><path class="cls-1" d="M333.1,164.34a4.94,4.94,0,0,0-.14,1.3,14.58,14.58,0,0,0,1.54,5.55,10,10,0,0,1,.32,2.4c0,2.63-1.35,3.51-1.42,3.54a.3.3,0,0,0-.12.26.28.28,0,0,0,.43.26c.11-.06,2.57-1.63,1.37-6.63l0,0v0s-2.06-4-1.37-6.45a.3.3,0,0,0-.21-.37A.29.29,0,0,0,333.1,164.34Z" transform="translate(-15.67 -9.32)"/><path class="cls-1" d="M334.38,165.28a12.1,12.1,0,0,0,.95,5.26c0,.05,2.22,5-1.12,7.45a.32.32,0,0,0-.06.42.3.3,0,0,0,.41.06c3.73-2.73,1.36-8.11,1.34-8.17a11.72,11.72,0,0,1-.94-5,.29.29,0,0,0-.25-.32A.3.3,0,0,0,334.38,165.28Z" transform="translate(-15.67 -9.32)"/><path class="cls-1" d="M335.73,170.46a.36.36,0,0,0-.25.36.3.3,0,0,0,.37.23,2.3,2.3,0,0,1,1.44.13.31.31,0,0,0,.41-.07.3.3,0,0,0-.06-.42A2.92,2.92,0,0,0,335.73,170.46Z" transform="translate(-15.67 -9.32)"/><path class="cls-1" d="M336,172.12a.3.3,0,0,0,.26.33l.83.1a.28.28,0,0,0,.34-.25.29.29,0,0,0-.25-.33l-.84-.1A.3.3,0,0,0,336,172.12Z" transform="translate(-15.67 -9.32)"/><path class="cls-1" d="M336.11,173.76a.26.26,0,0,0,.28.29l.84.08a.29.29,0,0,0,.31-.27.33.33,0,0,0-.29-.34l-.82,0A.27.27,0,0,0,336.11,173.76Z" transform="translate(-15.67 -9.32)"/><path class="cls-1" d="M351,161.22c-2.11.45-3.64,3.15-3.7,3.26v.08c-.74,2.72-4.9,3.27-4.94,3.29-4.37.34-5.33,3.47-5.38,3.6a6.18,6.18,0,0,0,4,6.73c4,1.91,4.88,4.32,4.9,4.33,2.24,4.84,5.34,6.56,5.47,6.63h0l.62.33a3.28,3.28,0,0,0,2.42.66,2.44,2.44,0,0,0,1.38-.87,1.87,1.87,0,0,0,.23-1.62,2.47,2.47,0,0,0-1.51-1.22c-3.41-1.12-5.93-6.43-6-6.48a10.63,10.63,0,0,0-4.93-4.5h-.05a3.09,3.09,0,0,1-2.44-2.54,1.32,1.32,0,0,1,.07-1.22c.56-.88,2.27-1.1,2.28-1.1,4.77-.17,6.71-3.13,6.79-3.26a4.51,4.51,0,0,1,1.65-2.22,2.61,2.61,0,0,0,1.73-1.47,2.24,2.24,0,0,0-.13-1.75l0,0,0,0A2.91,2.91,0,0,0,351,161.22Zm.12.59a2.16,2.16,0,0,1,1.81.41,1.33,1.33,0,0,1,.17.71,1.53,1.53,0,0,1-.07.47,2.16,2.16,0,0,1-1.4,1.13c-.05,0-1,.45-1.95,2.48a8,8,0,0,1-6.32,3c-.1,0-2,.24-2.73,1.38a1.93,1.93,0,0,0-.16,1.7,3.78,3.78,0,0,0,2.92,3h-.07a10.41,10.41,0,0,1,4.65,4.2c.08.22,2.65,5.58,6.29,6.77a2,2,0,0,1,1.15.88,1.18,1.18,0,0,1-.2,1.08s-1,1.39-3,0l-.63-.36s-3-1.69-5.23-6.32c0-.08-1-2.61-5.2-4.67a5.44,5.44,0,0,1-3.62-6c0-.07.9-2.83,4.85-3.15.21,0,4.63-.62,5.43-3.73v.08S349.28,162.19,351.11,161.81Z" transform="translate(-15.67 -9.32)"/><path class="cls-1" d="M352.81,161.59a11.55,11.55,0,0,0-4.48,4.55s-1.53,2.33-5.66,2.71c0,0-4.28.17-4.23,4a5.36,5.36,0,0,0,3.72,4.36s4.16,1.76,5.27,5.1v.06c.18.26,4.07,6.45,7.42,7.44a.3.3,0,0,0,.37-.22.22.22,0,0,0,0-.08.32.32,0,0,0-.21-.3c-3.13-.89-7-7-7.07-7.16-1.23-3.54-5.42-5.34-5.6-5.4a4.66,4.66,0,0,1-3.33-3.82v-.08c0-3.19,3.52-3.33,3.67-3.35,4.45-.39,6.09-2.9,6.15-3a11.14,11.14,0,0,1,4.23-4.28.33.33,0,0,0,.16-.28.24.24,0,0,0-.05-.14A.26.26,0,0,0,352.81,161.59Z" transform="translate(-15.67 -9.32)"/><path class="cls-1" d="M347.48,168.87c-.85,2.5-.87,4.31-.09,5.44a2.53,2.53,0,0,0,1.89,1c1.47.09,2.08-1.37,2.19-2.15-.05-.47-.13-1-.55-1.14s-.79.39-.89.54a1.14,1.14,0,0,1-.52.33.8.8,0,0,1-.71-.17c-.33-.37-.2-1.15-.14-1.42a2,2,0,0,1,1-1.17,3.18,3.18,0,0,1,2.19.19,3.49,3.49,0,0,1,.87,4.86c-1.74,3-5.42,1.41-5.59,1.36-3-1.42-2.23-6.28-2.22-6.32a.3.3,0,0,0-.25-.35.29.29,0,0,0-.33.24c-.06.23-.9,5.37,2.55,7,.05,0,4.34,1.91,6.34-1.58a4.11,4.11,0,0,0-1.08-5.68,3.68,3.68,0,0,0-2.71-.22,2.54,2.54,0,0,0-1.08,3.52,1.35,1.35,0,0,0,1.31.35,1.5,1.5,0,0,0,.88-.58.7.7,0,0,1,.26-.23,1.31,1.31,0,0,1,.08.49s-.25,1.67-1.56,1.56a1.82,1.82,0,0,1-1.43-.79c-.65-.93-.59-2.64.17-4.86a.31.31,0,0,0-.17-.4A.33.33,0,0,0,347.48,168.87Z" transform="translate(-15.67 -9.32)"/><path class="cls-1" d="M345.81,169.68s-1.37,5.11,2.12,6.59a3.72,3.72,0,0,0,4.4-1.69,3.46,3.46,0,0,0-.2-2.82,2.15,2.15,0,0,0-1.92-.74,1.91,1.91,0,0,0-2,1.74.27.27,0,0,0,.26.31.31.31,0,0,0,.33-.29c0-1.1,1.37-1.17,1.42-1.17a1.67,1.67,0,0,1,1.44.51c.58.76.12,2.2.12,2.23a3.06,3.06,0,0,1-3.64,1.36c-3-1.26-1.77-5.82-1.76-5.86a.29.29,0,0,0-.2-.37A.28.28,0,0,0,345.81,169.68Z" transform="translate(-15.67 -9.32)"/><path class="cls-1" d="M339.34,182.28c0,.14-.48,2.85.57,4.17a1.89,1.89,0,0,0,1.43.72,1.84,1.84,0,0,0,1.51-.47,2.09,2.09,0,0,0,.13-2,1.66,1.66,0,0,1,.55-2.07s1-.66,2.41.7a.3.3,0,0,0,.43,0,.29.29,0,0,0,0-.41c-1.84-1.72-3.13-.79-3.18-.75a2.23,2.23,0,0,0-.78,2.75c.24.66.22,1.17,0,1.43a1.21,1.21,0,0,1-1,.27,1.4,1.4,0,0,1-1-.49c-.87-1.11-.44-3.65-.44-3.65a3.15,3.15,0,0,1,3.86-2.35.29.29,0,0,0,.37-.22.32.32,0,0,0-.23-.36S340.24,178.7,339.34,182.28Z" transform="translate(-15.67 -9.32)"/><path class="cls-1" d="M341.32,181.81a3.82,3.82,0,0,0,.8,4.84.3.3,0,0,0,.42,0,.28.28,0,0,0,0-.42,3.15,3.15,0,0,1-.65-4.08c.77-1.37,3.26-.87,3.3-.86a.32.32,0,0,0,.35-.25.3.3,0,0,0-.24-.34C345.14,180.64,342.31,180.09,341.32,181.81Z" transform="translate(-15.67 -9.32)"/><path class="cls-1" d="M333.14,170.81a5.46,5.46,0,0,0-3.37,3.08c-.5,1.54,0,3.35,1.5,5.36v0l.05,0c.7.54,2.53,2.2,2.3,3.31-.11.51-.64.89-1.6,1.13-.17.07-1.09.55-1.19,1.32a1.31,1.31,0,0,0,.58,1.2c.17.11,2.83,1.45,4.8-.39a5.2,5.2,0,0,0,1.17-3.47,6,6,0,0,0-2.41-4.12,4.32,4.32,0,0,1-1.74-2.49,2.36,2.36,0,0,1,.7-1.87.3.3,0,1,0-.44-.4,3,3,0,0,0-.85,2.34,4.85,4.85,0,0,0,2,2.9,5.42,5.42,0,0,1,2.17,3.67,4.45,4.45,0,0,1-1,3c-1.63,1.52-3.94.36-4,.32a.82.82,0,0,1-.33-.58.1.1,0,0,1,0,0c0-.39.6-.75.81-.86,1.13-.27,1.82-.79,2-1.54a1.75,1.75,0,0,0,0-.32c0-1.57-2.14-3.29-2.53-3.56a6.59,6.59,0,0,1-1.54-3.77,3.75,3.75,0,0,1,.15-1,5,5,0,0,1,3-2.69.33.33,0,0,0,.22-.29.25.25,0,0,0,0-.09A.29.29,0,0,0,333.14,170.81Z" transform="translate(-15.67 -9.32)"/><path class="cls-1" d="M333.46,172.16a4,4,0,0,0-2.41,2.15,3.38,3.38,0,0,0,.53,3,10.53,10.53,0,0,0,2,2.17s2.11,2.08,1.71,4c-.22,1-1.16,1.87-2.8,2.49a.27.27,0,0,0-.17.37.31.31,0,0,0,.38.18c1.84-.68,2.91-1.65,3.17-2.91.48-2.24-1.8-4.45-1.89-4.55a10.27,10.27,0,0,1-1.85-2.06,2.88,2.88,0,0,1-.48-2.46,3.59,3.59,0,0,1,2-1.77.32.32,0,0,0,.19-.39A.28.28,0,0,0,333.46,172.16Z" transform="translate(-15.67 -9.32)"/><path class="cls-1" d="M325,173.44a.3.3,0,0,0,.09.42c2.89,2,4.84,1.83,4.92,1.83a.31.31,0,0,0,.28-.33.3.3,0,0,0-.33-.27s-1.84.12-4.54-1.74A.33.33,0,0,0,325,173.44Z" transform="translate(-15.67 -9.32)"/><path class="cls-1" d="M324.54,174.58a.3.3,0,0,0,.14.41,23,23,0,0,0,5.43,2.13.29.29,0,0,0,.35-.23.3.3,0,0,0-.24-.35,22,22,0,0,1-5.27-2.09A.3.3,0,0,0,324.54,174.58Z" transform="translate(-15.67 -9.32)"/><path class="cls-1" d="M323.89,175.74a.3.3,0,0,0,.1.41,20.33,20.33,0,0,0,7,2.54.28.28,0,0,0,.32-.25.27.27,0,0,0-.28-.33,20.27,20.27,0,0,1-6.71-2.48A.29.29,0,0,0,323.89,175.74Z" transform="translate(-15.67 -9.32)"/><path class="cls-1" d="M318.94,155c-.05.1-4.61,8.65-16.61,10.33a.28.28,0,0,0-.24.34.27.27,0,0,0,.33.24c12.32-1.71,17-10.54,17.05-10.63a.31.31,0,0,0-.13-.4A.3.3,0,0,0,318.94,155Z" transform="translate(-15.67 -9.32)"/><path class="cls-1" d="M321,155.05c-.06.11-7.08,10.74-18.82,11.84a.3.3,0,0,0-.28.34.29.29,0,0,0,.33.25c12-1.11,19.2-12,19.28-12.12a.3.3,0,1,0-.51-.31Z" transform="translate(-15.67 -9.32)"/><path class="cls-1" d="M323,154.89c-.07.12-6.91,11.76-21.07,13.34a.3.3,0,0,0-.26.33.32.32,0,0,0,.33.27c14.47-1.62,21.44-13.52,21.51-13.63a.3.3,0,1,0-.51-.31Z" transform="translate(-15.67 -9.32)"/><path class="cls-1" d="M311.8,165.28a.29.29,0,0,0-.25.35,4,4,0,0,1-.09,2.19c-1.57,3.55-5.72,3.86-5.77,3.86a1.05,1.05,0,0,1-1.36-.72,1.27,1.27,0,0,1,.31-.87,1.46,1.46,0,0,1,1-.38c.2,0,4-.28,4-2.9a.29.29,0,1,0-.58,0c-.05,2.08-3.43,2.32-3.46,2.34a2,2,0,0,0-1.42.53,1.76,1.76,0,0,0-.48,1.37,1.62,1.62,0,0,0,2,1.25c.15,0,4.51-.32,6.24-4.2a4.46,4.46,0,0,0,.12-2.55A.28.28,0,0,0,311.8,165.28Z" transform="translate(-15.67 -9.32)"/><path class="cls-1" d="M311,165.78a.28.28,0,0,0-.29.29c0,.16-.07,4.21-5.7,4.5a.29.29,0,0,0-.27.31.32.32,0,0,0,.31.29c6.21-.32,6.25-5.06,6.25-5.1A.29.29,0,0,0,311,165.78Z" transform="translate(-15.67 -9.32)"/><path class="cls-1" d="M299.76,161.38s0-.1-.05-.12c-2.5-1.78-4-.64-4.1-.61a2.68,2.68,0,0,0-1.51,1.76,1.17,1.17,0,0,0,.32,1,1.6,1.6,0,0,0,1.1.66c1.54.16,3.52-1.51,3.59-1.58,2.57-1.74,5-2.41,7.21-2a7,7,0,0,1,4.16,2.59.28.28,0,0,0,.41.09.29.29,0,0,0,.08-.42,7.39,7.39,0,0,0-4.53-2.84A9.57,9.57,0,0,0,299.76,161.38Zm-4.16,2a1,1,0,0,1-.73-.42.69.69,0,0,1-.17-.54c0-.27.3-.74,1.25-1.31.07-.07,1.26-.88,3.3.52-.18.12-.34.19-.51.31S296.87,163.57,295.6,163.42Z" transform="translate(-15.67 -9.32)"/><path class="cls-1" d="M293.88,160.44a3.34,3.34,0,0,0-.34,4.25c0,.06,1.25,1.84,4.35-.15.11-.06,7.8-5.41,11.27-.91a.27.27,0,0,0,.41.06.31.31,0,0,0,.06-.42c-3.82-5-11.73.54-12.06.77-2.56,1.64-3.5.36-3.53.31a2.73,2.73,0,0,1,.24-3.49,4.42,4.42,0,0,1,6.14.27.26.26,0,0,0,.41,0,.32.32,0,0,0,0-.43A5,5,0,0,0,293.88,160.44Z" transform="translate(-15.67 -9.32)"/><path class="cls-1" d="M292.57,160c-2.68,3.14.49,6,.53,6,2.85,2.12,6-.65,6.06-.67,5.49-4.13,8.67-1.2,8.81-1.08a.28.28,0,0,0,.42,0,.29.29,0,0,0,0-.41s-3.65-3.41-9.59,1c-.13.15-2.88,2.51-5.32.68-.1-.08-2.74-2.46-.46-5.13.14-.16,3.82-4.17,8.88.29a.29.29,0,0,0,.42,0,.27.27,0,0,0,0-.42C296.78,155.35,292.61,159.91,292.57,160Z" transform="translate(-15.67 -9.32)"/><path class="cls-1" d="M298.42,154.84a4.12,4.12,0,0,0-1.3,3.18.3.3,0,0,0,.27.33.32.32,0,0,0,.33-.28,3.63,3.63,0,0,1,1-2.74,1.27,1.27,0,0,1,1-.27.61.61,0,0,1,.46.3,1.35,1.35,0,0,1,0,1,4,4,0,0,0,.16,3.08.33.33,0,0,0,.41.06.31.31,0,0,0,.09-.41,3.4,3.4,0,0,1-.07-2.56,2,2,0,0,0,0-1.45,1.27,1.27,0,0,0-.88-.64A2,2,0,0,0,298.42,154.84Z" transform="translate(-15.67 -9.32)"/><path class="cls-1" d="M299.7,154.84c-.76.87-1.14,3.38-1.18,3.67a.31.31,0,0,0,.23.35.34.34,0,0,0,.35-.27,9.21,9.21,0,0,1,1.06-3.36.35.35,0,0,0,0-.43A.3.3,0,0,0,299.7,154.84Z" transform="translate(-15.67 -9.32)"/><path class="cls-1" d="M287.09,155.38c-.41.44-.42,1.15,0,2.06l0,.06,0,.05a7.45,7.45,0,0,1,1.54,4.9c0,.12.05,2.91,1.8,4.09a4,4,0,0,0,3.85,0,.3.3,0,0,0,.17-.38.32.32,0,0,0-.39-.17,3.5,3.5,0,0,1-3.29,0c-1.5-1-1.55-3.56-1.55-3.58a8.28,8.28,0,0,0-1.64-5.28,2.76,2.76,0,0,1-.22-.9.72.72,0,0,1,.16-.49c.4-.43,1.52-.26,1.89-.18,2.73,1.32,2.08,6.21,2.07,6.24a.3.3,0,0,0,.24.35.3.3,0,0,0,.34-.27c.05-.2.72-5.34-2.45-6.87C289.41,155,287.79,154.59,287.09,155.38Z" transform="translate(-15.67 -9.32)"/><path class="cls-1" d="M287.09,155.66a.31.31,0,0,0,.25.35,2.66,2.66,0,0,1,1.92,1.11c1.18,1.65.69,4.47.67,4.49v.08a3.88,3.88,0,0,0,1.1,2.84,2.16,2.16,0,0,0,1.5.56.31.31,0,0,0,.28-.31.3.3,0,0,0-.33-.28,1.55,1.55,0,0,1-1.08-.44,3.31,3.31,0,0,1-.87-2.39,9.74,9.74,0,0,0,.11-1.5,5.85,5.85,0,0,0-.9-3.38,3.24,3.24,0,0,0-2.32-1.38A.29.29,0,0,0,287.09,155.66Z" transform="translate(-15.67 -9.32)"/><path class="cls-1" d="M302.13,163.23a24,24,0,0,1-.94,6c-.07.11-2.4,4.44-.15,6.59a.34.34,0,0,0,.44,0,.29.29,0,0,0,0-.43c-1.91-1.82.27-5.9.29-5.92a23.47,23.47,0,0,0,1-6.17.29.29,0,0,0-.29-.3A.29.29,0,0,0,302.13,163.23Z" transform="translate(-15.67 -9.32)"/><path class="cls-1" d="M300.74,163.61a.29.29,0,0,0-.21.37c.69,2.47-1.36,6.44-1.37,6.46l0,0,0,0c-1.2,5,1.26,6.56,1.37,6.62a.31.31,0,0,0,.42-.09.36.36,0,0,0,0-.15.26.26,0,0,0-.13-.26c-.08,0-1.41-.92-1.41-3.55a9.73,9.73,0,0,1,.32-2.39,14.65,14.65,0,0,0,1.54-5.57,4.36,4.36,0,0,0-.16-1.31A.27.27,0,0,0,300.74,163.61Z" transform="translate(-15.67 -9.32)"/><path class="cls-1" d="M299.49,164.5a.29.29,0,0,0-.26.31,11.68,11.68,0,0,1-.93,5s-2.39,5.42,1.34,8.15a.28.28,0,0,0,.41-.07.27.27,0,0,0-.07-.4c-3.33-2.44-1.15-7.39-1.12-7.45a11.6,11.6,0,0,0,.95-5.26A.28.28,0,0,0,299.49,164.5Z" transform="translate(-15.67 -9.32)"/><path class="cls-1" d="M296.57,170.17a.29.29,0,0,0-.06.42.3.3,0,0,0,.41.08,2.29,2.29,0,0,1,1.44-.13.28.28,0,0,0,.34-.24.28.28,0,0,0-.23-.34A2.84,2.84,0,0,0,296.57,170.17Z" transform="translate(-15.67 -9.32)"/><path class="cls-1" d="M297.88,171.34l-.85.11a.3.3,0,0,0,.09.6l.85-.1a.33.33,0,0,0,.24-.35A.31.31,0,0,0,297.88,171.34Z" transform="translate(-15.67 -9.32)"/><path class="cls-1" d="M297.79,173,297,173a.29.29,0,0,0-.27.31.3.3,0,0,0,.31.29l.83-.06a.3.3,0,0,0,.28-.32A.29.29,0,0,0,297.79,173Z" transform="translate(-15.67 -9.32)"/><path class="cls-1" d="M280.86,161.26l-.05,0-.05,0a2.34,2.34,0,0,0-.13,1.75,2.61,2.61,0,0,0,1.74,1.47,4.52,4.52,0,0,1,1.62,2.18c.11.17,2.06,3.13,6.84,3.29,0,0,1.7.22,2.27,1.12a1.26,1.26,0,0,1,.06,1.17,3.12,3.12,0,0,1-2.43,2.58h0l0,0a10.83,10.83,0,0,0-4.94,4.47c0,.06-2.55,5.38-6,6.49a2.53,2.53,0,0,0-1.5,1.22,1.77,1.77,0,0,0,.22,1.62,2.14,2.14,0,0,0,1.38.86,3.14,3.14,0,0,0,2.44-.67l.59-.31h0c.13-.06,3.23-1.78,5.47-6.6,0-.05.94-2.46,4.94-4.36a6.19,6.19,0,0,0,4-6.67c-.07-.17-1-3.31-5.41-3.67,0,0-4.19-.56-4.93-3.28V164c-.05-.13-1.59-2.82-3.7-3.29A2.91,2.91,0,0,0,280.86,161.26Zm2.24,0c1.85.41,3.29,2.94,3.3,3l0-.08c.83,3.11,5.25,3.72,5.45,3.73,4,.32,4.83,3.08,4.88,3.2a5.47,5.47,0,0,1-3.6,6c-4.28,2-5.24,4.6-5.26,4.7a14.14,14.14,0,0,1-5.21,6.29l-.62.34c-2,1.39-3,0-3,0a1.19,1.19,0,0,1-.19-1.06c.26-.6,1.12-.86,1.14-.88,3.65-1.19,6.2-6.56,6.3-6.77a10.3,10.3,0,0,1,4.63-4.2h-.05a3.76,3.76,0,0,0,2.92-3,1.89,1.89,0,0,0,.13-.7,1.62,1.62,0,0,0-.29-.93c-.71-1.16-2.63-1.38-2.72-1.39a8.1,8.1,0,0,1-6.36-3A4.79,4.79,0,0,0,282.6,164a2.07,2.07,0,0,1-1.41-1.12,1.4,1.4,0,0,1-.09-.48,1.28,1.28,0,0,1,.18-.69A2.23,2.23,0,0,1,283.1,161.28Z" transform="translate(-15.67 -9.32)"/><path class="cls-1" d="M281,161.18a.31.31,0,0,0,0,.15.31.31,0,0,0,.14.26,11.1,11.1,0,0,1,4.23,4.27c.09.15,1.71,2.66,6.16,3.06.16,0,3.67.17,3.67,3.38v.08a4.65,4.65,0,0,1-3.3,3.78c-.21.08-4.4,1.86-5.62,5.42-.07.1-3.95,6.26-7.08,7.16a.3.3,0,0,0-.21.28.17.17,0,0,0,0,.07.29.29,0,0,0,.37.22c3.36-1,7.26-7.16,7.43-7.42v-.08c1.12-3.32,5.26-5.08,5.28-5.1a5.27,5.27,0,0,0,3.71-4.33c.06-3.88-4.2-4.06-4.24-4.06-4.11-.35-5.65-2.7-5.66-2.74a11.88,11.88,0,0,0-4.46-4.51A.3.3,0,0,0,281,161.18Z" transform="translate(-15.67 -9.32)"/><path class="cls-1" d="M286.34,168.18a.3.3,0,0,0-.19.38c.77,2.25.83,3.93.18,4.89a1.9,1.9,0,0,1-1.41.79c-1.33.08-1.58-1.55-1.59-1.64a1.68,1.68,0,0,1,.09-.43.7.7,0,0,1,.27.25,1.37,1.37,0,0,0,.81.55,1.35,1.35,0,0,0,1.37-.35,2.49,2.49,0,0,0-1.08-3.51,3.71,3.71,0,0,0-2.65.19,4.15,4.15,0,0,0-1.12,5.75c2,3.46,6.27,1.56,6.32,1.54,3.46-1.59,2.61-6.74,2.56-7a.3.3,0,0,0-.34-.24.29.29,0,0,0-.24.34s.8,4.93-2.23,6.31c-.16.07-3.84,1.69-5.58-1.31a4.28,4.28,0,0,1-.64-2.14,3.32,3.32,0,0,1,1.56-2.78,3,3,0,0,1,2.12-.15,1.81,1.81,0,0,1,1,1.18c.07.26.2,1-.12,1.39a.86.86,0,0,1-.78.16,1.08,1.08,0,0,1-.46-.3c-.11-.15-.47-.65-.91-.55s-.5.67-.54,1.07c.13.87.73,2.32,2.22,2.21a2.43,2.43,0,0,0,1.86-1c.78-1.13.76-2.94-.09-5.41A.29.29,0,0,0,286.34,168.18Z" transform="translate(-15.67 -9.32)"/><path class="cls-1" d="M288,169a.31.31,0,0,0-.2.38s1.22,4.6-1.78,5.87a3,3,0,0,1-3.63-1.42h0a4.39,4.39,0,0,1-.16-1.09,1.75,1.75,0,0,1,.31-1.1,1.58,1.58,0,0,1,1.41-.48c.06,0,1.4.06,1.45,1.15a.29.29,0,0,0,.3.28.3.3,0,0,0,.29-.31,1.94,1.94,0,0,0-2-1.73,2.12,2.12,0,0,0-1.92.75,3.43,3.43,0,0,0-.22,2.76,3.75,3.75,0,0,0,4.39,1.76c3.51-1.49,2.17-6.56,2.14-6.6A.3.3,0,0,0,288,169Z" transform="translate(-15.67 -9.32)"/><path class="cls-1" d="M290.27,179a.32.32,0,0,0-.23.37.29.29,0,0,0,.36.21c.13,0,3.14-.67,3.88,2.35,0,0,.45,2.55-.44,3.66a1.3,1.3,0,0,1-1,.48,1.26,1.26,0,0,1-1-.27c-.23-.25-.24-.78,0-1.45a2.17,2.17,0,0,0-.8-2.74s-1.3-1-3.14.75a.3.3,0,0,0,0,.42.31.31,0,0,0,.43,0c1.44-1.37,2.36-.72,2.4-.71a1.66,1.66,0,0,1,.57,2,2.07,2.07,0,0,0,.13,2,1.82,1.82,0,0,0,1.54.48,2,2,0,0,0,1.41-.7c1-1.33.58-4,.55-4.15C294,178.19,290.3,179,290.27,179Z" transform="translate(-15.67 -9.32)"/><path class="cls-1" d="M288.94,180.15a.32.32,0,0,0-.24.36.28.28,0,0,0,.35.22s2.54-.49,3.31.87a3.17,3.17,0,0,1-.66,4.08.29.29,0,1,0,.39.44,3.74,3.74,0,0,0,.79-4.81C291.89,179.56,289.06,180.14,288.94,180.15Z" transform="translate(-15.67 -9.32)"/><path class="cls-1" d="M300.69,170.49a.34.34,0,0,0,0,.1.27.27,0,0,0,.22.27s2.35.77,3,2.7a3.59,3.59,0,0,1,.18,1,6.61,6.61,0,0,1-1.56,3.77c-.37.29-2.52,2-2.52,3.56a3,3,0,0,0,0,.31c.18.75.85,1.28,2,1.58.16.08.71.45.76.83v.05a.84.84,0,0,1-.38.61s-2.34,1.17-4-.38a4.37,4.37,0,0,1-1-3,5.37,5.37,0,0,1,2.2-3.69,4.84,4.84,0,0,0,1.94-2.9,2.83,2.83,0,0,0-.86-2.32.31.31,0,0,0-.43,0,.36.36,0,0,0,0,.43,2.31,2.31,0,0,1,.72,1.87,4.19,4.19,0,0,1-1.71,2.48,6,6,0,0,0-2.43,4.15,5,5,0,0,0,1.15,3.42c2,1.89,4.64.52,4.76.46a1.36,1.36,0,0,0,.64-1.22c-.09-.79-1-1.27-1.16-1.31-1-.28-1.53-.65-1.63-1.13-.24-1.12,1.59-2.77,2.31-3.34h0l0-.05c1.5-2,2-3.81,1.5-5.35-.73-2.21-3.26-3-3.37-3.07A.34.34,0,0,0,300.69,170.49Z" transform="translate(-15.67 -9.32)"/><path class="cls-1" d="M300.37,171.82a.29.29,0,0,0,.18.38A3.73,3.73,0,0,1,302.6,174a2.92,2.92,0,0,1-.47,2.45,9.73,9.73,0,0,1-1.86,2.06c-.1.11-2.38,2.32-1.9,4.56.27,1.25,1.34,2.23,3.17,2.9a.28.28,0,0,0,.39-.18.29.29,0,0,0-.18-.38c-1.63-.6-2.58-1.42-2.79-2.48-.4-1.89,1.7-4,1.72-4a9.16,9.16,0,0,0,1.94-2.19,3.31,3.31,0,0,0,.53-3,4.2,4.2,0,0,0-2.4-2.16A.31.31,0,0,0,300.37,171.82Z" transform="translate(-15.67 -9.32)"/><path class="cls-1" d="M313,172.28c-2.75,1.87-8.54,2.51-8.6,2.53a.29.29,0,0,0-.27.32.31.31,0,0,0,.33.28c.25,0,6-.67,8.88-2.64a.32.32,0,0,0,.07-.42A.29.29,0,0,0,313,172.28Z" transform="translate(-15.67 -9.32)"/><path class="cls-1" d="M315.68,171.89c-.08,0-5,4.5-11.62,4.13a.31.31,0,0,0-.32.29.29.29,0,0,0,.3.3c6.83.39,12-4.23,12-4.28a.32.32,0,0,0,0-.43A.26.26,0,0,0,315.68,171.89Z" transform="translate(-15.67 -9.32)"/><path class="cls-1" d="M317.61,172.45c-.05.06-4.69,4.83-14.41,5.14a.28.28,0,0,0-.29.29.3.3,0,0,0,.3.31c10-.33,14.65-5.11,14.84-5.31a.31.31,0,0,0-.44-.43Z" transform="translate(-15.67 -9.32)"/><path class="cls-1" d="M311.87,169c-.16.11-2.94,2.14-2,4.77a.28.28,0,0,0,.37.18.29.29,0,0,0,.18-.38c-.75-2.2,1.76-4,1.8-4.05,4.08-2,10.44,2.73,10.5,2.78a.31.31,0,0,0,.42-.07.3.3,0,0,0-.06-.42C322.77,171.6,316.33,166.82,311.87,169Z" transform="translate(-15.67 -9.32)"/><path class="cls-1" d="M314,169.91c-2.58.29-2.79,3-2.79,3.06a.3.3,0,0,0,.28.32.31.31,0,0,0,.33-.27,2.66,2.66,0,0,1,2.24-2.51s3.94-.23,8.19,3.27a.29.29,0,0,0,.42-.05.3.3,0,0,0,0-.42C318.21,169.67,314.22,169.89,314,169.91Z" transform="translate(-15.67 -9.32)"/><path class="cls-1" d="M312.71,172.36a.3.3,0,0,0-.06.42.29.29,0,0,0,.4.07c3-2.23,8.24,1.94,8.28,2a.3.3,0,0,0,.42,0,.28.28,0,0,0,0-.42C321.49,174.19,316.09,169.85,312.71,172.36Z" transform="translate(-15.67 -9.32)"/><path class="cls-1" d="M320.34,170.46a.29.29,0,0,0,.28.33c1.65.09,1.78,1,1.78,1v.1a1.42,1.42,0,0,1,0,1.21c-.65,1.52-3.38,2.55-3.39,2.57a17.71,17.71,0,0,0-3.11,1.39.32.32,0,0,0-.11.41.31.31,0,0,0,.41.11,17.35,17.35,0,0,1,3-1.34c.15-.06,3-1.15,3.76-2.9a2.16,2.16,0,0,0,0-1.69l0,.09c0-.06-.16-1.44-2.35-1.55A.28.28,0,0,0,320.34,170.46Z" transform="translate(-15.67 -9.32)"/><path class="cls-1" d="M319.68,169.64a.31.31,0,0,0-.23.37.29.29,0,0,0,.37.2,3.86,3.86,0,0,1,2.72.25,2.43,2.43,0,0,1,.9,3.16l0,0v0c-.48,1.81-4.4,3.34-5.87,3.77a.27.27,0,0,0-.19.36.3.3,0,0,0,.36.21c.23-.07,5.63-1.7,6.28-4.16l0,.06a3.09,3.09,0,0,0-1.09-4A4.56,4.56,0,0,0,319.68,169.64Z" transform="translate(-15.67 -9.32)"/><path class="cls-1" d="M324.78,171a.29.29,0,0,0-.19.37,4.35,4.35,0,0,1-.33,3.44c-1.37,2.32-4.84,3.15-4.86,3.15a.31.31,0,0,0-.23.35.3.3,0,0,0,.36.24c.15-.05,3.73-.88,5.25-3.43a4.91,4.91,0,0,0,.38-3.91A.33.33,0,0,0,324.78,171Z" transform="translate(-15.67 -9.32)"/><path class="cls-1" d="M318.26,169a.3.3,0,0,0-.11.41.27.27,0,0,0,.38.12,5,5,0,0,1,4.24,0,.3.3,0,1,0,.3-.52A5.46,5.46,0,0,0,318.26,169Z" transform="translate(-15.67 -9.32)"/><path class="cls-1" d="M313.3,175.69a.26.26,0,0,0-.11.39c0,.1,1.12,1.88,5.45,2.28,0,0,5.19,1.7,5.66,5.2a1.14,1.14,0,0,1-.9,1.33c-.15.06-1.12.41-1.71-1a6,6,0,0,0-4.58-3.75c-.07,0-5.56-.72-6.22-3.41a.29.29,0,0,0-.36-.2.31.31,0,0,0-.22.36c.77,3.05,6.47,3.81,6.71,3.84a5.36,5.36,0,0,1,4.12,3.37c.84,2,2.43,1.35,2.45,1.34a1.69,1.69,0,0,0,1.29-2c-.51-3.86-5.88-5.62-6.1-5.69-4.06-.38-5.06-2-5.07-2A.29.29,0,0,0,313.3,175.69Z" transform="translate(-15.67 -9.32)"/><path class="cls-1" d="M311.92,176.18a.28.28,0,0,0-.12.4c0,.1,1.23,2.49,5.31,2.73,0,0,5.81,1.17,6.07,5.9a.32.32,0,0,0,.32.29.31.31,0,0,0,.27-.31c-.29-5.21-6.53-6.47-6.58-6.48-3.76-.21-4.83-2.3-4.88-2.4A.29.29,0,0,0,311.92,176.18Z" transform="translate(-15.67 -9.32)"/><path class="cls-1" d="M312.75,179.14c-.12.07-2.83,1.58-3.17,3.56a2.5,2.5,0,0,0,.7,2.14v0h0a2.23,2.23,0,0,0,1.76.3,2.39,2.39,0,0,0,1.41-1.6s1.4-2.4,2.74-3a.32.32,0,0,0,.15-.41A.27.27,0,0,0,316,180c-1.52.69-3,3.19-3,3.3-.29.71-.63,1.12-1.07,1.25a1.58,1.58,0,0,1-1.2-.16,2,2,0,0,1-.57-1.33,1.35,1.35,0,0,1,0-.28c.27-1.7,2.84-3.13,2.87-3.15a.28.28,0,0,0,.14-.25.47.47,0,0,0,0-.16A.28.28,0,0,0,312.75,179.14Z" transform="translate(-15.67 -9.32)"/><path class="cls-1" d="M314.1,179.72a10.75,10.75,0,0,0-3.62,5,.31.31,0,0,0,.21.38.29.29,0,0,0,.37-.2,10.43,10.43,0,0,1,3.37-4.69.29.29,0,1,0-.33-.48Z" transform="translate(-15.67 -9.32)"/><path class="cls-1" d="M282.11,89.14a1,1,0,0,0,.43,1.41c.34.18,34,17.51,69.61.16a1,1,0,1,0-.92-1.87c-34.63,16.86-67.39,0-67.71-.13A1,1,0,0,0,282.11,89.14Z" transform="translate(-15.67 -9.32)"/><path class="cls-1" d="M281.82,88.7l-.53.25-8,109.92L275,198a92.79,92.79,0,0,1,58.4-8.71,95.34,95.34,0,0,1,26,8.1l1.67.9L353.44,89.59l-.49-.27C320,70.47,282.19,88.49,281.82,88.7Zm69.6,2.18c.09,1.15,7.07,100.4,7.3,103.86a100.16,100.16,0,0,0-24.88-7.48,95.28,95.28,0,0,0-58.14,8.12c.24-3.44,7.5-103.85,7.6-105C287.76,88.31,321.62,74.17,351.42,90.88Z" transform="translate(-15.67 -9.32)"/><path class="cls-1" d="M317.63,54.64c-13.48-.18-14.35,23-14.38,24,0,4-2.22,10-2.23,10.05a1,1,0,0,0,2,.73c.1-.26,2.35-6.4,2.35-10.74,0-.19.84-22.14,12.34-21.92l.1,0,.12,0a6.59,6.59,0,0,1,4.87,1.59c2.65,2.12,5.95,7.28,6.57,19.91,0,.86.2,8.77,2.82,11.51a1,1,0,0,0,1.48,0,1,1,0,0,0,0-1.45c-1.75-1.84-2.23-8-2.25-10.18-.53-10.85-3-18.09-7.46-21.54A8.55,8.55,0,0,0,317.63,54.64Z" transform="translate(-15.67 -9.32)"/><path class="cls-1" d="M314.7,62.21C310,67,310.53,87.47,310.61,89.77a1,1,0,0,0,2.09-.07c-.21-6,0-22.48,3.49-26a1.52,1.52,0,0,1,1.12-.54A3,3,0,0,1,319,64.29c1.66,2,4.16,7.86,2.2,25a1.05,1.05,0,0,0,2.09.24c2-17.32-.48-24.1-2.88-26.78a4.46,4.46,0,0,0-3.12-1.67A3.55,3.55,0,0,0,314.7,62.21Z" transform="translate(-15.67 -9.32)"/><path class="cls-1" d="M252.73,120l-2.36-.52s-.46-1.75.58-2.08c0,0,5.16.46,6.83,2.6a4.5,4.5,0,0,1,.4,2l.11,17.44s0,7.93-1.55,8.1c0,0-1.44.34-1.14-4.93l.75-21s.33-1.27-1.78-1.5l-1,23s-.42,3.62-1.95,3.54c0,0-1.15,0-.75-3.72Z" transform="translate(-15.67 -9.32)"/><path class="cls-1" d="M263.12,120.34a1.71,1.71,0,0,0-1.91,1.79l.75,22.18s.07,2.94-1.31,3.12c0,0-1.44.28-1.21-3.21l-.05-22.45a2.79,2.79,0,0,1,2-2.92s5-2.65,5.9-.58c0,0,.17,1.49-2.24,1.68l1.71,24.2s.29,2.42-1.12,2.6c0,0-1.17.39-1.57-3.23Z" transform="translate(-15.67 -9.32)"/><path class="cls-1" d="M373.23,119.31s1.94-.3,2.23-1.74c0,0,1.38-2.22,2.59,0,0,0-.42,1.37,2.41,1.86,0,0,5.54,1,5.49,2.29,0,0,.24,1.58-3.32.78,0,0-4.58-1.09-5.91-2.16l-.47.06a19.13,19.13,0,0,1-5.62,2s-2.88.77-3.42-.6c0,0-.19-1.08,2.15-1.64l2.85-.6Z" transform="translate(-15.67 -9.32)"/><path class="cls-1" d="M380.21,124.19h-7.38a3.41,3.41,0,0,0-3.4,3.42v.17a3.4,3.4,0,0,0,3.4,3.4h7.38a3.4,3.4,0,0,0,3.39-3.4v-.17A3.4,3.4,0,0,0,380.21,124.19Zm-.73,5.26h-6a1.53,1.53,0,0,1-1.55-1.53,1.55,1.55,0,0,1,1.55-1.56h6a1.56,1.56,0,0,1,1.55,1.56A1.54,1.54,0,0,1,379.48,129.45Z" transform="translate(-15.67 -9.32)"/><path class="cls-1" d="M375.17,130.64l.11,15.5s-.11,1.73,1.2,1.73c0,0,.84.42,1-2l.3-15.37Z" transform="translate(-15.67 -9.32)"/><path class="cls-1" d="M371.36,146.66s-.06,1.82-1.08,1.59c0,0-1.08.17-.85-2.59,0,0,.78-14.48,7.35-13.58,0,0,6-1,7,14.06,0,0,.18,1.37-.84,1.54,0,0-1.26.25-1.52-1.92,0,0-.9-12.15-4.88-12.28,0,0-3.3-1.57-5.06,12.47Z" transform="translate(-15.67 -9.32)"/><path class="cls-2" d="M47.17,393.67a25.47,25.47,0,0,1-3.28,2.46c-1.2.61-2.82.57-3.55,1.91.38,5.1-1,8.51-4.92,9.29-1,3.66-5.62,9.29-10.39,8.76-2.11-.23-3.92-2.39-5.47-4.09s-3.53-3.7-3.84-5.75c-.47-3.34,2.36-6.5,4.11-9.3,4.78-7.68,10.77-18.33,10.66-29a15.56,15.56,0,0,0-1.37-5.75c-1.76-3.82-5.37-3.44-6-9.31,2.82-.64,6.43.42,9.84,1.37,4.31,1.22,8.5,2.69,11.21,5.2,2.51,2.34,6,8.92.54,10.94-1.35.51-2.94.11-4.64.81C37,372.51,36.29,379,34.87,383c-.54,1.52-1.85,3.31-1.91,5.48,3.41-.86,5.79-3.41,8.46-5.2s5.73-3,8.49-4.92c-.26-9.68-1-17.19-.27-28.44.78-12.88,1.45-25.12,2.46-38.28.24-3.18.27-6.49.53-9.58C53.3,294.94,54,288.7,51,283.19c-.08-.44.26-.47.27-.82,4.14,1.06,15.09,7.78,15.85,12.57.34,2.18-.42,4.67-.83,7.38-1,6.81-2,15-2.44,21.89-.34,5.5,0,11.33-.28,17-.66,14.37-.59,28.16,0,43.19.13,3.23.58,6.53,0,8.74-.85,3.27-5.18,6.36-7.92,6.3C51.3,399.31,49.9,394.82,47.17,393.67ZM51,386.55a14.9,14.9,0,0,0,.54-4.64c-.35,0-.38-.35-.83-.27C50.11,382.71,48.42,386.33,51,386.55Z" transform="translate(-15.67 -9.32)"/><path class="cls-2" d="M94.47,379.45c4.26,1,7.4-2.84,11.22-4.65,4-1.92,14.65-4.44,15.85,1.9a12,12,0,0,1-1.08,6.57c-1.33,2-6.58,2.73-9.57,3.55-6.29,1.78-12.21,3.6-20.51,2.75-4.22-.47-8.23-2-9.84-4.94-4.1-7.54,2.83-18.32-.28-26.8-5.2-1.6-9.3,3.47-14.21,1.92-.08-1.29,1-2.13,1.63-2.72,1.94-1.91,4.73-3.29,7.93-4.93,1.94-1,4.78-1.82,5.47-3.28.56-1.2.31-4.37.27-6.56-.12-7.07-.93-13.62,0-21.62a83,83,0,0,1,6-21.59c.88-2,1.63-5.05,3-6,3.26-2.31,4.77,1.72,6.28,4.91,2.29,4.79,4.44,9.17,7.39,12.87,1.48,1.82,3.3,3,4.92,4.9,3.38,3.91,10.81,15.26,7.66,23.25-.68,1.75-3.11,4.74-4.64,6.57-.84,1-1.8,1.88-2.74,3-1.11,1.31-1.7,2.56-2.74,2.74-1.91.32-2.64-1.19-4.65-1.1-6.43.31-6.23,10.21-6.83,17.23C94.67,371.6,94.88,375.75,94.47,379.45Zm5.75-48.95a44.17,44.17,0,0,0,4.38-3.29c3.59-3.56,2.32-6.9-.28-10.94a171,171,0,0,1-10.12-18c-.55-.14-.53-.81-1.08-.27.07,3,.86,5.87,1.35,9,1.29,8,1.08,17.46,1.38,26C97.26,333,98.75,331.58,100.22,330.5Z" transform="translate(-15.67 -9.32)"/><path class="cls-2" d="M372.42,311.3c-.27-1.68,1.6-2.17,2.43-3a82.4,82.4,0,0,0,7.39-8.49c-4.94-.9-8,1-12.3,3.56-1.87,1.14-4.95,3-5.21,4.11-.4,1.89,1.84,3.53,1.65,5.74-.21,2.72-3.58,5.5-5.72,5.45-3,0-4.91-4.55-5.77-7.37-1-.47-1.3-1.57-2.45-2.17-1.87-1-4.69-.2-6-1.92a4,4,0,0,1,1.63-2.47,13.24,13.24,0,0,1,2.46-1.37c3.58-1.09,8.31.73,11.76.55,2-.11,4.55-1.76,7.38-3.29,4.35-2.35,10-4.11,14.5-6.28,2.84-1.36,5.95-3.86,9-3,1.57.43,5.62,3.53,5.21,6-.51,3.18-6.37,3.71-9.29,4.93-3.73,1.53-7.26,4.58-10.67,6.85C376.71,310.24,374.65,311.68,372.42,311.3Z" transform="translate(-15.67 -9.32)"/><path class="cls-2" d="M338.77,319.5c.2,3.14,0,5.8-1.64,7.11-4.47,1-8.64-3-9.3-7.11-1.29-8.13,6.31-15.78,9-19.69.43-.06.47.26.81.28,1.43,3.74-.42,9.09.55,13.13.37,1.45,2.17,2.41,2.18,3.56C340.42,318.4,338.78,318.37,338.77,319.5Z" transform="translate(-15.67 -9.32)"/><path class="cls-2" d="M351.9,325.51c-1.21,3.93,2.13,5.65,2.18,7.93.06,2.59-2.83,2.84-2.46,6.31,3.11-.46,7.89-2.64,10.93,0-.29,5.65-2.72,8.94-5.75,12-.9.93-2.52,1.63-2.44,3.29,1.21.39,1.78-2.23,3.82-1.91.41,1.91-1.71,3.29-2.46,4.91.61,1.89.27,3.67,1.08,6,.62,1.71,2.38,2.73,2.46,4.07.15,2.12-3.22,5.37-4.09,6-2.14,1.61-5.94,2.56-7.11,4.65-.79,1.42-1.09,5.09-1.63,7.64-1.16,5.37-1.79,9.26-3.29,14.77-.65,2.41-1.41,6.64-4.37,6.57-1.52,0-3-2.09-3.83-3.28s-2.3-3.37-2.46-4.65c-.33-2.52,1-5.55,1.63-7.93.71-2.56,1.67-4.93,1.92-7.65-4.91.86-7.26,2.71-11.5,4.92-1.22.65-2.63,1.6-3.8,1.64-4.45.14-5.49-5.21-3-8.21.58-.69,1.66-1.46,2.74-2.46,2.44-2.29,4.76-4.76,7.65-7.38,3.14-2.87,10-7.81,10.12-10.12.09-1.79-2.23-2.82-2.19-4.09.1-2.55,4.49-2.8,4.37-5.21-1.1-.71-2.78.2-3.83.83-2.9,1.72-5.95,6.5-10.39,5.19-1.83-4.69,1.29-8.61,4.1-10.39,1.16,1.06-.45,2,.27,3.27,5.13-1.61,7.95-5.54,12.05-8.19a16.85,16.85,0,0,0,.26-4.37c-.46-1.18-2.64-.64-3-1.93.89-4.48,4.81-5.92,7.1-9,.15-1.74-1.09-2-.81-3.29C346.76,322.63,350,324.25,351.9,325.51Zm1.62,21.34c2.37-.56,3.31-2.54,4.12-4.65C355,341.33,351.28,344.49,353.52,346.85Zm-3,20.79c3-.73,1.8-5.44,1.92-7.65-.35,0-.38-.35-.82-.29C350.51,361.83,350.89,365.43,350.52,367.64Zm-21.86,8.48c-1.49,1.33-3.94,2.4-3.56,4.64,4.81-1.65,8.66-4.28,12.84-6.56a13.93,13.93,0,0,0,.56-3.28C333.82,369.65,331.28,373.72,328.66,376.12Z" transform="translate(-15.67 -9.32)"/><path class="cls-2" d="M388.81,331.81c-2.5-.88-7.41,1.77-8.76-1.08.81-1.88,2.71-1.53,4.39-2.19,2.8-1.15,5.38-3.44,7.65-4.11,3-.91,7.87.76,7.12,5.19-.36,2-2.37,3.32-3.83,4.92-2.93,3.2-5,5.52-8.22,9-1.44,1.59-3.34,3.9-3.27,5.19.15,3.1,5.8,3.67,6.29,6.57.6,3.59-3.34,5.62-6.57,4.1-.34-.15-.34-.75-.82-1.1s-1.11-.33-1.37-.54c-1.65-1.44-4-4.1-4.1-6-.18-4.73,2.58-7.83,4.92-10.94,1.17-1.53,2.1-3.32,3.28-4.64S388.81,333.85,388.81,331.81Z" transform="translate(-15.67 -9.32)"/><path class="cls-2" d="M375.41,341.93c1.43.82.8,2.88.83,4.1.06,4.57-.22,8.73,0,12.86.12,2.24.86,4.63.81,6.82-.12,4.65-3.13,8.92-1.92,13.66,1.65,2.31,4.75,1.6,7.66,1.39,6-.45,11.1-.84,16.95-1.65,2.16-.29,6.26-.33,7.66-1.63,1.8-1.65,1.4-11.18.82-14.77-.77-4.88-3.1-8-3.27-12.85,1.11-.5,2,1.05,2.72,1.91a35.32,35.32,0,0,1,5.47,11.75c.72,2.87.68,5.86,1.65,8.5,1.27,3.43,4.81,9.07,1.65,13.11-1.45,1.83-5.57,2.64-8.77,3-4,.49-6.87.3-10.66.55a113.16,113.16,0,0,1-13.4.55c-6.08-.29-13.4-.74-15.86-3.83-3.08-3.87-2.8-11.51-1.92-18.05a79.55,79.55,0,0,1,1.37-9.3c1.63-5.82,5.05-10.08,7.39-15.31C374.87,342.48,374.68,341.73,375.41,341.93Z" transform="translate(-15.67 -9.32)"/><path class="cls-2" d="M224.53,348.44c-2.69-1.56-.14-4.11.83-5.47,5.75-8,12.13-16.08,17-25.42,2-3.84,4.31-7.72,5.74-11.2.63-1.58,2.07-5.25,1.64-7.39s-2.82-2.21-3.82-4.1c0-.7.42-.87.81-1.1,2.29.18,10.24,2.66,12,4.37a5.42,5.42,0,0,1,1.65,4.93c-.37,2.94-6.34,7.6-8.2,9.85-8,9.71-15.69,21.79-22.42,31.16C228.13,345.48,227.43,349.24,224.53,348.44Z" transform="translate(-15.67 -9.32)"/><path class="cls-2" d="M302.47,341.35c.53,5.54-3.91,8.32-6.83,11.75-2.15,2.51-3.94,4.94-6.3,7.65-1.15,1.35-3.64,4.41-4.64,4.64-1.88.48-3.21-.86-4.66-1.08-1,1.69-.34,3.82-.27,5.47.4,8.5-.17,15.8-.54,24.06-.08,1.81.21,3.78,0,5.75s-1.39,7.84-4.1,8.2c-2.37.31-4.85-2.71-5.2-4.92-.5-3.21.59-7.3.82-10.94.69-11.57,2.06-25.54,2.19-35.84-1.68.8-3.39,3.17-5.19,5.21-1.59,1.8-3.58,4.58-6.29,2.72,1.69-3.4,6.4-6.31,9.56-9.28,2.23-2.08,3.06-3,3.84-6.57a14.62,14.62,0,0,0,.54-3.27c-.13-1.78-1.59-2.58-1.64-4.39a5.3,5.3,0,0,1,1.91-3.82c1-1,2.8-1.86,2.74-3-.18-3.29-6.86-1.67-8.48-3.27.84-3.51,5.26-5.09,8.76-7.11,1.58-.92,3.48-1.78,5.2-2.73s3.37-2.29,4.91-2.73c2.18-.63,4.62-.56,6.55-1.36s6.52-.85,7.12,1.36c.73,2.68-2.39,4.82-4.37,6.29-4.72,3.47-7.65,5.75-12.32,9-1.47,1-6.1,3.06-6.29,4.37s3.39,4.21,4.94,4.37c2.08.22,3.67-1.55,5.47-2.18C294.33,338.11,300.32,337.82,302.47,341.35ZM280.6,358.3c.81.55,2.59.15,3.83.27,3.37-2.65,5.71-6.76,8.2-9.85a21.53,21.53,0,0,0,3.28-5.19C285.73,339.45,280,350.56,280.6,358.3Z" transform="translate(-15.67 -9.32)"/><path class="cls-2" d="M258.44,329.86c4.5,5-3.85,11.84-6.28,15.57,2.45.95,5.22,2.67,4.09,6.29a11.9,11.9,0,0,1-8.74,1.66,7.09,7.09,0,0,1-1.37-2.76c-2.34-.5-2.79-4.09-1.1-5.72-3.64-.85-7.62,4.7-11.22,1.36.8-3.6,5-5.39,8.22-7.93.71-.56,1.37-1.28,2.2-1.92s1.7-1.05,2.45-1.63C249.54,332.49,252.63,328.17,258.44,329.86Z" transform="translate(-15.67 -9.32)"/><path class="cls-2" d="M231.65,355c2.51.33,1.78,3.16,2.47,5.48.77,2.64,3.65,6.31,4.09,10.92.43,4.42-1.22,11.43-4.65,11.77-4,.37-6.72-5.84-6.55-10.12.14-4.45,3.18-6.46,4.37-9.31a50.78,50.78,0,0,1-.28-8.74Z" transform="translate(-15.67 -9.32)"/><path class="cls-2" d="M258.71,356.37c.89,2.64-.48,5.45-1.36,7.94a63.47,63.47,0,0,1-3,7.1,4.81,4.81,0,0,1-.27,3.56,6.4,6.4,0,0,1-4.38,3c-4.18.42-6.44-3.93-4.93-8.2.62-1.73,3.58-3.33,3-5.19-.69-2.22-5.26-.53-5.75-2.46.2-1.33,2-2,3.28-2.74C248.61,357.53,253.18,354.66,258.71,356.37Z" transform="translate(-15.67 -9.32)"/><path class="cls-2" d="M475.24,291.57a24.08,24.08,0,0,1,6.83,3.54c3.72,2.65,6.55,5.34,6,12a72,72,0,0,1-1.64,9.83c-2,9.36-5,24.21-6.82,32.82,1.8.07,4.4-1.54,7.11-2.72a60,60,0,0,0,7.1-3.29c1.52-1,3.35-2.6,3.55-4.1.41-3-2-4.13-2.18-7.38,1.27-.22,2.49.79,3.83,1.64,1.06.69,2.14,1.82,3.29,2.46,2,1.12,6.1,1.6,6.55,3.84.52,2.54-4.06,6.85-6.29,8.18-9.36,1-16.73,4.07-23.79,7.39-5.12,11.36-6.81,25.67-15,33.92-1.81,1.76-3.93,2.75-5.77,4.63-4.25,1.46-11.88,3.81-17.5,2.75-2.37-.47-5.41-2-5.45-4.93,2.17,0,4.16,1.18,7.65.84,6.72-.73,11.44-5.94,15.3-10.13,5-5.44,9.61-14.87,12-23a197.16,197.16,0,0,0-20,7.94c-3.1,1.5-5.35,4.27-9.58,3.56a6,6,0,0,1-4.37-7.93c1.75-.83,2.5.63,4.1.82,3,.35,5.73-1.13,8.75-2.18,7.57-2.65,16.19-6.35,23-9.31C475.9,334.93,477.24,310.62,475.24,291.57Z" transform="translate(-15.67 -9.32)"/><path class="cls-2" d="M480.42,364.85c.24-.06.26.1.27.27h.56c3.59,3.31,6.7,7.43,10.66,10.38.35.29,1.14.34,1.36.56,1.38,1.21,2.3,2.87,3.57,4.09,5.21,5.12,12.2,8.19,21.32,9.32,1.1.43-.33,1.38-.54,1.63-1.37,1.56-3.2,3-4.94,4.65-3.31,3.22-6.72,7.18-13.12,5.74-5.55-1.27-7.4-6.71-9.55-12.3-2.86-7.4-6.58-17.07-9.59-23.53Z" transform="translate(-15.67 -9.32)"/><path class="cls-2" d="M176,310.21c-.88-2.39,1.28-3,1.63-4.64,1.38-6.37-5.52-8-7.38-12,1.38-2.09,7.18-1.16,10.38-.27a24.14,24.14,0,0,1,7.39,3.81c1.95,1.6,4.29,5.24,2.2,7.94-1.91,2.45-6.73,2.45-10.4,3.83C178.25,309.44,177.39,310.83,176,310.21Z" transform="translate(-15.67 -9.32)"/><path class="cls-2" d="M181.17,326.62c-4.32,2-8.35,5.51-12.86,8.74C162,340,153.76,343.84,150,351.24a15.7,15.7,0,0,1-1.36,2.72c-1.84,2.21-6.88,3.29-8.49,1.11-.53-.75-.6-3.09-1.08-4.94-.88-3.35-3.05-5-1.65-9,.69-1.95,2.3-2.8,4.93-3.29,1.21,1.18.65,4.1,1.64,5.47,5.14-.55,9.24-3.55,13.39-6.29,9.62-6.34,20.78-12,31.18-18a29.12,29.12,0,0,0,5.75-4.09c1.68-1.87,2-5.53,4.91-5.75,1.92-.15,3.61,1.44,5.47,2.45s4,2.15,3.84,4.11c-.21,2.16-2.9,2.31-4.92,3-5.2,1.8-10.21,5.38-15.33,8.21-2.53,1.41-5.22,2.7-7.66,4.09s-4.75,3.63-7.66,3.56c-.44-1.82,1.94-2.82,3.29-3.82a45.73,45.73,0,0,0,4.66-3.56c-.05-.23.11-.25.27-.27Z" transform="translate(-15.67 -9.32)"/><path class="cls-2" d="M192.92,336.74c-3,6.1-9.12,9.11-11.75,15.59,1.22,1.17,4.57-1,5.75.83-.43,5-5.84,5.1-8.76,7.65-2.2-.07-4,1.56-6.29.54-1.46-4.54,2.46-7.25,4.65-9.84,2.38-2.83,5.27-5.33,6.29-9-3.3.93-5.58,3.18-8.48,5.75-2.47,2.21-6.16,4.83-7.12,7.11-1.19,2.94.35,8.6-1.35,10.11-4.9,4.36-10.48-11.73-5.74-15.85,1.7.09,2.19,2.7,4.1,2.73s3.76-3.11,5.47-4.93c2.77-2.93,5.58-4.72,8.47-7.1C181.45,337.59,188.2,332.57,192.92,336.74Z" transform="translate(-15.67 -9.32)"/><path class="cls-2" d="M170.23,362.43c2.89.5,1.88,4.86,3.29,6.84,1.87.64,3.72-.26,6.55.55,2.16.62,5.65,4.24,7.65,6.3,1.11,1.11,2.4,2.32,3.56,3.56s2.6,3.07,2.73,4.09c1,6.91-8.41,8.29-12.84,4.11-.59-5.13,1.47-13.63-2.75-15.86-1.32,0-2.86-.15-3.82.27-.72,6.48-.06,14.35,0,19.95.05,4.83,1.22,10.06-.82,13.42a9.92,9.92,0,0,1-5.73-1.1c-1.3-.83-2.25-2.88-3.83-4.36-1.9-1.83-4.74-3.23-7.66-4.67-1.91-.93-3.55-2-4.66-1.64-2.13.68-1.65,3.06-2.45,5.46-6.44,4.72-13.94-7.15-7.11-10.1,1,.27,1.58,2.23,3,2.45,2,.32,4.66-2.2,6.55-4.09A118.9,118.9,0,0,1,166.13,375c1.22-.92,2.46-1.82,2.73-2.47C170.17,369.38,167.62,363.88,170.23,362.43Zm-2.45,14.23c-2.65,1.79-5,4.41-7.39,6.85-2.16,2.17-4.83,4.35-6,7.1,3,1.69,7.69,1.77,12.57,1.63,1.42-4.22.88-10.42,1.36-15.58Z" transform="translate(-15.67 -9.32)"/><path class="cls-2" d="M592.34,313.93c.89.09.67,2.23.32,2.73C592,315.74,592.75,315.1,592.34,313.93Z" transform="translate(-15.67 -9.32)"/><path class="cls-2" d="M588.83,301.15c6.91-2.54,13.12-6.93,20.07-10.47,1-.5,2.34-1.06,3.52-1.7,2-1.16,2.82-2.08,5.73-1.49,2.48,6.1-1.36,12.63-3,17.85-2.34,7.51-5.66,15.16-8.38,22.56,5.42-.11,13-.71,13.48,4.15.32,2.75-2.8,4.91-5.35,6.65-6.24,4.25-11.66,8.07-18.4,11.81a23,23,0,0,1-3.78,2c-2.07.59-4.83.19-5.46,1.21,1.49,1.46,4.35,1.53,4.72,3.46.52,2.83-4.5,5.49-3.39,9.66a7.51,7.51,0,0,0,6.58.68c1.29-.35,2.32-1.55,3.52-1.69,6.19-.75,12.1,7.39,7.06,12.73-5.85.59-12.67,0-18.33-.5-1.06,5-.66,11.12-.81,17s.3,11.5-.53,16.15c-6.87,3.45-12.7-1.75-18.68-4.87-1.83-1-3.91-1.93-5.81-2.92-3.63-1.9-6.28-3.13-9.64-5.29-1.35-.88-2.65-1.88-3.89-2.68-2.53-1.62-6.25-3.36-7.75-5.06a8.45,8.45,0,0,1-1.7-4.06c.13-2.85,6.19-5.82,8.62-7a141.58,141.58,0,0,1,35.35-11.56c.3-2.49.9-4.71.69-7.66-2.65-1-7.81-.31-7.46-4.53.28-3.41,4.79-3.29,8.13-4.25,6.37-1.8,11.1-6,17.08-8.49,6.32-2.7,12.38-4.34,15.15-9.87-2.78-1.77-7.75-1-10.4-.07-2.94,1.06-4.77,3.89-7.58,4.52-2.1.46-4.18.11-6,.65-5,1.44-9.34,4.72-13.82,6.79-1.25.6-2.64.91-3.81,1.44a72.39,72.39,0,0,0-21.07,14.85c-1.48,1.49-3.44,3-5.4,4.76-3.11,2.87-4.87,6-10.56,5.1-1.59-2-4.19-2.23-3.66-6.22.33-2.6,4.58-6.54,6.4-8.32,2.72-2.61,4.71-5.45,7-7.5,3.77-3.37,9-6.62,13.22-10.08.47-.39.93-.8,1.35-1.11,1.24-.93,2.26-2.26,3.5-3.35.83-.73,1.92-1,2.71-1.69,3.05-2.5,5.33-6.36,7-9.15-.29-1.66-1.23-4.26-.11-5.74-2.37.71-3.63,3.09-5.38,4.75-3.63,3.42-5.73,6.62-9.11,11.1-2,2.66-5.73,6.83-9,3.15-2.58-2.94-.79-10-1.37-15.28-.18-1.9-1.48-3.27-.35-4.64a4.77,4.77,0,0,1,5,1.28c2.15,2.26,1.39,7.58,4,9.23a7.44,7.44,0,0,0,4.85-4.47c.41-1.37,0-3.35.18-5.19.75-8.16-1.37-16.57-4-23.73-.72-2-2-3.47-2-5.17,3.08-.22,6.22,2.37,9.38,4.22,1.33.79,2.94,1.7,4.43,2.66,2.63,1.68,4.86,2.74,5.3,6.47,2.86-1.55,4-4.79,5.62-7.49s3.37-5.36,4.22-8.56c.36-.85-.83-1.49,0-1.89-.09-.46.24-.48.26-.83,4.39.79,12.58,4.28,9.74,9.66-.7,1.35-2.34,1.41-3.78,2.55-.4.29-.64.92-1.07,1.39A11.47,11.47,0,0,0,588.83,301.15Zm24.75-9.2c-3.93,1.88-7.44,4.69-11.11,7-1.84,1.19-3.81,2.28-5.68,3.4s-4.32,2-5.12,3.91c2.15,1.52,4.82,1.12,6.34,2.9,4,4.67-.51,14.61-1.31,19.71,2.68-2,3.82-5.36,5.34-8.28,4.64-9,9.41-18.08,12.07-28.66ZM568.87,316.8c1.78-.42,2-2.34,3-3.61a14.46,14.46,0,0,0,3.5-3.06c-2-.22-4.37.37-5.22-1.56C567.82,309.91,568.2,313.82,568.87,316.8Zm6.86.7c.42-.68,1.91-.14,2.45,0a4,4,0,0,0,1.06-2.22c-.13-.67,1.54-1.82.23-1.92C578.18,314.51,575.7,316,575.73,317.5Zm16.93-.84c.35-.5.57-2.64-.32-2.73C592.75,315.1,592,315.74,592.66,316.66Zm-8.4,4c.34,2.17,3.19,2.54,3.08,4.61-.17,3.61-5.53,2.92-8.72,1.52-2.08,2-5.17,3.06-6.18,6.13,6.56-.82,10.94-3.77,15.75-6.3-.31-2.77.21-5.77-.15-7.93-.13-.82-.37-2-1.13-2.45C585.63,317.33,583.93,318.45,584.26,320.63ZM548.8,358.19c2.87-2.08,5.82-4,8.93-5.92,6.32-3.9,12.28-8.32,18.4-11.52,2.6-1.36,13.41-4.35,10.24-7.84h-.52a55.9,55.9,0,0,1-15,4.92c-2,.37-4.41.2-6.29.93-1.24.47-2.61,2-4,3.08-5,3.76-8.32,8-12.63,12.24-3.1,3.08-6.91,5.71-8.6,9.46C542.66,362.53,545.76,360.37,548.8,358.19Zm28.26,20.56c-7,.79-14,3.81-20.12,6.36-1.08,2.36-8,3.34-8.09,6.16-.06,1.76,3.53,3.77,5.55,4.83,5.05,2.67,10.23,3.92,15.66,5.19,3,.71,6.1,1.87,8.78,1.21a44,44,0,0,0,1.7-12.33c0-.73-.55-1.45-.58-2.18,0-.45.44-1.24.52-1.92a54,54,0,0,0,.14-7.12C579.92,378.29,578.07,378.29,577.06,378.75Z" transform="translate(-15.67 -9.32)"/><path class="cls-1" d="M27.77,434.83h13.4a7.3,7.3,0,0,1,5.14,1.68,5.46,5.46,0,0,1,1.79,4.16,5.25,5.25,0,0,1-1.28,3.55,5.84,5.84,0,0,1-2.5,1.57A6.62,6.62,0,0,1,48,447.88a5.77,5.77,0,0,1,1.18,3.7,6.35,6.35,0,0,1-.85,3.29A6.12,6.12,0,0,1,46,457.18a7.68,7.68,0,0,1-2.71.75,27.44,27.44,0,0,1-3.21.33H27.77ZM35,444H38.1a3.46,3.46,0,0,0,2.31-.6,2.15,2.15,0,0,0,.67-1.68,2,2,0,0,0-.67-1.59,3.37,3.37,0,0,0-2.26-.59H35Zm0,9.18h3.65a4,4,0,0,0,2.6-.64,2.27,2.27,0,0,0,.76-1.79,2,2,0,0,0-.75-1.66,4.1,4.1,0,0,0-2.63-.64H35Z" transform="translate(-15.67 -9.32)"/><path class="cls-1" d="M54.22,434.83H73.41v5h-12v3.72H72.56v4.78H61.4V453H73.78v5.31H54.22Z" transform="translate(-15.67 -9.32)"/><path class="cls-1" d="M79.22,434.83h7.2v23.43h-7.2Z" transform="translate(-15.67 -9.32)"/><path class="cls-1" d="M102.48,434.83h7.17v12.75a20.57,20.57,0,0,1-.69,6.09,7,7,0,0,1-2.83,3.53,9.37,9.37,0,0,1-5.45,1.45,12.3,12.3,0,0,1-5.43-.95,6.87,6.87,0,0,1-3-2.79A11.18,11.18,0,0,1,91,450.35l6.87-.93a8.39,8.39,0,0,0,.26,2.29,2.53,2.53,0,0,0,.85,1.22,2,2,0,0,0,1.17.28,1.87,1.87,0,0,0,1.74-.89,6,6,0,0,0,.57-3Z" transform="translate(-15.67 -9.32)"/><path class="cls-1" d="M116,434.83h7.18v23.43H116Z" transform="translate(-15.67 -9.32)"/><path class="cls-1" d="M129.7,434.83h6.7l8.73,13v-13h6.74v23.43h-6.74l-8.7-12.89v12.89H129.7Z" transform="translate(-15.67 -9.32)"/><path class="cls-1" d="M169.59,449.77v-4.88h11.1v10a23.44,23.44,0,0,1-5.64,3,19.47,19.47,0,0,1-5.79.77,13.94,13.94,0,0,1-6.75-1.41,9.82,9.82,0,0,1-4-4.23,14.15,14.15,0,0,1-1.43-6.46,13.66,13.66,0,0,1,1.57-6.68,10,10,0,0,1,4.59-4.3,14.86,14.86,0,0,1,6.36-1.14,17.89,17.89,0,0,1,5.74.7,7.59,7.59,0,0,1,3.16,2.18,9.58,9.58,0,0,1,1.89,3.76l-6.92,1.23a3.67,3.67,0,0,0-1.44-2,4.55,4.55,0,0,0-2.61-.71,4.7,4.7,0,0,0-3.77,1.67c-.92,1.11-1.38,2.84-1.38,5.24s.46,4.34,1.41,5.42a5,5,0,0,0,3.94,1.64,7.2,7.2,0,0,0,2.3-.36,12.87,12.87,0,0,0,2.5-1.2v-2.21Z" transform="translate(-15.67 -9.32)"/><path class="cls-1" d="M198.36,434.83h6.7l8.75,13v-13h6.73v23.43h-6.73l-8.7-12.89v12.89h-6.75Z" transform="translate(-15.67 -9.32)"/><path class="cls-1" d="M225.7,446.56q0-5.73,3.16-8.94c2.1-2.14,5-3.19,8.83-3.19s6.82,1,8.91,3.13,3.13,5,3.13,8.82a14.57,14.57,0,0,1-1.36,6.73,9.74,9.74,0,0,1-4,4.08,12.82,12.82,0,0,1-6.45,1.46,15.1,15.1,0,0,1-6.5-1.24,9.91,9.91,0,0,1-4.17-4A13.42,13.42,0,0,1,225.7,446.56Zm7.16,0c0,2.38.44,4.09,1.3,5.13a4.94,4.94,0,0,0,7.15,0c.84-1,1.27-2.82,1.27-5.45a7.3,7.3,0,0,0-1.33-4.83,4.85,4.85,0,0,0-7.08,0Q232.87,443,232.86,446.58Z" transform="translate(-15.67 -9.32)"/><path class="cls-1" d="M255,458.26V434.83h12a16.82,16.82,0,0,1,5.06.59,5.4,5.4,0,0,1,2.84,2.12,6.63,6.63,0,0,1-2,9.44,9,9,0,0,1-2.52.93,7.51,7.51,0,0,1,1.86.85A6.85,6.85,0,0,1,273.3,450a8.12,8.12,0,0,1,1,1.45l3.49,6.8h-8.1l-3.83-7.17a5.86,5.86,0,0,0-1.27-1.81,3.06,3.06,0,0,0-1.78-.53h-.61v9.51Zm7.22-14h3a9.17,9.17,0,0,0,1.9-.32,2,2,0,0,0,1.16-.72,2.29,2.29,0,0,0,.45-1.36,2.19,2.19,0,0,0-.71-1.74,4.28,4.28,0,0,0-2.66-.61H262.2Z" transform="translate(-15.67 -9.32)"/><path class="cls-1" d="M281.3,434.83h9.43l3.61,14.25L298,434.83h9.42v23.43h-5.88V440.39L297,458.26h-5.31l-4.5-17.87v17.87H281.3Z" transform="translate(-15.67 -9.32)"/><path class="cls-1" d="M327.53,454.39h-8.15l-1.14,3.87h-7.32l8.72-23.43h7.83l8.71,23.43h-7.5ZM326,449.3l-2.56-8.4L321,449.3Z" transform="translate(-15.67 -9.32)"/><path class="cls-1" d="M339.78,434.83h7.16v17.65h11.14v5.78h-18.3Z" transform="translate(-15.67 -9.32)"/><path class="cls-1" d="M389.85,434.83H397v14a11.87,11.87,0,0,1-.65,3.93,8,8,0,0,1-2,3.21,7.9,7.9,0,0,1-2.86,1.95,14.13,14.13,0,0,1-5,.77,30.75,30.75,0,0,1-3.68-.22,9.91,9.91,0,0,1-3.35-1,8.11,8.11,0,0,1-2.45-2,7.34,7.34,0,0,1-1.52-2.69,14.24,14.24,0,0,1-.68-4v-14h7.16v14.3a4.16,4.16,0,0,0,1.05,3,4.48,4.48,0,0,0,5.81,0,4.09,4.09,0,0,0,1.05-3Z" transform="translate(-15.67 -9.32)"/><path class="cls-1" d="M403.1,434.83h6.69l8.73,13v-13h6.76v23.43h-6.76l-8.67-12.89v12.89H403.1Z" transform="translate(-15.67 -9.32)"/><path class="cls-1" d="M431.65,434.83h7.17v23.43h-7.17Z" transform="translate(-15.67 -9.32)"/><path class="cls-1" d="M443,434.83h7.51l5.19,16.86,5.15-16.86h7.28l-8.59,23.43H451.7Z" transform="translate(-15.67 -9.32)"/><path class="cls-1" d="M471.73,434.83h19.2v5h-12v3.72h11.15v4.78H478.92V453h12.35v5.31H471.73Z" transform="translate(-15.67 -9.32)"/><path class="cls-1" d="M496.53,458.26V434.83h12a16.89,16.89,0,0,1,5.07.59,5.4,5.4,0,0,1,2.84,2.12,6.63,6.63,0,0,1,1.07,3.79,6.42,6.42,0,0,1-.83,3.36,6.58,6.58,0,0,1-2.25,2.29,9.07,9.07,0,0,1-2.54.93,7.33,7.33,0,0,1,1.86.85,7.12,7.12,0,0,1,1.16,1.25,8.32,8.32,0,0,1,1,1.45l3.49,6.8h-8.09l-3.83-7.17a5.37,5.37,0,0,0-1.3-1.81,2.9,2.9,0,0,0-1.73-.53h-.64v9.51Zm7.21-14h3a9.4,9.4,0,0,0,1.92-.32,2,2,0,0,0,1.16-.72,2.27,2.27,0,0,0,.43-1.36,2.18,2.18,0,0,0-.7-1.74,4.28,4.28,0,0,0-2.66-.61h-3.14Z" transform="translate(-15.67 -9.32)"/><path class="cls-1" d="M521.7,450.5l6.82-.43a5,5,0,0,0,.9,2.57,3.78,3.78,0,0,0,3.15,1.43,3.5,3.5,0,0,0,2.37-.73,2.1,2.1,0,0,0,0-3.32,9,9,0,0,0-3.66-1.36q-4.72-1.07-6.72-2.85a5.75,5.75,0,0,1-2-4.51,6.23,6.23,0,0,1,1-3.43,6.9,6.9,0,0,1,3.12-2.52,14.3,14.3,0,0,1,5.7-.92c3,0,5.22.55,6.76,1.66a7.25,7.25,0,0,1,2.79,5.32l-6.75.42a3.71,3.71,0,0,0-1.14-2.34,3.6,3.6,0,0,0-2.37-.7,2.89,2.89,0,0,0-1.9.54,1.64,1.64,0,0,0-.62,1.3,1.28,1.28,0,0,0,.53,1,5.85,5.85,0,0,0,2.39.87,29.2,29.2,0,0,1,6.74,2.07,7,7,0,0,1,2.95,2.6,6.57,6.57,0,0,1,.93,3.48,7.44,7.44,0,0,1-1.23,4.14,7.67,7.67,0,0,1-3.45,2.89,13.59,13.59,0,0,1-5.58,1c-3.93,0-6.68-.76-8.19-2.3A9,9,0,0,1,521.7,450.5Z" transform="translate(-15.67 -9.32)"/><path class="cls-1" d="M547.93,434.83h7.18v23.43h-7.18Z" transform="translate(-15.67 -9.32)"/><path class="cls-1" d="M559.9,434.83h21.79v5.82h-7.33v17.61h-7.15V440.65H559.9Z" transform="translate(-15.67 -9.32)"/><path class="cls-1" d="M583.88,434.83h8l4.67,7.91,4.68-7.91h7.92l-9,13.61v9.82h-7.18v-9.82Z" transform="translate(-15.67 -9.32)"/></svg>