<?xml version="1.0" encoding="utf-8"?>
<!-- Generator: Adobe Illustrator 24.2.1, SVG Export Plug-In . SVG Version: 6.00 Build 0)  -->
<svg version="1.1" id="Õ_1" xmlns="http://www.w3.org/2000/svg" xmlns:xlink="http://www.w3.org/1999/xlink" x="0px" y="0px"
	 viewBox="0 0 604.6 176.3" style="enable-background:new 0 0 604.6 176.3;" xml:space="preserve">
<style type="text/css">
	.st0{fill-rule:evenodd;clip-rule:evenodd;fill:#005BAA;}
	.st1{fill:#005BAA;}
</style>
<path class="st0" d="M31.5,111.3c-1,0.9-2.1,1.7-3.3,2.5c-1.2,0.6-2.8,0.6-3.5,1.9c0.4,5.1-1,8.5-4.9,9.3c-1,3.7-5.6,9.3-10.4,8.8
	c-2.1-0.2-3.9-2.4-5.5-4.1s-3.5-3.7-3.8-5.8c-0.5-3.3,2.4-6.5,4.1-9.3c4.8-7.7,10.8-18.3,10.7-29c-0.1-2-0.6-3.9-1.4-5.8
	c-1.8-3.8-5.4-3.4-6-9.3c2.8-0.6,6.4,0.4,9.8,1.4c4.3,1.2,8.5,2.7,11.2,5.2C31,79.4,34.5,86,29,88c-1.3,0.5-2.9,0.1-4.6,0.8
	c-3.1,1.3-3.8,7.8-5.2,11.8c-0.5,1.5-1.8,3.3-1.9,5.5c3.4-0.9,5.8-3.4,8.5-5.2s5.7-3,8.5-4.9c-0.3-9.7-1-17.2-0.3-28.4
	c0.8-12.9,1.5-25.1,2.5-38.3c0.2-3.2,0.3-6.5,0.5-9.6c0.7-7.1,1.4-13.4-1.6-18.9c-0.1-0.4,0.3-0.5,0.3-0.8
	c4.1,1.1,15.1,7.8,15.9,12.6c0.3,2.2-0.4,4.7-0.8,7.4c-1,6.8-2,15-2.4,21.9c-0.3,5.5,0,11.3-0.3,17c-0.7,14.4-0.6,28.2,0,43.2
	c0.1,3.2,0.6,6.5,0,8.7c-0.8,3.3-5.2,6.4-7.9,6.3C35.6,116.9,34.2,112.5,31.5,111.3z M35.3,104.2c0.4-1.5,0.6-3.1,0.5-4.6
	c-0.3,0-0.4-0.4-0.8-0.3C34.4,100.3,32.8,104,35.3,104.2z"/>
<path class="st0" d="M78.8,97.1c4.3,1,7.4-2.8,11.2-4.6c4-1.9,14.7-4.4,15.8,1.9c0.3,2.2-0.1,4.5-1.1,6.6c-1.3,2-6.6,2.7-9.6,3.5
	c-6.3,1.8-12.2,3.6-20.5,2.8c-4.2-0.5-8.2-2-9.8-4.9c-4.1-7.5,2.8-18.3-0.3-26.8c-5.2-1.6-9.3,3.5-14.2,1.9c-0.1-1.3,1-2.1,1.6-2.7
	c1.9-1.9,4.7-3.3,7.9-4.9c1.9-1,4.8-1.8,5.5-3.3c0.6-1.2,0.3-4.4,0.3-6.6c-0.1-7.1-0.9-13.6,0-21.6c1-7.4,3-14.7,6-21.6
	c0.9-2,1.6-5,3-6c3.3-2.3,4.8,1.7,6.3,4.9c2.3,4.8,4.4,9.2,7.4,12.9c1.5,1.8,3.3,3,4.9,4.9c3.4,3.9,10.8,15.3,7.7,23.2
	c-0.7,1.8-3.1,4.7-4.6,6.6c-0.8,1-1.8,1.9-2.7,3c-1.1,1.3-1.7,2.6-2.7,2.7c-1.9,0.3-2.6-1.2-4.7-1.1c-6.4,0.3-6.2,10.2-6.8,17.2
	C79,89.2,79.2,93.4,78.8,97.1z M84.6,48.1c1.5-1,3-2.1,4.4-3.3c3.6-3.6,2.3-6.9-0.3-10.9c-3.7-5.8-7.1-11.8-10.1-18
	c-0.6-0.1-0.5-0.8-1.1-0.3c0.1,3,0.9,5.9,1.3,9c1.3,8,1.1,17.5,1.4,26C81.6,50.6,83.1,49.2,84.6,48.1z"/>
<path class="st0" d="M356.8,28.9c-0.3-1.7,1.6-2.2,2.4-3c2.7-2.7,5.1-5.5,7.4-8.5c-4.9-0.9-8,1-12.3,3.6c-1.9,1.1-5,3-5.2,4.1
	c-0.4,1.9,1.8,3.5,1.6,5.7c-0.2,2.7-3.6,5.5-5.7,5.5c-3,0-4.9-4.5-5.8-7.4c-1-0.5-1.3-1.6-2.5-2.2c-1.9-1-4.7-0.2-6-1.9
	c0.2-1,0.8-1.9,1.6-2.5c0.8-0.5,1.6-1,2.5-1.4c3.6-1.1,8.3,0.7,11.8,0.5c2-0.1,4.5-1.8,7.4-3.3c4.4-2.4,10-4.1,14.5-6.3
	c2.8-1.4,6-3.9,9-3c1.6,0.4,5.6,3.5,5.2,6c-0.5,3.2-6.4,3.7-9.3,4.9c-3.7,1.5-7.3,4.6-10.7,6.9C361,27.9,359,29.3,356.8,28.9z"/>
<path class="st0" d="M323.1,37.1c0.2,3.1,0,5.8-1.6,7.1c-4.5,1-8.6-3-9.3-7.1c-1.3-8.1,6.3-15.8,9-19.7c0.4-0.1,0.5,0.3,0.8,0.3
	c1.4,3.7-0.4,9.1,0.5,13.1c0.4,1.5,2.2,2.4,2.2,3.6C324.8,36,323.1,36,323.1,37.1z"/>
<path class="st0" d="M336.2,43.1c-1.2,3.9,2.1,5.6,2.2,7.9c0.1,2.6-2.8,2.8-2.5,6.3c3.1-0.5,7.9-2.6,10.9,0c-0.3,5.6-2.7,8.9-5.8,12
	c-0.9,0.9-2.5,1.6-2.4,3.3c1.2,0.4,1.8-2.2,3.8-1.9c0.4,1.9-1.7,3.3-2.5,4.9c0.6,1.9,0.3,3.7,1.1,6c0.6,1.7,2.4,2.7,2.5,4.1
	c0.1,2.1-3.2,5.4-4.1,6c-2.1,1.6-5.9,2.6-7.1,4.6c-0.8,1.4-1.1,5.1-1.6,7.6c-1.2,5.4-1.8,9.3-3.3,14.8c-0.6,2.4-1.4,6.6-4.4,6.6
	c-1.5,0-3-2.1-3.8-3.3s-2.3-3.4-2.5-4.6c-0.3-2.5,1-5.5,1.6-7.9c0.7-2.6,1.7-4.9,1.9-7.6c-4.9,0.9-7.3,2.7-11.5,4.9
	c-1.2,0.6-2.6,1.6-3.8,1.6c-4.5,0.1-5.5-5.2-3-8.2c0.6-0.7,1.7-1.5,2.7-2.5c2.4-2.3,4.8-4.8,7.6-7.4c3.1-2.9,10-7.8,10.1-10.1
	c0.1-1.8-2.2-2.8-2.2-4.1c0.1-2.5,4.5-2.8,4.4-5.2c-1.1-0.7-2.8,0.2-3.8,0.8c-2.9,1.7-6,6.5-10.4,5.2c-1.8-4.7,1.3-8.6,4.1-10.4
	c1.2,1.1-0.5,2,0.3,3.3c5.1-1.6,8-5.5,12-8.2c0.3-1.4,0.4-2.9,0.3-4.4c-0.5-1.2-2.6-0.6-3-1.9c0.9-4.5,4.8-5.9,7.1-9
	c0.1-1.7-1.1-2-0.8-3.3C331.1,40.3,334.3,41.9,336.2,43.1z M337.8,64.5c2.4-0.6,3.3-2.5,4.1-4.6C339.3,59,335.6,62.1,337.8,64.5z
	 M334.8,85.3c3-0.7,1.8-5.4,1.9-7.6c-0.4,0-0.4-0.4-0.8-0.3C334.8,79.5,335.2,83.1,334.8,85.3z M313,93.8c-1.5,1.3-3.9,2.4-3.6,4.6
	c4.8-1.6,8.7-4.3,12.8-6.6c0.3-1.1,0.5-2.2,0.6-3.3C318.1,87.3,315.6,91.4,313,93.8L313,93.8z"/>
<path class="st0" d="M373.1,49.4c-2.5-0.9-7.4,1.8-8.8-1.1c0.8-1.9,2.7-1.5,4.4-2.2c2.8-1.1,5.4-3.4,7.6-4.1c3-0.9,7.9,0.8,7.1,5.2
	c-0.4,2-2.4,3.3-3.8,4.9c-2.9,3.2-5,5.5-8.2,9c-1.4,1.6-3.3,3.9-3.3,5.2c0.1,3.1,5.8,3.7,6.3,6.6c0.6,3.6-3.3,5.6-6.6,4.1
	c-0.3-0.1-0.3-0.8-0.8-1.1s-1.1-0.3-1.4-0.5c-1.6-1.4-4-4.1-4.1-6c-0.2-4.7,2.6-7.8,4.9-10.9c1.2-1.5,2.1-3.3,3.3-4.6
	S373.1,51.5,373.1,49.4z"/>
<path class="st0" d="M359.7,59.6c1.4,0.8,0.8,2.9,0.8,4.1c0.1,4.6-0.2,8.7,0,12.9c0.1,2.2,0.9,4.6,0.8,6.8
	c-0.1,4.6-3.1,8.9-1.9,13.7c1.6,2.3,4.8,1.6,7.7,1.4c6-0.5,11.1-0.8,17-1.6c2.2-0.3,6.3-0.3,7.7-1.6c1.8-1.6,1.4-11.2,0.8-14.8
	c-0.8-4.9-3.1-8-3.3-12.9c1.1-0.5,2,1,2.7,1.9c2.5,3.5,4.4,7.5,5.5,11.8c0.7,2.9,0.7,5.9,1.6,8.5c1.3,3.4,4.8,9.1,1.6,13.1
	c-1.5,1.8-5.6,2.6-8.8,3c-4,0.5-6.9,0.3-10.7,0.5c-4.5,0.4-8.9,0.6-13.4,0.5c-6.1-0.3-13.4-0.7-15.9-3.8c-3.1-3.9-2.8-11.5-1.9-18
	c0.3-3.1,0.7-6.2,1.4-9.3c1.6-5.8,5-10.1,7.4-15.3C359.2,60.1,359,59.4,359.7,59.6z"/>
<path class="st0" d="M208.9,66.1c-2.7-1.6-0.1-4.1,0.8-5.5c5.8-8,12.1-16.1,17-25.4c2-3.8,4.3-7.7,5.7-11.2c0.6-1.6,2.1-5.2,1.6-7.4
	s-2.8-2.2-3.8-4.1c0-0.7,0.4-0.9,0.8-1.1c2.3,0.2,10.2,2.7,12,4.4c1.4,1.3,2,3.1,1.6,4.9c-0.4,2.9-6.3,7.6-8.2,9.9
	c-8,9.7-15.7,21.8-22.4,31.2C212.5,63.1,211.8,66.9,208.9,66.1z"/>
<path class="st0" d="M286.8,59c0.5,5.5-3.9,8.3-6.8,11.8c-2.1,2.5-3.9,4.9-6.3,7.6c-1.1,1.4-3.6,4.4-4.6,4.6
	c-1.9,0.5-3.2-0.9-4.7-1.1c-1,1.7-0.3,3.8-0.3,5.5c0.4,8.5-0.2,15.8-0.5,24.1c-0.1,1.8,0.2,3.8,0,5.8s-1.4,7.8-4.1,8.2
	c-2.4,0.3-4.8-2.7-5.2-4.9c-0.5-3.2,0.6-7.3,0.8-10.9c0.7-11.6,2.1-25.5,2.2-35.8c-1.7,0.8-3.4,3.2-5.2,5.2
	c-1.6,1.8-3.6,4.6-6.3,2.7c1.7-3.4,6.4-6.3,9.6-9.3c2.2-2.1,3.1-3,3.8-6.6c0.3-1.1,0.5-2.2,0.5-3.3c-0.1-1.8-1.6-2.6-1.6-4.4
	c0.1-1.5,0.8-2.9,1.9-3.8c1-1,2.8-1.9,2.7-3c-0.2-3.3-6.9-1.7-8.5-3.3c0.8-3.5,5.3-5.1,8.8-7.1c1.6-0.9,3.5-1.8,5.2-2.7
	s3.4-2.3,4.9-2.7c2.2-0.6,4.6-0.6,6.5-1.4s6.5-0.9,7.1,1.4c0.7,2.7-2.4,4.8-4.4,6.3c-4.7,3.5-7.6,5.8-12.3,9c-1.5,1-6.1,3.1-6.3,4.4
	s3.4,4.2,4.9,4.4c2.1,0.2,3.7-1.5,5.5-2.2C278.7,55.7,284.6,55.5,286.8,59z M264.9,75.9c0.8,0.5,2.6,0.1,3.8,0.3
	c3.4-2.6,5.7-6.8,8.2-9.9c1.3-1.6,2.4-3.3,3.3-5.2C270.1,57.1,264.3,68.2,264.9,75.9z"/>
<path class="st0" d="M242.8,47.5c4.5,5-3.9,11.8-6.3,15.6c2.4,1,5.2,2.7,4.1,6.3c-2.6,1.7-5.7,2.3-8.7,1.7c-0.7-0.8-1.1-1.8-1.4-2.8
	c-2.3-0.5-2.8-4.1-1.1-5.7c-3.6-0.9-7.6,4.7-11.2,1.4c0.8-3.6,5-5.4,8.2-7.9c0.7-0.6,1.4-1.3,2.2-1.9s1.7-1,2.4-1.6
	C233.9,50.1,237,45.8,242.8,47.5z"/>
<path class="st0" d="M216,72.6c2.5,0.3,1.8,3.2,2.5,5.5c0.8,2.6,3.6,6.3,4.1,10.9c0.4,4.4-1.2,11.4-4.6,11.8
	c-4,0.4-6.7-5.8-6.6-10.1c0.1-4.5,3.2-6.5,4.4-9.3c-0.3-2.9-0.4-5.8-0.3-8.7L216,72.6z"/>
<path class="st0" d="M243,74c0.9,2.6-0.5,5.5-1.4,7.9c-0.9,2.4-1.9,4.8-3,7.1c0.4,1.2,0.3,2.5-0.3,3.6c-1,1.6-2.6,2.7-4.4,3
	c-4.2,0.4-6.4-3.9-4.9-8.2c0.6-1.7,3.6-3.3,3-5.2c-0.7-2.2-5.3-0.5-5.8-2.5c0.2-1.3,2-2,3.3-2.7C232.9,75.2,237.5,72.3,243,74z"/>
<path class="st0" d="M459.6,9.2c2.5,0.8,4.8,2,6.8,3.5c3.7,2.6,6.5,5.3,6,12c-0.3,3.3-0.9,6.6-1.6,9.8c-2,9.4-5,24.2-6.8,32.8
	c1.8,0.1,4.4-1.5,7.1-2.7c2.4-0.9,4.8-2,7.1-3.3c1.5-1,3.4-2.6,3.5-4.1c0.4-3-2-4.1-2.2-7.4c1.3-0.2,2.5,0.8,3.8,1.6
	c1.1,0.7,2.1,1.8,3.3,2.5c2,1.1,6.1,1.6,6.5,3.8c0.5,2.5-4.1,6.9-6.3,8.2c-9.4,1-16.7,4.1-23.8,7.4c-5.1,11.4-6.8,25.7-15,33.9
	c-1.8,1.8-3.9,2.8-5.8,4.6c-4.2,1.5-11.9,3.8-17.5,2.8c-2.4-0.5-5.4-2-5.5-4.9c2.2,0,4.2,1.2,7.6,0.8c6.7-0.7,11.4-5.9,15.3-10.1
	c5-5.4,9.6-14.9,12-23c-6.8,2.3-13.5,4.9-20,7.9c-3.1,1.5-5.4,4.3-9.6,3.6c-3.2-0.7-5.3-3.9-4.6-7.1c0.1-0.3,0.1-0.5,0.2-0.8
	c1.8-0.8,2.5,0.6,4.1,0.8c3,0.4,5.7-1.1,8.8-2.2c7.6-2.6,16.2-6.4,23-9.3C460.2,52.6,461.6,28.2,459.6,9.2z"/>
<path class="st0" d="M464.8,82.5c0.2-0.1,0.3,0.1,0.3,0.3h0.6c3.6,3.3,6.7,7.4,10.7,10.4c0.4,0.3,1.1,0.3,1.4,0.6
	c1.4,1.2,2.3,2.9,3.6,4.1c5.2,5.1,12.2,8.2,21.3,9.3c1.1,0.4-0.3,1.4-0.5,1.6c-1.4,1.6-3.2,3-4.9,4.6c-3.3,3.2-6.7,7.2-13.1,5.7
	c-5.5-1.3-7.4-6.7-9.5-12.3c-2.9-7.4-6.6-17.1-9.6-23.5V82.5z"/>
<path class="st0" d="M160.3,27.8c-0.9-2.4,1.3-3,1.6-4.6c1.4-6.4-5.5-8-7.4-12c1.4-2.1,7.2-1.2,10.4-0.3c2.7,0.8,5.2,2.1,7.4,3.8
	c1.9,1.6,4.3,5.2,2.2,7.9c-1.9,2.5-6.7,2.5-10.4,3.8C162.6,27.1,161.7,28.5,160.3,27.8z"/>
<path class="st0" d="M165.5,44.2c-4.3,2-8.4,5.5-12.9,8.7c-6.3,4.6-14.6,8.5-18.3,15.9c-0.4,0.9-0.8,1.9-1.4,2.7
	c-1.8,2.2-6.9,3.3-8.5,1.1c-0.5-0.8-0.6-3.1-1.1-4.9c-0.9-3.4-3.1-5-1.6-9c0.7-2,2.3-2.8,4.9-3.3c1.2,1.2,0.6,4.1,1.6,5.5
	c5.1-0.5,9.2-3.5,13.4-6.3c9.6-6.3,20.8-12,31.2-18c2.1-1.1,4-2.5,5.8-4.1c1.7-1.9,2-5.5,4.9-5.8c1.9-0.1,3.6,1.4,5.5,2.5
	s4,2.1,3.8,4.1c-0.2,2.2-2.9,2.3-4.9,3c-5.2,1.8-10.2,5.4-15.3,8.2c-2.5,1.4-5.2,2.7-7.7,4.1s-4.8,3.6-7.7,3.6
	c-0.4-1.8,1.9-2.8,3.3-3.8c1.6-1.1,3.2-2.3,4.7-3.6c-0.1-0.2,0.1-0.2,0.3-0.3L165.5,44.2z"/>
<path class="st0" d="M177.2,54.4c-3,6.1-9.1,9.1-11.8,15.6c1.2,1.2,4.6-1,5.8,0.8c-0.4,5-5.8,5.1-8.8,7.6c-2.2-0.1-4,1.6-6.3,0.5
	c-1.5-4.5,2.5-7.2,4.6-9.8c2.4-2.8,5.3-5.3,6.3-9c-3.3,0.9-5.6,3.2-8.5,5.8c-2.5,2.2-6.2,4.8-7.1,7.1c-1.2,2.9,0.4,8.6-1.4,10.1
	c-4.9,4.4-10.5-11.7-5.7-15.9c1.7,0.1,2.2,2.7,4.1,2.7s3.8-3.1,5.5-4.9c2.8-2.9,5.6-4.7,8.5-7.1C165.8,55.2,172.5,50.2,177.2,54.4z"
	/>
<path class="st0" d="M154.6,80.1c2.9,0.5,1.9,4.9,3.3,6.8c1.9,0.6,3.7-0.3,6.6,0.5c2.2,0.6,5.6,4.2,7.6,6.3c1.1,1.1,2.4,2.3,3.6,3.6
	s2.6,3.1,2.7,4.1c1,6.9-8.4,8.3-12.8,4.1c-0.6-5.1,1.5-13.6-2.8-15.9c-1.3,0-2.9-0.1-3.8,0.3c-0.7,6.5-0.1,14.4,0,20
	c0.1,4.8,1.2,10.1-0.8,13.4c-2,0.2-4-0.2-5.7-1.1c-1.3-0.8-2.2-2.9-3.8-4.4c-1.9-1.8-4.7-3.2-7.7-4.7c-1.9-0.9-3.6-2-4.7-1.6
	c-2.1,0.7-1.6,3.1-2.4,5.5c-6.4,4.7-13.9-7.1-7.1-10.1c1,0.3,1.6,2.2,3,2.5c2,0.3,4.7-2.2,6.6-4.1c4.4-4.6,9.2-8.8,14.2-12.6
	c1.2-0.9,2.5-1.8,2.7-2.5C154.5,87,151.9,81.5,154.6,80.1z M152.1,94.3c-2.6,1.8-5,4.4-7.4,6.9c-2.2,2.2-4.8,4.4-6,7.1
	c3,1.7,7.7,1.8,12.6,1.6c1.4-4.2,0.9-10.4,1.4-15.6L152.1,94.3z"/>
<path class="st0" d="M576.7,31.6c0.9,0.1,0.7,2.2,0.3,2.7C576.3,33.4,577.1,32.7,576.7,31.6z"/>
<path class="st0" d="M573.2,18.8c6.9-2.5,13.1-6.9,20.1-10.5c1-0.5,2.3-1.1,3.5-1.7c2-1.2,2.8-2.1,5.7-1.5c2.5,6.1-1.4,12.6-3,17.9
	c-2.3,7.5-5.7,15.2-8.4,22.6c5.4-0.1,13-0.7,13.5,4.1c0.3,2.8-2.8,4.9-5.3,6.6c-6.2,4.2-11.7,8.1-18.4,11.8c-1.2,0.8-2.5,1.5-3.8,2
	c-2.1,0.6-4.8,0.2-5.5,1.2c1.5,1.5,4.3,1.5,4.7,3.5c0.5,2.8-4.5,5.5-3.4,9.7c2,1.2,4.4,1.5,6.6,0.7c1.3-0.4,2.3-1.5,3.5-1.7
	c6.2-0.8,12.1,7.4,7.1,12.7c-5.8,0.6-12.7,0-18.3-0.5c-1.1,5-0.7,11.1-0.8,17s0.3,11.5-0.5,16.1c-6.9,3.5-12.7-1.8-18.7-4.9
	c-1.8-1-3.9-1.9-5.8-2.9c-3.6-1.9-6.3-3.1-9.6-5.3c-1.3-0.9-2.7-1.9-3.9-2.7c-2.5-1.6-6.2-3.4-7.8-5.1c-0.9-1.2-1.5-2.6-1.7-4.1
	c0.1-2.9,6.2-5.8,8.6-7c11.2-5.4,23.1-9.3,35.3-11.6c0.3-2.5,0.9-4.7,0.7-7.7c-2.7-1-7.8-0.3-7.5-4.5c0.3-3.4,4.8-3.3,8.1-4.2
	c6.4-1.8,11.1-6,17.1-8.5c6.3-2.7,12.4-4.3,15.2-9.9c-2.8-1.8-7.8-1-10.4-0.1c-2.9,1.1-4.8,3.9-7.6,4.5c-2.1,0.5-4.2,0.1-6,0.6
	c-5,1.4-9.3,4.7-13.8,6.8c-1.2,0.6-2.6,0.9-3.8,1.4c-7.9,3.6-15,8.7-21.1,14.9c-1.5,1.5-3.4,3-5.4,4.8c-3.1,2.9-4.9,6-10.6,5.1
	c-1.6-2-4.2-2.2-3.7-6.2c0.3-2.6,4.6-6.5,6.4-8.3c2.7-2.6,4.7-5.5,7-7.5c3.8-3.4,9-6.6,13.2-10.1c0.5-0.4,0.9-0.8,1.3-1.1
	c1.2-0.9,2.3-2.3,3.5-3.4c0.8-0.7,1.9-1,2.7-1.7c3-2.5,5.3-6.4,7-9.1c-0.3-1.7-1.2-4.3-0.1-5.7c-2.4,0.7-3.6,3.1-5.4,4.8
	c-3.6,3.4-5.7,6.6-9.1,11.1c-2,2.7-5.7,6.8-9,3.1c-2.6-2.9-0.8-10-1.4-15.3c-0.2-1.9-1.5-3.3-0.3-4.6c1.8-0.6,3.7-0.1,5,1.3
	c2.2,2.3,1.4,7.6,4,9.2c2.2-0.7,4-2.3,4.8-4.5c0.4-1.4,0-3.4,0.2-5.2c0.8-8.2-1.4-16.6-4-23.7c-0.7-2-2-3.5-2-5.2
	c3.1-0.2,6.2,2.4,9.4,4.2c1.3,0.8,2.9,1.7,4.4,2.7c2.6,1.7,4.9,2.7,5.3,6.5c2.9-1.5,4-4.8,5.6-7.5s3.4-5.4,4.2-8.6
	c0.4-0.9-0.8-1.5,0-1.9c-0.1-0.5,0.2-0.5,0.3-0.8c4.4,0.8,12.6,4.3,9.7,9.7c-0.7,1.4-2.3,1.4-3.8,2.5c-0.4,0.3-0.6,0.9-1.1,1.4
	C574.9,15.8,573.9,17.2,573.2,18.8z M597.9,9.6c-3.9,1.9-7.4,4.7-11.1,7c-1.8,1.2-3.8,2.3-5.7,3.4s-4.3,2-5.1,3.9
	c2.2,1.5,4.8,1.1,6.3,2.9c4,4.7-0.5,14.6-1.3,19.7c2.7-2,3.8-5.4,5.3-8.3c4.6-9,9.4-18.1,12.1-28.7L597.9,9.6z M553.2,34.4
	c1.8-0.4,2-2.3,3-3.6c1.3-0.8,2.5-1.9,3.5-3.1c-2-0.2-4.4,0.4-5.2-1.6C552.2,27.5,552.5,31.5,553.2,34.4z M560.1,35.1
	c0.4-0.7,1.9-0.1,2.5,0c0.6-0.6,0.9-1.4,1.1-2.2c-0.1-0.7,1.5-1.8,0.2-1.9C562.5,32.1,560,33.6,560.1,35.1z M577,34.3
	c0.3-0.5,0.6-2.6-0.3-2.7C577.1,32.7,576.3,33.4,577,34.3z M568.6,38.3c0.3,2.2,3.2,2.5,3.1,4.6c-0.2,3.6-5.5,2.9-8.7,1.5
	c-2.1,2-5.2,3.1-6.2,6.1c6.6-0.8,10.9-3.8,15.8-6.3c-0.3-2.8,0.2-5.8-0.2-7.9c-0.1-0.8-0.4-2-1.1-2.5C570,35,568.3,36.1,568.6,38.3
	L568.6,38.3z M533.1,75.8c2.9-2.1,5.8-4,8.9-5.9c6.3-3.9,12.3-8.3,18.4-11.5c2.6-1.4,13.4-4.4,10.2-7.8h-0.5c-4.7,2.3-9.8,4-15,4.9
	c-2,0.4-4.4,0.2-6.3,0.9c-1.2,0.5-2.6,2-4,3.1c-5,3.8-8.3,8-12.6,12.2c-3.1,3.1-6.9,5.7-8.6,9.5C527,80.2,530.1,78,533.1,75.8z
	 M561.4,96.4c-7,0.8-14,3.8-20.1,6.4c-1.1,2.4-8,3.3-8.1,6.2c-0.1,1.8,3.5,3.8,5.5,4.8c5,2.7,10.2,3.9,15.7,5.2
	c3,0.7,6.1,1.9,8.8,1.2c1.1-4,1.7-8.2,1.7-12.3c0-0.7-0.5-1.5-0.6-2.2c0-0.5,0.4-1.2,0.5-1.9c0.2-2.4,0.3-4.7,0.1-7.1
	C564.2,95.9,562.4,95.9,561.4,96.4z"/>
<path class="st1" d="M12.1,152.5h13.4c1.9-0.1,3.7,0.5,5.1,1.7c1.2,1.1,1.8,2.6,1.8,4.2c0,1.3-0.4,2.6-1.3,3.5
	c-0.7,0.7-1.5,1.3-2.5,1.6c1.4,0.3,2.7,1,3.7,2.1c0.8,1.1,1.2,2.4,1.2,3.7c0,1.2-0.3,2.3-0.8,3.3c-0.6,1-1.4,1.8-2.3,2.3
	c-0.8,0.4-1.8,0.7-2.7,0.8c-1.1,0.2-2.1,0.3-3.2,0.3H12.1V152.5z M19.3,161.6h3.1c0.8,0.1,1.6-0.1,2.3-0.6c0.5-0.4,0.7-1,0.7-1.7
	c0-0.6-0.2-1.2-0.7-1.6c-0.7-0.5-1.5-0.7-2.3-0.6h-3.2V161.6z M19.3,170.8H23c0.9,0.1,1.8-0.1,2.6-0.6c0.5-0.5,0.8-1.1,0.8-1.8
	c0-0.6-0.2-1.3-0.8-1.7c-0.8-0.5-1.7-0.7-2.6-0.6h-3.6V170.8z"/>
<path class="st1" d="M38.6,152.5h19.2v5h-12v3.7h11.1v4.8H45.7v4.7h12.4v5.3H38.6V152.5z"/>
<path class="st1" d="M63.6,152.5h7.2v23.4h-7.2V152.5z"/>
<path class="st1" d="M86.8,152.5H94v12.8c0.1,2.1-0.2,4.1-0.7,6.1c-0.5,1.5-1.5,2.7-2.8,3.5c-1.6,1-3.5,1.5-5.4,1.5
	c-1.9,0.1-3.7-0.2-5.4-1c-1.3-0.6-2.3-1.6-3-2.8c-0.7-1.4-1.2-3-1.2-4.6l6.9-0.9c0,0.8,0.1,1.5,0.3,2.3c0.2,0.5,0.5,0.9,0.8,1.2
	c0.4,0.2,0.8,0.3,1.2,0.3c0.7,0.1,1.4-0.3,1.7-0.9c0.4-0.9,0.6-2,0.6-3L86.8,152.5z"/>
<path class="st1" d="M100.3,152.5h7.2v23.4h-7.2V152.5z"/>
<path class="st1" d="M114,152.5h6.7l8.7,13v-13h6.7v23.4h-6.7l-8.7-12.9v12.9H114V152.5z"/>
<path class="st1" d="M153.9,167.4v-4.9H165v10c-1.7,1.3-3.6,2.3-5.6,3c-1.9,0.5-3.8,0.8-5.8,0.8c-2.3,0.1-4.7-0.4-6.8-1.4
	c-1.7-1-3.1-2.4-4-4.2c-1-2-1.5-4.2-1.4-6.5c-0.1-2.3,0.5-4.6,1.6-6.7c1-1.9,2.6-3.4,4.6-4.3c2-0.8,4.2-1.2,6.4-1.1
	c1.9-0.1,3.9,0.2,5.7,0.7c1.2,0.4,2.3,1.2,3.2,2.2c0.9,1.1,1.5,2.4,1.9,3.8l-6.9,1.2c-0.2-0.8-0.7-1.5-1.4-2
	c-0.8-0.5-1.7-0.7-2.6-0.7c-1.4-0.1-2.8,0.6-3.8,1.7c-0.9,1.1-1.4,2.8-1.4,5.2s0.5,4.3,1.4,5.4c1,1.1,2.4,1.7,3.9,1.6
	c0.8,0,1.6-0.1,2.3-0.4c0.9-0.3,1.7-0.7,2.5-1.2v-2.2L153.9,167.4z"/>
<path class="st1" d="M182.7,152.5h6.7l8.8,13v-13h6.7v23.4h-6.7l-8.7-12.9v12.9h-6.8V152.5z"/>
<path class="st1" d="M210,164.2c0-3.8,1.1-6.8,3.2-8.9c2.1-2.1,5-3.2,8.8-3.2s6.8,1,8.9,3.1s3.1,5,3.1,8.8c0.1,2.3-0.4,4.6-1.4,6.7
	c-0.9,1.7-2.3,3.2-4,4.1c-2,1-4.2,1.5-6.4,1.5c-2.2,0.1-4.5-0.4-6.5-1.2c-1.8-0.9-3.2-2.3-4.2-4C210.5,168.9,209.9,166.6,210,164.2z
	 M217.2,164.2c0,2.4,0.4,4.1,1.3,5.1c1.9,2,5,2,7,0.2c0.1-0.1,0.1-0.1,0.2-0.2c0.8-1,1.3-2.8,1.3-5.5c0.1-1.7-0.3-3.4-1.3-4.8
	c-1.8-2-4.9-2.1-6.9-0.2c-0.1,0.1-0.2,0.1-0.2,0.2C217.6,160.1,217.2,161.8,217.2,164.2L217.2,164.2z"/>
<path class="st1" d="M239.3,175.9v-23.4h12c1.7-0.1,3.4,0.1,5.1,0.6c1.2,0.4,2.2,1.1,2.8,2.1c2.1,3,1.3,7.1-1.7,9.2
	c-0.1,0.1-0.2,0.1-0.3,0.2c-0.8,0.4-1.6,0.7-2.5,0.9c0.7,0.2,1.3,0.5,1.9,0.9c0.4,0.4,0.8,0.8,1.1,1.2c0.4,0.4,0.7,0.9,1,1.5
	l3.5,6.8H254l-3.8-7.2c-0.3-0.7-0.7-1.3-1.3-1.8c-0.5-0.4-1.1-0.5-1.8-0.5h-0.6v9.5L239.3,175.9z M246.6,161.9h3
	c0.6,0,1.3-0.1,1.9-0.3c0.5-0.1,0.9-0.4,1.2-0.7c0.3-0.4,0.4-0.9,0.5-1.4c0-0.7-0.2-1.3-0.7-1.7c-0.8-0.5-1.7-0.7-2.7-0.6h-3.2
	L246.6,161.9z"/>
<path class="st1" d="M265.6,152.5h9.4l3.6,14.2l3.7-14.2h9.4v23.4h-5.9V158l-4.5,17.9H276l-4.5-17.9v17.9h-5.9V152.5z"/>
<path class="st1" d="M311.9,172h-8.1l-1.1,3.9h-7.3l8.7-23.4h7.8l8.7,23.4H313L311.9,172z M310.3,166.9l-2.6-8.4l-2.4,8.4H310.3z"/>
<path class="st1" d="M324.1,152.5h7.2v17.6h11.1v5.8h-18.3L324.1,152.5z"/>
<path class="st1" d="M374.2,152.5h7.1v14c0,1.3-0.2,2.7-0.6,3.9c-0.4,1.2-1.1,2.3-2,3.2c-0.8,0.9-1.8,1.5-2.9,2
	c-1.6,0.6-3.3,0.8-5,0.8c-1.2,0-2.5-0.1-3.7-0.2c-1.2-0.1-2.3-0.5-3.4-1c-0.9-0.5-1.8-1.2-2.5-2c-0.7-0.8-1.2-1.7-1.5-2.7
	c-0.4-1.3-0.6-2.6-0.7-4v-14h7.2v14.3c-0.1,1.1,0.3,2.2,1,3c1.7,1.4,4.1,1.4,5.8,0c0.7-0.8,1.1-1.9,1-3L374.2,152.5z"/>
<path class="st1" d="M387.4,152.5h6.7l8.7,13v-13h6.8v23.4h-6.8l-8.7-12.9v12.9h-6.8V152.5z"/>
<path class="st1" d="M416,152.5h7.2v23.4H416V152.5z"/>
<path class="st1" d="M427.3,152.5h7.5l5.2,16.9l5.1-16.9h7.3l-8.6,23.4H436L427.3,152.5z"/>
<path class="st1" d="M456.1,152.5h19.2v5h-12v3.7h11.1v4.8h-11.2v4.7h12.4v5.3h-19.5V152.5z"/>
<path class="st1" d="M480.9,175.9v-23.4h12c1.7-0.1,3.4,0.1,5.1,0.6c1.2,0.4,2.2,1.1,2.8,2.1c0.7,1.1,1.1,2.4,1.1,3.8
	c0,1.2-0.3,2.3-0.8,3.4c-0.5,0.9-1.3,1.7-2.2,2.3c-0.8,0.4-1.7,0.7-2.5,0.9c0.7,0.2,1.3,0.5,1.9,0.9c0.4,0.4,0.8,0.8,1.2,1.2
	c0.4,0.4,0.7,0.9,1,1.5l3.5,6.8h-8.1l-3.8-7.2c-0.3-0.7-0.7-1.3-1.3-1.8c-0.5-0.4-1.1-0.5-1.7-0.5h-0.6v9.5L480.9,175.9z
	 M488.1,161.9h3c0.6,0,1.3-0.1,1.9-0.3c0.5-0.1,0.9-0.4,1.2-0.7c0.3-0.4,0.4-0.9,0.4-1.4c0-0.7-0.2-1.3-0.7-1.7
	c-0.8-0.5-1.7-0.7-2.7-0.6h-3.1L488.1,161.9z"/>
<path class="st1" d="M506,168.1l6.8-0.4c0.1,0.9,0.4,1.8,0.9,2.6c0.8,1,1.9,1.5,3.2,1.4c0.9,0.1,1.7-0.2,2.4-0.7
	c0.9-0.7,1.1-2,0.4-2.9c-0.1-0.1-0.2-0.3-0.4-0.4c-1.1-0.7-2.4-1.2-3.7-1.4c-3.1-0.7-5.4-1.7-6.7-2.9c-1.3-1.1-2-2.8-2-4.5
	c0-1.2,0.3-2.4,1-3.4c0.8-1.1,1.9-2,3.1-2.5c1.8-0.7,3.8-1,5.7-0.9c3,0,5.2,0.5,6.8,1.7c1.7,1.3,2.7,3.2,2.8,5.3l-6.8,0.4
	c-0.1-0.9-0.5-1.7-1.1-2.3c-0.7-0.5-1.5-0.8-2.4-0.7c-0.7,0-1.3,0.1-1.9,0.5c-0.4,0.3-0.6,0.8-0.6,1.3c0,0.4,0.2,0.8,0.5,1
	c0.7,0.5,1.5,0.8,2.4,0.9c2.3,0.4,4.6,1.1,6.7,2.1c1.2,0.6,2.2,1.5,3,2.6c0.6,1.1,1,2.3,0.9,3.5c0,1.5-0.4,2.9-1.2,4.1
	c-0.8,1.3-2,2.3-3.5,2.9c-1.8,0.7-3.7,1.1-5.6,1c-3.9,0-6.7-0.8-8.2-2.3C507,172.4,506.1,170.3,506,168.1z"/>
<path class="st1" d="M532.3,152.5h7.2v23.4h-7.2V152.5z"/>
<path class="st1" d="M544.2,152.5H566v5.8h-7.3v17.6h-7.2v-17.6h-7.3V152.5z"/>
<path class="st1" d="M568.2,152.5h8l4.7,7.9l4.7-7.9h7.9l-9,13.6v9.8h-7.2v-9.8L568.2,152.5z"/>
</svg>
