<svg id="Õ_1" data-name="Õº≤„ 1" xmlns="http://www.w3.org/2000/svg" viewBox="0 0 308.22 308.23"><defs><style>.cls-1{fill:#005baa;}</style></defs><path class="cls-1" d="M342.08,220.94a111,111,0,1,0,78.46-32.49A110.22,110.22,0,0,0,342.08,220.94ZM314.8,299.4A105.74,105.74,0,1,1,420.54,405.13,105,105,0,0,1,314.8,299.4Z" transform="translate(-267.52 -145.89)"/><path class="cls-1" d="M267.52,300c0,85,69.13,154.1,154.12,154.1S575.75,385,575.75,300,506.62,145.89,421.64,145.89,267.52,215,267.52,300Zm7.82,0c0-80.67,65.63-146.3,146.3-146.3S567.92,219.35,567.92,300,502.3,446.3,421.64,446.3,275.34,380.68,275.34,300Z" transform="translate(-267.52 -145.89)"/><path class="cls-1" d="M309.43,384.85l-6.28-9.54a6.16,6.16,0,0,1-1.22-4.43,4.56,4.56,0,0,1,2.08-3.19,4.39,4.39,0,0,1,3.1-.75,5,5,0,0,1,2.28,1.05,5.52,5.52,0,0,1-.25-3.58,4.7,4.7,0,0,1,2.07-2.56,5.33,5.33,0,0,1,2.68-.9,5.41,5.41,0,0,1,2.71.54,6.88,6.88,0,0,1,1.8,1.6c.89,1,1.48,1.75,1.73,2.11L325.9,374Zm3.08-9.4-1.45-2.21a3.17,3.17,0,0,0-1.5-1.39,1.84,1.84,0,0,0-1.5.31,1.68,1.68,0,0,0-.82,1.22,2.94,2.94,0,0,0,.68,1.88l1.47,2.25Zm6.47-4.26-1.7-2.58a3.36,3.36,0,0,0-1.68-1.56,1.91,1.91,0,0,0-1.62.29,1.74,1.74,0,0,0-.82,1.31,3.62,3.62,0,0,0,.78,2.17l1.71,2.56Z" transform="translate(-267.52 -145.89)"/><path class="cls-1" d="M295,360.87l-6.15-15.14,3.9-1.59,3.85,9.48,2.9-1.18-3.57-8.79,3.73-1.51,3.58,8.78,3.59-1.45-4-9.75L307,338l6.26,15.4Z" transform="translate(-267.52 -145.89)"/><path class="cls-1" d="M286.3,336.56l-1.43-5.94L304,326l1.43,5.94Z" transform="translate(-267.52 -145.89)"/><path class="cls-1" d="M282.16,312.6l-.56-6.09,10.69-1a16.45,16.45,0,0,1,5.16.11,5.93,5.93,0,0,1,3.2,2.14,8.19,8.19,0,0,1,1.65,4.49,10.85,10.85,0,0,1-.38,4.68,5.79,5.79,0,0,1-2.12,2.75,9.07,9.07,0,0,1-3.72,1.4l-1.34-5.73a6.8,6.8,0,0,0,1.91-.4,2.2,2.2,0,0,0,1-.82,1.91,1.91,0,0,0,.17-1,1.67,1.67,0,0,0-.91-1.42,5.17,5.17,0,0,0-2.6-.25Z" transform="translate(-267.52 -145.89)"/><path class="cls-1" d="M281.7,296.63l.32-6.09,19.69,1-.31,6.1Z" transform="translate(-267.52 -145.89)"/><path class="cls-1" d="M282.91,280.08l1.22-5.56,12.26-4.9-10.65-2.36,1.23-5.6,19.26,4.26-1.23,5.6-12.17,4.88,10.57,2.32-1.24,5.61Z" transform="translate(-267.52 -145.89)"/><path class="cls-1" d="M306.09,247.44l-3.73-1.73,3.94-8.54,7.64,3.53a18.74,18.74,0,0,1,.28,5.38,16.58,16.58,0,0,1-1.46,4.75,12,12,0,0,1-3.49,4.71,8.17,8.17,0,0,1-4.66,1.62,11.92,11.92,0,0,1-5.46-1.17,11.56,11.56,0,0,1-4.54-3.54,8.86,8.86,0,0,1-1.67-5.07,12.83,12.83,0,0,1,1.41-5.3,15.07,15.07,0,0,1,2.58-4.2,6.32,6.32,0,0,1,2.78-1.67,8.16,8.16,0,0,1,3.55-.15l-1.51,5.79a3.22,3.22,0,0,0-2.06.39,4,4,0,0,0-1.47,1.76,4,4,0,0,0-.07,3.48,6.71,6.71,0,0,0,3.51,2.94c1.93.89,3.48,1.17,4.65.81a4.23,4.23,0,0,0,2.65-2.47,6.48,6.48,0,0,0,.55-1.89,12.61,12.61,0,0,0,0-2.36l-1.69-.78Z" transform="translate(-267.52 -145.89)"/><path class="cls-1" d="M312.29,213.21l3.86-4.17L329.2,211l-8-7.38,3.89-4.23,14.51,13.35-3.9,4.24-13-1.92,8,7.34-3.89,4.21Z" transform="translate(-267.52 -145.89)"/><path class="cls-1" d="M338.45,200.58a10.13,10.13,0,0,1-2.11-7.7c.43-2.5,2-4.66,4.6-6.49s5.26-2.61,7.72-2.18,4.61,1.93,6.43,4.53a12.11,12.11,0,0,1,2.3,5.31,8.27,8.27,0,0,1-.78,4.74,11,11,0,0,1-3.79,4.16,12.71,12.71,0,0,1-5.13,2.29,8.29,8.29,0,0,1-4.83-.71A11.13,11.13,0,0,1,338.45,200.58Zm5-3.47a6.59,6.59,0,0,0,3.36,2.89,3.81,3.81,0,0,0,3.22-.66,3.73,3.73,0,0,0,1.75-2.8c.11-1.1-.47-2.57-1.74-4.39a6.14,6.14,0,0,0-3.24-2.67,3.86,3.86,0,0,0-3.24.69,3.75,3.75,0,0,0-1.68,2.77C341.78,194.08,342.3,195.46,343.46,197.11Z" transform="translate(-267.52 -145.89)"/><path class="cls-1" d="M366.37,194.08l-7.71-18.16,9.36-4a14.52,14.52,0,0,1,4.16-1.24,4.6,4.6,0,0,1,2.92.71,6,6,0,0,1,2.54,5.48,5.27,5.27,0,0,1-1,2.52A6.94,6.94,0,0,1,375,181a6.06,6.06,0,0,1,1.74.07,6.31,6.31,0,0,1,1.3.57,7.43,7.43,0,0,1,1.28.79l4.93,4.12-6.34,2.68-5.35-4.28a4.78,4.78,0,0,0-1.61-1,2.51,2.51,0,0,0-1.55.17l-.5.2,3.11,7.38Zm1.05-13.2,2.36-1a6.69,6.69,0,0,0,1.37-.87,1.57,1.57,0,0,0,.69-1,1.85,1.85,0,0,0-.1-1.2,1.82,1.82,0,0,0-1.13-1.11,3.56,3.56,0,0,0-2.3.42l-2.46,1Z" transform="translate(-267.52 -145.89)"/><path class="cls-1" d="M385.14,165.73l7.89-1.46,5.21,11.25.86-12.36,7.85-1.45,3.59,19.39-4.91.9-2.73-14.79-1.06,15.48-4.43.83-6.52-14.1,2.73,14.8-4.91.9Z" transform="translate(-267.52 -145.89)"/><path class="cls-1" d="M429.47,178.12l-6.93-.28-1.11,3.21-6.2-.24,8.18-19.41,6.65.26,6.61,20-6.35-.27Zm-1.1-4.31-1.9-7.18-2.45,7Z" transform="translate(-267.52 -145.89)"/><path class="cls-1" d="M445.86,163.45l5.93,1.37-3.39,14.49,9.26,2.16-1.1,4.72-15.21-3.55Z" transform="translate(-267.52 -145.89)"/><path class="cls-1" d="M493.91,181.89l5.28,3.05-5.9,10.16a9.86,9.86,0,0,1-2.12,2.6,7.14,7.14,0,0,1-2.84,1.5,7,7,0,0,1-2.94.19,12.33,12.33,0,0,1-4-1.57c-.82-.49-1.69-1.06-2.62-1.74a8.49,8.49,0,0,1-2.06-2.12,7.28,7.28,0,0,1-1-2.53,6,6,0,0,1,0-2.61,11.07,11.07,0,0,1,1.18-3.17l5.9-10.19,5.25,3-6,10.42a3.54,3.54,0,0,0-.47,2.64,3.31,3.31,0,0,0,1.69,2,3.49,3.49,0,0,0,2.58.47,3.54,3.54,0,0,0,2.05-1.77Z" transform="translate(-267.52 -145.89)"/><path class="cls-1" d="M508.08,191.44l4.21,3.83-1.85,13.06,7.34-8.06,4.24,3.86-13.25,14.58-4.26-3.86,1.83-13-7.29,8L494.83,206Z" transform="translate(-267.52 -145.89)"/><path class="cls-1" d="M528.71,212l3.78,4.8L517,229l-3.8-4.77Z" transform="translate(-267.52 -145.89)"/><path class="cls-1" d="M537.6,223.38l3.11,5.58-10.21,10.8L545,236.64l3,5.39-20.79,3.26L524,239.52Z" transform="translate(-267.52 -145.89)"/><path class="cls-1" d="M551.23,250.05l5.09,15.51-4,1.32-3.2-9.71-3,1,3,9-3.82,1.26-3-9-3.69,1.21,3.3,10L537.68,272l-5.19-15.79Z" transform="translate(-267.52 -145.89)"/><path class="cls-1" d="M539,278l19.58-2.39,1.21,10.11a15,15,0,0,1,.05,4.33,4.68,4.68,0,0,1-1.49,2.6,5.58,5.58,0,0,1-3.07,1.3,5.45,5.45,0,0,1-2.89-.37,5.26,5.26,0,0,1-2.15-1.66,7.63,7.63,0,0,1-1-2,6.84,6.84,0,0,1-.53,1.67,8.13,8.13,0,0,1-.91,1.09,7.79,7.79,0,0,1-1.13,1l-5.31,3.61-.84-6.83,5.58-3.95a4.93,4.93,0,0,0,1.39-1.28,2.65,2.65,0,0,0,.28-1.55l-.08-.53-7.93,1Zm12.37,4.66.33,2.57a8.75,8.75,0,0,0,.45,1.55,1.57,1.57,0,0,0,.73.91,1.94,1.94,0,0,0,1.18.25,1.83,1.83,0,0,0,1.37-.78,3.48,3.48,0,0,0,.25-2.33l-.33-2.64Z" transform="translate(-267.52 -145.89)"/><path class="cls-1" d="M547.75,301.46l-.08,5.8a4.32,4.32,0,0,0-2.19.61,3.16,3.16,0,0,0-1.4,2.59,2.85,2.85,0,0,0,.45,2.05,1.75,1.75,0,0,0,2.78.25,7.4,7.4,0,0,0,1.38-3,12.82,12.82,0,0,1,2.83-5.51,4.74,4.74,0,0,1,3.91-1.43,5.11,5.11,0,0,1,2.81,1.1,5.71,5.71,0,0,1,1.91,2.8,12.14,12.14,0,0,1,.4,4.88,9.93,9.93,0,0,1-1.83,5.64,6.09,6.09,0,0,1-4.64,2l.11-5.75a3.13,3.13,0,0,0,2-.82,3.17,3.17,0,0,0,.76-2,2.41,2.41,0,0,0-.34-1.63,1.35,1.35,0,0,0-1.05-.61,1.08,1.08,0,0,0-.88.37,5,5,0,0,0-.88,2,26.25,26.25,0,0,1-2.17,5.57,6,6,0,0,1-2.37,2.36,5.61,5.61,0,0,1-3,.55,6.16,6.16,0,0,1-3.42-1.3,6.57,6.57,0,0,1-2.2-3.12,11.5,11.5,0,0,1-.46-4.8c.26-3.35,1.06-5.61,2.45-6.8A7.66,7.66,0,0,1,547.75,301.46Z" transform="translate(-267.52 -145.89)"/><path class="cls-1" d="M557.75,329.21l-1.37,5.93-19.23-4.45,1.38-5.95Z" transform="translate(-267.52 -145.89)"/><path class="cls-1" d="M554.21,343.66l-6.85,17.21-4.52-1.79,2.29-5.77-13.8-5.51,2.25-5.66,13.8,5.5,2.3-5.78Z" transform="translate(-267.52 -145.89)"/><path class="cls-1" d="M544.11,367.5l-3.66,5.69-7.75-.26,3.44,6.95-3.65,5.66L527,372.87l-6.94-4.46,3.33-5.13,6.93,4.46Z" transform="translate(-267.52 -145.89)"/><path class="cls-1" d="M393.45,415.46q-1.49,10.19-3,20.35c-2.08-.31-4.17-.64-6.24-1q1.15-6.63,2.33-13.27a16.09,16.09,0,0,1-3.07,1.17,21.22,21.22,0,0,1-3.57.55c.31-1.5.61-3,.93-4.5a13.61,13.61,0,0,0,4.93-1.32,8.47,8.47,0,0,0,3-2.7C390.36,415,391.91,415.24,393.45,415.46Z" transform="translate(-267.52 -145.89)"/><path class="cls-1" d="M401.09,432.53c2,0,4.07-.1,6.09-.18a2.89,2.89,0,0,0,.71,1.71,2.08,2.08,0,0,0,1.36.58,2.54,2.54,0,0,0,2.36-1.25,11.55,11.55,0,0,0,1.09-4.21,7.25,7.25,0,0,1-2.29,1.39,7,7,0,0,1-7.39-2,6.37,6.37,0,0,1-1.5-5.05,7.26,7.26,0,0,1,1.34-3.55,6.26,6.26,0,0,1,2.87-2.25,9.75,9.75,0,0,1,4.29-.54,10.38,10.38,0,0,1,4.83,1.27,7.64,7.64,0,0,1,2.9,3.41,13.78,13.78,0,0,1,1,6c0,3.64-.93,6.31-2.66,8a9.17,9.17,0,0,1-7.17,2.23,12.46,12.46,0,0,1-4.16-.84,6.23,6.23,0,0,1-2.42-1.85A6.93,6.93,0,0,1,401.09,432.53Zm11.61-8.19a3.71,3.71,0,0,0-.73-2.61,2.65,2.65,0,0,0-2-1.05,2.49,2.49,0,0,0-1.95.71,3.72,3.72,0,0,0-.95,2.47,3.8,3.8,0,0,0,.61,2.65,2.64,2.64,0,0,0,2,1,2.78,2.78,0,0,0,2.12-.76A3.51,3.51,0,0,0,412.7,424.34Z" transform="translate(-267.52 -145.89)"/><path class="cls-1" d="M424.26,427.89c0-3.84.67-6.52,2-8.08s3.47-2.39,6.31-2.54a9.77,9.77,0,0,1,3.4.29,6.45,6.45,0,0,1,2.25,1.15,6.72,6.72,0,0,1,1.46,1.57,10.64,10.64,0,0,1,1,2,19.53,19.53,0,0,1,1,4.65c.35,3.65,0,6.38-1.27,8.19s-3.53,2.85-6.9,3a10.39,10.39,0,0,1-4.59-.61,7,7,0,0,1-2.91-2.32,8.63,8.63,0,0,1-1.29-3A19.87,19.87,0,0,1,424.26,427.89Zm5.9-.12q.15,3.86.95,5.24a2.3,2.3,0,0,0,2.21,1.33,2.36,2.36,0,0,0,1.56-.69,3.73,3.73,0,0,0,.9-2,19.63,19.63,0,0,0,0-4c-.17-2.68-.53-4.46-1.05-5.35a2.29,2.29,0,0,0-2.19-1.27,2.18,2.18,0,0,0-2,1.5A14.77,14.77,0,0,0,430.16,427.77Z" transform="translate(-267.52 -145.89)"/><path class="cls-1" d="M466.43,433.57q-9.21,1.9-18.52,3a10.28,10.28,0,0,1,1.35-4.9,28.39,28.39,0,0,1,5.13-6,15.39,15.39,0,0,0,2.82-3.28,3.05,3.05,0,0,0,.38-1.91,2.11,2.11,0,0,0-1-1.44,2.76,2.76,0,0,0-3.52.6,4.2,4.2,0,0,0-.57,2.51c-2,.14-3.91.25-5.87.33a8.93,8.93,0,0,1,.8-3.82,5.84,5.84,0,0,1,2.22-2.37A12.6,12.6,0,0,1,454,415a14.12,14.12,0,0,1,4.69-.15,5.89,5.89,0,0,1,3,1.54,5.43,5.43,0,0,1,1.57,2.88,6.17,6.17,0,0,1-.4,3.69,14.4,14.4,0,0,1-3.44,4.41c-1.05,1-1.78,1.65-2.13,2s-.78.86-1.24,1.45q4.73-.75,9.42-1.73C465.8,430.58,466.12,432.07,466.43,433.57Z" transform="translate(-267.52 -145.89)"/><path class="cls-1" d="M442,274.09l-4.2.75c-1.11.17-1.33.85-1.28,1.2l0,2.19c0,.66.14,1.09.46,1.3a.74.74,0,0,0,.7.06l3.53-.76c.83-.31,1-.85,1-1.14l0-1.2a.9.9,0,0,0-.31-.73,1.07,1.07,0,0,0-.88-.07l-2.57.49a.35.35,0,0,0-.29.37v1.17a.39.39,0,0,0,.14.3.37.37,0,0,0,.32.07l1.7-.43a.38.38,0,0,0-.19-.73l-1.23.31v-.41l2.31-.43a.38.38,0,0,1,.25,0h0s0,.12,0,.12l0,1.24s0,.2-.45.36l-3.57.79c-.07,0-.19-.09-.19-.66V276c0-.13.15-.34.68-.43l4.26-.77a.44.44,0,0,1,.33,0,.87.87,0,0,1,.19.67v3h0c0,.13-.05.45-.7.65l-4.47,1a1,1,0,0,0-.73.27,1.11,1.11,0,0,0-.33.93v3.66a1,1,0,0,0,.33.81,1.17,1.17,0,0,0,1.09.2l4.44-1a1.22,1.22,0,0,0,1.12-1.22v-2.39a1,1,0,0,0-.36-.7,1.52,1.52,0,0,0-1.24-.21l-3.11.85a1,1,0,0,0-.94,1.07v1.14a1,1,0,0,0,.41.68,1.2,1.2,0,0,0,.95.15l2.36-.62a.35.35,0,0,0,.27-.37l-.11-1.13a.44.44,0,0,0-.14-.29.6.6,0,0,0-.32,0l-1.06.31a.36.36,0,0,0-.25.46.37.37,0,0,0,.45.26s.32-.11.62-.18a1.67,1.67,0,0,1,0,.37l-2,.51c-.36.08-.44-.07-.46-.17v-1.07a.38.38,0,0,1,.32-.36l3.16-.83a.83.83,0,0,1,.6.05.19.19,0,0,1,.08.14v2.37a.46.46,0,0,1-.47.49l-4.48,1.05a.77.77,0,0,1-.46,0,.42.42,0,0,1-.08-.25v-3.7a.57.57,0,0,1,.08-.37.38.38,0,0,1,.24-.05.32.32,0,0,0,.13,0l4.54-1c1.42-.5,1.25-1.42,1.25-1.47V275.5a1.49,1.49,0,0,0-.49-1.27A1.13,1.13,0,0,0,442,274.09Zm-4.38,6.12h0Z" transform="translate(-267.52 -145.89)"/><path class="cls-1" d="M450.18,272.21,446,273c-1.11.17-1.35.86-1.29,1.2l0,2.17c0,.67.15,1.11.48,1.32a.7.7,0,0,0,.69.06l3.55-.78c.83-.3,1-.83,1-1.11l-.05-1.21a.83.83,0,0,0-.32-.72,1,1,0,0,0-.85-.08l-2.58.47a.36.36,0,0,0-.29.35v1.21a.35.35,0,0,0,.13.29.36.36,0,0,0,.31.08l1.71-.45a.35.35,0,0,0,.26-.44.38.38,0,0,0-.44-.27l-1.24.31V275l2.33-.44a.47.47,0,0,1,.24,0h0a1.23,1.23,0,0,0,0,.13l0,1.23s0,.23-.45.38l-3.57.77c-.05,0-.19-.1-.18-.65v-2.24c0-.12.14-.33.69-.42l4.24-.77c.05,0,.24-.07.34,0s.2.33.2.68v3.05c0,.13-.07.42-.72.66l-4.46,1a1,1,0,0,0-.73.26,1.16,1.16,0,0,0-.35.93v3.67a1.14,1.14,0,0,0,.35.79,1.19,1.19,0,0,0,1.1.24l4.43-1a1.19,1.19,0,0,0,1.12-1.19v-2.41a1.08,1.08,0,0,0-.37-.68,1.49,1.49,0,0,0-1.24-.21l-3.11.84a1,1,0,0,0-.93,1.09v1.11a.93.93,0,0,0,.4.67,1.13,1.13,0,0,0,1,.16l2.34-.59a.37.37,0,0,0,.28-.39l-.1-1.14a.35.35,0,0,0-.16-.27.37.37,0,0,0-.31,0l-1.06.29a.38.38,0,0,0-.26.47.39.39,0,0,0,.46.25s.32-.1.63-.17c0,.17,0,.22,0,.35-.46.14-2,.52-2,.52-.36.08-.46-.07-.47-.16v-1a.33.33,0,0,1,.32-.37l3.14-.86a.85.85,0,0,1,.62.08.3.3,0,0,1,.09.13V282a.48.48,0,0,1-.49.49l-4.49,1a.63.63,0,0,1-.44-.05.36.36,0,0,1-.09-.24v-3.7a.54.54,0,0,1,.09-.36.31.31,0,0,1,.24-.07h.12l4.54-1c1.43-.48,1.26-1.43,1.24-1.47l0-2.95a1.45,1.45,0,0,0-.51-1.28A1.13,1.13,0,0,0,450.18,272.21Zm-4.38,6.11h0Z" transform="translate(-267.52 -145.89)"/><path class="cls-1" d="M458.29,269.61l-4.2,1.35c-1.34.39-1.25,1.3-1.25,1.33v2.17c0,.67.12,1.08.46,1.28a.7.7,0,0,0,.72,0l3.56-1.29c1-.48.95-1.12.94-1.19l0-1.23a.78.78,0,0,0-.34-.68,1,1,0,0,0-.88,0l-2.58.87a.35.35,0,0,0-.25.35v1.18a.34.34,0,0,0,.16.31.35.35,0,0,0,.34,0l1.68-.66a.38.38,0,0,0,.22-.49.37.37,0,0,0-.48-.21l-1.19.47v-.39l2.37-.79.24,0,0,.08,0,1.23s0,.26-.51.49l-3.57,1.29-.07,0a1.72,1.72,0,0,1-.06-.52v-2.34s0-.36.73-.57l4.26-1.37a.37.37,0,0,1,.32,0c.07.05.16.24.16.6v3.06c0,.13-.07.47-.75.81,0,0-4.48,1.63-4.51,1.63a1.11,1.11,0,0,0-.67.34,1.18,1.18,0,0,0-.32.87v3.78a1,1,0,0,0,.35.75,1.22,1.22,0,0,0,1.14.08l4.42-1.66a1.37,1.37,0,0,0,1.08-1.31V276.8a.89.89,0,0,0-.38-.66,1.34,1.34,0,0,0-1.27,0L455,277.36a1.21,1.21,0,0,0-.87,1.17v1.13a.8.8,0,0,0,.39.65,1.16,1.16,0,0,0,1,0l2.33-.93a.37.37,0,0,0,.24-.37l-.11-1.12a.31.31,0,0,0-.18-.28.35.35,0,0,0-.34,0l-1.06.45a.38.38,0,0,0-.19.48.39.39,0,0,0,.49.21l.59-.25a2.32,2.32,0,0,0,.05.33l-2.09.81a.67.67,0,0,1-.37,0l-.05-.1v-1.05a.54.54,0,0,1,.38-.47l3.12-1.27c.41-.13.58-.06.6,0a.16.16,0,0,1,.07.08v2.36a.69.69,0,0,1-.53.63L454,281.48c-.24.08-.4.08-.43,0s-.07-.13-.07-.19v-3.68c0-.46.24-.54.38-.55a.27.27,0,0,0,.12,0l4.54-1.67c1.37-.65,1.21-1.54,1.2-1.58v-3a1.34,1.34,0,0,0-.51-1.22A1.1,1.1,0,0,0,458.29,269.61Z" transform="translate(-267.52 -145.89)"/><path class="cls-1" d="M443.55,300.33l-4.17.76c-1.11.17-1.33.86-1.3,1.2v2.2a1.42,1.42,0,0,0,.44,1.3.73.73,0,0,0,.71,0l3.55-.77c.83-.3,1-.85,1-1.12l0-1.2a.78.78,0,0,0-.34-.7,1,1,0,0,0-.86-.12l-2.57.49a.37.37,0,0,0-.29.37V304a.34.34,0,0,0,.14.31.37.37,0,0,0,.31.05l1.7-.41a.36.36,0,0,0,.25-.45.35.35,0,0,0-.45-.28l-1.21.31v-.41l2.31-.44a.51.51,0,0,1,.23,0h0a1,1,0,0,0,0,.12l0,1.23s0,.24-.44.38l-3.57.77c-.06.05-.19-.09-.19-.64v-2.24c0-.13.15-.33.7-.42l4.26-.77a.34.34,0,0,1,.33,0,.9.9,0,0,1,.19.67v3.06c0,.11-.05.41-.74.63l-4.44,1a1.06,1.06,0,0,0-.74.26,1.14,1.14,0,0,0-.32.92v3.68a1.09,1.09,0,0,0,.32.81,1.41,1.41,0,0,0,1.11.23l4.43-1a1.19,1.19,0,0,0,1.1-1.22v-2.39a.85.85,0,0,0-.34-.69,1.48,1.48,0,0,0-1.24-.22l-3.12.83a1.09,1.09,0,0,0-.95,1.09v1.12a1.12,1.12,0,0,0,.4.69,1.28,1.28,0,0,0,1,.15l2.35-.61a.35.35,0,0,0,.26-.39l-.08-1.12a.47.47,0,0,0-.17-.28.37.37,0,0,0-.31,0l-1.05.29a.38.38,0,0,0-.26.45.37.37,0,0,0,.45.26l.64-.17a1.63,1.63,0,0,0,0,.38l-2,.52c-.35.06-.44-.09-.47-.18l0-1.07a.33.33,0,0,1,.32-.35l3.14-.85c.37,0,.54,0,.63.07a.17.17,0,0,1,.08.15v2.33a.46.46,0,0,1-.5.49l-4.46,1.06c-.22,0-.38,0-.46-.06s-.09-.22-.09-.24v-3.69a.72.72,0,0,1,.09-.37.37.37,0,0,1,.24-.05h.11l4.55-1c1.43-.48,1.24-1.42,1.24-1.46v-2.94a1.5,1.5,0,0,0-.49-1.3A1.26,1.26,0,0,0,443.55,300.33Zm-4.36,6.13h0Z" transform="translate(-267.52 -145.89)"/><path class="cls-1" d="M451.73,298.56l-4.19.75c-1.11.17-1.33.85-1.31,1.19v2.2c0,.66.13,1.09.44,1.29a.81.81,0,0,0,.73.07l3.52-.78c.84-.3,1-.83,1-1.13l0-1.19a.82.82,0,0,0-.32-.72,1,1,0,0,0-.86-.09l-2.57.49a.36.36,0,0,0-.31.36v1.19a.41.41,0,0,0,.14.3.45.45,0,0,0,.32.05l1.69-.42a.37.37,0,0,0,.28-.45.39.39,0,0,0-.46-.27l-1.22.31v-.41l2.31-.43a.48.48,0,0,1,.24,0v0l0,.1,0,1.25s0,.2-.44.36l-3.56.79c-.08,0-.21-.11-.2-.66v-2.24c0-.13.15-.34.69-.41l4.26-.78s.22-.06.33,0,.19.34.19.68v3c0,.12-.06.43-.71.63,0,0-4.36,1-4.46,1a1.07,1.07,0,0,0-.76.26,1.08,1.08,0,0,0-.3.91v3.69a1.06,1.06,0,0,0,.3.8,1.25,1.25,0,0,0,1.13.2l4.42-1a1.19,1.19,0,0,0,1.12-1.2V305.9a1,1,0,0,0-.36-.68,1.43,1.43,0,0,0-1.24-.21l-3.12.83a1.06,1.06,0,0,0-.92,1.09v1.13a.93.93,0,0,0,.4.67,1.16,1.16,0,0,0,1,.15l2.34-.6a.33.33,0,0,0,.26-.39l-.09-1.12a.35.35,0,0,0-.15-.28.42.42,0,0,0-.31-.05l-1.07.3a.38.38,0,0,0-.25.47.36.36,0,0,0,.46.24s.32-.08.62-.19a3.29,3.29,0,0,1,0,.38c-.47.11-2,.52-2,.52-.36.08-.45-.08-.47-.17v-1.06a.39.39,0,0,1,.35-.37l3.13-.83a.9.9,0,0,1,.61.06.21.21,0,0,1,.09.14v2.36a.47.47,0,0,1-.48.49l-4.48,1a.7.7,0,0,1-.46,0,.38.38,0,0,1-.09-.24v-3.71c0-.11,0-.29.11-.37a.27.27,0,0,1,.21-.06h.12l4.55-1c1.43-.48,1.26-1.42,1.25-1.47V300a1.47,1.47,0,0,0-.51-1.28A1.07,1.07,0,0,0,451.73,298.56Zm-4.38,6.11h0Z" transform="translate(-267.52 -145.89)"/><path class="cls-1" d="M459.84,296l-4.21,1.35c-1.34.4-1.24,1.3-1.24,1.33v2.19c0,.65.13,1.07.44,1.26a.76.76,0,0,0,.75,0l3.53-1.27c1-.48,1-1.13,1-1.2l0-1.21a.76.76,0,0,0-.33-.7,1,1,0,0,0-.9,0l-2.58.86a.37.37,0,0,0-.24.36v1.18a.49.49,0,0,0,.14.32.36.36,0,0,0,.35,0l1.7-.66a.38.38,0,0,0,.2-.48.39.39,0,0,0-.49-.21l-1.18.47v-.37l2.38-.79a1.29,1.29,0,0,1,.24-.05l0,.06,0,1.24s0,.24-.5.48l-3.57,1.3h-.06a1.07,1.07,0,0,1-.09-.51v-2.33c0-.05.05-.37.74-.57l4.25-1.38c.1,0,.26-.08.33,0s.15.23.15.61v3.05c0,.13,0,.47-.74.79l-4.5,1.66a1,1,0,0,0-.68.32,1.22,1.22,0,0,0-.31.86v3.8a.87.87,0,0,0,.34.72,1.11,1.11,0,0,0,1.15.1l4.41-1.66a1.34,1.34,0,0,0,1.07-1.3v-2.41a.83.83,0,0,0-.36-.65,1.41,1.41,0,0,0-1.28-.07l-3.11,1.28a1.23,1.23,0,0,0-.88,1.17v1.13a.88.88,0,0,0,.4.64,1.21,1.21,0,0,0,1,0l2.34-.93a.38.38,0,0,0,.23-.38l-.1-1.1a.35.35,0,0,0-.17-.29.3.3,0,0,0-.34,0l-1.06.44a.36.36,0,0,0-.2.49.37.37,0,0,0,.49.2s.29-.14.59-.25c0,.15,0,.2,0,.32-.4.17-2.07.82-2.07.82a.53.53,0,0,1-.38,0l0-.09v-1a.51.51,0,0,1,.38-.48l3.15-1.28c.38-.13.54,0,.59,0a.08.08,0,0,1,0,.08v2.36a.61.61,0,0,1-.53.61l-4.47,1.68a.59.59,0,0,1-.42,0c-.05,0-.07-.13-.06-.19v-3.69c0-.46.21-.52.35-.53a.19.19,0,0,0,.13,0l4.55-1.66c1.36-.65,1.19-1.56,1.19-1.59v-2.94a1.34,1.34,0,0,0-.49-1.24A1.1,1.1,0,0,0,459.84,296Z" transform="translate(-267.52 -145.89)"/><path class="cls-1" d="M399.18,274.23a1.44,1.44,0,0,0-.5,1.27v3s-.19.92,1.21,1.39l4.58,1a.25.25,0,0,0,.12,0,.31.31,0,0,1,.22.05c.1.08.1.26.1.35v3.7s0,.19-.09.25a.62.62,0,0,1-.48.05l-4.38-1a.51.51,0,0,1-.55-.52v-2.36a.52.52,0,0,1,.09-.13.92.92,0,0,1,.63-.05l3.06.83c.18,0,.41.11.41.36v1.14s-.13.18-.51.1l-2-.51a2.76,2.76,0,0,1,0-.37l.62.18a.38.38,0,0,0,.46-.28.35.35,0,0,0-.27-.44L400.9,282a.43.43,0,0,0-.31.06.49.49,0,0,0-.17.28l-.09,1.13a.32.32,0,0,0,.29.37l2.31.62a1.17,1.17,0,0,0,1-.15,1.1,1.1,0,0,0,.41-.62v-1.2a1.08,1.08,0,0,0-1-1.08l-3-.84a1.67,1.67,0,0,0-1.27.21,1,1,0,0,0-.34.68v2.38a1.21,1.21,0,0,0,1.17,1.25l4.35,1a1.25,1.25,0,0,0,1.11-.22,1.08,1.08,0,0,0,.33-.83v-3.66a1.06,1.06,0,0,0-.33-.91,1,1,0,0,0-.73-.27l-4.5-1c-.64-.22-.67-.53-.67-.6V275.5a.89.89,0,0,1,.19-.67.42.42,0,0,1,.29,0l4.28.78c.55.09.71.3.71.42v2.24c0,.57-.12.68-.12.69l-3.67-.82c-.4-.16-.42-.36-.42-.36l0-1.22s0-.15,0-.15a.47.47,0,0,1,.2,0l2.36.46v.4l-1.22-.29a.35.35,0,0,0-.45.25.37.37,0,0,0,.27.46l1.69.43a.43.43,0,0,0,.31-.07.39.39,0,0,0,.14-.3v-1.17a.38.38,0,0,0-.3-.38l-2.62-.49a1,1,0,0,0-.81.08.87.87,0,0,0-.33.73l0,1.22c0,.27.15.81.94,1.09l3.67.81a.68.68,0,0,0,.64-.08,1.41,1.41,0,0,0,.42-1.3V276c0-.29-.18-1-1.29-1.16l-4.24-.76A1,1,0,0,0,399.18,274.23Zm5.37,6h0Z" transform="translate(-267.52 -145.89)"/><path class="cls-1" d="M391,272.32a1.45,1.45,0,0,0-.51,1.27v3s-.17.9,1.21,1.44l4.57,1.28h.13a.44.44,0,0,1,.25.09.6.6,0,0,1,.09.37v3.7a.31.31,0,0,1-.08.23c-.08.08-.24.08-.46,0l-4.39-1.27a.58.58,0,0,1-.58-.57v-2.36s0,0,.08-.11a1,1,0,0,1,.64,0l3.05,1a.44.44,0,0,1,.42.43v1.09a.22.22,0,0,1-.1.08.5.5,0,0,1-.39,0l-2-.62a2.49,2.49,0,0,1,0-.37l.62.21A.36.36,0,0,0,394,281a.39.39,0,0,0-.22-.47l-1.08-.37a.48.48,0,0,0-.31.05.44.44,0,0,0-.19.29l-.09,1.12a.4.4,0,0,0,.26.39l2.33.71a1.23,1.23,0,0,0,1-.09,1,1,0,0,0,.4-.62v-1.17a1.14,1.14,0,0,0-1-1.15l-3-1a1.51,1.51,0,0,0-1.28.14,1,1,0,0,0-.35.67l0,2.4a1.33,1.33,0,0,0,1.17,1.28l4.35,1.26a1.18,1.18,0,0,0,1.13-.17,1,1,0,0,0,.34-.78v-3.76a1.14,1.14,0,0,0-.33-.86,1,1,0,0,0-.71-.29l-4.52-1.26c-.64-.26-.69-.59-.69-.66v-3.08c0-.48.13-.63.18-.65a.43.43,0,0,1,.29,0l4.29,1c.55.1.71.33.71.45v2.25c0,.54-.11.68-.11.68l-3.66-1.05c-.41-.17-.44-.39-.44-.41l0-1.21s0-.13,0-.13a.58.58,0,0,1,.19,0s1.93.47,2.37.59v.39l-1.21-.37a.37.37,0,0,0-.21.71l1.69.52a.33.33,0,0,0,.33-.05.41.41,0,0,0,.16-.31v-1.18a.35.35,0,0,0-.3-.35l-2.61-.65a.91.91,0,0,0-.82.08.73.73,0,0,0-.34.7l0,1.22c0,.05,0,.73.91,1.11l3.66,1a.7.7,0,0,0,.66-.06c.31-.19.47-.6.44-1.31v-2.21s.08-.9-1.3-1.2l-4.24-1A1,1,0,0,0,391,272.32Zm5.37,6.27h0Z" transform="translate(-267.52 -145.89)"/><path class="cls-1" d="M382.87,269.64a1.35,1.35,0,0,0-.51,1.24v3s-.17.86,1.18,1.5l4.57,1.68.12,0c.14,0,.39.09.38.51v3.71a.43.43,0,0,1-.05.19c-.07.05-.22.05-.47,0l-4.39-1.65a.7.7,0,0,1-.6-.64v-2.37c.09-.09.26-.16.69,0l3,1.26c.1,0,.43.15.43.49v1.12a.63.63,0,0,1-.43,0l-2.07-.81a2.71,2.71,0,0,0,0-.33l.6.25a.39.39,0,0,0,.49-.2.35.35,0,0,0-.2-.47l-1.07-.47a.43.43,0,0,0-.33,0,.37.37,0,0,0-.17.28L384,279a.38.38,0,0,0,.23.37l2.32.93a1.17,1.17,0,0,0,1,0,.88.88,0,0,0,.4-.59v-1.18a1.22,1.22,0,0,0-.95-1.19l-3-1.25a1.49,1.49,0,0,0-1.3,0,.85.85,0,0,0-.38.64v2.4a1.39,1.39,0,0,0,1.14,1.35l4.34,1.64a1.2,1.2,0,0,0,1.16-.08,1,1,0,0,0,.35-.75v-3.78a1.18,1.18,0,0,0-.32-.87,1,1,0,0,0-.67-.33l-4.53-1.67c-.69-.31-.73-.66-.73-.74v-3.08c0-.38.09-.57.17-.62s.21,0,.27,0l4.29,1.37c.74.22.74.55.74.57v2.23c0,.54-.09.66-.09.66l-3.67-1.35c-.42-.23-.45-.47-.45-.49l0-1.23s0-.08,0-.09.15.06.15.06l2.4.79v.39l-1.18-.46a.36.36,0,0,0-.48.2.35.35,0,0,0,.21.47l1.69.7a.38.38,0,0,0,.34-.06.35.35,0,0,0,.17-.31v-1.18a.37.37,0,0,0-.26-.35l-2.62-.87a1,1,0,0,0-.86,0,.8.8,0,0,0-.32.71l0,1.22c0,.05,0,.7.91,1.16l3.65,1.33a.69.69,0,0,0,.67,0c.33-.19.47-.6.46-1.28v-2.2s.09-.91-1.26-1.3l-4.23-1.35A1,1,0,0,0,382.87,269.64Z" transform="translate(-267.52 -145.89)"/><path class="cls-1" d="M397.12,300.42a1.47,1.47,0,0,0-.47,1.25v2.93s-.2.9,1.2,1.35l4.57,1a.24.24,0,0,0,.13,0s.17,0,.24,0a.49.49,0,0,1,.07.33v3.58a.41.41,0,0,1-.07.25.61.61,0,0,1-.47,0l-4.41-1a.51.51,0,0,1-.54-.5v-2.3s0-.05.09-.09a.81.81,0,0,1,.64,0l3.06.8a.34.34,0,0,1,.38.34v1.1s-.11.16-.48.09l-2-.5c0-.14,0-.18,0-.34l.64.17a.37.37,0,0,0,.2-.71l-1.06-.28a.33.33,0,0,0-.32.05.32.32,0,0,0-.15.27l-.11,1.09a.39.39,0,0,0,.29.39l2.32.57a1.16,1.16,0,0,0,1-.14.87.87,0,0,0,.4-.6v-1.16a1,1,0,0,0-1-1.07l-3-.8a1.51,1.51,0,0,0-1.26.21.86.86,0,0,0-.34.65v2.34a1.17,1.17,0,0,0,1.16,1.19l4.36,1a1.3,1.3,0,0,0,1.13-.21,1,1,0,0,0,.3-.82v-3.54a1.07,1.07,0,0,0-.3-.88,1,1,0,0,0-.76-.26c-.09,0-4.49-1-4.49-1-.65-.21-.69-.52-.69-.57v-3a.88.88,0,0,1,.19-.64.35.35,0,0,1,.29,0l4.3.75c.53.09.69.28.69.38v2.17c0,.55-.1.67-.1.67l-3.71-.8c-.37-.12-.39-.33-.39-.33l0-1.19s0-.13,0-.13a.82.82,0,0,1,.18,0s1.9.33,2.37.44v.39l-1.23-.31a.38.38,0,0,0-.46.26.35.35,0,0,0,.28.44l1.69.43a.34.34,0,0,0,.32-.07.32.32,0,0,0,.13-.28v-1.17a.36.36,0,0,0-.3-.37l-2.62-.47a.94.94,0,0,0-.82.1.86.86,0,0,0-.31.7l0,1.18c0,.26.16.79.94,1.06l3.66.81a.7.7,0,0,0,.64-.1c.31-.21.46-.62.44-1.28v-2.15s.07-.91-1.31-1.13l-4.24-.74A1.1,1.1,0,0,0,397.12,300.42Zm5.4,5.81h0Z" transform="translate(-267.52 -145.89)"/><path class="cls-1" d="M389.18,298.62a1.42,1.42,0,0,0-.5,1.26v3s-.17.92,1.19,1.43l4.58,1.3a.34.34,0,0,0,.13,0,.36.36,0,0,1,.24.09.53.53,0,0,1,.1.36v3.7c0,.05,0,.19-.08.22s-.24.08-.47,0L390,308.75a.57.57,0,0,1-.56-.57v-2.36a.14.14,0,0,1,.08-.11s.21-.11.63,0l3.05,1a.43.43,0,0,1,.4.42v1.1a.13.13,0,0,1-.08.07.48.48,0,0,1-.38,0l-2-.62c0-.15,0-.19,0-.37l.62.22a.37.37,0,0,0,.23-.71l-1.05-.34a.35.35,0,0,0-.32,0,.38.38,0,0,0-.17.28l-.11,1.12a.38.38,0,0,0,.26.39l2.33.72a1.23,1.23,0,0,0,1-.1.85.85,0,0,0,.39-.59l0-1.2a1.14,1.14,0,0,0-1-1.14l-3-1a1.42,1.42,0,0,0-1.27.14.94.94,0,0,0-.37.66v2.41a1.27,1.27,0,0,0,1.18,1.27l4.33,1.26a1.19,1.19,0,0,0,1.13-.17,1,1,0,0,0,.34-.77V306a1.15,1.15,0,0,0-.32-.86,1.14,1.14,0,0,0-.71-.29l-4.52-1.27c-.66-.24-.69-.57-.69-.64v-3.08c0-.48.12-.61.19-.67a.36.36,0,0,1,.27,0l4.3,1c.56.1.7.34.7.46v2.24c0,.54-.09.66-.09.66l-3.68-1c-.41-.17-.43-.4-.43-.41l0-1.2a.9.9,0,0,1,0-.13.43.43,0,0,1,.17,0l2.39.59v.39c-.49-.16-1.2-.36-1.2-.36a.35.35,0,0,0-.47.23.34.34,0,0,0,.25.46l1.68.53a.33.33,0,0,0,.33-.06.38.38,0,0,0,.15-.29v-1.19a.35.35,0,0,0-.28-.36l-2.62-.65a1,1,0,0,0-.84.08.83.83,0,0,0-.32.69l0,1.23c0,.07,0,.71.93,1.12l3.66,1a.72.72,0,0,0,.64-.06c.33-.2.46-.63.45-1.29v-2.24s.09-.91-1.29-1.19l-4.23-1A1.08,1.08,0,0,0,389.18,298.62Zm5.37,6.25h0Z" transform="translate(-267.52 -145.89)"/><path class="cls-1" d="M381.34,295.89a1.3,1.3,0,0,0-.52,1.23v3s-.17.87,1.18,1.51l4.57,1.68s.07,0,.12,0,.39.07.36.52v3.68c0,.08,0,.19,0,.2s-.21.06-.45,0l-4.41-1.67a.65.65,0,0,1-.58-.63v-2.38c.08-.08.24-.15.68,0l3,1.24a.51.51,0,0,1,.43.49v1.12a.55.55,0,0,1-.43,0l-2.05-.83c0-.11,0-.15,0-.33l.57.25a.38.38,0,0,0,.5-.2.39.39,0,0,0-.2-.49l-1-.43a.43.43,0,0,0-.35,0,.35.35,0,0,0-.17.28l-.1,1.13a.39.39,0,0,0,.23.37l2.33.92a1.21,1.21,0,0,0,1,0,1,1,0,0,0,.41-.59v-1.18a1.27,1.27,0,0,0-1-1.2l-3-1.24a1.48,1.48,0,0,0-1.32,0,1,1,0,0,0-.36.67v2.4a1.4,1.4,0,0,0,1.14,1.34l4.35,1.64a1.24,1.24,0,0,0,1.15-.07,1,1,0,0,0,.34-.77v-3.78a1.11,1.11,0,0,0-.32-.85,1,1,0,0,0-.66-.33L382.28,301c-.69-.34-.73-.68-.73-.75l0-3.09c0-.37.06-.55.16-.6s.22,0,.27,0l4.28,1.37c.73.22.74.56.74.56v2.25c0,.53-.09.65-.1.65L383.28,300c-.44-.23-.46-.47-.46-.48l0-1.23s0-.07,0-.09a.64.64,0,0,0,.17.05l2.4.81v.38l-1.2-.46a.33.33,0,0,0-.46.2.35.35,0,0,0,.19.48l1.69.66a.36.36,0,0,0,.35,0,.38.38,0,0,0,.17-.3V298.8a.38.38,0,0,0-.26-.35l-2.62-.87a.91.91,0,0,0-.85,0,.71.71,0,0,0-.34.68l0,1.24s0,.68.91,1.15l3.64,1.32a.7.7,0,0,0,.68,0c.32-.19.47-.62.46-1.29v-2.23s.07-.87-1.27-1.28l-4.23-1.36A1.06,1.06,0,0,0,381.34,295.89Z" transform="translate(-267.52 -145.89)"/><path class="cls-1" d="M387.66,258.47a2.36,2.36,0,1,0,2.36,2.75A2.57,2.57,0,0,0,387.66,258.47Zm-.09,3.09a.8.8,0,1,1,.26-1.56.8.8,0,1,1-.26,1.56Z" transform="translate(-267.52 -145.89)"/><path class="cls-1" d="M394.8,261.31a2.36,2.36,0,1,0,2.61,2.51A2.58,2.58,0,0,0,394.8,261.31Zm.21,3.08a.79.79,0,1,1,.1-1.56.79.79,0,1,1-.1,1.56Z" transform="translate(-267.52 -145.89)"/><path class="cls-1" d="M402.41,263.48a2.36,2.36,0,1,0,2.35,2.75A2.57,2.57,0,0,0,402.41,263.48Zm-.11,3.07a.83.83,0,0,1-.76-.92.88.88,0,0,1,1-.63.87.87,0,0,1,.76.95A.84.84,0,0,1,402.3,266.55Z" transform="translate(-267.52 -145.89)"/><path class="cls-1" d="M454.47,258.47a2.36,2.36,0,1,0,3.12,1.82A2.58,2.58,0,0,0,454.47,258.47Zm.08,3.09a.85.85,0,0,1-1-.64.84.84,0,0,1,.76-.92.8.8,0,1,1,.26,1.56Z" transform="translate(-267.52 -145.89)"/><path class="cls-1" d="M447.66,261.84A2.36,2.36,0,1,0,450.6,264,2.56,2.56,0,0,0,447.66,261.84Zm-.19,3.09a.8.8,0,1,1-.12-1.58.86.86,0,0,1,1,.71A.87.87,0,0,1,447.47,264.93Z" transform="translate(-267.52 -145.89)"/><path class="cls-1" d="M440,263.74a2.58,2.58,0,0,0-2.33,2.76,2.56,2.56,0,0,0,3.12,1.83,2.37,2.37,0,1,0-.79-4.59Zm.11,3.09a.84.84,0,0,1-1-.61.88.88,0,0,1,.78-.94.8.8,0,1,1,.26,1.55Z" transform="translate(-267.52 -145.89)"/><path class="cls-1" d="M456.27,285.37a2.36,2.36,0,1,0,3.13,1.83A2.57,2.57,0,0,0,456.27,285.37Zm.1,3.08a.84.84,0,0,1-1-.62.86.86,0,0,1,.78-.94.8.8,0,1,1,.25,1.56Z" transform="translate(-267.52 -145.89)"/><path class="cls-1" d="M449,287.84a2.37,2.37,0,1,0,.34,4.64,2.36,2.36,0,1,0-.34-4.64Zm-.19,3.09a.8.8,0,1,1,.86-.86A.86.86,0,0,1,448.79,290.93Z" transform="translate(-267.52 -145.89)"/><path class="cls-1" d="M441,289.76a2.37,2.37,0,1,0,3.15,1.82A2.59,2.59,0,0,0,441,289.76Zm.12,3.09a.8.8,0,1,1,.77-.93A.86.86,0,0,1,441.16,292.85Z" transform="translate(-267.52 -145.89)"/><path class="cls-1" d="M457.67,311.32a2.36,2.36,0,1,0,3.13,1.83A2.56,2.56,0,0,0,457.67,311.32Zm.09,3.09a.8.8,0,1,1,.78-.94A.85.85,0,0,1,457.76,314.41Z" transform="translate(-267.52 -145.89)"/><path class="cls-1" d="M450.62,314.38a2.37,2.37,0,1,0,2.95,2.14A2.59,2.59,0,0,0,450.62,314.38Zm-.18,3.09a.83.83,0,0,1-1-.7.87.87,0,0,1,.85-.87.89.89,0,0,1,1,.73A.86.86,0,0,1,450.44,317.47Z" transform="translate(-267.52 -145.89)"/><path class="cls-1" d="M442.69,316.3a2.36,2.36,0,1,0,3.14,1.82A2.57,2.57,0,0,0,442.69,316.3Zm.11,3.08a.83.83,0,0,1-1-.61.86.86,0,0,1,.77-.94.87.87,0,0,1,1,.63A.85.85,0,0,1,442.8,319.38Z" transform="translate(-267.52 -145.89)"/><path class="cls-1" d="M385.44,285.25a2.36,2.36,0,1,0-.76,4.58,2.36,2.36,0,1,0,.76-4.58Zm-.11,3.09a.86.86,0,0,1-.76-.94.88.88,0,0,1,1-.63.81.81,0,1,1-.28,1.57Z" transform="translate(-267.52 -145.89)"/><path class="cls-1" d="M392.93,287.74a2.36,2.36,0,1,0,2.49,2.62A2.58,2.58,0,0,0,392.93,287.74Zm.07,3.09a.81.81,0,1,1,.17-1.59.9.9,0,0,1,.83.91A.88.88,0,0,1,393,290.83Z" transform="translate(-267.52 -145.89)"/><path class="cls-1" d="M401.05,289.65a2.35,2.35,0,1,0,2.34,2.75A2.57,2.57,0,0,0,401.05,289.65Zm-.11,3.07a.8.8,0,1,1,.27-1.56.87.87,0,0,1,.77.94A.86.86,0,0,1,400.94,292.72Z" transform="translate(-267.52 -145.89)"/><path class="cls-1" d="M383.53,310.82a2.36,2.36,0,1,0,2.35,2.75A2.61,2.61,0,0,0,383.53,310.82Zm-.1,3.09a.79.79,0,1,1,.25-1.55.86.86,0,0,1,.79.93A.87.87,0,0,1,383.43,313.91Z" transform="translate(-267.52 -145.89)"/><path class="cls-1" d="M391.25,313.34a2.36,2.36,0,1,0,2.6,2.53A2.58,2.58,0,0,0,391.25,313.34Zm.17,3.08a.86.86,0,0,1-.86-.84.88.88,0,0,1,1-.73.86.86,0,0,1,.86.86A.85.85,0,0,1,391.42,316.42Z" transform="translate(-267.52 -145.89)"/><path class="cls-1" d="M399.23,315.38a2.36,2.36,0,1,0-.8,4.57,2.57,2.57,0,0,0,3.14-1.82A2.61,2.61,0,0,0,399.23,315.38Zm-.12,3.08a.84.84,0,0,1-.77-.93.93.93,0,0,1,1.81.32A.85.85,0,0,1,399.11,318.46Z" transform="translate(-267.52 -145.89)"/><path class="cls-1" d="M384.85,253.52a.67.67,0,1,1-.67-.69A.67.67,0,0,1,384.85,253.52Z" transform="translate(-267.52 -145.89)"/><path class="cls-1" d="M382.63,255.68a.67.67,0,0,1-1.34,0,.67.67,0,1,1,1.34,0Z" transform="translate(-267.52 -145.89)"/><path class="cls-1" d="M382.27,260a.68.68,0,1,1-.68-.67A.67.67,0,0,1,382.27,260Z" transform="translate(-267.52 -145.89)"/><path class="cls-1" d="M382,264.13a.66.66,0,0,1-.66.66.68.68,0,0,1-.69-.66.69.69,0,0,1,.69-.69A.67.67,0,0,1,382,264.13Z" transform="translate(-267.52 -145.89)"/><path class="cls-1" d="M408.08,263a.67.67,0,1,1-1.33,0,.67.67,0,1,1,1.33,0Z" transform="translate(-267.52 -145.89)"/><path class="cls-1" d="M407.7,267.06a.65.65,0,0,1-.65.67.67.67,0,1,1,0-1.34A.65.65,0,0,1,407.7,267.06Z" transform="translate(-267.52 -145.89)"/><path class="cls-1" d="M407.35,271.22a.67.67,0,0,1-1.34,0,.67.67,0,1,1,1.34,0Z" transform="translate(-267.52 -145.89)"/><path class="cls-1" d="M434.31,263a.68.68,0,1,0,.68-.68A.67.67,0,0,0,434.31,263Z" transform="translate(-267.52 -145.89)"/><path class="cls-1" d="M434.71,267.06a.65.65,0,0,0,.65.67.67.67,0,1,0,0-1.34A.65.65,0,0,0,434.71,267.06Z" transform="translate(-267.52 -145.89)"/><path class="cls-1" d="M435.3,271.22a.68.68,0,0,0,1.35,0,.68.68,0,1,0-1.35,0Z" transform="translate(-267.52 -145.89)"/><path class="cls-1" d="M459.19,255.68a.66.66,0,0,0,.68.66.66.66,0,0,0,.67-.66.68.68,0,0,0-.67-.69A.69.69,0,0,0,459.19,255.68Z" transform="translate(-267.52 -145.89)"/><path class="cls-1" d="M459.57,259.86a.67.67,0,1,0,.67-.68A.67.67,0,0,0,459.57,259.86Z" transform="translate(-267.52 -145.89)"/><path class="cls-1" d="M459.82,264.13a.67.67,0,0,0,.67.66.67.67,0,0,0,.66-.66.68.68,0,0,0-.66-.69A.69.69,0,0,0,459.82,264.13Z" transform="translate(-267.52 -145.89)"/><path class="cls-1" d="M389.13,255.22a.67.67,0,0,1-.67.67.68.68,0,0,1-.68-.67.69.69,0,0,1,.68-.68A.68.68,0,0,1,389.13,255.22Z" transform="translate(-267.52 -145.89)"/><path class="cls-1" d="M393.85,256.43a.67.67,0,1,1-.67-.66A.67.67,0,0,1,393.85,256.43Z" transform="translate(-267.52 -145.89)"/><path class="cls-1" d="M398.53,257.59a.69.69,0,0,1-.68.67.68.68,0,0,1,0-1.35A.69.69,0,0,1,398.53,257.59Z" transform="translate(-267.52 -145.89)"/><path class="cls-1" d="M403.15,258.74a.67.67,0,0,1-.66.66.67.67,0,1,1,0-1.34A.67.67,0,0,1,403.15,258.74Z" transform="translate(-267.52 -145.89)"/><path class="cls-1" d="M408.4,259.65a.67.67,0,0,1-.68.66.66.66,0,1,1,0-1.32A.68.68,0,0,1,408.4,259.65Z" transform="translate(-267.52 -145.89)"/><path class="cls-1" d="M380.71,283.08a.59.59,0,0,1-.61.6.6.6,0,0,1-.62-.6.62.62,0,0,1,.62-.62A.61.61,0,0,1,380.71,283.08Z" transform="translate(-267.52 -145.89)"/><path class="cls-1" d="M380.5,286.93a.61.61,0,0,1-.61.61.63.63,0,0,1-.62-.61.64.64,0,0,1,.62-.62A.62.62,0,0,1,380.5,286.93Z" transform="translate(-267.52 -145.89)"/><path class="cls-1" d="M380.37,290.46a.61.61,0,0,1-.61.62.62.62,0,0,1-.61-.62.63.63,0,0,1,.61-.62A.61.61,0,0,1,380.37,290.46Z" transform="translate(-267.52 -145.89)"/><path class="cls-1" d="M461.12,283.35a.64.64,0,0,0,.63.62.63.63,0,0,0,0-1.25A.64.64,0,0,0,461.12,283.35Z" transform="translate(-267.52 -145.89)"/><path class="cls-1" d="M461.35,287.2a.61.61,0,0,0,.61.62.62.62,0,0,0,.62-.62.63.63,0,0,0-.62-.62A.62.62,0,0,0,461.35,287.2Z" transform="translate(-267.52 -145.89)"/><path class="cls-1" d="M461.48,290.75a.6.6,0,0,0,.59.61.62.62,0,0,0,.62-.61.61.61,0,0,0-.62-.62A.59.59,0,0,0,461.48,290.75Z" transform="translate(-267.52 -145.89)"/><path class="cls-1" d="M435.43,289.77a.61.61,0,0,0,.61.62.63.63,0,0,0,.63-.62.62.62,0,0,0-.63-.62A.61.61,0,0,0,435.43,289.77Z" transform="translate(-267.52 -145.89)"/><path class="cls-1" d="M435.64,293.6a.62.62,0,0,0,.61.63.61.61,0,0,0,.61-.63.6.6,0,0,0-.61-.6A.62.62,0,0,0,435.64,293.6Z" transform="translate(-267.52 -145.89)"/><path class="cls-1" d="M435.76,297.16a.61.61,0,0,0,.62.61.61.61,0,0,0,.61-.61.61.61,0,0,0-.61-.62A.62.62,0,0,0,435.76,297.16Z" transform="translate(-267.52 -145.89)"/><path class="cls-1" d="M407,289.91a.62.62,0,0,1-1.23,0,.62.62,0,1,1,1.23,0Z" transform="translate(-267.52 -145.89)"/><path class="cls-1" d="M406.88,293.63a.63.63,0,1,1-.62-.62A.63.63,0,0,1,406.88,293.63Z" transform="translate(-267.52 -145.89)"/><path class="cls-1" d="M406.75,297.29a.62.62,0,0,1-1.24,0,.62.62,0,0,1,1.24,0Z" transform="translate(-267.52 -145.89)"/><path class="cls-1" d="M378.31,313.07a.59.59,0,0,1-.61.61.61.61,0,1,1,0-1.22A.59.59,0,0,1,378.31,313.07Z" transform="translate(-267.52 -145.89)"/><path class="cls-1" d="M378.74,310.2a.62.62,0,0,1-.62.62.61.61,0,0,1-.63-.62.59.59,0,0,1,.63-.59A.6.6,0,0,1,378.74,310.2Z" transform="translate(-267.52 -145.89)"/><path class="cls-1" d="M404.61,321.34a.63.63,0,0,1-.63.63.62.62,0,0,1-.61-.63.61.61,0,0,1,.61-.61A.62.62,0,0,1,404.61,321.34Z" transform="translate(-267.52 -145.89)"/><path class="cls-1" d="M405,318.37a.62.62,0,0,1-.64.6.59.59,0,0,1-.6-.6.6.6,0,0,1,.6-.61A.63.63,0,0,1,405,318.37Z" transform="translate(-267.52 -145.89)"/><path class="cls-1" d="M438.42,321.65a.62.62,0,0,1-.61.62.62.62,0,1,1,0-1.23A.62.62,0,0,1,438.42,321.65Z" transform="translate(-267.52 -145.89)"/><path class="cls-1" d="M438.1,318.56a.62.62,0,0,1-1.24,0,.62.62,0,1,1,1.24,0Z" transform="translate(-267.52 -145.89)"/><path class="cls-1" d="M463.35,313a.6.6,0,0,0,.59.62.62.62,0,1,0,0-1.23A.6.6,0,0,0,463.35,313Z" transform="translate(-267.52 -145.89)"/><path class="cls-1" d="M463.05,310a.61.61,0,0,0,.62.61.62.62,0,0,0,0-1.23A.62.62,0,0,0,463.05,310Z" transform="translate(-267.52 -145.89)"/><path class="cls-1" d="M378,316.18a.62.62,0,0,1-1.23,0,.62.62,0,1,1,1.23,0Z" transform="translate(-267.52 -145.89)"/><path class="cls-1" d="M464.84,316.18a.62.62,0,0,1-1.23,0,.62.62,0,1,1,1.23,0Z" transform="translate(-267.52 -145.89)"/><path class="cls-1" d="M382.23,317.77a.62.62,0,1,1-1.23,0,.62.62,0,0,1,1.23,0Z" transform="translate(-267.52 -145.89)"/><path class="cls-1" d="M386.57,319.34a.61.61,0,0,1-.61.61.62.62,0,1,1,0-1.23A.61.61,0,0,1,386.57,319.34Z" transform="translate(-267.52 -145.89)"/><path class="cls-1" d="M390.92,321a.62.62,0,1,1-.61-.6A.6.6,0,0,1,390.92,321Z" transform="translate(-267.52 -145.89)"/><path class="cls-1" d="M395.39,322.41a.62.62,0,0,1-.63.6.61.61,0,0,1-.62-.6.63.63,0,0,1,.62-.64A.64.64,0,0,1,395.39,322.41Z" transform="translate(-267.52 -145.89)"/><path class="cls-1" d="M399.73,323.65a.63.63,0,0,1-.63.63.62.62,0,0,1,0-1.24A.64.64,0,0,1,399.73,323.65Z" transform="translate(-267.52 -145.89)"/><path class="cls-1" d="M404.06,324.66a.61.61,0,1,1-.61-.62A.62.62,0,0,1,404.06,324.66Z" transform="translate(-267.52 -145.89)"/><path class="cls-1" d="M408.4,325.39a.63.63,0,0,1-.62.63.62.62,0,0,1-.6-.63.61.61,0,0,1,.6-.62A.62.62,0,0,1,408.4,325.39Z" transform="translate(-267.52 -145.89)"/><path class="cls-1" d="M412.75,326.09a.62.62,0,1,1-.62-.62A.61.61,0,0,1,412.75,326.09Z" transform="translate(-267.52 -145.89)"/><path class="cls-1" d="M417.33,326.69a.62.62,0,1,1-1.23,0,.62.62,0,1,1,1.23,0Z" transform="translate(-267.52 -145.89)"/><path class="cls-1" d="M421.68,326.71a.62.62,0,1,1-1.23,0,.62.62,0,0,1,1.23,0Z" transform="translate(-267.52 -145.89)"/><path class="cls-1" d="M426,326.61a.61.61,0,0,1-.62.6.61.61,0,0,1-.62-.6.64.64,0,0,1,.62-.62A.63.63,0,0,1,426,326.61Z" transform="translate(-267.52 -145.89)"/><path class="cls-1" d="M430.24,326.22a.61.61,0,0,1-.63.6.6.6,0,0,1-.61-.6.61.61,0,0,1,.61-.62A.62.62,0,0,1,430.24,326.22Z" transform="translate(-267.52 -145.89)"/><path class="cls-1" d="M434.45,325.58a.61.61,0,0,1-.6.63.62.62,0,0,1-.63-.63.61.61,0,0,1,.63-.6A.6.6,0,0,1,434.45,325.58Z" transform="translate(-267.52 -145.89)"/><path class="cls-1" d="M438.81,324.94a.62.62,0,0,1-.63.61.61.61,0,0,1-.62-.61.61.61,0,0,1,.62-.61A.62.62,0,0,1,438.81,324.94Z" transform="translate(-267.52 -145.89)"/><path class="cls-1" d="M443.14,324.22a.62.62,0,0,1-1.24,0,.62.62,0,0,1,1.24,0Z" transform="translate(-267.52 -145.89)"/><path class="cls-1" d="M447.48,323a.62.62,0,0,1-1.24,0,.62.62,0,1,1,1.24,0Z" transform="translate(-267.52 -145.89)"/><path class="cls-1" d="M452,321.86a.62.62,0,0,1-.63.61.61.61,0,0,1-.61-.61.61.61,0,0,1,.61-.62A.63.63,0,0,1,452,321.86Z" transform="translate(-267.52 -145.89)"/><path class="cls-1" d="M456.29,320.38a.61.61,0,0,1-.63.6.59.59,0,0,1-.6-.6.61.61,0,0,1,.6-.62A.63.63,0,0,1,456.29,320.38Z" transform="translate(-267.52 -145.89)"/><path class="cls-1" d="M460.75,318.47a.63.63,0,0,1-.62.62.62.62,0,0,1,0-1.24A.63.63,0,0,1,460.75,318.47Z" transform="translate(-267.52 -145.89)"/><path class="cls-1" d="M412.8,260.39a.68.68,0,1,1-1.35,0,.68.68,0,1,1,1.35,0Z" transform="translate(-267.52 -145.89)"/><path class="cls-1" d="M417.29,260.8a.66.66,0,0,1-.66.66.67.67,0,1,1,.66-.66Z" transform="translate(-267.52 -145.89)"/><path class="cls-1" d="M421.94,260.88a.67.67,0,1,1-1.34,0,.67.67,0,1,1,1.34,0Z" transform="translate(-267.52 -145.89)"/><path class="cls-1" d="M426.55,260.78a.68.68,0,1,1-.68-.66A.67.67,0,0,1,426.55,260.78Z" transform="translate(-267.52 -145.89)"/><path class="cls-1" d="M431.21,260.39a.66.66,0,0,1-.66.68.68.68,0,0,1-.68-.68.69.69,0,0,1,.68-.68A.68.68,0,0,1,431.21,260.39Z" transform="translate(-267.52 -145.89)"/><path class="cls-1" d="M435.4,259.89a.68.68,0,0,1-.67.68.69.69,0,0,1-.68-.68.69.69,0,0,1,.68-.67A.67.67,0,0,1,435.4,259.89Z" transform="translate(-267.52 -145.89)"/><path class="cls-1" d="M440.78,259a.67.67,0,0,1-.66.68.66.66,0,0,1-.66-.68.65.65,0,0,1,.66-.66A.66.66,0,0,1,440.78,259Z" transform="translate(-267.52 -145.89)"/><path class="cls-1" d="M445.78,257.84a.68.68,0,0,1-.68.67.67.67,0,0,1-.66-.67.66.66,0,0,1,.66-.68A.67.67,0,0,1,445.78,257.84Z" transform="translate(-267.52 -145.89)"/><path class="cls-1" d="M450.36,256.68a.68.68,0,0,1-.67.67.67.67,0,1,1,.67-.67Z" transform="translate(-267.52 -145.89)"/><path class="cls-1" d="M454.67,255.35a.67.67,0,1,1-1.33,0,.67.67,0,1,1,1.33,0Z" transform="translate(-267.52 -145.89)"/><path class="cls-1" d="M458.67,253.62a.68.68,0,1,1-1.35,0,.68.68,0,0,1,1.35,0Z" transform="translate(-267.52 -145.89)"/><path class="cls-1" d="M460.57,266.52c-9,4.7-24.9,6.44-25.06,6.47a.58.58,0,0,0-.52.6.61.61,0,0,0,.62.52c.7-.07,15.37-1.72,24.71-6.24.09,1.4.77,11.85.82,12.55-2.13.9-13.82,5.5-25.31,6.51a.59.59,0,0,0-.52.55v0a.53.53,0,0,0,.59.52,111.38,111.38,0,0,0,26-6.76l.37-.15-1-15Z" transform="translate(-267.52 -145.89)"/><path class="cls-1" d="M381.73,266.52c9,4.7,25,6.57,25.17,6.59a.58.58,0,0,1,.52.6.57.57,0,0,1-.61.52c-.71-.07-15.51-1.84-24.84-6.36-.1,1.4-.78,11.85-.83,12.55,2.16.9,13.83,5.5,25.32,6.51a.6.6,0,0,1,.52.55v0a.55.55,0,0,1-.59.52,111.55,111.55,0,0,1-26-6.76l-.36-.15,1-15Z" transform="translate(-267.52 -145.89)"/><path class="cls-1" d="M462.41,292.76c-9,4.73-26.61,6.35-26.8,6.35a.57.57,0,0,0-.49.61.55.55,0,0,0,.59.51c.72-.07,17.11-1.59,26.46-6.12.09,1.42.78,11.86.81,12.56-2.14.91-14.44,5.89-25.8,6.52a.56.56,0,0,0-.53.55v.05a.56.56,0,0,0,.59.51c12.63-.7,26.42-6.7,26.55-6.75l.36-.17-1-15Z" transform="translate(-267.52 -145.89)"/><path class="cls-1" d="M379.92,292.76c9,4.73,26.61,6.35,26.79,6.35a.56.56,0,0,1,.5.61.57.57,0,0,1-.6.51c-.71-.07-17.11-1.59-26.45-6.12-.08,1.42-.76,11.86-.81,12.56,2.13.91,14.45,5.89,25.8,6.52a.54.54,0,0,1,.52.55v.05a.54.54,0,0,1-.57.51c-12.65-.7-26.43-6.7-26.56-6.75l-.36-.17,1-15Z" transform="translate(-267.52 -145.89)"/><path class="cls-1" d="M412.15,277.35l4.63-.16c2.14-.44,1.7-3.08,1.7-3.08,0-2.05-1.1-1.82-2.08-2.22s-3.86.23-3.86.23c-1.65-.1-1.21-1.43-1.21-1.43-.05-2.09-1.65-2.16-1.65-2.16-1.7-.11-1.76,3.14-1.76,3.14l.06,11.68s.16,1.27.26,2.2,1.33,1.17,2,1.21a2,2,0,0,0,1.22-.32l2.69-.05c2.76-.29,3.25-1.23,3.59-2.11l0-.14a10.28,10.28,0,0,0,0-3c-.51-2.54-5.57-1.65-5.57-1.65-1.48.1-1.33-1-1.33-1C410.77,277.4,412.15,277.35,412.15,277.35Zm-.11,4.36h1.84a1.18,1.18,0,1,1,0,2.35H412a1.18,1.18,0,1,1,0-2.35Zm-1-6.83a1.29,1.29,0,0,1,1.34-1.22h2a1.22,1.22,0,1,1,0,2.43h-2A1.29,1.29,0,0,1,411,274.88Z" transform="translate(-267.52 -145.89)"/><path class="cls-1" d="M422.82,270.91l10.33.1s1.83.12,1.83,1.5c0,0-.27,1.88-1.83,1.93l-2.74.16s-1-.17-1,1.09c0,0-.29,1.21,1.38,1.38,0,0,4.28.12,4.67,1.94a5.76,5.76,0,0,1,.45,5s-1.28,3.23-2.44,0l-.37-2.09-.29-.81a2.14,2.14,0,0,0-1.86-1.11s-1.54-.28-1.5,1.87l-.26,3.52s-.67,2.1-1.76,2.1c0,0-1.89.23-1.89-2.7l-.16-3.41s.33-1.33-1.65-1.38c0,0-2-.28-1.88,2.54l-.17,1.59s-.37,1.56-1.41,1.48c0,0-1.49.34-1.44-2.25L418.8,280s.49-2.36,2.68-2.43l1.61-.05s2.21.22,2.26-1.83a1.79,1.79,0,0,0-1.93-1.36l-2.58-.06s-1.28.12-1.22-1.76c0,0-.16-1.6,2.3-1.6Z" transform="translate(-267.52 -145.89)"/><path class="cls-1" d="M411.71,296.31l5.33.11s1.77-3.41,3.75-3.47c0,0,1.93-.28,3.47,3.47l7.65-.22s3.37-.05,3.65,2.49l1.09,4.22s1.1,6.95,3.09,10.75c0,0,1.65,1.59.34,2.8,0,0-1.71,1.66-3.87-2.15,0,0-2-2.42-4.34-13,0,0,.16-2.26-1.71-2.14l-4.73.11a60.26,60.26,0,0,1,2.47,8.91,34.56,34.56,0,0,0,1.54,4.52s.94,2.26-.83,3.19a3,3,0,0,1-3.18-2.53L423,304.22l-1.11-3.67s-1-2.37-1.82-.45l-.93,3.82s-1.65,8.46-3.32,10.39c0,0-1.92,2.54-3.18,1.6,0,0-1.93-.88-.29-3.78a28,28,0,0,0,2.22-6.9l1.1-5.94-3.86-.11s-.93-.76-1.54,1.82l-2.21,7-1.87,5.3-.27,1.92a7.54,7.54,0,0,1-.89.83,2.34,2.34,0,0,1-2,.48c-.44-.2-1.16-.6-1.21-.92a11.56,11.56,0,0,1,.32-2.15c.05-.22.89-2.32.89-2.32l3.19-9.56.88-3.48a4,4,0,0,1,2.47-1.71l1.5-.22Z" transform="translate(-267.52 -145.89)"/><path class="cls-1" d="M422.41,333.16a.37.37,0,0,0,0,.52,30.71,30.71,0,0,0,16.17,7.21.37.37,0,0,0,.42-.3.4.4,0,0,0-.31-.43,29.64,29.64,0,0,1-15.81-7.05A.34.34,0,0,0,422.41,333.16Z" transform="translate(-267.52 -145.89)"/><path class="cls-1" d="M417.59,327.18a.38.38,0,0,0-.16.5,20.29,20.29,0,0,0,2.34,3.3.39.39,0,0,0,.53,0,.37.37,0,0,0,0-.53,20.31,20.31,0,0,1-2.25-3.16A.36.36,0,0,0,417.59,327.18Z" transform="translate(-267.52 -145.89)"/><path class="cls-1" d="M421.17,334.28a.39.39,0,0,0,0,.54c3.74,3.27,9.86,7.35,17.68,8.08a.38.38,0,0,0,.41-.35.36.36,0,0,0-.33-.39c-7.64-.72-13.62-4.69-17.28-7.91A.38.38,0,0,0,421.17,334.28Z" transform="translate(-267.52 -145.89)"/><path class="cls-1" d="M415.09,327.34a.36.36,0,0,0-.12.52,35.15,35.15,0,0,0,3.54,4.36.37.37,0,0,0,.53,0,.39.39,0,0,0,0-.53,32.81,32.81,0,0,1-3.48-4.26A.36.36,0,0,0,415.09,327.34Z" transform="translate(-267.52 -145.89)"/><path class="cls-1" d="M419.7,335.44a.38.38,0,0,0,0,.54,35.44,35.44,0,0,0,19.45,8.58.4.4,0,0,0,.42-.33.35.35,0,0,0-.33-.39,34.83,34.83,0,0,1-19.05-8.43A.37.37,0,0,0,419.7,335.44Z" transform="translate(-267.52 -145.89)"/><path class="cls-1" d="M412.59,327.13a.37.37,0,0,0-.13.5,32,32,0,0,0,4.63,5.86.36.36,0,0,0,.52,0,.37.37,0,0,0,0-.54,32,32,0,0,1-4.51-5.71A.39.39,0,0,0,412.59,327.13Z" transform="translate(-267.52 -145.89)"/><path class="cls-1" d="M426.54,340.46a5.37,5.37,0,0,0,.17,3.2c2.12,4.79,7.54,5.17,7.77,5.18a2,2,0,0,0,2.47-1.45,2.32,2.32,0,0,0-.58-1.79,2.61,2.61,0,0,0-1.8-.68s-4.19-.28-4.25-2.88a.38.38,0,0,0-.38-.37.37.37,0,0,0-.37.38c.08,3.27,4.78,3.6,5,3.6a2.16,2.16,0,0,1,1.28.47,1.55,1.55,0,0,1,.38,1.17,1.28,1.28,0,0,1-1.64.83c-.09,0-5.25-.41-7.19-4.77a4.79,4.79,0,0,1-.1-2.76.38.38,0,0,0-.32-.43A.36.36,0,0,0,426.54,340.46Z" transform="translate(-267.52 -145.89)"/><path class="cls-1" d="M427.64,341.13c0,.06-.05,5.9,7.62,6.21a.38.38,0,0,0,.38-.37.4.4,0,0,0-.35-.39c-6.92-.25-6.92-5.22-6.92-5.44a.36.36,0,0,0-.36-.36A.37.37,0,0,0,427.64,341.13Z" transform="translate(-267.52 -145.89)"/><path class="cls-1" d="M433.6,333.44A9.24,9.24,0,0,0,428,337a.36.36,0,0,0,.11.5.38.38,0,0,0,.52-.11,8.55,8.55,0,0,1,5.15-3.23c2.74-.52,5.76.31,9,2.51.07.06,2.53,2.14,4.41,1.91a1.92,1.92,0,0,0,1.43-.84,1.43,1.43,0,0,0,.35-1.17c-.09-.76-.75-1.5-1.9-2.19-.06,0-1.95-1.43-5,.78-.05,0-.05.09-.07.14C439,333.6,436.17,333,433.6,333.44Zm13,1.56c1.23.73,1.54,1.3,1.59,1.67a.7.7,0,0,1-.18.62,1.32,1.32,0,0,1-.93.57c-1.58.18-3.85-1.76-3.87-1.77-.24-.16-.44-.26-.66-.4C445.07,334,446.53,335,446.59,335Z" transform="translate(-267.52 -145.89)"/><path class="cls-1" d="M440.61,334.46a.37.37,0,0,0,0,.53.38.38,0,0,0,.52,0c1.17-1,4.26-3.19,7.64-.3A3.32,3.32,0,0,1,449,339c-.05.09-1.19,1.67-4.41-.38-.39-.29-10.22-7.12-15-.95a.39.39,0,0,0,.07.54.42.42,0,0,0,.52-.08c4.28-5.6,13.83,1.05,13.94,1.11,3.88,2.47,5.38.27,5.45.19,2-2.7-.37-5.21-.41-5.25C445.27,330.8,441.62,333.54,440.61,334.46Z" transform="translate(-267.52 -145.89)"/><path class="cls-1" d="M438.77,333.88a.36.36,0,0,0,0,.52.37.37,0,0,0,.52,0c6.28-5.56,10.85-.6,11-.37,2.84,3.33-.45,6.26-.59,6.4-3,2.25-6.42-.71-6.57-.84-7.38-5.53-11.87-1.35-11.91-1.3a.38.38,0,0,0,0,.53.36.36,0,0,0,.52,0c.16-.16,4.1-3.77,10.93,1.35,0,0,4,3.47,7.51.82.06,0,4-3.55.68-7.45C450.78,333.51,445.6,327.82,438.77,333.88Z" transform="translate(-267.52 -145.89)"/><path class="cls-1" d="M441.69,326.74a1.59,1.59,0,0,0-1.08.77,2.48,2.48,0,0,0,0,1.87,4.13,4.13,0,0,1-.11,3.13.35.35,0,0,0,.11.5.36.36,0,0,0,.51-.1s.85-1.29.19-3.76a1.73,1.73,0,0,1,0-1.29.79.79,0,0,1,.57-.41,1.81,1.81,0,0,1,1.28.35c.74.55,1.19,1.74,1.31,3.41a.36.36,0,0,0,.41.33.34.34,0,0,0,.33-.38c-.14-2-.69-3.27-1.63-4A2.34,2.34,0,0,0,441.69,326.74Z" transform="translate(-267.52 -145.89)"/><path class="cls-1" d="M441.46,327.17a.35.35,0,0,0,0,.51c.68.79,1.17,3.29,1.28,4.18a.39.39,0,0,0,.43.31.36.36,0,0,0,.31-.41c-.05-.37-.52-3.47-1.48-4.56A.35.35,0,0,0,441.46,327.17Z" transform="translate(-267.52 -145.89)"/><path class="cls-1" d="M454.53,327.43c-4,1.92-3.12,8.3-3.09,8.58a.38.38,0,0,0,.42.32.4.4,0,0,0,.32-.42c0-.06-.83-6.13,2.62-7.79.4-.1,1.79-.32,2.29.23a1.09,1.09,0,0,1,.18.63,3.62,3.62,0,0,1-.26,1.13c-.29.32-2,2.43-2.05,6.54,0,0-.07,3.21-1.91,4.46-1,.64-2.37.64-4.09,0a.37.37,0,0,0-.28.69c2,.77,3.58.75,4.8-.07,2.17-1.45,2.22-4.91,2.22-5a9.74,9.74,0,0,1,1.91-6.14l.05,0,0-.06c.45-1.13.44-2-.06-2.55C456.75,326.87,454.77,327.37,454.53,327.43Z" transform="translate(-267.52 -145.89)"/><path class="cls-1" d="M457.21,327.91a4.13,4.13,0,0,0-2.87,1.69,7.26,7.26,0,0,0-1.12,4.22,11.26,11.26,0,0,0,.15,1.87,4.16,4.16,0,0,1-1.09,3,2,2,0,0,1-1.35.52.36.36,0,0,0-.38.34.34.34,0,0,0,.33.39,2.54,2.54,0,0,0,1.87-.69,4.82,4.82,0,0,0,1.35-3.53l0,0,0,0s-.62-3.55.84-5.57a3.41,3.41,0,0,1,2.38-1.4.36.36,0,0,0,.31-.41A.36.36,0,0,0,457.21,327.91Z" transform="translate(-267.52 -145.89)"/><path class="cls-1" d="M438.59,337.25a.38.38,0,0,0-.37.37,30.13,30.13,0,0,0,1.18,7.58c.06.11,2.78,5.18.39,7.43a.4.4,0,0,0,0,.53.39.39,0,0,0,.53,0c2.81-2.66-.07-8-.19-8.28a28.57,28.57,0,0,1-1.14-7.28A.36.36,0,0,0,438.59,337.25Z" transform="translate(-267.52 -145.89)"/><path class="cls-1" d="M440.24,338.35a6.1,6.1,0,0,0-.19,1.62,17.89,17.89,0,0,0,1.92,6.9,12.5,12.5,0,0,1,.39,3c0,3.27-1.65,4.36-1.75,4.41a.4.4,0,0,0-.12.52.37.37,0,0,0,.5.11c.14-.08,3.19-2,1.7-8.22l0-.05v0s-2.55-4.95-1.7-8a.38.38,0,0,0-.24-.46A.37.37,0,0,0,440.24,338.35Z" transform="translate(-267.52 -145.89)"/><path class="cls-1" d="M441.82,339.52a15.27,15.27,0,0,0,1.19,6.54c0,.06,2.74,6.21-1.39,9.25a.37.37,0,0,0-.07.52.39.39,0,0,0,.5.08c4.62-3.4,1.69-10.08,1.65-10.16a14.28,14.28,0,0,1-1.14-6.17.39.39,0,0,0-.34-.4A.37.37,0,0,0,441.82,339.52Z" transform="translate(-267.52 -145.89)"/><path class="cls-1" d="M443.5,346a.4.4,0,0,0-.3.44.37.37,0,0,0,.45.29,2.8,2.8,0,0,1,1.78.16.37.37,0,0,0,.51-.1.36.36,0,0,0-.08-.52A3.73,3.73,0,0,0,443.5,346Z" transform="translate(-267.52 -145.89)"/><path class="cls-1" d="M443.82,348a.38.38,0,0,0,.32.42l1,.13a.37.37,0,0,0,.42-.32.38.38,0,0,0-.33-.41l-1-.13A.37.37,0,0,0,443.82,348Z" transform="translate(-267.52 -145.89)"/><path class="cls-1" d="M444,350.05a.36.36,0,0,0,.35.38l1,.07a.35.35,0,0,0,.39-.34.4.4,0,0,0-.35-.41l-1-.05A.37.37,0,0,0,444,350.05Z" transform="translate(-267.52 -145.89)"/><path class="cls-1" d="M462.44,334.48c-2.62.58-4.52,3.92-4.6,4.06v0l0,0c-.9,3.39-6.07,4.08-6.12,4.09-5.43.43-6.62,4.32-6.68,4.49a7.65,7.65,0,0,0,4.94,8.33c4.93,2.38,6.06,5.36,6.07,5.39,2.79,6,6.65,8.13,6.81,8.23h0l.76.41a4,4,0,0,0,3,.81,3,3,0,0,0,1.72-1.06,2.31,2.31,0,0,0,.29-2,3.05,3.05,0,0,0-1.89-1.53c-4.22-1.37-7.35-8-7.38-8a13.32,13.32,0,0,0-6.14-5.59h0l0,0a3.83,3.83,0,0,1-3-3.15,1.64,1.64,0,0,1,.08-1.51c.7-1.11,2.82-1.38,2.85-1.38,5.9-.2,8.32-3.88,8.42-4,1-2.27,2.05-2.77,2.05-2.77a3.19,3.19,0,0,0,2.14-1.83,2.65,2.65,0,0,0-.17-2.15l0-.07-.07-.05A3.61,3.61,0,0,0,462.44,334.48Zm.16.73a2.7,2.7,0,0,1,2.25.52,1.71,1.71,0,0,1,.2.87,2.08,2.08,0,0,1-.09.6,2.66,2.66,0,0,1-1.74,1.39c-.07,0-1.26.57-2.42,3.08,0,0-2.31,3.48-7.84,3.67-.12,0-2.52.3-3.4,1.71a2.36,2.36,0,0,0-.18,2.1,4.68,4.68,0,0,0,3.61,3.7l-.08,0a12.85,12.85,0,0,1,5.76,5.22c.12.27,3.3,6.93,7.82,8.42,0,0,1.12.33,1.43,1.07a1.52,1.52,0,0,1-.26,1.35c0,.06-1.21,1.73-3.69,0l-.79-.44s-3.8-2.1-6.48-7.85c0-.1-1.2-3.24-6.47-5.79a6.77,6.77,0,0,1-4.49-7.49c0-.09,1.1-3.51,6-3.91.27,0,5.74-.75,6.76-4.62l0,.09S460.31,335.69,462.6,335.21Z" transform="translate(-267.52 -145.89)"/><path class="cls-1" d="M464.7,334.94a14.37,14.37,0,0,0-5.56,5.65s-1.9,2.91-7,3.37c0,0-5.32.2-5.27,5a6.73,6.73,0,0,0,4.62,5.41s5.18,2.19,6.55,6.34v0l0,0c.2.33,5,8,9.21,9.23a.38.38,0,0,0,.45-.26.22.22,0,0,0,0-.11.39.39,0,0,0-.28-.36c-3.88-1.12-8.68-8.75-8.76-8.89-1.54-4.41-6.74-6.64-7-6.71a5.8,5.8,0,0,1-4.13-4.74v-.1c0-4,4.37-4.14,4.54-4.15,5.54-.5,7.56-3.62,7.64-3.77a13.7,13.7,0,0,1,5.26-5.32.39.39,0,0,0,.19-.34.31.31,0,0,0-.05-.18A.34.34,0,0,0,464.7,334.94Z" transform="translate(-267.52 -145.89)"/><path class="cls-1" d="M458.08,344c-1,3.09-1.07,5.35-.11,6.74a3.14,3.14,0,0,0,2.34,1.3c1.84.11,2.6-1.7,2.73-2.67-.06-.58-.16-1.27-.68-1.42s-1,.49-1.11.67a1.36,1.36,0,0,1-.64.41,1,1,0,0,1-.9-.22c-.38-.44-.23-1.41-.16-1.75a2.32,2.32,0,0,1,1.23-1.45,3.88,3.88,0,0,1,2.7.23,4.32,4.32,0,0,1,1.08,6c-2.15,3.75-6.73,1.74-6.93,1.67-3.77-1.73-2.78-7.79-2.76-7.84a.39.39,0,0,0-.32-.43.34.34,0,0,0-.4.3c-.07.29-1.11,6.68,3.17,8.65.06,0,5.37,2.36,7.87-2,0,0,2.7-4.12-1.35-7.06a4.59,4.59,0,0,0-3.35-.28,2.89,2.89,0,0,0-1.63,1.93,3,3,0,0,0,.28,2.44,1.73,1.73,0,0,0,1.64.44,2,2,0,0,0,1.09-.71,1.07,1.07,0,0,1,.3-.3,1.46,1.46,0,0,1,.11.62s-.31,2.07-1.95,1.94a2.34,2.34,0,0,1-1.75-1c-.82-1.17-.75-3.29.21-6.05a.38.38,0,0,0-.71-.26Z" transform="translate(-267.52 -145.89)"/><path class="cls-1" d="M456,345c0,.07-1.7,6.35,2.63,8.2.07,0,3.67,1.17,5.46-2.1,0-.16.73-2.24-.25-3.51a2.65,2.65,0,0,0-2.37-.92,2.4,2.4,0,0,0-2.5,2.15.35.35,0,0,0,.35.39.36.36,0,0,0,.38-.36c.05-1.36,1.71-1.44,1.79-1.44a2,2,0,0,1,1.77.62c.72,1,.15,2.75.15,2.78a3.79,3.79,0,0,1-4.51,1.69c-3.71-1.57-2.2-7.23-2.19-7.28a.35.35,0,0,0-.26-.46A.36.36,0,0,0,456,345Z" transform="translate(-267.52 -145.89)"/><path class="cls-1" d="M448,360.63c0,.16-.6,3.53.71,5.17a2.34,2.34,0,0,0,1.78.9,2.25,2.25,0,0,0,1.87-.59,2.62,2.62,0,0,0,.17-2.53,2,2,0,0,1,.68-2.55c.07,0,1.21-.82,3,.86a.37.37,0,0,0,.52-.53c-2.28-2.13-3.88-1-3.95-.93a2.76,2.76,0,0,0-1,3.42c.27.81.26,1.45,0,1.77a1.53,1.53,0,0,1-1.21.34,1.71,1.71,0,0,1-1.29-.61c-1.09-1.38-.56-4.54-.56-4.56.93-3.72,4.66-2.94,4.8-2.9a.37.37,0,0,0,.47-.27.39.39,0,0,0-.29-.44C453.63,357.18,449.09,356.18,448,360.63Z" transform="translate(-267.52 -145.89)"/><path class="cls-1" d="M450.44,360.05a4.74,4.74,0,0,0,1,6A.37.37,0,0,0,452,366a.37.37,0,0,0,0-.52,3.89,3.89,0,0,1-.82-5.06c1-1.69,4.07-1.08,4.11-1.07a.37.37,0,0,0,.42-.3.35.35,0,0,0-.28-.42C455.18,358.59,451.66,357.91,450.44,360.05Z" transform="translate(-267.52 -145.89)"/><path class="cls-1" d="M440.29,346.39c-.15.05-3.3,1.06-4.19,3.83-.62,1.91,0,4.15,1.85,6.65l0,0,0,0c.88.68,3.14,2.74,2.85,4.12-.12.62-.78,1.09-2,1.39-.21.09-1.38.69-1.49,1.65a1.66,1.66,0,0,0,.72,1.48c.21.12,3.52,1.8,6-.5a6.26,6.26,0,0,0,1.46-4.29,7.51,7.51,0,0,0-3-5.12c-.05,0-2-1.35-2.17-3.09a3,3,0,0,1,.88-2.33.37.37,0,1,0-.55-.49,3.6,3.6,0,0,0-1.05,2.91c.23,2.07,2.35,3.53,2.44,3.6a6.71,6.71,0,0,1,2.69,4.55,5.54,5.54,0,0,1-1.26,3.76c-2,1.9-4.89.45-5,.39a1,1,0,0,1-.41-.71.08.08,0,0,1,0-.06c0-.49.73-.94,1-1.06,1.4-.34,2.26-1,2.44-1.93a2.3,2.3,0,0,0,.05-.39c0-1.95-2.67-4.07-3.14-4.42a8.13,8.13,0,0,1-1.91-4.66,3.9,3.9,0,0,1,.2-1.28c.76-2.39,3.66-3.33,3.68-3.35a.39.39,0,0,0,.27-.36.23.23,0,0,0,0-.11A.36.36,0,0,0,440.29,346.39Z" transform="translate(-267.52 -145.89)"/><path class="cls-1" d="M440.68,348.06a5.08,5.08,0,0,0-3,2.67,4.19,4.19,0,0,0,.65,3.69,13.32,13.32,0,0,0,2.42,2.71s2.64,2.57,2.14,4.95c-.27,1.28-1.44,2.31-3.47,3.07a.35.35,0,0,0-.21.47.37.37,0,0,0,.46.23c2.29-.84,3.62-2.06,3.94-3.62.59-2.78-2.24-5.53-2.34-5.65A12.41,12.41,0,0,1,439,354a3.52,3.52,0,0,1-.58-3.06,4.6,4.6,0,0,1,2.53-2.22.37.37,0,1,0-.24-.69Z" transform="translate(-267.52 -145.89)"/><path class="cls-1" d="M430.12,349.64a.39.39,0,0,0,.09.52c3.61,2.47,6,2.29,6.13,2.29a.38.38,0,0,0-.07-.75s-2.28.16-5.63-2.16A.41.41,0,0,0,430.12,349.64Z" transform="translate(-267.52 -145.89)"/><path class="cls-1" d="M429.61,351.06a.38.38,0,0,0,.16.51,28.58,28.58,0,0,0,6.75,2.66.37.37,0,0,0,.13-.73,27,27,0,0,1-6.53-2.59A.39.39,0,0,0,429.61,351.06Z" transform="translate(-267.52 -145.89)"/><path class="cls-1" d="M428.8,352.51a.36.36,0,0,0,.13.5,24.88,24.88,0,0,0,8.65,3.16.37.37,0,1,0,.07-.73c-3.87-.38-8.3-3-8.35-3.06A.35.35,0,0,0,428.8,352.51Z" transform="translate(-267.52 -145.89)"/><path class="cls-1" d="M422.66,326.71c-.07.11-5.72,10.72-20.64,12.81a.37.37,0,0,0,.12.73c15.29-2.13,21.11-13.09,21.16-13.2a.36.36,0,1,0-.64-.34Z" transform="translate(-267.52 -145.89)"/><path class="cls-1" d="M425.15,326.82c-.08.13-8.8,13.35-23.38,14.7a.38.38,0,0,0-.34.42.35.35,0,0,0,.41.3c14.94-1.37,23.84-14.88,23.94-15a.36.36,0,0,0-.11-.5A.37.37,0,0,0,425.15,326.82Z" transform="translate(-267.52 -145.89)"/><path class="cls-1" d="M427.64,326.63c-.08.14-8.58,14.59-26.15,16.55a.38.38,0,0,0-.33.42.39.39,0,0,0,.41.32c18-2,26.62-16.77,26.7-16.92a.37.37,0,1,0-.63-.37Z" transform="translate(-267.52 -145.89)"/><path class="cls-1" d="M413.77,339.52a.35.35,0,0,0-.28.44,5.27,5.27,0,0,1-.12,2.74c-2,4.38-7.1,4.77-7.17,4.77a1.31,1.31,0,0,1-1.69-.89,1.48,1.48,0,0,1,.4-1.09,1.85,1.85,0,0,1,1.24-.46c.23,0,5-.34,5-3.62a.39.39,0,0,0-.35-.38.37.37,0,0,0-.38.36c-.06,2.6-4.26,2.9-4.28,2.91a2.56,2.56,0,0,0-1.76.66,2.13,2.13,0,0,0-.6,1.71,2,2,0,0,0,2.52,1.54c.18,0,5.59-.41,7.73-5.2a5.49,5.49,0,0,0,.16-3.18A.37.37,0,0,0,413.77,339.52Z" transform="translate(-267.52 -145.89)"/><path class="cls-1" d="M412.73,340.14a.38.38,0,0,0-.37.37c0,.2-.08,5.23-7.06,5.58a.36.36,0,0,0-.34.39.37.37,0,0,0,.38.35c7.7-.39,7.77-6.27,7.77-6.32A.38.38,0,0,0,412.73,340.14Z" transform="translate(-267.52 -145.89)"/><path class="cls-1" d="M398.84,334.68c0-.06,0-.12-.07-.15-3.1-2.2-5-.8-5.08-.75-1.12.67-1.79,1.4-1.88,2.18a1.5,1.5,0,0,0,.39,1.2,2,2,0,0,0,1.38.8c1.91.22,4.35-1.86,4.45-1.95,3.2-2.15,6.22-3,9-2.47a8.64,8.64,0,0,1,5.17,3.23.34.34,0,0,0,.5.1.35.35,0,0,0,.11-.52,9.28,9.28,0,0,0-5.63-3.53C404.57,332.31,401.77,333,398.84,334.68Zm-5.15,2.54a1.21,1.21,0,0,1-.92-.53.76.76,0,0,1-.22-.66c.06-.35.37-.92,1.56-1.64.1-.06,1.56-1.08,4.09.67-.21.12-.41.23-.62.37C397.53,335.47,395.24,337.4,393.69,337.22Z" transform="translate(-267.52 -145.89)"/><path class="cls-1" d="M391.53,333.52c0,.05-2.43,2.56-.4,5.27.05.08,1.54,2.28,5.4-.18.13-.07,9.67-6.73,14-1.13a.36.36,0,0,0,.52.07.4.4,0,0,0,.08-.53c-4.74-6.16-14.56.68-15,1-3.2,2-4.35.44-4.39.38A3.36,3.36,0,0,1,392,334c3.35-2.83,6.43-.71,7.6.34a.36.36,0,0,0,.52,0,.38.38,0,0,0,0-.53C399.11,332.9,395.46,330.18,391.53,333.52Z" transform="translate(-267.52 -145.89)"/><path class="cls-1" d="M389.91,332.92c-3.33,3.91.6,7.43.65,7.45,3.54,2.66,7.52-.8,7.54-.84,6.81-5.1,10.75-1.48,10.92-1.31a.39.39,0,0,0,.53,0,.37.37,0,0,0,0-.51c-.05-.06-4.53-4.25-11.91,1.25-.15.18-3.57,3.12-6.61.85-.12-.1-3.39-3.05-.56-6.37.19-.21,4.74-5.18,11,.37a.36.36,0,0,0,.49-.54C395.14,327.18,390,332.87,389.91,332.92Z" transform="translate(-267.52 -145.89)"/><path class="cls-1" d="M397.18,326.56c-.94.67-1.49,2-1.63,3.95a.39.39,0,0,0,.34.41.38.38,0,0,0,.4-.35c.14-1.69.57-2.85,1.32-3.4a1.62,1.62,0,0,1,1.28-.34.77.77,0,0,1,.57.38,1.81,1.81,0,0,1,0,1.27c-.66,2.52.14,3.74.18,3.81a.39.39,0,0,0,.5.09.38.38,0,0,0,.11-.52,4.25,4.25,0,0,1-.08-3.17,2.53,2.53,0,0,0,0-1.82,1.53,1.53,0,0,0-1.08-.78A2.44,2.44,0,0,0,397.18,326.56Z" transform="translate(-267.52 -145.89)"/><path class="cls-1" d="M398.76,326.56c-.95,1.09-1.42,4.21-1.47,4.56a.37.37,0,1,0,.73.1c.13-.89.62-3.39,1.3-4.17a.37.37,0,0,0,0-.52A.36.36,0,0,0,398.76,326.56Z" transform="translate(-267.52 -145.89)"/><path class="cls-1" d="M383.1,327.23c-.5.55-.51,1.42,0,2.55l0,.08,0,.05s1.85,2,1.92,6.1c0,.15,0,3.61,2.23,5.07,1.21.81,2.82.83,4.78.05a.37.37,0,0,0,.2-.48.38.38,0,0,0-.47-.22c-1.72.7-3.1.7-4.09,0-1.85-1.25-1.91-4.42-1.91-4.45a10.37,10.37,0,0,0-2-6.55,3.58,3.58,0,0,1-.27-1.13,1,1,0,0,1,.2-.61c.49-.54,1.89-.33,2.34-.2,3.38,1.63,2.58,7.69,2.57,7.74a.38.38,0,0,0,.31.43.36.36,0,0,0,.42-.33c.05-.25.89-6.64-3-8.54C386,326.74,384,326.25,383.1,327.23Z" transform="translate(-267.52 -145.89)"/><path class="cls-1" d="M383.1,327.59a.39.39,0,0,0,.33.42,3.36,3.36,0,0,1,2.37,1.38c1.47,2.05.84,5.55.83,5.59v.09a4.75,4.75,0,0,0,1.37,3.52,2.65,2.65,0,0,0,1.87.7.39.39,0,0,0,.34-.4.38.38,0,0,0-.4-.34,2,2,0,0,1-1.35-.53,4.17,4.17,0,0,1-1.09-3,11.77,11.77,0,0,0,.14-1.87A7.26,7.26,0,0,0,386.4,329a4.1,4.1,0,0,0-2.87-1.72A.39.39,0,0,0,383.1,327.59Z" transform="translate(-267.52 -145.89)"/><path class="cls-1" d="M401.77,337a29.14,29.14,0,0,1-1.15,7.38c-.1.15-3,5.53-.18,8.2a.4.4,0,0,0,.53,0,.37.37,0,0,0,0-.53c-2.37-2.27.33-7.32.35-7.36a28.56,28.56,0,0,0,1.23-7.67.37.37,0,0,0-.37-.37A.38.38,0,0,0,401.77,337Z" transform="translate(-267.52 -145.89)"/><path class="cls-1" d="M400.05,337.44a.38.38,0,0,0-.27.47c.86,3.06-1.67,8-1.68,8l0,.05v0c-1.5,6.22,1.55,8.16,1.68,8.24a.35.35,0,0,0,.56-.32.35.35,0,0,0-.17-.32c-.09,0-1.75-1.13-1.75-4.4a12.57,12.57,0,0,1,.4-3,18,18,0,0,0,1.92-6.89,6.3,6.3,0,0,0-.19-1.64A.38.38,0,0,0,400.05,337.44Z" transform="translate(-267.52 -145.89)"/><path class="cls-1" d="M398.51,338.55a.36.36,0,0,0-.33.39,14.66,14.66,0,0,1-1.14,6.21c-.05.05-3,6.72,1.64,10.11a.36.36,0,0,0,.51-.08.35.35,0,0,0-.08-.51c-4.13-3-1.43-9.18-1.39-9.24a15,15,0,0,0,1.2-6.54A.38.38,0,0,0,398.51,338.55Z" transform="translate(-267.52 -145.89)"/><path class="cls-1" d="M394.88,345.6a.36.36,0,0,0-.08.52.36.36,0,0,0,.51.09,2.82,2.82,0,0,1,1.79-.15.35.35,0,0,0,.43-.31.34.34,0,0,0-.29-.41A3.51,3.51,0,0,0,394.88,345.6Z" transform="translate(-267.52 -145.89)"/><path class="cls-1" d="M396.5,347.05l-1,.15a.35.35,0,0,0-.32.41.41.41,0,0,0,.43.33l1-.15a.39.39,0,0,0,.32-.42A.4.4,0,0,0,396.5,347.05Z" transform="translate(-267.52 -145.89)"/><path class="cls-1" d="M396.39,349.05l-1.05.08a.37.37,0,0,0-.33.39.38.38,0,0,0,.39.36l1-.07a.38.38,0,0,0-.05-.76Z" transform="translate(-267.52 -145.89)"/><path class="cls-1" d="M375.37,334.53l-.06.05-.05.07a2.89,2.89,0,0,0-.17,2.17,3.29,3.29,0,0,0,2.17,1.82,5.76,5.76,0,0,1,2,2.71c.13.21,2.55,3.88,8.49,4.09,0,0,2.12.26,2.81,1.38a1.53,1.53,0,0,1,.1,1.45,3.93,3.93,0,0,1-3,3.22h0l0,0a13.44,13.44,0,0,0-6.14,5.55c0,.09-3.16,6.68-7.37,8.06a3,3,0,0,0-1.87,1.5,2.2,2.2,0,0,0,.28,2,2.7,2.7,0,0,0,1.7,1.07,3.94,3.94,0,0,0,3-.83l.73-.39h0c.15-.07,4-2.21,6.79-8.19,0-.07,1.17-3.05,6.13-5.42,0,0,5.77-2,4.92-8.28-.07-.21-1.26-4.1-6.72-4.55,0,0-5.2-.7-6.1-4.07v-.06l0,0c-.07-.16-2-3.51-4.58-4.08A3.63,3.63,0,0,0,375.37,334.53Zm2.78,0c2.29.51,4.08,3.66,4.1,3.71l-.05-.09c1,3.86,6.52,4.6,6.76,4.63,4.93.39,6,3.81,6.06,4a6.8,6.8,0,0,1-4.46,7.43c-5.31,2.54-6.5,5.71-6.54,5.83-2.66,5.72-6.43,7.81-6.46,7.83l-.77.41c-2.51,1.71-3.7.05-3.74,0a1.54,1.54,0,0,1-.22-1.32c.31-.75,1.4-1.07,1.42-1.09,4.52-1.49,7.7-8.14,7.83-8.42a12.94,12.94,0,0,1,5.75-5.22l-.08,0c3.06-.52,3.62-3.74,3.62-3.77a2.34,2.34,0,0,0,.16-.86,2.12,2.12,0,0,0-.34-1.16c-.9-1.43-3.28-1.72-3.39-1.73-5.55-.2-7.87-3.67-7.89-3.7-1.14-2.48-2.32-3-2.38-3.05a2.61,2.61,0,0,1-1.74-1.39,1.64,1.64,0,0,1-.12-.6,1.69,1.69,0,0,1,.21-.85A2.74,2.74,0,0,1,378.15,334.56Z" transform="translate(-267.52 -145.89)"/><path class="cls-1" d="M375.54,334.45a.28.28,0,0,0-.05.17.35.35,0,0,0,.2.33s3.71,2.06,5.23,5.3c.12.18,2.13,3.3,7.65,3.8.21,0,4.55.2,4.55,4.19v.08A5.72,5.72,0,0,1,389,353c-.24.09-5.45,2.3-7,6.72-.08.13-4.9,7.78-8.78,8.91a.35.35,0,0,0-.27.34c0,.05,0,.08,0,.1a.37.37,0,0,0,.47.26c4.16-1.2,9-8.88,9.21-9.22v-.08c1.39-4.14,6.53-6.32,6.57-6.33a6.6,6.6,0,0,0,4.58-5.38c.09-4.83-5.2-5-5.25-5-5.11-.45-7-3.37-7-3.41a14.44,14.44,0,0,0-5.54-5.6A.37.37,0,0,0,375.54,334.45Z" transform="translate(-267.52 -145.89)"/><path class="cls-1" d="M382.18,343.13a.36.36,0,0,0-.23.47c.95,2.79,1,4.88.22,6.06a2.37,2.37,0,0,1-1.76,1c-1.64.11-2-1.93-2-2a1.75,1.75,0,0,1,.11-.53.8.8,0,0,1,.33.31,1.88,1.88,0,0,0,1,.69,1.71,1.71,0,0,0,1.7-.43,3,3,0,0,0,.31-2.43,3,3,0,0,0-1.65-1.93,4.53,4.53,0,0,0-3.29.23c-4.12,3-1.43,7.07-1.4,7.13,2.48,4.29,7.8,2,7.87,1.92,4.29-2,3.21-8.37,3.16-8.62a.36.36,0,1,0-.71.11c0,.07,1,6.12-2.78,7.83-.18.09-4.76,2.1-6.92-1.63a5.15,5.15,0,0,1-.79-2.65,4.2,4.2,0,0,1,1.93-3.46A3.84,3.84,0,0,1,380,345a2.42,2.42,0,0,1,1.07,3.2,1,1,0,0,1-1,.21,1.42,1.42,0,0,1-.57-.39c-.15-.2-.6-.81-1.15-.68s-.62.83-.66,1.34c.16,1.05.9,2.87,2.75,2.74a3,3,0,0,0,2.3-1.3c1-1.4.95-3.65-.1-6.73A.37.37,0,0,0,382.18,343.13Z" transform="translate(-267.52 -145.89)"/><path class="cls-1" d="M384.27,344.09a.37.37,0,0,0-.26.47c0,.05,1.52,5.71-2.21,7.3a3.8,3.8,0,0,1-4.5-1.77h0a5.43,5.43,0,0,1-.2-1.36,2.21,2.21,0,0,1,.38-1.36,2,2,0,0,1,1.76-.6c.07,0,1.73.08,1.8,1.42a.37.37,0,0,0,.36.37.36.36,0,0,0,.36-.39,2.41,2.41,0,0,0-2.49-2.16,2.7,2.7,0,0,0-2.39.94c-1,1.26-.28,3.35-.27,3.43a4.64,4.64,0,0,0,5.45,2.18c4.36-1.86,2.69-8.15,2.66-8.21A.37.37,0,0,0,384.27,344.09Z" transform="translate(-267.52 -145.89)"/><path class="cls-1" d="M387.05,356.53a.41.41,0,0,0-.28.46.37.37,0,0,0,.44.27c.16,0,3.9-.84,4.83,2.91,0,0,.56,3.16-.56,4.54A1.93,1.93,0,0,1,389,365c-.28-.32-.29-1,0-1.81a2.7,2.7,0,0,0-1-3.4s-1.62-1.19-3.91.94a.39.39,0,0,0,0,.52.4.4,0,0,0,.53,0c1.8-1.69,2.93-.9,3-.87a2,2,0,0,1,.7,2.53,2.61,2.61,0,0,0,.17,2.55,2.3,2.3,0,0,0,1.91.59,2.41,2.41,0,0,0,1.74-.88c1.3-1.64.73-5,.7-5.15C391.64,355.55,387.1,356.53,387.05,356.53Z" transform="translate(-267.52 -145.89)"/><path class="cls-1" d="M385.4,358a.38.38,0,0,0-.29.43.35.35,0,0,0,.44.29s3.15-.61,4.1,1.08a3.92,3.92,0,0,1-.82,5.06.35.35,0,0,0,0,.51.37.37,0,0,0,.52.06,4.69,4.69,0,0,0,1-6C389.08,357.26,385.55,358,385.4,358Z" transform="translate(-267.52 -145.89)"/><path class="cls-1" d="M400,346a.23.23,0,0,0,0,.12.37.37,0,0,0,.26.35s2.92.95,3.7,3.35a4.32,4.32,0,0,1,.2,1.26,8.19,8.19,0,0,1-1.92,4.67c-.46.37-3.13,2.49-3.13,4.43a1.64,1.64,0,0,0,0,.38q.28,1.4,2.52,1.95c.19.11.87.56.94,1v.07a1,1,0,0,1-.48.75s-2.9,1.46-5-.48a5.41,5.41,0,0,1-1.22-3.7,6.74,6.74,0,0,1,2.73-4.59s2.18-1.51,2.42-3.59a3.63,3.63,0,0,0-1.07-2.9.38.38,0,1,0-.56.5,2.93,2.93,0,0,1,.88,2.32A5.23,5.23,0,0,1,398.2,355a7.49,7.49,0,0,0-3,5.15,6.12,6.12,0,0,0,1.43,4.26c2.47,2.33,5.76.64,5.9.56a1.67,1.67,0,0,0,.81-1.5c-.11-1-1.3-1.58-1.44-1.64-1.25-.34-1.91-.8-2-1.4-.29-1.38,2-3.44,2.87-4.13l0,0,0-.06c1.85-2.48,2.47-4.72,1.85-6.64-.89-2.75-4-3.77-4.18-3.82A.38.38,0,0,0,400,346Z" transform="translate(-267.52 -145.89)"/><path class="cls-1" d="M399.59,347.65a.36.36,0,0,0,.22.47,4.44,4.44,0,0,1,2.55,2.23,3.56,3.56,0,0,1-.59,3,11.78,11.78,0,0,1-2.29,2.54c-.12.13-3,2.88-2.37,5.67.34,1.55,1.66,2.77,3.94,3.6a.38.38,0,0,0,.49-.22.39.39,0,0,0-.23-.48c-2-.74-3.2-1.76-3.47-3.06-.5-2.36,2.12-4.94,2.14-5a12.14,12.14,0,0,0,2.42-2.69,4.14,4.14,0,0,0,.64-3.69,5.08,5.08,0,0,0-3-2.67A.37.37,0,0,0,399.59,347.65Z" transform="translate(-267.52 -145.89)"/><path class="cls-1" d="M415.23,348.21c-3.41,2.32-10.6,3.12-10.68,3.14a.37.37,0,0,0-.33.4.39.39,0,0,0,.41.34c.31,0,7.45-.83,11-3.27a.4.4,0,0,0,.08-.53A.37.37,0,0,0,415.23,348.21Z" transform="translate(-267.52 -145.89)"/><path class="cls-1" d="M418.59,347.72c-.08.06-6.21,5.61-14.42,5.15a.37.37,0,0,0,0,.73c8.51.46,14.88-5.28,14.94-5.33a.38.38,0,0,0,0-.53A.36.36,0,0,0,418.59,347.72Z" transform="translate(-267.52 -145.89)"/><path class="cls-1" d="M421,348.45c-.07.05-5.84,6-17.9,6.35a.38.38,0,0,0,0,.75c12.39-.4,18.18-6.34,18.43-6.59a.37.37,0,0,0,0-.51A.34.34,0,0,0,421,348.45Z" transform="translate(-267.52 -145.89)"/><path class="cls-1" d="M413.86,344.12c-.19.15-3.65,2.67-2.53,5.93a.36.36,0,0,0,.46.22.35.35,0,0,0,.24-.46c-.93-2.74,2.18-5,2.22-5.05,5.08-2.46,13,3.41,13.05,3.46a.37.37,0,1,0,.44-.6C427.4,347.37,419.41,341.44,413.86,344.12Z" transform="translate(-267.52 -145.89)"/><path class="cls-1" d="M416.56,345.27c-3.19.37-3.45,3.77-3.45,3.8a.36.36,0,0,0,.33.4.37.37,0,0,0,.41-.34c0-.11.23-2.84,2.79-3.12,0,0,4.88-.27,10.17,4.07a.4.4,0,0,0,.52-.05.38.38,0,0,0-.05-.52C421.76,345,416.78,345.25,416.56,345.27Z" transform="translate(-267.52 -145.89)"/><path class="cls-1" d="M414.91,348.31a.4.4,0,0,0-.08.52.39.39,0,0,0,.53.09c3.74-2.78,10.2,2.41,10.27,2.47a.36.36,0,0,0,.51-.06.34.34,0,0,0,0-.51C425.8,350.58,419.11,345.2,414.91,348.31Z" transform="translate(-267.52 -145.89)"/><path class="cls-1" d="M424.39,346a.34.34,0,0,0,.34.39c2,.13,2.21,1.22,2.21,1.26v.06l0,.05a1.83,1.83,0,0,1,0,1.52c-.81,1.88-4.2,3.16-4.22,3.19a21.25,21.25,0,0,0-3.86,1.72.38.38,0,0,0-.13.51.36.36,0,0,0,.5.13,22.45,22.45,0,0,1,3.72-1.67c.18-.07,3.74-1.42,4.66-3.59a2.54,2.54,0,0,0,0-2.09l0,.1c0-.07-.19-1.79-2.9-1.92A.35.35,0,0,0,424.39,346Z" transform="translate(-267.52 -145.89)"/><path class="cls-1" d="M423.56,345a.35.35,0,0,0-.28.44.39.39,0,0,0,.47.26,4.78,4.78,0,0,1,3.37.31,3,3,0,0,1,1.12,3.92l0,0,0,0c-.57,2.23-5.45,4.13-7.28,4.66a.37.37,0,0,0,.21.71c.29-.08,7-2.1,7.79-5.17l0,.08a3.82,3.82,0,0,0-1.34-4.9A5.44,5.44,0,0,0,423.56,345Z" transform="translate(-267.52 -145.89)"/><path class="cls-1" d="M429.91,346.6a.36.36,0,0,0-.25.45,5.3,5.3,0,0,1-.41,4.27c-1.69,2.88-6,3.91-6,3.91a.37.37,0,0,0-.29.44.37.37,0,0,0,.44.29c.19,0,4.65-1.09,6.51-4.26a5.92,5.92,0,0,0,.47-4.85A.35.35,0,0,0,429.91,346.6Z" transform="translate(-267.52 -145.89)"/><path class="cls-1" d="M421.81,344.12a.39.39,0,0,0-.15.52.36.36,0,0,0,.49.15,6.11,6.11,0,0,1,5.25.06.38.38,0,0,0,.51-.14.36.36,0,0,0-.14-.5A6.87,6.87,0,0,0,421.81,344.12Z" transform="translate(-267.52 -145.89)"/><path class="cls-1" d="M415.64,352.45a.36.36,0,0,0-.13.49c.05.11,1.41,2.34,6.78,2.83,0,0,6.43,2.11,7,6.45a1.41,1.41,0,0,1-1.11,1.65c-.19.09-1.39.52-2.12-1.22a7.46,7.46,0,0,0-5.69-4.65c-.08,0-6.89-.9-7.73-4.22a.35.35,0,0,0-.45-.26.38.38,0,0,0-.27.44c1,3.79,8.05,4.74,8.34,4.78a6.6,6.6,0,0,1,5.11,4.18c1,2.48,3,1.68,3,1.66a2.11,2.11,0,0,0,1.61-2.47c-.64-4.8-7.3-7-7.59-7.05-5-.49-6.28-2.46-6.29-2.48A.36.36,0,0,0,415.64,352.45Z" transform="translate(-267.52 -145.89)"/><path class="cls-1" d="M413.94,353.05a.36.36,0,0,0-.17.49c.07.14,1.54,3.11,6.6,3.4,0,0,7.22,1.46,7.54,7.33a.37.37,0,0,0,.74,0c-.36-6.45-8.11-8-8.18-8-4.66-.26-6-2.85-6-3A.39.39,0,0,0,413.94,353.05Z" transform="translate(-267.52 -145.89)"/><path class="cls-1" d="M415,356.74c-.16.08-3.52,2-3.94,4.41a3.12,3.12,0,0,0,.86,2.65l0,0h0a2.86,2.86,0,0,0,2.2.37,3,3,0,0,0,1.75-2s1.72-3,3.4-3.72a.4.4,0,0,0,.18-.51.36.36,0,0,0-.49-.17c-1.88.86-3.67,4-3.76,4.09-.35.89-.77,1.4-1.32,1.57a2,2,0,0,1-1.5-.21,2.45,2.45,0,0,1-.69-1.63,2.21,2.21,0,0,1,0-.37c.35-2.1,3.53-3.88,3.56-3.91a.34.34,0,0,0,.18-.31.58.58,0,0,0,0-.19A.35.35,0,0,0,415,356.74Z" transform="translate(-267.52 -145.89)"/><path class="cls-1" d="M416.64,357.44a13.32,13.32,0,0,0-4.49,6.21.36.36,0,0,0,.24.46.37.37,0,0,0,.48-.24,12.92,12.92,0,0,1,4.18-5.82.37.37,0,1,0-.41-.61Z" transform="translate(-267.52 -145.89)"/><path class="cls-1" d="M376.92,245a1.3,1.3,0,0,0,.55,1.75c.41.22,42.23,21.75,86.41.2a1.29,1.29,0,0,0,.6-1.73,1.32,1.32,0,0,0-1.74-.59c-43,20.94-83.67.06-84.07-.16A1.3,1.3,0,0,0,376.92,245Z" transform="translate(-267.52 -145.89)"/><path class="cls-1" d="M376.57,244.45l-.66.31L366,381.23l2.06-1.06c27.79-14.37,54.78-13.83,72.52-10.81,19.27,3.24,32.15,10,32.26,10.05l2.08,1.12-9.49-135-.59-.35C424,221.8,377,244.2,376.57,244.45ZM463,247.16c.11,1.42,8.77,124.65,9.06,129a124.52,124.52,0,0,0-30.88-9.29c-17.73-3-44.47-3.57-72.2,10.07.3-4.27,9.31-128.94,9.43-130.42C384,244,426,226.39,463,247.16Z" transform="translate(-267.52 -145.89)"/><path class="cls-1" d="M421,202.16c-16.74-.22-17.81,28.52-17.87,29.74,0,5-2.74,12.42-2.75,12.48a1.28,1.28,0,0,0,.75,1.67,1.31,1.31,0,0,0,1.68-.76c.12-.33,2.92-7.93,2.92-13.35,0-.22,1-27.46,15.31-27.19h.14l.15,0a8.06,8.06,0,0,1,6,2c3.3,2.63,7.4,9.05,8.18,24.71,0,1.06.25,10.91,3.49,14.3a1.27,1.27,0,0,0,1.83.06,1.28,1.28,0,0,0,.06-1.82c-2.17-2.29-2.76-9.88-2.8-12.62-.66-13.48-3.76-22.46-9.26-26.75A10.55,10.55,0,0,0,421,202.16Z" transform="translate(-267.52 -145.89)"/><path class="cls-1" d="M417.39,211.54c-5.89,6-5.18,31.38-5.08,34.24a1.3,1.3,0,1,0,2.59-.09c-.26-7.5,0-27.92,4.35-32.33a1.82,1.82,0,0,1,1.37-.67,3.54,3.54,0,0,1,2.15,1.45c2.06,2.47,5.18,9.76,2.74,31a1.29,1.29,0,0,0,1.14,1.43,1.27,1.27,0,0,0,1.44-1.13c2.46-21.49-.58-29.93-3.57-33.23a5.46,5.46,0,0,0-3.88-2.08A4.42,4.42,0,0,0,417.39,211.54Z" transform="translate(-267.52 -145.89)"/><path class="cls-1" d="M340.45,283.31l-2.93-.64s-.57-2.15.72-2.57c0,0,6.41.56,8.48,3.21a5.5,5.5,0,0,1,.51,2.48l.13,21.66s0,9.84-1.93,10.05c0,0-1.77.43-1.43-6.13l.94-26.07s.42-1.57-2.2-1.85L341.45,312s-.51,4.5-2.42,4.42c0,0-1.43-.07-.92-4.64Z" transform="translate(-267.52 -145.89)"/><path class="cls-1" d="M353.35,283.73A2.1,2.1,0,0,0,351,286l.92,27.55s.08,3.63-1.64,3.86c0,0-1.77.35-1.49-4l-.06-27.87a3.43,3.43,0,0,1,2.42-3.62s6.26-3.29,7.33-.71c0,0,.22,1.84-2.76,2.07l2.11,30.05s.36,3-1.4,3.23c0,0-1.44.49-1.94-4Z" transform="translate(-267.52 -145.89)"/><path class="cls-1" d="M490.06,282.45s2.4-.37,2.76-2.17c0,0,1.72-2.75,3.22,0,0,0-.51,1.72,3,2.31,0,0,6.88,1.21,6.81,2.86,0,0,.31,1.95-4.11,1,0,0-5.69-1.35-7.34-2.68l-.59.07a23.69,23.69,0,0,1-7,2.55s-3.6,1-4.26-.75c0,0-.22-1.35,2.69-2l3.52-.74Z" transform="translate(-267.52 -145.89)"/><path class="cls-1" d="M498.71,288.51h-9.16a4.22,4.22,0,0,0-4.21,4.24v.2a4.22,4.22,0,0,0,4.21,4.24h9.16a4.22,4.22,0,0,0,4.21-4.24v-.2A4.22,4.22,0,0,0,498.71,288.51Zm-.9,6.53h-7.49a1.91,1.91,0,1,1,0-3.82h7.49a1.91,1.91,0,1,1,0,3.82Z" transform="translate(-267.52 -145.89)"/><path class="cls-1" d="M492.46,296.52l.13,19.24s-.13,2.15,1.51,2.15c0,0,1,.52,1.27-2.45l.38-19.09Z" transform="translate(-267.52 -145.89)"/><path class="cls-1" d="M487.73,316.42s-.08,2.25-1.35,2c0,0-1.33.21-1-3.22,0,0,1-18,9.13-16.86,0,0,7.49-1.25,8.68,17.46,0,0,.22,1.71-1.06,1.92,0,0-1.55.31-1.87-2.39,0,0-1.11-15.1-6.06-15.24,0,0-4.09-2-6.27,15.47Z" transform="translate(-267.52 -145.89)"/></svg>