<?xml version="1.0" encoding="utf-8"?>
<!-- Generator: Adobe Illustrator 24.2.1, SVG Export Plug-In . SVG Version: 6.00 Build 0)  -->
<svg version="1.1" id="Layer_1" xmlns="http://www.w3.org/2000/svg" xmlns:xlink="http://www.w3.org/1999/xlink" x="0px" y="0px"
	 viewBox="0 0 351.04 71.41" style="enable-background:new 0 0 351.04 71.41;" xml:space="preserve">
<style type="text/css">
	.st0{fill-rule:evenodd;clip-rule:evenodd;fill:#010101;}
	.st1{fill-rule:evenodd;clip-rule:evenodd;fill:#FFFFFF;}
</style>
<g>
	<path class="st0" d="M49.22,33.44H35.37v-0.95c3.64,0,4.39-1.59,4.39-3.04V2.54h-3.59c-3.69,0-5.98-1.08-7.07,5.3h-0.91l0.02-7.4
		H56.4l0.02,7.4H55.5c-1.1-6.38-3.39-5.3-7.08-5.3h-3.59v26.91c0,1.45,0.75,3.04,4.39,3.04V33.44z M75.58,19.81v-8.47
		c0-1.1-0.57-2.31-3.34-2.31V8.3h10.56v0.72c-2.77,0-3.34,1.21-3.34,2.31V30.4c0,1.1,0.57,2.32,3.34,2.32v0.72H72.24v-0.72
		c2.77,0,3.34-1.21,3.34-2.32v-9.04h-11.5v9.04c0,1.1,0.57,2.32,3.34,2.32v0.72H56.86v-0.72c2.77,0,3.34-1.21,3.34-2.32V11.34
		c0-1.1-0.57-2.31-3.34-2.31V8.3h10.56v0.72c-2.77,0-3.34,1.21-3.34,2.31v8.47H75.58L75.58,19.81z M83.97,33.44v-0.72
		c2.77,0,3.34-1.21,3.34-2.32V11.34c0-1.1-0.57-2.31-3.34-2.31V8.3h20.16v5.43h-0.83c-0.42-2.05-1.67-3.87-4.33-3.87h-6.11
		c-0.95,0-1.67,0.53-1.67,1.48v8.16h2.66c2.54,0,4.71-0.68,4.71-3.65h0.53v8.89h-0.53c0-2.96-2.16-3.69-4.71-3.69h-2.66v9.34
		c0,0.69,0.23,1.48,0.99,1.48h5.01c3.04,0,4.58-0.04,6.59-4.86h1.06l-0.36,6.42L83.97,33.44L83.97,33.44z M167.34,19.81v-8.47
		c0-1.1-0.57-2.31-3.34-2.31V8.3h10.56v0.72c-2.77,0-3.34,1.21-3.34,2.31V30.4c0,1.1,0.57,2.32,3.34,2.32v0.72h-10.56v-0.72
		c2.77,0,3.34-1.21,3.34-2.32v-9.04h-11.51v9.04c0,1.1,0.57,2.32,3.34,2.32v0.72h-10.56v-0.72c2.77,0,3.34-1.21,3.34-2.32V11.34
		c0-1.1-0.57-2.31-3.34-2.31V8.3h10.56v0.72c-2.77,0-3.34,1.21-3.34,2.31v8.47H167.34L167.34,19.81z M178.95,11.34
		c0-1.1-0.57-2.31-3.23-2.31V8.3h10.02c6.3,0,10.1,2.2,10.1,6.65c0,4.02-3.3,5.88-6.87,6.38l7.52,9.27c1.02,1.25,1.9,2.01,3.61,2.13
		v0.72h-6.11l-9.03-11.7l-2.13,0.08v8.58c0,1.1,0.57,2.32,3.34,2.32v0.72h-10.44v-0.72c2.66,0,3.23-1.21,3.23-2.32L178.95,11.34
		L178.95,11.34L178.95,11.34z M208.28,30.4c0,1.1,0.57,2.32,3.72,2.32v0.72h-11.31v-0.72c3.15,0,3.72-1.21,3.72-2.32V11.34
		c0-1.1-0.57-2.31-3.72-2.31V8.3H212v0.72c-3.15,0-3.72,1.21-3.72,2.31V30.4z M212.81,25.81h0.87c1.18,3.53,3.83,6.72,7.86,6.72
		c3.07,0,5.17-2.66,4.29-5.62c-1.56-5.32-11.92-5.54-11.92-12.8c0-3.76,3-6.34,6.72-6.34c4.03,0,5.85,2.81,6.76,0h0.79l0.83,8.09
		h-0.95c-0.87-3.53-3.38-6.53-6.91-6.53c-2.28,0-3.99,1.25-3.99,3.65c0,2.2,2.39,3.76,4.02,4.75c5.17,3.11,8.66,4.75,8.66,9.3
		c0,3.42-2.85,6.95-8.01,6.95c-3.95,0-6.68-2.77-7.06,0h-0.83L212.81,25.81L212.81,25.81z M247.52,33.44h-10.56v-0.72
		c2.77,0,3.34-1.21,3.34-2.32V9.9h-2.73c-2.81,0-4.56,0-5.39,4.86h-0.91l0.23-6.46h21.49l0.23,6.46h-0.91
		c-0.83-4.86-2.58-4.86-5.39-4.86h-2.73V30.4c0,1.1,0.57,2.32,3.34,2.32L247.52,33.44L247.52,33.44L247.52,33.44z M262.13,30.4
		c0,1.1,0.57,2.32,3.72,2.32v0.72h-11.32v-0.72c3.15,0,3.72-1.21,3.72-2.32V11.34c0-1.1-0.57-2.31-3.72-2.31V8.3h11.32v0.72
		c-3.15,0-3.72,1.21-3.72,2.31V30.4z M289.69,29c0.68,1.56,1.48,3.83,3.61,3.72v0.72h-9.68v-0.72c3.23-0.15,3.19-0.87,1.74-4.25
		L284,25.24h-9.95c-0.49,1.44-2.05,4.48-2.05,5.88c0,1.25,1.29,1.6,2.58,1.6v0.72h-7.52v-0.72c2.35-0.19,3.34-2.96,4.9-6.65
		l7.71-18.3h0.76L289.69,29z M317.14,33.97h-0.57l-16.86-20.92V30.4c0,1.1,0.57,2.32,3.68,2.32v0.72h-9.04v-0.72
		c3.12,0,3.69-1.21,3.69-2.32V11.11l-0.3-0.38c-1.18-1.33-1.52-1.67-3.38-1.71V8.3h6.5l14.62,18.27V11.34c0-1.1-0.57-2.31-3.69-2.31
		V8.3h9.04v0.72c-3.11,0-3.68,1.21-3.68,2.31L317.14,33.97L317.14,33.97L317.14,33.97z M0,61.36h1.15
		c1.54,4.63,5.03,8.82,10.32,8.82c4.04,0,6.78-3.49,5.63-7.38c-2.04-6.97-15.65-7.28-15.65-16.79c0-4.94,3.94-8.32,8.82-8.32
		c5.28,0,7.68,3.69,8.87,0h1.05l1.09,10.61h-1.24c-1.15-4.63-4.44-8.57-9.07-8.57c-2.99,0-5.23,1.65-5.23,4.79
		c0,2.89,3.14,4.93,5.28,6.23c6.78,4.08,11.36,6.23,11.36,12.21c0,4.49-3.74,9.12-10.51,9.12c-5.19,0-8.77-3.64-9.27,0H1.5L0,61.36
		L0,61.36z M28.82,58.77c0-6.84,2.7-11.47,8.96-11.47c4.33,0,7.1,2.85,8.2,7.03h0.91l-0.34-8.54h-0.8
		c-1.25,3.07-3.15-0.04-8.35-0.04c-7.63,0-12.99,5.47-12.99,13.03S29.77,71.8,37.4,71.8c5.2,0,7.1-3.12,8.35-0.04h0.8l0.34-8.54
		h-0.91c-1.1,4.18-3.87,7.03-8.2,7.03C31.51,70.24,28.82,65.6,28.82,58.77L28.82,58.77z M56.76,68.37c0,1.1,0.57,2.32,3.72,2.32
		v0.72H49.17v-0.72c3.15,0,3.72-1.22,3.72-2.32V49.31c0-1.1-0.57-2.32-3.72-2.32v-0.72h11.32v0.72c-3.15,0-3.72,1.22-3.72,2.32
		V68.37z M106.98,71.94h-0.57L89.56,51.02v17.35c0,1.1,0.57,2.32,3.68,2.32v0.72H84.2v-0.72c3.11,0,3.68-1.22,3.68-2.32V49.09
		l-0.3-0.38c-1.18-1.33-1.52-1.67-3.38-1.71v-0.72h6.49l14.62,18.27V49.32c0-1.1-0.57-2.32-3.68-2.32v-0.72h9.04V47
		c-3.12,0-3.69,1.22-3.69,2.32L106.98,71.94L106.98,71.94z M208.72,67.43c0,1.44,0.75,3.04,4.38,3.04v0.95h-13.85v-0.95
		c3.64,0,4.38-1.6,4.38-3.04V43.06l-12.76,28.36h-0.7L177.67,44.2v23.22c0,1.44,0.75,3.04,4.83,3.04v0.95h-11.86v-0.95
		c4.09,0,4.83-1.6,4.83-3.04V42.41c0-1.45-0.75-3.04-4.73-3.04v-0.95h9.87l11.51,25.17l11.01-25.17h9.92v0.95
		c-3.64,0-4.38,1.59-4.38,3.04L208.72,67.43L208.72,67.43z M238.06,58.84c0,7.33-4.82,13.1-12.41,13.1
		c-6.68,0-12.46-5.05-12.46-13.1c0-7.56,5.05-13.25,12.46-13.1C232.21,45.44,238.06,50.76,238.06,58.84z M261.04,71.94h-0.57
		l-16.86-20.92v17.35c0,1.1,0.57,2.32,3.69,2.32v0.72h-9.04v-0.72c3.11,0,3.68-1.22,3.68-2.32V49.09l-0.3-0.38
		c-1.17-1.33-1.52-1.67-3.38-1.71v-0.72h6.5l14.62,18.27V49.32c0-1.1-0.57-2.32-3.68-2.32v-0.72h9.03V47
		c-3.11,0-3.68,1.22-3.68,2.32L261.04,71.94L261.04,71.94L261.04,71.94z M273.5,68.37c0,1.1,0.57,2.32,3.72,2.32v0.72H265.9v-0.72
		c3.15,0,3.72-1.22,3.72-2.32V49.31c0-1.1-0.57-2.32-3.72-2.32v-0.72h11.32v0.72c-3.15,0-3.72,1.22-3.72,2.32V68.37z M294.71,71.41
		h-10.56v-0.72c2.77,0,3.34-1.22,3.34-2.32V47.87h-2.73c-2.81,0-4.55,0-5.39,4.86h-0.91l0.23-6.46h21.49l0.23,6.46h-0.91
		c-0.83-4.86-2.58-4.86-5.39-4.86h-2.73v20.51c0,1.1,0.57,2.32,3.34,2.32L294.71,71.41L294.71,71.41L294.71,71.41z M326.69,58.84
		c0,7.33-4.82,13.1-12.41,13.1c-6.69,0-12.46-5.05-12.46-13.1c0-7.56,5.05-13.25,12.46-13.1C320.85,45.44,326.69,50.76,326.69,58.84
		z"/>
	<path class="st0" d="M329.89,49.31c0-1.1-0.57-2.32-3.23-2.32v-0.72h10.03c6.3,0,10.1,2.21,10.1,6.65c0,4.03-3.3,5.88-6.87,6.38
		l7.52,9.27c1.03,1.25,1.9,2.01,3.61,2.13v0.72h-6.11l-9.04-11.69l-2.13,0.08v8.58c0,1.1,0.57,2.32,3.34,2.32v0.72h-10.44v-0.72
		c2.66,0,3.23-1.22,3.23-2.32L329.89,49.31L329.89,49.31L329.89,49.31z M61.66,71.41v-0.72c2.77,0,3.34-1.22,3.34-2.32V49.31
		c0-1.1-0.57-2.32-3.34-2.32v-0.72h20.16v5.43h-0.84c-0.42-2.05-1.67-3.87-4.33-3.87h-6.12c-0.95,0-1.67,0.54-1.67,1.48v8.17h2.66
		c2.54,0,4.71-0.68,4.71-3.65h0.53v8.89h-0.53c0-2.96-2.16-3.68-4.71-3.68h-2.66v9.34c0,0.69,0.23,1.48,0.99,1.48h5.01
		c3.04,0,4.58-0.04,6.59-4.86h1.06l-0.36,6.42L61.66,71.41L61.66,71.41L61.66,71.41z M134.96,71.41v-0.72
		c2.77,0,3.34-1.22,3.34-2.32V49.31c0-1.1-0.57-2.32-3.34-2.32v-0.72h20.16v5.43h-0.83c-0.42-2.05-1.67-3.87-4.33-3.87h-6.11
		c-0.95,0-1.67,0.54-1.67,1.48v8.17h2.66c2.54,0,4.71-0.68,4.71-3.65h0.53v8.89h-0.53c0-2.96-2.17-3.68-4.71-3.68h-2.66v9.34
		c0,0.69,0.23,1.48,0.99,1.48h5.01c3.04,0,4.58-0.04,6.59-4.86h1.06l-0.36,6.42L134.96,71.41L134.96,71.41L134.96,71.41z"/>
	<path class="st1" d="M182.82,20.42c5.51-0.19,8.89-1.33,8.89-5.43c0-3.76-2.66-5.24-6.07-5.24c-2.47,0-2.81,0-2.81,1.79V20.42
		L182.82,20.42z M275.29,23.68h8.77l-4.4-10.44L275.29,23.68z M217.52,58.84c0,7.82,3.64,12.07,8.13,11.73
		c6.76-0.53,8.31-7.67,8.13-11.73c0-5.96-2.24-11.81-8.13-11.73C219.98,47.49,217.52,51.59,217.52,58.84z M306.15,58.84
		c0,7.82,3.64,12.07,8.13,11.73c6.76-0.53,8.31-7.67,8.13-11.73c0-5.96-2.24-11.81-8.13-11.73
		C308.63,47.49,306.15,51.59,306.15,58.84z M333.76,58.39c5.51-0.19,8.89-1.33,8.89-5.43c0-3.76-2.66-5.24-6.08-5.24
		c-2.46,0-2.81,0-2.81,1.79V58.39L333.76,58.39z"/>
	<path class="st0" d="M114.87,58.77c0-6.84,2.7-11.47,8.96-11.47c4.33,0,7.1,2.85,8.2,7.03h0.91l-0.34-8.54h-0.8
		c-1.25,3.07-3.15-0.04-8.36-0.04c-7.63,0-12.99,5.47-12.99,13.03s5.36,13.03,12.99,13.03c5.2,0,7.1-3.12,8.36-0.04h0.8l0.34-8.54
		h-0.91c-1.1,4.18-3.87,7.03-8.2,7.03C117.56,70.24,114.87,65.6,114.87,58.77L114.87,58.77z M123.32,16.83
		c0-8.83,3.48-14.81,11.57-14.81c5.59,0,9.17,3.68,10.59,9.07h1.18l-0.44-11.03h-1.03C143.57,4.02,141.12,0,134.4,0
		c-9.86,0-16.77,7.06-16.77,16.82c0,9.76,6.91,16.82,16.77,16.82c6.72,0,9.17-4.02,10.79-0.05h1.03l0.44-11.04h-1.18
		c-1.42,5.4-5,9.07-10.59,9.07C126.8,31.64,123.32,25.65,123.32,16.83L123.32,16.83z"/>
</g>
</svg>
