<?xml version="1.0" encoding="utf-8"?>
<!-- Generator: Adobe Illustrator 25.2.0, SVG Export Plug-In . SVG Version: 6.00 Build 0)  -->
<svg version="1.1" id="Layer_1" xmlns="http://www.w3.org/2000/svg" xmlns:xlink="http://www.w3.org/1999/xlink" x="0px" y="0px"
	 viewBox="0 0 211.1378 86.33602" style="enable-background:new 0 0 211.1378 86.33602;" xml:space="preserve">
<style type="text/css">
	.st0{clip-path:url(#SVGID_2_);fill:none;stroke:#000000;stroke-width:0.5;stroke-miterlimit:3.864;}
	.st1{fill:none;stroke:#000000;stroke-width:0.5;stroke-miterlimit:3.864;}
	.st2{fill:none;stroke:#005B7F;stroke-miterlimit:3.864;}
	.st3{fill:none;stroke:#000000;stroke-width:0.25;stroke-miterlimit:3.864;}
	.st4{fill:none;stroke:#005B7F;stroke-width:0.5;stroke-miterlimit:3.864;}
	.st5{clip-path:url(#SVGID_4_);fill:#005B7F;}
	.st6{clip-path:url(#SVGID_4_);fill:none;stroke:#005B7F;stroke-width:0.5;stroke-miterlimit:3.864;}
	.st7{clip-path:url(#SVGID_4_);fill:none;stroke:#000000;stroke-width:0.25;stroke-miterlimit:3.864;}
	.st8{opacity:0;fill:none;stroke:#000000;stroke-width:1.000000e-06;stroke-miterlimit:10;}
	.st9{opacity:0;clip-path:url(#SVGID_12_);fill:none;stroke:#000000;stroke-width:9.999999e-07;stroke-miterlimit:10;}
	.st10{clip-path:url(#SVGID_12_);}
	.st11{opacity:0;clip-path:url(#SVGID_14_);fill:none;stroke:#000000;stroke-width:9.999999e-07;stroke-miterlimit:10;}
	.st12{clip-path:url(#SVGID_14_);}
	.st13{opacity:0;clip-path:url(#SVGID_16_);fill:none;stroke:#000000;stroke-width:9.999999e-07;stroke-miterlimit:10;}
	.st14{clip-path:url(#SVGID_16_);}
	.st15{opacity:0;clip-path:url(#SVGID_18_);fill:none;stroke:#000000;stroke-width:9.999999e-07;stroke-miterlimit:10;}
	.st16{clip-path:url(#SVGID_18_);}
	.st17{opacity:0;clip-path:url(#SVGID_20_);fill:none;stroke:#000000;stroke-width:9.999999e-07;stroke-miterlimit:10;}
	.st18{clip-path:url(#SVGID_20_);}
	.st19{opacity:0;clip-path:url(#SVGID_22_);fill:none;stroke:#000000;stroke-width:9.999999e-07;stroke-miterlimit:10;}
	.st20{clip-path:url(#SVGID_22_);}
	.st21{opacity:0;clip-path:url(#SVGID_24_);fill:none;stroke:#000000;stroke-width:9.999999e-07;stroke-miterlimit:10;}
	.st22{clip-path:url(#SVGID_24_);}
	.st23{opacity:0;clip-path:url(#SVGID_26_);fill:none;stroke:#000000;stroke-width:9.999999e-07;stroke-miterlimit:10;}
	.st24{clip-path:url(#SVGID_26_);}
</style>
<g>
	<g>
		<g>
			<defs>
				<rect id="SVGID_1_" y="-2.71399" width="208.59802" height="89.05002"/>
			</defs>
			<clipPath id="SVGID_2_">
				<use xlink:href="#SVGID_1_"  style="overflow:visible;"/>
			</clipPath>
			<line class="st0" x1="12.88721" y1="6.79452" x2="12.88721" y2="86.33654"/>
			<line class="st0" x1="0" y1="72.59481" x2="203.616" y2="72.59481"/>
		</g>
		<line class="st1" x1="35.3584" y1="75.59481" x2="35.3584" y2="69.59481"/>
		<line class="st1" x1="72.8511" y1="75.59481" x2="72.8511" y2="69.59481"/>
		<line class="st1" x1="147.92401" y1="75.59481" x2="147.92401" y2="69.59481"/>
		<line class="st2" x1="27.84131" y1="12.71002" x2="156.95929" y2="60.59802"/>
		<line class="st3" x1="59.7749" y1="38.26571" x2="69.6499" y2="31.68273"/>
		<line class="st3" x1="63.7749" y1="9.93273" x2="70.2749" y2="12.93273"/>
		<line class="st4" x1="35.38721" y1="27.59533" x2="35.38721" y2="15.55734"/>
		<g>
			<defs>
				<rect id="SVGID_3_" y="-2.71399" width="208.59802" height="89.05002"/>
			</defs>
			<clipPath id="SVGID_4_">
				<use xlink:href="#SVGID_3_"  style="overflow:visible;"/>
			</clipPath>
			<path class="st5" d="M71.51221,29.47033c0-0.76001,0.616-1.375,1.375-1.375c0.75897,0,1.375,0.61499,1.375,1.375
				c0,0.759-0.61603,1.375-1.375,1.375C72.1282,30.84533,71.51221,30.22933,71.51221,29.47033"/>
			<path class="st5" d="M71.51221,29.47033h0.64999c0.00101-0.39999,0.32498-0.724,0.72501-0.72501
				c0.39999,0.00101,0.724,0.32501,0.72498,0.72501c-0.00098,0.39999-0.32498,0.724-0.72498,0.72501
				c-0.40002-0.00101-0.724-0.32501-0.72501-0.72501H71.51221h-0.65002c0.00101,1.11899,0.90601,2.02399,2.02502,2.02499
				c1.11899-0.00101,2.02399-0.90601,2.02499-2.02499c-0.00101-1.11902-0.90701-2.02499-2.02499-2.02499
				c-1.11801,0-2.02402,0.90598-2.02502,2.02499H71.51221z"/>
			<path class="st5" d="M71.51221,15.09533c0-0.76001,0.616-1.375,1.375-1.375c0.75897,0,1.375,0.61499,1.375,1.375
				c0,0.759-0.61603,1.375-1.375,1.375C72.1282,16.47033,71.51221,15.85433,71.51221,15.09533"/>
			<path class="st5" d="M71.51221,15.09533h0.19998c0.00101-0.64899,0.526-1.17401,1.17502-1.17499
				c0.64899,0.00098,1.17398,0.526,1.17499,1.17499c-0.00101,0.64899-0.526,1.17401-1.17499,1.17499
				c-0.64902-0.00098-1.17401-0.526-1.17502-1.17499H71.51221h-0.20001c0,0.87,0.70502,1.57501,1.57501,1.57501
				s1.57498-0.70502,1.57498-1.57501s-0.70499-1.57501-1.57498-1.57501s-1.57501,0.70502-1.57501,1.57501H71.51221z"/>
			<path class="st5" d="M101.51199,54.96981c0-0.759,0.61502-1.375,1.375-1.375c0.759,0,1.375,0.616,1.375,1.375
				c0,0.76001-0.616,1.375-1.375,1.375C102.12701,56.34481,101.51199,55.72982,101.51199,54.96981"/>
			<path class="st5" d="M101.51199,54.96981h0.20001c0.00101-0.64798,0.526-1.17398,1.17499-1.17499
				c0.64801,0.00101,1.17401,0.52701,1.17502,1.17499c-0.00101,0.64902-0.52701,1.17401-1.17502,1.17502
				c-0.64899-0.00101-1.17398-0.526-1.17499-1.17502H101.51199h-0.19998c0,0.87003,0.70499,1.57501,1.57498,1.57501
				c0.86899,0,1.57501-0.70499,1.57501-1.57501c0-0.86899-0.70602-1.57498-1.57501-1.57498c-0.87,0-1.57498,0.70599-1.57498,1.57498
				H101.51199z"/>
			<path class="st5" d="M124.01199,35.97033c0-0.76001,0.616-1.375,1.375-1.375s1.375,0.61499,1.375,1.375
				c0,0.759-0.616,1.375-1.375,1.375S124.01199,36.72934,124.01199,35.97033"/>
			<path class="st5" d="M124.01199,35.97033h0.20001c0.00101-0.64902,0.52701-1.17401,1.17499-1.17502
				c0.64801,0.00101,1.17401,0.526,1.17502,1.17502c-0.00101,0.64801-0.52701,1.17401-1.17502,1.17499
				c-0.64798-0.00098-1.17398-0.52698-1.17499-1.17499H124.01199h-0.19998c0,0.87,0.70599,1.57498,1.57498,1.57498
				s1.57501-0.70499,1.57501-1.57498c0-0.871-0.70602-1.57501-1.57501-1.57501s-1.57498,0.70401-1.57498,1.57501H124.01199z"/>
			<path class="st5" d="M146.51199,63.46981c0-0.759,0.616-1.375,1.375-1.375s1.375,0.616,1.375,1.375
				c0,0.76001-0.616,1.375-1.375,1.375S146.51199,64.22982,146.51199,63.46981"/>
			<path class="st5" d="M146.51199,63.46981h0.19998c0.00101-0.64798,0.52701-1.17398,1.17502-1.17499
				c0.64798,0.00101,1.17398,0.52701,1.17499,1.17499c-0.00101,0.64901-0.52701,1.17401-1.17499,1.17501
				c-0.64801-0.00101-1.17401-0.526-1.17502-1.17501H146.51199h-0.20001c0,0.87002,0.70602,1.57501,1.57501,1.57501
				s1.57498-0.70499,1.57498-1.57501c0-0.86899-0.70599-1.57498-1.57498-1.57498s-1.57501,0.70599-1.57501,1.57498H146.51199z"/>
			<path class="st5" d="M34.01221,27.59533c0-0.76001,0.616-1.375,1.375-1.375s1.375,0.61499,1.375,1.375
				c0,0.759-0.616,1.375-1.375,1.375S34.01221,28.35433,34.01221,27.59533"/>
			<path class="st5" d="M34.01221,27.59533h0.19998c0.00101-0.64902,0.526-1.17401,1.17502-1.17502
				c0.64899,0.00101,1.17398,0.526,1.17499,1.17502c-0.00101,0.64899-0.526,1.17401-1.17499,1.17499
				c-0.64902-0.00098-1.17401-0.526-1.17502-1.17499H34.01221h-0.20001c0,0.87,0.70502,1.57498,1.57501,1.57498
				s1.57498-0.70499,1.57498-1.57498s-0.70499-1.57501-1.57498-1.57501s-1.57501,0.70502-1.57501,1.57501H34.01221z"/>
			<line class="st6" x1="72.88721" y1="29.47033" x2="72.88721" y2="15.55734"/>
			<line class="st6" x1="102.88699" y1="54.71981" x2="102.88699" y2="40.80783"/>
			<line class="st6" x1="125.38699" y1="48.96981" x2="125.38699" y2="35.96981"/>
			<line class="st6" x1="147.88699" y1="63.71981" x2="147.88699" y2="57.68283"/>
			<line class="st7" x1="133.30402" y1="43.14853" x2="126.45001" y2="43.14853"/>
			<line class="st7" x1="96.53421" y1="47.56164" x2="101.7702" y2="47.56164"/>
		</g>
		<g>
			<path d="M134.5791,45.77253v-0.25h0.19141c0.28906,0,0.4668-0.02441,0.5332-0.07227s0.09961-0.15039,0.09961-0.30664v-4.21094
				c0-0.1543-0.03369-0.25488-0.10156-0.30273s-0.24463-0.07227-0.53125-0.07227h-0.19141v-0.25h2.51172
				c0.58057,0,1.07373,0.14258,1.47852,0.42773s0.60742,0.62305,0.60742,1.01367c0,0.2998-0.13135,0.56641-0.39453,0.80078
				s-0.59766,0.40234-1.00391,0.50391c0.52881,0.18262,0.854,0.49121,0.97656,0.92578l0.10156,0.64062
				c0.021,0.15332,0.03857,0.26953,0.05273,0.34766s0.0332,0.1709,0.05664,0.27734s0.04736,0.18555,0.07227,0.23633
				s0.05518,0.10254,0.0918,0.15625s0.07861,0.08887,0.12695,0.10742s0.10498,0.02734,0.16992,0.02734
				c0.12256,0,0.23584-0.05469,0.33984-0.16406s0.1665-0.29199,0.1875-0.54688c0.01025-0.08594,0.04297-0.12891,0.09766-0.12891
				c0.06787,0,0.10156,0.04297,0.10156,0.12891c0,0.0752-0.01025,0.15723-0.03125,0.24414s-0.05664,0.18164-0.10742,0.2832
				s-0.13086,0.18652-0.24023,0.25586s-0.23584,0.10352-0.37891,0.10352c-0.4165,0-0.75244-0.1123-1.00781-0.33594
				c-0.10693-0.09668-0.18408-0.20703-0.23242-0.33203s-0.07617-0.2373-0.08398-0.33594s-0.01172-0.25781-0.01172-0.47656
				c0-0.30957-0.01611-0.53223-0.04883-0.66797s-0.11768-0.26953-0.25586-0.40234c-0.1875-0.18262-0.43604-0.27344-0.74609-0.27344
				h-0.91797v2.02051c0,0.15332,0.0332,0.25488,0.09961,0.30371c0.06641,0.0498,0.24414,0.07422,0.5332,0.07422h0.19141v0.25
				c-0.19287-0.01562-0.58203-0.02344-1.16797-0.02344S134.77197,45.7569,134.5791,45.77253z M136.09082,42.94831h0.88672
				c0.28369,0,0.52148-0.03418,0.71289-0.10352s0.33252-0.16602,0.42383-0.29102s0.15381-0.25098,0.1875-0.37695
				s0.05078-0.26855,0.05078-0.42773c0-0.1875-0.021-0.35156-0.0625-0.49219s-0.10791-0.25293-0.19922-0.33594
				s-0.18213-0.15137-0.27344-0.20508s-0.20703-0.09082-0.34766-0.11133s-0.25928-0.03418-0.35547-0.03906
				s-0.22119-0.00781-0.375-0.00781c-0.26025,0-0.41797,0.00488-0.47266,0.01562c-0.06006,0.00488-0.10156,0.02246-0.125,0.05078
				s-0.0376,0.05957-0.04297,0.0918s-0.00781,0.08691-0.00781,0.16211V42.94831z"/>
			<path d="M140.40723,44.01081c0-0.50195,0.16162-0.93262,0.48438-1.28906s0.71631-0.53516,1.17969-0.53516
				c0.46875,0,0.82471,0.15137,1.06836,0.45508c0.24365,0.30273,0.36523,0.67188,0.36523,1.10742
				c0,0.08398-0.01025,0.13477-0.03125,0.15137s-0.07666,0.02441-0.16797,0.02441h-2.23438
				c0,0.5459,0.08057,0.94629,0.24219,1.20215c0.22412,0.35742,0.5249,0.53613,0.90234,0.53613
				c0.05225,0,0.11035-0.00488,0.17285-0.01562c0.06299-0.01074,0.15918-0.03809,0.2876-0.08398s0.24902-0.12988,0.36182-0.25293
				c0.11279-0.12207,0.20215-0.28027,0.26758-0.47363c0.01514-0.0752,0.04785-0.1123,0.09766-0.10938
				c0.06787,0,0.10156,0.03125,0.10156,0.09375c0,0.04688-0.02539,0.12305-0.07617,0.22852
				c-0.05078,0.10449-0.12451,0.21973-0.2207,0.34473s-0.23779,0.2334-0.42383,0.32715s-0.39111,0.14062-0.61523,0.14062
				c-0.46875,0-0.87939-0.17773-1.23242-0.5332S140.40723,44.53425,140.40723,44.01081z M141.0791,43.74909h1.89844
				c0-0.11133-0.00977-0.22949-0.0293-0.35449s-0.05713-0.27344-0.11328-0.44629c-0.05615-0.17188-0.14893-0.31348-0.2793-0.42188
				c-0.13037-0.10938-0.2915-0.16406-0.48438-0.16406c-0.08594,0-0.17529,0.01855-0.26758,0.05469s-0.19482,0.09863-0.30664,0.18652
				c-0.11182,0.08887-0.20703,0.23242-0.28516,0.43262S141.08936,43.4737,141.0791,43.74909z"/>
			<path d="M144.00098,45.66706v-1.05469c0-0.05957,0.00146-0.10059,0.00391-0.12109
				c0.00293-0.02051,0.01221-0.03906,0.02832-0.05469c0.0166-0.01562,0.04053-0.02344,0.07324-0.02344
				c0.0376,0,0.06396,0.00781,0.07861,0.02344c0.01514,0.01562,0.02783,0.05371,0.03857,0.11328
				c0.07715,0.36914,0.20166,0.65039,0.37451,0.84473s0.4165,0.29199,0.73096,0.29199c0.29932,0,0.5249-0.06641,0.67578-0.19922
				s0.22656-0.30957,0.22656-0.52832c0-0.39062-0.27734-0.63574-0.83203-0.73535c-0.32031-0.06445-0.54688-0.11914-0.67969-0.16211
				s-0.25781-0.1123-0.375-0.20898c-0.229-0.1875-0.34375-0.41504-0.34375-0.68066s0.10107-0.49707,0.30273-0.69238
				s0.52686-0.29297,0.97461-0.29297c0.29932,0,0.55078,0.0752,0.75391,0.22656c0.06006-0.04688,0.10547-0.08984,0.13672-0.12891
				c0.07617-0.06543,0.13379-0.09766,0.17334-0.09766c0.04688,0,0.07471,0.01367,0.0835,0.04102
				c0.0083,0.02734,0.0127,0.0791,0.0127,0.1543v0.80469c0,0.05957-0.00146,0.10059-0.00391,0.12109
				s-0.0127,0.03809-0.03027,0.05273s-0.04541,0.02148-0.08301,0.02148c-0.06738,0-0.10254-0.02441-0.10547-0.07422
				c-0.0415-0.64551-0.354-0.96875-0.9375-0.96875c-0.31494,0-0.54297,0.06055-0.68359,0.18164s-0.21094,0.26465-0.21094,0.42871
				c0,0.09082,0.02148,0.1709,0.06445,0.24023s0.09229,0.12402,0.14844,0.16406c0.05615,0.04102,0.13623,0.08008,0.24023,0.11719
				c0.104,0.03809,0.18799,0.06348,0.25195,0.07617c0.06396,0.01367,0.15674,0.0332,0.2793,0.05957
				c0.42725,0.08008,0.73047,0.20801,0.91016,0.38281c0.22412,0.22461,0.33594,0.47852,0.33594,0.7627
				c0,0.31445-0.10693,0.57812-0.32031,0.79102s-0.53516,0.31934-0.96484,0.31934c-0.34619,0-0.64062-0.11426-0.88281-0.34375
				c-0.03076,0.03125-0.05713,0.06055-0.08008,0.08789s-0.03906,0.0459-0.04785,0.05664
				c-0.0083,0.01074-0.01416,0.01855-0.0166,0.02539c-0.00244,0.00586-0.00635,0.01172-0.01172,0.01758
				c-0.10693,0.10352-0.17383,0.15625-0.2002,0.15625c-0.04297,0-0.06885-0.01367-0.07666-0.04102
				C144.00488,45.79401,144.00098,45.74226,144.00098,45.66706z"/>
			<path d="M147.14941,45.77253v-0.25c0.28369,0,0.4585-0.01758,0.52344-0.05273s0.09766-0.13867,0.09766-0.31055v-2.14941
				c0-0.19727-0.0332-0.31934-0.09961-0.36621s-0.22998-0.07031-0.49023-0.07031v-0.25l1.11719-0.08594v2.92969
				c0,0.15918,0.02881,0.25781,0.08594,0.29688s0.21631,0.05859,0.47656,0.05859v0.25
				c-0.54443-0.01562-0.82178-0.02344-0.83203-0.02344C147.95557,45.74909,147.6626,45.7569,147.14941,45.77253z
				 M147.47363,40.84284c0-0.10645,0.04248-0.2041,0.12793-0.29102s0.18701-0.13086,0.30469-0.13086
				s0.21826,0.04004,0.30176,0.11914s0.125,0.18066,0.125,0.30469s-0.0415,0.22559-0.125,0.30469s-0.18359,0.11914-0.30078,0.11914
				c-0.12598,0-0.22949-0.04297-0.31104-0.12891S147.47363,40.95515,147.47363,40.84284z"/>
			<path d="M149.37207,44.05183c0-0.50781,0.17725-0.93652,0.53125-1.28809c0.354-0.35059,0.771-0.52637,1.25-0.52637
				c0.40625,0,0.74219,0.16504,1.00781,0.49609V41.003c0-0.19824-0.03467-0.32129-0.104-0.37109
				c-0.06982-0.0498-0.24316-0.07422-0.521-0.07422v-0.25l1.15234-0.08594v4.85156c0,0.19824,0.03467,0.32227,0.104,0.37305
				c0.06982,0.05078,0.24316,0.07617,0.521,0.07617v0.25l-1.17578,0.08984v-0.53516
				c-0.27588,0.35449-0.63281,0.53223-1.07031,0.53516c-0.4585,0-0.85547-0.17578-1.19141-0.52832
				C149.54004,44.98249,149.37207,44.55476,149.37207,44.05183z M150.03613,44.05964c0,0.49609,0.07666,0.86719,0.23047,1.11328
				c0.21338,0.34277,0.49365,0.51367,0.83984,0.51367c0.396,0,0.71094-0.18652,0.94531-0.55957
				c0.06006-0.09082,0.08838-0.19043,0.08594-0.29688v-1.64258c0-0.10645-0.02881-0.20508-0.08594-0.29297
				c-0.21875-0.32129-0.50635-0.48145-0.86328-0.48145c-0.37256,0-0.67432,0.16992-0.90625,0.51074
				C150.11816,43.17878,150.03613,43.55769,150.03613,44.05964z"/>
			<path d="M153.79004,42.57331v-0.25l1.17578-0.08594v2.65918c0,0.12793,0.00537,0.22852,0.01562,0.30273
				c0.01025,0.0752,0.03711,0.15527,0.08008,0.24121c0.04346,0.08594,0.11523,0.14844,0.21582,0.1875
				c0.1001,0.03906,0.23145,0.05859,0.39307,0.05859c0.29004,0,0.52393-0.11816,0.70312-0.35547
				c0.17871-0.2373,0.26807-0.53223,0.26807-0.88477V43.0196c0-0.19824-0.03516-0.32227-0.10547-0.37207
				s-0.24365-0.07422-0.51953-0.07422v-0.25l1.17578-0.08594v2.83691c0,0.19727,0.03467,0.32129,0.10352,0.37207
				s0.24268,0.07617,0.52148,0.07617v0.25l-1.15234,0.08984v-0.72266c-0.22412,0.47949-0.56787,0.71973-1.03125,0.72266
				c-0.23438,0-0.43164-0.03027-0.5918-0.08984s-0.28076-0.12695-0.36133-0.20117s-0.14258-0.18262-0.18555-0.32617
				s-0.06689-0.25879-0.07227-0.34766s-0.00781-0.21875-0.00781-0.39062v-1.19922c0-0.3623-0.02637-0.5752-0.07861-0.63867
				S154.10205,42.57331,153.79004,42.57331z"/>
			<path d="M158.30957,45.00788c0-0.4541,0.27197-0.80078,0.81592-1.04102c0.32617-0.15332,0.82666-0.25098,1.50049-0.29199
				v-0.29199c0-0.33008-0.09131-0.58203-0.27393-0.75781c-0.18213-0.1748-0.38867-0.2627-0.61963-0.2627
				c-0.39453,0-0.68701,0.12402-0.87646,0.37109c0.15283,0.00488,0.25732,0.04785,0.31201,0.12695
				c0.05566,0.0791,0.08301,0.15918,0.08301,0.24023c0,0.10645-0.03223,0.19434-0.0957,0.26367
				c-0.06445,0.06934-0.1499,0.10352-0.25781,0.10352c-0.10303,0-0.18799-0.0332-0.25586-0.09961s-0.10156-0.1582-0.10156-0.27539
				c0-0.26074,0.11768-0.47656,0.35303-0.64844s0.52051-0.25781,0.85596-0.25781c0.45215,0,0.82861,0.14648,1.12988,0.44043
				c0.09375,0.09082,0.16455,0.19434,0.21143,0.31152c0.04736,0.11719,0.07324,0.21387,0.07861,0.29004
				c0.00537,0.07715,0.00781,0.19043,0.00781,0.34082v1.59863c0,0.03125,0.00488,0.07227,0.01562,0.125
				c0.01025,0.05176,0.03906,0.11035,0.08691,0.17676s0.1123,0.09961,0.19238,0.09961c0.19141,0,0.28564-0.16992,0.2832-0.51074
				v-0.44824h0.19922v0.4502c0,0.28418-0.07422,0.48145-0.22217,0.59277c-0.14844,0.11035-0.29053,0.16602-0.42725,0.16602
				c-0.17676,0-0.32129-0.06543-0.43311-0.19629s-0.17529-0.28516-0.19092-0.46289c-0.08496,0.2041-0.22363,0.37207-0.41699,0.50391
				c-0.19287,0.13184-0.42041,0.19824-0.68359,0.19824c-0.19092,0-0.37598-0.02441-0.55566-0.07227
				c-0.17969-0.04883-0.34375-0.13965-0.49219-0.27441S158.30957,45.21198,158.30957,45.00788z M158.97363,45.00007
				c0,0.2002,0.06494,0.36426,0.19482,0.49316s0.28662,0.19336,0.46924,0.19336c0.23633,0,0.45996-0.08691,0.67139-0.26074
				c0.21143-0.17285,0.31689-0.43066,0.31689-0.77246v-0.80273c-0.58984,0.02051-1.0127,0.14844-1.26855,0.38379
				S158.97363,44.72468,158.97363,45.00007z"/>
			<path d="M162.23926,45.77253v-0.25c0.28369,0,0.4585-0.01758,0.52344-0.05273s0.09766-0.13867,0.09766-0.31055V41.003
				c0-0.19824-0.03467-0.32129-0.10352-0.37109s-0.2417-0.07422-0.51758-0.07422v-0.25l1.14844-0.08594v4.9375
				c0,0.17188,0.03369,0.27539,0.10156,0.31055s0.24219,0.05273,0.52344,0.05273v0.25c-0.06494,0-0.16553-0.00293-0.30078-0.00781
				c-0.13525-0.00586-0.25244-0.00977-0.35156-0.01172c-0.09912-0.00293-0.17725-0.00391-0.23438-0.00391
				C163.06348,45.74909,162.76807,45.7569,162.23926,45.77253z"/>
		</g>
		<g>
			<path d="M67.24316,50.26862v-0.25h0.19141c0.28906,0,0.4668-0.02441,0.5332-0.07227s0.09961-0.15039,0.09961-0.30664v-4.21094
				c0-0.1543-0.03369-0.25488-0.10156-0.30273s-0.24463-0.07227-0.53125-0.07227h-0.19141v-0.25h2.51172
				c0.58057,0,1.07373,0.14258,1.47852,0.42773s0.60742,0.62305,0.60742,1.01367c0,0.2998-0.13135,0.56641-0.39453,0.80078
				s-0.59766,0.40234-1.00391,0.50391c0.52881,0.18262,0.854,0.49121,0.97656,0.92578l0.10156,0.64062
				c0.021,0.15332,0.03857,0.26953,0.05273,0.34766s0.0332,0.1709,0.05664,0.27734s0.04736,0.18555,0.07227,0.23633
				s0.05518,0.10254,0.0918,0.15625s0.07861,0.08887,0.12695,0.10742s0.10498,0.02734,0.16992,0.02734
				c0.12256,0,0.23584-0.05469,0.33984-0.16406s0.1665-0.29199,0.1875-0.54688c0.01025-0.08594,0.04297-0.12891,0.09766-0.12891
				c0.06787,0,0.10156,0.04297,0.10156,0.12891c0,0.0752-0.01025,0.15723-0.03125,0.24414s-0.05664,0.18164-0.10742,0.2832
				s-0.13086,0.18652-0.24023,0.25586s-0.23584,0.10352-0.37891,0.10352c-0.4165,0-0.75244-0.1123-1.00781-0.33594
				c-0.10693-0.09668-0.18408-0.20703-0.23242-0.33203s-0.07617-0.2373-0.08398-0.33594s-0.01172-0.25781-0.01172-0.47656
				c0-0.30957-0.01611-0.53223-0.04883-0.66797s-0.11768-0.26953-0.25586-0.40234c-0.1875-0.18262-0.43604-0.27344-0.74609-0.27344
				h-0.91797v2.02051c0,0.15332,0.0332,0.25488,0.09961,0.30371c0.06641,0.0498,0.24414,0.07422,0.5332,0.07422h0.19141v0.25
				c-0.19287-0.01562-0.58203-0.02344-1.16797-0.02344S67.43604,50.253,67.24316,50.26862z M68.75488,47.4444h0.88672
				c0.28369,0,0.52148-0.03418,0.71289-0.10352s0.33252-0.16602,0.42383-0.29102s0.15381-0.25098,0.1875-0.37695
				s0.05078-0.26855,0.05078-0.42773c0-0.1875-0.021-0.35156-0.0625-0.49219s-0.10791-0.25293-0.19922-0.33594
				s-0.18213-0.15137-0.27344-0.20508s-0.20703-0.09082-0.34766-0.11133s-0.25928-0.03418-0.35547-0.03906
				s-0.22119-0.00781-0.375-0.00781c-0.26025,0-0.41797,0.00488-0.47266,0.01562c-0.06006,0.00488-0.10156,0.02246-0.125,0.05078
				s-0.0376,0.05957-0.04297,0.0918s-0.00781,0.08691-0.00781,0.16211V47.4444z"/>
			<path d="M73.07129,48.5069c0-0.50195,0.16162-0.93262,0.48438-1.28906s0.71631-0.53516,1.17969-0.53516
				c0.46875,0,0.82471,0.15137,1.06836,0.45508c0.24365,0.30273,0.36523,0.67188,0.36523,1.10742
				c0,0.08398-0.01025,0.13477-0.03125,0.15137s-0.07666,0.02441-0.16797,0.02441h-2.23438
				c0,0.5459,0.08057,0.94629,0.24219,1.20215c0.22412,0.35742,0.5249,0.53613,0.90234,0.53613
				c0.05225,0,0.11035-0.00488,0.17285-0.01562c0.06299-0.01074,0.15918-0.03809,0.2876-0.08398s0.24902-0.12988,0.36182-0.25293
				c0.11279-0.12207,0.20215-0.28027,0.26758-0.47363c0.01514-0.0752,0.04785-0.1123,0.09766-0.10938
				c0.06787,0,0.10156,0.03125,0.10156,0.09375c0,0.04688-0.02539,0.12305-0.07617,0.22852
				c-0.05078,0.10449-0.12451,0.21973-0.2207,0.34473s-0.23779,0.2334-0.42383,0.32715s-0.39111,0.14062-0.61523,0.14062
				c-0.46875,0-0.87939-0.17773-1.23242-0.5332S73.07129,49.03034,73.07129,48.5069z M73.74316,48.24519h1.89844
				c0-0.11133-0.00977-0.22949-0.0293-0.35449s-0.05713-0.27344-0.11328-0.44629c-0.05615-0.17188-0.14893-0.31348-0.2793-0.42188
				c-0.13037-0.10938-0.2915-0.16406-0.48438-0.16406c-0.08594,0-0.17529,0.01855-0.26758,0.05469s-0.19482,0.09863-0.30664,0.18652
				c-0.11182,0.08887-0.20703,0.23242-0.28516,0.43262S73.75342,47.9698,73.74316,48.24519z"/>
			<path d="M76.66504,50.16315v-1.05469c0-0.05957,0.00146-0.10059,0.00391-0.12109
				c0.00293-0.02051,0.01221-0.03906,0.02832-0.05469c0.0166-0.01562,0.04053-0.02344,0.07324-0.02344
				c0.0376,0,0.06396,0.00781,0.07861,0.02344c0.01514,0.01562,0.02783,0.05371,0.03857,0.11328
				c0.07715,0.36914,0.20166,0.65039,0.37451,0.84473s0.4165,0.29199,0.73096,0.29199c0.29932,0,0.5249-0.06641,0.67578-0.19922
				s0.22656-0.30957,0.22656-0.52832c0-0.39062-0.27734-0.63574-0.83203-0.73535c-0.32031-0.06445-0.54688-0.11914-0.67969-0.16211
				s-0.25781-0.1123-0.375-0.20898c-0.229-0.1875-0.34375-0.41504-0.34375-0.68066s0.10107-0.49707,0.30273-0.69238
				s0.52686-0.29297,0.97461-0.29297c0.29932,0,0.55078,0.0752,0.75391,0.22656c0.06006-0.04688,0.10547-0.08984,0.13672-0.12891
				c0.07617-0.06543,0.13379-0.09766,0.17334-0.09766c0.04688,0,0.07471,0.01367,0.0835,0.04102
				c0.0083,0.02734,0.0127,0.0791,0.0127,0.1543v0.80469c0,0.05957-0.00146,0.10059-0.00391,0.12109
				s-0.0127,0.03809-0.03027,0.05273S79.02295,47.878,78.98535,47.878c-0.06738,0-0.10254-0.02441-0.10547-0.07422
				c-0.0415-0.64551-0.354-0.96875-0.9375-0.96875c-0.31494,0-0.54297,0.06055-0.68359,0.18164s-0.21094,0.26465-0.21094,0.42871
				c0,0.09082,0.02148,0.1709,0.06445,0.24023s0.09229,0.12402,0.14844,0.16406c0.05615,0.04102,0.13623,0.08008,0.24023,0.11719
				c0.104,0.03809,0.18799,0.06348,0.25195,0.07617c0.06396,0.01367,0.15674,0.0332,0.2793,0.05957
				c0.42725,0.08008,0.73047,0.20801,0.91016,0.38281c0.22412,0.22461,0.33594,0.47852,0.33594,0.7627
				c0,0.31445-0.10693,0.57812-0.32031,0.79102s-0.53516,0.31934-0.96484,0.31934c-0.34619,0-0.64062-0.11426-0.88281-0.34375
				c-0.03076,0.03125-0.05713,0.06055-0.08008,0.08789s-0.03906,0.0459-0.04785,0.05664
				c-0.0083,0.01074-0.01416,0.01855-0.0166,0.02539c-0.00244,0.00586-0.00635,0.01172-0.01172,0.01758
				c-0.10693,0.10352-0.17383,0.15625-0.2002,0.15625c-0.04297,0-0.06885-0.01367-0.07666-0.04102
				C76.66895,50.29011,76.66504,50.23835,76.66504,50.16315z"/>
			<path d="M79.81348,50.26862v-0.25c0.28369,0,0.4585-0.01758,0.52344-0.05273s0.09766-0.13867,0.09766-0.31055v-2.14941
				c0-0.19727-0.0332-0.31934-0.09961-0.36621s-0.22998-0.07031-0.49023-0.07031v-0.25l1.11719-0.08594v2.92969
				c0,0.15918,0.02881,0.25781,0.08594,0.29688s0.21631,0.05859,0.47656,0.05859v0.25
				c-0.54443-0.01562-0.82178-0.02344-0.83203-0.02344C80.61963,50.24519,80.32666,50.253,79.81348,50.26862z M80.1377,45.33894
				c0-0.10645,0.04248-0.2041,0.12793-0.29102s0.18701-0.13086,0.30469-0.13086s0.21826,0.04004,0.30176,0.11914
				s0.125,0.18066,0.125,0.30469s-0.0415,0.22559-0.125,0.30469s-0.18359,0.11914-0.30078,0.11914
				c-0.12598,0-0.22949-0.04297-0.31104-0.12891S80.1377,45.45124,80.1377,45.33894z"/>
			<path d="M82.03613,48.54792c0-0.50781,0.17725-0.93652,0.53125-1.28809c0.354-0.35059,0.771-0.52637,1.25-0.52637
				c0.40625,0,0.74219,0.16504,1.00781,0.49609v-1.73047c0-0.19824-0.03467-0.32129-0.104-0.37109
				c-0.06982-0.0498-0.24316-0.07422-0.521-0.07422v-0.25l1.15234-0.08594v4.85156c0,0.19824,0.03467,0.32227,0.104,0.37305
				c0.06982,0.05078,0.24316,0.07617,0.521,0.07617v0.25l-1.17578,0.08984v-0.53516
				c-0.27588,0.35449-0.63281,0.53223-1.07031,0.53516c-0.4585,0-0.85547-0.17578-1.19141-0.52832
				C82.2041,49.47858,82.03613,49.05085,82.03613,48.54792z M82.7002,48.55573c0,0.49609,0.07666,0.86719,0.23047,1.11328
				c0.21338,0.34277,0.49365,0.51367,0.83984,0.51367c0.396,0,0.71094-0.18652,0.94531-0.55957
				c0.06006-0.09082,0.08838-0.19043,0.08594-0.29688v-1.64258c0-0.10645-0.02881-0.20508-0.08594-0.29297
				c-0.21875-0.32129-0.50635-0.48145-0.86328-0.48145c-0.37256,0-0.67432,0.16992-0.90625,0.51074
				C82.78223,47.67487,82.7002,48.05378,82.7002,48.55573z"/>
			<path d="M86.4541,47.0694v-0.25l1.17578-0.08594v2.65918c0,0.12793,0.00537,0.22852,0.01562,0.30273
				c0.01025,0.0752,0.03711,0.15527,0.08008,0.24121c0.04346,0.08594,0.11523,0.14844,0.21582,0.1875
				c0.1001,0.03906,0.23145,0.05859,0.39307,0.05859c0.29004,0,0.52393-0.11816,0.70312-0.35547
				c0.17871-0.2373,0.26807-0.53223,0.26807-0.88477v-1.42676c0-0.19824-0.03516-0.32227-0.10547-0.37207
				s-0.24365-0.07422-0.51953-0.07422v-0.25l1.17578-0.08594v2.83691c0,0.19727,0.03467,0.32129,0.10352,0.37207
				s0.24268,0.07617,0.52148,0.07617v0.25l-1.15234,0.08984v-0.72266c-0.22412,0.47949-0.56787,0.71973-1.03125,0.72266
				c-0.23438,0-0.43164-0.03027-0.5918-0.08984s-0.28076-0.12695-0.36133-0.20117s-0.14258-0.18262-0.18555-0.32617
				s-0.06689-0.25879-0.07227-0.34766S87.0791,49.17487,87.0791,49.003v-1.19922c0-0.3623-0.02637-0.5752-0.07861-0.63867
				S86.76611,47.0694,86.4541,47.0694z"/>
			<path d="M90.97363,49.50397c0-0.4541,0.27197-0.80078,0.81592-1.04102c0.32617-0.15332,0.82666-0.25098,1.50049-0.29199v-0.29199
				c0-0.33008-0.09131-0.58203-0.27393-0.75781c-0.18213-0.1748-0.38867-0.2627-0.61963-0.2627
				c-0.39453,0-0.68701,0.12402-0.87646,0.37109c0.15283,0.00488,0.25732,0.04785,0.31201,0.12695
				c0.05566,0.0791,0.08301,0.15918,0.08301,0.24023c0,0.10645-0.03223,0.19434-0.0957,0.26367
				c-0.06445,0.06934-0.1499,0.10352-0.25781,0.10352c-0.10303,0-0.18799-0.0332-0.25586-0.09961s-0.10156-0.1582-0.10156-0.27539
				c0-0.26074,0.11768-0.47656,0.35303-0.64844s0.52051-0.25781,0.85596-0.25781c0.45215,0,0.82861,0.14648,1.12988,0.44043
				c0.09375,0.09082,0.16455,0.19434,0.21143,0.31152c0.04736,0.11719,0.07324,0.21387,0.07861,0.29004
				c0.00537,0.07715,0.00781,0.19043,0.00781,0.34082v1.59863c0,0.03125,0.00488,0.07227,0.01562,0.125
				c0.01025,0.05176,0.03906,0.11035,0.08691,0.17676s0.1123,0.09961,0.19238,0.09961c0.19141,0,0.28564-0.16992,0.2832-0.51074
				v-0.44824h0.19922v0.4502c0,0.28418-0.07422,0.48145-0.22217,0.59277c-0.14844,0.11035-0.29053,0.16602-0.42725,0.16602
				c-0.17676,0-0.32129-0.06543-0.43311-0.19629s-0.17529-0.28516-0.19092-0.46289c-0.08496,0.2041-0.22363,0.37207-0.41699,0.50391
				c-0.19287,0.13184-0.42041,0.19824-0.68359,0.19824c-0.19092,0-0.37598-0.02441-0.55566-0.07227
				c-0.17969-0.04883-0.34375-0.13965-0.49219-0.27441S90.97363,49.70808,90.97363,49.50397z M91.6377,49.49616
				c0,0.2002,0.06494,0.36426,0.19482,0.49316s0.28662,0.19336,0.46924,0.19336c0.23633,0,0.45996-0.08691,0.67139-0.26074
				c0.21143-0.17285,0.31689-0.43066,0.31689-0.77246v-0.80273c-0.58984,0.02051-1.0127,0.14844-1.26855,0.38379
				S91.6377,49.22077,91.6377,49.49616z"/>
			<path d="M94.90332,50.26862v-0.25c0.28369,0,0.4585-0.01758,0.52344-0.05273s0.09766-0.13867,0.09766-0.31055v-4.15625
				c0-0.19824-0.03467-0.32129-0.10352-0.37109s-0.2417-0.07422-0.51758-0.07422v-0.25l1.14844-0.08594v4.9375
				c0,0.17188,0.03369,0.27539,0.10156,0.31055s0.24219,0.05273,0.52344,0.05273v0.25c-0.06494,0-0.16553-0.00293-0.30078-0.00781
				c-0.13525-0.00586-0.25244-0.00977-0.35156-0.01172c-0.09912-0.00293-0.17725-0.00391-0.23438-0.00391
				C95.72754,50.24519,95.43213,50.253,94.90332,50.26862z"/>
		</g>
		<g>
			<path d="M18.13135,42.89265v-0.25h0.19141c0.28906,0,0.4668-0.02441,0.5332-0.07227s0.09961-0.15039,0.09961-0.30664V38.0528
				c0-0.1543-0.03369-0.25488-0.10156-0.30273s-0.24463-0.07227-0.53125-0.07227h-0.19141v-0.25h2.82422
				c0.53906,0,0.98828,0.14844,1.34766,0.44531s0.53906,0.64453,0.53906,1.04297c0,0.39355-0.18311,0.73242-0.54883,1.01562
				c-0.36572,0.28418-0.79102,0.42578-1.27539,0.42578H19.6665v1.90527c0,0.1543,0.0332,0.25586,0.09961,0.30566
				s0.24414,0.07422,0.5332,0.07422h0.19141v0.25c-0.1875-0.01562-0.58203-0.02344-1.18359-0.02344
				C18.71094,42.86921,18.31885,42.87702,18.13135,42.89265z M19.64307,40.15827h1.10156c0.23975,0,0.44678-0.03418,0.62109-0.10156
				s0.30127-0.14258,0.38086-0.22461s0.14209-0.19043,0.1875-0.32422s0.0708-0.23828,0.07617-0.3125s0.00781-0.16699,0.00781-0.2793
				c0-0.11719-0.00244-0.21289-0.00781-0.28711s-0.03076-0.17871-0.07617-0.3125s-0.10791-0.24219-0.1875-0.32422
				s-0.20557-0.15527-0.37891-0.21875s-0.38086-0.0957-0.62305-0.0957h-0.71094c-0.18213,0-0.29297,0.01855-0.33203,0.05469
				s-0.05859,0.125-0.05859,0.26562V40.15827z"/>
			<path d="M24.03955,42.46198c-0.35303-0.34668-0.5293-0.77441-0.5293-1.28223s0.17236-0.94629,0.51758-1.31738
				c0.34521-0.37012,0.76514-0.55566,1.25977-0.55566c0.48438,0,0.90039,0.18457,1.24805,0.55273s0.52148,0.80957,0.52148,1.32227
				c0,0.50293-0.17529,0.92871-0.52539,1.27734s-0.76758,0.52344-1.25195,0.52344
				C24.80566,42.98249,24.39258,42.80866,24.03955,42.46198z M24.17432,41.1153c0,0.51953,0.06787,0.89648,0.20312,1.13184
				c0.2085,0.35742,0.51172,0.53613,0.91016,0.53613c0.19775,0,0.37939-0.05371,0.54492-0.16016
				c0.16553-0.10742,0.29346-0.25098,0.38477-0.43066c0.11719-0.23535,0.17578-0.59473,0.17578-1.07715
				c0-0.51465-0.07031-0.88477-0.21094-1.1123c-0.2085-0.34668-0.50928-0.52051-0.90234-0.52051
				c-0.17188,0-0.3418,0.04492-0.50977,0.13477c-0.16797,0.09082-0.30273,0.22461-0.4043,0.40137
				C24.23828,40.25397,24.17432,40.61921,24.17432,41.1153z"/>
			<path d="M27.55322,42.89265v-0.25c0.28369,0,0.4585-0.01758,0.52344-0.05273s0.09766-0.13867,0.09766-0.31055v-2.14941
				c0-0.19727-0.0332-0.31934-0.09961-0.36621s-0.22998-0.07031-0.49023-0.07031v-0.25l1.11719-0.08594v2.92969
				c0,0.15918,0.02881,0.25781,0.08594,0.29688s0.21631,0.05859,0.47656,0.05859v0.25
				c-0.54443-0.01562-0.82178-0.02344-0.83203-0.02344C28.35938,42.86921,28.06641,42.87702,27.55322,42.89265z M27.87744,37.96296
				c0-0.10645,0.04248-0.2041,0.12793-0.29102s0.18701-0.13086,0.30469-0.13086s0.21826,0.04004,0.30176,0.11914
				s0.125,0.18066,0.125,0.30469s-0.0415,0.22559-0.125,0.30469s-0.18359,0.11914-0.30078,0.11914
				c-0.12598,0-0.22949-0.04297-0.31104-0.12891S27.87744,38.07526,27.87744,37.96296z"/>
			<path d="M29.75635,42.89265v-0.25c0.28564,0,0.46094-0.01758,0.52686-0.05273c0.06543-0.03516,0.09814-0.13867,0.09814-0.31055
				v-2.1416c0-0.19727-0.03467-0.32031-0.104-0.37012c-0.06982-0.0498-0.24316-0.07422-0.521-0.07422v-0.25l1.12549-0.08594
				l-0.00049,0.83887c0.25049-0.55957,0.646-0.83887,1.18604-0.83887c0.40186,0,0.68213,0.09863,0.84082,0.29688
				c0.11768,0.13281,0.18848,0.27246,0.21338,0.4209s0.03711,0.41504,0.03711,0.7998v1.52539
				c0.00537,0.1123,0.05078,0.18066,0.13672,0.20508s0.24854,0.03711,0.48828,0.03711v0.25
				c-0.54443-0.01562-0.84375-0.02344-0.89844-0.02344c-0.0415,0-0.34229,0.00781-0.90234,0.02344v-0.25
				c0.28369,0,0.45898-0.01758,0.52539-0.05273s0.09961-0.13867,0.09961-0.31055v-1.86035
				c0-0.27051-0.04199-0.48535-0.12549-0.64551s-0.23975-0.24023-0.46973-0.24023c-0.27686,0-0.52588,0.11621-0.74756,0.34766
				c-0.22217,0.23145-0.33301,0.54199-0.33301,0.93164v1.4668c0,0.17188,0.0332,0.27539,0.1001,0.31055
				s0.2417,0.05273,0.5249,0.05273v0.25c-0.54541-0.01562-0.84424-0.02344-0.89648-0.02344
				C30.61865,42.86921,30.31738,42.87702,29.75635,42.89265z"/>
			<path d="M34.09229,39.69343v-0.17578c0.24463-0.01074,0.44873-0.10254,0.61133-0.27539s0.27197-0.36621,0.32812-0.58008
				s0.08643-0.44434,0.0918-0.69141h0.19922v1.47266h1.14453v0.25h-1.14453v2.22559c0,0.57617,0.17969,0.86426,0.53906,0.86426
				c0.15381,0,0.28125-0.0791,0.38281-0.23633c0.10156-0.1582,0.15234-0.37793,0.15234-0.65918v-0.44238h0.19922v0.45703
				c0,0.28809-0.06641,0.54102-0.19922,0.75586c-0.13281,0.2168-0.33057,0.32422-0.59375,0.32422
				c-0.09619,0-0.19189-0.0127-0.28711-0.03711s-0.20459-0.06934-0.32812-0.13281s-0.22412-0.1748-0.30078-0.33203
				s-0.11523-0.35059-0.11523-0.58008v-2.20703H34.09229z"/>
			<path d="M40.45361,42.46198c-0.35303-0.34668-0.5293-0.77441-0.5293-1.28223s0.17236-0.94629,0.51758-1.31738
				c0.34521-0.37012,0.76514-0.55566,1.25977-0.55566c0.48438,0,0.90039,0.18457,1.24805,0.55273s0.52148,0.80957,0.52148,1.32227
				c0,0.50293-0.17529,0.92871-0.52539,1.27734s-0.76758,0.52344-1.25195,0.52344
				C41.21973,42.98249,40.80664,42.80866,40.45361,42.46198z M40.58838,41.1153c0,0.51953,0.06787,0.89648,0.20312,1.13184
				c0.2085,0.35742,0.51172,0.53613,0.91016,0.53613c0.19775,0,0.37939-0.05371,0.54492-0.16016
				c0.16553-0.10742,0.29346-0.25098,0.38477-0.43066c0.11719-0.23535,0.17578-0.59473,0.17578-1.07715
				c0-0.51465-0.07031-0.88477-0.21094-1.1123c-0.2085-0.34668-0.50928-0.52051-0.90234-0.52051
				c-0.17188,0-0.3418,0.04492-0.50977,0.13477c-0.16797,0.09082-0.30273,0.22461-0.4043,0.40137
				C40.65234,40.25397,40.58838,40.61921,40.58838,41.1153z"/>
			<path d="M43.95557,42.89265v-0.25c0.28564,0,0.46094-0.01758,0.52686-0.05273c0.06543-0.03516,0.09814-0.13867,0.09814-0.31055
				v-2.1416c0-0.19727-0.03467-0.32031-0.104-0.37012c-0.06982-0.0498-0.24316-0.07422-0.521-0.07422v-0.25l1.12549-0.08594
				l-0.00049,0.83887c0.25049-0.55957,0.646-0.83887,1.18604-0.83887c0.40186,0,0.68213,0.09863,0.84082,0.29688
				c0.11768,0.13281,0.18848,0.27246,0.21338,0.4209s0.03711,0.41504,0.03711,0.7998v1.52539
				c0.00537,0.1123,0.05078,0.18066,0.13672,0.20508s0.24854,0.03711,0.48828,0.03711v0.25
				c-0.54443-0.01562-0.84375-0.02344-0.89844-0.02344c-0.0415,0-0.34229,0.00781-0.90234,0.02344v-0.25
				c0.28369,0,0.45898-0.01758,0.52539-0.05273s0.09961-0.13867,0.09961-0.31055v-1.86035
				c0-0.27051-0.04199-0.48535-0.12549-0.64551s-0.23975-0.24023-0.46973-0.24023c-0.27686,0-0.52588,0.11621-0.74756,0.34766
				c-0.22217,0.23145-0.33301,0.54199-0.33301,0.93164v1.4668c0,0.17188,0.0332,0.27539,0.1001,0.31055
				s0.2417,0.05273,0.5249,0.05273v0.25c-0.54541-0.01562-0.84424-0.02344-0.89648-0.02344
				C44.81787,42.86921,44.5166,42.87702,43.95557,42.89265z"/>
			<path d="M51.06494,42.89265v-0.25c0.28369,0,0.4585-0.01758,0.52344-0.05273s0.09766-0.13867,0.09766-0.31055v-4.15625
				c0-0.19824-0.03467-0.32129-0.10352-0.37109s-0.2417-0.07422-0.51758-0.07422v-0.25l1.14844-0.08594v4.9375
				c0,0.17188,0.03369,0.27539,0.10156,0.31055s0.24219,0.05273,0.52344,0.05273v0.25c-0.06494,0-0.16553-0.00293-0.30078-0.00781
				c-0.13525-0.00586-0.25244-0.00977-0.35156-0.01172c-0.09912-0.00293-0.17725-0.00391-0.23438-0.00391
				C51.88916,42.86921,51.59375,42.87702,51.06494,42.89265z"/>
			<path d="M53.104,42.89265v-0.25c0.28369,0,0.4585-0.01758,0.52344-0.05273s0.09766-0.13867,0.09766-0.31055v-2.14941
				c0-0.19727-0.0332-0.31934-0.09961-0.36621s-0.22998-0.07031-0.49023-0.07031v-0.25l1.11719-0.08594v2.92969
				c0,0.15918,0.02881,0.25781,0.08594,0.29688s0.21631,0.05859,0.47656,0.05859v0.25
				c-0.54443-0.01562-0.82178-0.02344-0.83203-0.02344C53.91016,42.86921,53.61719,42.87702,53.104,42.89265z M53.42822,37.96296
				c0-0.10645,0.04248-0.2041,0.12793-0.29102s0.18701-0.13086,0.30469-0.13086s0.21826,0.04004,0.30176,0.11914
				s0.125,0.18066,0.125,0.30469s-0.0415,0.22559-0.125,0.30469s-0.18359,0.11914-0.30078,0.11914
				c-0.12598,0-0.22949-0.04297-0.31104-0.12891S53.42822,38.07526,53.42822,37.96296z"/>
			<path d="M55.30713,42.89265v-0.25c0.28564,0,0.46094-0.01758,0.52686-0.05273c0.06543-0.03516,0.09814-0.13867,0.09814-0.31055
				v-2.1416c0-0.19727-0.03467-0.32031-0.104-0.37012c-0.06982-0.0498-0.24316-0.07422-0.521-0.07422v-0.25l1.12549-0.08594
				l-0.00049,0.83887c0.25049-0.55957,0.646-0.83887,1.18604-0.83887c0.40186,0,0.68213,0.09863,0.84082,0.29688
				c0.11768,0.13281,0.18848,0.27246,0.21338,0.4209s0.03711,0.41504,0.03711,0.7998v1.52539
				c0.00537,0.1123,0.05078,0.18066,0.13672,0.20508s0.24854,0.03711,0.48828,0.03711v0.25
				c-0.54443-0.01562-0.84375-0.02344-0.89844-0.02344c-0.0415,0-0.34229,0.00781-0.90234,0.02344v-0.25
				c0.28369,0,0.45898-0.01758,0.52539-0.05273s0.09961-0.13867,0.09961-0.31055v-1.86035
				c0-0.27051-0.04199-0.48535-0.12549-0.64551s-0.23975-0.24023-0.46973-0.24023c-0.27686,0-0.52588,0.11621-0.74756,0.34766
				c-0.22217,0.23145-0.33301,0.54199-0.33301,0.93164v1.4668c0,0.17188,0.0332,0.27539,0.1001,0.31055
				s0.2417,0.05273,0.5249,0.05273v0.25c-0.54541-0.01562-0.84424-0.02344-0.89648-0.02344
				C56.16943,42.86921,55.86816,42.87702,55.30713,42.89265z"/>
			<path d="M59.71338,41.13093c0-0.50195,0.16162-0.93262,0.48438-1.28906s0.71631-0.53516,1.17969-0.53516
				c0.46875,0,0.82471,0.15137,1.06836,0.45508c0.24365,0.30273,0.36523,0.67188,0.36523,1.10742
				c0,0.08398-0.01025,0.13477-0.03125,0.15137s-0.07666,0.02441-0.16797,0.02441h-2.23438
				c0,0.5459,0.08057,0.94629,0.24219,1.20215c0.22412,0.35742,0.5249,0.53613,0.90234,0.53613
				c0.05225,0,0.11035-0.00488,0.17285-0.01562c0.06299-0.01074,0.15918-0.03809,0.2876-0.08398s0.24902-0.12988,0.36182-0.25293
				c0.11279-0.12207,0.20215-0.28027,0.26758-0.47363c0.01514-0.0752,0.04785-0.1123,0.09766-0.10938
				c0.06787,0,0.10156,0.03125,0.10156,0.09375c0,0.04688-0.02539,0.12305-0.07617,0.22852
				c-0.05078,0.10449-0.12451,0.21973-0.2207,0.34473s-0.23779,0.2334-0.42383,0.32715s-0.39111,0.14062-0.61523,0.14062
				c-0.46875,0-0.87939-0.17773-1.23242-0.5332S59.71338,41.65437,59.71338,41.13093z M60.38525,40.86921h1.89844
				c0-0.11133-0.00977-0.22949-0.0293-0.35449s-0.05713-0.27344-0.11328-0.44629c-0.05615-0.17188-0.14893-0.31348-0.2793-0.42188
				c-0.13037-0.10938-0.2915-0.16406-0.48438-0.16406c-0.08594,0-0.17529,0.01855-0.26758,0.05469s-0.19482,0.09863-0.30664,0.18652
				c-0.11182,0.08887-0.20703,0.23242-0.28516,0.43262S60.39551,40.59382,60.38525,40.86921z"/>
		</g>
		<g>
			<path d="M32.09131,7.89265v-0.25h0.19141c0.28906,0,0.4668-0.02441,0.5332-0.07227s0.09961-0.15039,0.09961-0.30664V3.0528
				c0-0.1543-0.03369-0.25488-0.10156-0.30273S32.56934,2.6778,32.28271,2.6778h-0.19141v-0.25h2.92578
				c0.68213,0,1.26123,0.27148,1.73633,0.81543s0.71289,1.19727,0.71289,1.95996c0,0.74805-0.23877,1.38281-0.7168,1.90527
				s-1.05518,0.78418-1.73242,0.78418H32.09131z M33.60303,7.32233c0,0.13867,0.01953,0.22559,0.05859,0.26367
				s0.1499,0.05664,0.33203,0.05664h0.80859c0.35156,0,0.646-0.07227,0.88281-0.2168s0.4165-0.2998,0.53906-0.46582
				c0.29443-0.40137,0.44141-0.98633,0.44141-1.75684c0-0.80957-0.13818-1.4043-0.41406-1.78418
				c-0.35693-0.49414-0.84229-0.74121-1.45703-0.74121h-0.80078c-0.18213,0-0.29297,0.01855-0.33203,0.05469
				s-0.05859,0.125-0.05859,0.26562V7.32233z"/>
			<path d="M38.24756,7.128c0-0.4541,0.27197-0.80078,0.81592-1.04102c0.32617-0.15332,0.82666-0.25098,1.50049-0.29199V5.503
				c0-0.33008-0.09131-0.58203-0.27393-0.75781c-0.18213-0.1748-0.38867-0.2627-0.61963-0.2627
				c-0.39453,0-0.68701,0.12402-0.87646,0.37109c0.15283,0.00488,0.25732,0.04785,0.31201,0.12695
				c0.05566,0.0791,0.08301,0.15918,0.08301,0.24023c0,0.10645-0.03223,0.19434-0.0957,0.26367
				c-0.06445,0.06934-0.1499,0.10352-0.25781,0.10352c-0.10303,0-0.18799-0.0332-0.25586-0.09961s-0.10156-0.1582-0.10156-0.27539
				c0-0.26074,0.11768-0.47656,0.35303-0.64844s0.52051-0.25781,0.85596-0.25781c0.45215,0,0.82861,0.14648,1.12988,0.44043
				c0.09375,0.09082,0.16455,0.19434,0.21143,0.31152c0.04736,0.11719,0.07324,0.21387,0.07861,0.29004
				c0.00537,0.07715,0.00781,0.19043,0.00781,0.34082v1.59863c0,0.03125,0.00488,0.07227,0.01562,0.125
				c0.01025,0.05176,0.03906,0.11035,0.08691,0.17676s0.1123,0.09961,0.19238,0.09961c0.19141,0,0.28564-0.16992,0.2832-0.51074
				V6.73054h0.19922v0.4502c0,0.28418-0.07422,0.48145-0.22217,0.59277c-0.14844,0.11035-0.29053,0.16602-0.42725,0.16602
				c-0.17676,0-0.32129-0.06543-0.43311-0.19629s-0.17529-0.28516-0.19092-0.46289c-0.08496,0.2041-0.22363,0.37207-0.41699,0.50391
				c-0.19287,0.13184-0.42041,0.19824-0.68359,0.19824c-0.19092,0-0.37598-0.02441-0.55566-0.07227
				c-0.17969-0.04883-0.34375-0.13965-0.49219-0.27441S38.24756,7.3321,38.24756,7.128z M38.91162,7.12018
				c0,0.2002,0.06494,0.36426,0.19482,0.49316s0.28662,0.19336,0.46924,0.19336c0.23633,0,0.45996-0.08691,0.67139-0.26074
				c0.21143-0.17285,0.31689-0.43066,0.31689-0.77246V5.97077c-0.58984,0.02051-1.0127,0.14844-1.26855,0.38379
				S38.91162,6.84479,38.91162,7.12018z"/>
			<path d="M42.06396,4.69343V4.51765c0.24463-0.01074,0.44873-0.10254,0.61133-0.27539s0.27197-0.36621,0.32812-0.58008
				s0.08643-0.44434,0.0918-0.69141h0.19922v1.47266h1.14453v0.25h-1.14453v2.22559c0,0.57617,0.17969,0.86426,0.53906,0.86426
				c0.15381,0,0.28125-0.0791,0.38281-0.23633c0.10156-0.1582,0.15234-0.37793,0.15234-0.65918V6.44538h0.19922v0.45703
				c0,0.28809-0.06641,0.54102-0.19922,0.75586c-0.13281,0.2168-0.33057,0.32422-0.59375,0.32422
				c-0.09619,0-0.19189-0.0127-0.28711-0.03711s-0.20459-0.06934-0.32812-0.13281s-0.22412-0.1748-0.30078-0.33203
				s-0.11523-0.35059-0.11523-0.58008V4.69343H42.06396z"/>
			<path d="M45.34912,7.128c0-0.4541,0.27197-0.80078,0.81592-1.04102c0.32617-0.15332,0.82666-0.25098,1.50049-0.29199V5.503
				c0-0.33008-0.09131-0.58203-0.27393-0.75781c-0.18213-0.1748-0.38867-0.2627-0.61963-0.2627
				c-0.39453,0-0.68701,0.12402-0.87646,0.37109c0.15283,0.00488,0.25732,0.04785,0.31201,0.12695
				c0.05566,0.0791,0.08301,0.15918,0.08301,0.24023c0,0.10645-0.03223,0.19434-0.0957,0.26367
				c-0.06445,0.06934-0.1499,0.10352-0.25781,0.10352c-0.10303,0-0.18799-0.0332-0.25586-0.09961s-0.10156-0.1582-0.10156-0.27539
				c0-0.26074,0.11768-0.47656,0.35303-0.64844s0.52051-0.25781,0.85596-0.25781c0.45215,0,0.82861,0.14648,1.12988,0.44043
				c0.09375,0.09082,0.16455,0.19434,0.21143,0.31152c0.04736,0.11719,0.07324,0.21387,0.07861,0.29004
				c0.00537,0.07715,0.00781,0.19043,0.00781,0.34082v1.59863c0,0.03125,0.00488,0.07227,0.01562,0.125
				c0.01025,0.05176,0.03906,0.11035,0.08691,0.17676s0.1123,0.09961,0.19238,0.09961c0.19141,0,0.28564-0.16992,0.2832-0.51074
				V6.73054h0.19922v0.4502c0,0.28418-0.07422,0.48145-0.22217,0.59277c-0.14844,0.11035-0.29053,0.16602-0.42725,0.16602
				c-0.17676,0-0.32129-0.06543-0.43311-0.19629s-0.17529-0.28516-0.19092-0.46289c-0.08496,0.2041-0.22363,0.37207-0.41699,0.50391
				c-0.19287,0.13184-0.42041,0.19824-0.68359,0.19824c-0.19092,0-0.37598-0.02441-0.55566-0.07227
				c-0.17969-0.04883-0.34375-0.13965-0.49219-0.27441S45.34912,7.3321,45.34912,7.128z M46.01318,7.12018
				c0,0.2002,0.06494,0.36426,0.19482,0.49316s0.28662,0.19336,0.46924,0.19336c0.23633,0,0.45996-0.08691,0.67139-0.26074
				c0.21143-0.17285,0.31689-0.43066,0.31689-0.77246V5.97077c-0.58984,0.02051-1.0127,0.14844-1.26855,0.38379
				S46.01318,6.84479,46.01318,7.12018z"/>
			<path d="M51.896,9.19343c0.28369,0,0.45898-0.01758,0.52539-0.05273S52.521,9.003,52.521,8.83405V5.09186
				c0-0.17773-0.0332-0.28809-0.09961-0.33203s-0.2417-0.06641-0.52539-0.06641v-0.25l1.15234-0.08594v0.52734
				c0.32031-0.35156,0.69385-0.52734,1.12109-0.52734c0.45312,0,0.84521,0.17578,1.17578,0.52832
				c0.33057,0.35156,0.49609,0.7793,0.49609,1.28223c0,0.50684-0.17578,0.93652-0.52734,1.28809
				c-0.35156,0.35059-0.771,0.52637-1.25781,0.52637c-0.26562,0-0.48779-0.06836-0.66602-0.2041s-0.28467-0.25391-0.31836-0.35449
				v0.07324V8.836c0,0.1709,0.03369,0.27344,0.10156,0.30664c0.06787,0.03418,0.24219,0.05078,0.52344,0.05078v0.25
				c-0.56006-0.01562-0.86084-0.02344-0.90234-0.02344c-0.05225,0-0.35156,0.00781-0.89844,0.02344V9.19343z M53.07178,6.98542
				c0,0.08105,0.00586,0.13574,0.01758,0.16406c0.01172,0.0293,0.04346,0.08594,0.0957,0.17188
				c0.21094,0.32324,0.48828,0.48535,0.83203,0.48535c0.00244,0,0.00537,0,0.00781,0c0.30469,0,0.57275-0.15625,0.80469-0.46777
				s0.34766-0.70215,0.34766-1.1709c0-0.44824-0.10547-0.8291-0.31641-1.1416c-0.21094-0.31348-0.4624-0.46973-0.75391-0.46973
				c-0.2085,0-0.40381,0.05566-0.58594,0.16797s-0.33203,0.26953-0.44922,0.47363V6.98542z"/>
			<path d="M56.86279,7.46198c-0.35303-0.34668-0.5293-0.77441-0.5293-1.28223s0.17236-0.94629,0.51758-1.31738
				c0.34521-0.37012,0.76514-0.55566,1.25977-0.55566c0.48438,0,0.90039,0.18457,1.24805,0.55273s0.52148,0.80957,0.52148,1.32227
				c0,0.50293-0.17529,0.92871-0.52539,1.27734s-0.76758,0.52344-1.25195,0.52344
				C57.62891,7.98249,57.21582,7.80866,56.86279,7.46198z M56.99756,6.1153c0,0.51953,0.06787,0.89648,0.20312,1.13184
				c0.2085,0.35742,0.51172,0.53613,0.91016,0.53613c0.19775,0,0.37939-0.05371,0.54492-0.16016
				c0.16553-0.10742,0.29346-0.25098,0.38477-0.43066c0.11719-0.23535,0.17578-0.59473,0.17578-1.07715
				c0-0.51465-0.07031-0.88477-0.21094-1.1123c-0.2085-0.34668-0.50928-0.52051-0.90234-0.52051
				c-0.17188,0-0.3418,0.04492-0.50977,0.13477c-0.16797,0.09082-0.30273,0.22461-0.4043,0.40137
				C57.06152,5.25397,56.99756,5.61921,56.99756,6.1153z"/>
			<path d="M60.37646,7.89265v-0.25c0.28369,0,0.4585-0.01758,0.52344-0.05273s0.09766-0.13867,0.09766-0.31055V5.12995
				c0-0.19727-0.0332-0.31934-0.09961-0.36621s-0.22998-0.07031-0.49023-0.07031v-0.25l1.11719-0.08594v2.92969
				c0,0.15918,0.02881,0.25781,0.08594,0.29688s0.21631,0.05859,0.47656,0.05859v0.25
				c-0.54443-0.01562-0.82178-0.02344-0.83203-0.02344C61.18262,7.86921,60.88965,7.87702,60.37646,7.89265z M60.70068,2.96296
				c0-0.10645,0.04248-0.2041,0.12793-0.29102s0.18701-0.13086,0.30469-0.13086s0.21826,0.04004,0.30176,0.11914
				s0.125,0.18066,0.125,0.30469s-0.0415,0.22559-0.125,0.30469s-0.18359,0.11914-0.30078,0.11914
				c-0.12598,0-0.22949-0.04297-0.31104-0.12891S60.70068,3.07526,60.70068,2.96296z"/>
			<path d="M62.57959,7.89265v-0.25c0.28564,0,0.46094-0.01758,0.52686-0.05273c0.06543-0.03516,0.09814-0.13867,0.09814-0.31055
				v-2.1416c0-0.19727-0.03467-0.32031-0.104-0.37012c-0.06982-0.0498-0.24316-0.07422-0.521-0.07422v-0.25l1.12549-0.08594
				l-0.00049,0.83887c0.25049-0.55957,0.646-0.83887,1.18604-0.83887c0.40186,0,0.68213,0.09863,0.84082,0.29688
				c0.11768,0.13281,0.18848,0.27246,0.21338,0.4209s0.03711,0.41504,0.03711,0.7998v1.52539
				c0.00537,0.1123,0.05078,0.18066,0.13672,0.20508s0.24854,0.03711,0.48828,0.03711v0.25
				c-0.54443-0.01562-0.84375-0.02344-0.89844-0.02344c-0.0415,0-0.34229,0.00781-0.90234,0.02344v-0.25
				c0.28369,0,0.45898-0.01758,0.52539-0.05273s0.09961-0.13867,0.09961-0.31055V5.41901c0-0.27051-0.04199-0.48535-0.12549-0.64551
				s-0.23975-0.24023-0.46973-0.24023c-0.27686,0-0.52588,0.11621-0.74756,0.34766
				c-0.22217,0.23145-0.33301,0.54199-0.33301,0.93164v1.4668c0,0.17188,0.0332,0.27539,0.1001,0.31055
				s0.2417,0.05273,0.5249,0.05273v0.25c-0.54541-0.01562-0.84424-0.02344-0.89648-0.02344
				C63.44189,7.86921,63.14062,7.87702,62.57959,7.89265z"/>
			<path d="M66.91553,4.69343V4.51765c0.24463-0.01074,0.44873-0.10254,0.61133-0.27539s0.27197-0.36621,0.32812-0.58008
				s0.08643-0.44434,0.0918-0.69141H68.146v1.47266h1.14453v0.25H68.146v2.22559c0,0.57617,0.17969,0.86426,0.53906,0.86426
				c0.15381,0,0.28125-0.0791,0.38281-0.23633c0.10156-0.1582,0.15234-0.37793,0.15234-0.65918V6.44538h0.19922v0.45703
				c0,0.28809-0.06641,0.54102-0.19922,0.75586c-0.13281,0.2168-0.33057,0.32422-0.59375,0.32422
				c-0.09619,0-0.19189-0.0127-0.28711-0.03711s-0.20459-0.06934-0.32812-0.13281s-0.22412-0.1748-0.30078-0.33203
				s-0.11523-0.35059-0.11523-0.58008V4.69343H66.91553z"/>
		</g>
		<g>
			<defs>
				<rect id="SVGID_5_" y="-2.71399" width="208.59802" height="89.05002"/>
			</defs>
			<clipPath id="SVGID_6_">
				<use xlink:href="#SVGID_5_"  style="overflow:visible;"/>
			</clipPath>
		</g>
		<g>
			<defs>
				<rect id="SVGID_7_" y="-2.71399" width="208.59802" height="89.05002"/>
			</defs>
			<clipPath id="SVGID_8_">
				<use xlink:href="#SVGID_7_"  style="overflow:visible;"/>
			</clipPath>
		</g>
		<g>
			<defs>
				<rect id="SVGID_9_" y="-2.71399" width="208.59802" height="89.05002"/>
			</defs>
			<clipPath id="SVGID_10_">
				<use xlink:href="#SVGID_9_"  style="overflow:visible;"/>
			</clipPath>
		</g>
		<polygon class="st8" points="105.27629,-1.76525 105.27639,-1.76537 105.2764,-1.76534 105.27641,-1.76535 105.27636,-1.7653 
			105.27637,-1.76533 105.27641,-1.76535 105.27634,-1.76536 105.27636,-1.76531 105.27635,-1.76531 105.2764,-1.76535 
			105.27637,-1.76535 105.27634,-1.7653 105.27639,-1.76535 105.27637,-1.76532 105.27634,-1.76532 105.27641,-1.76532 
			105.27637,-1.76532 105.27638,-1.76536 105.27636,-1.76533 105.27638,-1.76531 105.27641,-1.76531 105.27639,-1.76535 
			105.27641,-1.76536 105.27639,-1.76531 105.2764,-1.76536 105.27636,-1.76536 105.27637,-1.76529 105.27641,-1.76536 
			105.27634,-1.76533 105.27634,-1.76536 105.27641,-1.76536 105.2764,-1.76533 105.27634,-1.76533 105.2764,-1.76536 
			105.27637,-1.76531 105.27635,-1.7653 105.27634,-1.76535 105.27636,-1.76533 105.27637,-1.76536 105.2764,-1.76533 
			105.27637,-1.76531 105.27637,-1.76536 105.27639,-1.7653 105.27641,-1.7653 105.27637,-1.76537 105.27637,-1.76533 
			105.27639,-1.76536 105.27638,-1.76531 105.27637,-1.76534 105.27636,-1.7653 105.2764,-1.76537 105.27639,-1.76536 
			105.27637,-1.76532 105.27637,-1.76533 105.27637,-1.76535 105.27637,-1.76535 105.2764,-1.76533 105.27639,-1.76536 
			105.27639,-1.76533 105.27641,-1.76532 105.2764,-1.76536 105.27636,-1.76536 105.27641,-1.76536 105.27641,-1.76533 
			105.27638,-1.76533 105.27639,-1.7653 105.27639,-1.7653 105.27634,-1.76532 105.27641,-1.76536 105.27636,-1.76533 
			105.27634,-1.76533 105.27639,-1.76532 105.27641,-1.76536 105.27637,-1.76529 105.27641,-1.76536 105.27636,-1.76531 
			105.27634,-1.76531 105.27637,-1.76537 105.2764,-1.76531 105.27637,-1.76532 105.27634,-1.76531 105.27634,-1.76536 
			105.27634,-1.76536 105.27637,-1.76537 105.27639,-1.76535 105.27634,-1.76529 105.27635,-1.76529 105.27641,-1.76535 		"/>
		<g>
			<defs>
				<rect id="SVGID_11_" x="75.02001" y="4.94438" width="24" height="9"/>
			</defs>
			<clipPath id="SVGID_12_">
				<use xlink:href="#SVGID_11_"  style="overflow:visible;"/>
			</clipPath>
			<path class="st9" d="M87.02001,9.44438L87.02001,9.44438z"/>
			<path class="st10" d="M77.3497,13.25219c0-0.025,0-0.04062-0.13438-0.175c-0.99375-1.00156-1.24687-2.50312-1.24687-3.72031
				c0-1.38125,0.30156-2.76406,1.27812-3.75781c0.10313-0.09532,0.10313-0.11094,0.10313-0.13594
				c0-0.05469-0.03125-0.07969-0.07812-0.07969c-0.07968,0-0.79531,0.54063-1.26406,1.55c-0.40469,0.875-0.5,1.75625-0.5,2.42344
				c0,0.62031,0.08594,1.58281,0.52344,2.47969c0.47656,0.97812,1.16094,1.49531,1.24062,1.49531
				C77.31845,13.33188,77.3497,13.30688,77.3497,13.25219"/>
			<path class="st10" d="M80.4747,8.94438c0.04688-0.20625,0.22969-0.9375,0.78594-0.9375c0.04062,0,0.23125,0,0.39843,0.10312
				c-0.22343,0.03907-0.38281,0.23907-0.38281,0.42969c0,0.12656,0.0875,0.27813,0.30313,0.27813
				c0.175,0,0.42812-0.14375,0.42812-0.46094c0-0.41406-0.46875-0.525-0.73906-0.525c-0.46095,0-0.73906,0.42187-0.83438,0.60469
				c-0.19843-0.525-0.62656-0.60469-0.85781-0.60469c-0.82656,0-1.27969,1.025-1.27969,1.22344
				c0,0.07968,0.0797,0.07968,0.09532,0.07968c0.06406,0,0.0875-0.01562,0.10312-0.0875
				c0.27031-0.84218,0.79531-1.04062,1.06564-1.04062c0.14999,0,0.42812,0.07187,0.42812,0.53281
				c0,0.24531-0.13437,0.77813-0.42812,1.89063c-0.12814,0.49218-0.40625,0.82656-0.75469,0.82656
				c-0.04844,0-0.23125,0-0.39844-0.10313c0.2-0.03906,0.37344-0.20625,0.37344-0.42968c0-0.21407-0.17344-0.27813-0.29375-0.27813
				c-0.2375,0-0.4375,0.20781-0.4375,0.46094c0,0.36562,0.39844,0.525,0.74844,0.525c0.52343,0,0.80937-0.55625,0.83437-0.60469
				c0.09531,0.29531,0.38125,0.60469,0.85781,0.60469c0.81875,0,1.27187-1.025,1.27187-1.22344
				c0-0.07969-0.07188-0.07969-0.09531-0.07969c-0.07188,0-0.0875,0.03125-0.10313,0.0875
				c-0.2625,0.85-0.80312,1.04063-1.05782,1.04063c-0.30938,0-0.4375-0.25469-0.4375-0.525c0-0.175,0.04844-0.34844,0.13594-0.69844
				L80.4747,8.94438"/>
			<path class="st10" d="M83.70282,12.82094c-0.09531,0.39063-0.39531,0.71875-0.72812,0.71875
				c-0.07344,0-0.14219-0.01094-0.20469-0.03438c0.14688-0.06719,0.19219-0.20312,0.19219-0.2875
				c0-0.13594-0.10625-0.20937-0.22031-0.20937c-0.175,0-0.32188,0.15156-0.32188,0.33281
				c0,0.21562,0.22031,0.35625,0.55938,0.35625c0.33906,0,1.00156-0.20312,1.17656-0.89375l0.50937-2.02343
				c0.01719-0.0625,0.02813-0.1125,0.02813-0.19844c0-0.31094-0.26562-0.53125-0.60469-0.53125
				c-0.62812,0-0.99062,0.78594-0.99062,0.86562c0,0.07344,0.07968,0.07344,0.09687,0.07344
				c0.06718,0,0.07344-0.01719,0.1125-0.10156c0.14219-0.32813,0.43594-0.67969,0.76406-0.67969
				c0.14063,0,0.19219,0.09688,0.19219,0.27813c0,0.0625-0.01094,0.14062-0.01719,0.16875L83.70282,12.82094 M84.90282,9.01
				c0-0.09531-0.07343-0.21406-0.22656-0.21406c-0.16406,0-0.31719,0.15781-0.31719,0.31094
				c0,0.09062,0.06876,0.21406,0.22657,0.21406C84.73876,9.32094,84.90282,9.17407,84.90282,9.01z"/>
			<path class="st10" d="M87.33251,11.33657c0-0.525-0.1984-0.83438-0.5078-0.83438c-0.2625,0-0.4219,0.19844-0.4219,0.42031
				c0,0.21563,0.15939,0.42188,0.4219,0.42188c0.0953,0,0.19839-0.03125,0.2781-0.10313
				c0.0235-0.01562,0.0313-0.02343,0.0391-0.02343c0.0078,0,0.0172,0.00781,0.0172,0.11875c0,0.5875-0.2782,1.06406-0.5407,1.32656
				c-0.0875,0.0875-0.0875,0.10312-0.0875,0.12812c0,0.05469,0.0391,0.0875,0.0797,0.0875
				C86.69811,12.87875,87.33251,12.26625,87.33251,11.33657"/>
			<path class="st10" d="M93.18251,8.31625c0.0313-0.11093,0.0313-0.12656,0.0313-0.18281c0-0.14219-0.111-0.21406-0.2297-0.21406
				c-0.0797,0-0.2078,0.04687-0.27821,0.16719c-0.0171,0.03906-0.0796,0.28593-0.1125,0.42812
				c-0.0546,0.20781-0.1109,0.42188-0.1578,0.63594l-0.3578,1.43125c-0.0312,0.11875-0.3734,0.675-0.8984,0.675
				c-0.4047,0-0.4922-0.35-0.4922-0.64375c0-0.36563,0.1344-0.85781,0.4047-1.55781c0.1281-0.325,0.1594-0.4125,0.1594-0.57188
				c0-0.35781-0.2547-0.65156-0.6516-0.65156c-0.7547,0-1.05,1.15156-1.05,1.22344c0,0.07968,0.0797,0.07968,0.0969,0.07968
				c0.0781,0,0.0859-0.01562,0.1265-0.14218c0.2141-0.74844,0.53281-0.98594,0.80321-0.98594c0.0625,0,0.19839,0,0.19839,0.25469
				c0,0.19843-0.0797,0.40468-0.13589,0.55625c-0.31721,0.84218-0.46101,1.29531-0.46101,1.66875
				c0,0.70625,0.5016,0.94531,0.9703,0.94531c0.3094,0,0.5797-0.13594,0.80161-0.35781
				c-0.1031,0.41406-0.1984,0.80312-0.5156,1.22343c-0.2063,0.27032-0.5094,0.50157-0.875,0.50157
				c-0.111,0-0.4688-0.025-0.6032-0.33438c0.1266,0,0.22971,0,0.3422-0.09531c0.0782-0.07188,0.1578-0.175,0.1578-0.325
				c0-0.24688-0.214-0.27813-0.29369-0.27813c-0.1828,0-0.4453,0.12657-0.4453,0.51563c0,0.39687,0.35,0.69219,0.8422,0.69219
				c0.8187,0,1.6375-0.72344,1.8609-1.62188L93.18251,8.31625"/>
			<path class="st10" d="M94.50282,12.82094c-0.09531,0.39063-0.3953,0.71875-0.7281,0.71875
				c-0.0734,0-0.1422-0.01094-0.2047-0.03438c0.1469-0.06719,0.1922-0.20312,0.1922-0.2875c0-0.13594-0.1063-0.20937-0.2203-0.20937
				c-0.175,0-0.32191,0.15156-0.32191,0.33281c0,0.21562,0.22031,0.35625,0.5594,0.35625c0.339,0,1.0015-0.20312,1.1765-0.89375
				l0.5094-2.02343c0.0172-0.0625,0.02811-0.1125,0.02811-0.19844c0-0.31094-0.2656-0.53125-0.60461-0.53125
				c-0.6282,0-0.9907,0.78594-0.9907,0.86562c0,0.07344,0.0797,0.07344,0.0969,0.07344c0.0672,0,0.0734-0.01719,0.1125-0.10156
				c0.1422-0.32813,0.4359-0.67969,0.7641-0.67969c0.1406,0,0.1922,0.09688,0.1922,0.27813c0,0.0625-0.011,0.14062-0.0172,0.16875
				L94.50282,12.82094 M95.70281,9.01c0-0.09531-0.0734-0.21406-0.2265-0.21406c-0.1641,0-0.3172,0.15781-0.3172,0.31094
				c0,0.09062,0.0687,0.21406,0.2265,0.21406C95.53881,9.32094,95.70281,9.17407,95.70281,9.01z"/>
			<path class="st10" d="M98.81691,9.35688c0-0.61875-0.08749-1.58125-0.52499-2.47813
				c-0.4766-0.97812-1.1594-1.49531-1.23911-1.49531c-0.0484,0-0.0797,0.03281-0.0797,0.07969c0,0.025,0,0.04062,0.1516,0.18281
				c0.7781,0.7875,1.2312,2.05,1.2312,3.71094c0,1.35937-0.2937,2.75781-1.2796,3.75937
				c-0.1032,0.09531-0.1032,0.11094-0.1032,0.13594c0,0.04688,0.0313,0.07969,0.0797,0.07969c0.0797,0,0.7938-0.54063,1.2625-1.55
				C98.72161,10.90688,98.81691,10.02563,98.81691,9.35688"/>
		</g>
		<polygon class="st8" points="118.44963,12.69847 118.44973,12.69835 118.44974,12.69837 118.44975,12.69837 118.44974,12.6984 
			118.44968,12.69838 118.44968,12.69837 118.44974,12.69835 118.44974,12.69841 118.4497,12.6984 118.44974,12.69837 
			118.44971,12.69836 118.44971,12.69835 118.44973,12.69837 118.4497,12.69839 118.4497,12.69838 118.44973,12.69835 
			118.44975,12.69839 118.44968,12.69836 118.44974,12.6984 118.44974,12.69841 118.44968,12.69839 118.44975,12.69837 
			118.44971,12.69838 118.44975,12.69841 118.44974,12.69839 118.4497,12.69835 118.44973,12.6984 118.44971,12.69838 
			118.44973,12.69836 118.44975,12.69841 118.44975,12.69841 118.44971,12.69835 118.44973,12.6984 118.44973,12.6984 
			118.4497,12.69835 118.44974,12.6984 118.44968,12.69838 118.44975,12.69836 118.44974,12.69839 118.44971,12.69836 
			118.44971,12.69839 118.44968,12.69841 118.44974,12.69835 118.44971,12.69842 118.44968,12.69835 118.44973,12.69841 
			118.44971,12.69839 118.44975,12.69842 118.44975,12.6984 118.44974,12.69839 118.44968,12.69842 118.4497,12.69836 
			118.44971,12.69839 118.44974,12.69836 118.44971,12.69838 118.4497,12.69841 118.44971,12.69838 118.44973,12.6984 
			118.44973,12.6984 118.44972,12.69835 118.44975,12.69841 118.44971,12.69836 118.4497,12.69842 118.44974,12.69841 
			118.44968,12.69841 118.44968,12.69841 118.44975,12.69836 118.44968,12.69836 118.44968,12.69837 118.4497,12.69838 
			118.4497,12.69842 118.44968,12.6984 118.44971,12.69835 118.4497,12.69837 118.44971,12.69839 118.44974,12.69841 
			118.44971,12.69835 118.44973,12.69838 118.4497,12.69839 118.44968,12.69839 118.44971,12.69835 118.44975,12.69836 
			118.44971,12.69842 118.44973,12.69842 118.44968,12.69836 118.44975,12.69836 118.44973,12.69836 118.44975,12.69835 
			118.44975,12.69837 		"/>
		<g>
			<defs>
				<rect id="SVGID_13_" x="77.98019" y="19.48585" width="49" height="9"/>
			</defs>
			<clipPath id="SVGID_14_">
				<use xlink:href="#SVGID_13_"  style="overflow:visible;"/>
			</clipPath>
			<path class="st11" d="M102.48019,23.98585L102.48019,23.98585z"/>
			<path class="st12" d="M80.30988,27.79366c0-0.025,0-0.04062-0.13438-0.175c-0.99375-1.00156-1.24687-2.50312-1.24687-3.72031
				c0-1.38125,0.30156-2.76406,1.27812-3.75781c0.10313-0.09532,0.10313-0.11094,0.10313-0.13594
				c0-0.05469-0.03125-0.07969-0.07813-0.07969c-0.07967,0-0.7953,0.54063-1.26405,1.55c-0.40469,0.875-0.5,1.75625-0.5,2.42344
				c0,0.62031,0.08594,1.58281,0.52344,2.47969c0.47656,0.97812,1.16094,1.49531,1.24062,1.49531
				C80.27863,27.87335,80.30988,27.84835,80.30988,27.79366"/>
			<path class="st12" d="M83.43488,23.48585c0.04687-0.20625,0.22969-0.9375,0.78594-0.9375c0.04062,0,0.23125,0,0.39843,0.10312
				c-0.22343,0.03907-0.38281,0.23907-0.38281,0.42969c0,0.12656,0.0875,0.27813,0.30313,0.27813
				c0.175,0,0.42812-0.14375,0.42812-0.46094c0-0.41406-0.46875-0.525-0.73906-0.525c-0.46095,0-0.73907,0.42187-0.83438,0.60469
				c-0.19843-0.525-0.62656-0.60469-0.85781-0.60469c-0.82656,0-1.27969,1.025-1.27969,1.22344
				c0,0.07968,0.07969,0.07968,0.09532,0.07968c0.06406,0,0.0875-0.01562,0.10312-0.0875
				c0.27031-0.84218,0.79531-1.04062,1.06563-1.04062c0.15,0,0.42812,0.07187,0.42812,0.53281
				c0,0.24531-0.13437,0.77813-0.42812,1.89063c-0.12813,0.49218-0.40625,0.82656-0.75468,0.82656
				c-0.04844,0-0.23125,0-0.39845-0.10313c0.2-0.03906,0.37344-0.20625,0.37344-0.42968c0-0.21407-0.17344-0.27813-0.29375-0.27813
				c-0.2375,0-0.4375,0.20781-0.4375,0.46094c0,0.36562,0.39844,0.525,0.74844,0.525c0.52343,0,0.80937-0.55625,0.83437-0.60469
				c0.09531,0.29531,0.38125,0.60469,0.8578,0.60469c0.81876,0,1.27188-1.025,1.27188-1.22344
				c0-0.07969-0.07188-0.07969-0.09531-0.07969c-0.07188,0-0.0875,0.03125-0.10313,0.0875
				c-0.2625,0.85-0.80312,1.04063-1.05781,1.04063c-0.30938,0-0.4375-0.25469-0.4375-0.525c0-0.175,0.04844-0.34844,0.13594-0.69844
				L83.43488,23.48585"/>
			<path class="st12" d="M86.66299,27.36241c-0.09531,0.39063-0.39531,0.71875-0.72812,0.71875
				c-0.07344,0-0.14219-0.01094-0.20469-0.03438c0.14688-0.06719,0.19219-0.20312,0.19219-0.2875
				c0-0.13594-0.10625-0.20938-0.22031-0.20938c-0.175,0-0.32188,0.15156-0.32188,0.33281
				c0,0.21562,0.22031,0.35625,0.55938,0.35625c0.33906,0,1.00156-0.20312,1.17656-0.89375l0.50937-2.02343
				c0.01719-0.0625,0.02813-0.1125,0.02813-0.19844c0-0.31094-0.26562-0.53125-0.60469-0.53125
				c-0.62812,0-0.99062,0.78594-0.99062,0.86562c0,0.07344,0.07968,0.07344,0.09687,0.07344
				c0.06718,0,0.07344-0.01719,0.1125-0.10156c0.14219-0.32813,0.43594-0.67969,0.76406-0.67969
				c0.14063,0,0.19219,0.09688,0.19219,0.27813c0,0.0625-0.01094,0.14062-0.01719,0.16875L86.66299,27.36241 M87.863,23.55147
				c0-0.09531-0.07343-0.21406-0.22656-0.21406c-0.16406,0-0.31719,0.15781-0.31719,0.31094
				c0,0.09062,0.06876,0.21406,0.22657,0.21406C87.69894,23.86241,87.863,23.71554,87.863,23.55147z"/>
			<path class="st12" d="M90.29269,25.87804c0-0.525-0.1984-0.83438-0.5078-0.83438c-0.2625,0-0.42191,0.19844-0.42191,0.42031
				c0,0.21563,0.1594,0.42188,0.42191,0.42188c0.0953,0,0.19839-0.03125,0.2781-0.10313
				c0.0235-0.01562,0.0313-0.02343,0.0391-0.02343c0.0078,0,0.0172,0.00781,0.0172,0.11875c0,0.5875-0.2782,1.06406-0.5407,1.32656
				c-0.0875,0.0875-0.0875,0.10312-0.0875,0.12812c0,0.05469,0.0391,0.0875,0.0797,0.0875
				C89.65829,27.42022,90.29269,26.80772,90.29269,25.87804"/>
			<path class="st12" d="M93.43179,23.46241c0.0484-0.175,0.0484-0.19062,0.1203-0.27812
				c0.389-0.51719,0.7469-0.63594,0.9531-0.63594c0.2859,0,0.5016,0.2375,0.5016,0.74687c0,0.46875-0.2625,1.38282-0.4063,1.68438
				c-0.2625,0.53281-0.6281,0.81875-0.9375,0.81875c-0.2703,0-0.5328-0.21406-0.5328-0.80313c0-0.15,0-0.30156,0.1281-0.80156
				L93.43179,23.46241 M94.18018,20.45772c0-0.00781,0-0.0875-0.1047-0.0875c-0.1828,0-0.7625,0.06407-0.9687,0.07969
				c-0.0641,0.00781-0.1516,0.01563-0.1516,0.15938c0,0.09531,0.0719,0.09531,0.19061,0.09531
				c0.3828,0,0.3985,0.05469,0.3985,0.13437c0,0.05625-0.0719,0.32657-0.1125,0.49375l-0.6516,2.59063
				c-0.09531,0.39687-0.1266,0.52344-0.1266,0.80156c0,0.75625,0.4219,1.24844,1.0094,1.24844
				c0.9375,0,1.9156-1.18438,1.9156-2.32813c0-0.72343-0.42181-1.27187-1.0578-1.27187c-0.3656,0-0.69061,0.22969-0.9297,0.47656
				L94.18018,20.45772z"/>
			<path class="st12" d="M97.28648,27.04054c-0.26099,0-0.6047-0.15313-0.7188-0.61563
				c-0.0781-0.33437-0.0781-0.79844-0.0781-1.21562c0-0.41407,0-0.84375,0.0844-1.15469
				c0.1187-0.44688,0.4796-0.56563,0.71249-0.56563c0.3046,0,0.5984,0.1875,0.7015,0.51563
				c0.0891,0.30469,0.09531,0.7125,0.09531,1.20469c0,0.41718,0,0.83593-0.0734,1.19218
				C97.89738,26.91554,97.51299,27.04054,97.28648,27.04054 M98.59739,25.28272c0-0.62343-0.0734-1.06875-0.3328-1.46562
				c-0.175-0.25938-0.5266-0.48594-0.9781-0.48594c-1.3125,0-1.3125,1.54375-1.3125,1.95156c0,0.40625,0,1.91563,1.3125,1.91563
				C98.59739,27.19835,98.59739,25.68897,98.59739,25.28272z"/>
			<path class="st12" d="M104.23019,24.05772h2.2172c0.1109,0,0.2625,0,0.2625-0.15937c0-0.15781-0.1516-0.15781-0.2625-0.15781
				h-2.2172v-2.225c0-0.1125,0-0.2625-0.1594-0.2625c-0.1578,0-0.1578,0.15-0.1578,0.2625v2.225h-2.225
				c-0.1125,0-0.2625,0-0.2625,0.15781c0,0.15937,0.15,0.15937,0.2625,0.15937h2.225v2.225c0,0.1125,0,0.2625,0.1578,0.2625
				c0.1594,0,0.1594-0.15,0.1594-0.2625V24.05772"/>
			<path class="st12" d="M110.13178,23.46241c0.0484-0.175,0.0484-0.19062,0.1203-0.27812
				c0.389-0.51719,0.7469-0.63594,0.9531-0.63594c0.2859,0,0.5016,0.2375,0.5016,0.74687c0,0.46875-0.2625,1.38282-0.4063,1.68438
				c-0.2625,0.53281-0.6281,0.81875-0.9375,0.81875c-0.27029,0-0.5328-0.21406-0.5328-0.80313c0-0.15,0-0.30156,0.1281-0.80156
				L110.13178,23.46241 M110.88019,20.45772c0-0.00781,0-0.0875-0.1047-0.0875c-0.1828,0-0.7625,0.06407-0.9687,0.07969
				c-0.0641,0.00781-0.1516,0.01563-0.1516,0.15938c0,0.09531,0.0719,0.09531,0.1906,0.09531
				c0.3828,0,0.3985,0.05469,0.3985,0.13437c0,0.05625-0.0719,0.32657-0.1125,0.49375l-0.6516,2.59063
				c-0.0953,0.39687-0.1266,0.52344-0.1266,0.80156c0,0.75625,0.42191,1.24844,1.0094,1.24844
				c0.9375,0,1.9156-1.18438,1.9156-2.32813c0-0.72343-0.4218-1.27187-1.0578-1.27187c-0.3656,0-0.6906,0.22969-0.9297,0.47656
				L110.88019,20.45772z"/>
			<path class="st12" d="M114.27399,23.48897c0-0.15156-0.011-0.15781-0.1688-0.15781c-0.3625,0.35625-0.8766,0.3625-1.1094,0.3625
				v0.20313c0.13599,0,0.5094,0,0.8203-0.15782v2.88282c0,0.1875,0,0.26093-0.5656,0.26093h-0.214v0.20313
				c0.1015-0.00625,0.7968-0.02188,1.0062-0.02188c0.175,0,0.8875,0.01563,1.0125,0.02188v-0.20313h-0.2156
				c-0.5656,0-0.5656-0.07343-0.5656-0.26093V23.48897"/>
			<path class="st12" d="M118.63489,23.48585c0.0469-0.20625,0.2297-0.9375,0.7859-0.9375c0.0407,0,0.2313,0,0.3985,0.10312
				c-0.2235,0.03907-0.3828,0.23907-0.3828,0.42969c0,0.12656,0.0875,0.27813,0.3031,0.27813c0.175,0,0.4281-0.14375,0.4281-0.46094
				c0-0.41406-0.4687-0.525-0.7391-0.525c-0.4609,0-0.73901,0.42187-0.8343,0.60469c-0.1985-0.525-0.62659-0.60469-0.8578-0.60469
				c-0.8266,0-1.2797,1.025-1.2797,1.22344c0,0.07968,0.0797,0.07968,0.0953,0.07968c0.064,0,0.0875-0.01562,0.1031-0.0875
				c0.27029-0.84218,0.7953-1.04062,1.0656-1.04062c0.15,0,0.4282,0.07187,0.4282,0.53281c0,0.24531-0.1344,0.77813-0.4282,1.89063
				c-0.1281,0.49218-0.4062,0.82656-0.7547,0.82656c-0.0484,0-0.2312,0-0.3984-0.10313c0.2-0.03906,0.3734-0.20625,0.3734-0.42968
				c0-0.21407-0.1734-0.27813-0.2937-0.27813c-0.2375,0-0.4375,0.20781-0.4375,0.46094c0,0.36562,0.3984,0.525,0.7484,0.525
				c0.52351,0,0.8094-0.55625,0.8344-0.60469c0.0953,0.29531,0.3813,0.60469,0.8578,0.60469c0.81879,0,1.2719-1.025,1.2719-1.22344
				c0-0.07969-0.0719-0.07969-0.0953-0.07969c-0.0719,0-0.0875,0.03125-0.1031,0.0875c-0.2625,0.85-0.8032,1.04063-1.0579,1.04063
				c-0.3093,0-0.4375-0.25469-0.4375-0.525c0-0.175,0.0485-0.34844,0.136-0.69844L118.63489,23.48585"/>
			<path class="st12" d="M121.86298,27.36241c-0.0953,0.39063-0.39529,0.71875-0.7281,0.71875
				c-0.0734,0-0.1422-0.01094-0.2047-0.03438c0.1469-0.06719,0.1922-0.20312,0.1922-0.2875c0-0.13594-0.1063-0.20938-0.2203-0.20938
				c-0.175,0-0.3219,0.15156-0.3219,0.33281c0,0.21562,0.2203,0.35625,0.5594,0.35625c0.339,0,1.0015-0.20312,1.1765-0.89375
				l0.5094-2.02343c0.0172-0.0625,0.0281-0.1125,0.0281-0.19844c0-0.31094-0.26559-0.53125-0.6046-0.53125
				c-0.6282,0-0.9907,0.78594-0.9907,0.86562c0,0.07344,0.0797,0.07344,0.0969,0.07344c0.0672,0,0.0734-0.01719,0.1125-0.10156
				c0.1422-0.32813,0.4359-0.67969,0.7641-0.67969c0.14059,0,0.1922,0.09688,0.1922,0.27813c0,0.0625-0.011,0.14062-0.0172,0.16875
				L121.86298,27.36241 M123.06299,23.55147c0-0.09531-0.0734-0.21406-0.2265-0.21406c-0.1641,0-0.3172,0.15781-0.3172,0.31094
				c0,0.09062,0.0687,0.21406,0.2265,0.21406C122.89899,23.86241,123.06299,23.71554,123.06299,23.55147z"/>
			<path class="st12" d="M126.17709,23.89835c0-0.61875-0.0875-1.58125-0.525-2.47813
				c-0.4766-0.97812-1.1594-1.49531-1.2391-1.49531c-0.0484,0-0.0797,0.03281-0.0797,0.07969c0,0.025,0,0.04062,0.1516,0.18281
				c0.7781,0.7875,1.2312,2.05,1.2312,3.71094c0,1.35937-0.2937,2.75781-1.2796,3.75937
				c-0.1032,0.09531-0.1032,0.11094-0.1032,0.13594c0,0.04688,0.0313,0.07969,0.0797,0.07969c0.0797,0,0.7938-0.54063,1.2625-1.55
				C126.08179,25.44835,126.17709,24.5671,126.17709,23.89835"/>
		</g>
		<polygon class="st8" points="180.39847,61.74594 180.39857,61.74582 180.39857,61.74585 180.39859,61.74584 180.39853,61.7459 
			180.39859,61.74584 180.39854,61.74585 180.39859,61.74583 180.39857,61.74587 180.39854,61.74588 180.39857,61.74584 
			180.39856,61.74584 180.39853,61.74586 180.39859,61.74583 180.39854,61.74587 180.39856,61.74586 180.39853,61.74586 
			180.39853,61.74586 180.39859,61.74583 180.39854,61.74588 180.39859,61.74589 180.39854,61.74589 180.39853,61.74587 
			180.39857,61.74586 180.39851,61.74587 180.39857,61.74583 180.39853,61.74582 180.39857,61.7459 180.39856,61.74586 
			180.39857,61.74583 180.39859,61.74589 180.39851,61.7459 180.39857,61.7459 180.39853,61.74584 180.39853,61.74587 
			180.39854,61.74586 180.39854,61.74589 180.39853,61.74587 180.39853,61.74588 180.39854,61.74589 180.39857,61.74583 
			180.39854,61.74586 180.39851,61.74582 180.39853,61.74586 180.39859,61.74585 180.39854,61.74586 180.39853,61.74583 
			180.39854,61.7459 180.39854,61.74586 180.39857,61.74583 180.39854,61.74584 180.39857,61.74583 180.39859,61.74584 
			180.39853,61.74587 180.39854,61.74583 180.39854,61.74589 180.39854,61.74587 180.39854,61.74587 180.39851,61.74583 
			180.39854,61.74583 180.39856,61.74589 180.39859,61.74584 180.39854,61.74586 180.39853,61.74589 180.39853,61.74583 
			180.39857,61.74582 180.39859,61.74587 180.39854,61.74588 180.39853,61.74589 180.39857,61.74586 180.39854,61.74583 
			180.39856,61.74588 180.39859,61.74586 180.39857,61.74588 180.39854,61.74583 180.39853,61.7459 180.39853,61.74583 
			180.39854,61.74584 180.39857,61.74585 180.39851,61.74584 180.39854,61.74587 180.39854,61.7459 180.39859,61.74583 
			180.39859,61.74588 180.39859,61.74586 180.39854,61.74589 180.39854,61.74589 180.39853,61.7459 180.39859,61.74584 		"/>
		<g>
			<defs>
				<rect id="SVGID_15_" x="159.06447" y="57.56594" width="44" height="8"/>
			</defs>
			<clipPath id="SVGID_16_">
				<use xlink:href="#SVGID_15_"  style="overflow:visible;"/>
			</clipPath>
			<path class="st13" d="M181.06447,61.56594L181.06447,61.56594z"/>
			<path class="st14" d="M163.42697,60.73781c0.03125-0.11093,0.03125-0.12656,0.03125-0.18281
				c0-0.14219-0.11093-0.21406-0.22969-0.21406c-0.07968,0-0.20781,0.04687-0.27812,0.16719
				c-0.01718,0.03906-0.07968,0.28593-0.1125,0.42812c-0.05469,0.20781-0.11093,0.42188-0.15781,0.63594l-0.35782,1.43125
				c-0.03125,0.11875-0.37343,0.675-0.89842,0.675c-0.40469,0-0.4922-0.35-0.4922-0.64375
				c0-0.36563,0.13438-0.85781,0.40469-1.55781c0.12813-0.325,0.15938-0.4125,0.15938-0.57188
				c0-0.35781-0.2547-0.65156-0.65157-0.65156c-0.75468,0-1.05,1.15156-1.05,1.22344c0,0.07968,0.0797,0.07968,0.09688,0.07968
				c0.07812,0,0.08594-0.01562,0.12656-0.14218c0.21407-0.74844,0.53282-0.98594,0.80313-0.98594
				c0.0625,0,0.19844,0,0.19844,0.25469c0,0.19843-0.0797,0.40468-0.13594,0.55625
				c-0.31718,0.84218-0.46094,1.29531-0.46094,1.66875c0,0.70625,0.50157,0.94531,0.97032,0.94531
				c0.30937,0,0.57968-0.13594,0.80156-0.35781c-0.10313,0.41406-0.19844,0.80312-0.51564,1.22344
				c-0.20624,0.27031-0.50937,0.50156-0.875,0.50156c-0.11093,0-0.46875-0.02499-0.60312-0.33437
				c0.12657,0,0.22969,0,0.34219-0.09531c0.07812-0.07187,0.15781-0.175,0.15781-0.325c0-0.24688-0.21405-0.27813-0.29375-0.27813
				c-0.18282,0-0.44531,0.12657-0.44531,0.51563c0,0.39687,0.35001,0.69218,0.84218,0.69218
				c0.81876,0,1.63751-0.72343,1.86095-1.62188L163.42697,60.73781"/>
			<path class="st14" d="M171.43167,62.70969c0.1109,0,0.2625,0,0.2625-0.15938c0-0.15937-0.1516-0.15937-0.27029-0.15937h-4.74377
				c-0.12032,0-0.27031,0-0.27031,0.15937c0,0.15938,0.14999,0.15938,0.2625,0.15938H171.43167 M171.42387,61.1675
				c0.1187,0,0.27029,0,0.27029-0.15937c0-0.15938-0.1516-0.15938-0.2625-0.15938h-4.75938c-0.1125,0-0.2625,0-0.2625,0.15938
				c0,0.15937,0.14999,0.15937,0.27031,0.15937H171.42387z"/>
			<path class="st14" d="M175.51607,61.3425c0.0484-0.175,0.0484-0.19062,0.1203-0.27812
				c0.38901-0.51719,0.7469-0.63594,0.95311-0.63594c0.28589,0,0.5016,0.2375,0.5016,0.74687
				c0,0.46875-0.26251,1.38282-0.40631,1.68438c-0.2625,0.53281-0.6281,0.81875-0.9375,0.81875
				c-0.27029,0-0.53279-0.21406-0.53279-0.80313c0-0.15,0-0.30156,0.1281-0.80156L175.51607,61.3425 M176.26447,58.33781
				c0-0.00781,0-0.0875-0.10469-0.0875c-0.1828,0-0.7625,0.06407-0.9687,0.07969c-0.0641,0.00781-0.1516,0.01563-0.1516,0.15938
				c0,0.09531,0.0719,0.09531,0.1906,0.09531c0.3828,0,0.3985,0.05469,0.3985,0.13437c0,0.05625-0.0719,0.32657-0.1125,0.49375
				l-0.6516,2.59063c-0.09529,0.39687-0.1266,0.52344-0.1266,0.80156c0,0.75625,0.42191,1.24844,1.0094,1.24844
				c0.9375,0,1.9156-1.18438,1.9156-2.32813c0-0.72343-0.4218-1.27187-1.0578-1.27187c-0.3656,0-0.6906,0.22969-0.9297,0.47656
				L176.26447,58.33781z"/>
			<path class="st14" d="M179.47078,64.92063c-0.261,0-0.60471-0.15313-0.71881-0.61563
				c-0.07809-0.33437-0.07809-0.79844-0.07809-1.21562c0-0.41407,0-0.84375,0.0844-1.15469
				c0.1187-0.44688,0.4796-0.56563,0.71251-0.56563c0.3046,0,0.59839,0.1875,0.70149,0.51563
				c0.0891,0.30469,0.09531,0.7125,0.09531,1.20469c0,0.41718,0,0.83593-0.07341,1.19218
				C180.08168,64.79563,179.69727,64.92063,179.47078,64.92063 M180.78168,63.16281c0-0.62343-0.07341-1.06875-0.33281-1.46562
				c-0.17499-0.25938-0.5266-0.48594-0.97809-0.48594c-1.3125,0-1.3125,1.54375-1.3125,1.95156c0,0.40625,0,1.91563,1.3125,1.91563
				C180.78168,65.07845,180.78168,63.56906,180.78168,63.16281z"/>
			<path class="st14" d="M186.41447,61.93781h2.21719c0.1109,0,0.26251,0,0.26251-0.15937
				c0-0.15781-0.15161-0.15781-0.26251-0.15781h-2.21719v-2.225c0-0.1125,0-0.2625-0.15941-0.2625
				c-0.15779,0-0.15779,0.15-0.15779,0.2625v2.225h-2.22501c-0.1125,0-0.2625,0-0.2625,0.15781
				c0,0.15937,0.14999,0.15937,0.2625,0.15937h2.22501v2.225c0,0.1125,0,0.2625,0.15779,0.2625
				c0.15941,0,0.15941-0.15,0.15941-0.2625V61.93781"/>
			<path class="st14" d="M192.31607,61.3425c0.0484-0.175,0.0484-0.19062,0.1203-0.27812
				c0.38901-0.51719,0.7469-0.63594,0.95311-0.63594c0.28589,0,0.50159,0.2375,0.50159,0.74687
				c0,0.46875-0.2625,1.38282-0.4063,1.68438c-0.2625,0.53281-0.6281,0.81875-0.9375,0.81875
				c-0.27029,0-0.53279-0.21406-0.53279-0.80313c0-0.15,0-0.30156,0.1281-0.80156L192.31607,61.3425 M193.06447,58.33781
				c0-0.00781,0-0.0875-0.10469-0.0875c-0.1828,0-0.7625,0.06407-0.9687,0.07969c-0.0641,0.00781-0.1516,0.01563-0.1516,0.15938
				c0,0.09531,0.0719,0.09531,0.1906,0.09531c0.3828,0,0.3985,0.05469,0.3985,0.13437c0,0.05625-0.0719,0.32657-0.1125,0.49375
				l-0.6516,2.59063c-0.09531,0.39687-0.1266,0.52344-0.1266,0.80156c0,0.75625,0.42191,1.24844,1.0094,1.24844
				c0.9375,0,1.9156-1.18438,1.9156-2.32813c0-0.72343-0.4218-1.27187-1.0578-1.27187c-0.3656,0-0.6906,0.22969-0.9297,0.47656
				L193.06447,58.33781z"/>
			<path class="st14" d="M196.45827,61.36906c0-0.15156-0.01099-0.15781-0.16879-0.15781
				c-0.3625,0.35625-0.8766,0.3625-1.10941,0.3625v0.20313c0.136,0,0.5094,0,0.8203-0.15782v2.88282
				c0,0.18749,0,0.26093-0.5656,0.26093h-0.21399v0.20312c0.1015-0.00625,0.7968-0.02187,1.0062-0.02187
				c0.175,0,0.8875,0.01562,1.0125,0.02187v-0.20312h-0.21559c-0.56561,0-0.56561-0.07344-0.56561-0.26093V61.36906"/>
			<path class="st14" d="M200.81917,61.36594c0.04691-0.20625,0.22971-0.9375,0.7859-0.9375c0.0407,0,0.23131,0,0.3985,0.10312
				c-0.2235,0.03907-0.3828,0.23907-0.3828,0.42969c0,0.12656,0.08749,0.27813,0.3031,0.27813
				c0.175,0,0.4281-0.14375,0.4281-0.46094c0-0.41406-0.4687-0.525-0.73911-0.525c-0.46089,0-0.739,0.42187-0.83429,0.60469
				c-0.1985-0.525-0.6266-0.60469-0.8578-0.60469c-0.8266,0-1.27971,1.025-1.27971,1.22344
				c0,0.07968,0.07971,0.07968,0.09531,0.07968c0.064,0,0.08749-0.01562,0.1031-0.0875
				c0.27029-0.84218,0.7953-1.04062,1.0656-1.04062c0.14999,0,0.42819,0.07187,0.42819,0.53281
				c0,0.24531-0.1344,0.77813-0.42819,1.89063c-0.1281,0.49218-0.4062,0.82656-0.7547,0.82656c-0.0484,0-0.2312,0-0.39841-0.10313
				c0.20001-0.03906,0.3734-0.20625,0.3734-0.42968c0-0.21407-0.17339-0.27813-0.29369-0.27813
				c-0.2375,0-0.4375,0.20781-0.4375,0.46094c0,0.36562,0.39839,0.525,0.7484,0.525c0.5235,0,0.8094-0.55625,0.8344-0.60469
				c0.09531,0.29531,0.3813,0.60469,0.8578,0.60469c0.8188,0,1.2719-1.025,1.2719-1.22344c0-0.07969-0.0719-0.07969-0.09531-0.07969
				c-0.0719,0-0.08749,0.03125-0.10309,0.0875c-0.26251,0.85-0.80321,1.04063-1.05791,1.04063
				c-0.3093,0-0.4375-0.25469-0.4375-0.525c0-0.175,0.04851-0.34844,0.136-0.69844L200.81917,61.36594"/>
		</g>
	</g>
	<polygon class="st8" points="28.76545,4.17513 28.76555,4.17501 28.76555,4.17503 28.76556,4.17502 28.76554,4.175 
		28.76551,4.17502 28.7655,4.17505 28.76553,4.17504 28.76552,4.17505 28.76551,4.17506 28.76555,4.17503 28.76553,4.17502 
		28.7655,4.17502 28.7655,4.17503 28.76552,4.17503 28.76555,4.17504 28.76552,4.17506 28.76552,4.17505 28.7655,4.17505 
		28.76552,4.17507 28.76553,4.17503 28.76551,4.17507 28.76549,4.17502 28.76556,4.17507 28.76552,4.17505 28.76555,4.17508 
		28.7655,4.17505 28.76554,4.17508 28.76556,4.17503 28.7655,4.17501 28.76552,4.17501 28.76556,4.17508 28.76551,4.17505 
		28.76553,4.17505 28.76557,4.17504 28.76554,4.17507 28.76553,4.17508 28.7655,4.17506 28.76552,4.17507 28.76555,4.17503 
		28.76551,4.175 28.76553,4.17505 28.76556,4.17502 28.76553,4.17506 28.76552,4.175 28.76553,4.17502 28.76553,4.17504 
		28.76555,4.17502 28.76557,4.17504 28.76555,4.17502 28.76552,4.17508 28.76552,4.17501 28.76555,4.17501 28.76557,4.17508 
		28.76555,4.17507 28.76551,4.17506 28.76551,4.175 28.76553,4.175 28.76556,4.17507 28.7655,4.17502 28.76555,4.17505 
		28.76555,4.17508 28.76549,4.17504 28.76556,4.17508 28.76554,4.17502 28.76553,4.17506 28.76555,4.17504 28.76552,4.17504 
		28.76553,4.175 28.76555,4.17505 28.76557,4.17504 28.76552,4.17504 28.76553,4.17504 28.7655,4.17507 28.76556,4.17501 
		28.76551,4.17501 28.76557,4.17506 28.76555,4.17504 28.76552,4.17504 28.76552,4.17507 28.7655,4.17507 28.76557,4.17501 
		28.76556,4.17502 28.76555,4.17505 28.76553,4.17504 28.76551,4.17508 28.76557,4.17502 	"/>
	<g>
		<defs>
			<rect id="SVGID_17_" x="5.22239" y="0.89735" width="5" height="6"/>
		</defs>
		<clipPath id="SVGID_18_">
			<use xlink:href="#SVGID_17_"  style="overflow:visible;"/>
		</clipPath>
		<path class="st15" d="M7.72239,3.89735L7.72239,3.89735z"/>
		<path class="st16" d="M9.58489,2.06922c0.03125-0.11093,0.03125-0.12656,0.03125-0.18281
			c0-0.14219-0.11094-0.21406-0.22969-0.21406c-0.07968,0-0.20781,0.04687-0.27812,0.16719
			C9.09114,1.8786,9.02864,2.12547,8.99583,2.26766C8.94114,2.47547,8.88489,2.68954,8.83802,2.9036L8.4802,4.33485
			c-0.03125,0.11875-0.37343,0.675-0.89843,0.675c-0.40469,0-0.49219-0.35-0.49219-0.64375
			c0-0.36563,0.13437-0.85781,0.40469-1.55781c0.12812-0.325,0.15937-0.4125,0.15937-0.57188
			c0-0.35781-0.25469-0.65156-0.65156-0.65156c-0.75469,0-1.05,1.15156-1.05,1.22344c0,0.07968,0.07969,0.07968,0.09687,0.07968
			c0.07812,0,0.08594-0.01562,0.12656-0.14218c0.21407-0.74844,0.53281-0.98594,0.80312-0.98594c0.0625,0,0.19844,0,0.19844,0.25469
			c0,0.19843-0.07969,0.40468-0.13594,0.55625C6.72395,3.41297,6.5802,3.8661,6.5802,4.23954
			c0,0.70625,0.50157,0.94531,0.97032,0.94531c0.30937,0,0.57968-0.13594,0.80156-0.35781
			C8.24895,5.2411,8.15364,5.63016,7.83645,6.05048c-0.20625,0.27031-0.50937,0.50156-0.875,0.50156
			c-0.11093,0-0.46875-0.025-0.60312-0.33437c0.12656,0,0.22969,0,0.34219-0.09531c0.07812-0.07188,0.15781-0.175,0.15781-0.325
			c0-0.24688-0.21406-0.27813-0.29375-0.27813c-0.18281,0-0.44531,0.12657-0.44531,0.51563
			c0,0.39688,0.35001,0.69219,0.84219,0.69219c0.81875,0,1.6375-0.72344,1.86094-1.62188L9.58489,2.06922"/>
	</g>
	<polygon class="st8" points="207.9718,73.30751 207.97191,73.3074 207.97191,73.30742 207.97191,73.30741 207.97188,73.30746 
		207.97191,73.30741 207.97185,73.3074 207.97188,73.30746 207.97189,73.3074 207.97186,73.30745 207.97191,73.30741 
		207.97188,73.30741 207.97185,73.30744 207.97185,73.3074 207.97188,73.3074 207.97189,73.30743 207.97192,73.30745 
		207.97186,73.30743 207.97186,73.30743 207.97191,73.30741 207.97186,73.3074 207.97192,73.3074 207.97192,73.30745 
		207.97191,73.3074 207.97185,73.30743 207.97186,73.30739 207.97191,73.30746 207.97185,73.30743 207.97189,73.30746 
		207.97191,73.30741 207.97188,73.30741 207.97188,73.30746 207.97191,73.30743 207.97191,73.3074 207.97191,73.30746 
		207.97192,73.30743 207.97192,73.3074 207.97191,73.30741 207.97189,73.30746 207.97188,73.30743 207.97191,73.30743 
		207.97189,73.30746 207.97186,73.30743 207.97186,73.30744 207.97191,73.3074 207.97191,73.30746 207.97189,73.3074 
		207.97188,73.3074 207.97185,73.30743 207.97192,73.3074 207.97188,73.3074 207.97192,73.3074 207.97185,73.30743 
		207.97189,73.30746 207.97188,73.30739 207.97186,73.30743 207.97188,73.3074 207.97191,73.30745 207.97185,73.30743 
		207.97185,73.30744 207.97189,73.30741 207.97192,73.30746 207.97186,73.3074 207.97185,73.30742 207.97191,73.30745 
		207.97186,73.30746 207.97188,73.30743 207.97188,73.30746 207.97185,73.30741 207.97186,73.30744 207.97191,73.30739 
		207.97189,73.30741 207.97188,73.30743 207.97185,73.3074 207.97189,73.30743 207.97188,73.30745 207.97191,73.3074 
		207.97189,73.30743 207.97186,73.30744 207.97186,73.30745 207.97188,73.30739 207.97191,73.30746 207.97191,73.30743 
		207.97191,73.30744 207.97192,73.30743 207.97186,73.30746 207.97192,73.30741 	"/>
	<g>
		<defs>
			<rect id="SVGID_19_" x="206.1378" y="71.16351" width="5" height="4"/>
		</defs>
		<clipPath id="SVGID_20_">
			<use xlink:href="#SVGID_19_"  style="overflow:visible;"/>
		</clipPath>
		<path class="st17" d="M208.6378,73.16351L208.6378,73.16351z"/>
		<path class="st18" d="M209.2925,72.56351c0.04686-0.20625,0.22969-0.9375,0.78593-0.9375c0.04062,0,0.23125,0,0.39844,0.10312
			c-0.22343,0.03907-0.38281,0.23907-0.38281,0.42969c0,0.12656,0.08749,0.27813,0.30313,0.27813
			c0.17499,0,0.42812-0.14375,0.42812-0.46094c0-0.41406-0.46875-0.525-0.73906-0.525c-0.46094,0-0.73906,0.42188-0.83438,0.60469
			c-0.19843-0.525-0.62656-0.60469-0.8578-0.60469c-0.82657,0-1.27969,1.025-1.27969,1.22344
			c0,0.07968,0.07968,0.07968,0.09532,0.07968c0.06406,0,0.08749-0.01562,0.10312-0.0875
			c0.27031-0.84218,0.7953-1.04062,1.06563-1.04062c0.14999,0,0.42812,0.07187,0.42812,0.53281
			c0,0.24532-0.13437,0.77813-0.42812,1.89063c-0.12813,0.49219-0.40625,0.82656-0.7547,0.82656
			c-0.04843,0-0.23125,0-0.39844-0.10313c0.20001-0.03906,0.37344-0.20625,0.37344-0.42969
			c0-0.21407-0.17343-0.27813-0.29375-0.27813c-0.2375,0-0.4375,0.20782-0.4375,0.46095c0,0.36562,0.39844,0.52499,0.74844,0.52499
			c0.52342,0,0.80937-0.55624,0.83437-0.60468c0.09531,0.29531,0.38126,0.60468,0.8578,0.60468
			c0.81876,0,1.27188-1.02499,1.27188-1.22343c0-0.07969-0.07187-0.07969-0.09531-0.07969
			c-0.07188,0-0.08749,0.03125-0.10313,0.08749c-0.2625,0.85001-0.80312,1.04063-1.0578,1.04063
			c-0.30939,0-0.4375-0.25469-0.4375-0.525c0-0.175,0.04843-0.34844,0.13594-0.69844L209.2925,72.56351"/>
	</g>
	<polygon class="st8" points="33.87403,92.88287 33.87413,92.88275 33.87414,92.88277 33.87415,92.88277 33.87408,92.88283 
		33.87412,92.88276 33.87408,92.8828 33.87408,92.88276 33.87413,92.88283 33.8741,92.88281 33.87414,92.88277 33.87411,92.88277 
		33.87408,92.8828 33.87408,92.88276 33.8741,92.88275 33.87412,92.88278 33.87415,92.88277 33.8741,92.88282 33.87414,92.88277 
		33.87415,92.88282 33.87408,92.88281 33.87413,92.88282 33.8741,92.88279 33.87414,92.8828 33.87414,92.88275 33.87413,92.88284 
		33.8741,92.88283 33.87411,92.88282 33.87413,92.88284 33.87413,92.8828 33.87408,92.88279 33.87411,92.88277 33.87415,92.8828 
		33.8741,92.88277 33.87411,92.88277 33.87411,92.88283 33.8741,92.88277 33.87411,92.88283 33.87415,92.8828 33.87411,92.88277 
		33.87408,92.8828 33.8741,92.88277 33.87413,92.88282 33.87414,92.88276 33.87411,92.88275 33.8741,92.8828 33.87413,92.88277 
		33.87414,92.88277 33.87408,92.88277 33.87411,92.88282 33.87412,92.88276 33.8741,92.88277 33.87411,92.8828 33.8741,92.88279 
		33.87411,92.88279 33.87411,92.88277 33.87412,92.8828 33.87408,92.88277 33.87412,92.88277 33.87415,92.8828 33.87411,92.8828 
		33.87411,92.88282 33.87411,92.88282 33.87415,92.88277 33.87415,92.8828 33.87412,92.88276 33.8741,92.8828 33.87414,92.8828 
		33.87415,92.88279 33.87408,92.88277 33.87412,92.88279 33.87412,92.8828 33.87413,92.88279 33.87414,92.88282 33.87411,92.88282 
		33.87414,92.8828 33.87415,92.88281 33.8741,92.88282 33.87415,92.88277 33.87409,92.8828 33.8741,92.8828 33.87414,92.8828 
		33.87412,92.88283 33.87411,92.88282 33.87412,92.8828 33.87413,92.88277 33.87414,92.88277 33.87415,92.88281 	"/>
	<g>
		<defs>
			<rect id="SVGID_21_" x="32.08984" y="77.47762" width="8" height="6"/>
		</defs>
		<clipPath id="SVGID_22_">
			<use xlink:href="#SVGID_21_"  style="overflow:visible;"/>
		</clipPath>
		<path class="st19" d="M36.08984,80.47762L36.08984,80.47762z"/>
		<path class="st20" d="M35.24453,79.27762c0.04687-0.20625,0.22969-0.9375,0.78594-0.9375c0.04062,0,0.23125,0,0.39843,0.10312
			c-0.22343,0.03907-0.38281,0.23907-0.38281,0.42969c0,0.12656,0.0875,0.27813,0.30313,0.27813
			c0.175,0,0.42812-0.14375,0.42812-0.46094c0-0.41406-0.46875-0.525-0.73906-0.525c-0.46094,0-0.73906,0.42187-0.83438,0.60469
			c-0.19843-0.525-0.62656-0.60469-0.85781-0.60469c-0.82656,0-1.27969,1.025-1.27969,1.22344
			c0,0.07968,0.07969,0.07968,0.09532,0.07968c0.06406,0,0.0875-0.01562,0.10312-0.0875
			c0.27031-0.84218,0.79531-1.04062,1.06563-1.04062c0.15,0,0.42812,0.07187,0.42812,0.53281
			c0,0.24531-0.13437,0.77813-0.42812,1.89063c-0.12813,0.49218-0.40625,0.82656-0.75469,0.82656
			c-0.04844,0-0.23125,0-0.39844-0.10313c0.2-0.03905,0.37344-0.20625,0.37344-0.42968c0-0.21407-0.17344-0.27813-0.29375-0.27813
			c-0.2375,0-0.4375,0.20781-0.4375,0.46095c0,0.36562,0.39844,0.52499,0.74844,0.52499c0.52343,0,0.80937-0.55624,0.83437-0.60469
			c0.09531,0.29531,0.38125,0.60469,0.85781,0.60469c0.81875,0,1.27188-1.02499,1.27188-1.22343
			c0-0.0797-0.07188-0.0797-0.09531-0.0797c-0.07188,0-0.0875,0.03125-0.10313,0.0875c-0.2625,0.85-0.80312,1.04063-1.05781,1.04063
			c-0.30938,0-0.4375-0.25469-0.4375-0.525c0-0.175,0.04844-0.34844,0.13594-0.69844L35.24453,79.27762"/>
		<path class="st20" d="M39.08359,79.28074c0-0.15157-0.01094-0.15781-0.16875-0.15781
			c-0.3625,0.35625-0.87656,0.3625-1.10937,0.3625v0.20312c0.13593,0,0.50937,0,0.82031-0.15781v2.88282
			c0,0.18749,0,0.26093-0.56563,0.26093h-0.21406v0.20312c0.10156-0.00625,0.79688-0.02187,1.00625-0.02187
			c0.175,0,0.8875,0.01562,1.0125,0.02187v-0.20312h-0.21562c-0.56563,0-0.56563-0.07344-0.56563-0.26093V79.28074"/>
	</g>
	<polygon class="st8" points="70.91065,90.88373 70.91075,90.88361 70.91076,90.88364 70.91077,90.88363 70.91073,90.88361 
		70.91074,90.88366 70.91074,90.88367 70.91076,90.88366 70.91071,90.88366 70.91072,90.88367 70.91076,90.88363 70.91074,90.88363 
		70.91071,90.88363 70.91077,90.88362 70.91077,90.88363 70.91071,90.88367 70.91075,90.88364 70.91073,90.88364 70.91077,90.88363 
		70.91072,90.88366 70.91071,90.88361 70.91077,90.88361 70.91077,90.88367 70.91077,90.88361 70.91071,90.88365 70.91071,90.88361 
		70.91076,90.88368 70.91073,90.88367 70.91071,90.88361 70.91076,90.88368 70.91077,90.88366 70.91076,90.88363 70.91077,90.88363 
		70.91074,90.88361 70.91072,90.88362 70.91076,90.88367 70.91075,90.88364 70.91074,90.88367 70.91077,90.88361 70.91074,90.88364 
		70.91074,90.88362 70.91077,90.88362 70.91071,90.88367 70.91076,90.88361 70.91073,90.88361 70.91072,90.88366 70.91075,90.88364 
		70.91077,90.88363 70.91071,90.88364 70.91075,90.88362 70.91077,90.88363 70.91073,90.88365 70.91076,90.88365 70.91072,90.88362 
		70.91073,90.88365 70.91073,90.88362 70.91077,90.88363 70.9107,90.88364 70.91077,90.88365 70.91074,90.88364 70.91072,90.88368 
		70.91077,90.88362 70.91073,90.88368 70.91074,90.88366 70.91076,90.88365 70.91074,90.88364 70.91072,90.88365 70.91076,90.88367 
		70.91077,90.88364 70.91071,90.88362 70.91077,90.88364 70.91074,90.88364 70.91075,90.88363 70.91077,90.88364 70.91073,90.88364 
		70.91076,90.88367 70.91077,90.88367 70.91072,90.88361 70.91077,90.88362 70.91071,90.88365 70.91073,90.88365 70.91077,90.88365 
		70.91077,90.88368 70.91072,90.88361 70.91077,90.88364 70.91077,90.88361 70.91076,90.88364 70.91077,90.88367 	"/>
	<g>
		<defs>
			<rect id="SVGID_23_" x="69.16728" y="76.97762" width="8" height="7"/>
		</defs>
		<clipPath id="SVGID_24_">
			<use xlink:href="#SVGID_23_"  style="overflow:visible;"/>
		</clipPath>
		<path class="st21" d="M73.16728,80.47762L73.16728,80.47762z"/>
		<path class="st22" d="M72.32198,78.97762c0.04687-0.20625,0.22969-0.9375,0.78593-0.9375c0.04063,0,0.23125,0,0.39844,0.10312
			c-0.22343,0.03907-0.38281,0.23907-0.38281,0.4297c0,0.12656,0.0875,0.27813,0.30313,0.27813
			c0.175,0,0.42812-0.14375,0.42812-0.46095c0-0.41405-0.46875-0.52499-0.73906-0.52499c-0.46094,0-0.73906,0.42187-0.83438,0.60468
			c-0.19843-0.52499-0.62656-0.60468-0.85781-0.60468c-0.82655,0-1.27969,1.02499-1.27969,1.22343
			c0,0.07968,0.07969,0.07968,0.09532,0.07968c0.06406,0,0.08749-0.01562,0.10312-0.0875
			c0.27031-0.84218,0.79531-1.04062,1.06563-1.04062c0.15,0,0.42812,0.07187,0.42812,0.53281
			c0,0.24531-0.13438,0.77813-0.42812,1.89062c-0.12813,0.49218-0.40625,0.82656-0.75469,0.82656
			c-0.04844,0-0.23125,0-0.39844-0.10313c0.2-0.03906,0.37344-0.20625,0.37344-0.42968c0-0.21407-0.17345-0.27813-0.29375-0.27813
			c-0.2375,0-0.4375,0.20781-0.4375,0.46094c0,0.36562,0.39844,0.525,0.74844,0.525c0.52343,0,0.80936-0.55625,0.83437-0.60469
			c0.09531,0.29531,0.38125,0.60469,0.85781,0.60469c0.81875,0,1.27188-1.025,1.27188-1.22344
			c0-0.07969-0.07188-0.07969-0.09531-0.07969c-0.07188,0-0.08749,0.03125-0.10313,0.0875
			c-0.2625,0.85-0.80312,1.04063-1.05781,1.04063c-0.30938,0-0.4375-0.25469-0.4375-0.525c0-0.175,0.04844-0.34843,0.13594-0.69844
			L72.32198,78.97762"/>
		<path class="st22" d="M75.55009,82.85418c-0.09531,0.39062-0.39531,0.71875-0.72812,0.71875
			c-0.07344,0-0.14219-0.01094-0.20469-0.03438c0.14687-0.06718,0.19218-0.20312,0.19218-0.2875
			c0-0.13593-0.10625-0.20937-0.22031-0.20937c-0.175,0-0.32188,0.15157-0.32188,0.33281c0,0.21563,0.22031,0.35625,0.55938,0.35625
			s1.00156-0.20312,1.17657-0.89376l0.50937-2.02343c0.01719-0.0625,0.02813-0.1125,0.02813-0.19843
			c0-0.31094-0.26563-0.53125-0.60469-0.53125c-0.62812,0-0.99062,0.78593-0.99062,0.86562
			c0,0.07344,0.07968,0.07344,0.09687,0.07344c0.06719,0,0.07344-0.01719,0.1125-0.10156
			c0.14219-0.32812,0.43594-0.67969,0.76406-0.67969c0.14062,0,0.19218,0.09688,0.19218,0.27813
			c0,0.0625-0.01093,0.14062-0.01719,0.16875L75.55009,82.85418 M76.75009,79.04324c0-0.09531-0.07343-0.21406-0.22655-0.21406
			c-0.16406,0-0.31719,0.15781-0.31719,0.31094c0,0.09062,0.06875,0.21407,0.22657,0.21407
			C76.58604,79.35418,76.75009,79.20731,76.75009,79.04324z"/>
	</g>
	<polygon class="st8" points="152.39162,95.82887 152.39171,95.82876 152.39171,95.82878 152.39172,95.82877 152.39169,95.82878 
		152.39172,95.82882 152.39172,95.82875 152.39168,95.82877 152.39166,95.82877 152.39168,95.82881 152.39171,95.82877 
		152.39169,95.82877 152.39166,95.8288 152.39166,95.82876 152.39168,95.82876 152.39169,95.82879 152.39172,95.82877 
		152.39168,95.82882 152.39172,95.82877 152.39172,95.82882 152.39166,95.82881 152.39171,95.82882 152.39168,95.82879 
		152.39172,95.8288 152.39172,95.82875 152.39171,95.82883 152.39168,95.82883 152.39168,95.82882 152.39171,95.82883 
		152.39171,95.8288 152.39166,95.82879 152.39169,95.82877 152.39172,95.8288 152.39168,95.82877 152.39169,95.82878 
		152.39169,95.82883 152.39168,95.82877 152.39169,95.82883 152.39172,95.8288 152.39169,95.82877 152.39166,95.8288 
		152.39168,95.82877 152.39169,95.82877 152.39172,95.82883 152.39172,95.82882 152.39171,95.82877 152.39169,95.82876 
		152.39169,95.8288 152.39169,95.82876 152.39172,95.82883 152.39169,95.82882 152.39172,95.82879 152.39172,95.8288 
		152.39171,95.82877 152.39172,95.82877 152.39172,95.82879 152.39168,95.8288 152.39166,95.82875 152.39169,95.82875 
		152.39169,95.82877 152.39172,95.8288 152.39168,95.82877 152.39169,95.82883 152.39166,95.82882 152.39166,95.82877 
		152.39172,95.82882 152.39168,95.82877 152.39169,95.8288 152.39171,95.8288 152.39171,95.82877 152.39169,95.82877 
		152.39172,95.82877 152.39172,95.82876 152.39174,95.82882 152.39172,95.82882 152.39169,95.8288 152.39166,95.82877 
		152.39171,95.82883 152.39166,95.82879 152.39165,95.82876 152.39168,95.82877 152.39174,95.82877 152.39172,95.82878 
		152.39168,95.82877 152.39172,95.8288 152.39172,95.82876 152.39172,95.82878 152.39172,95.82881 	"/>
	<g>
		<defs>
			<rect id="SVGID_25_" x="143.01855" y="77.47762" width="9" height="6"/>
		</defs>
		<clipPath id="SVGID_26_">
			<use xlink:href="#SVGID_25_"  style="overflow:visible;"/>
		</clipPath>
		<path class="st23" d="M147.51855,80.47762L147.51855,80.47762z"/>
		<path class="st24" d="M146.17323,79.27762c0.04688-0.20625,0.22969-0.9375,0.78595-0.9375c0.04062,0,0.23125,0,0.39842,0.10312
			c-0.22342,0.03907-0.3828,0.23907-0.3828,0.42969c0,0.12656,0.08749,0.27813,0.30312,0.27813
			c0.175,0,0.42813-0.14375,0.42813-0.46094c0-0.41406-0.46875-0.525-0.73906-0.525c-0.46094,0-0.73906,0.42187-0.83438,0.60469
			c-0.19844-0.525-0.62656-0.60469-0.85782-0.60469c-0.82655,0-1.27968,1.025-1.27968,1.22344
			c0,0.07968,0.07968,0.07968,0.09531,0.07968c0.06407,0,0.08751-0.01562,0.10313-0.0875
			c0.27031-0.84218,0.7953-1.04062,1.06563-1.04062c0.14999,0,0.42812,0.07187,0.42812,0.53281
			c0,0.24531-0.13437,0.77813-0.42812,1.89063c-0.12813,0.49218-0.40625,0.82656-0.7547,0.82656
			c-0.04843,0-0.23125,0-0.39844-0.10313c0.2-0.03905,0.37344-0.20625,0.37344-0.42968c0-0.21407-0.17345-0.27813-0.29375-0.27813
			c-0.2375,0-0.4375,0.20781-0.4375,0.46095c0,0.36562,0.39844,0.52499,0.74843,0.52499c0.52344,0,0.80937-0.55624,0.83438-0.60469
			c0.09531,0.29531,0.38124,0.60469,0.8578,0.60469c0.81876,0,1.27188-1.02499,1.27188-1.22343
			c0-0.0797-0.07188-0.0797-0.09531-0.0797c-0.07188,0-0.08751,0.03125-0.10313,0.0875
			c-0.2625,0.85-0.80312,1.04063-1.05782,1.04063c-0.30937,0-0.4375-0.25469-0.4375-0.525c0-0.175,0.04845-0.34844,0.13594-0.69844
			L146.17323,79.27762"/>
		<path class="st24" d="M148.80917,82.52137c-0.02344,0.07343-0.05782,0.21562-0.05782,0.23125
			c0,0.125,0.10158,0.18125,0.1922,0.18125c0.10312,0,0.19218-0.07344,0.22188-0.12344
			c0.02812-0.05156,0.07343-0.23281,0.10155-0.35155c0.02812-0.10781,0.09062-0.3672,0.12344-0.50938
			c0.03438-0.12343,0.06876-0.24843,0.09688-0.37812c0.0625-0.23125,0.07344-0.27656,0.2375-0.50938
			c0.15781-0.22501,0.42343-0.52031,0.84843-0.52031c0.32812,0,0.33281,0.28905,0.33281,0.39687
			c0,0.33907-0.24219,0.96719-0.33281,1.20468c-0.0625,0.15782-0.08594,0.20782-0.08594,0.3047c0,0.3,0.25,0.48594,0.53749,0.48594
			c0.56563,0,0.81407-0.77969,0.81407-0.86563c0-0.07343-0.07344-0.07343-0.09062-0.07343
			c-0.07814,0-0.08438,0.03437-0.10626,0.09687c-0.13124,0.45157-0.37343,0.68438-0.59999,0.68438
			c-0.11876,0-0.14062-0.07969-0.14062-0.19844c0-0.12968,0.02812-0.20312,0.12968-0.45781c0.06718-0.175,0.3-0.775,0.3-1.09063
			c0-0.54844-0.43594-0.64531-0.73595-0.64531c-0.46875,0-0.78593,0.28906-0.95625,0.51406
			c-0.03905-0.38906-0.37187-0.51406-0.60468-0.51406c-0.24219,0-0.37344,0.175-0.44688,0.30469
			c-0.12343,0.20937-0.20311,0.53281-0.20311,0.56094c0,0.07344,0.07968,0.07344,0.09686,0.07344
			c0.07812,0,0.08438-0.0172,0.12344-0.17031c0.08594-0.33281,0.19218-0.61094,0.41249-0.61094
			c0.14845,0,0.1875,0.125,0.1875,0.27813c0,0.10625-0.05156,0.31562-0.09062,0.46875
			c-0.03906,0.15311-0.09688,0.38437-0.125,0.50937L148.80917,82.52137"/>
	</g>
</g>
<g>
</g>
<g>
</g>
<g>
</g>
<g>
</g>
<g>
</g>
<g>
</g>
</svg>
