<svg width="137" height="31" xmlns="http://www.w3.org/2000/svg"><g fill="none"><path d="M12.289 16.981a.48.48 0 0 0 .36-.551c-.054-.258-.304-.433-.554-.368a.446.446 0 0 0-.367.535c.052.265.3.445.56.384m9.548-1.992a.483.483 0 0 0 .36-.553c-.055-.26-.306-.436-.556-.37a.452.452 0 0 0-.366.54c.05.258.3.437.562.383m-8.402 4.104a.67.67 0 0 0 .12-.925.684.684 0 0 0-.928-.11.644.644 0 0 0-.099.91c.213.281.627.351.907.125m7.805-6.125a.67.67 0 0 0 .116-.926.68.68 0 0 0-.922-.106.645.645 0 0 0-.1.908c.214.282.627.351.906.124m-5.241 7.604a.866.866 0 0 0-.504-1.128c-.47-.183-.96.047-1.153.522-.174.447.066.95.526 1.129a.894.894 0 0 0 1.13-.523m3.547-9.466a.87.87 0 0 0-.508-1.125c-.469-.18-.957.052-1.152.522-.177.45.067.952.522 1.13.465.15.963-.066 1.138-.527m1.584 5.523c-.078.362.1.7.451.793a.656.656 0 0 0 .795-.456.635.635 0 0 0-.462-.776.633.633 0 0 0-.784.44m-1.304 1.792a.983.983 0 0 0 .008 1.366c.38.365.98.359 1.324-.003.395-.37.402-.991.026-1.35a.963.963 0 0 0-1.358-.013m-2.004 1.05c-.515.13-.874.661-.747 1.182.113.544.66.886 1.192.768.543-.111.871-.658.763-1.191-.13-.547-.659-.865-1.208-.759m-6.3-5.408c-.097.356.105.695.462.803a.64.64 0 1 0-.461-.803m1.192-2.804c-.36.381-.376.978-.005 1.346a.958.958 0 0 0 1.363 0 .956.956 0 0 0-1.358-1.346m2.917-1.632a1.003 1.003 0 0 0-.781 1.178c.137.537.66.88 1.208.754a.994.994 0 0 0 .754-1.183c-.125-.53-.66-.875-1.18-.749m6.378 11.982c.287.279.713.288.986-.002A.65.65 0 0 0 23 20.65a.686.686 0 0 0-.978-.017c-.27.273-.273.72-.012.977M10.815 10.352c.278.274.721.287.991-.004a.694.694 0 0 0-.002-.977.706.706 0 0 0-.985-.002.712.712 0 0 0-.004.983m13.158 8.838a.699.699 0 0 0 .916-.37.7.7 0 0 0-.372-.91.666.666 0 0 0-.898.372.684.684 0 0 0 .354.908m.988-2.723a.832.832 0 0 0 .843-.824.827.827 0 0 0-.815-.847.842.842 0 0 0-.854.815.871.871 0 0 0 .826.856m-.012-2.948a1.05 1.05 0 0 0 .592-1.391c-.21-.54-.82-.83-1.362-.611-.567.222-.844.836-.627 1.388.223.561.84.829 1.397.614m-15.65-.445a.714.714 0 0 0 .917-.382.71.71 0 0 0-.371-.914.696.696 0 0 0-.911.382.71.71 0 0 0 .365.914m-.466 3.113a.845.845 0 0 0 .84-.827.84.84 0 0 0-.807-.838.828.828 0 0 0-.857.81.839.839 0 0 0 .824.855m.82 3.276a1.07 1.07 0 0 0 .608-1.402 1.046 1.046 0 0 0-1.382-.597 1.065 1.065 0 0 0-.611 1.381c.22.55.827.833 1.385.618m9.993 2.688a.739.739 0 0 0-.406.976.765.765 0 0 0 .983.422.742.742 0 0 0 .401-.99.734.734 0 0 0-.978-.408m-2.761.392c-.553-.01-1.006.451-1.017 1.008.011.575.464 1.01 1.009 1.026a1.04 1.04 0 0 0 1.026-1.013c.009-.552-.448-1.008-1.018-1.021m-2.607-.522c-.591-.25-1.26.053-1.506.645a1.158 1.158 0 0 0 .651 1.492 1.136 1.136 0 0 0 1.487-.624 1.162 1.162 0 0 0-.632-1.513m-2.287-1.651a1.264 1.264 0 0 0-1.797-.012 1.276 1.276 0 0 0-.022 1.814 1.3 1.3 0 0 0 1.819.013 1.28 1.28 0 0 0 0-1.815m1.612-12.93a.753.753 0 0 0-.417.976.78.78 0 0 0 .996.426.761.761 0 0 0 .4-.994.739.739 0 0 0-.98-.407m3.344-1.034a1.023 1.023 0 0 0-1.022 1.021c.009.528.449.994 1.018.996a.995.995 0 0 0 1.004-1.006c.01-.537-.447-1.005-1-1.011m3.47.417a1.17 1.17 0 0 0-1.503.627c-.234.58.056 1.278.633 1.509a1.153 1.153 0 0 0 1.503-.642 1.144 1.144 0 0 0-.633-1.494m3.22 1.991c-.51-.503-1.317-.513-1.819.006-.495.477-.495 1.29 0 1.786a1.28 1.28 0 0 0 1.813.013c.505-.51.518-1.305.005-1.805m.138 15.649a.61.61 0 0 0 .861.07.598.598 0 0 0 .067-.854.607.607 0 1 0-.928.784m1.851-1.667a.697.697 0 0 0 .982-.149.702.702 0 0 0-.14-.98.704.704 0 1 0-.842 1.13m1.61-2.276a.817.817 0 0 0 1.08-.463.825.825 0 0 0-.462-1.08.826.826 0 0 0-1.078.464.838.838 0 0 0 .46 1.08m1.094-2.964a.877.877 0 1 0 .188-1.744.885.885 0 0 0-.972.779c-.053.479.3.922.784.965m.22-3.075c.583-.098.978-.665.864-1.252a1.078 1.078 0 1 0-.864 1.252M9.15 7.283c.23.253.607.288.858.073a.616.616 0 0 0 .077-.858.62.62 0 0 0-.86-.067.611.611 0 0 0-.075.852M7.398 9.3c.314.23.753.166.982-.154a.686.686 0 0 0-.14-.971.695.695 0 0 0-.983.142.702.702 0 0 0 .141.983M6 11.987a.84.84 0 0 0 1.088-.467.83.83 0 0 0-.464-1.078.839.839 0 0 0-1.089.462A.845.845 0 0 0 6 11.987m-.654 3.163c.48.06.916-.303.98-.781a.897.897 0 0 0-.8-.965.88.88 0 0 0-.963.779.874.874 0 0 0 .783.967m.348 3.45c.594-.104.98-.666.87-1.248a1.066 1.066 0 0 0-1.253-.868 1.074 1.074 0 1 0 .383 2.116m16.39 6.348a.521.521 0 1 0 .502.915.523.523 0 0 0-.502-.915m-2.076.76a.609.609 0 0 0-.407.75c.1.325.433.504.758.413a.615.615 0 0 0 .405-.762.615.615 0 0 0-.756-.4m-2.402.388a.694.694 0 0 0-.654.745.702.702 0 0 0 1.4-.093c-.014-.386-.36-.674-.746-.652m-2.676-.27a.913.913 0 0 0-1.069.713.915.915 0 0 0 .716 1.076.91.91 0 0 0 1.075-.727.91.91 0 0 0-.722-1.063m-2.736-1a1.091 1.091 0 0 0-1.449.484c-.258.53-.05 1.166.473 1.448.533.262 1.18.047 1.456-.489a1.083 1.083 0 0 0-.48-1.443m-2.318-1.793a1.264 1.264 0 0 0-1.728 1.845c.51.478 1.314.454 1.789-.052a1.266 1.266 0 0 0-.061-1.793m-1.9-2.681a1.375 1.375 0 0 0-1.86-.546 1.368 1.368 0 0 0-.538 1.856 1.371 1.371 0 0 0 1.852.554 1.378 1.378 0 0 0 .545-1.864m3.299-15.25a.522.522 0 0 0 .499.915.53.53 0 0 0 .21-.71.523.523 0 0 0-.71-.205m2.23-1.002a.607.607 0 0 0-.403.753c.1.32.434.503.751.407.324-.096.5-.44.403-.757a.596.596 0 0 0-.752-.403m2.65-.632a.706.706 0 0 0-.652.743c.028.384.36.683.75.66a.705.705 0 0 0 .655-.753.704.704 0 0 0-.753-.65m3.128-.108a.904.904 0 0 0-1.072.718.913.913 0 0 0 1.793.348.914.914 0 0 0-.721-1.066m3.257.789a1.069 1.069 0 0 0-1.44.5 1.074 1.074 0 1 0 1.933.943 1.077 1.077 0 0 0-.493-1.443m3.184 1.932a1.26 1.26 0 0 0-1.788.055 1.276 1.276 0 0 0 .061 1.794 1.264 1.264 0 1 0 1.727-1.85m2.563 3.223a1.38 1.38 0 0 0-1.86-.55 1.372 1.372 0 0 0-.548 1.855 1.38 1.38 0 0 0 1.86.56 1.38 1.38 0 0 0 .548-1.865m-9.104 20.8a.793.793 0 0 0 1.553-.322.797.797 0 0 0-.938-.613.796.796 0 0 0-.615.936m3.168-.765a.923.923 0 0 0 1.223.454.926.926 0 0 0 .448-1.23.917.917 0 0 0-1.224-.445.93.93 0 0 0-.447 1.22m3.243-1.573c.4.489 1.117.56 1.598.15a1.129 1.129 0 0 0 .148-1.598 1.123 1.123 0 0 0-1.592-.146 1.136 1.136 0 0 0-.154 1.594m3.054-2.616a1.32 1.32 0 0 0 1.83-.33 1.318 1.318 0 0 0-2.169-1.498c-.404.593-.262 1.423.34 1.828m2.23-3.402c.805.273 1.685-.175 1.957-.989a1.553 1.553 0 0 0-.988-1.957 1.546 1.546 0 0 0-1.953.985 1.55 1.55 0 0 0 .984 1.961M13.125 1.177a.791.791 0 0 0 .941.618.79.79 0 0 0 .614-.938.795.795 0 0 0-1.555.32M9.839 2.405a.918.918 0 0 0 1.226.442.913.913 0 0 0 .448-1.216.933.933 0 0 0-1.223-.451.929.929 0 0 0-.451 1.225M6.517 4.643c.4.485 1.113.557 1.601.148A1.128 1.128 0 0 0 8.272 3.2a1.128 1.128 0 0 0-1.6-.153 1.128 1.128 0 0 0-.155 1.596M3.72 7.982a1.323 1.323 0 0 0 1.838-.336c.404-.6.256-1.415-.343-1.833a1.315 1.315 0 0 0-1.828.334 1.32 1.32 0 0 0 .333 1.835m-1.704 4.184a1.547 1.547 0 0 0 .967-2.94 1.547 1.547 0 1 0-.967 2.94m14.917 17.433a.683.683 0 0 0 0 1.365.687.687 0 0 0 .681-.683.685.685 0 0 0-.68-.682m-2.865-.431a.797.797 0 0 0-.94.617.792.792 0 1 0 1.551.322.797.797 0 0 0-.611-.939m-3.01-1.05a.91.91 0 0 0-1.218.441.923.923 0 0 0 .45 1.225.919.919 0 1 0 .769-1.666M8.118 26.17a1.138 1.138 0 0 0-1.601.15 1.127 1.127 0 0 0 .15 1.595 1.128 1.128 0 0 0 1.603-.15c.4-.482.328-1.204-.152-1.595m-2.565-2.85a1.317 1.317 0 0 0-1.83-.33 1.323 1.323 0 0 0-.343 1.831 1.33 1.33 0 0 0 1.838.328 1.311 1.311 0 0 0 .335-1.829m-1.58-3.537a1.554 1.554 0 0 0-1.955-.986 1.553 1.553 0 0 0-.99 1.958 1.547 1.547 0 0 0 1.957.987 1.553 1.553 0 0 0 .989-1.96m-.397-4.303a1.79 1.79 0 0 0-3.577 0c0 .994.801 1.798 1.787 1.798a1.79 1.79 0 0 0 1.79-1.798M16.925 0a.677.677 0 0 0-.678.68.68.68 0 1 0 .678-.68m3.196.248a.79.79 0 1 0-.326 1.547.787.787 0 0 0 .94-.615.786.786 0 0 0-.614-.932m3.449.93a.932.932 0 0 0-1.222.448.927.927 0 0 0 .447 1.22.914.914 0 0 0 1.224-.445.917.917 0 0 0-.45-1.222m3.618 1.87a1.128 1.128 0 0 0-1.597.153 1.13 1.13 0 0 0 .152 1.595 1.128 1.128 0 0 0 1.595-.15c.407-.488.332-1.2-.15-1.598m3.284 3.098a1.318 1.318 0 1 0-.331 1.835 1.319 1.319 0 0 0 .331-1.835m2.362 4.062a1.55 1.55 0 0 0-2.944.97 1.558 1.558 0 0 0 1.955.984 1.552 1.552 0 0 0 .989-1.954m1.028 5.271a1.792 1.792 0 0 0-3.584 0c0 .994.802 1.798 1.79 1.798.99 0 1.794-.804 1.794-1.798" fill="#FF8000"/><path d="M100.693 18.759c0 1.704.063 1.75 1.6 1.75h5.139c.218 0 .402.183.402.405v1.298c0 .287-.102.389-.402.428-.653.102-1.973.282-4.385.282-3.373 0-5.156.025-5.156-4.163v-6.43c0-4.185 1.783-4.162 5.156-4.162 2.412 0 3.732.183 4.385.284.3.039.402.142.402.428v1.298a.41.41 0 0 1-.402.409h-5.139c-1.537 0-1.6.045-1.6 1.744v1.864h6.492c.226 0 .403.185.403.404v1.467a.405.405 0 0 1-.403.406h-6.492v2.288zm29.999 4.174c-1.794 0-3.61-.309-4.585-.533-.201-.041-.385-.182-.385-.405v-1.463c0-.223.184-.387.385-.387h.04c.813.102 2.711.367 4.587.367 1.803 0 2.355-.648 2.355-1.825 0-1.524-3.631-2.368-5.404-3.099-1.765-.731-2.39-2.132-2.39-3.552 0-2.237 1.796-3.863 5.568-3.863 1.935 0 3.705.369 4.394.534.204.042.364.184.364.386v1.503c0 .201-.138.365-.345.365h-.038c-1.34-.12-2.73-.368-4.493-.368-1.503 0-2.627.528-2.627 1.443 0 .668.762 1.283 1.662 1.642.9.355 2.082.815 3.431 1.358 1.708.693 2.817 1.7 2.817 3.65 0 2.05-1.277 4.247-5.336 4.247zM119.907 12.76c0-1.525-1.18-2.174-3.213-2.174-.423 0-2.269.04-2.634.08v4.406c.328.02 2.295.062 2.634.062 2.094 0 3.213-.405 3.213-2.191v-.183zm3.043 10.002h-2.477c-.222 0-.303-.205-.403-.406l-2.923-4.926h-.453c-.524 0-2.166-.058-2.634-.084v5.01c0 .222-.161.406-.383.406h-2.026a.408.408 0 0 1-.406-.406V9.04c0-.407.239-.55.646-.61 1.054-.163 3.326-.263 4.803-.263 3.127 0 6.01 1.118 6.01 4.593v.183c0 2.151-1.076 3.329-2.74 3.975l3.188 5.438c.042.062.042.12.042.165 0 .138-.083.241-.244.241zM95.404 10.684h-4.047v11.672a.412.412 0 0 1-.41.406h-2.008a.409.409 0 0 1-.406-.406V10.684h-4.05c-.22 0-.403-.14-.403-.364V8.597c0-.227.183-.387.404-.387h10.92c.22 0 .402.16.402.387v1.723c0 .224-.182.364-.402.364zM75.985 22.922c-3.263 0-6.074-1.42-6.074-5.75V8.618c0-.226.185-.387.407-.387h2.005c.225 0 .407.16.407.387v8.552c0 2.318 1.069 3.417 3.255 3.417 2.192 0 3.261-1.1 3.261-3.417V8.62c0-.226.181-.387.404-.387h2.008c.225 0 .408.16.408.387v8.552c0 4.33-2.812 5.751-6.08 5.751zM59.736 18.76c0 1.704.066 1.75 1.6 1.75h5.134c.224 0 .408.183.408.405v1.298c0 .287-.103.389-.408.428-.648.102-1.969.282-4.381.282-3.368 0-5.153.025-5.153-4.163v-6.43c0-4.185 1.785-4.162 5.153-4.162 2.412 0 3.733.231 4.381.332.305.04.408.047.408.331v1.347a.412.412 0 0 1-.408.409h-5.134c-1.534 0-1.6.045-1.6 1.744v1.736h6.493c.223 0 .406.185.406.404v1.595a.41.41 0 0 1-.406.406h-6.493v2.288zm-8.695-6c0-1.524-1.18-2.173-3.208-2.173-.427 0-2.273.04-2.635.08v4.406c.32.02 2.287.062 2.635.062 2.086 0 3.208-.405 3.208-2.191v-.183zm3.045 10.003h-2.478c-.222 0-.304-.205-.404-.406l-2.922-4.926h-.449c-.529 0-2.169-.058-2.635-.084v5.01c0 .222-.164.406-.387.406h-2.029a.408.408 0 0 1-.404-.406V9.04c0-.407.24-.55.648-.61 1.057-.163 3.324-.263 4.807-.263 3.123 0 6.009 1.118 6.009 4.593v.183c0 2.151-1.075 3.329-2.738 3.975l3.182 5.438c.043.062.043.12.043.165 0 .138-.082.241-.243.241z" fill="#666"/></g></svg>