<?xml version="1.0" encoding="utf-8"?>
<!-- Generator: Adobe Illustrator 24.2.1, SVG Export Plug-In . SVG Version: 6.00 Build 0)  -->
<svg version="1.1" id="Layer_1" xmlns="http://www.w3.org/2000/svg" xmlns:xlink="http://www.w3.org/1999/xlink" x="0px" y="0px"
	 viewBox="0 0 279.8 88.2" style="enable-background:new 0 0 279.8 88.2;" xml:space="preserve">
<style type="text/css">
	.st0{fill:#231F20;}
</style>
<path class="st0" d="M15.5,19.5c-5.3-1.8-8.2-3.2-8.2-6.9c0-2.9,2.6-4.4,5.4-4.4c5.1,0,8.2,3.7,9.3,9.5h1.1V7.5h-0.9l-1.6,3.2h-0.1
	C18.6,8.3,15.8,7,12.8,7C7.3,7,3,10.9,3,15.8c0,6.2,4.4,8.6,10,10.5c5.2,1.7,7.6,3.6,7.6,6.7c0,3.9-2,5.7-6.4,5.7
	c-2.7,0-5.3-1.1-7-3.2c-1.8-2.3-2.9-5-3.3-7.8H2.8v11.7h0.8l2-3.5h0.2c2,2.5,5.1,4,8.3,4c6.8,0,10.9-4.4,10.9-10.1
	S21,21.4,15.5,19.5z"/>
<path class="st0" d="M271.3,11.2c-1.8-2.7-4.9-4.4-8.2-4.3c-9.2,0-15.4,7.6-15.4,16.6s5.9,16.6,15.4,16.6c6.1,0,10.5-3.2,11.9-10.5
	l-1.1-0.3c-1.3,5.9-4.4,9.5-10,9.5c-5.8,0-8.8-4.8-8.8-15.3s2.8-15.4,8.2-15.4s8.6,3.9,10.1,11.6h1.2V7.5h-0.8l-2.3,3.7H271.3z"/>
<path class="st0" d="M52.7,11.1c-1.8-2.7-4.8-4.3-8-4.2c-9.2,0-15.4,7.6-15.4,16.6s5.9,16.6,15.4,16.6c6.1,0,10.6-3.2,11.9-10.5
	l-1.1-0.2c-1.5,5.8-4.2,9.4-10,9.4s-8.8-4.8-8.8-15.3s2.9-15.4,8-15.4c5.3,0,8.6,3.9,10.1,11.6h1V7.5h-0.9L52.7,11.1L52.7,11.1z"/>
<polygon class="st0" points="75.2,38.3 70.6,38.3 70.6,8.6 75.2,8.6 75.2,7.4 59.3,7.4 59.3,8.6 64,8.6 64,38.3 59.3,38.3 
	59.3,39.5 75.2,39.5 "/>
<polygon class="st0" points="179.8,38.3 179.8,39.5 195.8,39.5 195.8,38.3 191.1,38.3 191.1,8.6 195.8,8.6 195.8,7.4 179.8,7.4 
	179.8,8.6 184.5,8.6 184.5,38.3 "/>
<polygon class="st0" points="229.1,8.6 233.8,8.6 233.8,38.3 229.1,38.3 229.1,39.5 245.1,39.5 245.1,38.3 240.4,38.3 240.4,8.6 
	245.1,8.6 245.1,7.4 229.1,7.4 "/>
<path class="st0" d="M108.1,27.5h-0.7c-0.8,3-2.2,5.8-4.1,8.3c-1.8,2.1-3.5,2.5-6.9,2.5h-5.1V24h2.4c1.9,0,3.2,0.4,4.1,1.3
	c1.3,1.5,2,3.4,1.9,5.3h0.9V16.2h-0.9c0,1.9-0.7,3.8-1.9,5.3c-0.9,1-2.2,1.3-4.1,1.3h-2.4V8.6h5.7c2.6,0,4.4,0.7,5.6,1.8
	c1.9,1.6,3.1,3.9,4.2,8.1h0.7v-11H80.1v1.1h4.7v29.7h-4.7v1.2h28V27.5z"/>
<path class="st0" d="M119.1,12.3L139,39.5h1.9V11.3c0-1.8,0.8-2.8,2.4-2.8h2.1V7.5H135v1.1h2.1c1.6,0,2.4,1,2.4,2.8v18.2h-0.1
	l-15.8-22h-11.7v1.1h1.3c1.3-0.1,2.6,0.4,3.5,1.4c0.6,0.5,1,1.3,1,2v23.4c0,1.7-0.7,2.9-2.4,2.9h-2.3v1.2h10.9v-1.2h-2.5
	c-1.6,0-2.3-1.2-2.3-2.9L119.1,12.3L119.1,12.3z"/>
<path class="st0" d="M152.7,10.6c1.2-1.3,2.9-2,4.6-1.9h1.2v29.6h-4.8v1.2h16.2v-1.2h-4.8V8.6h1.1c1.8-0.1,3.5,0.6,4.8,1.9
	c1.8,1.7,2.9,4.4,3.9,8.4h1.1V7.5h-28.2v11.3h1.1C149.8,14.8,150.9,12.4,152.7,10.6z"/>
<path class="st0" d="M199.8,38.3v1.2h16v-1.2H211V23.8h2c1.4-0.1,2.7,0.4,3.7,1.4c1.3,1.5,2,3.4,2,5.4h1.2V15.9h-1.2
	c0,1.9-0.7,3.7-1.8,5.1c-1,1-2.4,1.6-3.9,1.5h-2v-14h4.6c2.8,0,4.4,0.7,5.8,2s2.7,3.8,4,7.9h1v-11h-26.7v1.1h4.7v29.7L199.8,38.3z"
	/>
<path class="st0" d="M191.1,81.3c-1.8,0.1-3.6-0.4-5.2-1.2c-3.2-2-4.7-6.7-4.7-14.1c0-7.7,1.5-11.9,4.2-14c1.5-1,3.2-1.5,5-1.4
	c5.1,0,10.3,3.4,11.7,11.6h1.1V50h-0.9l-2.3,3.9h-0.1c-1.5-2.2-5.5-4.5-9.5-4.5c-9.1,0-16.5,7.5-16.5,16.6c0,9,6.9,16.6,17,16.6
	c6.1,0,11.5-3.2,12.8-10.5l-1.2-0.3C201.2,77.8,197.4,81.3,191.1,81.3z"/>
<polygon class="st0" points="153.7,51.3 158.5,51.3 158.5,81 153.7,81 153.7,82.1 169.9,82.1 169.9,81 165.1,81 165.1,51.3 
	169.9,51.3 169.9,50.2 153.7,50.2 "/>
<path class="st0" d="M262.7,51.3h2.6c1.6,0,2.4,1,2.4,2.7v18.4h-0.1l-17-22.2H239v1.1h1.3c1.2-0.1,2.5,0.4,3.3,1.3
	c0.6,0.5,1,1.3,1,2.1v23.4c0,1.7-0.7,2.9-2.3,2.9h-2.7v1.1h11.4V81h-2.7c-1.6,0-2.3-1.2-2.3-2.9V55h0.1l21.1,27.4h1.9V54
	c0-1.8,0.8-2.7,2.4-2.7h2.6v-1.1h-11.4V51.3z"/>
<path class="st0" d="M104.1,78.2c-1.8,2.1-3.8,2.8-7.1,2.8h-5.6V66.6h2.4c1.9,0,3.2,0.4,4.1,1.3c1.3,1.5,2,3.4,1.9,5.3h1.2V58.8
	h-1.2c0,1.9-0.7,3.8-1.9,5.3c-0.9,1-2.2,1.3-4.1,1.3h-2.4V51.3h5.9c2.6,0,4.6,0.7,5.7,1.8c1.9,1.6,3.1,3.9,4.3,8.1h1.1V50.2H80v1.1
	h4.9V81H80v1.1h29.1V70.3h-0.7C107.6,73.2,106.1,75.9,104.1,78.2z"/>
<path class="st0" d="M56,72.2h-0.3l-8.9-22H34.2v1.1h5.1V78c0,1.9-0.8,3-2.4,3h-2.7v1.1h11.6V81h-2.7c-1.6,0-2.3-1.2-2.3-3V52.7h0.1
	l11.7,29.5h1.1l10.5-29.5h0.1V81h-4.8v1.1h16.2V81h-4.9V51.3h4.9v-1.1h-12L56,72.2z"/>
<path class="st0" d="M126.6,51.3h4.9c1.3,0,2.6,0.2,3.8,0.8c1.9,1.1,2.5,3.2,2.5,6s-0.6,5-2.3,6.2c-1.1,0.6-2.4,0.9-3.6,0.9h-5.2
	L126.6,51.3z M146.5,80.5c-1.2,0-1.9-0.4-2.3-1.9c-0.3-1.6-0.5-3.2-0.6-4.9c-0.5-4.9-3.7-7-8.2-7.8v-0.1c5.6-0.5,9.2-3.4,9.2-7.9
	c0-4.9-3.6-7.9-11.7-7.9h-17.7v1.1h4.8V81h-4.8v1.1h16.1V81h-4.7V66.3h5c3,0,4.9,1.3,5,4.9c0,0.3,0.2,3.8,0.2,4.1
	c0.2,5.1,3,7.4,6.8,7.4c4.9,0,6.8-2.2,6.8-7h-1.2C149.2,79,148.2,80.5,146.5,80.5L146.5,80.5z"/>
<path class="st0" d="M8.9,70.9l4.6-12.5h0.1l4.4,12.5H8.9z M27.9,78.5L17.5,50.1h-2.1L5.1,77.5C4.2,79.7,3.6,81,1.6,81H0v1.1h10V81
	H7.8c-2,0-2-1.6-1.3-3.6l1.9-5.3h10.1l2.4,6.7c0.4,1.3,0.6,2.3-1,2.3h-2.5v1.1h15V81h-2.1C29,81,28.5,80.2,27.9,78.5L27.9,78.5z"/>
<path class="st0" d="M213.7,70.9l4.6-12.5h0.1l4.5,12.5H213.7z M232.7,78.5l-10.5-28.4h-2.1l-10.2,27.4c-0.9,2.2-1.6,3.5-3.5,3.5
	h-1.5v1.1h10V81h-2.2c-2,0-2-1.6-1.3-3.6l1.9-5.3h10.1l2.4,6.7c0.5,1.3,0.6,2.2-0.9,2.3h-2.5v1.1h15V81h-2.1
	C233.8,81,233.3,80.2,232.7,78.5L232.7,78.5z"/>
<path class="st0" d="M273.9,82.2c-0.5,0-0.9-0.1-1.4-0.3c-0.8-0.3-1.4-1-1.8-1.8c-0.2-0.4-0.3-0.9-0.3-1.3c0-0.4,0.1-0.9,0.2-1.3
	c0.2-0.4,0.4-0.8,0.7-1.1c0.3-0.3,0.7-0.6,1.1-0.7c0.4-0.2,0.9-0.3,1.4-0.3c0.5,0,0.9,0.1,1.4,0.3c0.4,0.2,0.8,0.4,1.1,0.7
	c0.3,0.3,0.5,0.7,0.7,1.1c0.2,0.4,0.3,0.9,0.2,1.3c0,0.4-0.1,0.9-0.2,1.3c-0.1,0.4-0.4,0.8-0.7,1.1c-0.3,0.3-0.7,0.6-1.1,0.7
	C274.9,82.1,274.4,82.2,273.9,82.2z M273.9,81.5c0.4,0,0.8-0.1,1.1-0.2c0.3-0.1,0.6-0.3,0.9-0.6c0.2-0.2,0.4-0.5,0.6-0.9
	c0.1-0.4,0.2-0.7,0.2-1.1c0-0.3-0.1-0.7-0.2-1c-0.1-0.3-0.3-0.6-0.6-0.9c-0.2-0.3-0.5-0.5-0.9-0.6c-0.4-0.2-0.7-0.2-1.1-0.2
	c-0.4,0-0.8,0.1-1.1,0.2c-0.3,0.1-0.6,0.3-0.9,0.6c-0.2,0.2-0.4,0.5-0.5,0.9c-0.3,0.7-0.3,1.5,0,2.1c0.1,0.3,0.3,0.6,0.5,0.9
	c0.2,0.3,0.5,0.5,0.9,0.6C273.1,81.5,273.5,81.6,273.9,81.5L273.9,81.5z M272.8,77.1h1.4c0.3,0,0.6,0.1,0.8,0.2
	c0.2,0.2,0.3,0.4,0.3,0.7c0,0.5-0.3,0.9-0.7,1l0,0l0.9,1.4l0,0h-0.8l-1-1.5h-0.3v1.5h-0.7L272.8,77.1z M274,78.6
	c0.4,0,0.5-0.2,0.5-0.5c0-0.1,0-0.3-0.2-0.3c-0.1-0.1-0.3-0.1-0.4-0.1h-0.6v1L274,78.6z"/>
</svg>
