<?xml version="1.0" encoding="UTF-8" standalone="no"?>
<svg
   xmlns:dc="http://purl.org/dc/elements/1.1/"
   xmlns:cc="http://creativecommons.org/ns#"
   xmlns:rdf="http://www.w3.org/1999/02/22-rdf-syntax-ns#"
   xmlns:svg="http://www.w3.org/2000/svg"
   xmlns="http://www.w3.org/2000/svg"
   xmlns:sodipodi="http://sodipodi.sourceforge.net/DTD/sodipodi-0.dtd"
   xmlns:inkscape="http://www.inkscape.org/namespaces/inkscape"
   id="icon-atlantic-wordmark"
   viewBox="0 0 300 46.649122"
   version="1.1"
   style="text-align:center"
   sodipodi:docname="The Atlantic Logo 11.2019.svg"
   inkscape:version="0.92.1 r15371"
   width="300"
   height="46.649124">
  <metadata
     id="metadata9">
    <rdf:RDF>
      <cc:Work
         rdf:about="">
        <dc:format>image/svg+xml</dc:format>
        <dc:type
           rdf:resource="http://purl.org/dc/dcmitype/StillImage" />
        <dc:title></dc:title>
      </cc:Work>
    </rdf:RDF>
  </metadata>
  <defs
     id="defs7" />
  <sodipodi:namedview
     pagecolor="#ffffff"
     bordercolor="#666666"
     borderopacity="1"
     objecttolerance="10"
     gridtolerance="10"
     guidetolerance="10"
     inkscape:pageopacity="0"
     inkscape:pageshadow="2"
     inkscape:window-width="1920"
     inkscape:window-height="1001"
     id="namedview5"
     showgrid="false"
     inkscape:zoom="2.0607477"
     inkscape:cx="107"
     inkscape:cy="16.625262"
     inkscape:window-x="-9"
     inkscape:window-y="-9"
     inkscape:window-maximized="1"
     inkscape:current-layer="icon-atlantic-wordmark"
     fit-margin-top="0"
     fit-margin-left="0"
     fit-margin-right="0"
     fit-margin-bottom="0" />
  <path
     d="m 55.221475,18.54735 c -3.364599,0 -6.210489,2.551487 -9.813413,7.458193 -1.654261,2.299143 -3.785173,5.607665 -4.724457,7.009581 -0.532728,0.714977 -0.953303,0.602824 -0.658901,-0.16823 l 2.495411,-6.392738 8.916186,-24.533531 c 0.434594,-1.00938 -3.126273,-2.229047 -3.771154,-1.00938 V 1.037418 C 46.137058,4.2898631 43.291169,5.3553193 38.202213,5.1730703 33.113258,4.9908212 22.87927,2.17297 15.140694,2.17297 5.4394344,2.17297 0,8.1451324 0,15.182751 c 0,3.953403 2.5935448,6.504891 6.0843158,6.378718 A 3.1823495,3.1823495 0 0 0 9.4629336,19.024001 1.6822993,1.6822993 0 0 0 7.2759445,17.019261 C 3.8412501,17.734238 2.6636406,15.365 2.6636406,13.52849 c 0,-4.3739781 3.7290967,-7.6264234 11.5237504,-7.6264234 2.00474,0 5.916086,0.4766515 10.051738,0.9392838 C 18.981944,22.683002 13.654663,37.361064 12.350881,40.837815 a 2.9019663,2.9019663 0 0 1 -1.892587,2.01876 c -1.8785676,0.588804 -2.4813915,0.644881 -3.659001,0.939283 -1.7804334,0.420575 -1.486031,1.892587 -0.2383257,1.83651 2.2430657,-0.126172 5.1450317,-0.420574 7.4441747,-0.420574 2.803832,0 7.864749,0.238325 8.635803,0.294402 1.401916,0.126172 1.598184,-1.598184 0.420575,-1.766414 -0.827131,-0.126173 -2.18699,-0.350479 -3.490771,-0.532728 -1.542108,-0.18225 -2.00474,-0.827131 -1.654261,-2.074836 0.771053,-2.060817 9.813412,-28.192533 11.593846,-33.6459862 2.803832,0.350479 5.201108,0.5888048 6.785273,0.700958 3.266465,0.1962683 6.406757,0 9.112455,-1.9767016 L 38.25829,26.39808 31.991725,43.683705 c -1.065456,2.803832 2.944024,3.01412 3.84125,1.303782 a 114.45243,114.45243 0 0 1 10.69662,-17.327683 c 2.607564,-3.785173 5.032879,-6.042258 6.743216,-6.042258 1.303782,0 2.060817,0.714977 2.060817,2.313161 0,2.130913 -0.995361,5.439435 -3.01412,11.061118 -2.649621,7.332021 -3.659001,9.280685 -4.542208,9.336761 -0.883207,0.05608 -2.607564,-2.130912 -3.546848,-2.369238 a 1.9486634,1.9486634 0 0 0 -2.313161,1.00938 c -0.476652,0.82713 -0.16823,3.490771 3.84125,3.67302 4.794553,0.224307 8.874129,-4.6824 11.705999,-12.53313 1.948664,-5.327281 2.425315,-8.046998 2.425315,-9.995661 0,-3.785174 -1.766414,-5.565607 -4.66838,-5.565607 z m 81.170945,25.360662 c -3.01412,-0.700958 -4.20575,-1.822491 -4.20575,-3.01412 l 0.12617,-2.481391 c 0,-1.822491 1.40192,-28.725261 1.71034,-32.7487601 0.23832,-2.9580429 -3.14029,-2.8038319 -4.55623,-1.0654562 l -2.80383,3.6029243 c -3.44872,4.317902 -17.31367,22.234389 -24.08492,30.631866 a 16.122035,16.122035 0 0 1 -7.247906,5.01886 c -1.121533,0.294402 -1.00938,1.486031 0.238325,1.486031 0.995361,0 3.953404,-0.350479 6.140391,-0.350479 2.18699,0 6.21049,0.16823 7.21987,0.224307 1.00938,0.05608 1.40192,-1.065457 0,-1.401916 -2.80383,-0.827131 -4.20575,-1.401917 -4.20575,-2.130913 0,-0.728996 0.64488,-1.710338 2.18699,-3.84125 1.17761,-1.654261 4.00948,-5.383358 7.14977,-9.51901 h 13.51447 c -0.2944,5.67776 -0.64488,11.649922 -0.70095,12.827532 a 1.5981843,1.5981843 0 0 1 -1.30379,1.598184 l -3.01412,0.883207 c -0.82713,0.238326 -1.19162,1.780434 0.11216,1.724357 2.95804,-0.182249 5.43943,-0.420575 6.74321,-0.420575 1.94867,0 5.25719,0.420575 6.7993,0.476652 1.5421,0.05608 1.3178,-1.191629 0.18225,-1.50005 z m -8.4115,-21.687642 c 0,1.065456 -0.12617,2.243066 -0.18225,3.490771 h -11.56581 c 5.38336,-7.107715 11.06112,-14.551889 11.53777,-15.266866 0.47665,-0.7149775 0.93929,-0.350479 0.88321,0.182249 -0.18225,2.607564 -0.47665,7.388098 -0.70096,11.593846 z M 77.217538,18.967925 c -5.145032,-0.238326 -10.878869,5.733836 -13.598586,14.720118 -2.663641,8.69188 0.294402,12.294804 3.546848,12.294804 2.369238,0 6.322641,-3.070196 8.50963,-6.617043 0.771054,-1.247706 0.182249,-2.551488 -0.99536,-1.247706 -1.486031,1.598185 -3.490771,3.308522 -5.607665,2.901967 -1.401916,-0.238326 -2.719717,-2.663641 -0.644881,-8.69188 4.962783,-0.238326 10.808773,-3.070196 12.294804,-7.752596 1.289763,-4.037519 -1.373878,-5.551588 -3.50479,-5.607664 z m 0.532728,4.373978 c -1.247705,3.659001 -5.607664,6.729197 -8.747956,7.500251 3.014119,-7.976903 5.902066,-10.107815 7.738576,-10.051739 1.00938,0 1.486031,1.149572 1.00938,2.551488 z m 75.619354,-1.401916 h 4.79455 c 1.06546,0 1.59819,-0.294403 1.82249,-1.065457 0.42058,-1.009379 0.18225,-1.486031 -0.8832,-1.486031 h -4.79456 l 2.31316,-6.140392 c 0.29441,-0.827131 0,-1.247705 -0.47665,-1.247705 h -2.48139 c -0.64488,0 -0.88321,0.182249 -1.17761,1.009379 l -2.48139,6.420776 h -3.78517 c -0.53273,0 -0.95331,-0.112153 -1.30378,1.486031 -0.12618,0.771054 0,1.065456 0.77105,1.065456 h 3.3646 l -5.73384,14.958445 a 63.98345,63.98345 0 0 0 -2.36924,6.560967 c -0.35048,2.074836 0.89723,2.901966 2.42532,2.607564 3.01412,-0.532728 7.33202,-3.67302 11.21533,-8.579727 1.06545,-1.401916 0.18225,-2.299142 -0.88321,-1.177609 a 48.225913,48.225913 0 0 1 -5.14503,4.430055 c -1.54211,1.009379 -2.29915,0.294402 -1.76642,-1.17761 z m 53.32889,-1.401917 c 0.35048,-0.82713 -0.82713,-1.065456 -3.54685,-1.584165 -0.82713,-0.182249 -1.30378,0.700958 -2.71972,3.659001 a 5.6076643,5.6076643 0 0 0 -4.9067,-2.00474 c -4.31791,0.112154 -9.64519,4.00948 -14.01916,9.981643 -3.49078,4.794553 -4.55623,8.103075 -3.89733,11.649922 a 4.359959,4.359959 0 0 0 4.3179,3.532829 c 3.25245,0.112153 6.50489,-2.958043 9.81341,-6.336661 l 2.07484,-2.074835 c 0.5888,-0.588805 1.12153,-0.238326 0.75703,0.476651 a 33.323545,33.323545 0 0 0 -2.64962,5.84599 c -0.42057,2.074836 0.70096,2.607564 2.29914,2.369238 3.0702,-0.406555 7.86475,-3.252445 11.53777,-8.327381 1.05144,-1.486031 0,-2.313162 -0.9533,-1.191629 a 37.319006,37.319006 0 0 1 -5.25718,4.612304 c -1.59819,1.065456 -2.31317,0.771054 -1.83651,-0.476652 0.23832,-0.771053 1.12153,-2.901966 8.98628,-20.131515 z m -13.65467,15.421077 c -3.72909,3.434695 -6.74321,5.916086 -8.81805,5.916086 -1.40191,0 -2.06081,-0.602824 -2.18699,-1.598184 -0.35048,-2.607564 2.01876,-6.560967 3.96743,-9.224608 3.36459,-4.430055 7.51427,-8.103075 10.16389,-8.103075 1.83651,0 2.80383,0.771054 2.95804,1.892587 0.35048,2.046797 -3.0702,8.313362 -6.08432,11.033079 z m 82.12425,-17.818353 c -2.90197,0 -6.79929,2.060817 -10.47231,6.140392 -1.17761,1.401917 -0.29441,2.313162 0.82713,1.303782 a 28.430858,28.430858 0 0 1 4.0235,-3.070196 c 1.2477,-0.771054 2.07483,-0.182249 1.71033,0.939284 -0.2944,0.897226 -1.17761,3.084215 -1.82249,4.556227 l -4.0235,9.224608 c -1.12153,2.607564 -2.18699,5.201109 -2.42531,5.916086 -0.53273,1.83651 0.40655,2.803832 1.89258,2.803832 2.80384,0 6.68714,-2.313161 10.40222,-6.448814 1.17761,-1.401916 0.2944,-2.299142 -0.82713,-1.303782 a 39.25365,39.25365 0 0 1 -4.37398,3.364599 c -1.23368,0.757034 -2.13091,0.16823 -1.71033,-0.953303 0.2944,-0.827131 1.17761,-2.719717 1.76641,-4.079576 l 4.07958,-9.224608 c 1.19162,-2.719717 2.55148,-5.607664 2.80383,-6.378718 0.44861,-1.794453 -0.4346,-2.789813 -1.85053,-2.789813 z m 3.54685,-14.3135632 a 3.3505794,3.3505794 0 0 0 -3.54685,3.0141196 2.9300046,2.9300046 0 0 0 2.59354,3.4346946 3.4066561,3.4066561 0 0 0 3.49077,-2.9580431 2.9159855,2.9159855 0 0 0 -2.53746,-3.4907711 z m 16.37438,15.1967702 c -5.20111,-0.238326 -10.76672,5.789914 -13.48644,14.664042 -2.71971,8.874129 0.23833,12.294804 3.67302,12.294804 2.36924,0 6.32265,-2.803832 8.69188,-6.617043 0.77106,-1.247706 0.18225,-2.551488 -1.00938,-1.247706 -1.47201,1.598185 -3.36459,3.070196 -5.31326,2.958043 -1.94866,-0.112153 -3.32254,-2.803832 -1.06545,-9.280684 3.30852,-9.336761 5.60766,-10.402218 6.61704,-10.472314 1.00938,-0.0701 3.0702,2.607564 4.3179,2.901967 a 1.9066059,1.9066059 0 0 0 2.29914,-0.995361 c 0.53273,-1.009379 0.19627,-3.967422 -4.72445,-4.205748 z m -33.57589,0.406556 h -4.79456 l 2.29915,-6.140393 c 0.30842,-0.82713 0,-1.247705 -0.46264,-1.247705 h -2.49541 c -0.64488,0 -0.8832,0.182249 -1.17761,1.00938 l -2.42531,6.378718 h -3.84125 c -0.53273,0 -0.93929,-0.112153 -1.30378,1.486031 -0.11216,0.771054 0.0701,1.065456 0.77105,1.065456 h 3.37862 l -5.73384,14.958445 a 60.759043,60.759043 0 0 0 -2.36924,6.560967 c -0.3645,2.074836 0.88321,2.901966 2.42532,2.607564 3.01412,-0.532728 7.33202,-3.67302 11.21533,-8.579727 1.06545,-1.401916 0.18225,-2.299142 -0.89723,-1.177609 a 48.127779,48.127779 0 0 1 -5.15905,4.430055 c -1.54211,1.009379 -2.31316,0.294402 -1.78043,-1.17761 l 6.60302,-17.664142 h 4.79455 c 1.06546,0 1.59819,-0.294403 1.83651,-1.065457 0.40656,-0.967322 0.16823,-1.443973 -0.8832,-1.443973 z m -89.16187,16.682801 a 56.413103,56.413103 0 0 1 -5.32728,4.668381 c -1.54211,1.009379 -2.29914,0.294402 -1.76641,-1.17761 L 179.68358,1.401916 C 179.92191,0.813111 179.79574,0 178.96861,0 a 82.152282,82.152282 0 0 0 -8.4115,0.953303 c -0.47665,0.112153 -0.71498,0.82713 -0.18225,0.99536 l 3.19637,1.191629 c 0.64488,0.238326 0.71498,0.532728 0.2944,1.5981843 L 161.47269,36.940489 a 60.759043,60.759043 0 0 0 -2.36923,6.560967 c -0.35048,2.074836 0.8832,2.901966 2.42531,2.607564 3.19637,-0.532728 7.73858,-3.67302 11.706,-8.818052 1.06546,-1.415936 0.18225,-2.299143 -0.88321,-1.17761 z m 60.82914,0.112153 3.49077,-7.00958 c 1.89259,-3.84125 2.25709,-5.607664 2.25709,-6.911446 0,-2.537468 -1.30378,-3.84125 -3.96742,-3.84125 -3.7291,0 -6.68714,2.958043 -11.21533,9.336761 -1.24771,1.710337 -2.07484,3.014119 -3.7291,5.145032 -0.53273,0.6589 -0.93928,0.588805 -0.64488,-0.182249 l 2.29914,-5.733837 a 23.832573,23.832573 0 0 0 1.89259,-6.266565 c 0,-1.528088 -0.64488,-2.243066 -2.29914,-2.243066 -2.01876,0 -4.55623,1.065457 -8.98629,6.68714 -1.59818,2.060817 0,2.299142 0.53273,1.654261 0.88321,-0.897226 2.80383,-2.901966 4.07958,-4.023499 1.27574,-1.121533 2.41129,-0.771054 1.94866,0.588805 a 25.739179,25.739179 0 0 1 -1.12153,3.140292 l -7.00958,17.20151 c -0.95331,2.369238 3.54684,2.901966 4.3179,1.121533 2.42531,-5.607664 7.73858,-12.617245 9.92556,-15.729499 3.19637,-4.556227 5.97217,-7.6825 7.97691,-7.6825 1.06545,0 1.5421,0.588805 1.5421,1.710338 a 8.1731708,8.1731708 0 0 1 -0.82713,2.803832 l -4.96278,10.584467 c -1.40191,2.803832 -2.71972,5.789913 -2.95804,6.560967 -0.58881,1.83651 0.42057,2.803832 2.00474,2.803832 2.80383,0 6.68714,-2.313162 10.41624,-6.448814 1.1776,-1.401916 0.2944,-2.299142 -0.82714,-1.303782 a 40.655566,40.655566 0 0 1 -4.37397,3.378618 c -1.28977,0.82713 -2.18699,0.16823 -1.76642,-1.00938 0.2944,-0.841149 1.35986,-3.028139 2.00474,-4.331921 z"
     style="text-align:center;stroke-width:1.40191603"
     id="path2"
     inkscape:connector-curvature="0" />
</svg>
