<?xml version="1.0" encoding="UTF-8" standalone="no"?>
<!-- Created with Inkscape (http://www.inkscape.org/) -->

<svg
   xmlns:dc="http://purl.org/dc/elements/1.1/"
   xmlns:cc="http://creativecommons.org/ns#"
   xmlns:rdf="http://www.w3.org/1999/02/22-rdf-syntax-ns#"
   xmlns:svg="http://www.w3.org/2000/svg"
   xmlns="http://www.w3.org/2000/svg"
   xmlns:sodipodi="http://sodipodi.sourceforge.net/DTD/sodipodi-0.dtd"
   xmlns:inkscape="http://www.inkscape.org/namespaces/inkscape"
   width="158.75mm"
   height="17.526979mm"
   viewBox="0 0 158.75 17.526979"
   version="1.1"
   id="svg11587"
   inkscape:version="0.92.1 r15371"
   sodipodi:docname="The_Washington_Times_(2019-10-31).svg">
  <defs
     id="defs11581" />
  <sodipodi:namedview
     id="base"
     pagecolor="#ffffff"
     bordercolor="#666666"
     borderopacity="1.0"
     inkscape:pageopacity="0.0"
     inkscape:pageshadow="2"
     inkscape:zoom="2.0066667"
     inkscape:cx="300"
     inkscape:cy="33.121852"
     inkscape:document-units="mm"
     inkscape:current-layer="svg11587"
     showgrid="false"
     fit-margin-top="0"
     fit-margin-left="0"
     fit-margin-right="0"
     fit-margin-bottom="0"
     inkscape:window-width="1920"
     inkscape:window-height="1001"
     inkscape:window-x="-9"
     inkscape:window-y="-9"
     inkscape:window-maximized="1" />
  <metadata
     id="metadata11584">
    <rdf:RDF>
      <cc:Work
         rdf:about="">
        <dc:format>image/svg+xml</dc:format>
        <dc:type
           rdf:resource="http://purl.org/dc/dcmitype/StillImage" />
        <dc:title></dc:title>
      </cc:Work>
    </rdf:RDF>
  </metadata>
  <path
     inkscape:connector-curvature="0"
     id="path8857"
     d="m 127.8741,3.54914 c 0.65613,0.71152 1.38642,1.42304 2.31665,1.78724 v 0.2187 c -0.71152,0 -0.98562,0.2375 -0.98562,0.949 v 4.26818 c 0,0.4562 0.2741,0.71152 0.58386,0.71152 0.25533,0 0.41959,-0.1464 0.69275,-0.32854 l 0.092,0.182 -2.62642,2.20684 c -1.45965,-0.93024 -1.47749,-1.96936 -1.47749,-2.58982 V 6.50398 c 0,-0.56506 0,-0.98466 -0.38297,-0.98466 -0.1652,0 -0.43837,0.1456 -0.60263,0.29192 l -0.16426,-0.183 z m 1.27659,-2.06134 c 0,0.74814 -0.72934,1.27754 -1.49531,1.69714 -0.54725,-0.4562 -1.1311,-1.09544 -1.1311,-1.76942 0,-0.74812 0.71152,-1.18648 1.31321,-1.18648 0.65614,0 1.3132,0.43836 1.3132,1.25876"
     style="fill:#301400;fill-opacity:1;fill-rule:nonzero;stroke:none;stroke-width:0.24030127" />
  <path
     inkscape:connector-curvature="0"
     id="path8859"
     d="m 131.66729,6.50408 c 0,-0.63828 -0.29193,-0.87578 -0.6383,-0.87578 -0.20088,0 -0.43742,0.20088 -0.56603,0.34638 l -0.14548,-0.23654 2.40771,-2.189 c 0.89362,0.4928 1.65958,1.00344 1.67835,2.189 l 2.47999,-2.17022 c 0.89456,0.49186 1.66051,1.0025 1.67835,2.18804 l 2.99157,-2.20682 c 0.4928,0.71152 1.22215,1.42304 2.15238,1.78724 v 0.2187 c -0.71152,0 -0.98561,0.2375 -0.98561,0.949 v 4.26818 c 0,0.4562 0.27409,0.71152 0.58386,0.71152 0.25532,0 0.41958,-0.1464 0.69368,-0.32854 l 0.0911,0.182 -2.62642,2.20684 c -1.45967,-0.91146 -1.47749,-1.95152 -1.47749,-2.57104 V 6.2665 c 0,-0.32758 -0.0911,-0.74718 -0.43836,-0.74718 -0.1455,0 -0.30977,0.0722 -0.43743,0.1634 l -0.54725,0.38296 v 4.92526 c 0,0.34636 0.1455,0.56508 0.51064,0.58384 v 0.21872 c -0.93023,0.25532 -1.5507,1.00344 -1.86046,1.75064 -0.60168,-0.83826 -1.34982,-1.51316 -2.097,-1.75064 v -0.21868 h 0.21871 c 0.36421,0 0.49281,-0.36514 0.49281,-1.00344 v -4.5601 c 0,-0.41958 -0.23749,-0.51064 -0.38392,-0.51064 -0.16428,0 -0.34637,0.0732 -0.49187,0.1642 l -0.54725,0.38298 v 4.94308 c 0,0.34636 0.1455,0.56508 0.51064,0.58384 v 0.21872 c -0.93023,0.25532 -1.5507,1.00344 -1.86046,1.75064 -0.60168,-0.83826 -1.34982,-1.51316 -2.31665,-1.75064 v -0.21864 h 0.29193 c 0.51064,0 0.6383,-0.30976 0.6383,-1.00344 v -4.0673"
     style="fill:#301400;fill-opacity:1;fill-rule:nonzero;stroke:none;stroke-width:0.24030127" />
  <path
     inkscape:connector-curvature="0"
     id="path8861"
     d="m 150.72712,6.75942 -4.03161,2.55414 c 0.27409,1.09354 1.24092,2.04256 2.49969,2.04256 0.6017,0 1.18555,-0.47498 1.64175,-0.74814 l 0.12672,0.20088 c -1.16677,0.89362 -2.42554,1.6962 -3.52004,2.73626 -2.26127,-0.8392 -3.48343,-1.8614 -3.48343,-4.4146 0,-2.99156 0.20087,-3.62988 1.89707,-4.35922 l 2.86296,-1.22216 z m -2.33449,1.09448 -1.71496,-3.10044 h -0.0366 c -0.0178,1.20338 -0.0545,2.4077 -0.0545,3.35576 0,0.47404 0.0178,0.67492 0.0545,0.8758 l 1.75157,-1.13112"
     style="fill:#301400;fill-opacity:1;fill-rule:nonzero;stroke:none;stroke-width:0.24030127" />
  <path
     inkscape:connector-curvature="0"
     id="path8863"
     d="m 150.60791,13.02884 c 0.67678,-0.87766 1.29913,-1.82948 1.77504,-2.83574 -0.89644,-0.4393 -1.592,-1.06072 -1.592,-2.14018 0,-2.19558 2.85358,-2.7081 3.62235,-4.53758 0.45808,0.5482 1.06353,0.94808 1.77505,1.00626 0.6214,0.0498 2.02754,-0.1258 1.8689,-1.3348 0,0 0.19242,-0.075 0.19336,-0.0696 0.0563,0.26002 0.10608,0.52286 0.10608,0.81384 0,1.68492 -1.21746,1.96278 -1.4005,2.786 0.98842,0.183 1.79381,1.0607 1.79381,2.08574 0,2.15896 -1.79381,2.2134 -3.56791,4.88488 -0.73217,-0.51254 -2.56165,-1.09826 -3.42148,-1.09826 -0.45714,0 -0.69556,0.183 -0.91521,0.5679 z m 4.39113,-4.40898 c -1.00626,0 -1.99469,0.85984 -2.39644,1.77506 1.40895,0 2.72498,0.56694 3.91428,1.31696 0.20182,-0.25626 0.25626,-0.60358 0.25626,-0.91522 0,-1.09732 -0.56696,-2.1768 -1.7741,-2.1768 z M 154.5419,8.2904 c 0.93305,0 1.84732,-0.91522 2.19557,-1.68306 l -0.0375,-0.0366 c -0.25532,0.183 -0.64018,0.25628 -0.98749,0.25628 -0.98843,0 -1.97591,-0.64112 -2.61609,-1.35452 -0.27503,0.1286 -0.32947,0.45808 -0.32947,0.73216 0,0.96966 0.71339,2.08574 1.77503,2.08574"
     style="fill:#301400;fill-opacity:1;fill-rule:nonzero;stroke:none;stroke-width:0.24030127" />
  <path
     inkscape:connector-curvature="0"
     id="path8865"
     d="m 118.09214,6.6327 4.15084,-2.63676 0.046,0.0226 0.002,0.56414 v 3.36046 c 0,0.80726 -0.60076,1.46246 -1.30008,1.94118 l -2.23029,1.41552 -0.0957,-0.22998 c 0,0 1.07573,-0.67584 1.07573,-0.68428 0,-0.012 -0.002,-4.50566 -0.002,-4.50566 l -1.50846,0.95746 -0.13798,-0.20464"
     style="fill:#301400;fill-opacity:1;fill-rule:nonzero;stroke:none;stroke-width:0.24030127" />
  <path
     inkscape:connector-curvature="0"
     id="path8867"
     d="m 123.57027,1.27378 c 0.92177,0.21402 1.16583,-0.92742 -0.47873,-0.92742 -0.003,-0.016 -0.017,-0.152 -0.0216,-0.168 0,0 0.85795,-0.22246 1.47654,-0.0564 0.62891,0.169 1.34982,0.69368 1.34982,1.84168 0,1.23154 -1.46058,2.40302 -3.49563,1.81822 -2.00314,-0.5754 -3.3905,-0.96026 -4.08794,-1.16958 -1.25876,-0.37642 -1.71027,1.02034 -0.67491,1.46902 0,0 -0.0732,0.1408 -0.0864,0.1718 -0.84011,-0.138 -1.64831,-1.01284 -1.6408,-1.99938 0.007,-0.98468 0.40269,-1.41552 0.92084,-1.7497 0.43085,-0.27878 1.15269,-0.58386 2.58793,-0.36514 0.65895,0.0994 3.66084,1.02034 4.15083,1.13486"
     style="fill:#301400;fill-opacity:1;fill-rule:nonzero;stroke:none;stroke-width:0.24030127" />
  <path
     inkscape:connector-curvature="0"
     id="path8869"
     d="m 123.33278,1.5 v 10.94122 h 0.24687 V 1.4972 l -0.24687,0.002"
     style="fill:#301400;fill-opacity:1;fill-rule:nonzero;stroke:none;stroke-width:0.24030127" />
  <path
     inkscape:connector-curvature="0"
     id="path8871"
     d="m 120.19572,3.2863 c 0.0122,0.0422 0.014,0.21966 0.014,0.21966 -2.34856,1.16114 -2.87891,6.6477 0.0676,7.68494 2.02473,0.71246 4.34045,0.27504 5.20591,-2.2303 0.0554,0.004 0.24124,0.002 0.24124,0.002 -0.0273,0.31728 -0.68992,4.96654 -5.09232,4.83888 -4.26347,-0.124 -5.06886,-3.48156 -5.06886,-5.1402 0,-1.51972 0.84106,-4.43242 4.63238,-5.37486"
     style="fill:#301400;fill-opacity:1;fill-rule:nonzero;stroke:none;stroke-width:0.24030127" />
  <path
     inkscape:connector-curvature="0"
     id="path8873"
     d="m 33.62719,6.72186 c 0,-0.1596 0.27504,-0.40176 0.62798,-0.40176 0.35668,0 0.62514,0.25064 0.62514,0.40176 v 0.41302 c 0,-0.21308 -0.25532,-0.57258 -0.62514,-0.57258 -0.3492,0 -0.62798,0.3595 -0.62798,0.57258 V 6.72186"
     style="fill:#301400;fill-opacity:1;fill-rule:nonzero;stroke:none;stroke-width:0.24030127" />
  <path
     inkscape:connector-curvature="0"
     id="path8875"
     d="m 34.88031,5.22656 c 0,0.1596 -0.2722,0.40268 -0.62514,0.40268 -0.35576,0 -0.62798,-0.25062 -0.62798,-0.40268 V 4.81354 c 0,0.21402 0.25814,0.57258 0.62798,0.57258 0.35012,0 0.62514,-0.35856 0.62514,-0.57258 v 0.41302"
     style="fill:#301400;fill-opacity:1;fill-rule:nonzero;stroke:none;stroke-width:0.24030127" />
  <path
     inkscape:connector-curvature="0"
     id="path8877"
     d="m 38.66695,6.72186 c 0,-0.1596 0.27596,-0.40176 0.6289,-0.40176 0.35576,0 0.62516,0.25064 0.62516,0.40176 v 0.41302 c 0,-0.21308 -0.25532,-0.57258 -0.62516,-0.57258 -0.35012,0 -0.6289,0.3595 -0.6289,0.57258 V 6.72186"
     style="fill:#301400;fill-opacity:1;fill-rule:nonzero;stroke:none;stroke-width:0.24030127" />
  <path
     inkscape:connector-curvature="0"
     id="path8879"
     d="m 39.92101,5.22656 c 0,0.1596 -0.2722,0.40268 -0.62516,0.40268 -0.35668,0 -0.6289,-0.25062 -0.6289,-0.40268 V 4.81354 c 0,0.21402 0.25906,0.57258 0.6289,0.57258 0.3492,0 0.62516,-0.35856 0.62516,-0.57258 v 0.41302"
     style="fill:#301400;fill-opacity:1;fill-rule:nonzero;stroke:none;stroke-width:0.24030127" />
  <path
     inkscape:connector-curvature="0"
     id="path8881"
     d="m 39.22077,12.5351 c 0.8786,-0.71058 3.60358,-1.8154 3.60358,-3.09482 l 0.002,-5.59358 c 0,-0.55758 0.2619,-1.2888 1.15268,-1.2888 V 2.33824 C 42.82439,1.61358 41.97957,0.68242 41.51211,0.01126 40.53213,1.1311 39.95953,1.4803 38.64351,2.51378 l 0.008,0.4008 c 0.33794,-0.36796 0.65238,-0.60262 1.04944,-0.3257 0.21872,0.152 0.20838,0.81664 0.20464,1.49436 v 7.83044 l -2.1186,-1.84824 0.004,-7.50286 c 0,-1.6164 -1.06258,-2.26878 -1.4709,-2.55882 -0.73968,0.88422 -1.72904,1.67084 -2.70432,2.49124 0,-0.0404 -0.002,0.4074 0,0.40364 0.2769,-0.35388 0.6993,-0.58668 1.04192,-0.30976 0.1878,0.152 0.20838,0.74718 0.20838,1.32166 v 7.31792 c 0,0 3.07512,2.06978 3.3126,2.31288 0.002,0.002 0.5604,-0.61576 1.04288,-1.00624"
     style="fill:#301400;fill-opacity:1;fill-rule:nonzero;stroke:none;stroke-width:0.24030127" />
  <path
     inkscape:connector-curvature="0"
     id="path8883"
     d="m 32.91191,13.55356 c 0.59136,-0.80258 2.60858,-2.51002 2.60858,-2.51002 -0.0648,-0.091 -0.1746,-0.24688 -0.1746,-0.24688 -0.1324,0.1314 -0.5266,0.48906 -0.78098,0.69744 0,0 -0.1314,-0.22904 -0.1914,-0.3032 -0.39798,-0.49186 -0.97714,-0.92366 -1.63234,-1.11984 V 2.54382 c 0,-1.60796 -1.1433,-2.2641 -1.57416,-2.54382 -0.69838,0.79694 -2.0266,1.86326 -3.09482,2.75502 l 0.1652,0.21026 c 0.26472,-0.21964 0.643,-0.55382 0.99312,-0.45056 0.6261,0.183 0.58856,1.29724 0.59232,1.52816 l 0.008,5.95684 c -1.74408,0.71998 -1.58168,2.06604 -1.40426,2.65928 0.139,0.46558 0.75282,1.23998 1.73374,1.31226 l 0.0224,-0.21682 c -0.29842,-0.0488 -0.67766,-0.1736 -0.67766,-0.6599 0,-0.8157 0.97248,-0.99312 1.30476,-0.99312 1.1067,0 1.7741,0.94806 2.1017,1.45214"
     style="fill:#301400;fill-opacity:1;fill-rule:nonzero;stroke:none;stroke-width:0.24030127" />
  <path
     inkscape:connector-curvature="0"
     id="path8885"
     d="m 38.44823,0.03474 v 11.35142 h 0.23468 V 0.0338 l -0.23468,7e-4"
     style="fill:#301400;fill-opacity:1;fill-rule:nonzero;stroke:none;stroke-width:0.24030127" />
  <path
     inkscape:connector-curvature="0"
     id="path8887"
     d="m 33.39627,11.52038 h 0.2403 V 0.01878 h -0.2403 z m 0,0"
     style="fill:#301400;fill-opacity:1;fill-rule:nonzero;stroke:none;stroke-width:0.24030127" />
  <path
     inkscape:connector-curvature="0"
     id="path8889"
     d="m 51.454548,13.02884 c 0.67772,-0.87766 1.299119,-1.82948 1.775019,-2.83574 -0.89642,-0.4393 -1.591979,-1.06072 -1.591979,-2.14018 0,-2.19558 2.854519,-2.7081 3.622339,-4.53758 0.45808,0.5482 1.06352,0.94808 1.775039,1.00626 0.62234,0.0498 2.02754,-0.1258 1.86892,-1.3348 0,0 0.1924,-0.075 0.1942,-0.0696 0.0554,0.26002 0.1052,0.52286 0.1052,0.81384 0,1.68492 -1.21748,1.96278 -1.39958,2.786 0.9875,0.183 1.79288,1.0607 1.79288,2.08574 0,2.15896 -1.79288,2.2134 -3.567919,4.88488 -0.73216,-0.51254 -2.56164,-1.09826 -3.42146,-1.09826 -0.457139,0 -0.694639,0.183 -0.914279,0.5679 z m 4.391119,-4.40898 c -1.00626,0 -1.99468,0.85984 -2.39644,1.77506 1.40896,0 2.72592,0.56694 3.915219,1.31696 0.20088,-0.25626 0.25626,-0.60358 0.25626,-0.91522 0,-1.09732 -0.5679,-2.1768 -1.775039,-2.1768 z M 55.388527,8.2904 c 0.93304,0 1.848259,-0.91522 2.195579,-1.68306 l -0.0366,-0.0366 c -0.25628,0.183 -0.64018,0.25628 -0.98844,0.25628 -0.987479,0 -1.975919,-0.64112 -2.616099,-1.35452 -0.27408,0.1286 -0.32948,0.45808 -0.32948,0.73216 0,0.96966 0.71434,2.08574 1.77506,2.08574"
     style="fill:#301400;fill-opacity:1;fill-rule:nonzero;stroke:none;stroke-width:0.24030127" />
  <path
     inkscape:connector-curvature="0"
     id="path8891"
     d="m 43.71891,6.98376 c 0,-0.87486 0.364199,-1.25782 1.385479,-1.65958 1.49624,-0.58386 2.49876,-1.22216 3.192439,-1.76942 0.65614,0.78474 2.06134,1.71498 3.44776,2.0069 v 0.21872 c -0.69368,0 -1.02222,0.25532 -1.02222,0.91146 v 3.68524 c 0,0.51064 0.0544,1.22216 0.54726,1.22216 0.2187,0 0.36514,-0.1286 0.69366,-0.29194 l 0.1088,0.2 c -0.87482,0.62046 -1.6774,1.29538 -2.40768,2.0435 -0.76596,-0.54724 -1.58636,-1.22216 -1.641759,-2.08012 -0.91144,0.63924 -1.78724,1.332 -2.60764,2.08012 C 43.90093,12.65718 43.71883,12.12776 43.71883,11.03326 Z M 47.987069,6.30978 C 47.439829,6.0723 46.892569,5.56166 46.454209,5.1599 v 5.74564 c 0,0.51064 0.1098,0.8758 0.4562,0.8758 0.1642,0 0.29192,-0.0544 0.38298,-0.1276 l 0.69368,-0.51064 V 6.30984"
     style="fill:#301400;fill-opacity:1;fill-rule:nonzero;stroke:none;stroke-width:0.24030127" />
  <path
     inkscape:connector-curvature="0"
     id="path8893"
     d="m 60.353186,4.24844 c 0,-1.18554 -0.6383,-2.64518 -1.1311,-3.02816 l 0.20088,-0.20088 c 0.32854,0.32854 0.72936,0.98562 0.9124,1.64174 h 0.0366 C 60.626345,0.85608 62.651065,0.2356 65.040944,0.2356 h 0.1088 v 0.32854 h -0.400799 c -1.42304,0 -1.6596,1.00252 -1.6596,2.31572 v 2.8639 L 66.080924,3.5557 c 1.05694,1.27662 1.2766,1.78724 1.2766,3.02724 v 3.53882 c 0,2.5532 -0.47498,4.34044 -2.58982,5.85452 -0.839179,0.6017 -1.788179,1.0579 -2.700579,1.5507 l -0.1276,-0.25532 c 1.84262,-0.82134 2.68182,-1.93368 2.68182,-5.21716 V 6.674 c 0,-0.58386 -0.0732,-1.16772 -0.52942,-1.16772 -0.1822,0 -0.30978,0.0732 -0.40082,0.1464 l -0.6017,0.43744 v 4.7788 c 0,0.4928 0.1088,0.78474 0.4562,0.78474 0.1634,0 0.38298,-0.091 0.49188,-0.20088 l 0.0732,0.23748 c -0.857,0.51064 -1.65958,1.14894 -2.3711,1.86046 -0.60168,-0.78474 -1.349819,-1.40426 -2.316639,-1.6962 v -0.2187 c 0.80256,0.018 0.93022,-0.32854 0.93022,-1.05788 V 4.24842"
     style="fill:#301400;fill-opacity:1;fill-rule:nonzero;stroke:none;stroke-width:0.24030127" />
  <path
     inkscape:connector-curvature="0"
     id="path8895"
     d="m 70.221503,3.55476 c 0.65708,0.71152 1.38642,1.42304 2.31666,1.78818 v 0.21872 c -0.71058,0 -0.98468,0.23654 -0.98468,0.94806 v 4.26816 c 0,0.4562 0.2741,0.71152 0.58386,0.71152 0.25532,0 0.4196,-0.1464 0.69274,-0.32854 l 0.091,0.1822 -2.62642,2.20776 C 68.835964,12.62058 68.817184,11.58054 68.817184,10.96006 V 6.5098 c 0,-0.56508 0,-0.98466 -0.38298,-0.98466 -0.1642,0 -0.43742,0.1454 -0.6017,0.29192 l -0.1642,-0.183 z m 1.27754,-2.06038 c 0,0.74718 -0.72936,1.2766 -1.49624,1.69618 -0.54726,-0.4562 -1.130179,-1.0945 -1.130179,-1.7694 0,-0.74812 0.710579,-1.18556 1.313219,-1.18556 0.65612,0 1.3132,0.43744 1.3132,1.25878"
     style="fill:#301400;fill-opacity:1;fill-rule:nonzero;stroke:none;stroke-width:0.24030127" />
  <path
     inkscape:connector-curvature="0"
     id="path8897"
     d="m 76.715282,10.9966 c 0,0.34638 0.1454,0.56602 0.51064,0.58386 v 0.21872 c -0.93024,0.25532 -1.5507,1.00344 -1.86046,1.75156 -0.6017,-0.83918 -1.34982,-1.51408 -2.316659,-1.75156 v -0.21872 h 0.291919 c 0.51064,0 0.6383,-0.30976 0.6383,-1.00346 V 6.50972 c 0,-0.6383 -0.29192,-0.87578 -0.6383,-0.87578 -0.20088,0 -0.438359,0.20088 -0.566019,0.34732 l -0.1454,-0.2375 2.407699,-2.189 c 0.89362,0.49282 1.65958,1.00346 1.67836,2.189 l 2.991559,-2.189 c 0.49186,0.71152 1.22122,1.42304 2.151439,1.78818 v 0.21872 c -0.710579,0 -0.984659,0.23748 -0.984659,0.94806 v 4.14052 c 0,0.58384 0.27408,0.83916 0.58386,0.83916 0.255319,0 0.418639,-0.1464 0.692739,-0.32854 l 0.091,0.1822 -2.626419,2.20776 c -1.4587,-0.93024 -1.47748,-1.97028 -1.47748,-2.59076 V 6.25448 c 0,-0.32854 -0.091,-0.74812 -0.43742,-0.74812 -0.1822,0 -0.29192,0.0732 -0.437419,0.1642 l -0.54724,0.38298 v 4.94308"
     style="fill:#301400;fill-opacity:1;fill-rule:nonzero;stroke:none;stroke-width:0.24030127" />
  <path
     inkscape:connector-curvature="0"
     id="path8899"
     d="m 82.4778,6.61956 c 0,-1.33198 2.49876,-1.22216 4.341379,-3.0648 0.96684,1.02224 2.370164,1.79852 3.537881,1.9778 v 0.24782 c -0.692741,0 -0.874843,0.25532 -0.874843,0.91146 v 5.23498 c 0,0.2741 0.255316,0.51064 0.510633,0.83918 0.23749,0.32854 0.491872,0.74812 0.491872,1.42304 0,2.18806 -2.334493,3.33794 -4.249383,3.33794 -1.239999,0 -3.520039,-0.183 -3.520039,-1.89708 0,-0.76596 0.65706,-1.20432 1.36764,-1.20432 0.71152,0 1.605139,0.32854 1.586359,1.16772 0,1.25878 -1.130159,0.94806 -1.130159,1.2766 0,0.29194 0.87578,0.32854 1.112339,0.32854 1.1677,0 2.535364,-0.4928 2.535364,-1.86046 0,-1.36766 -1.404264,-1.64174 -1.404264,-3.86736 -0.9124,0.63924 -1.787239,1.332 -2.608579,2.08012 -1.5141,-0.89362 -1.6962,-1.42304 -1.6962,-2.51754 z m 4.268159,-0.21872 c -0.54724,-0.23748 -1.05788,-0.56602 -1.531919,-0.949 v 5.28944 c 0,0.54724 0.1098,1.04006 0.455259,1.04006 0.092,0 0.2375,-0.018 0.38392,-0.1276 l 0.69274,-0.51064 V 6.4009"
     style="fill:#301400;fill-opacity:1;fill-rule:nonzero;stroke:none;stroke-width:0.24030127" />
  <path
     inkscape:connector-curvature="0"
     id="path8901"
     d="m 94.151189,9.5745 c 0,0.7838 0.07322,1.62298 0.674916,1.62298 0.491864,0 0.911452,-0.34638 1.166774,-0.51064 l 0.14644,0.182 -3.028171,2.6818 C 92.546058,12.6927 91.506002,11.79908 90.484722,11.58036 V 11.3072 c 0.14642,0.0366 0.274098,0.0544 0.382978,0.0544 0.492808,0 0.547248,-0.20088 0.547248,-0.76596 V 5.77836 H 90.4866 V 5.53148 c 1.915838,-0.52942 2.788808,-2.7428 3.336058,-4.49344 h 0.328531 v 3.72092 h 1.86046 v 1.01 h -1.86046 v 3.8054"
     style="fill:#301400;fill-opacity:1;fill-rule:nonzero;stroke:none;stroke-width:0.24030127" />
  <path
     inkscape:connector-curvature="0"
     id="path8903"
     d="m 96.667789,5.10546 c 1.769405,0.0544 3.885181,-0.30976 5.088561,-1.5507 1.71497,1.20434 1.9149,1.93368 1.9149,4.45122 0,3.21026 -0.29098,3.59326 -1.80507,3.95746 -1.00345,0.23748 -1.67835,0.60168 -2.188994,1.5873 -1.039114,-0.949 -2.280047,-1.7694 -3.684307,-2.15238 v -0.21872 c 0.638298,-0.0554 0.67491,-0.5294 0.67491,-0.74812 z m 2.736241,5.27162 c 0.583856,0.29192 1.09355,0.72934 1.53192,1.13016 V 6.83826 c 0,-0.83918 -0.25532,-1.42304 -1.53192,-1.69618 v 5.235"
     style="fill:#301400;fill-opacity:1;fill-rule:nonzero;stroke:none;stroke-width:0.24030127" />
  <path
     inkscape:connector-curvature="0"
     id="path8905"
     d="m 107.77515,10.9966 c 0,0.34638 0.1455,0.56602 0.51063,0.58386 v 0.21872 c -0.93022,0.25532 -1.54975,1.00344 -1.86045,1.75156 -0.60169,-0.83918 -1.34982,-1.51408 -2.31571,-1.75156 v -0.21872 h 0.29099 c 0.51064,0 0.6383,-0.30976 0.6383,-1.00346 V 6.50972 c 0,-0.6383 -0.29193,-0.87578 -0.6383,-0.87578 -0.19994,0 -0.43743,0.20088 -0.56509,0.34732 l -0.14643,-0.2375 2.4077,-2.189 c 0.89456,0.49282 1.66052,1.00346 1.67835,2.189 l 2.99156,-2.189 c 0.49281,0.71152 1.22216,1.42304 2.15239,1.78818 v 0.21872 c -0.71152,0 -0.98561,0.23748 -0.98561,0.94806 v 4.14052 c 0,0.58384 0.2741,0.83916 0.58385,0.83916 0.25533,0 0.4196,-0.1464 0.69369,-0.32854 l 0.0911,0.1822 -2.62642,2.20776 c -1.45964,-0.93024 -1.47748,-1.97028 -1.47748,-2.59076 V 6.25448 c 0,-0.32854 -0.0911,-0.74812 -0.43836,-0.74812 -0.1821,0 -0.29099,0.0732 -0.43742,0.1642 l -0.54725,0.38298 v 4.94308"
     style="fill:#301400;fill-opacity:1;fill-rule:nonzero;stroke:none;stroke-width:0.24030127" />
  <path
     inkscape:connector-curvature="0"
     id="path8907"
     d="m 10.65682,1.68212 c 0.185,0.185 0.4149,0.64204 0.45808,0.8983 l 0.0282,0.0714 c 0.49844,-2.02004 2.17866,-2.40864 4.56478,-2.40864 h 0.1098 v 0.3276 h -0.40082 c -1.42022,0 -1.65678,1.00062 -1.65678,2.31102 V 5.741 l 2.98594,-2.18524 c 1.05508,1.27472 1.27378,1.7835 1.27378,3.0216 v 3.53224 c 0,2.54946 -0.36232,4.33482 -2.47434,5.84516 -0.8373,0.5998 -1.78444,1.056 -2.694,1.54788 l -0.1268,-0.25532 c 1.83794,-0.81854 2.56448,-1.92992 2.56448,-5.2078 v -5.3711 c 0,-0.58198 -0.0722,-1.1649 -0.52754,-1.1649 -0.183,0 -0.30976,0.0722 -0.40082,0.1464 L 13.76002,6.0864 v 4.76848 c 0,0.49186 0.109,0.7838 0.45526,0.7838 0.1642,0 0.38206,-0.091 0.49094,-0.20088 l 0.0732,0.23654 c -0.85514,0.51064 -1.65678,1.14894 -2.3664,1.85952 C 11.81226,12.751 11.066,12.1296 10.10104,11.83768 v -0.21686 c 0.8007,0.018 0.92836,-0.32854 0.92836,-1.05602 V 4.24752 c 0,-0.77912 -0.1568,-1.638 -0.36984,-2.13644 l -0.002,-0.42896"
     style="fill:#301400;fill-opacity:1;fill-rule:nonzero;stroke:none;stroke-width:0.24030127" />
  <path
     inkscape:connector-curvature="0"
     id="path8909"
     d="m 21.53233,8.97282 c -0.0366,-0.2 -0.0544,-0.40082 -0.0544,-0.87392 0,-0.94524 0.0358,-2.14676 0.0544,-3.34826 h 0.0366 l 1.71028,3.09388 z m 2.07448,-5.42368 -2.85733,1.22028 c -1.69336,0.72748 -1.8933,1.36484 -1.8933,4.34982 0,2.54758 1.21934,3.56792 3.47685,4.40616 1.09168,-1.03818 2.34762,-1.84074 3.51252,-2.7325 l -0.1276,-0.2 c -0.45524,0.27316 -1.03722,0.74626 -1.63798,0.74626 -1.25596,0 -2.22092,-0.94714 -2.49406,-2.0388 l 4.02316,-2.54852 -2.0022,-3.20276"
     style="fill:#301400;fill-opacity:1;fill-rule:nonzero;stroke:none;stroke-width:0.24030127" />
  <path
     inkscape:connector-curvature="0"
     id="path8911"
     d="m 4.6324,3.25908 c 0.014,0.0422 0.014,0.2206 0.014,0.2206 -2.34856,1.1602 -2.87798,6.64676 0.0686,7.684 2.02378,0.71246 4.3395,0.27598 5.20496,-2.22936 0.0554,0.004 0.24218,7e-4 0.24218,7e-4 -0.0282,0.3182 -0.69088,4.96654 -5.09328,4.83888 C 0.8054,13.6509 0,10.2933 0,8.63372 0,7.114 0.84106,4.20222 4.63238,3.25886"
     style="fill:#301400;fill-opacity:1;fill-rule:nonzero;stroke:none;stroke-width:0.24030127" />
  <path
     inkscape:connector-curvature="0"
     id="path8913"
     d="m 8.0107,1.24374 c 0.92272,0.21402 1.16678,-0.9274 -0.47778,-0.9274 -0.002,-0.016 -0.016,-0.1512 -0.0216,-0.168 0,0 0.85796,-0.22154 1.47654,-0.0564 0.6289,0.169 1.34888,0.69464 1.34888,1.8417 0,1.23248 -1.45964,2.403 -3.4947,1.81822 C 4.83892,3.17644 3.45248,2.79158 2.7541,2.5832 1.49534,2.20584 1.04384,3.6026 2.08014,4.05224 c 0,0 -0.0742,0.1398 -0.0872,0.1718 C 1.15282,4.08604 0.34462,3.21028 0.35212,2.22372 0.36012,1.23906 0.75482,0.80914 1.27298,0.47404 1.70382,0.19524 2.42568,-0.10888 3.8609,0.10888 4.51986,0.20828 7.52174,1.12924 8.0108,1.24374"
     style="fill:#301400;fill-opacity:1;fill-rule:nonzero;stroke:none;stroke-width:0.24030127" />
  <path
     inkscape:connector-curvature="0"
     id="path8915"
     d="M 7.77322,1.46996 V 12.41024 H 8.0201 V 1.46714 l -0.24688,0.002"
     style="fill:#301400;fill-opacity:1;fill-rule:nonzero;stroke:none;stroke-width:0.24030127" />
  <path
     inkscape:connector-curvature="0"
     id="path8917"
     d="m 2.52602,6.62424 4.15176,-2.63674 0.046,0.0236 6.8e-4,0.5632 v 3.22812 c 0,0.4008 0.076,1.1771 -1.30006,2.07354 l -2.22936,1.41646 -0.0966,-0.22998 c 0,0 1.07666,-0.67584 1.07666,-0.6843 0,-0.012 -0.002,-4.50658 -0.002,-4.50658 L 2.66466,6.82994 2.52666,6.62438"
     style="fill:#301400;fill-opacity:1;fill-rule:nonzero;stroke:none;stroke-width:0.24030127" />
</svg>
